P3
50 50
255
  87  75  17    94  85  25    93  88  23   100  97  28   112 113  43    99  99  32    83  97  18    92 100  36   125 127  60   152 154  83   131 127  79    90  88  50    83  87  36    85  92  31   122 133  53   144 159  62   125 142  39   109 118  36    95  96  36    93  89  29   100  96  23   130 125  42   139 145  38   164 166  66   181 182  88   151 150  59   117 112  24   126 115  35   119 105  38   120 102  44   126 120  42   124 116  43   119 105  40   124 108  45   116  96  36   111  91  30   120 100  40   102  82  23    94  73   6   119 104  39   139 131  69   125 122  62   131 129  70   127 121  63   141 129  71   143 127  68   125 106  45   117  98  28   154 133  67   188 164 103  
  68  66  23    72  72  27    76  77  34    78  81  37    87  92  45    81  88  35    70  72  28    53  54  19    57  54  26    87  85  47   120 117  68    78  72  35    54  46  21    63  54  28    98 102  42   103 108  38   109 116  35   118 121  43   112 110  48    93  87  36    85  77  16   121 115  37   124 129  30   131 135  41   149 154  62   142 146  58   111 110  27   115 113  29   123 117  33   124 115  32   132 126  46   118 108  36   116 101  35   132 112  45   130 107  34   128 103  29   132 106  40   115  88  32   145 125  62   198 182 123   177 165 113   167 160 112   170 166 116   157 150  95   160 148  87   153 138  73   181 165  92   155 138  63   168 147  84   232 210 155  
  38  45  11    46  54  18    70  78  43    63  71  40    41  48  22    25  32  11    27  22  14    21  17   8    20  17  12    29  29  11    81  80  39   100  94  49    87  76  36    93  78  32    83  81  34    59  51  18    66  55  22   105  94  40   126 119  44   134 130  48   126 120  40   111 104  24    96 100  17   106 111  31   107 115  30   105 114  29    97 103  25   110 114  34   120 121  34   116 115  28   117 115  36   103  97  24   105  94  23   127 111  36   139 118  39   148 124  49   159 132  70   153 124  73   168 147  96   199 182 133   160 147  99   145 135  85   134 126  70   134 125  59   148 138  62   166 154  71   224 210 145   188 172 107   144 125  69   183 162 110  
  22  28  12    46  51  31    61  68  44    38  43  23    16  19   8    16  17  14    15  13   6    10   8   8    20  21  18    31  35  15    67  71  27   126 126  61   134 129  56   103  91  26    73  66  18    72  56  24    67  40  21    71  44  16    99  82  23   134 126  43   138 131  47   116 105  31    92  94  17    99 103  29    97 108  18   108 124  25   103 116  29   100 112  27   104 111  25    99 102  29    88  94  20    97 102  23    98  97  16   128 121  41   173 158  87   182 163 105   177 154 105   177 154 109   136 115  59   133 115  56   119 102  40   108  95  29   101  88  20    98  85  17    98  82  17   125 109  43   168 156  81   166 152  79   128 112  42   123 105  39  
  44  54  22    59  65  40    44  46  31    22  21  15    16  13   8    12   9   2    18  15   6    25  23  10    51  53  17    61  63  19    62  59  20    93  88  36   149 142  75   119 108  51    78  68  10   125 105  41   122  88  31    83  45  12    65  35  16    64  45  15    86  73  24    97  80  23   105 103  17   103 104  27   106 116  20   137 156  41   145 162  57   129 143  42   104 113  18    83  85  20    66  77   8    83  91  14    94 100  14   150 147  70   210 201 139   217 205 154   196 182 133   171 157 103   117  97  36    96  75   9    98  79   3    98  78   2    93  73   1    94  75   4   100  78  20    86  65  14   163 149  83   206 192 126   183 166  94   191 175  98  
  67  83  36    41  51  19    16  21   6    13  12   7    17  14   9    17  14   6    36  26  20    73  68  21    95  90  16    84  73  13    62  44  13    64  45  14   129 113  60   148 135  63   101  90  25   118  92  19   155 115  42   125  82  25    88  55  18    71  51  15    77  62   7   107  90  15   111 103  17    98  89  26    92  95  16   127 142  41   161 178  78   168 184  78   122 132  33    70  69  10    73  77  13    83  85  15   101 100  27   170 165  95   208 198 136   185 175 113   160 149  81   121 111  38   100  82   1    97  77   3   130 107   9   160 136  33   134 111   9   131 109  11   174 153  61   152 132  46   190 174 105   202 184 122   163 144  75   192 174  98  
  39  53  30    13  21  10    11  15   8    10  13   4     8   8   1    20  19  12    59  39  20    90  73  19   100  79  10    90  63  12    87  56  18    85  58  16   105  84  22   140 125  36   123 113  36   111  88  21   142 106  43   142 106  34   126 102  23   116 100  19   116 107  15   130 120  18   103  88  17    65  52  10    65  60  11   104 111  34   143 155  66   175 187  90   151 158  67    89  91  29   109 109  40   129 128  60   105 100  41   118 109  54   143 134  64   146 136  51   133 122  33   102  91   4   126 105  17   161 140  54   194 170  87   209 180  95   170 142  56   167 143  64   224 203 132   219 198 129   156 141  70   110  93  33   102  84  21   160 140  71  
  17  24  12    12  13  13    11  10  10    10   9   2    12  12   3    22  23  13    61  34  16    81  54  25    89  60  21    83  51  11    82  51  13    84  58  13    95  75  15   120 106  31   120 120  33   119 116  39   130 119  51   142 128  55   136 122  41   125 114  28   126 118  29   127 122  29   102  92  20    65  54   9    65  58  14    94  97  17   128 138  35   153 162  67   163 169  91   142 148  72   156 156  78   145 144  71    86  81  32    76  69  26   117 112  29   159 153  41   141 127  26   125 106  20   179 161  76   226 211 139   233 216 157   215 193 125   198 179 100   223 211 153   251 241 198   236 224 167   178 166  87   118 106  35    93  82  19   124 109  49  
  12  15   6    13  11  13    14  10  13    12   8   8    15  11   9    23  20  18    44  28  11    64  47  21    63  45  13    59  38  11    57  38  13    61  44  13    79  71  20    95  91  24    91 103  23    99 105  40   109 108  48   143 137  66   143 137  58   121 114  36   130 126  47   137 135  49   123 118  30    96  91  18   107 105  27   133 139  36   136 144  34   131 136  45   150 153  79   148 150  80   128 133  58   105 108  42    72  71  16    93  90  22   146 145  43   176 170  59   144 131  37   142 124  43   209 202 133   244 243 177   245 240 189   239 224 178   221 207 153   221 215 161   220 214 166   191 180 125   150 142  65   116 114  42    90  93  28    73  72  25  
  35  33  21    33  28  25    24  16  14    19  12   7    19  13   5    20  16   6    35  25  10    58  50  23    68  60  23    66  55  20    57  48  18    56  49  18    70  68  24    78  81  23    79  98  19    76  87  25    73  77  20   108 108  38   123 121  44   126 119  46   150 143  73   154 149  72   141 131  46   128 122  33   148 147  41   172 178  56   162 170  54   137 145  53   140 148  68   124 133  49   108 120  39    71  80  15    66  66  12   119 116  48   159 154  61   184 177  76   177 164  74   153 138  55   183 165 105   193 180 121   201 186 135   179 157 108   157 137  83   128 117  59   121 110  51   115  98  37    84  86  34    66  68  25    53  55  21    46  40  10  
  34  31  15    39  33  18    43  35  21    54  47  29    53  48  26    41  37  10    40  30  16    51  41  16    65  56  24    63  54  22    53  43  20    47  40  13    54  51  13    76  76  24    87 105  18    75  87  14    78  84  20    95  96  28   101  97  25   110 101  32   123 113  44   123 109  40   112  93  26   117 100  28   121 114  26   140 142  30   161 173  49   143 160  44   128 150  47   117 142  44   125 147  51    91 103  30    57  59   8    80  73  27   103  91  30   161 149  64   200 187  90   130 117  25   102  69  22   125  99  51   156 135  79   167 142  80   160 137  75   170 157  94   180 166 105   131 111  53    66  56  19    50  37   7    65  46  17    76  50   7  
  42  37  18    51  45  23    57  51  30    68  62  40    66  63  36    58  58  26    51  40  25    49  39  18    48  39  16    43  35  17    39  31  20    39  32  15    55  51  13    92  91  36   108 124  26    94 107  17    90  98  26    84  85  28    87  82  26    99  91  28    99  86  23    93  78  21    84  67  16    73  56  12    74  63  11    94  93  10   136 149  30   143 165  33   130 159  40   126 156  55   130 157  49    97 112  33    60  60   3    79  69  16   112  95  37   167 151  69   200 186  85   133 121  22   158 135  75   225 207 166   245 230 190   253 235 183   204 187 123   178 169  99   149 136  78    79  54  20    92  61  16   123  92  39   125  95  36   138 102  35  
  51  46  23    56  50  27    45  38  21    36  30  17    36  33  17    47  46  26    62  56  36    74  70  43    61  59  26    41  40  11    38  35  11    45  43  15    70  71  25   100 104  41   106 126  20   107 125  24    86  98  22    58  61  18    70  67  29    96  93  37    96  89  29    86  75  30    65  56  27    55  47  17    64  58  19    75  75  10   115 125  26   137 156  36   135 159  41   140 166  59   122 151  37    84 101  22    88  90  20   139 132  47   183 166  81   199 180  91   191 174  76   159 145  43   188 176 104   246 239 195   245 237 193   207 193 132   125 106  52    89  71  26    94  71  24   135 102  54   186 150  89   200 169 105   158 135  64   130 107  33  
  40  35  19    33  27  12    23  17   4    18  13   5    22  19  12    34  30  25    60  56  31    77  75  39    63  66  15    62  65  10    61  64  13    72  78  31    70  76  30    73  79  30    73  85  21    99 114  32    85 102  23    57  64  13    74  70  31    94  88  40    78  71  28    64  57  33    41  35  18    60  55  26    87  84  37    90  90  26   102 106  24   118 128  29   125 140  30   142 162  44   120 141  31    87 102  20   106 110  26   165 152  52   201 175  82   184 159  70   174 155  60   186 169  70   189 171 103   216 198 138   182 164 107   111  88  38   104  78  36   160 135  86   195 170 114   220 191 134   218 192 124   197 176 105   173 153  76   151 124  45  
  32  28  18    35  28  18    31  24  13    22  18   9    17  14   6    20  20  12    60  64  29    98 103  60    78  86  29    77  85  27    83  89  40    75  79  40    50  53  21    40  43  15    49  56  15    74  89  21    86 103  23    82  91  29    82  79  34    79  71  33    63  53  25    42  35  21    34  26  15    74  70  35   112 112  49   118 121  38   101 103  19   114 119  25   148 155  34   147 155  26   115 126  29    78  91  20    84  89  20   131 115  34   174 146  66   172 147  64   159 141  56   162 140  64   135 112  45   137 112  55   140 113  66   169 143  94   221 198 147   242 219 168   234 212 155   218 197 131   204 181 113   177 160  88   161 141  60   167 139  55  
  20  17  12    30  25  19    29  25  16    23  21   8    19  20   5    33  34  18    73  85  42   101 114  66    90 101  48    68  76  28    67  71  37    65  64  44    51  49  37    41  37  26    45  50  19    60  73  18    79  98  19    94 108  30    81  82  26    55  46  12    47  39  15    42  36  15    64  61  19   102 104  35   120 127  37   122 129  25    90  88  15   103  94  24   171 165  39   168 159  23   109 117  16    64  75  13    83  93  27   135 132  34   162 149  49   125 107  34    88  67  10    93  68  16   120  97  35   185 161 106   218 196 144   236 213 159   249 228 175   241 219 169   231 213 155   199 182 113   187 166 101   164 147  77   136 118  36   159 134  47  
  16  13   7    29  26  16    42  38  25    48  47  28    57  58  34    92  94  68    92 106  64    98 111  66   127 138  92    77  84  46    34  35  12    39  37  24    43  37  31    40  33  26    36  38  19    54  64  24    80 101  26   106 126  33   106 116  37    75  75  22    55  54   9    66  70  19   105 107  36   120 128  33   134 145  43   133 141  37    73  67  14    81  62  14   168 152  23   174 152   9   120 126  10    66  77   3    76  86  29    93  92  27    85  71  18    68  53   6   105  90  29   182 160  87   223 204 142   218 200 129   205 188 118   224 206 147   234 215 163   233 215 160   218 202 142   194 178 119   182 162  95   153 139  67   129 113  28   158 134  46  
  43  41  26    64  62  40    78  75  49    74  72  42    73  73  42   118 120  88   107 114  76    99 105  64   120 125  86    69  71  41    30  28   9    34  28  18    37  31  20    36  30  15    36  31  20    46  51  21    80  99  32   111 134  35   129 147  48   117 128  47    89 100  24    98 112  30   113 119  43   111 121  29   132 142  48   129 135  43    69  59  13    81  60  20   158 139  27   163 139  13   102 101  10    55  60  10    45  50  20    57  53  11    89  79  19   111 104  22   151 144  60   217 200 140   223 213 142   165 155  78   165 155  76   198 186 113   197 182 121   224 207 153   216 200 142   195 180 116   179 158  84   138 124  46   129 112  27   157 132  46  
  65  64  37    88  87  49    99  97  53    85  82  40    53  51  14    69  67  34    88  84  39    85  81  37    82  77  38    55  50  22    38  33  16    32  24  15    35  29  15    38  33  14    37  28  17    37  38  13    68  83  28   102 126  37   131 155  49   137 157  57   110 130  35    99 122  29   114 126  43   114 126  39   111 118  37    93  93  25    65  53  15    72  53  20   107  88  16   112  93   9    70  63   7    43  45  11    57  62  12   113 111  23   177 170  73   172 167  76   147 145  55   156 149  65   132 130  63    96  92  19   132 129  47   153 147  62   156 146  72   187 171 111   178 161  96   171 156  75   172 151  65   140 125  40   140 121  35   143 116  34  
  69  68  30    88  86  36    94  91  36    97  94  44    69  66  25    66  61  29    81  68  14    73  60   9    64  51   8    57  47  19    44  32  18    33  24  15    38  32  18    37  32  13    39  26  10    36  34  11    53  66  20    90 113  34   126 152  51   137 163  56   114 139  42    90 118  30   109 126  44   108 120  47    82  85  28    53  45   9    40  25   2    48  32   2    78  65   9   103  93  18    76  71  17    42  43   3    92  94  32   176 171  76   222 208 119   218 210 134   179 176  94   111 109  21    68  68  18    98  98  28   146 146  58   120 115  33   140 132  56   143 130  53   114  98  13   131 116  24   144 121  27   139 122  33   156 136  50   142 113  36  
 109  99  45    96  84  35    90  77  34    87  73  28    87  76  22    84  76  21    80  67  15    57  45   1    48  38   7    40  32  13    36  27  16    40  31  18    40  31  13    41  33  11    48  37  15    70  53  30   105  90  42   114 113  49   115 137  54   132 165  55   123 146  49    96 107  30    89  90  31    67  67  25    54  48  19    52  31   8    84  50  17   113  75   1   159 128   9   167 143  17   102  99  21    57  56  13   115 113  35   195 188 100   222 217 160   234 224 163   186 172 102    94  87  18   101  96  28   162 158  84   139 136  55   110 104  26   171 162  87   168 155  76   122 107  16   133 115  13   149 120  23   154 126  28   148 124  29   153 133  44  
 123 114  56   112 100  39   110  94  35   107  89  32   104  86  26   101  85  23    99  80  29    75  56  13    61  43   9    54  37  12    53  38  19    59  42  21    63  47  19    72  56  25    92  77  33   133 117  49   157 138  73   140 135  66   128 142  63   135 159  77   128 148  58    99 111  28    68  65  17    53  47  20    56  42  15    72  50   2   114  84   8   147 115   3   160 135   3   144 123   4    79  75   6    54  50  14   123 120  44   192 186  91   221 217 151   227 217 156   141 126  64   102  92  31   191 183 116   188 180 109   118 111  37   136 126  52   199 187 114   199 183 105   170 152  65   146 125  28   143 118  34   143 120  35   130 107  25   129 107  29  
 113 100  42   122 108  41   135 118  49   131 111  52   122 100  45   118  96  39   113  90  47   102  80  40    95  72  39    87  66  37    86  65  38    92  71  42    94  74  42    94  74  39   112  94  41   146 127  61   151 132  74   121 112  63   111 120  55   124 146  62   127 149  56   121 139  38    85  85  21    71  62  17    83  64  13   100  75   2   114  83   3   132 101   8   133 111   9   126 109  15    97  91  28    55  50  18   125 120  49   205 199 104   213 210 140   186 176 118   102  84  29   160 150  90   229 217 152   163 152  85   112 100  32   153 139  71   181 165  95   172 152  78   158 135  52   148 124  35   139 117  40   118  95  22   113  87  17   120  93  28  
  96  79  27   115 100  40   112  97  40    93  78  35    81  64  31    78  61  26    70  52  22    74  56  27    83  65  37    84  66  39    78  60  32    86  68  39    90  72  41    79  61  29    75  60  27    88  70  42    85  69  34    67  58  31    69  75  33   106 126  43   132 157  57   124 149  38   100 101  26    90  80  20    88  68   6    97  68   3    99  67  16    93  63  13   100  81   7   143 131  41   124 116  52    57  52  16   142 134  68   208 200 117   171 165 103   109  98  42   125 106  51   206 197 130   183 168 105   121 106  44   147 131  70   191 173 112   183 164  97   174 151  80   176 150  74   169 143  62   152 123  51   135 105  35   142 109  46   133 102  44  
  90  73  29    90  78  36    62  53  20    40  32  12    35  28  15    36  29  15    37  27  10    45  33  15    61  48  26    72  57  31    64  49  23    61  46  20    62  50  25    54  41  17    53  40  30    62  50  29    64  54  24    70  64  33    62  61  37    84  91  44   126 142  48   113 131  33   109 113  27    89  81  16    72  55   2    65  42   3    59  36  15    55  35   2   102  88  18   180 169  79   121 113  50    62  60  13   163 156  87   166 156  85   105  98  43   120 110  50   183 165 103   169 161  89   113  94  35   138 119  63   223 203 152   240 221 165   222 202 139   213 190 120   200 174 100   184 157  83   152 119  48   146 111  43   154 120  54   142 109  48  
  61  54  17    45  42  14    26  23   9    21  18  11    21  18  11    25  22  13    40  34  20    51  42  25    55  43  21    61  49  23    64  50  22    59  44  18    59  47  24    59  46  29    52  42  28    78  70  30    87  80  32    89  80  37    97  83  49    95  86  44   103 102  31   123 125  47   106 113  18    82  81   1    79  70   7    63  52  10    37  27   6    45  38   1   122 114  40   172 160  73    94  83  32    77  75  24   153 148  71   133 120  49   105  99  39   169 161  89   156 138  74   104  94  32   138 119  60   207 188 135   237 219 171   238 218 167   223 203 142   202 180 112   185 161  91   162 135  69   134 103  39   155 124  57   158 125  58   148 117  52  
  29  28   2    20  21   3    20  18  11    24  22  14    27  25  11    35  33  19    48  39  23    65  56  34    69  59  28    69  54  23    69  54  25    66  49  24    61  45  22    58  42  19    55  44  16    85  77  35    89  78  31    75  56  20   114  90  41   124 102  44    89  72  18   111 105  39    98 103  23    84  86   3    81  82   2    65  65   4    48  48   3    67  67   2   133 129  42   144 132  48    76  64  27   112 108  50   153 148  63   133 122  50   115 107  46   128 117  47   119 100  38   151 136  81   222 204 148   237 220 169   230 212 167   226 205 156   214 193 132   190 168  95   159 133  63   130 100  37   129 101  40   164 135  71   156 126  61   156 125  61  
  24  20  12    25  21  10    30  26  14    34  31  16    40  37  20    49  46  28    71  62  34    80  72  31    95  88  37    89  79  32    70  57  22    66  50  22    68  53  19    72  58  14    68  55  13    74  63  26    78  63  31    91  64  25   127  88  32   145 108  49    98  77  29    70  64  24    85  86  24    86  90   8    75  82   1    81  86   4    86  92   4   105 109   9   125 124  37    95  88  30    61  50  20   115 108  43   141 136  49   128 119  49    97  81  31   133 117  62   185 167 108   226 208 153   237 222 170   234 216 169   228 208 165   217 194 144   207 183 114   159 133  51   130  99  25   127  92  31   153 122  55   174 143  79   157 125  66   151 120  62  
  36  34  22    38  35  23    40  37  23    40  37  22    45  42  26    56  52  37    70  65  33    75  70  27    87  83  29    85  81  29    70  62  21    60  50  14    65  54  14    82  72  23    84  72  15    78  64  23    92  76  28   134 109  44   155 121  44   159 125  46   117  97  34    59  47  14    54  58  17    64  71  11    61  71   1    70  80   2    88  99   6   100 110   5    92  97  12    67  63  13    73  60  11   117 107  41   162 153  76   162 152  81   132 117  59   185 170 115   237 221 166   238 221 169   231 216 157   228 210 164   222 199 156   215 191 129   193 167  91   140 110  35   109  73   6   136  98  33   177 146  80   177 145  83   156 123  65   147 117  57  
  37  35  20    35  33  18    35  33  20    33  31  18    32  28  16    39  35  22    52  47  27    54  50  21    57  55  18    54  50  13    48  43  13    46  39  12    46  39   8    55  49  13    66  54  14    65  51  19    77  64  19   130 110  41   158 135  47   157 136  40   123 111  24    77  71  10    49  52  10    59  67   1    72  82   1    80  91   1    92 102   6    94 101   1    85  88   1    89  86  19   123 109  38   167 152  87   204 190 124   200 187 119   177 163  99   207 193 138   235 221 171   232 218 166   227 215 155   222 205 154   218 193 140   191 162  96   160 127  53   132  95  24   127  88  23   163 123  61   191 160  96   175 143  84   154 124  64   146 117  57  
  27  28  14    26  24  11    27  25  12    24  22  10    22  20   8    28  26  15    49  45  36    45  42  27    43  41  20    39  34  12    41  37  16    45  40  20    42  36  14    44  38  14    46  39  20    48  43  13    55  47  12    81  71  24   106  95  25   114 107  26    99  97  16    96 101  12   101 105   1   101 109   1   116 128   1   126 137   1   136 144   3   139 141  11   129 126  17   136 127  42   181 164  81   200 182 116   217 198 140   217 202 138   209 195 132   223 207 157   233 218 172   230 217 165   227 214 161   221 202 143   204 179 114   152 117  53   137 100  29   134  97  22   157 120  52   195 158 104   195 165 105   178 146  90   158 127  70   147 119  56  
  25  25  14    23  23  12    23  23  12    20  18   9    22  20  11    34  31  22    51  47  34    42  38  22    46  43  22    54  50  27    58  54  28    56  52  25    52  48  20    54  50  23    48  47  21    46  44  12    48  42  16    48  40  15    53  47   5    72  67  17    70  69  14    81  82  14   103 103   6    95  94   4    96  95   7    97  96   3   113 111   4   139 133  21   150 140  39   165 149  62   183 167  84   200 181 113   211 192 134   219 199 143   226 209 156   230 212 168   230 212 169   232 215 163   226 211 162   210 190 129   170 142  73   128  93  25   155 116  46   165 129  58   178 146  81   203 173 121   195 164 107   185 155  99   161 132  74   143 118  53  
  23  23  17    23  22  16    22  22  14    19  19  10    25  25  15    41  40  30    60  54  41    42  36  22    43  38  20    51  46  24    53  49  21    53  49  19    51  47  18    51  47  20    49  46  15    46  39  20    47  36  22    45  35  17    48  39  14    69  64  27    66  60  16    57  50  11    57  49   9    53  43  10    53  42  13    57  48  10    81  71  16   106  95  26   125 111  32   150 135  49   169 152  76   188 171 102   205 186 126   215 195 143   229 209 167   233 213 174   231 211 167   232 214 159   228 212 160   204 184 127   156 126  60   139 102  29   175 138  64   194 160  96   192 165 107   196 174 118   196 165 111   195 165 110   166 137  79   146 121  55  
  18  18  13    20  20  13    23  23  14    21  21  12    27  27  16    43  43  31    59  58  43    42  38  24    39  35  20    44  40  23    43  37  18    45  38  19    49  41  23    47  39  21    48  39  17    48  38  21    48  36  21    46  33  16    50  37  19    59  48  25    56  45  18    49  37  14    44  33  14    42  31  10    41  30  13    53  41  19    78  67  22    94  82  24   106  91  28   133 117  43   158 144  60   172 158  81   191 177 111   215 199 145   232 214 168   232 213 169   232 212 163   231 210 159   230 210 158   198 177 116   165 140  70   171 142  67   195 165  95   202 174 114   198 173 117   196 175 117   197 167 114   195 163 111   172 141  84   153 124  60  
  18  19  13    20  21  13    25  25  15    23  23  13    22  22  10    32  32  20    49  48  30    40  39  21    39  36  19    45  39  23    46  39  24    45  38  20    46  37  20    45  36  19    49  37  21    46  35  17    50  39  21    50  37  19    45  32  14    51  39  18    56  44  22    51  36  13    47  34  15    42  32   7    40  28  12    51  39  18    75  64  18    90  78  18    98  83  23   119 102  30   145 131  42   165 153  71   191 178 108   215 200 143   226 210 161   229 211 165   236 216 166   238 216 166   223 202 149   186 165 102   180 158  87   191 167  95   197 172 106   202 176 119   200 175 119   198 176 119   199 169 118   195 164 110   175 144  87   154 124  60  
  19  20  14    20  22  14    27  27  17    28  28  18    26  26  14    30  30  18    41  40  19    53  52  31    52  49  30    43  38  19    45  38  20    46  39  20    46  38  19    50  42  23    49  37  21    46  35  17    50  39  19    54  42  19    52  40  16    61  47  21    63  49  22    57  43  13    58  45  19    47  35   7    42  29   9    50  38  12    78  68  17    95  84  22   100  85  20   109  93  15   133 120  26   162 147  64   194 180 109   216 201 144   223 207 158   230 213 166   239 219 172   231 211 160   206 185 132   191 169 109   201 178 110   200 175 109   196 170 110   205 180 124   202 177 124   199 176 122   197 167 115   194 162 110   179 148  91   160 130  66  
  18  19  13    18  19  11    24  24  14    28  28  18    30  30  17    33  33  21    40  38  17    70  68  47    70  67  47    50  45  25    48  42  23    50  43  23    46  38  17    50  42  21    49  37  21    50  39  21    47  35  15    51  39  15    64  52  25    71  57  28    66  53  19    63  49  15    64  50  20    55  43  11    54  41  16    57  43  15    83  72  18   102  88  22   112  95  28   121 104  25   137 122  28   162 146  61   192 178 107   216 200 142   226 211 160   237 219 173   236 216 169   214 194 144   199 176 125   212 190 133   208 187 121   195 171 109   202 177 121   212 186 136   207 180 132   202 176 126   197 168 115   191 161 107   179 148  93   159 129  66  
  22  23  17    23  24  16    25  25  15    28  28  18    33  33  21    37  37  25    42  38  18    66  63  43    67  62  42    54  48  29    55  48  29    51  45  24    45  37  17    48  40  20    50  40  22    50  39  20    49  38  16    55  43  19    66  52  25    70  56  25    68  53  20    66  51  16    65  51  18    62  48  12    62  48  20    60  46  14    89  76  21   105  91  24   122 104  35   137 119  39   150 133  44   171 154  73   196 179 111   216 199 144   227 211 162   238 220 174   234 216 168   214 194 144   204 180 130   217 195 138   205 183 122   202 181 122   215 192 140   218 192 147   215 188 143   206 178 133   201 174 119   192 162 108   177 147  92   155 125  63  
  20  21  15    23  25  16    25  25  15    26  26  16    33  33  21    40  40  28    45  40  21    57  52  33    56  49  31    47  40  22    47  40  22    46  39  21    47  39  20    50  42  23    50  43  24    51  40  20    53  42  20    59  47  23    63  49  23    67  52  23    68  52  21    66  49  18    70  55  22    64  50  13    61  46  16    57  42  11    98  83  28   111  96  29   125 106  38   142 123  44   158 140  57   179 160  85   199 181 118   216 199 146   226 208 162   232 214 168   233 215 167   226 206 155   214 188 140   210 187 132   203 182 123   217 196 140   227 204 157   222 197 155   220 192 151   210 181 138   200 173 118   190 162 107   180 151  95   156 128  65  
  24  25  19    27  27  19    27  27  17    29  29  19    36  36  24    44  44  32    41  35  19    58  51  34    61  54  38    46  39  23    37  30  12    44  37  19    51  42  24    47  38  21    48  40  19    52  41  21    48  37  15    51  39  15    66  52  26    67  51  25    63  45  19    64  47  19    65  50  17    66  52  15    65  49  23    59  42  12    96  81  26   105  87  21   120 100  33   148 127  49   162 140  63   181 161  92   199 180 122   216 198 149   227 208 164   228 209 166   230 212 164   231 211 160   219 193 146   209 186 132   209 188 131   221 201 147   229 208 161   227 202 161   219 191 151   213 184 142   202 177 121   192 164 109   183 154  98   155 127  64  
  55  58  47    66  68  57    62  62  50    58  54  42    61  57  45    58  52  40    53  46  30    56  50  38    69  67  44    43  43  17    36  34  21    44  41  26    44  38  12    48  40  18    46  38  19    49  41  22    47  39  18    47  36  16    53  42  20    58  46  22    56  44  20    57  45  19    58  42  16    56  41  14    51  40   8    62  53  15    82  72  24    95  81  20   117  99  27   144 125  48   163 144  65   174 154  81   195 177 113   217 197 144   225 207 159   233 212 167   234 212 165   225 204 156   214 192 134   202 180 122   212 190 133   225 199 150   229 202 161   230 202 165   220 191 151   210 182 135   201 174 121   185 158 103   177 148  90   160 131  70  
  50  52  41    68  70  59    71  71  59    61  59  46    60  57  45    63  59  47    52  46  32    55  50  38    83  81  58    59  59  33    55  51  39    59  53  39    54  48  23    57  49  28    53  45  26    55  47  28    54  46  25    56  45  25    57  46  24    55  43  19    53  41  17    56  44  19    58  42  17    51  37  12    53  42  14    57  47  13    74  62  18    94  80  22   114  97  27   145 127  50   158 139  60   169 149  75   190 173 109   214 194 141   225 207 159   234 213 168   231 209 162   221 199 150   210 188 130   199 177 117   207 185 127   220 194 142   223 195 152   223 195 156   214 185 143   203 175 128   193 165 110   185 158 101   175 146  87   157 129  66  
  37  39  29    42  44  33    45  45  33    43  42  30    45  43  30    46  43  31    39  34  21    46  42  31    92  90  67    66  65  37    55  50  37    58  52  37    59  53  29    64  57  37    64  56  36    62  52  33    60  49  29    64  53  32    69  57  35    65  53  30    58  46  22    56  44  20    57  40  19    51  36  15    53  41  19    51  40  12    63  51  11    86  73  19   111  95  25   143 125  46   161 142  63   172 152  80   193 175 111   214 194 141   223 205 157   232 211 165   229 207 159   218 196 146   205 183 125   195 173 112   201 178 116   211 186 130   212 186 139   214 185 143   207 179 133   195 167 118   186 158 103   186 157 100   175 146  85   151 124  60  
  33  34  26    31  33  22    30  32  21    38  38  26    44  44  31    34  34  20    31  28  15    41  39  27    91  89  64    63  60  31    39  34  19    42  35  19    47  41  17    50  43  24    53  43  22    56  45  25    61  50  30    63  52  30    65  53  31    61  49  27    55  43  21    51  37  13    55  37  17    53  38  19    48  35  18    47  36  13    54  43   7    76  64  11   112  99  28   139 124  41   165 146  69   178 158  87   200 182 118   218 198 145   222 204 155   228 207 160   226 204 155   215 193 143   201 179 119   191 170 105   193 170 103   200 175 115   201 174 122   203 174 128   200 172 123   189 162 108   186 156  99   180 151  92   169 143  79   145 121  54  
  28  29  21    34  36  25    35  37  26    41  42  29    48  49  37    36  38  24    28  28  16    38  36  24    82  80  55    70  66  37    44  37  21    47  40  24    51  45  21    47  40  22    52  42  22    54  43  23    55  43  23    52  40  18    50  38  16    53  41  19    56  41  20    52  37  15    53  37  14    53  38  19    44  31  15    48  37  17    52  41   9    72  62   9   120 108  34   142 130  42   160 141  65   179 159  88   204 187 123   222 202 149   223 205 155   226 206 156   222 200 150   210 189 136   199 177 117   190 167 100   185 163  95   189 166  99   189 163 106   192 165 112   195 168 115   186 157 101   184 154  94   171 143  80   160 135  70   143 120  52  
  25  27  19    30  32  21    31  33  22    34  36  23    39  43  29    35  39  25    29  31  18    32  32  19    68  66  41    82  77  47    50  41  26    49  39  24    50  44  20    45  38  21    56  45  23    53  42  20    54  43  21    56  44  22    54  42  20    57  42  21    56  41  20    51  36  15    53  37  14    47  32  13    43  30  14    47  36  18    49  41   8    72  63   8   118 109  32   144 133  41   157 138  61   176 156  85   203 185 121   222 202 148   224 206 156   227 207 157   221 199 149   207 186 133   201 177 117   190 167 100   179 157  86   180 157  89   179 153  92   182 155 100   192 162 107   182 153  94   177 145  84   168 138  74   156 131  64   140 120  49  
  30  32  24    30  31  23    32  34  23    33  37  23    37  40  27    36  40  26    30  31  20    30  29  19    64  61  37    93  87  55    54  44  26    47  37  23    51  43  22    53  45  28    56  45  22    54  42  20    56  44  22    57  45  23    51  40  17    51  36  15    55  40  19    58  43  22    53  37  14    45  30  10    42  29  13    44  34  14    50  41   7    74  65   9   115 106  26   142 132  38   160 141  61   177 158  84   199 182 116   218 199 142   224 205 154   225 205 154   218 197 145   206 185 129   202 178 117   190 167 100   177 155  83   175 151  80   172 147  80   177 151  91   186 157 100   178 149  92   171 139  78   167 137  74   157 131  64   142 120  48  
  28  31  22    31  32  24    32  34  23    34  36  25    36  38  27    37  39  28    33  33  21    32  28  23    66  61  39   106 100  64    67  56  35    51  38  27    53  42  23    59  48  27    60  48  24    58  46  22    57  45  23    57  45  23    54  42  20    54  39  18    54  39  18    56  41  20    51  34  16    50  34  18    40  28  12    41  33  10    54  46   9    78  69  12   116 107  28   138 127  35   159 141  55   181 164  84   199 182 113   216 197 139   225 205 152   220 200 147   214 193 136   206 184 125   201 179 118   189 166 100   177 154  83   170 146  72   167 143  69   174 147  79   177 148  88   176 145  90   175 144  83   165 135  72   156 127  61   151 124  53  
  28  31  22    32  33  25    33  35  24    34  36  25    34  36  25    35  36  24    40  38  24    34  30  22    60  55  33   117 110  74    89  79  52    53  42  25    56  45  25    56  46  22    59  47  23    57  45  21    56  44  22    56  44  22    55  43  20    55  40  19    53  38  17    53  38  17    52  35  17    48  32  16    40  28  12    38  31   7    49  41   4    78  69  12   115 106  27   133 122  30   155 137  51   185 168  88   205 188 119   215 198 140   220 202 150   220 200 149   216 195 139   205 183 125   200 179 115   188 165  97   174 152  79   168 144  70   166 142  68   173 145  77   175 147  85   175 144  88   178 148  85   164 134  70   154 127  58   158 131  60  
  28  31  22    32  34  23    34  36  25    34  36  25    33  35  22    33  35  22    43  41  26    38  34  22    53  47  25   113 108  71   102  93  60    55  45  20    59  48  26    56  46  19    59  47  23    57  45  21    55  43  21    55  43  21    54  42  20    55  40  19    53  38  17    51  36  15    53  36  18    48  32  16    42  30  14    38  30   7    48  40   3    81  72  14   116 107  28   132 121  29   157 140  54   188 171  91   209 192 123   218 202 143   222 205 154   224 204 153   219 198 143   207 186 129   200 179 112   187 164  96   173 151  78   170 146  72   172 148  74   177 150  81   180 152  89   181 150  93   181 152  86   167 137  72   160 133  64   167 140  71  
