P3
50 50
255
   8  10   7    13  15  12    28  30  27    29  31  27    36  38  33    27  30  23    25  28  21    38  39  32    34  35  27    30  30  22    47  48  40    54  55  47    33  34  28    25  25  20    11  13   8    14  16  11    12  14   9    12  14   9    11  13   8    13  16   9    15  18  11    15  18   9    24  27  18    32  35  26    16  19  12    25  27  22    31  33  28    30  32  27    35  37  31    39  42  33    39  39  34    33  34  28    29  30  25    29  31  26    37  39  36    52  54  51    54  57  54    33  38  32    28  33  27    33  38  32    26  31  25    31  36  30    41  46  40    44  52  47    41  48  45    39  45  42    36  41  37    30  33  30    26  28  24    27  28  23  
  20  22  21    16  18  17    22  25  24    21  23  19    24  26  21    28  30  25    24  26  20    33  34  28    40  40  33    28  28  20    24  26  15    46  47  39    58  59  52    41  42  36    28  29  24    28  29  24    24  25  20    24  25  20    25  27  21    22  23  17    18  19  13    18  19  12    16  17   9    12  13   8     8  10   5    14  16  11    15  17  12    14  16  11    14  16  11    20  22  17    19  20  15    19  20  15    18  20  16    17  19  16    19  22  19    25  27  25    28  31  29    27  33  29    29  35  30    31  37  33    30  36  32    27  33  29    39  45  41    46  54  52    40  50  48    32  40  37    30  35  34    31  34  32    31  33  30    31  31  29  
  52  54  51    24  27  26    23  27  26    17  19  17    20  22  17    27  29  24    21  23  18    22  23  17    28  27  22    20  19  14    17  18  10    22  23  15    42  43  35    57  58  51    39  40  34    29  30  24    25  26  20    26  27  21    28  29  23    33  34  28    29  30  24    26  27  21    28  29  23    28  30  26    23  25  20    19  22  17    16  18  13    16  18  13    12  14   9     9  11   8    15  15  13    14  14  12    12  13  11    11  13  10    11  13  10    11  13  10    10  13  10    17  23  19    24  30  25    25  31  27    30  36  32    20  26  22    27  33  29    47  56  54    53  62  59    43  51  48    26  32  29    16  21  17    14  16  13    14  16  13  
  44  46  42    18  22  19    24  28  27    22  25  23    13  15  12    28  30  27    30  31  26    20  21  15    25  25  19    20  19  14    19  20  14    20  21  15    22  23  16    46  47  39    60  60  52    28  28  18    20  20  11    22  23  17    23  24  18    26  27  21    26  27  21    29  30  24    33  34  28    30  32  28    27  29  24    34  37  30    34  37  30    29  32  25    26  29  23    16  18  15    16  16  14    17  17  15    17  18  16    18  20  17    19  21  16    15  17  13    11  14  11    14  19  15    13  18  15    13  18  14    15  20  17    12  17  13    15  20  16    17  23  20    27  33  31    37  42  38    34  39  34    26  31  25    16  19  13    10  12   7  
  16  19  12    21  26  20    45  51  47    49  52  48    20  22  18    27  29  26    34  35  30    17  18  13    16  15  10    14  13   8    15  15  13    24  25  20    22  23  16    27  27  18    50  50  38    59  60  46    26  27  15    22  23  17    21  22  16    18  19  13    24  25  19    30  31  25    30  31  25    26  28  23    29  31  26    36  39  30    32  36  27    24  27  18    25  28  22    23  25  20    23  24  19    26  27  22    29  31  26    32  34  29    34  36  31    30  33  26    25  27  21    20  22  17    14  16  11    11  13   8     9  11   6    12  15  10    14  16  11    16  17  14    18  19  14    18  19  14    20  23  17    25  29  22    32  37  30    48  53  46  
  13  16   7    42  47  40    93  99  93    53  57  52    14  16  13    16  18  15    36  38  34    24  25  20     4   4   2     7   6   2    13  13  12    12  12   9    20  21  14    18  19   9    30  31  18    72  73  57    52  53  40    17  18  12    12  13   7    17  18  12    27  28  22    26  27  21    27  28  22    23  25  19    27  30  23    28  31  22    25  28  17    22  25  15    17  21  13    18  20  15    19  20  15    21  22  17    22  24  17    23  26  19    27  29  23    28  31  24    26  28  22    24  25  20    25  25  20    22  23  18    19  20  15    20  21  16    19  20  15    21  18  15    19  18  14    18  17  12    22  23  17    26  31  22    45  51  41    82  88  78  
  57  59  44   132 134 115   137 139 117    64  72  57    21  30  18    16  17   9    33  29  24    41  39  34    30  31  26    14  21  14     7   9   1     5   5   1    10   9   9    13  12  11    10  10   3    36  36  22    61  59  44    31  25  16    19  17  11    24  25  20    20  22  19    18  19  14    24  24  19    20  21  15    20  21  15    19  20  15    15  17  12    14  16  11    14  17  10    18  21  14    25  26  21    19  20  14    26  27  21    30  30  23    26  27  19    29  30  20    35  36  26    37  34  29    40  38  33    39  38  34    29  30  25    29  30  25    31  32  29    26  26  23    25  26  20    25  31  16    36  45  26    54  62  43    62  66  50    49  51  40  
 141 144 124   124 125 107    79  80  62    83  89  76    96 102  92    56  59  51    25  26  18    31  31  23    63  66  57    81  84  75    72  72  67    42  43  39    20  20  21    10   8  10     3   1   1    12  12   3    39  38  26    52  47  35    21  19   9    20  21  15    24  27  20    27  28  21    26  26  18    25  25  19    22  23  17    19  19  14    16  17  12    18  20  15    17  20  13    13  16   9    10  11   6    16  17  11    21  22  16    22  23  17    23  24  18    22  23  17    23  23  17    22  22  14    25  25  17    28  29  21    23  24  18    23  24  18    26  27  21    28  28  24    29  30  24    47  54  39    73  82  63    77  85  65    58  63  48    37  40  28  
  49  51  37    22  22  13    23  22  16    28  28  23    59  62  54   101 107  97    70  76  65    27  32  20    39  42  29    59  60  48    58  59  51    63  64  59    49  49  49    33  33  35    32  32  32    25  24  20    25  24  17    57  53  42    36  33  23    10  10   2    14  14   7    11  11   3    16  16   6    22  21  15    20  19  14    21  20  15    27  26  21    24  25  19    20  21  15    19  20  14    20  19  15    21  20  16    15  14  10    10   8   5    12  12   9    19  18  16    20  20  16    15  18   9    14  17   8    19  20  12    17  18   9    14  15   7    16  16   8    18  18  14    20  21  15    55  59  47    76  83  66    57  64  47    32  36  22    36  39  28  
  13  13  11    13  11  13    13  11  16    19  16  14    21  22  16    43  50  40   125 135 122    96 103  90    55  58  44    55  53  40    39  43  28    20  23  11    23  24  17    29  30  27    46  47  42    58  59  54    45  44  37    44  39  32    63  60  53    36  33  26     8   7   2    13  12   7    14  12   7    12   9   4    12   9   4    15  12   5    21  18  11    20  19  11    19  19  13    19  18  13    20  19  14    23  22  17    23  22  18    24  23  20    20  19  17    20  19  17    20  18  18    13  15  10     8  11   6    12  13   8    13  14   9    13  12   8    14  13   9    16  17  12    16  17  11    42  43  35    51  55  40    42  46  31    25  29  14    24  27  14  
  15  15  13    17  15  16    15  13  14    15  12   9    14  13   8    32  38  28   100 109  97   129 137 123   115 118 104   114 113 100   103 108  86    62  67  48    35  39  23    30  33  21    33  34  25    35  36  28    39  38  31    48  43  40    87  82  78    79  74  70    29  24  21    18  13  10    13   9   6    12   7   2    16  12   4    14  10   1    16  12   1    20  16   4    21  18   8    19  16   9    19  19  11    19  19  12    21  19  14    25  22  17    24  20  17    29  24  22    24  21  19    16  16  16    10  10  10    11   9  10    14  12  13    16  13  15    21  17  18    15  14  11    10  11   5    29  30  22    28  30  19    24  26  13    27  31  17    49  53  39  
  17  18   7    17  17   7    18  18   8    13  12   6    25  26  20    58  62  54    46  52  42    42  48  37    71  75  64   101 103  92   116 121  99   118 123 102    93  97  80    68  72  58    58  62  50    47  50  39    35  35  26    26  22  17    43  38  32    72  65  60    58  51  45    49  42  37    56  52  47    73  66  60    84  78  67    86  81  66   101  96  77    99  93  77    97  91  78   113 109 100   109 109  99    98  97  88    79  76  67    56  52  43    42  38  27    41  37  26    26  21  12    22  17  13    13   9   6     7   3   2     8   4   3    11   6   8    14   9  13    14  13  11    13  14   9    27  26  21    28  28  19    37  38  26    62  66  52    96 100  86  
  17  19   8    22  22  14    25  25  17    26  28  20    29  32  24    46  47  41    31  31  26    16  18  11    19  23  17    30  37  29    54  60  46    56  62  48    64  68  56    53  56  47    49  52  43    52  55  48    43  44  36    32  29  17    35  30  16    74  67  51   109 102  86   159 154 138   190 186 173   204 197 186   201 194 179   185 178 159   195 189 167   181 174 154   169 162 145   197 191 179   200 199 187   196 194 182   188 185 171   166 163 148   153 147 131   156 151 132   136 130 112   120 112  98    92  84  72    52  45  35    27  22  16    18  13  10    18  14  12    13  13   9    12  13   8    17  16  11    37  34  28    68  67  58    80  81  69    62  66  52  
  26  25  24    22  20  23    19  17  21    21  25  21    31  34  27    32  30  26    29  25  22    23  21  19    15  20  16    14  23  18    24  29  22    23  28  21    30  35  28    42  45  40    29  31  27    23  25  24    56  57  50   105 104  83   149 144 123   166 160 134   178 171 146   187 182 158   190 186 165   177 169 154   160 151 134   109 101  79   101  95  68   100  94  70    94  88  68   110 102  89   114 112  99   104 102  89   112 109  93   115 113  93   133 128 106   182 178 153   199 191 167   220 209 186   216 207 186   188 181 162   145 140 126    92  88  78    51  48  40    25  25  19    18  19  14    35  31  27    63  59  54    65  63  55    47  48  36    29  33  19  
  18  17  13    21  20  15    21  21  14    25  25  19    24  23  18    30  31  25    29  30  25    28  30  25    27  31  27    28  33  29    27  29  26    24  23  21    26  21  20    41  34  32    80  75  71   128 125 118   165 164 149   195 191 163   182 180 154   147 145 124   100  99  82    86  85  72    78  78  67    68  65  59    57  52  48    49  44  40    58  53  49    61  56  50    56  51  45    43  39  30    33  32  27    31  30  25    37  36  32    40  39  35    49  48  46    66  65  63    79  78  74   107 104  94   138 136 123   166 164 149   193 192 174   202 201 179   182 180 157   140 135 115   101  93  80    74  65  57    46  37  33    37  31  30    25  24  24    21  24  24  
  19  15  12    16  16  12    19  20  15    21  20  12    27  27  17    31  31  21    27  28  20    26  28  19    35  38  31    38  41  34    31  31  31    21  20  17    51  48  41   124 120 109   186 183 167   207 206 186   172 172 152   135 132 114    83  80  65    48  46  33    33  33  24    30  30  23    33  33  28    33  31  26    31  28  23    31  28  23    43  40  34    49  46  39    45  42  35    30  27  20    14  13   8    18  17  12    23  22  18    21  20  16    23  22  19    31  30  28    34  33  30    33  31  27    38  35  29    56  53  44    89  87  75   126 124 111   178 175 160   206 205 179   208 204 179   166 159 141    86  78  68    38  33  28    24  22  20    24  25  23  
  47  43  31    26  27  14    14  16   3    13  11   3    17  14   7    23  20  13    20  18  13    20  19  14    25  26  20    27  28  22    34  34  26    88  87  74   153 150 133   192 190 170   166 164 144   126 125 105    70  70  55    34  32  26    25  24  19    23  22  18    30  30  28    27  27  25    23  24  23    19  19  15    15  14   9     8   7   2    12  11   6    23  22  16    33  33  25    31  31  23    19  18  14    14  13   9    12  11   7    13  12   8    17  15  12    19  18  16    19  18  17    28  26  27    30  29  28    25  22  19    28  25  20    52  49  43    85  82  75   105 104  83   130 130 106   155 152 133   159 155 141   140 136 124   108 106  93    72  73  59  
  95  87  74    73  67  55    60  54  41    46  39  33    26  19  16    21  16  13    22  17  14    23  18  15    13   8   5    41  37  34   116 114  93   177 175 153   176 174 152   128 127 108    68  66  53    41  39  35    37  36  34    34  34  32    31  31  28    19  19  17    20  22  19    25  27  26    24  26  25    30  31  27    28  29  23    15  16  10     9  10   4    10  11   5    16  17  11    17  18  12    28  27  23    28  27  23    24  23  19    15  14  10    10   9   5    12  11   7    14  13  10    13  12  10    19  18  16    33  32  28    51  50  46    67  64  59    44  41  36    26  25  18    32  32  24    57  56  46   103 101  88   154 153 135   196 195 171   200 200 173  
  69  60  53    73  60  51    84  68  58    72  61  51    52  44  33    43  35  24    32  24  12    29  22   8    44  38  24   110 104  90   182 176 154   154 149 130    89  87  70    45  42  32    30  29  25    34  31  35    46  45  48    34  36  31    30  32  27    29  31  26    24  26  21    21  24  17    23  26  19    34  37  30    34  37  30    24  27  21    19  21  16    12  14   9     8  10   5     8  10   5    19  18  14    26  25  21    31  30  26    29  28  24    19  18  14    10   9   4     8   8   2    11  12   4    35  35  27    70  70  62    63  63  55    39  39  31    24  24  16    19  19  17    17  17  17    20  20  17    35  34  28    78  77  64   138 136 117   190 188 165  
 173 167 148   166 154 133   161 144 121   159 148 122   151 145 116   134 127  99   104  98  69   103  96  68   145 138 109   154 147 118   106  94  80    58  49  40    32  27  20    35  33  30    33  33  31    33  34  29    41  43  36    42  45  36    28  31  22    35  38  29    40  44  34    33  36  27    21  24  15    25  26  19    26  27  21    18  19  14    17  18  13    13  14   9    10  11   6    14  14  11     9  10   5     9  10   5    19  20  15    30  32  26    28  29  23    17  19  12    18  19  11    47  49  36    81  83  70    66  68  57    30  30  20    13  13   5    13  13   5    11  11   5    10  11   6    14  15  11    37  37  34    57  57  52    55  52  46    75  72  64  
 164 163 139   162 157 132   166 158 131   197 188 159   218 209 180   213 204 175   189 180 150   178 169 138   178 168 137   106  95  65    60  48  27    39  29  17    25  19  17    29  27  29    32  32  30    46  47  38    48  50  38    52  53  45    44  45  37    35  35  29    29  30  24    24  25  19    26  27  21    26  27  21    27  28  23    20  21  16    18  19  14    14  14  11     9   9   7     8   8   6     8   9   4     7   8   3    11  12   6    15  16  10    16  17  11    30  31  25    59  60  52    82  84  72    57  59  48    21  22  14     9  10   4     8   7   2     5   4   1    11   9   1    11  11   3    15  16  10    53  55  50    67  69  64    43  44  38    34  34  26  
  57  58  53    61  60  56    71  67  63   106  97  83   152 139 122   150 137 120   120 107  88    98  86  65    85  73  51    72  60  38   136 124  87    90  81  57    33  27  20    18  16  20    18  18  20    25  26  19    26  28  17    37  38  32    39  40  34    33  34  29    31  30  26    21  20  17    26  25  23    35  34  30    39  38  34    27  26  22    20  19  16    19  18  16    18  17  15    15  14  12    14  15  10     7   8   4     5   6   1    10  11   5    21  22  16    53  54  46    80  81  73    56  57  49    26  27  21     9  10   5     8   8   6     9   8   8     7   5   7     8   4   2     7   3   1    33  34  29    75  79  71    47  52  40    25  28  12    40  43  24  
  31  28  19    34  31  22    30  27  18    32  28  21    37  32  27    33  28  22    27  22  16    25  20  16    28  23  19    43  38  35   109 103  71    93  87  64    46  41  28    23  19  14    17  18  13    15  18   9    17  18  10    28  24  21    38  36  32    26  25  20    35  35  27    47  47  39    38  38  29    29  31  16    28  29  20    29  29  31    20  20  20    23  24  16    23  24  16    15  16  10    13  12  10    12  12   9     9  10   5    28  29  21    69  72  63    69  72  61    33  36  24    18  19  11    20  21  14    22  23  17    15  17  11    11  12   7     8   9   4     3   5   2    10  12   7    55  60  54    68  73  65    19  26  15    12  20   2    29  37  15  
  34  31  22    43  41  29    46  44  32    36  33  23    35  31  22    29  25  16    24  20  11    22  18  10    20  15   9    28  23  17    47  40  21    78  72  53    74  70  52    41  38  22    27  25  12    19  19  11    19  18  14    19  15  13    30  29  22    31  31  21    21  21  12    25  26  19    24  25  19    23  25  14    25  26  17    32  34  27    28  29  22    29  30  22    28  29  22    20  21  15    15  16  11    10  11   5    32  33  27    76  77  71    76  77  69    26  27  19    10  11   4    10  11   5    11  12   6    19  20  15    22  23  18    19  20  15    11  12   8     7   9   5    31  33  28    75  78  71    42  47  40    21  26  19    22  27  20    31  36  29  
  24  22  10    31  29  17    34  32  20    38  35  23    42  38  26    37  33  21    34  30  18    33  29  18    26  22  11    28  24  13    27  20  14    34  28  14    78  73  50    91  87  60    56  51  30    23  19   9    24  19  15    26  23  19    29  28  20    31  31  19    24  26  16    11  12   5    12  13   9    17  18  14    23  25  15    39  41  27    32  35  19    19  21  11    18  18  15    18  18  16    12  15   6    35  38  29    68  70  61    66  67  61    30  29  24    13  12   7    12  11   6     9  10   5     7   8   3    11  12   7    18  18  16    22  22  20    17  17  15    25  26  24    69  70  66    66  69  60    38  41  30    52  55  45    50  53  45    41  44  38  
  22  20   8    24  22   9    24  22   9    28  26  11    33  30  15    33  30  15    36  33  18    40  37  22    37  34  19    37  34  19    33  28  24    33  29  17    47  43  21    72  68  40    86  80  56    71  63  48    35  29  17    23  21   8    23  20  10    30  30  22    32  31  26    18  19  13    13  14   7    12  12   9    24  26  16    47  51  28    37  40  18    21  23  11    21  21  18    20  20  18    56  62  48    99 104  91    79  81  72    34  33  27     9   7   2    17  13   9    14  11   8    14  14  12    10  10   8     6   6   4    10  10   8    14  14  12    23  23  21    51  52  49    80  82  77    32  35  23    24  28  13    34  38  21    30  34  19    27  30  19  
  25  23  11    21  20   7    22  20   8    21  18   4    24  21   6    26  23   8    29  26  11    32  29  14    31  28  13    32  29  14    33  30  23    38  35  25    36  31  17    42  37  19    62  55  36    87  79  58    82  75  52    47  44  20    25  21   7    32  28  24    47  43  42    27  26  20    16  17   5    14  15  12    20  22  10    53  57  32    54  59  32    22  24  11    19  20  14    50  51  46   117 124 108   104 108  93    54  57  44    20  21  12    16  13   8    18  14  11    24  19  19    19  18  15    14  14  10    10  11   6     8   9   4     6   7   4    32  34  29    72  74  69    48  51  45     8  11   2     8  11   1     8  10   2    15  16   9    16  17  11  
  17  14   5    11   8   1    14  11   2    18  16   5    22  20   8    23  21   9    22  20   8    23  21   8    23  21   8    24  22   9    23  24   8    29  27  15    37  34  25    39  33  23    36  30  15    58  52  29   107 100  73   121 115  86    70  63  44    25  18   9    33  28  24    30  28  19    23  21   8    22  21  15    16  16   7    41  43  21    55  57  34    36  38  19    38  38  26    81  81  73    82  86  71    50  52  39    44  46  34    27  27  18    23  22  17    20  16  13    24  21  17    23  22  18    16  15  11    14  15   9    12  13   7    15  18  11    51  54  47    63  66  57    22  25  18    11  13  10    10  10  12     7   7   9    11   9  11     8   6   5  
  10  10   3     8   8   1    13  13   5    12  10   3    13  10   3    15  12   5    15  12   3    18  15   6    21  18   9    21  18   9    24  24   7    21  21   8    26  23  15    29  26  19    28  24  14    33  30  13    67  63  39   110 100  72   122 112  86    90  82  61    48  41  23    35  29  18    24  20  12    20  19  11    21  21  11    22  22   9    36  37  18    67  69  47    76  77  58    68  69  54    45  46  32    43  43  30    33  33  22    18  18   8    27  27  18    24  23  18    21  20  15    25  24  19    23  22  15    19  20  12    22  23  15    46  49  40    62  65  54    32  35  25    14  16  11    19  21  20    17  17  18    11  12   7    15  17   1    32  36   4  
   8   7   2     6   5   1    11  10   5    15  12   9    15  12   7    15  12   7    14  11   5    16  13   6    16  13   6    12   9   2    16  17   2    20  21   7    20  20   9    21  21  11    20  17   8    28  26  13    39  33  16    59  45  21    83  71  41   140 131  98   135 128 100    73  66  51    35  27  25    19  16   9    22  22  14    20  20  12    34  35  18    71  73  47    67  69  45    33  34  17    48  46  33    52  50  38    28  27  16    23  23  13    15  16   8    17  18  10    19  20  12    22  22  14    33  33  25    29  30  20    35  37  26    76  79  67    59  63  49    19  23  14     9  11   8    14  16  15    30  31  22    46  49  20    75  81  23   120 128  52  
   9   9   1     9   7   5    15  10  18    18  13   8    27  22  16    28  24  22    23  20  14    19  17   4    19  17   4    11  10   4    13  13   4    16  17   2    18  21   3    20  21   9    22  19  10    29  23   6    44  38  11    49  46  17    35  37  16    59  61  40   130 122  98   162 149 123    81  71  49    23  19   4    19  16  14    17  17  14    38  41  26    50  52  38    42  41  27    44  43  17    71  70  40    41  41  17    21  22   7    19  20  11    26  24  17    29  23  19    25  19  12    39  37  18    60  62  37    55  61  29    64  73  40    72  81  57    42  48  37    18  23  17    27  33  21    29  35  20    45  55  18    96 109  28   155 169  58   156 165  55  
   8   3   1    18  11   2    26  15   4    19  14   1    19  16   6    21  18  13    23  21  12    27  26  12    29  30  15    20  20  11    15  15   3    17  17   5    12  12   2    18  17  12    23  19  10    35  30   8    50  45  14    39  36  11    20  21   7    27  27  19    58  50  36   141 130 106   147 140 109    52  46  27    15  10   5    36  32  30    53  53  41    37  39  25    39  41  21    76  78  43    69  71  32    29  29   8    19  19  13    21  21  17    15  13   4    25  21   9    39  34  18    48  49  25    80  85  51   101 108  73    73  80  46    56  62  32    47  50  33    35  33  27    37  39  19    76  85  33   125 140  54   138 157  46   125 140  43    74  79  24  
 101  94  67   130 120  86   102  87  53    40  33  14    11   8   1    12   9   2    15  13   3    14  15   1    18  18   5    20  21  12    24  22  10    19  19  10    11  11   4    17  14   8    25  22   4    53  49  10    61  58  15    33  28   8    21  20  11    21  20  16    26  18  11    64  56  38   152 145 120   123 113  94    41  32  22    51  45  36    45  45  29    30  33  13    39  43  18    60  66  29    54  56  32    32  34  15    22  23  14    21  19  20    19  16   8    47  45  12    79  81  33    74  82  36    91 100  53   115 124  77    74  81  45    45  47  24    47  46  26    58  54  25    86  87  31   143 153  69   161 175  86   112 125  48    63  74  20    28  34   4  
 207 202 155   185 176 131   104  91  54    38  30  16    17  12   6    22  19  12    18  16   8     8   8   1     9  10   4    14  15  10    20  17  10    17  14  10    13  12   8    15  12   5    29  24   7    60  53  24    55  46  18    28  20  11    24  20  12    22  19  12    25  21  10    37  31  15   114 107  89   182 170 150    96  83  64    55  50  25    56  56  28    45  49  21    38  44  18    38  44  18    35  37  26    33  35  20    28  30  15    30  28  16    39  37  15    69  71  20    97 102  38    81  92  42    75  87  38    95 105  55    73  78  46    42  41  17    69  67  23   135 139  60   140 146  68   115 118  61    84  86  51    52  53  30    30  31  13    20  21   7  
 101  97  60    73  68  36    40  31  11    20  11   5    18  10   7    25  20  14    21  16  10    12  10   7    10   8   9     5   3   4    12   8   5    12   8   7    12   8   4    15  12   4    31  24  13    43  30  21    25  13   4    16   6   1    16   7   1    19  12   4    22  18   9    24  20   6    66  59  42   171 156 132   155 140 107    72  66  23    72  72  29    57  63  25    40  45  19    36  40  25    39  42  16    34  37  17    31  32  12    48  50  14    79  83  33    83  87  38    62  66  28    49  58  27    72  82  42    86  94  59    68  71  43   101 101  56   154 156  75   152 161  72   102 111  46    52  52  23    34  28  23    30  20  22    37  28  21    64  58  35  
  22  15   7    19  15   7    21  16  11    21  11   9    20  11   3    25  17   4    37  31  19    33  28  22    31  27  25    34  31  28    38  34  33    41  37  33    44  41  28    72  69  42   110 104  69   111 102  67   100  89  55    93  84  47    65  53  27    18   8   2    19  14  14    19  14  13    44  34  27   136 119  96   196 182 141   104  96  47    57  56   9    59  64  21    42  48  14    32  36  20    50  56  10    59  64  22    68  71  25    83  88  34    81  88  35    51  57  21    44  49  27    72  81  52   103 114  73    79  85  60    66  68  42   149 150  93   162 161  86    82  86  33    35  39   6    28  27   7    34  27  15    56  45  36   104  93  71   160 153 109  
  31  26  25    19  14  10    23  17  11    32  20  10    60  49  30    96  87  60   127 120  96   110 103  88    87  83  71    86  82  70    98  96  84    95  92  82    96  94  77   125 123  90   166 163 116   167 159 108   168 159 109   173 163 115   154 139 102    77  63  45    17   9   7    23  16  16    55  43  38   118 100  75   198 183 141   136 129  82    51  49   9    62  66  22    51  57  10    46  52  13    69  72  26    77  82  23    95 100  33    87  92  31    48  55   7    49  57  21    79  89  54    96 104  65    87  95  60    63  68  38   107 113  67   126 128  73    82  76  38    32  29   7    14   9   4    32  21  23    79  71  50   143 137 100   143 138 104    97  92  63  
  26  24   8    50  47  26    74  66  49    95  81  64   144 133 104   164 155 117   147 139 105    94  87  64    63  57  37    56  51  30    55  53  30    44  42  30    44  40  36    55  50  39    80  72  52    75  63  41    78  62  42    88  70  46   112  92  65   142 127 101    65  60  40    34  30  10    68  58  31    95  78  44   178 162 120   158 149 110    59  56  25    62  64  20    66  74  14    68  76  16    58  59  14    60  62   9    97 100  37    94 100  35    90  99  39   107 121  69    92 106  57    72  79  41    37  42  25    66  73  32   152 161  91    97  98  49    29  21   6    26  15  12    42  29  36    81  69  60   109 102  65   105 100  61    55  51  34    32  28  24  
 135 124 101   155 145 112   131 120  91    89  79  64    84  74  60    64  56  38    50  43  27    37  33  23    22  22  15    24  26  21    34  24  24    25  19  11    22  18   9    28  29   6    42  41  20    23  20  15    18  12   9    23  15  12    36  27  23    87  77  65   128 118  92    93  77  46    74  54  27    70  49  23   133 121  75   183 177 117    96  96  40    65  71  14    59  68   9    51  62   6    58  55   2    92  92  30   108 109  48   105 107  50   104 109  50   104 109  65    75  79  52    47  48  25    30  28  17    75  75  35   123 127  55    55  52  18    25  15  13    50  41  27    91  84  59   102  93  65    65  58  35    29  23  11    15  13   6     9  12   5  
 166 157 123   130 121  82    84  73  40    34  26  14    25  18  12    20  11   4    29  19  10    33  24  16    31  23  18    25  18  20    30  20  23    28  21  16    27  23  18    47  46  26    56  56  32    23  19   8    26  21   9    20  14   5    18  11   7    38  30  18    94  87  56   117 108  56   104  91  28    72  58  12   110  99  54   194 189 133   114 115  56    52  56   3    66  74  19    80  90  29   103 101  42   127 126  70    90  87  46    67  65  33    56  57  23    40  43  17    28  28  20    32  28  18    77  80  32   117 122  46    68  66  18    36  28  11    75  67  43    97  90  62    71  64  36    89  82  54    53  44  24    25  18   9    20  18  13    17  18  10  
 106  98  51   148 140  88   142 131  85    61  55  36    32  27  22    50  41  35    71  61  45    97  87  60    96  85  63    40  29  17    29  20  11    35  29  18    28  24  20    60  58  42    58  57  36    27  23  12    30  25  10    26  22   9    18  13  10    29  24  19    56  50  21   112 107  46   132 127  47    79  71  20    98  92  53   194 192 138   140 140  85    61  63  20    69  73  29    95 104  37   132 132  63    89  88  34    46  43  15    38  35  22    27  28  14    20  21   9    23  21  18    50  42  29   115 115  51   124 128  42    58  54  11    83  75  51   120 112  79    88  81  52    36  29   4   101  94  66    68  60  40    33  26  17    43  39  32    23  23  13  
 159 152  97   182 175 114   178 169 109   140 139  73   127 126  68   178 174 125   182 176 123   157 151  96    98  92  53    41  32  16   100  96  66   126 123  97    52  49  37    51  49  33    35  32  17    22  14  10    31  24  15    35  31  21    30  25  26    44  40  40    42  40  18    83  80  33   119 117  51    74  70  35    68  64  35   174 172 124   151 149 105    65  63  33    59  61  21    92 101  31   113 114  47    69  68  19    47  46  20    35  35  20    25  26  13    20  20   8    36  33  22    74  65  40   110 105  50   107 104  38   101  94  47   112 104  69    76  65  46    50  41  24    54  47  22    84  79  47    64  59  32    34  29  14    57  54  46    31  28  23  
 171 164 112   127 120  66   132 126  70   136 130  67   115 108  52   144 133  88   124 117  70   102  97  54    45  39  17    26  20  22   107 103  68   157 154 124    63  59  44    41  38  19    60  56  35    53  44  35    24  16   4    22  16   9    26  22  20    30  27  21    39  39  14    62  60  17    85  83  30    76  74  43    56  53  21   147 144 103   162 158 117    70  69  22    82  85  27   101 108  42    70  69  24    49  49  17    47  49  26    39  41  19    42  44  23    26  23   9    37  30  17    71  60  28   109 103  45   119 111  61   107  99  63    60  49  29    33  20  15    52  41  35   130 124 103   107 103  68    85  82  46    47  44  20    42  38  29    25  20  17  
 116 109  64    58  49  14    63  55  17    85  73  42    83  68  47   112  97  76    84  73  48    73  68  41    36  33  19    13  11  14    55  49  26   118 114  89    76  72  52    74  73  40   159 157 119   164 158 129   111 105  78   114 107  94   113 109  95    96  96  71   103 105  64   107 109  55   108 108  52   116 115  66   101  98  55   158 153 114   194 187 139   122 122  48    95 101  25    61  64  15    31  33  11    30  32  18    33  37  19    57  62  34    98  99  74    54  47  29    42  31  14    81  71  36   129 122  69   111 101  64    67  57  33    39  27  18    36  24  23    42  33  29   153 146 129   192 189 155   164 164 128   124 123  97    85  80  65    58  50  42  
 169 166 124   155 149 119   146 141 109   170 166 121   168 164 116   176 170 120   158 153 104   120 116  76    59  56  31    16  14   2    62  55  36   103  99  74    90  87  61   116 115  72   193 191 143   185 179 143   171 164 128   200 195 162   224 221 189   214 214 178   218 220 172   222 223 173   203 202 153   157 157 101   109 103  55   156 146 109   204 195 140   156 154  82    76  76  18    28  28   1    25  30   8    28  35  20    45  54  32    89  96  61   100 100  68    58  49  19    89  77  43   105  96  57    89  79  48    73  62  42    71  61  39    91  83  63   112 103  95    98  89  82   143 136 119   204 200 175   179 178 151   168 164 143   163 157 135   145 137 114  
 159 158 112   193 190 155   194 192 153   201 203 159   189 191 142   157 158 101   177 175 121   168 163 122   128 122  93   127 120 100   179 174 149   164 161 129   155 153 119   186 186 137   177 175 125    96  89  56    83  75  35   154 149  97   199 195 154   154 151 116   151 151 113   210 209 172   236 233 202   200 194 149   106  97  57   122 110  71   180 169 115   109 101  51    41  36   9    36  32  24    46  58  20    46  59  33    83  95  63   106 115  68    97  97  52   113 104  60   156 145  94   112 103  64    83  69  53    98  86  70   135 127 103   165 161 127   180 173 155   169 162 148   158 153 133   182 180 159   169 168 150   148 144 127   159 154 128   145 140 102  
  91  90  60   113 111  82   107 104  68   118 117  80   142 138 101   134 129  91   148 146 104   148 148 104   151 146 104   192 178 139   205 198 169   188 182 149   204 199 162   216 211 169   170 165 123    99  91  53   109 102  65   125 119  81   108 102  76    55  46  36    44  39  18   120 118  74   180 178 128   195 193 137   168 162 114   127 116  70   157 146  93    82  73  37    56  53  24    97 104  48    73  85  40    65  75  33    82  86  48    85  85  47   116 109  67   145 137  90   144 135  90   121 116  85   112 107  81   125 120 101   126 123 106   154 154 133   163 165 141   163 166 149   146 150 135   137 140 130   110 109 106    89  84  71   114 104  81    90  74  55  
  98  98  61    67  65  37    44  39  18    59  57  29    80  77  44    73  70  32    99  99  58    99 105  58   120 121  74   178 171 125   180 178 130   173 170 127   195 191 151   200 196 153   152 148 103   128 120  83   173 165 132   154 148 111   102  97  63    80  74  47    57  52  19    70  67  22    78  74  34   114 114  58   140 137  90   127 122  81   149 143  97    83  78  43    79  81  48   132 141  83   107 116  69    88  95  49   103 106  61   129 127  85   107 102  64    81  71  36    79  70  38    90  84  60    76  71  46    73  71  42   108 107  77   145 146 115   150 153 123   155 155 128   110 110  86    71  70  52    64  61  42    80  74  36   105  93  52    88  69  43  
 141 146 105   133 133  99    89  84  61    94  91  63    89  86  56    89  86  53    95 100  59    89 103  54   114 128  74   162 169 115   182 183 124   150 149  97   129 126  81   167 163 120   195 190 149   109 103  67    91  85  55   107 101  72   108 104  70   123 118  83   122 119  72   121 120  63   103 101  52    95  96  53    57  55  30    63  56  37   142 137 107   105 101  76    76  76  58    75  82  52   103 103  66   107 107  66   114 113  67   122 120  74    74  69  29    55  46  13    87  80  45   100  99  46    99 100  43    92  96  37   104 107  53   116 119  74   116 119  82   149 146 113   137 130  95   132 126  92   140 132  92   139 130  75   136 123  66   111  92  53  
  88  96  58   132 137  93   125 124  81   129 128  89    87  85  49    63  64  28    74  85  45    72  91  45    75  96  44    93 110  56   123 127  72   135 137  82    88  87  38   129 124  85   210 204 170   179 175 138    79  75  37    71  68  28    77  73  34    77  71  35    73  69  22   112 110  51   137 135  81   131 128  89    80  74  51    80  73  48   143 139  95   138 134  93    85  83  58    50  49  29    72  65  38    95  89  58    88  83  45    92  87  44   102  98  51   116 111  65   145 143  89   129 134  60   117 123  51   114 120  50    94  99  36   109 113  59   132 136  89   137 132 103   127 121  83   159 153 101   172 166 115   151 143  89   152 142  87   154 140  93  
