P3
50 50
255
 144 129  64   150 137  72   144 134  63   127 118  41   116 109  28   105  99  21   103  99  25   113 111  34   116 115  32   123 124  30   132 132  32   126 127  24   128 133  15   141 143  27   148 152  30   154 157  27   158 164  30   153 160  35   139 144  40   129 133  46   108 111  44   102 102  44    96  92  44    86  79  35    81  74  27    93  85  35    98  92  42    93  87  39    89  87  36    76  72  33    71  65  29    78  74  29    79  72  27    77  67  31    87  75  35    91  81  28   113 102  36   119 107  42   125 112  49   119 105  42   114 100  40   113 100  45   104  92  40    98  88  39    90  81  37    75  70  25    68  67  23    64  67  24    63  68  28    68  70  32  
 138 123  59   143 129  66   140 128  61   134 124  50   119 111  32   109 102  27   103  98  26   106 103  31   110 109  29   125 126  33   147 148  43   148 151  38   147 151  23   158 160  31   163 166  32   155 159  20   149 156  16   152 160  30   144 153  40   127 135  37   111 118  50   100 102  43    94  91  42    97  91  43   101  93  42   106  96  42   107  99  43   106  97  44    92  88  32    82  76  33    78  71  33    82  74  34    86  77  38    82  71  38    82  72  34    96  86  37   122 111  48   127 113  51   134 119  56   129 113  51   122 107  46   117 104  46   107  96  41   103  93  39    97  89  40    81  76  29    69  67  27    63  65  28    62  66  32    66  70  36  
 134 118  56   132 117  55   130 116  51   131 121  50   131 120  45   115 106  33    98  90  21    90  85  19    94  91  18   117 117  27   149 152  41   159 163  38   161 161  31   167 168  34   170 172  35   159 163  23   140 147  10   132 141  15   126 135  26   115 126  29   106 116  48    97 103  43    91  90  37    96  91  38   106  97  40   112 103  41   120 109  48   123 112  53   113 106  47   103  95  43    97  88  40    97  88  40   107  97  52    97  87  47    78  67  29    92  82  39   115 101  42   124 109  49   137 119  59   136 119  57   134 117  54   132 117  56   124 111  52   122 109  51   105  94  37    86  78  28    65  60  22    54  54  24    50  52  26    55  58  28  
 144 129  65   138 122  61   135 121  56   141 129  58   144 128  57   130 117  46   109 100  31    97  89  25    94  90  21   113 112  26   146 148  37   160 166  35   160 158  38   161 160  35   159 158  31   149 150  25   131 134  18   112 117  15   103 109  21   103 111  33    90 104  36    90  99  39    87  89  35    95  93  37   108 101  40   112 104  39   120 110  45   125 115  53   116 105  48   122 113  50   126 118  51   124 116  49   138 128  66   130 119  63    92  80  33    86  73  34    96  81  22   113  97  38   136 118  57   142 123  60   145 126  61   148 129  66   138 121  58   129 113  51   120 106  43    98  88  35    71  63  25    55  54  26    47  49  25    52  55  26  
 153 138  72   149 134  69   145 130  64   147 134  64   149 130  61   144 127  55   129 117  44   112 104  33    96  91  23    99  96  15   126 127  22   145 150  23   152 150  40   155 154  38   149 148  29   138 136  24   128 125  29   109 108  29    90  91  25    84  86  27    86 102  39    85  96  38    79  85  31    97  97  43   112 109  48   107 102  38   108 102  40   114 108  48   115 106  49   127 118  51   138 129  55   142 133  58   149 140  68   140 127  58   108  93  35    99  83  37   107  91  31   123 105  46   142 122  59   147 127  62   152 131  66   155 134  70   145 126  62   136 118  54   138 121  55   116 103  46    85  77  31    69  67  34    59  59  31    59  62  31  
 158 144  73   153 138  70   145 130  61   139 127  55   143 122  55   142 124  48   134 121  41   122 115  37   105  98  28    96  93  16   114 114  18   131 133  19   131 133  15   139 140  19   142 142  19   135 133  19   125 122  28   114 110  37    95  93  31    79  78  20    89 105  46    91 104  50    79  87  36    91  96  42   103 104  46    92  92  31    92  92  33    99  98  44   112 103  48   116 108  43   121 111  45   126 113  55   131 116  58   134 119  52   131 113  47   126 106  48   126 108  46   131 111  48   142 121  56   149 126  59   154 131  64   156 133  68   150 129  65   149 129  66   147 128  60   128 114  53    97  89  39    83  79  40    68  69  34    60  66  30  
 167 153  79   158 143  72   148 134  64   135 123  50   146 125  59   141 125  49   131 119  36   123 114  34   109 102  28    97  93  17   106 107  14   120 123  16   135 139  18   143 147  19   146 150  20   137 139  19   121 120  22   111 111  32   104 102  37    89  89  29    86 105  45    98 112  58    87  96  47    89  94  44    92  96  41    81  82  27    82  83  28    86  87  38    89  83  29   100  94  36   101  91  38    96  83  38   114  98  50   147 130  68   159 140  74   145 125  62   136 116  52   137 117  52   146 125  60   158 135  69   164 142  75   163 140  77   159 139  75   160 139  76   155 134  67   138 121  60   109  97  43    91  87  39    78  79  37    64  69  31  
 170 156  81   154 142  64   140 130  58   123 116  38   133 120  49   140 127  52   133 119  42   124 112  35   114 105  30   101  96  18   103 104  16   118 121  25   136 141  21   146 152  27   145 152  24   132 140  21   117 124  22   110 117  34   108 114  44    96 102  37    87 109  46    94 111  57    82  94  46    83  91  43    84  88  38    68  71  21    68  69  23    72  73  31    75  69  25    84  78  34    84  78  33    74  67  19   102  92  38   149 134  76   161 142  83   156 136  75   152 131  66   152 131  66   156 135  70   164 143  78   169 147  82   169 147  84   169 146  84   167 144  82   160 135  69   145 124  61   120 105  46    96  89  35    91  90  42    76  78  38  
 159 144  71   149 137  60   131 123  50   109 103  28   117 108  29   135 125  44   132 120  40   124 113  34   120 108  38   106  97  26   101  95  19   109 105  23   126 127  14   130 131  16   125 128  16   118 123  21   111 117  30   108 116  42   107 116  46    95 105  36    90 111  53    91 108  56    77  90  41    80  90  38    83  89  38    67  73  22    61  63  22    58  61  26    67  64  25    69  66  26    82  79  35    74  67  20    92  82  32   143 128  72   159 139  79   159 136  71   152 129  65   145 121  57   152 129  65   160 137  73   167 143  80   170 146  83   167 141  80   168 143  81   158 133  67   146 125  62   129 114  55   105  96  42    95  93  44    82  83  42  
 141 127  56   144 132  56   130 122  47    95  91  20   108 102  24   127 120  39   127 119  38   125 113  37   127 114  44   119 105  40   108  98  27   103  95  19   111 106  19   104 100  15    92  90  10    90  91  22    93  96  39    99 106  53   100 110  56    90 104  42    88 107  52    85 103  50    74  88  39    78  88  36    82  91  38    68  74  26    55  58  23    48  51  23    53  54  21    53  53  17    74  72  32    70  65  23    77  66  21   123 107  56   151 131  70   151 128  58   153 129  65   139 115  51   148 124  60   154 130  68   164 138  77   176 150  89   169 144  82   170 144  83   162 137  72   148 127  64   135 119  59   112 103  48    96  92  44    82  83  41  
 135 121  50   137 125  49   123 117  41    82  79  12    99  94  29   114 107  35   122 114  39   122 114  39   122 109  39   123 110  42   121 111  39   107  99  21   101  92  25   102  95  27   100  97  29   100 101  39    96 101  47    94 102  51    93 106  52    87 102  42    81  98  42    80  94  42    71  83  35    74  81  33    78  84  34    66  72  28    50  56  22    41  45  20    40  43  16    46  47  15    62  62  24    69  67  26    68  59  19    99  86  39   138 119  60   139 120  48   145 124  59   137 116  51   150 129  66   157 133  71   162 139  77   178 152  91   174 148  87   171 145  84   165 137  75   149 125  63   138 122  62   120 109  53   101  95  44    81  79  37  
 135 120  52   130 121  45   116 113  35    81  80  16    86  82  23   102  98  31   116 110  38   117 110  36   109 100  29   114 105  35   120 113  39   108 104  25    97  91  22   107 104  26   114 117  27   118 125  32   110 121  34   104 117  37    99 116  39    90 107  33    86 101  36    82  94  39    75  82  36    70  75  32    74  76  35    69  73  33    56  59  25    42  46  17    42  44  21    47  48  17    56  56  18    65  63  26    62  55  20    83  70  30   125 110  52   140 125  52   135 117  53   126 108  44   138 119  55   150 130  67   157 137  74   170 147  85   171 147  86   167 142  82   170 141  81   153 129  67   140 122  60   118 107  48   100  94  42    80  76  33  
 130 115  48   126 117  42   111 109  30    91  91  30    83  81  20   101  98  30   111 107  33   110 105  31   103  97  28   104  99  31   106 103  33    98  97  24    90  88  19   112 114  26   130 138  29   134 148  26   122 139  22   112 129  25   108 126  34   100 118  34    96 109  36    90  99  38    77  82  36    66  67  29    70  70  33    74  75  37    61  63  26    44  47  12    44  42  21    45  45  14    57  57  19    64  61  26    61  56  25    74  63  28   105  93  39   133 122  49   136 121  56   112  98  33   113  96  32   136 118  54   155 136  73   168 148  86   174 152  92   168 145  85   170 141  81   158 134  72   143 125  63   117 105  45   102  95  42    85  80  38  
 115 110  37   110 107  33   103 104  32    93  98  33    84  85  20    97  97  30    99  97  30    93  90  21    97  92  24    98  93  26   102 100  32    92  90  21    85  85  16   107 111  21   130 140  27   134 149  23   120 136  16   110 123  19   106 120  28   101 114  28    92 103  35    85  93  33    71  75  26    59  60  20    65  65  29    71  72  38    57  60  27    41  45  13    37  38  16    43  45  16    56  56  21    70  68  30    65  59  18    82  72  27    99  86  34   124 109  52   124 112  54   102  91  32    98  84  27   116  99  43   141 123  64   159 138  78   166 142  77   168 142  75   168 142  78   153 131  65   140 123  56   120 110  45   100  95  38    83  80  33  
 116 112  39   106 106  35    92  94  28    76  80  20    68  67  17    81  80  29    90  88  33    87  82  26    94  88  29    94  88  26   102  98  34    99  96  29    80  79  17    96  99  19   120 126  27   128 138  29   118 129  26   109 118  28   102 112  31    94 102  26    83  93  30    83  88  30    74  77  26    62  62  18    63  61  23    65  65  31    53  54  23    42  45  14    43  43  18    46  46  16    54  51  16    74  71  30    78  71  26    98  88  38    93  79  29    93  79  30   103  95  43    88  81  28    83  75  25    92  81  32   111  98  46   133 116  59   146 125  64   154 133  67   162 136  74   147 126  63   132 116  51   116 107  42    94  89  33    80  77  32  
 119 111  43   112 107  43    92  90  31    72  72  18    74  74  23    80  81  27    91  88  32    90  86  25    99  94  27   104 100  26   109 108  27   117 116  33   100 100  26   104 106  21   117 122  21   123 130  24   120 127  24   118 123  31   116 121  39   111 114  37   100 102  36    99 100  39    91  90  33    71  68  19    64  61  17    67  65  25    60  58  19    55  55  18    57  52  18    62  58  20    72  67  25    90  83  36   100  90  40   116 104  53   101  89  38    92  80  27    86  82  34    82  78  31    83  79  34    85  80  35    96  88  41   111  99  49   118 105  53   129 112  56   136 114  58   136 115  59   123 108  50   111 102  44    93  88  34    80  77  34  
 125 117  44   120 114  47   105 102  42    92  91  34    90  96  30    89  91  25    95  94  28    98  95  26   108 105  31   112 111  31   108 108  21   116 117  27   119 120  33   118 119  27   125 130  30   132 136  34   131 135  34   132 135  41   134 136  49   131 132  50   134 131  55   135 131  60   126 122  56   102  98  39    93  89  33    97  93  41    86  84  32    80  78  26    83  77  25    92  84  31   106  95  39   120 108  50   122 111  49   129 117  56   115 105  43   110 100  38   102  92  41   100  92  43   102  93  45    97  89  41    98  88  40   104  93  41   108  94  41   114  97  45   122 102  52   125 109  57   114 101  47   100  94  39    84  82  31    77  74  32  
 125 118  41   118 112  41   106 103  38    97  97  36    94 101  27    95  98  27    95  97  26   103 100  31   111 108  36   113 111  33   105 105  21   113 116  29   120 125  29   118 122  28   125 129  36   135 135  44   134 135  42   136 135  44   143 140  55   145 141  61   148 142  61   154 148  71   150 146  72   120 117  49   111 107  42   118 114  51   104 101  40    97  94  33   104  97  32   111 103  38   126 114  47   138 123  54   145 128  59   145 130  60   132 120  49   130 119  49   132 115  57   126 110  54   122 108  51   113 100  44   111  97  41   116  99  45   118 100  45   123 104  49   115  98  47   116 102  50   106  95  44    89  84  33    79  76  30    77  75  35  
 125 118  44   118 114  44   107 107  42    97  98  37    93 100  26    99 102  32    92  93  24   101 100  29   106 104  30   110 109  26   109 112  22   124 128  33   121 130  23   120 127  27   131 135  45   143 145  57   143 143  54   142 142  50   149 145  58   151 146  64   151 142  67   157 149  75   149 144  74   111 108  43   101  99  36   119 117  56   112 108  48   105 100  41   110 105  40   123 114  49   140 125  59   146 126  58   150 129  60   150 131  60   143 125  55   145 130  60   142 122  60   134 116  54   130 114  53   124 110  49   120 107  47   121 105  47   118 102  45   122 104  50   107  93  39   105  93  40   101  94  41    86  83  32    82  81  35    85  83  44  
 115 110  43   110 106  42    97  96  39    76  79  22    79  82  31    89  89  39    77  76  26    88  86  33    95  91  29    99  96  24   101 103  19   115 118  29   115 125  27   110 118  31   119 123  47   129 130  60   131 128  55   130 126  50   136 130  56   139 132  63   150 139  74   150 141  78   138 132  71    95  93  35    93  90  34   118 115  62   109 103  51    96  90  38    99  93  35   119 109  49   139 123  63   145 123  62   156 131  69   159 134  70   149 128  62   144 125  61   142 126  64   133 117  55   128 117  53   124 114  52   119 109  48   114 103  44   109  97  43   113  99  46   115 105  46   107  98  42   104  98  44    85  83  32    82  81  35    85  85  47  
  76  77  33    75  76  34    68  69  31    53  53  17    65  71  25    61  65  30    49  49  23    55  56  30    52  54  22    62  66  23    62  66  19    66  69  23    67  73  20    72  75  20    87  83  31    83  79  31    81  80  34    84  84  35    91  86  30   120 110  48   134 126  54   156 142  81   135 127  64    73  73  31    70  71  33   101  98  46    92  85  40    83  82  34    94  84  33   110  99  44   134 120  59   153 134  68   158 137  69   157 134  67   156 131  67   157 131  69   154 129  72   138 119  53   132 117  48   126 115  50   116 105  49   111  99  47   112  99  44   118 107  45   113 104  47   110 100  47   106  98  51    92  86  39    89  87  38    78  79  35  
  67  71  29    65  68  28    63  66  30    54  56  23    57  64  21    55  60  25    41  45  18    50  53  29    49  53  20    58  64  23    58  64  18    60  67  21    63  69  23    73  74  28    83  79  33    74  70  26    77  75  33    90  88  43    94  88  34   109  99  38   135 126  54   162 148  85   145 135  73    81  80  38    82  81  43   115 109  56   103  94  47    98  95  44   107  97  41   121 109  50   139 123  60   152 132  66   160 137  68   164 139  72   161 136  70   157 132  67   149 125  64   148 127  61   145 128  59   134 120  55   123 110  54   111  99  46   105  92  39   115 103  44   102  96  39    90  84  32    96  91  43    96  92  46    90  88  40    78  77  33  
  70  75  36    70  75  39    66  70  38    51  55  25    57  67  26    54  62  30    37  44  19    47  52  28    45  51  18    54  62  22    55  63  20    57  64  22    61  65  27    74  72  33    84  79  37    80  75  34    83  79  39    92  89  44    99  94  40   117 107  47   139 127  57   169 152  90   157 147  82    93  91  47    94  92  52   131 123  68   120 107  57   114 107  50   120 107  46   136 122  59   155 136  70   165 143  76   170 146  76   172 146  78   169 144  77   164 139  73   164 141  75   153 131  63   145 127  58   139 123  57   125 111  51   102  89  35    93  80  28   108  96  42   100  96  40    86  84  32    89  86  40    95  93  48    90  89  42    74  73  29  
  66  74  36    68  74  41    65  72  39    51  57  27    61  72  34    57  66  35    35  43  19    44  52  26    41  50  16    50  58  18    53  61  20    52  60  20    58  63  23    71  70  27    84  79  34    87  83  37    87  85  38    87  86  34   100  96  36   127 118  53   139 125  55   161 145  84   160 150  87    99  97  55    95  93  54   142 133  74   136 121  67   122 111  50   130 114  46   145 127  60   167 145  77   181 157  88   184 158  89   180 153  85   177 151  84   175 150  84   173 150  80   170 147  77   161 141  72   154 135  68   146 129  66   119 105  47    95  82  29   100  87  37   100  97  42    90  88  39    88  86  43    94  95  52    92  92  47    79  78  36  
  64  70  36    64  69  37    64  69  37    53  58  26    65  75  38    62  70  39    39  47  21    49  58  29    49  56  22    54  62  20    55  63  22    50  58  19    60  65  24    74  74  28    87  81  31    89  83  31    87  85  34    87  86  32   100  94  34   122 113  47   134 123  57   153 137  78   157 148  89    98  99  59    93  94  54   151 142  83   149 132  76   127 113  48   141 121  52   149 127  59   166 141  74   184 157  90   189 160  94   183 153  89   177 149  84   178 150  85   177 153  83   169 145  77   169 145  79   163 143  75   152 133  65   132 117  53   109  96  41   100  88  38    96  93  40    84  82  34    83  84  44    97  99  59    89  92  49    84  84  42  
  59  64  32    62  67  35    63  68  35    52  56  23    66  74  37    63  70  37    38  44  16    51  58  27    48  56  17    53  60  18    54  61  19    47  54  13    54  56  20    71  69  28    83  77  29    87  81  33    88  85  37    90  88  39   106  99  46   125 113  56   142 131  67   157 142  87   159 153  98    97 102  65   100 102  63   162 156  98   158 142  85   133 119  53   149 127  57   160 135  68   176 149  82   192 162  98   198 167 104   196 166 104   193 164 102   193 164 102   192 167  98   188 162  97   185 160  96   183 160  93   180 160  89   156 141  72   119 107  46   102  92  41    99  92  40    81  77  32    77  77  39    92  97  59    85  90  49    81  83  43  
  58  61  31    65  68  37    69  73  40    62  66  32    69  77  39    68  77  42    41  49  19    50  56  24    52  58  16    54  61  16    53  61  19    47  57  15    56  60  23    70  70  28    83  77  32    89  80  36    89  82  39    88  82  37   101  92  44   122 109  60   142 130  70   154 143  88   151 148  95    93  95  61    96  97  61   155 147  91   144 129  72   125 112  49   143 120  49   160 136  66   182 153  86   194 164 100   196 164 102   195 165 103   191 161 101   191 162 102   190 164 100   188 159  97   188 160  99   184 159  94   182 161  91   173 158  91   138 126  65    95  84  30   100  93  45    82  78  35    72  71  34    85  90  53    86  94  54    81  87  46  
  61  64  33    68  72  40    69  73  40    65  67  34    66  73  37    71  82  42    47  57  26    49  56  25    59  64  18    60  65  17    53  64  19    50  68  16    62  71  19    71  75  24    84  82  31    95  86  36   106  94  43   112  99  47   115 104  49   129 120  63   147 130  73   141 134  76   136 135  89    93  92  59    92  86  51   129 118  65   114 103  44   106  94  42   134 112  40   157 133  62   181 154  86   199 169 104   199 168 105   199 169 108   193 163 103   194 165 106   194 163 106   195 165 105   192 163 102   187 161  97   185 161  99   181 161 102   150 135  76   100  86  30    92  88  40    75  73  32    64  66  32    71  78  45    78  88  51    78  87  47  
  64  66  34    68  70  36    66  69  33    62  62  27    70  73  40    72  80  41    50  59  30    53  58  30    62  66  17    67  71  16    64  74  19    62  79  13    74  85  20    81  88  24    93  94  31   106 101  38   123 115  51   134 124  58   137 128  62   149 142  73   154 138  79   127 121  63   128 130  83   100 102  65    90  86  47   113 105  51   104  95  37   102  92  38   135 112  44   159 134  66   181 154  88   199 169 106   200 168 107   201 169 110   193 163 105   194 165 107   194 163 106   195 165 105   192 162 102   188 159  98   185 159  99   183 162 103   159 141  83   115  99  42    85  79  30    78  76  35    63  64  30    63  69  37    74  84  47    74  85  45  
  62  62  29    66  66  30    75  73  35    76  74  36    80  80  44    77  81  44    56  63  34    59  63  36    67  69  22    70  73  18    66  75  18    68  83  15    78  89  20    83  93  24    96  99  30   109 109  39   126 122  51   137 130  58   140 134  60   152 146  72   153 142  80   120 117  62   128 131  85   100 105  64    88  87  43   105  99  47   100  93  38    98  90  35   135 112  45   161 136  70   181 153  90   197 167 105   200 168 109   200 170 110   192 161 104   193 164 106   192 161 104   194 163 106   192 161 104   191 160 102   187 161 102   186 161 104   162 141  84   120 101  43    87  80  28    82  77  35    64  64  28    62  66  33    75  83  46    74  85  45  
  71  68  33    79  75  38    89  85  44    91  88  44    88  86  48    78  83  41    55  63  29    58  65  33    65  72  22    67  71  20    61  69  19    67  82  23    74  84  22    77  86  21    89  94  29   107 107  43   130 127  61   141 136  70   140 133  65   146 139  70   142 134  73   116 114  63   125 131  88    98 105  63    90  92  45    97  93  46    88  82  31    88  83  29   130 109  42   159 137  70   179 155  88   194 166 103   197 167 107   197 168 108   189 160 100   190 165 105   194 166 108   193 165 106   191 163 105   192 163 108   190 165 108   187 163 106   163 143  84   120 101  42    90  82  28    79  72  26    71  67  30    63  64  30    69  74  36    69  81  40  
  83  78  43    89  83  45    95  90  47    94  87  42    93  90  51    88  94  45    62  74  29    59  71  23    72  84  18    74  83  19    61  70  15    64  80  22    69  79  20    75  84  25    89  94  35   103 104  45   121 120  59   135 130  68   143 135  73   158 150  87   148 143  83   114 113  67   116 124  85    85  95  52    75  81  33    75  72  28    68  65  18    79  77  24   129 113  43   162 143  75   182 161  93   195 171 104   195 172 106   196 173 108   188 166 101   194 171 106   197 174 113   195 172 112   194 169 112   197 171 116   197 173 117   194 172 115   173 154  95   134 117  55    99  90  30    82  75  24    84  79  38    69  69  30    67  74  32    67  79  35  
  79  73  37    83  75  35    93  86  41    96  88  42    90  88  51    99 107  55    79  94  37    72  90  22    92 109  22    98 113  28    73  87  16    67  86  14    63  72  15    71  81  22    86  93  34    97 101  42   111 111  51   122 118  57   130 124  62   149 141  79   153 148  91   111 112  71   112 121  85    74  86  42    62  69  22    64  63  23    67  64  22    80  79  28   120 107  34   155 140  68   176 158  87   186 167  97   186 167  98   187 167  99   180 162  93   187 169 100   189 170 106   189 170 109   193 171 114   200 177 122   200 179 123   198 178 121   181 163 104   146 131  68   113 104  40    92  84  29    96  90  45    76  74  32    75  81  36    70  82  35  
  78  72  39    80  72  34    93  85  44    96  87  44    87  84  45    96 105  54    88 108  44    83 110  24   101 127  23   107 127  23    84 101  12    76  91  12    67  78  12    70  84  20    82  99  38    98 115  54   116 129  65   127 135  67   132 133  67   143 139  78   152 147 101   116 117  76   110 119  77    88 104  52    69  86  22    72  87  20    83  92  24    82  90  22   105 104  26   126 122  49   141 134  64   157 147  75   162 152  74   159 150  69   159 150  70   162 152  77   165 151  81   169 154  85   181 162 100   189 168 110   188 167 111   191 172 113   178 162 101   149 134  70   122 105  42    99  89  29    95  94  40    82  87  33    80  88  34    82  92  41  
  82  76  40    88  81  39   102  95  50   102  94  48    98  98  46    95 105  47    90 116  40    93 128  27   111 142  26   109 133  17    87 104   8    77  91  12    75  88  18    65  81  18    77  98  39   101 124  64   117 139  74   123 138  73   130 137  76   147 149  92   156 157 110   121 126  81   117 125  77   110 124  66    94 112  41    93 112  30    94 112  28    94 109  28    89 100  24   101 108  38   104 108  41   115 115  45   124 123  42   124 122  39   125 123  41   121 118  43   125 113  48   131 117  55   145 129  70   157 140  83   166 148  92   176 162 101   163 152  86   134 125  54   116 106  39    93  92  28    92 101  40    93 106  46    92 105  45    92 102  47  
  80  75  34    92  88  41   110 104  52   110 105  48   106 107  51   107 119  56   101 129  46    96 132  26   112 146  25   124 151  34    99 119  23    68  85   7    65  81   8    62  81  14    80 103  40    96 123  61    99 126  60   100 122  58   103 119  62   113 124  72   131 145  92   113 123  71   111 119  67   106 114  51   102 114  37   112 127  39   110 129  39   106 126  38    87 107  35    89 106  36    84  95  26    83  90  20    93  97  21   100 103  22   100 103  24    92  95  18    90  80  21    97  84  28   105  92  36   116 103  47   136 126  65   153 146  81   145 144  69   120 121  43   104 111  38    95 110  39   106 128  60   118 142  73   115 137  69   100 117  54  
  83  79  34    92  89  38   112 107  52   119 115  54   113 113  64   102 115  58    94 121  46    96 132  31   115 150  32   119 148  32    96 117  20    76  95  13    74  94  14    69  91  17    85 110  41   101 129  60   106 135  64   110 137  68   109 130  70   105 124  70   119 140  83   113 128  73   116 121  67   120 120  56   118 119  40   115 123  34   110 125  33    95 114  23    88 106  30    95 109  34    99 108  34   106 110  35   119 120  42   125 124  45   121 120  40   115 114  33   122 113  43   127 117  51   124 114  50   122 112  49   132 126  59   144 143  71   138 142  62   123 131  46   106 124  44   102 127  49   110 141  66   118 149  75   117 143  70   106 127  60  
  87  84  41    89  85  37   103 100  49   114 110  56   111 109  62   106 115  62    98 122  54    93 127  36   108 142  30   120 148  32   106 129  25    93 113  22    86 109  28    75 100  24    86 112  40   104 131  57   116 142  67   124 148  74   125 144  78   122 139  79   123 141  89   124 135  85   143 143  90   167 160  97   160 151  75   141 138  51   129 132  43   101 109  22    93  97  19   110 111  31   132 129  49   149 141  63   162 151  74   165 153  78   160 148  69   159 149  66   163 153  72   171 160  83   169 157  85   161 149  80   161 151  81   161 156  83   151 151  73   139 143  60   115 132  46   106 128  45   111 138  59   123 150  73   125 146  71   113 132  63  
  81  78  41    80  74  36    87  82  42    94  89  47    93  89  40    92  98  50    92 111  58    79 106  38    79 105  18   100 122  28   103 122  34    89 106  27    74 101  30    72  98  31    84 108  44    98 122  54   114 133  61   128 144  72   136 148  83   146 152  95   135 145 101   134 137  95   174 168 120   203 190 132   192 175 104   181 167  85   160 151  69   121 114  35   108  98  25   131 121  42   161 148  67   175 159  82   182 163  94   186 166  99   183 165  94   186 169  93   187 171  98   193 174 105   194 175 110   192 172 109   187 170 105   180 165  95   164 155  80   149 143  63   131 138  48   110 121  36   108 124  44   121 138  59   121 135  59   113 127  57  
  72  67  36    72  65  36    77  70  40    77  71  39    85  77  37    71  73  40    78  91  62    68  88  51    47  65  14    60  74  17    75  86  30    65  75  25    68  96  37    51  78  22    56  79  24    81 101  41   108 123  58   126 133  68   141 143  85   165 163 111   151 152 118   132 129  91   192 180 138   228 211 157   215 195 126   209 187 111   181 159  84   142 123  51   114  99  30   146 130  55   182 166  87   192 172 100   196 174 113   201 179 121   195 175 113   194 177 108   206 181 126   201 177 122   203 176 125   206 179 126   204 179 122   196 176 111   182 165  93   166 151  73   154 150  59   123 124  38   106 112  30   104 112  34    98 105  30    98 109  40  
  71  68  37    73  69  39    63  60  27    72  68  36    82  71  41    65  62  31    81  98  64    57 102  61    43  54  22    56  61  29    67  68  34    64  72  31    68  91  38    54  75  35    44  60  24    77  83  35   112 106  46   156 141  82   185 169 114   195 183 130   152 151 123   133 124  91   202 183 141   228 206 157   215 193 143   203 182 125   188 167 102   157 133  63   143 116  47   164 137  70   187 159  94   197 171 110   199 173 114   196 170 111   197 171 112   203 177 118   204 179 124   205 180 126   201 176 122   203 176 121   202 174 119   193 166 111   185 158 103   177 150  95   159 144  63   118 108  41    99  96  29    92  91  26    90  88  33    87  88  33  
  59  55  27    64  60  32    64  61  32    78  74  44    81  71  41    72  69  38    79  94  61    62 104  64    44  55  23    60  65  33    71  73  36    60  68  27    72  93  48    62  83  39    46  61  21    68  73  31    93  85  31   132 118  57   180 165 108   202 188 143   150 149 121   140 130  95   221 202 159   232 210 161   220 199 146   211 190 133   199 177 112   183 158  89   164 137  68   178 152  85   192 165 100   198 172 111   200 174 115   197 171 112   196 171 111   200 174 115   201 175 121   203 178 124   199 174 118   199 172 117   198 171 116   193 166 111   186 159 104   176 148  93   153 135  69   107  94  45    77  71  27    66  61  21    64  57  28    71  68  35  
  81  78  44    84  82  47    79  77  41    82  80  41    89  80  49    82  76  47    77  88  56    73 112  72    49  60  28    56  65  31    73  76  39    69  76  35    70  88  45    67  86  41    47  62  21    66  71  31    94  87  35   131 116  55   182 166 112   198 184 146   144 141 113   150 140 105   234 214 171   230 207 158   221 199 147   215 193 136   202 178 114   189 162  93   174 147  78   184 157  90   193 165 100   198 169 109   201 173 115   198 172 113   197 171 112   200 174 115   203 176 122   205 178 123   199 172 117   195 168 113   194 167 112   193 167 111   189 163 107   177 151  95   144 128  62   109  96  52    84  77  43    74  68  41    59  51  34    66  62  38  
  88  86  47    90  88  49    86  85  43    85  83  41    83  76  44    82  75  46    72  78  47    78 112  72    51  61  30    46  56  21    66  70  33    74  81  40    69  88  39    68  86  44    45  60  20    65  71  23   109 102  46   150 135  79   192 175 129   188 174 136   127 123  93   161 149 113   231 210 166   220 194 145   213 191 137   208 186 128   200 176 111   178 152  83   167 140  71   178 151  84   188 160  95   194 165 105   196 167 109   193 165 107   191 165 106   194 168 109   199 172 117   200 173 118   196 168 113   192 165 110   190 165 109   191 166 109   189 164 107   175 150  92   143 128  58   104  93  45    78  72  36    71  65  39    51  44  26    60  56  30  
  73  69  40    74  71  40    76  73  41    78  75  43    73  68  34    84  75  46    75  77  46    80 108  70    61  70  39    48  60  24    64  70  32    74  79  38    65  84  30    69  86  44    49  64  24    64  71  17   123 118  55   173 160 107   200 185 142   175 161 122   120 115  83   178 166 128   224 203 157   212 186 135   205 181 127   196 174 116   196 171 107   175 146  78   162 133  65   174 147  80   187 159  94   194 165 105   196 167 109   194 165 107   193 165 107   196 168 109   200 170 116   201 171 117   199 172 117   200 173 118   198 173 116   196 171 114   192 167 109   174 149  92   145 131  67   100  88  47    70  64  32    63  56  32    45  38  22    62  58  32  
  59  55  30    57  53  28    61  58  30    64  60  33    68  65  30    75  66  35    67  63  34    69  95  58    71  81  49    51  65  29    57  63  25    68  73  32    68  87  32    69  87  39    51  66  19    60  68  14   137 131  69   198 186 125   203 189 142   153 139 105   130 125  92   192 180 140   222 199 152   216 190 139   210 185 131   202 177 120   193 168 104   177 148  80   167 138  70   177 148  82   187 159  94   194 164 104   196 167 109   195 166 108   195 166 108   199 170 112   203 173 119   199 169 115   197 170 115   201 175 118   196 171 114   190 165 108   181 159 101   164 143  84   131 116  59    95  84  45    76  71  39    67  62  32    52  45  25    74  70  43  
  75  72  38    67  64  30    73  70  36    81  77  43    86  84  44    85  77  39    72  68  34    76  95  57    90 104  64    62  80  38    63  73  31    80  85  39    85 101  47    92 111  55    82  99  38    72  80  22   134 128  66   195 182 118   192 178 131   137 126  93   136 129  95   197 183 140   218 195 146   217 191 140   211 187 133   205 181 122   192 167 102   178 149  82   172 143  73   178 149  83   187 158  93   191 162 102   192 163 105   190 161 103   188 159 100   191 162 102   197 167 111   191 161 105   186 158 102   187 161 103   181 155  98   174 149  92   166 143  85   152 129  72   123 112  50    92  83  39    78  73  34    69  65  27    59  54  25    86  84  49  
  96  96  48    94  94  45   101  99  50   107 103  56   106 106  57   104 101  48    90  87  44    84  92  52    98 123  68    73 102  47    72  90  40    79  87  29   100 111  51   101 121  61    95 119  43    83  95  26   143 137  73   215 200 138   199 184 145   130 122  86   140 127  93   203 187 138   211 189 132   204 178 127   194 171 117   190 169 105   184 159  92   171 140  76   167 139  66   172 143  75   184 156  91   190 161 101   191 162 104   189 160 102   186 158  95   189 161  96   189 160 100   186 157  97   184 155  96   181 155  96   177 151  92   173 148  91   168 143  86   160 135  78   124 115  53    96  85  41    79  69  32    69  62  26    61  57  28    91  91  56  
  95  96  45    96  96  44    99  97  46   100  98  48   101  99  58    98  94  47    91  87  51    83  90  55    95 120  68    80 108  56    76  93  47    69  76  21    94 104  46   105 125  64    90 113  42    70  82  28   117 111  60   194 179 118   185 171 128   123 114  82   143 130  96   203 187 138   208 186 129   207 181 130   204 181 129   196 175 112   186 161  94   175 144  80   167 139  66   171 142  74   183 155  90   189 160 101   190 161 103   189 160 102   185 156  95   187 159  95   186 157  98   186 157  99   186 157  99   181 155  96   176 150  91   174 149  92   169 144  87   160 135  78   126 115  58   102  90  49    88  79  45    74  68  37    77  75  47   112 115  81  
  67  67  34    69  66  33    70  67  33    76  71  38    72  70  38    85  79  42    84  79  48    74  81  50    95 119  71    73 101  51    60  77  33    72  79  28    78  89  31    98 118  57    73  98  32    51  63  23   100  96  55   198 186 124   196 183 139   130 121  92   155 142 108   220 204 155   221 198 143   217 191 140   212 189 137   201 180 117   195 170 103   191 159  96   175 146  76   179 150  82   190 162  99   196 167 109   196 167 111   193 164 106   186 157  97   187 159  96   190 161 105   191 162 106   189 162 105   183 157  99   178 152  95   178 152  94   171 147  88   159 135  75   126 113  61   102  90  50    82  73  42    60  56  28    80  83  56   129 135 102  
