P3
50 50
255
 143 131  28    92  76  27    71  57  34    81  73  53    64  60  50    43  40  30    70  70  49    67  63  47    49  46  38    65  65  57    47  49  36    50  49  39    51  47  45    32  28  26    30  27  16    72  67  33    96  84  35    76  54  19    66  36   7    87  57   9    98  67  20    99  78  38   131 110  71   144 123  85   135 120  91   106  91  61   120  97  60   142 118  79    83  62  35    45  29  10    34  25  11    21  15   6    24  20  10    25  19  11    27  22  11    36  34   9    62  54  15    74  63  17    52  44   8    26  24   9    21  18  10    27  25  21    44  41  41    85  92  90   133 158 146   141 155 145   101  98  90    57  57  49    38  37  35   122 123 108  
 118 111  26    88  80  28    67  62  29    57  53  30    41  37  25    30  27  17    65  63  45    63  60  46    58  57  50    65  66  59    54  56  45    64  63  55    56  52  50    26  27  28    27  29  19    72  70  38   105  94  50    85  63  28    80  49  13   104  72  16   107  76  28    99  78  38   104  84  46   105  84  49   114 101  74   117 102  74   122  99  60   112  87  54    69  47  28    52  36  16    39  31  13    28  20  11    24  18   7    24  16   7    19  17   4    24  25   8    41  38   7    61  52   4    59  52   9    32  30  13    23  20  11    28  24  21    44  39  39    99 107 103   149 174 160   162 176 164   133 130 119    65  65  56    72  72  70   167 168 154  
  62  55  27    54  48  26    48  41  29    40  35  29    46  43  38    32  32  22    60  63  44    87  91  63   104 106  81   112 114  93   108 108  93    92  92  80    75  74  65    61  58  48    73  71  49    94  89  50    90  78  31    91  72  23    95  70  16   108  80  16   110 102  37   116 108  52    89  78  49    63  47  35   101  86  62   117 102  68   106  87  52   100  74  39    84  61  28    66  45  23    43  27  19    27  20  14    19  18   8    22  16   5    25  15   6    27  18  11    32  26  10    52  48   7    66  60  12    51  37   8    31  27   1    26  21  19    38  40  41    95 107  95   148 162 147   152 158 141   139 135 118    84  75  68    98  97  83   177 176 156  
  41  34   6    40  33  11    43  36  21    32  27  17    48  45  36    47  47  37    58  58  44    84  85  67    97  97  80   109 110  92   113 112  95    94  92  77    66  64  49    58  58  34    93  93  58    91  88  43    66  56  10    91  73  28   102  80  31   110  85  30   134 120  58   115 105  54    67  60  32    38  29  18    64  51  36    96  79  48   105  83  49    96  70  39    86  61  27    72  51  21    45  29  12    28  20  10    22  20  11    23  20  13    23  20  13    21  18  11    24  21   9    43  40  10    66  60  13    73  66  11    47  46   1    32  27  11    36  36  33    77  87  80   110 123 114   117 123 110   114 110  95    77  70  63   112 112  98   164 163 145  
  48  38  14    44  36  14    57  50  30    57  53  37    60  56  45    45  42  33    31  30  22    39  36  28    47  45  34    65  63  50    78  77  59    69  68  47    58  56  34    76  77  35   109 112  60    91  90  36    80  72  24    86  74  29    88  72  25   120 104  52   148 132  77    95  83  39    52  45  17    38  32  20    35  23  17    58  39  18    89  64  30    96  67  41    89  63  26    82  59  20    66  47  18    51  38  21    32  22  12    18  16   7    20  20  12    18  18   8    15  14   5    26  22   7    56  53  10    94  94  17    81  84  19    49  46  13    37  36  25    71  79  75   107 117 116   120 125 117   101  98  87    85  79  72   153 150 138   149 146 131  
  65  55  32    71  64  39    79  72  49    78  73  53    60  56  43    39  36  29    30  28  24    27  24  18    33  30  22    42  40  28    48  44  31    46  43  26    57  54  35    91  92  47   118 121  66    94  94  43    89  84  38    81  74  29    84  73  28   109  99  49   103  88  48    73  59  24    62  50  17    55  43  21    39  22  17    47  29  13    79  58  27    98  68  38    93  65  27    94  68  27    96  72  39    80  61  37    58  42  22    40  28   9    33  24   9    27  18   3    27  21   6    28  21  10    34  31   2    62  65   1    86  86  26    68  66  24    54  53  33    83  90  81   131 142 136   138 142 135   104 100  92   120 117 109   173 169 159   115 110  98  
  90  83  57    91  84  59    72  67  44    62  58  39    45  43  29    28  28  20    27  26  20    38  35  26    48  45  36    38  35  26    27  24  15    26  24  12    40  37  25    57  56  27    72  72  38    58  54  24    55  50  20    62  56  24    70  63  27    70  62  26    64  54  29    73  58  29   105  85  45   116  92  54    80  58  38    39  24  10    66  50  26    95  66  31    87  58  17    89  60  20    97  68  36    85  59  29    87  63  29    92  67  33    82  54  31    62  38  17    52  33  11    35  22   9    24  17   3    40  39  10    69  66  25    77  72  37    67  65  40    82  88  71   132 142 131   141 146 137   111 112 105   151 151 141   181 175 165    95  87  76  
  82  77  48    70  66  41    54  50  29    49  47  32    38  38  28    30  31  25    31  33  25    52  53  42    61  61  51    36  36  26    23  23  15    26  25  20    32  30  25    33  29  20    31  27  18    35  28  20    47  41  27    60  52  34    47  38  21    45  34  21    45  35  19    77  58  31   132 104  58   166 136  82   126 102  60    43  29   6    59  45  25   102  74  35    99  68  26    88  55  12    92  58  21    95  62  24   105  75  32   105  70  30    98  61  32    97  64  39    86  60  34    57  38  18    36  24  13    37  30  24    50  43  23    65  58  30    60  56  32    69  73  58   124 134 119   140 146 132   125 126 116   158 161 148   155 150 139    61  52  39  
  68  67  36    69  68  42    60  59  43    41  42  33    24  27  20    26  30  23    38  42  35    61  64  57    54  57  51    30  31  25    22  23  17    23  25  18    28  29  23    34  32  24    42  37  29    49  42  32    69  63  42    81  74  50    62  51  35    38  24  20    49  33  17    90  66  39   126  97  51   151 121  59   141 120  56    69  54  17    50  32  14    92  63  28   114  83  36   114  81  30   105  69  22   102  65  21   103  66  22    95  59  25    83  50  19    87  53  27    84  56  30    69  48  20    59  45  23    51  40  30    41  31  18    53  44  19    54  48  30    71  72  65   129 136 126   143 148 135   132 137 123   144 150 132   111 105  91    36  24  11  
  70  70  37    80  80  55    59  60  47    31  33  28    24  29  25    34  39  32    44  51  43    55  58  56    38  40  37    23  25  21    21  24  17    17  20  10    27  30  19    45  46  25    67  65  42    67  63  35    96  92  54   125 118  79   123 112  85    70  56  47    59  36  17    82  55  25   111  82  39   143 116  52   165 145  70   111  93  46    55  32  13    85  55  24   139 108  59   176 142  82   150 113  56   119  79  31   117  75  32    93  62  34    75  48  20    83  56  28    82  55  32    72  50  20    78  62  27    72  57  33    57  48  32    66  56  32    63  54  43    75  73  76   135 141 138   154 159 146   150 156 140   132 139 119    71  65  49    46  35  20  
  80  86  54    77  79  55    45  44  34    23  26  25    22  26  27    32  31  25    32  29  18    30  32  24    30  31  25    18  17  15    20  19  14    25  25  12    46  47  26    68  65  36    82  79  41    91  94  47    99 103  60   128 125  93   159 145 119   107  88  63    48  31  22    69  48  28    97  70  32   122  96  23   158 130  33   139 104  34    87  51  18    86  57  28   142 108  54   191 151  89   180 136  81   135  95  47   117  81  44    97  66  33   106  76  46   106  75  46    85  58  25    79  57  22    63  46  17    69  53  34    65  58  29    77  63  34    74  55  42    83  69  71   137 135 130   168 173 158   172 174 158   133 129 113    67  55  41    69  61  27  
  96 102  52    78  77  41    58  55  31    61  62  41    76  80  58    90  88  65    96  91  67    89  89  65    70  68  50    66  63  48    61  58  40    63  59  34    85  81  49   122 116  81   160 156 114   146 144  96   125 121  81   148 140 110   184 171 145   161 145 119    69  51  36    71  53  21    89  66  17   110  83  18   119  90  15   110  75  21   100  64  31    93  61  24   120  82  42   141  99  50   128  90  33   101  69  19    99  73  32   116  97  47   133 116  69   116  97  57    92  70  32    89  67  25    88  66  25    94  70  32    77  66  38    76  59  28    72  51  33    78  63  61   139 138 129   184 188 173   178 181 163   115 111  86    63  54  19    79  75  16  
 131 135  73   120 116  68   110 101  65   127 122  88   158 158 122   158 154 124   145 140 112   133 129 100   119 115  91   106  99  80    74  68  46    75  67  36    93  85  46   118 111  67   146 138  91   128 117  69   173 159 121   176 162 133   203 190 165   193 183 156   112  98  57   104  91  26   110  92  14   114  89  16   105  75  10    90  57   5    95  61  18   100  66  28    88  49  22   105  67  25   104  73  20    96  71  24    99  82  31   107  96  45   139 131  81   153 146  94   155 145  87   142 126  66   121  93  45   103  68  35    71  54  23    76  54  18    75  52  29    82  68  58   137 136 124   177 181 166   164 167 152   108 104  75    83  78  21    95  95   5  
 135 139  72    95  90  32   101  88  43    99  90  56    79  74  49    57  53  37    54  49  35    52  49  33    46  42  30    42  38  26    47  42  21    81  74  43   106  98  55   136 126  77   180 168 116   182 164 114   170 147 108   155 134 107   202 189 165   187 182 153   133 123  63   127 118  38   164 151  60   171 151  71   145 117  53   119  88  33   101  71  21    73  43  13    72  39  17   126  98  53   121  95  45   108  86  42   119 106  42   134 124  64   132 123  74   122 118  70   145 140  88   153 139  84   132 105  53   107  71  28   100  76  39   115  89  49    92  67  38    81  67  53   125 125 112   153 160 144   131 133 123   100  93  71   140 133  69   143 143  43  
 122 128  57   112 107  34   140 126  63   100  86  48    40  34  20    29  26  19    24  24  17    20  19  16    15  14  12    26  25  21    64  63  44   107 104  67   149 144  91   190 180 121   194 178 119   175 152  99   139 112  71   157 134 104   203 189 161   185 180 146   126 114  61   115 103  39   178 165  91   211 194 123   195 170 112   159 130  80   120  93  47    69  45  21    63  38  18   108  85  43   118  97  42   123 103  50   120 102  34   137 122  60   125 113  60    98  91  39    91  86  28    93  85  20    97  80  18   113  87  33   123  96  50   145 117  71   110  85  52    86  72  58   128 129 115   155 158 144   116 115 107    72  62  48   131 122  68   163 159  74  
 111 113  35   142 130  44   153 131  50   106  83  33    61  47  28    45  39  28    34  32  21    27  27  22    27  28  23    53  55  45   103 105  79   127 125  78   150 147  81   171 159  92   156 138  72   142 120  61   147 122  75   183 162 126   208 193 159   184 178 139   121 107  58   133 119  69   183 170 108   210 196 127   216 196 134   170 145  88   132 108  54   113  94  59    55  35  13    80  61  31   121 104  49   126 111  42   124 106  41   148 129  69   154 140  79   140 129  62   133 127  50   135 129  48   114 104  29    90  74  13   103  78  21   108  82  29    92  68  37    78  65  55   121 122 111   151 155 140   112 112  99    67  56  40   108  96  55   156 146  83  
 164 153  81   159 134  51   145 109  28   126  92  34    76  51  21    38  27   5    40  33  16    29  26  16    25  24  15    34  35  21    66  64  37    96  89  42   134 125  61   155 140  70   155 136  67   152 132  65   158 137  83   192 172 130   206 191 150   182 171 126   105  91  44   110  95  50   166 154  96   197 184 117   184 165 106   152 130  71   166 143  79   181 159 106    89  68  33    64  45  29   112  97  57   131 120  49   114 100  37   123 109  40   178 165  94   194 180 117   182 169 102   172 160  85   154 142  65   132 120  46   126 105  38   102  81  22    78  57  28    63  51  47   117 117 112   145 149 134   105 105  87    86  76  55   130 116  80   164 149  95  
 134 111  50   141 104  34   148  99  29   141  94  37    93  58  22    66  45  21    63  48  32    31  23  12    24  17   8    39  32  24    62  54  35    83  68  32   107  89  37   157 138  69   178 160  86   129 112  43   122 106  50   160 145  99   178 164 119   144 132  82    83  66  36    75  59  27   111  98  53   153 140  88   190 172 130   194 171 126   195 169 109   185 158  89   116  93  39    48  25  13    63  46  26   117 109  45   124 116  52   101  92  31   163 152  90   185 169 108   179 161  94   184 167  97   204 188 122   214 199 139   192 174 100   167 148  87   112  92  65    79  69  69   153 154 150   167 170 155   106 106  87    86  77  54   111  96  58   146 131  75  
  73  59  29   124 107  43   154 129  64   117  81  37   105  65  19   120  82  34    85  54  24    50  33  17    79  62  38   103  88  43   118 104  43   146 129  61   172 155  72   193 182  95   184 172 102   134 119  68   136 122  73   144 132  75   140 127  75   119 105  65    89  74  42    71  55  32   108  96  54   185 176 114   210 199 147   215 200 159   209 193 141   175 153  85   125 102  43    60  41  22    47  36  27   101  96  50   142 131  63   121 106  43   187 170 116   202 182 128   176 160  98   168 154  87   203 188 128   212 198 150   214 199 148   210 190 127   144 126  90    86  80  79   156 165 158   171 173 156   105  96  85    74  61  52    64  51  40    64  48  32  
 158 149 114   211 198 150   190 167 117   100  68  29   115  84  22   145 118  33   134 110  42   134 120  58   177 163  98   164 152  80   130 119  38   165 154  64   183 172  81   182 173  89   146 135  69   115 101  54   132 119  68   149 136  73   146 133  65   122 108  47    97  82  53    91  77  46   119 105  61   157 147  82   175 165  94   209 194 134   210 192 137   170 150  79   125 105  39    83  66  32    39  27  12    75  69  30   124 113  51   114  99  37   184 166 110   217 200 144   194 178 116   188 173 106   207 190 131   207 189 140   202 185 131   205 185 116   136 118  75    83  78  75   142 147 144   132 134 117    65  57  42    44  34  24    51  39  26    68  53  33  
 187 182 140   220 210 168   154 137  88    92  68  17   138 116  27   156 136  17   172 153  52   193 181  84   192 178  91   149 135  63   127 115  42   139 127  55   112 100  46    92  79  40    74  61  28    80  65  35    94  79  32   129 114  47   156 143  65   139 123  46    93  79  33    90  73  39   134 116  79   177 162 103   161 148  71   173 157  82   192 174 106   167 149  79   117  99  28   105  91  41    62  52  30    48  40  14    92  81  34   116 104  44   174 163 101   203 189 128   176 162  98   179 164  98   196 178 118   201 179 128   204 184 127   205 186 115   133 117  71   114 108 102   160 165 165   128 129 115    52  45  29    45  37  28    75  66  51   112 102  76  
  83  70  52   126 114  71   118 107  31   112  99   1   146 133   6   165 152  14   166 149  33   165 151  52   164 147  66   140 122  55   121 107  38   122 112  48    96  86  43    76  63  40    70  55  32    81  68  32   115 102  44   146 134  58   158 143  66   149 132  62   115 101  52    87  69  40   113  93  52   160 142  72   155 137  65   175 155  94   205 185 123   193 174 113   142 126  59    84  73  16    52  40  15    46  31  21    77  65  34   121 111  52   162 153  88   167 158  93   145 136  68   159 146  79   175 157  95   181 159 101   197 176 112   184 164 100   118 102  66   148 143 139   191 194 195   138 137 127    49  44  32    53  48  37    93  88  69   127 122  93  
  68  52   4   121 111  21   159 152  35   162 155  24   146 135  12   128 109  16   132 110  36   138 118  60   144 120  77   157 135  86   152 135  71   128 117  54   131 123  67   140 131  75   122 113  54   120 111  45   141 132  56   141 129  53   160 145  79   153 136  82   132 122  60    97  79  49    94  72  40    97  74  24    94  71  20   120  97  46   142 120  64   175 156 104   191 178 119   142 132  73    79  65  36    47  30  25    56  43  26    93  86  33   137 132  66   147 143  72   155 149  79   193 184 115   213 200 132   210 191 125   191 171 101   161 143  91   116 104  81   171 168 166   199 200 198   111 109 105    34  26  24    59  55  44    70  66  47    83  79  51  
 159 150  19   162 157  20   151 146  36   152 145  53   123 110  44    60  37   3   108  85  46   163 141 106   143 118  92   134 110  70   157 136  81   144 128  72   132 121  64   143 132  64   138 125  55   121 107  42   106  94  33   123 110  55   165 151 101   126 114  66   106  95  59   103  87  52   112  91  50   118  93  46   122  94  47    90  65  25    65  40   4    91  72  27   140 128  76   162 153  98   125 110  75    62  45  32    51  40  20    93  88  37   140 138  72   133 135  62   135 137  62   170 166  93   187 179 105   177 165  86   132 117  41   106  94  47   103  96  79   161 162 156   178 179 172    84  81  77    32  25  24    62  58  48    70  65  48    60  56  32  
 157 150   9   120 113   6    83  75  21    89  82  47    99  93  61    99  88  56   148 138  86   175 163 105   157 139  85   128 105  52   128 106  48   138 119  60   131 117  58   143 123  67   136 114  61    99  78  32    79  63  22   124 111  75   142 132  94   123 114  76   131 122  90   130 115  79   125 105  63   116  90  47   127  99  59   116  91  49   122 101  53   128 111  63   115 106  55   122 113  58   130 116  70    99  84  51    61  53  21    98  93  43   136 136  71   118 122  46   101 107  30   115 118  42   128 127  46   134 130  40   102  92  10    83  79  28   103 105  82   148 153 140   154 157 146    94  90  79    60  52  44    63  56  45    70  64  49    54  49  30  
 127 119  11    97  88  26    47  41  20    29  29  14    50  53  27   124 124  87   147 143 100   167 157 107   169 154 100   115  92  47   101  73  33   121  99  50   116  97  49   126 102  51   125 100  46   141 120  68   119 102  56   110  99  60    97  90  57   141 136 106   182 173 152   133 119  90   133 114  64   118  94  37    98  70  32    92  68  26   131 111  55   149 133  80   134 125  74   146 137  83   161 148  93   148 135  85    96  91  46   107 104  53   134 134  71   121 128  51    99 108  29    88  95  16    83  86   2   103 103   6   108 103  19    94  95  35   113 122  88   145 153 134   144 146 133   125 122 104    90  84  65    58  52  40    74  68  56    60  54  40  
  73  72  16    61  61  16    35  34  10    21  20  12    32  32  21   100 100  70   128 126  88   155 142 108   159 148  97   104  88  36   110  92  38   140 119  59   132 109  52   127 101  52   111  84  38   139 111  60   144 121  64   106  87  46    83  71  45   153 148 124   183 189 161   118 112  87   123 103  68   139 110  66    92  58  20    82  50  14   100  74  27   115  98  39   126 114  53   136 128  63   144 141  74   137 138  72   106 110  45    77  82  42   114 124  59   130 141  50   119 125  48   119 122  43   122 126  32   100 103  12    92  98   6    87 102  28   103 120  68   130 143 101   129 133 100   140 138 114   126 120 104    71  59  48    65  60  45    58  59  39  
  35  32  13    33  30  15    22  18  13    18  13  14    48  41  32   108 101  71   114 106  63   132 120  78   130 118  73    97  84  37   119 103  52   112  94  41   126 104  57   147 126  76   122 100  51   121  98  45   119 100  43   101  85  42    73  63  37   150 145 121   187 190 172   112 107  86    99  85  51   139 117  67   126 100  45    80  50  10    82  53  23    89  70  26    92  79  29   117 112  52   121 121  57   124 126  61   109 111  49    74  75  26    90  96  27   131 137  50   149 151  72   141 141  60   134 133  45   114 109  26    84  83  10    83  92  29    91 106  55    95 108  63   106 111  71   152 153 122   161 160 136   101  94  76    63  59  42    55  54  36  
  52  48  47    40  36  32    25  18  17    19   8   7    59  45  33   110  95  61   109  94  47   134 121  77   127 113  80    92  76  41   107  93  47   102  87  40   103  86  42   122 107  56   116 100  51   116 100  50    98  84  29   100  89  45    80  73  46   115 113  90   170 171 155    92  90  72    66  59  34   116 106  56   137 124  50   100  78  25    68  40  12    73  53  13    86  77  23   108 110  42   114 120  46   120 125  53   117 118  52    79  76  31    69  66  20    98  92  36   123 117  56   115 106  44    96  86  25    86  74  18    72  61  11    81  82  34    96 107  59    87  99  51    83  91  44   137 144 103   176 182 148   155 155 130    82  82  62    62  60  47  
  61  54  36    64  57  37    70  63  42    69  59  37    88  74  46   113  99  53   107  93  35   108  95  48    92  76  52   103  88  58   119 106  61   102  92  43   100  90  41    98  90  40    97  88  48   113 102  63   107 100  53   109 104  62    91  89  61   111 111  87   152 155 129    88  89  70    64  65  41    91  92  42   117 114  37   124 110  42    97  78  27   104  91  32   117 115  40   122 131  44   126 139  49   126 134  51   126 125  54    76  71  33    36  28   9    41  33  10    75  67  27    90  80  36    78  66  28    70  56  21    77  58  25   104  98  59   133 140  93   113 121  72    64  71  26    90 102  62   152 163 128   176 183 153   129 131 109    63  60  47  
 126 115  85   111 101  68   115 108  73   127 120  84   134 127  82   151 142  82   152 145  70   138 127  62   112  97  59   151 137  98   159 149  97   105  95  46    98  90  43    97  91  46    91  85  52    95  88  59   103  99  59   101 101  62    93  95  66   133 137 112   142 144 118    85  89  67    76  83  50    83  92  35    94  97  29   119 114  43   136 126  54   148 139  64   144 144  60   140 148  58   135 145  58   114 118  44    99  96  34    63  60  26    30  24  14    42  35  23    69  64  30    72  67  25    65  58  22    58  50  15    75  52  25   120 111  74   152 154 111   110 115  73    46  50  16    59  65  37   115 125  98   167 175 145   171 175 151   103 102  84  
  76  64  46    62  52  31    61  54  30    66  61  31    75  71  25   128 126  55   164 162  73   150 142  55   120 110  43   130 119  63   130 120  62   101  91  38    92  82  33    85  80  27    74  69  29    72  67  37    84  83  43    87  91  51   104 111  81   155 163 139   159 162 147    82  87  67    71  82  40    82  93  34    76  82  24    97  97  34   121 117  45   145 140  67   125 123  49    95  96  26    95  95  32    84  80  31    84  78  39    63  58  35    31  26  21    33  25  20    63  58  35    73  67  37    62  54  30    53  45  20    74  55  29   122 113  79   140 140 102    85  84  54    45  42  22    49  50  32    67  72  53   121 126 103   162 167 142   159 163 138  
  29  22  14    16  12   4    18  14   4    32  28  10    66  61  23   148 145  74   177 174  86   150 143  53   115 107  23   100  90  17    99  89  16   123 114  40   146 136  67   136 132  54   107 104  40   101  99  53   110 113  64    98 105  60   109 117  88   170 179 159   190 195 189   100 106  88    60  67  34    69  76  35    63  69  25    75  79  27    86  88  27   119 116  53   105  99  43    72  62  15    73  61  23    58  47  17    60  52  25    60  52  29    53  43  31    41  31  19    61  50  29    69  57  37    61  47  33    65  52  37    86  70  49   128 121  91   129 127  96    68  63  43    47  38  29    41  38  25    30  31  16    53  55  40   110 115  90   158 165 131  
  18  22   9    13  15   5    15  15   9    27  24  14    61  55  23   130 122  58   130 123  42   120 111  33   143 136  49   148 140  57   144 134  50   158 149  54   161 153  57   156 152  50   128 127  43   113 113  53   112 118  60    95 105  55    91 101  72   169 180 163   189 195 190   118 124 108    46  49  34    44  45  30    58  62  28    62  68  20    84  91  35    95  93  34    86  77  29    84  68  33    86  66  39    65  51  26    63  55  29    71  63  25    79  70  29    71  59  21    72  58  25    65  49  21    62  46  24    60  43  23    79  64  47   122 117  92   117 115  91    58  50  38    38  25  19    36  28  14    32  29  14    32  30  22    70  75  49   135 148 106  
  20  21  16    14  14   4    18  16   6    32  27  11    49  44   6    88  82  32    66  58  17    68  64  18   146 147  58   185 187  81   171 167  79   152 146  67   154 149  57   169 168  71   150 151  57    94 100  16   100 106  48    88  95  56    97 102  71   168 172 145   178 179 166   100  94  87    52  44  38    52  48  35    57  60  34    67  67  28    85  83  35    93  90  35    87  76  33   105  89  53   101  86  45    84  74  29    84  79  35    80  69  33    87  74  33    87  75  38    60  48  26    52  40  19    55  44  23    51  41  31    67  62  42    97  90  73    85  77  63    48  40  27    30  27  12    31  29  14    26  25  14    28  24  19    43  44  26   108 110  80  
  18  20   7    14  14   4    24  22  12    37  32  15    42  36  12    46  36  11    46  37  12    55  49  18   128 125  59   169 169  82   145 143  61   147 144  64   177 173  85   184 180  88   151 150  66   101 102  36   101 105  55    83  87  51    92  94  70   164 165 149   161 162 142    83  78  63    55  48  36    63  63  44    70  75  46    72  74  34    90  88  41    93  91  32   103 100  37   123 118  54   112 106  47    82  74  24    82  75  30    93  82  38    93  83  34    73  61  20    47  35  11    41  30   8    59  50  27    64  55  39    73  71  50   109 105  87    79  72  57    41  33  21    37  31  19    32  29  14    30  27  15    28  24  16    41  42  23    90  93  67  
  13  14   2    14  12   8    25  21  11    31  26   7    36  29  15    37  28  19    37  28  13    59  52  22   108 105  50   143 141  68   128 126  52   142 140  65   160 158  82   148 144  67   129 124  55    99  97  39    79  76  36    63  62  38    75  73  59   154 152 137   156 158 130   100  95  74    60  53  36    53  52  33    64  69  42    81  85  51    86  84  45    98  95  45   108 109  39   112 114  36   105 104  38    78  71  22    71  60  22    86  75  26    88  78  25    76  64  23    51  39  15    50  40  19    62  55  32    68  62  42   103 106  85   129 128 111    85  80  68    48  40  31    44  35  26    27  21   9    31  25  12    45  42  28    71  71  54    90  91  71  
  11  10   6    19  16   9    36  32  15    37  30  10    36  28  16    37  29  18    31  25   6    60  53  27   114 111  65   122 120  64    94  91  39    96  92  43    93  90  37   101  95  35   119 111  51   108 102  45    61  56  17    39  32  20    67  62  53   139 138 112   149 149 119    88  83  60    52  45  28    44  43  26    40  45  23    65  69  44    69  66  41    69  61  33    82  80  31    86  90  27    87  88  29    77  70  25    77  62  31    92  80  32    96  86  34    81  72  35    55  46  23    55  47  29    63  58  38    80  78  57   126 134 112   131 134 118    76  74  63    40  33  25    47  38  29    40  32  21    47  41  26    61  58  38    69  68  49    69  70  54  
  27  22  16    78  73  47    73  68  36    39  30  10    41  34  18    32  27   8    33  26  11    70  60  48   128 122  89   121 116  74    69  63  29    61  55  22    69  65  19   100  92  36   113 103  49   116 109  57   110 103  63    62  54  37    67  60  48   125 125  93   128 126 101    53  46  26    38  29  15    44  43  29    36  39  22    47  47  29    65  57  39    58  45  27    60  52  26    74  70  29    84  83  29    84  75  23    79  62  22    86  72  24    87  76  30    70  59  28    57  50  26    42  37  22    50  47  35    81  80  62   123 133 109   128 134 116    67  66  55    32  26  18    48  39  30    51  43  30    52  46  27    53  49  28    57  55  35    55  56  39  
  87  82  52   162 157 112   111 103  63    49  36  15    45  33  18    30  23   6    42  35  23    87  80  63   131 126  87   120 117  67    77  71  22    85  80  21   114 110  34   114 110  37    82  73  28    89  78  47   136 129  92   110 104  75    73  70  50   126 126  99   127 124 103    67  59  41    62  51  38    65  60  46    50  48  33    54  48  32    59  48  28    61  44  19    71  55  29    78  65  27    81  72  17    98  87  26   106  92  35    91  78  28    74  62  21    73  64  31    71  65  35    40  37  17    29  29  16    57  60  41   111 124  98   116 122 103    58  58  46    31  28  19    37  31  19    42  36  20    58  53  33    76  73  50    88  87  65    81  83  62  
 184 178 131   148 138  98    70  53  25    51  34  13    54  41  22    41  32  15    53  47  30    94  89  60   119 115  71   110 106  50    94  89  22   108 103  22   131 126  29   102  99  22    60  52  15    57  45  30    87  80  48   101  96  64    79  75  56   128 127 106   143 141 118    79  71  50    57  46  28    49  41  22    37  30   9    63  52  30    78  61  36    83  61  28    88  66  27    94  72  24    96  77  20   106  90  30   109  97  34   102  90  38    94  82  41    87  80  40    76  74  31    55  57  25    36  39  19    66  71  48   114 124  98    94 100  80    40  41  29    28  25  14    31  27  13    51  49  27    67  65  41    65  62  40    63  62  37    65  65  39  
 152 144  93    73  57  36    47  27  14    54  36  11    51  37  10    46  38  15    73  68  44   102  98  69    95  89  58   101  94  51   118 109  50   102  92  18   105  94  14    76  73   6    51  45  16    53  42  28    57  48  19    56  50  26    65  61  48   117 119  98   135 133 106    75  68  44    62  50  26    57  48  21    62  55  26    81  67  38    94  74  45    94  68  36   102  75  30   127 100  46   120  93  41    91  70  20    87  73  18    90  80  27   107  95  52    79  73  26    70  70  16    75  78  37    68  74  46    99 108  79   126 137 108    92  99  77    42  43  29    35  34  22    48  46  29    74  74  50    68  66  41    54  51  31    55  54  28    51  52  22  
  55  42  32    38  24   8    52  37   9    63  46  18    58  39  24    63  47  29    88  75  46    87  81  50    52  51  25    56  53  17    85  75  20    82  72   9    69  63  10    54  47   5    55  47   8    59  55  21    64  63  40    58  59  42    56  57  41    94  95  79   133 134  98    79  73  43    58  44  25    70  50  30    97  78  46   108  91  48    93  77  39    88  65  34   116  77  31   158 114  45   145 109  41    87  64  16    74  64  21    83  82  28    80  78  33    58  52  27    58  56  28    69  75  37    73  89  48   106 130  95   121 133 108    74  83  58    49  55  32    38  43  20    40  43  19    59  59  35    59  58  32    61  57  27    62  58  32    53  51  29  
  40  22  10    54  37  20    68  53  26    76  61  28    78  64  32    87  75  39    89  79  43    62  53  39    30  25  22    35  30  12    52  42   3    61  48   6    62  54   9    79  77  20    89  88  27    82  79  30    68  65  32    60  60  32    60  62  32    79  82  55   101  97  72    76  68  48    47  34  20    51  36  16    73  62  28    62  53  23    58  49  26    90  69  33   135  99  46   154 114  46   134 106  41    95  82  27    74  70  16    79  78  27    75  73  29    60  53  18    71  66  33    80  81  48    75  84  53   110 125  99   128 136 113    86  94  71    74  78  56    53  56  35    36  38  16    39  38  17    35  34  13    39  38  17    43  41  20    41  38  19  
  61  38  14    75  55  29    66  51  24    60  49  16    79  74  28    98  94  46    76  73  31    46  40  16    30  29  14    30  30   7    46  42   4    57  50   6    55  49   3    65  67   6    88  92  16    92  92  20    91  88  29    94  93  38    93  95  49    98 101  73    90  80  71    56  48  31    56  49  27    53  48  20    51  49  19    41  40  21    40  35  23    85  68  30   153 121  59   167 135  60   138 123  51   116 117  45   100 103  30    88  88  26    90  88  31    94  89  35    92  86  40    76  72  36    80  81  52   128 132 107   131 133 109    74  76  52    79  81  56    76  79  52    55  58  31    47  50  23    43  44  20    37  33  12    39  29   6    45  30   5  
  91  63  24    94  72  36    68  54  27    61  54  24   106 107  60   117 121  72    65  66  35    38  39  15    39  44  12    48  53  21    52  57  14    62  67   9    63  64  12    64  71   8    84  91  12    86  90   7    94  91  17   104 102  29   108 109  48   126 127  93   112 109  75    77  75  42   106 110  60    94 100  39    80  85  38    82  84  56    81  76  49   130 110  61   178 146  71   188 158  78   150 142  65   118 123  40   107 110  24   100  99  15   101  99  21   105 100  34    92  83  28    85  78  31   124 120  80   163 159 124   124 122  92    55  54  24    60  60  29    65  66  34    61  62  30    65  66  34    68  68  38    70  56  32    68  45  16    84  55  21  
 104  75  42    86  66  34    52  43  18    60  61  31   126 134  87   134 142  96    89  96  62    74  83  45    81  91  33    77  89  16    90 103  24    89 102  21    88  99  23    83  95  18    83  94  16    83  86  18    88  84  22    91  87  19   105 101  35   132 129  75   125 130  65    96 100  53   133 142  76   139 152  66   110 114  53    92  89  43   109 103  39   170 149  64   185 155  67   155 127  57   115 104  43    94  93  20   104 100  17   106 105   8    96  94   9    80  73  17    73  62  17   106  97  51   164 155 112   163 155 118    74  68  46    46  40  18    57  52  30    50  47  24    52  50  25    53  51  26    51  47  23    76  59  38    95  68  41   112  78  46  
  70  44  25    54  39  16    56  54  27    94 103  66   132 146  96   118 131  77   112 124  66   114 131  54   117 125  35   129 135  15   128 137  23   102 113  26    85 100  10    78  93   4    64  75   4    76  78  23    82  80  24    80  74  12    94  85  23   112 101  42   105 102  53    88  88  47   112 117  60   105 110  54    49  44  18    65  55  15   142 133  40   189 171  58   156 133  47    99  77  25    76  61  25    64  54   3    91  80  12    97  95   6    81  79   5    54  45   6    71  59  33   130 119  88   158 148 113   112 101  71    40  30  21    36  27  18    48  39  30    39  30  21    39  31  20    39  33  21    35  29  17    45  36  21    52  36  17    63  39  16  
  50  29  14    54  45  22    89  96  57   131 148  99   134 152 102   109 122  67   102 114  48   102 111  37   115 106  23   146 131  15   139 130  20    88  85  10    82  89   1    94 106   5    63  73   1    60  66  17    63  66  11    66  61   6    77  62  13   102  79  26   100  82  40    69  57  21    58  53  17    50  46  22    49  40  24   117 108  54   178 168  68   161 142  47    90  77  16    75  64  30    85  71  44    66  53  13    85  74  17    88  84  11    69  65   2    57  49  14   104  97  71   153 146 119   146 139 110    84  77  48    49  39  30    55  45  36    65  55  46    62  52  42    55  45  35    51  41  31    49  40  29    46  38  26    49  35  20    59  42  24  
  56  42  18    80  79  44   114 128  73   127 149  90   121 139  93   100 111  64    60  68  12    76  75  18   125 103  30   149 118  12   124 102   1   109 100   4   133 139  11   128 142   8    79  89   5    53  59  18    56  59  17    73  67  26    83  64  22   127 100  39   140 115  36    89  68  20    54  40  15    57  50  18   100  98  37   157 155  62   155 146  50   102  82  26    57  50  17    76  75  47    84  78  41    76  64  19    75  68  11    80  77  11    71  69   9    92  88  41   145 141 104   157 152 121   143 138 107   111 107  70    86  79  60   102  94  73   101  93  72    96  86  65    94  83  63   100  87  68   100  87  69    92  77  61    99  82  65   128 110  90  
