P3
50 50
255
  91  82  15    90  80  21   111  93  27   132 110  35   160 140  47   148 129  34   123 106  23    93  83  21    80  77  24    88  85  26   103  94  27   115  95  32   124 102  43   117  97  38   115  98  44   123 109  59   125 117  55   134 131  49   157 157  67   169 168  85   172 169 100   168 165 112   155 152 107   149 149  95   155 156  96   144 144  84   144 142  81   140 139  72   136 134  77   135 134  70   144 142  64   153 154  60   163 162  50   170 170  44   169 167  31   158 157  14   163 160   8   162 156  11   158 150  18   147 138  18   138 131  20   147 140  33   148 144  33   135 131  16   118 119   9   129 135  12   135 143  22    90  94   1    91  91   8   101  99  11  
  84  72   9    97  85  17   119 101  22   141 117  26   162 138  28   163 140  30   138 117  24    99  83  17    83  75  23    94  88  31   109  98  33   118  98  34   134 113  47   131 112  44   121 102  40   118 103  46   126 116  47   139 135  45   161 161  63   176 175  85   171 168 101   160 156 104   149 145 101   142 140  90   141 142  84   133 133  75   143 141  81   146 145  78   140 138  78   132 131  62   144 142  59   157 156  59   158 156  44   166 163  41   172 168  40   162 157  26   155 146  12   150 142   9   152 143  14   154 146  21   151 145  22   154 148  27   157 152  31   152 147  26   129 129   8   133 137  10   126 131   8   103 106   3    91  93   2    99  98   4  
  89  74  16   101  86  14   125 103  17   150 125  14   171 141  11   177 147  20   150 123  17   107  85  12    91  78  21   101  91  32   117 105  38   134 115  48   132 112  40   139 120  46   130 111  42   127 109  45   138 126  50   152 146  50   167 166  64   177 175  81   166 162  93   147 141  90   140 135  93   137 135  86   132 132  75   127 126  70   144 142  83   149 147  80   138 137  71   135 132  57   143 140  50   154 148  45   154 147  33   158 149  31   168 157  40   172 161  46   154 141  27   143 131  17   138 128  14   141 132  14   146 138  14   154 148  18   159 153  23   158 151  21   147 146  11   140 138  15   109 107   1   115 113  12   100  97   8    93  91   4  
  97  82  23   102  84  18   128 104  22   155 128   5   171 137   1   183 148  11   162 128  12   124  95  12   109  90  24   114 101  33   128 113  40   143 123  52   134 114  42   144 123  47   140 118  47   138 116  49   143 127  48   155 146  48   166 162  58   166 162  66   152 149  74   127 122  66   128 123  78   133 131  82   130 130  75   129 128  74   143 141  83   143 140  75   138 135  67   135 132  51   139 134  37   151 142  29   155 144  24   154 141  22   161 144  34   171 153  50   154 140  37   134 121  24   120 108  17   125 114  19   140 131  21   156 148  24   161 152  21   158 149  15   144 139   3   132 126   5   117 110   6   111 104   7    95  89   3    92  88   1  
  93  82  17   102  87  22   127 104  26   143 118   1   167 130   1   184 146  11   169 134  12   134 104   9   122 101  21   131 117  35   138 122  36   140 119  37   140 119  43   147 126  45   147 124  47   148 124  51   150 130  44   157 144  40   163 156  50   159 154  55   145 143  59   111 107  44   108 105  54   113 111  60   119 118  64   129 126  75   145 142  87   146 142  79   149 146  77   131 126  44   131 124  19   148 136  15   159 145  16   169 152  28   178 156  46   178 156  55   157 146  42   127 116  26   107  95  18   113 104  25   131 125  28   143 136  21   149 139  15   153 143  16   137 132   4   132 124   1   145 137  13   138 133   7   130 126   4   116 114   1  
  99  92  14   103  95  14   121 104  15   133 111   1   159 120   1   171 132   6   163 124   4   138 107   3   132 109  14   138 124  26   139 123  27   132 113  21   127 107  19   139 118  26   142 117  28   147 122  35   152 132  34   151 137  22   152 145  25   154 150  39   135 135  38    97  94  20    86  84  26    85  84  28    98  97  41   120 117  66   142 139  86   148 144  83   150 147  80   129 124  40   124 116   7   143 129   1   163 145   9   178 157  29   186 163  49   186 161  59   155 148  38   131 125  30   111 105  23   112 107  23   122 118  18   127 121   7   131 122   6   140 127  13   121 114   1   125 120   1   139 133   2   142 137   1   144 139   1   135 130   1  
 117 111  23   114 107  13   121 107   9   133 113  14   147 110   5   152 114   3   151 116   2   141 110   2   138 114  10   139 123  16   130 114  11   124 105   7   126 109   7   134 115  15   134 110  14   141 116  23   149 128  23   148 134  13   149 141  14   160 155  34   130 130  28    89  86   9    82  79  22    86  86  31   102 102  46   126 124  72   144 138  86   152 146  88   139 134  64   127 121  34   126 115   6   141 127   1   163 145   4   174 151  16   174 150  28   176 152  42   160 155  46   150 146  47   138 134  44   127 126  29   123 122  10   122 119   3   120 109   5   113  97   4   113 105   5   145 138  19   163 155  19   151 141   3   146 136   1   149 142   6  
 134 127  23   133 124  23   126 113  17   117 102  11   134 104   9   134 105   5   136 107   4   130 102   1   132 107   1   132 111   6   122 104   1   121 105   2   125 113   1   125 110   4   124 105   9   131 108  17   134 115  14   143 130  15   149 141  19   155 151  28   131 124  26    88  81  10    85  80  31    99 100  50   115 117  61   135 134  81   144 138  87   153 142  89   136 130  48   118 110  21   124 113   8   142 128   2   159 143   2   170 150   8   173 151  22   181 157  40   162 160  55   156 153  53   150 148  49   141 140  31   132 131  12   130 126  12   119 108  15    97  81   7   108  98  11   151 141  28   165 155  16   165 152   3   161 149   3   147 139   1  
 136 131  14   141 133  25   133 122  26   120 106  17   113  94   1   116  99   1   118 100   1   120 100   1   118  98   1   118  99   1   123 108   2   124 111   1   123 111   3   123 112   1   122 112   2   114 100   3   119 107  10   123 115   6   129 124  11   124 122  13   126 112  23   112 100  29   107 100  40   118 118  57   130 131  72   139 137  86   145 139  89   138 129  74   129 118  45   116 104  21   118 107   5   135 123   1   155 140   4   161 146   9   165 146  21   176 155  41   168 165  57   156 153  43   150 149  36   151 151  34   142 141  21   124 118   6   112 102   3   111  97   8   105  97   7   119 109  11   138 128   9   145 136   1   150 144   1   140 136   4  
 129 121   9   133 124  20   129 119  23   122 111  22   108  98   4   114 104   4   121 108   4   122 104   4   115  95   1   121  99   1   133 114   1   135 117   1   138 122   8   135 124   1   128 118   1   108  97   6   106  94  16   111 102  11   124 115  17   128 117  24   138 115  35   131 113  41   128 118  50   135 131  61   140 139  76   140 137  86   132 124  75   122 113  55   105  90  27   105  91  15   110  97   2   122 110   1   142 131   6   150 139  14   146 132  16   147 132  23   148 141  32   151 147  29   158 154  29   161 160  34   151 146  27   126 119   7   117 107   1   125 113   5   113 108   7    99  92   1   110 101   6   121 116   1   130 127   3   118 116  12  
 126 110  21   127 111  23   117 103  12   115 104  12   113 105   6   116 106   4   127 113   9   121  99   1   119  93   1   138 109   4   144 116   1   146 121   1   138 116   1   146 129   1   129 116   4   102  85  15    85  68  13   105  87  15   127 106  19   139 114  28   152 126  41   141 119  44   136 122  51   147 140  69   148 144  80   129 123  71   111 101  50   100  90  29    84  68   9    89  74   8    94  82   1   109  99   5   131 119  19   133 122  20   126 113  12   119 106   5   133 120  16   153 143  27   160 155  28   154 151  23   153 147  27   149 141  24   141 133  10   138 130   1   115 112   1    97  90   1    91  84   1    98  93   1    94  90   1    76  73   5  
 115  91  16   116  94  13   113  95   7   120 106  10   110 103   3   110  98   1   119 101   6   116  93   1   127  98   1   148 116   4   148 114   2   148 115   4   142 118   7   128 109   3   102  87   5    89  74  20    85  69  19   110  90  20   137 109  22   159 125  33   164 138  41   147 124  44   128 111  43   138 127  60   135 127  62   114 104  46   108  94  39    99  83  23    89  75  18    86  73  11    86  76   9   103  94  25   115 103  34   113  99  27   115  99  19   117 102  13   132 114  18   145 130  26   151 140  25   151 142  21   152 145  23   155 147  21   157 149  14   161 154  11   131 128   1   103  97   1    85  78   1    88  86   4    83  83   3    72  72   2  
 110  81   4   112  88   4   115  94   4   113  98   3    99  95   1    98  89   1   101  85   2   114  93   1   134 109   2   142 114   2   134 103   1   129  95   4   116  94   8    93  76   3    77  65   9    75  68  17    92  83  22   116 100  18   150 123  26   176 142  38   167 144  34   144 119  36   123 103  42   116 101  40   111 101  35   112  99  37   117 100  41   118  97  35   100  89  31    92  82  24    84  74  18    89  78  30    88  74  30    89  73  23   108  90  24   116  99  19   124 102  14   129 110  16   133 118  16   138 127  14   148 140  16   158 151  17   160 153   8   156 150   4   140 135   1   107  99   1    87  80   3    88  88   4    89  93   1    91  95   1  
 109  77   1   110  83   3   106  88   3   106  91   6    92  90   4    91  85   1    98  86   1   111  94   1   132 115   2   126 108   1   113  93   3    99  78   7    83  67  10    77  68  11    80  75  18    89  84  21   106  93  18   127 105  19   157 129  31   179 147  43   159 135  32   133 114  30   118 105  39   111 102  44   111 101  42   125 110  50   131 116  54   123 107  42   104  94  30    99  88  28    93  82  27    83  71  22    78  65  18    90  73  21   104  86  22   107  89  17   106  88  12   119 101  14   113  97   8   116 101   8   138 128   8   153 145   5   153 144   6   144 135   2   127 121   5   109 100   1   104  96   2   107 102   2   110 108   1   107 105   1  
 107  75   1   107  82   2    99  82   2    97  85   3    87  82   3    91  85   1   104  93   1   114 103   1   125 111   6   111  98   4    91  79   2    77  66   2    71  64  12    77  73  18    88  87  23    98  92  20   111  94  14   131 106  15   153 124  25   161 136  29   154 133  43   128 114  38   119 113  52   126 120  70   130 120  67   140 128  68   148 135  68   142 130  60   115 105  34   109  98  32   108  98  38    97  86  31    87  76  20    97  85  24   107  93  25   109  94  21   101  85   8   106  91   9    99  84   2    96  79   5   100  84   5   111  99   1   124 114   1   122 112   1   121 114   8   117 109   3   121 113   1   130 121   2   128 121   1   124 118   2  
 108  82   8   106  87  15    93  80   8    92  82  12    83  74  11    95  88   8   107 102   3   118 110  10   110 100  14    94  84  14    78  71   8    76  72   8    70  74  19    76  80  21    85  86  20    94  86  13   111  93  12   136 113  21   151 132  30   154 139  29   138 122  49   131 122  61   137 134  86   148 145 103   148 140  91   145 133  73   144 132  59   138 127  48   132 120  48   107  97  27    95  87  22    92  84  22    95  88  25   105  98  33   105  97  26    98  90  18    99  84   2   103  89   1   105  94   1    94  83   1    77  62   1    84  69   3   104  94   1   105  96   1   111 102   1   124 114   1   136 126   3   150 139  12   139 128   1   144 134   6  
  92  72  12    89  72  14    70  58   3    75  64  11    85  75  26    90  83  18    91  85   3    99  94   8    91  86  10    84  81  16    70  72   8    73  76  11    77  87  25    75  84  21    82  85  18    95  87  19   108  88  18   117  96  19   121 106  22   119 112  23   127 118  57   131 129  76   138 140  95   139 138  94   136 129  76   134 123  57   134 123  43   133 123  37   115 102  34   101  91  23    94  86  21    94  89  25   102  98  36   103  99  36    97  92  27   100  95  29   101  86  21   104  93   7   108 100   1   109 101   1    97  86   7    81  67   1    83  71   1    99  88   5   108  95   1   128 117   1   144 133   2   159 145  14   140 125   1   151 136   1  
  78  62  17    76  62  20    68  54  15    70  57  19    77  68  25    81  73  23    80  75  14    88  85  16    89  89  14    90  92  19    79  85  16    78  85  19    72  79  18    70  76  14    81  82  18    95  87  23    97  80  19    94  76  13    97  86  20   102 100  31   120 117  57   123 124  69   123 127  74   127 130  71   133 129  60   129 119  41   120 110  25   119 111  23   104  90  25    98  87  22    94  87  21   102  97  33   118 114  51   113 109  48    98  93  34   104  98  40   110  97  40   113 104  23   108 100   7   107  99   2   109  99   6    90  76   1    81  66   1   108  96   6   119 105   1   138 123   4   151 135   6   163 145  15   143 126   1   153 136   3  
  72  62  23    74  61  23    72  58  22    76  60  25    82  75  29    94  87  38    99  95  42    95  94  32    93  95  23    87  91  18    82  85  19    77  82  21    65  62   8    73  72  15    87  87  27    97  92  29    95  84  21    93  82  19    99  95  29   105 108  42   122 119  54   120 122  56   114 121  49   122 126  47   136 133  45   126 116  24   105  95   6    99  91   7   102  90  21    92  83  11    90  84  11    98  94  22   110 106  35   107 102  38    99  92  31   105  95  40   125 117  44   135 127  45   129 119  29   107  98   1   104  92   1   103  86   4   102  86   1   122 108   1   134 117   4   145 125  10   152 132  12   164 144  18   156 137   9   159 141  13  
  75  68  27    74  64  24    69  56  15    85  67  28    89  84  29    95  90  36    98  95  37    84  84  21    86  89  21    78  80  14    73  74  13    62  64   6    73  61  15    84  77  25    91  89  30    86  85  20    85  80  10    98  90  19   107 105  31   107 111  35   118 115  42   123 126  49   118 124  38   120 126  27   136 135  30   129 121  21   107  98   7    98  91   9    99  91  11    89  82   2    96  91  10   101  97  15    97  91  14    95  88  16    97  88  23   103  92  31   114 106  34   121 112  44   130 120  34   113 103   8    99  82   8   104  82  13   118  97   8   138 119   7   148 129   9   149 128  16   151 129  17   165 145  23   167 149  25   160 144  22  
  69  65  30    66  57  24    66  54  14    89  75  28    97  88  34    98  91  38    85  79  28    68  65  16    68  68  18    70  73  19    59  67  10    50  58   1    64  62  13    75  73  23    79  76  22    83  81  21    88  87  21    96  93  21   112 110  32   118 116  36   114 118  38   120 127  32   122 131  22   118 128   8   123 133   1   128 135   1   116 116   1   105  97   1   105  99   4   106  99   7   105  98   7   109 102  14   112 105  23   107  99  21   106  98  26   109 100  31   107  97  25   107  98  25   111 101  30   108  96  28    98  80  14   101  82   5   124 104   9   141 119   9   163 143  30   165 145  32   161 141  26   163 144  26   169 153  32   167 154  30  
  55  48  17    66  54  24    73  58  20    85  70  24    99  91  27    99  90  28    87  80  22    75  72  15    72  71  15    68  70  13    65  69  11    66  71  12    76  74  13    90  88  26    88  87  20    91  88  18   100  98  21   101 100  18   111 110  24   124 122  35   122 121  40   116 118  25   122 126  17   123 132   4   125 133   1   128 134   1   120 120   4   106 102   3   108 103   1   118 113   9   114 109   9   117 110  17   112 106  20   107 100  20   112 105  31   104  95  25   101  93  16   103  96  19   106  98  24    99  89  20    88  74   7    95  78   3   120 102  11   140 122  18   166 147  36   165 146  35   161 141  28   170 150  33   173 157  36   161 146  21  
  57  47  17    68  53  22    75  60  21    84  66  22    85  74  15    88  76  19    84  74  18    79  72  16    76  71  15    69  68  10    70  71  12    80  81  22    87  81  18    94  88  24    93  88  21    96  91  19   101  96  20   102  98  17   109 106  21   119 116  29   119 111  23   107 100  10   108 107   3   118 123   1   123 130   4   116 120   3   107 109   1   113 113   9   122 120   7   122 119  10   124 120  18   125 119  26   125 118  33   122 114  35   113 104  29   109 101  27   103  97  16   101  96  14   111 107  29   116 108  37    98  89  22    94  82  10   117 104  17   136 123  24   156 139  33   161 143  36   163 142  31   174 152  38   178 158  38   159 143  18  
  72  59  23    74  59  19    74  57  14    72  54   8    77  60  11    80  64  13    77  65  10    78  68   9    83  76  14    82  79  11    80  79   9    86  84  13    94  86  22    94  85  20    97  89  19    99  92  18   102  95  17   106 100  17   110 104  18   114 109  20   114 102   4   111 100  10   105  99   8   102 100   2   108 110   9   107 111  15   105 110   8   120 125  13   126 123  19   123 120  20   116 110  19   121 115  31   131 122  47   120 110  37   107  96  22   107  96  20   114 109  29   118 113  32   122 119  40   116 111  38    97  91  23    97  89  17   113 105  21   125 117  22   150 134  31   159 140  36   157 134  27   169 143  33   185 161  44   178 159  35  
  76  63  10    84  69  13    90  73  20    85  64  17    79  60   9    89  70  14    88  72  12    85  72   3    88  79   5    89  83   4    90  85   3    96  91   8   107  95  22   114 102  27   112 103  24   106  99  13   113 107  14   112 107  10   106 101   2   113 108   5   117 105   1   111 101   4   100  93   7    82  79   1    78  79   5    94  97  17   110 116  18   124 133  17   130 130  30   128 125  32   116 110  28   113 105  32   120 109  43   112  99  33    98  85  16   101  88  16   106  99  26   116 108  35   109 103  29    94  90  19    91  86  18    94  88  14   104  98  12   122 118  21   129 116  12   143 126  21   144 121  15   158 132  22   182 155  40   191 169  49  
  95  83  10    96  81   9    97  79  17    83  61  11    77  54   5    88  68  16    93  74  17    88  72  11    85  71   5    81  70   1    84  73   5    92  84  14   100  86  14   114 101  24   119 108  27   111 101  12   112 104   7   113 106   2   105 100   1   112 108   1   125 118   4   114 110   1    98  96   1    78  76   1    77  78   7    97 101  19   119 127  24   140 151  33   151 153  42   124 126  23   116 112  25   108  99  27   106  95  33   104  89  31    91  74  15    97  81  19    95  81  19    93  82  16    90  81  12    91  85  15    92  88  17    90  84   7    93  89   1   109 105   5   114 103   1   130 113   9   139 116  10   153 125  16   168 138  27   175 150  32  
 121 104  18   117  97  14   103  82  14    76  57   1    73  51  10    77  55  12    79  58  12    82  62  13    83  65  15    77  62  11    73  60  11    77  65  17    87  72   4   100  86  16   112  99  24   112 102  20   105  97   6   107 100   4   109 103   1   117 111   6   121 116   2   121 120   6   100 101   2    76  78   1    86  88  10   112 118  21   133 141  26   148 157  32   159 163  31   118 120   7   101  97   5   106  98  24    99  88  26    87  72  18    84  68  14    87  73  14    91  77  16    88  75  11    92  82  14    95  88  16    91  84  11    95  88   8   102  97   5   102  97   2   114 103   1   120 105   2   130 109   4   146 120  13   160 129  21   163 136  21  
 136 110  16   129 100  15   105  81  15    81  64   8    74  55  15    69  50   9    74  55  12    79  61  14    76  58   9    72  59   8    77  66  13    80  70  16    92  78  13   103  90  23    99  90  19   103  96  21    94  89   7    89  85   1    95  91   1   108 103   6   109 106   1   103 101   3    85  83   4    78  79   3    91  95   5   116 121   6   141 147   8   149 154   4   146 149   6   114 113   1   100  94   9   101  93  21    89  80  13    74  63   8    75  64   9    84  75   9    94  83   9    98  88  10   100  90  10    96  87   3    91  82   1    94  85   1    98  88   2    97  87   3   100  87   7    96  83   1   103  87   1   123 100   6   145 115  10   159 127  12  
 128 103  14   116  90  14    89  65  13    78  58  19    72  52  14    69  49  11    72  53  12    75  54  12    71  52   7    69  53   6    73  61   9    76  66  13    81  68  12    88  77  15    85  77  12    83  75  11    85  75  14    83  73   7    93  82   5   100  89   2    96  89   1    92  86   3    77  74   1    78  80   2    92  97   1   117 122   1   146 151   6   146 152   1   125 127   1   116 116   2    91  86   2    77  70   4    77  71   1    78  71   1    86  79   9    89  84   2   106  98   1   111 104   1   114 106   1   113 105   1   109 101   1   106  94   1    98  85   1    90  76   1    81  68  12    72  59   2    78  63   1   105  84   1   137 110   1   158 129   7  
 109  87   8   106  83  10    82  61   6    72  53  12    67  49   9    67  47  10    62  42   5    65  43   4    73  54  11    75  59   9    72  60   2    72  62   1    80  73   4    82  75   3    83  77   3    71  63   1    71  59   9    73  57   5    94  77   7   106  91   3    94  84   1    86  80   1    72  68   1    81  80   1    93  95   1   113 117   1   143 146  12   141 143   2   126 128   5   120 122   1    87  83   1    83  76   2    97  94   1    94  91   1   100  96  10   107 107   1   119 115   1   132 127   3   138 131   1   139 131   1   138 128   4   125 111   4   108  91   1   103  87   7    93  78   1    83  69   1    90  74   1   115  94   2   141 114   1   157 128   1  
  83  65   4    94  77  12    86  70  10    74  56   6    73  56  12    67  48   7    64  45   2    68  47   4    75  58   4    89  75  10    93  84   6    87  80   1    90  86   1    93  90   3    91  85   7    61  53   1    57  42   1    66  49   6    89  70   7    95  77   1    87  74   1    82  71   4    73  64   1    80  76   4    89  88   1   107 109   1   132 132   8   128 127   1   124 125   1   136 138   3   111 108   2    99  94   6   108 105   1   109 107   1   116 112  10   122 121   2   131 127   1   137 133   1   148 140   1   154 143   1   149 136   1   136 119   1   121 102   1   112  93   1   116  95   1   108  89   1   113  94   1   132 110   1   146 120   1   155 125   1  
  74  59   7    78  67   7    84  70  12    78  61  11    72  56   8    78  60  13    74  56   8    73  54   1    85  68   1   101  90   2   113 106   1   118 115   1   111 110   2   104 101   1    93  87   7    69  59   4    61  45   8    75  55  16    88  69  12    95  75   5    88  72  12    80  64  13    70  57  12    69  61   7    77  73   1    99  96   1   119 117   2   126 122   1   133 134   1   141 142   1   126 123   4   116 110   7   119 116   1   122 121   1   129 128   2   137 136   5   148 145   8   144 138   1   156 145   1   165 150   3   156 137   1   145 125   1   136 114   1   121  99   1   114  86   3   112  89   1   128 112   1   153 137   2   165 145   2   165 142   3  
  83  73   4    84  79   6    94  83  19    90  72  23    79  63  11    92  74  23    93  76  20    92  75   9   104  89   6   122 114   4   136 133   3   145 146   1   141 143   3   128 127   6   109 104  14    87  77  16    73  59  12    92  76  25   101  84  20   109  92  19   100  83  19    79  63  11    69  55  16    68  56  15    74  67   9    88  82   4   102  96   1   126 119  10   139 137   1   140 138   1   134 130   3   126 120   6   131 127   2   143 142   1   148 147   1   148 147   2   152 150   4   156 150   2   161 150   1   167 149   4   164 141   4   151 126   1   138 114   1   136 113   6   129 104   9   128 110   1   141 133   1   160 153   3   164 154   3   162 149   7  
 109  97   5   104  92  14   107  93  31   105  90  31    95  83  28    97  84  26   111 101  32   110 101  18   120 115  13   139 139  14   148 152   5   153 159   1   160 168  12   150 154  23   123 122  26   100  94  26    94  86  26   101  93  28   104  97  21   115 108  26   113 102  30    83  70  15    78  65  22    81  69  21   102  90  33    98  85  21   105  92  18   122 110  25   130 120  13   132 126   5   136 133   1   132 130   2   133 133   1   147 147   1   155 155   1   158 157   5   150 148   1   157 151   1   163 147   1   171 149   2   172 146   5   153 128   1   139 118   1   148 130  12   155 138  16   144 131   1   151 144   7   147 144   1   151 149   1   158 157   2  
 122 111  14   116 102  27   118 106  46   116 105  41   120 110  56   106  97  38   125 117  45   128 123  32   135 133  22   154 156  20   168 174  16   164 172   1   168 175  17   158 162  25   131 130  23   113 111  28   115 112  34   116 113  33   113 113  28   115 115  27   115 108  38    88  78  25    85  74  29    86  76  24   111 101  42   118 106  47   118 104  42   113 100  29   117 105  18   125 118   9   129 125   1   135 134   6   140 140   6   150 150   4   159 158   4   156 153   1   151 143   5   156 145   4   158 139   1   162 136   1   170 143   3   164 141   4   154 136   4   154 139   8   157 143  10   147 135   1   146 139   1   147 144   1   156 158   1   165 168   4  
 111 105  14   104  96  24   113 104  48   112 103  45   115 104  56   116 107  53   128 121  51   133 128  36   145 145  25   161 163  16   174 180  12   166 173   1   167 170  12   153 154  15   130 129  13   123 120  21   118 114  23   113 112  20   119 119  29   120 120  30    99  96  26    96  90  34    96  88  41    97  87  35   115 107  49   120 111  56   101  93  36   102  95  32   112 100  30   118 108  20   112 108   2   129 126  12   144 140  18   148 143  11   160 155  13   156 148   7   142 129   1   148 130   2   153 132   4   159 135   4   165 138   6   165 142   4   160 141   1   153 138   1   150 139   1   150 142   1   150 144   1   163 162   9   169 172   7   166 170   1  
 116 111  35   104  99  36   107  99  51   106  99  49   112 101  56   110 100  50   117 110  42   133 128  35   150 150  23   154 157   2   170 174   3   169 173   1   159 158   9   135 132   2   111 106   3   109 103  15   102  98  13    96  95   6   109 110  16   108 112  15   103 105  23   103  99  32   102  96  37   108 103  36   116 112  43   128 123  61   107 103  46   103  99  40   101  88  36   104  95  28   104  99  13   122 117  19   138 131  25   138 127  14   139 128   5   141 129   2   148 129   5   151 130   7   163 141  19   172 148  24   163 141  13   153 134   1   157 141   1   162 148   2   153 146   1   159 155   1   162 161   3   175 176  14   176 179   9   170 174   1  
 117 115  53   112 106  49   119 109  65   128 118  72   126 114  68   121 108  59   121 111  47   136 130  39   156 154  30   158 159  10   164 167   8   154 157   2   133 131   3   114 110   1   100  93  11    94  85  18    84  78  10    87  85   7   103 103  12   103 108   8   113 118  19   111 110  25   110 107  29   117 113  30   107 103  21   117 114  46   111 109  53    98  97  43    83  73  31    91  82  31   104  97  29   121 114  30   135 126  35   130 116  22   122 103   4   132 112   4   148 127   7   153 131  11   163 143  21   163 145  18   150 134   4   145 132   1   155 142   1   162 151   5   165 161   2   171 170   1   177 179   7   183 186  18   184 188  17   178 181   6  
 117 115  58   121 113  54   144 132  82   167 152 100   167 150 101   165 148  98   142 128  68   131 121  37   155 153  37   158 158  22   151 153  17   146 147  15   114 112  12    96  93   8    93  86  21    88  81  25    84  79  17    94  92  16   104 104  14   108 112  15   121 125  14   120 120  22   109 106  16   121 116  24   120 114  26   109 105  38   100  99  48    85  85  40    72  63  25    85  78  35    98  91  34   114 106  31   127 114  36   119 100  27   116  91  12   130 105  12   138 114   8   150 127  15   157 140  19   151 140   7   146 138   1   152 145   1   157 151   1   156 149   1   169 167   2   176 178   3   179 183   5   180 184  13   182 185  18   174 176   6  
 141 137  77   149 140  74   170 154  95   182 162 100   187 167 114   190 170 120   167 150  94   139 128  48   148 144  35   147 147  24   133 134  14   121 120  11   109 107  30    84  81  13    94  89  30   105 100  42   108 105  37   110 109  28   106 106  16   118 119  26   124 129  13   130 131  29   116 111  17   123 117  21   120 114  28   107 101  39   102  99  58    73  74  39    83  78  38   102  97  55   104  97  43   118 110  38   129 114  43   113  92  29   115  88  20   126  98  17   136 109  19   151 127  26   156 141  22   152 144   7   152 151   1   161 161   4   165 163   4   162 158   1   166 168   1   184 187   8   181 186   6   178 182  10   177 180  15   164 165   1  
 173 163 104   184 174 115   182 167 106   199 180 118   202 178 130   208 185 134   183 163 103   148 134  57   143 134  42   135 129  32   118 112  25   121 115  37   124 124  48   109 108  39   104 100  37   122 118  54   130 127  49   125 123  35   134 133  40   140 140  43   153 150  40   139 135  28   120 115  17   112 106  21   104  96  25   100  91  34    98  90  43    79  71  32   100  90  41   126 114  58   137 122  57   146 125  58   131 103  38   120  90  28   120  89  23   127  94  24   132 102   9   144 120  12   157 138  10   165 153   8   166 158   4   167 161   1   174 172   2   176 175   1   178 173   1   185 184   4   180 183   4   163 167   1   154 155   1   160 156   7  
 182 171 117   195 181 124   193 170 109   206 177 111   217 191 121   205 181 114   173 152  84   135 117  44   128 117  36   132 124  38   123 118  36   132 126  50   140 137  63   138 134  65   129 123  59   126 121  52   132 128  48   145 141  48   149 145  47   132 129  31   132 129  24   140 136  38   125 121  33   115 110  36   120 113  53   104  97  45    86  79  32    89  82  37   109  95  42   127 111  51   140 122  53   150 126  55   132 103  35   126  95  27   129  96  23   128  95  17   131 100   5   140 114   3   153 132   1   169 156   1   174 166   2   173 169   1   179 177   3   182 182   3   178 174   9   168 164   3   154 154   1   150 149   1   152 150   1   158 152   6  
 191 181 129   194 176 118   179 149  82   191 151  77   193 167  73   192 166  80   176 151  76   133 112  44   123 107  39   140 130  60   139 131  59   139 134  61   148 142  73   145 138  72   138 131  64   138 131  56   144 139  51   149 144  46   148 144  43   142 138  38   138 137  40   146 143  55   129 126  53   116 112  54   130 126  76   121 116  70    97  91  43   106 100  50   125 108  49   135 116  50   146 124  51   150 124  48   135 104  29   134 101  24   138 104  20   133 100   9   143 110   4   150 122   1   163 141   1   181 167   1   188 179   5   180 175   1   176 174   1   173 175   1   161 154   5   147 141   1   141 138   1   151 149   5   159 157   5   160 153   1  
 189 181 128   157 140  77   144 114  39   180 139  54   180 152  47   189 163  67   184 158  76   139 116  49   123 105  45   147 134  74   153 144  80   149 143  74   157 149  84   155 147  82   143 135  64   135 129  47   147 143  48   157 152  49   158 153  51   165 159  60   148 147  61   143 141  64   141 138  77   130 127  78   130 126  83   133 129  84   121 114  63   111 105  48   126 108  43   139 119  48   150 127  51   151 123  45   150 117  39   153 118  34   156 122  27   155 122  18   169 135  12   179 147   7   184 159   1   193 173   1   193 181   6   178 170   2   165 162   1   157 158   1   147 141   3   138 135   1   143 140   1   160 159   4   174 171   5   173 165   1  
 138 132  74   109  97  35   128 107  34   171 142  58   178 152  58   178 153  60   169 146  61   144 124  49   135 117  53   151 136  79   164 154  93   170 162  99   163 154  91   169 161  96   159 153  79   138 132  47   141 138  38   159 156  51   168 162  64   174 167  75   159 155  81   139 135  70   145 142  87   144 142  94   132 129  85   144 138  90   142 133  79   111 101  40   118 102  34   136 118  46   155 132  56   155 127  50   167 131  53   172 135  47   174 137  36   174 139  25   186 148  12   199 164  16   203 172   9   205 178   9   196 177  12   171 161   6   153 148   1   141 143   1   145 142   1   145 143   1   151 152   1   162 164   1   170 168   1   174 162   1  
 113 109  48   109 103  46   126 117  57   142 128  64   166 140  67   158 136  54   150 130  43   153 137  54   152 138  67   151 137  76   166 155  97   181 171 110   175 170 107   164 159  93   164 161  84   157 153  62   146 144  43   157 154  51   165 161  67   166 160  75   174 166 103   150 144  84   139 136  81   144 142  90   143 140  89   152 144  90   153 143  84   132 118  55   122 112  43   137 124  53   162 142  69   160 132  58   167 130  55   172 134  47   177 138  35   176 136  22   188 146  13   202 161  19   206 169  17   207 177  19   194 171  17   164 150   3   145 140   1   141 143   1   150 151   1   153 155   1   160 162   1   166 164   3   167 158   2   168 151   1  
 110 107  49   108 105  58   110 106  63   121 114  68   144 124  65   146 127  57   142 125  42   159 144  59   169 155  79   165 151  86   177 166 105   190 182 119   197 193 127   163 160  91   157 154  76   162 161  71   159 158  62   167 164  69   170 166  79   161 157  77   170 164 103   160 154  96   137 133  78   143 139  84   153 148  93   149 141  82   149 137  74   154 139  74   138 130  59   138 127  57   160 144  75   160 134  65   163 129  59   171 132  50   175 133  36   173 131  21   188 141  19   198 154  22   199 159  18   194 162  15   178 155  10   152 139   1   146 143   1   153 158   3   161 164   4   165 167   8   168 169  11   172 168  18   171 159  18   172 152  10  
  88  87  43    89  85  52    97  91  62   112 104  76   122 111  60   139 126  65   145 131  57   159 142  64   178 163  89   189 175 108   190 182 115   184 180 109   189 185 114   172 168  94   157 154  75   164 162  79   170 168  85   166 163  82   166 163  86   167 164  90   164 163  99   162 159  99   139 133  78   140 132  79   157 146  93   157 146  88   142 130  65   153 142  71   151 141  71   139 126  63   149 136  78   149 130  75   152 127  67   161 127  57   154 113  30   163 119  26   175 125  18   180 134  17   183 146  16   173 145   8   153 136   2   144 133   1   148 146   1   158 160   8   170 172  18   181 181  32   180 176  31   173 165  24   165 149  10   164 143   3  
  64  63  35    68  65  42    74  70  48    87  82  58   102  94  50   132 122  67   154 144  73   163 151  72   168 156  78   180 169  97   184 177 107   168 163  94   171 165  95   181 177 103   174 171  93   166 163  81   164 163  81   162 161  81   165 162  86   169 165  91   157 156  92   165 163 104   162 158 103   145 139  88   137 128  78   156 146  92   147 137  76   134 123  57   150 140  74   146 135  77   144 133  85   130 115  73   124 106  58   131 106  46   132 103  26   141 108  19   161 122  24   151 116  10   158 126   9   148 123   1   138 119   1   144 130   1   151 141   4   163 157  13   176 171  30   181 173  36   170 162  27   160 148  17   158 141  10   164 143  12  
  53  50  32    57  54  37    58  57  37    67  67  43    84  77  43   107 100  54   133 125  62   150 141  66   162 153  74   169 160  83   169 161  89   166 159  91   169 163  93   184 177 105   173 170  93   157 155  75   154 153  71   155 155  75   156 155  75   153 149  73   155 154  87   161 159  99   161 160 104   153 150  99   132 126  77   142 135  83   148 139  82   125 115  56   144 135  73   150 139  88   114 104  67   104  95  63   110  96  61   104  89  39   123 105  36   135 116  33   149 122  36   144 118  27   139 115  15   127 106   1   135 115   2   148 129   8   149 132   5   163 147  16   171 156  30   173 159  35   160 146  26   147 132  12   151 134  15   169 148  27  
