P3
50 50
255
  43  58  65    37  46  55    38  46  56    41  53  57    51  65  66    46  60  61    35  48  49    26  37  40    23  34  38    50  61  65    50  70  71    58  77  78    58  76  78    51  67  69    38  52  53    24  38  39    22  32  33    20  26  26    20  27  27    38  44  44    47  52  50    39  43  42    26  30  29    20  25  25    22  29  29    24  34  33    23  32  31    28  38  36    30  41  37    46  58  54    58  72  73    61  74  76    59  70  72    64  75  77    61  71  73    48  58  59    33  42  41    26  32  28    16  22  18    17  24  19    30  35  31    32  37  31    27  32  26    22  27  22    18  23  19    18  23  19    20  25  21    24  29  25    30  35  31    33  38  34  
  58  83  87    37  59  62    54  72  76    48  64  66    38  52  53    28  42  43    28  39  41    36  47  49    43  54  56    46  57  59    33  47  48    35  46  48    24  34  36    16  26  28    14  22  24    10  18  20     9  15  17     6  15  14    20  29  28    30  37  37    22  27  25    19  25  23    26  32  30    29  37  36    23  32  30    35  44  43    51  60  58    53  63  60    48  59  55    51  62  58    57  69  69    45  57  57    38  49  49    42  52  53    31  41  42    21  29  31    16  24  24    20  26  22    26  32  28    28  34  30    25  30  26    20  25  20    22  27  21    20  25  21    23  28  24    34  39  35    37  42  38    32  37  33    30  35  31    32  37  33  
  43  62  65    40  57  59    37  50  53    40  52  53    39  51  51    37  49  49    36  48  48    42  53  54    41  51  52    22  32  33    32  38  38    33  39  39    22  27  27    15  19  20    17  18  20    17  18  20    19  23  24    17  27  26    22  31  30    29  38  35    34  43  40    39  48  45    40  49  46    41  51  49    48  58  57    64  73  70    57  66  63    42  51  48    33  40  38    34  40  38    30  39  36    34  43  40    30  39  36    22  31  28    16  25  22    30  36  34    41  47  44    42  48  44    26  32  28    15  22  18    17  23  19    21  26  21    25  30  25    34  39  34    31  36  33    30  35  31    31  36  32    29  34  30    27  32  28    26  31  27  
  29  38  43    47  54  57    38  42  46    32  40  43    37  47  48    30  40  39    23  33  32    31  41  40    38  47  46    33  43  41    30  35  31    28  33  28    20  25  21    23  28  24    32  34  33    36  38  37    41  46  45    35  45  44    31  42  39    39  50  46    48  59  55    46  55  52    37  46  43    36  47  43    43  54  50    38  47  44    28  36  33    31  37  35    33  38  35    39  44  40    31  37  33    23  29  25    17  23  19    24  30  26    37  43  39    46  52  48    43  49  47    29  35  33    18  24  21    21  27  23    36  42  38    37  42  38    28  33  29    29  34  30    26  31  27    23  28  24    23  28  24    25  30  26    23  28  24    14  19  15  
  37  47  48    31  40  40    27  36  35    23  33  32    27  37  36    29  38  37    29  38  35    36  45  42    39  48  45    32  41  38    30  37  30    39  46  39    44  51  44    34  43  35    20  29  24    26  34  29    39  48  44    35  46  42    31  42  38    39  50  46    43  52  49    31  40  36    23  32  27    28  39  34    27  38  34    18  27  24    27  33  31    33  38  34    23  28  24    20  25  21    20  25  19    19  24  18    30  35  29    38  43  38    32  38  34    24  30  26    22  29  25    20  29  26    28  35  33    36  42  39    38  44  40    30  37  33    24  30  26    26  32  28    34  39  35    37  42  38    26  31  27    21  26  22    21  26  22    16  21  17  
  25  26  28    32  34  33    43  45  44    33  40  38    25  34  31    29  38  35    30  36  32    33  39  35    43  49  43    37  44  37    39  49  39    37  47  38    46  56  47    48  58  51    38  49  43    27  40  34    27  39  33    32  41  38    23  33  30    30  39  36    35  41  38    24  30  26    21  27  23    26  32  29    24  30  27    19  25  21    20  26  22    17  22  18    16  21  17    15  20  16    12  17  10    22  27  21    29  35  29    19  25  21    17  23  19    27  33  31    38  45  43    35  44  41    34  43  40    34  40  38    34  39  36    30  37  33    32  38  34    30  36  32    35  41  37    35  41  37    20  26  22    16  22  18    23  29  25    25  31  27  
  20  18  19    39  38  36    47  48  45    32  37  34    24  30  28    22  29  24    19  25  20    28  34  27    45  50  43    45  50  43    43  48  41    32  37  30    34  40  33    32  41  35    33  42  37    32  43  37    26  36  32    35  41  39    26  33  30    24  30  28    22  27  23    14  19  15    18  23  19    18  23  19    19  24  20    17  22  18    17  22  18    15  21  16    19  26  19    18  25  18    24  32  24    21  28  21    22  29  23    27  33  29    43  52  49    42  51  48    36  45  42    42  51  48    36  45  42    35  44  41    37  43  41    29  35  31    20  26  22    17  23  19    17  23  19    18  24  20    20  26  22    27  33  29    31  37  33    28  34  30  
  23  32  27    30  44  36    33  49  39    47  56  51    49  55  51    26  32  28    15  22  15    31  36  29    39  44  37    37  42  35    27  28  22    22  23  17    28  29  24    27  31  27    38  43  39    49  55  53    37  43  41    34  38  37    22  26  25    16  20  19    21  25  22    20  22  19    23  25  22    20  21  18    22  24  21    14  16  13    17  23  18    16  23  16    21  30  23    43  53  45    43  50  43    35  41  35    38  46  41    44  53  49    50  59  56    34  44  43    23  33  31    27  36  33    26  35  31    22  31  28    22  28  25    20  26  21    24  30  26    29  35  31    24  30  25    24  30  26    33  39  35    40  46  42    40  46  41    35  41  37  
  35  44  40    32  41  36    31  40  35    33  40  38    30  36  34    17  23  21    13  18  13    19  24  17    21  26  19    24  29  22    30  35  31    44  49  45    41  46  42    27  33  29    43  50  43    48  55  48    21  27  21    24  26  25    24  26  25    18  20  18    20  22  19    22  24  21    22  24  21    16  23  19    12  21  16    12  23  17    34  45  41    35  46  42    44  56  54    55  67  65    35  44  39    33  42  37    34  43  38    38  47  43    36  45  42    34  43  40    33  41  38    34  40  36    23  29  25    24  30  26    21  27  23    32  38  34    41  47  43    41  47  44    38  44  42    40  46  44    41  46  42    35  40  35    26  31  25    15  20  14  
  22  31  26    23  29  25    25  31  27    24  28  26    26  30  29    26  31  27    19  24  18    21  26  20    25  29  22    34  37  28    53  58  52    51  56  50    42  48  42    30  37  30    35  42  35    30  37  30    11  17  13    16  20  19    15  19  18    15  19  18    14  19  15    15  20  16    17  22  18    20  28  23    27  36  31    44  55  49    45  56  52    38  50  46    54  65  61    39  51  47    29  38  33    27  36  31    36  45  40    42  51  46    33  42  39    31  40  37    34  42  39    32  38  34    27  33  30    32  38  34    34  40  36    41  47  43    41  47  43    35  41  39    33  39  37    32  37  34    25  31  27    18  23  18    16  21  15    14  19  13  
  30  36  32    23  29  25    27  32  28    44  49  45    25  30  26    34  36  31    36  38  32    31  34  27    38  41  32    42  45  36    43  49  39    35  41  31    27  34  25    24  31  24    27  34  27    24  30  26    15  21  18     9  13  12     7  11  10    12  15  14    13  18  16    21  25  23    25  30  26    28  35  31    43  52  47    48  57  52    40  51  46    39  50  46    36  47  43    35  46  42    40  49  44    39  48  43    37  46  41    36  45  40    30  39  34    32  41  38    30  38  34    32  37  33    38  43  39    42  47  43    35  40  36    30  35  31    25  30  26    19  25  21    16  22  18    17  22  18    15  20  16    16  21  16    23  28  22    29  34  27  
  39  44  40    30  35  30    40  45  39    66  69  64    36  38  33    33  35  30    33  37  29    29  32  24    39  40  32    38  38  30    28  34  20    26  32  20    28  35  24    34  41  32    35  42  35    22  28  24    16  22  20    18  24  24    22  28  27    26  32  30    22  28  26    33  39  36    42  48  46    40  48  44    39  48  43    45  54  49    45  54  49    39  48  43    25  34  31    26  35  32    21  28  21    21  28  21    23  29  24    32  38  34    43  49  45    52  58  54    50  55  52    53  58  54    48  53  50    34  39  35    22  27  23    19  24  20    21  26  22    23  28  24    19  24  20    15  20  16    17  22  18    24  29  24    27  32  26    27  32  26  
  32  37  33    23  28  24    22  27  21    32  37  31    28  33  26    20  25  19    20  23  17    24  27  20    29  32  25    41  44  37    56  62  48    69  75  63    68  74  65    54  61  53    46  53  48    36  42  38    41  48  46    49  55  55    41  47  47    44  50  50    41  47  44    38  44  42    34  40  38    34  42  38    26  35  30    36  45  40    34  40  36    27  33  29    24  30  26    22  28  24    34  39  33    32  37  31    38  43  37    46  51  45    43  48  44    45  50  46    45  50  45    42  47  41    33  38  32    23  28  22    26  31  25    32  37  31    33  38  32    30  33  27    23  25  20    15  17  12    15  17  12    19  21  17    16  18  15    10  12   9  
  15  21  17    25  32  25    27  34  27    30  37  32    32  38  34    31  37  33    44  49  44    46  51  45    42  47  41    60  65  59    59  65  55    69  74  67    62  68  61    39  46  39    37  43  38    40  46  42    49  56  54    42  51  50    33  42  41    44  53  52    44  53  52    33  42  41    27  36  34    27  34  30    26  32  28    32  37  34    27  33  29    26  32  28    27  33  27    40  45  38    38  43  36    43  48  41    43  48  42    38  43  37    28  33  27    27  32  26    28  32  26    34  36  31    30  32  27    26  28  23    28  30  25    25  27  22    20  22  17    18  19  14    16  17  12    10  12   7    10  12   7    15  17  13    13  15  12    12  14  11  
  35  44  39    53  64  56    55  66  58    50  59  55    39  48  45    36  45  42    48  57  54    52  59  57    40  46  44    45  51  49    40  45  41    32  37  33    30  36  32    27  33  29    36  42  38    33  39  35    35  41  39    36  44  46    39  47  49    42  51  50    31  40  39    20  29  28    24  33  32    31  38  37    28  33  31    41  47  43    48  54  50    39  44  39    35  40  34    43  48  42    32  35  28    40  43  35    35  38  32    25  27  22    22  24  19    28  30  25    29  31  26    31  33  28    28  30  25    24  26  21    19  21  16    17  19  14    20  22  17    20  21  15    21  22  16    19  20  15    20  21  16    23  25  21    25  27  24    28  29  27  
  78  89  83    79  91  83    60  71  63    45  55  52    44  54  53    36  46  45    31  41  40    49  58  57    40  49  48    36  45  44    33  37  36    20  24  23    20  25  24    16  22  20    19  24  21    20  26  22    30  37  34    32  42  43    34  44  45    29  39  40    33  43  43    40  50  48    40  50  49    37  45  43    27  33  31    35  41  37    39  44  40    27  32  27    24  27  22    21  23  18    18  21  14    18  21  14    18  21  14    15  17  12    12  14   9    20  22  17    26  27  22    25  27  22    18  20  15    19  21  16    18  20  15    19  21  16    21  23  18    18  20  14    21  22  16    19  20  14    23  24  19    30  32  28    31  33  30    33  35  32  
  48  59  53    63  74  65    65  76  68    49  57  55    46  52  52    30  36  34    34  40  37    37  43  39    38  43  38    34  39  33    28  33  35    24  30  30    20  26  25    16  22  18    19  24  18    30  35  29    42  45  40    46  51  47    46  51  47    45  50  46    44  49  45    35  40  36    29  34  30    23  26  21    26  28  23    25  27  22    22  23  18    20  20  15    16  13   9    16  12   9    10  12   9     9  10   8    11  11   9    15  15  13    20  20  19    28  28  25    30  30  27    22  23  18    18  20  15    21  22  17    23  24  19    18  19  14    17  18  13    20  22  18    19  21  18    22  24  21    18  20  17    14  18  14    17  22  17    16  21  15  
  30  41  35    40  51  45    41  52  46    51  60  55    54  63  58    30  39  34    22  30  28    25  31  30    33  39  39    38  44  44    39  45  45    38  45  44    42  47  45    38  43  40    28  33  27    26  31  25    34  39  33    37  42  38    31  36  32    24  29  25    22  27  24    17  22  18    12  17  13     9  12   7    11  13   8    11  13   8    14  16  11    16  17  12    16  17  12    23  24  19    10  12   9    17  19  16    22  24  21    19  21  18    23  25  22    29  30  27    23  24  21    20  22  17    20  22  17    18  20  15    20  22  17    22  24  19    24  26  21    26  28  24    26  28  25    19  21  18    19  24  18    30  35  29    34  39  33    37  42  36  
  45  56  52    41  52  48    26  37  33    24  36  28    30  42  33    19  29  24    18  27  25    27  36  37    46  53  58    58  65  71    49  55  55    41  47  45    41  45  43    35  40  36    21  26  20    14  19  13    16  21  15    12  17  13    14  19  15    15  20  16    14  19  15    14  19  15    10  15  11    12  15  10    13  15  10    15  18  13    20  25  19    25  30  24    29  34  28    40  45  39    33  39  35    24  29  25    30  35  31    32  37  33    29  34  30    24  29  25    16  20  15    20  22  17    20  21  16    15  17  12    17  19  14    22  24  19    28  30  25    27  31  26    24  29  23    24  29  23    36  41  35    41  46  40    38  45  38    47  54  47  
  29  38  37    25  34  33    15  24  23    19  30  25    31  42  36    39  50  46    50  58  57    49  57  58    48  56  59    49  57  60    41  44  43    25  29  27    16  21  17    14  19  14     9  14   8     8  13   7     9  14   8    12  17  13    25  30  26    33  38  34    29  34  31    25  30  26    17  22  18    15  18  13    16  18  13    18  23  17    23  29  23    25  32  25    26  35  28    33  43  35    37  43  39    28  34  30    32  38  34    29  35  31    18  24  20    16  21  17    20  24  20    26  28  23    20  22  17    19  21  16    19  21  16    18  20  15    26  28  23    26  31  24    20  26  19    26  33  26    32  39  32    28  35  28    25  32  25    24  31  24  
  35  44  44    31  40  39    38  47  46    58  67  69    59  67  69    57  65  67    56  65  63    40  49  45    27  33  29    23  29  25    16  21  17    10  15  11     7  12   7     8  13   7    12  17  11    14  19  13    17  21  15    25  27  22    34  36  31    40  42  37    36  38  33    31  33  28    21  23  18    20  22  17    26  28  23    31  36  30    33  39  33    31  39  32    28  38  30    27  37  29    23  32  27    27  35  30    25  31  27    21  27  23    16  22  18    14  20  16    18  24  20    20  25  21    16  21  17    21  26  22    27  32  28    26  31  27    30  35  31    31  38  32    25  32  25    17  27  19    13  23  16    15  24  19    19  28  23    13  22  17  
  58  68  66    43  52  51    46  55  54    62  69  71    51  56  60    34  39  42    26  32  30    16  22  16    12  19   9    17  22  12    11  13   8    16  17  12    17  19  14    15  19  13    17  22  16    20  25  19    24  28  22    27  29  24    21  23  18    20  22  17    22  24  19    23  25  20    20  22  17    18  22  16    22  27  21    31  36  30    32  37  31    29  35  29    26  33  26    20  27  20    21  27  23    22  28  24    18  24  20    21  27  23    19  24  20    11  16  12    15  20  16    16  21  17    19  24  20    22  27  23    29  34  30    31  36  32    28  33  29    23  31  26    19  28  23    14  23  18    15  25  20    20  31  27    24  34  33    38  48  48  
  45  51  49    33  39  37    27  33  31    30  35  34    22  27  23    17  22  18    15  20  16    15  19  13    17  20  13    17  20  13    21  23  18    20  23  18    20  22  17    17  21  16    16  21  15    17  22  15    22  26  19    28  30  25    18  20  15    15  17  12    19  21  16    21  22  17    24  26  21    22  26  20    21  26  20    26  31  25    28  32  27    26  28  23    24  26  21    22  24  19    14  19  15    16  21  17    17  22  18    16  21  17     9  14  10    10  12   9    19  22  19    21  26  22    21  26  22    19  24  20    22  27  23    24  29  25    23  28  24    19  28  24    25  36  32    39  50  46    56  66  65    62  72  72    68  79  80    90 102 102  
  27  33  29    25  32  28    17  23  21    16  20  13    14  17   8    16  19  10    15  18  11    19  21  16    24  25  22    21  21  19    26  27  22    18  20  14    18  20  14    20  24  18    17  22  15    12  17  10    13  17  10    18  20  15    18  20  15    22  24  19    25  27  22    24  26  21    32  34  29    27  31  26    18  23  17    20  25  19    23  25  20    18  20  15    18  19  14    22  21  17    16  21  17    14  19  15    13  17  13    14  16  13    21  23  20    21  23  20    16  19  16    16  22  18    12  18  15    14  21  17    19  25  21    24  30  26    37  43  39    51  61  57    67  77  75    81  91  90    77  88  88    71  82  83    70  81  83    61  72  74  
  21  23  18    18  20  15    13  15  10    10  12   7    19  21  16    20  22  17    21  23  18    25  27  22    20  22  17    19  21  16    16  21  15    14  19  13    13  18  12    14  19  13    24  29  23    25  30  24    28  31  26    28  29  24    24  25  20    27  28  23    24  25  20    26  27  22    25  26  21    23  23  18    18  19  14    17  19  14    21  26  21    17  22  18    17  20  16    19  21  18    19  24  17    21  25  19    22  24  19    24  28  24    27  35  32    30  42  38    25  40  37    30  44  44    32  46  46    31  43  41    38  48  47    39  50  46    51  60  57    62  76  75    73  89  88    69  83  83    71  83  80    58  68  65    46  55  51    40  47  43  
  13  15  10    16  18  13    14  16  11    15  17  12    19  21  16    14  16  11    16  18  13    22  24  19    18  20  15    15  17  12    14  19  13    20  25  18    28  33  27    33  38  32    37  42  36    29  34  29    27  31  25    25  26  21    22  23  18    21  22  17    17  19  14    21  22  17    22  24  19    18  19  14    17  19  14    18  23  17    22  28  24    18  24  20    18  24  20    26  31  27    35  42  34    35  40  34    40  45  40    44  50  47    41  50  47    58  70  68    76  91  89    75  90  89    54  69  67    57  69  67    66  78  76    68  79  75    64  75  71    63  77  74    66  81  78    60  72  69    68  78  74    61  70  65    44  52  45    42  49  42  
  13  15  10    19  20  15    15  17  12    10  12   7    11  13   8    10  12   7    18  20  15    26  28  23    25  27  22    26  28  23    28  30  25    29  31  26    33  35  30    31  33  28    27  29  24    19  21  16    19  20  15    22  24  19    21  23  18    21  23  18    19  21  16    18  21  16    21  23  18    21  25  20    25  30  26    28  34  30    33  43  37    38  48  42    41  48  43    43  49  45    45  52  45    53  59  55    48  54  51    42  50  47    40  50  49    45  60  58    53  69  68    64  80  78    67  83  80    73  88  85    68  80  76    63  75  71    60  71  67    53  64  58    60  71  65    59  68  63    48  57  49    43  49  42    50  55  47    68  73  66  
  18  21  14    18  20  14    17  20  13    23  25  20    29  32  27    34  36  31    37  39  34    35  37  32    31  32  27    34  36  31    28  29  24    23  24  19    22  23  18    17  18  13    14  15  10    12  13   8    17  18  13    20  22  17    19  21  16    22  24  19    22  27  21    23  28  24    33  38  34    29  34  32    40  49  46    46  57  53    40  52  48    35  47  43    33  43  38    32  41  36    45  51  47    50  59  54    47  57  53    52  63  59    61  73  71    67  82  79    69  85  82    69  85  82    67  83  80    56  71  66    53  65  61    60  72  67    64  75  69    50  58  51    50  57  49    62  67  59    56  61  54    60  64  56    91  94  85   134 137 128  
  24  27  20    21  24  17    26  29  22    32  35  29    37  39  34    37  39  34    33  35  30    24  26  21    19  21  16    23  25  20    20  21  16    16  17  12    18  19  14    17  18  13    16  17  12    15  16  11    19  20  15    19  21  16    24  26  21    37  41  36    37  42  38    33  39  35    40  46  42    42  50  48    42  52  51    35  47  44    32  44  40    27  39  35    28  39  35    36  45  42    54  60  56    69  76  72    76  86  81    81  93  89    78  93  88    70  85  82    66  81  78    72  87  84    74  87  83    70  82  78    61  72  68    56  66  60    59  68  63    61  66  56    60  63  52    69  72  63   108 110 102   142 145 136   140 143 134   151 153 144  
  27  30  23    26  29  22    26  29  22    25  29  22    23  26  19    20  23  16    18  20  14    18  21  14    20  23  16    24  27  20    19  21  16    18  20  15    21  23  18    22  24  19    22  24  19    18  20  15    21  23  18    27  29  24    29  33  28    40  45  41    33  39  35    26  35  31    30  39  36    34  43  43    39  49  49    31  43  41    33  45  43    53  65  62    68  77  74    55  61  59    74  79  73    67  74  68    60  71  64    63  76  69    70  83  76    74  87  80    70  82  76    76  88  84    80  91  87    88  97  94    67  75  71    50  56  52    56  63  57    67  71  61    87  89  78   132 135 124   153 156 147   117 120 111    68  71  63    33  38  31  
  26  29  22    25  28  21    20  23  16    17  21  14    14  19  12    12  17  10    15  20  13    20  25  18    22  27  20    18  23  16    20  25  19    21  26  20    24  29  23    26  31  25    30  35  29    28  33  27    29  33  27    34  37  32    30  35  29    28  34  30    20  29  24    34  44  41    47  58  54    41  50  51    37  47  48    48  60  60    67  79  78    69  80  79    68  75  73    58  64  62    51  52  46    46  50  43    62  71  62    80  91  82    78  89  81    75  86  78    67  77  70    64  73  70    61  70  67    61  67  63    61  66  62    79  83  78   106 108 103   113 115 105   137 138 127   101 104  93    45  49  40    24  30  21    24  29  22    28  33  27  
  33  36  29    28  30  24    29  32  25    26  31  24    28  33  26    32  37  30    37  42  35    41  46  39    36  41  34    26  31  24    31  36  30    33  38  32    36  41  35    38  43  37    42  47  42    37  42  35    32  36  30    33  36  31    39  44  38    44  49  45    44  53  49    75  86  82    91 101  99    71  79  81    60  70  72    62  72  73    64  74  75    63  72  71    63  70  68    44  48  47    43  43  38    51  55  48    65  73  65    69  80  71    72  84  74    81  91  82    76  82  76    76  82  80    62  68  66    66  71  67   129 131 128   156 158 153   123 124 119    81  83  74    52  54  43    22  25  14    29  33  24    28  33  27    27  33  26    26  33  26  
  30  33  27    29  32  25    41  44  37    46  50  44    36  41  35    34  39  33    44  49  43    43  48  42    32  37  32    25  30  26    36  43  36    42  50  41    40  47  39    34  41  33    36  44  39    40  50  47    47  57  55    53  64  60    55  66  62    62  71  68    61  69  66    61  69  64    64  70  66    58  64  60    62  68  64    67  78  72    71  82  76    73  83  78    71  77  73    54  56  53    57  58  52    56  59  53    45  49  43    45  51  47    63  72  67    63  74  68    82  88  86   111 108 112   136 135 136   161 160 156   166 167 161    98  99  93    45  46  40    30  33  26    21  24  17    19  25  19    18  25  18    24  32  26    21  31  25    32  43  37  
  29  31  26    30  32  26    29  32  25    23  28  21    22  27  20    26  31  25    31  36  30    30  35  29    29  34  28    30  35  29    34  40  40    37  43  40    45  54  49    61  70  65    58  68  64    59  67  69    59  68  69    53  64  60    48  59  55    39  50  46    49  60  56    50  61  57    58  68  64    74  84  81    83  95  91    57  73  68    63  79  73    61  75  70    54  65  61    56  65  62    58  65  58    61  67  60    50  55  49    68  71  66   103 104  99   130 131 126   158 158 155   184 182 183   191 190 187   146 147 141    70  70  63    28  29  23    29  31  25    28  31  25    24  27  20    23  28  22    24  31  24    34  42  36    61  71  66   101 111 106  
  30  32  27    26  28  23    28  30  25    40  44  37    44  49  42    46  51  44    42  47  40    35  40  33    34  39  33    39  44  37    53  61  64    68  77  78    76  85  84    82  92  89    61  71  70    50  60  61    45  56  55    50  62  57    59  71  67    59  71  67    63  75  71    78  90  88    89 101  99    87 101 100    70  85  84    63  79  78    68  87  85    69  86  85    61  76  75    59  71  71    62  72  67    85  93  88    97 100  96   149 146 142   189 182 178   184 174 172   155 147 145   123 122 117    89  89  82    42  43  35    25  28  19    28  31  23    30  33  27    34  36  31    37  42  36    36  41  35    52  59  52    83  92  84   102 112 106    89  99  94  
  28  30  25    30  32  27    39  43  37    51  56  49    50  57  49    43  50  42    32  39  31    22  29  21    27  34  26    46  53  46    67  77  78    62  72  72    57  68  65    61  73  67    42  54  50    33  45  42    46  59  56    73  88  83    92 107 102    99 114 109    84  99  96    62  77  75    52  68  65    54  68  67    55  67  67    61  75  75    71  85  85    78  90  90    82  94  94    84  94  95   130 136 134   151 155 153   153 153 150   158 154 150   144 134 132   108  97  93    67  59  54    38  39  31    32  33  23    26  29  18    29  32  22    31  36  29    33  38  33    42  47  42    48  53  47    70  77  70    90  97  90    76  83  76    48  57  49    29  39  31  
  29  32  27    33  38  32    29  34  28    32  37  30    32  39  31    27  34  26    30  37  30    39  48  40    50  60  52    67  77  69    59  71  67    56  69  62    56  69  60    56  71  61    49  65  55    51  66  59    75  91  85    95 111 108    80  96  93    70  86  83    70  86  83    63  79  76    76  91  88    75  84  83    65  70  70    85  89  90    88  92  93   102 106 107   129 133 134   161 165 166   192 190 190   130 128 126    99  95  93   100  97  93    92  89  82    56  52  45    33  31  24    28  31  21    25  29  18    28  33  22    30  35  24    39  46  39    57  64  58    74  81  75    75  82  75    73  80  73    42  49  42    29  36  29    50  57  50    82  89  81  
  27  32  26    23  28  23    17  22  18    20  27  20    36  43  36    44  50  45    54  61  56    63  72  67    56  65  60    57  67  61    53  68  61    55  70  62    68  84  74    85 102  92    93 109 101    82  98  93    72  89  87    59  77  77    83 101 100    97 113 112    75  90  87    86  98  95    95 106 102    84  89  86    94  94  92   151 149 148   150 146 145   156 153 152   139 138 136   115 114 112   123 117 116    92  88  85    89  86  83    70  70  65    45  48  41    26  29  20    28  32  24    30  35  27    34  40  30    45  51  41    55  63  52    72  80  72    87  97  90    74  83  76    47  54  47    38  45  38    47  54  46    88  95  87   117 124 116   128 133 126  
  30  35  29    31  36  32    39  44  40    50  55  53    61  67  65    51  57  55    44  53  50    40  49  47    31  41  40    57  67  66    97 113 110    80  97  91    84 101  95    87 104 100    68  84  84    58  76  80    64  83  88    80 101 103    88 107 109    65  81  80    77  89  87    90 100  96   114 122 116   142 146 139   141 142 136   130 129 124   103 100  95    80  77  72    84  83  78   120 120 114    76  77  71    46  47  41    36  39  32    26  31  23    32  37  30    32  37  30    41  46  39    44  49  44    54  60  52    80  87  80    85  92  84    74  84  75    46  56  49    23  33  26    40  50  42    90 100  92   134 141 133   137 143 136    89  94  87    41  46  39  
  54  59  53    65  70  67    67  72  68    66  72  71    62  68  68    52  59  59    74  83  82    80  89  88    57  67  67    78  90  90   106 122 122    84 100 100    83 100 101    90 108 111    84 101 108   102 118 131   100 118 130    75  96 101    68  87  90   110 125 126   176 186 184   165 170 165   119 123 117    94  99  88    62  65  54    55  57  46    56  55  45    55  54  44    60  61  51    53  56  45    28  38  28    18  27  17    27  34  26    31  36  29    35  40  34    35  40  34    44  49  44    54  60  58    79  86  80    83  90  83    56  66  57    31  41  33    41  51  44    75  85  78   113 123 115   128 137 130    95 102  94    48  54  47    54  60  51   105 111 101  
  70  80  81    74  83  85    58  66  68    52  68  64    56  71  68    55  61  68    83  85  98    94 100 115    91 106 121    87 110 123   104 121 131   114 131 141   116 133 141   115 132 140   116 130 139    86 100 109    83  95 103   114 124 127   135 145 146   122 131 131   119 125 123    97 103  98    88  94  87    73  76  66    50  53  42    50  53  44    41  44  36    30  33  26    24  26  21    32  34  29    33  35  24    37  41  30    39  46  36    41  50  41    47  58  50    63  75  68    69  81  76    75  90  86    69  81  77    38  51  44    29  41  32    76  88  78   116 127 117    87  95  88    46  56  48    23  34  26    33  46  38    93 105  99   154 164 160   179 186 183  
  46  56  55    49  58  57    50  59  58    71  81  82    82  91  95    81  88  97    88  96 105    92 103 112    86 103 108    80 104 104    96 113 121   102 119 127    75  92  99    74  91  98    97 113 120   105 120 127   135 148 153   137 145 148   104 113 112    89  95  93   104 110 105   109 114 108    91  96  89    54  57  49    28  31  22    29  32  23    26  32  23    29  34  27    34  40  33    23  30  23    38  48  40    63  73  66    79  90  84    84  95  91    78  90  88    86 101  98    81  95  94    61  73  71    35  47  44    53  64  59    90 101  95    95 106  98    57  69  59    21  31  23    40  51  43    77  90  82   129 144 137   156 169 164   142 154 149   139 148 145  
  66  72  68    60  66  63    79  85  81   103 107 107   118 123 126   113 122 125    77  89  93    78  92  97    99 116 119    89 109 109    85 103 107   100 117 121   113 131 135   130 146 151   137 152 157   123 138 141   100 113 114    84  90  88   107 112 111   117 122 118    76  81  75    36  41  35    20  25  18    15  20  13    21  26  19    24  29  22    22  30  22    19  29  21    34  45  37    60  71  63    98 113 110   102 117 115    88 102 101    73  87  88    71  85  86    59  73  76    37  50  52    30  39  38    72  83  80   108 119 115    64  75  69    42  53  46    70  83  74   110 121 113   121 133 126   127 142 134   123 138 132   116 131 126    99 114 109   110 123 118  
  69  66  61    77  74  71   110 109 105   124 122 113   117 119 110   105 115 108    94 109 108    96 113 118   123 138 146   122 135 144   128 144 144   134 150 150   138 154 154   117 133 133    92 107 108    95 109 109    85  95  94    84  86  81    72  74  69    38  40  35    23  26  20    17  22  16    18  23  17    25  32  25    26  33  26    20  30  22    36  46  38    58  70  62    92 107  98   105 122 112    80  97  91    57  71  67    48  59  57    48  58  58    54  64  65    28  38  40    21  30  32    25  32  32    44  53  50    46  55  52    65  77  70   126 138 131   147 160 152   128 141 132   117 130 121    83  96  89    75  90  83    96 111 106   109 124 119    80  95  90  
 131 117 114   135 124 123   107  98  95   107 102  93   120 121 111   134 142 135   159 174 172   136 152 153   133 146 151   139 148 155   128 140 138   103 115 113    95 107 105    88 100  98    98 110 108   123 135 131   102 111 106    60  63  55    24  27  20    30  33  26    26  31  25    27  32  26    30  35  31    25  32  29    36  47  43    59  70  64    88 100  94    88 101  93    84  99  89    75  91  81    95 108  99    89  99  91    87  94  87    65  68  64    35  40  36    14  19  15    32  38  34    52  60  57    72  81  76   127 136 131   155 164 159   118 129 121    75  86  78    88  99  90    89 100  92    47  58  50    47  58  51    64  76  69    70  85  78    68  83  78  
 194 176 174   153 141 139   122 116 112   164 162 161   173 175 174   162 168 168   152 163 163    99 111 108    78  89  84    52  62  55    58  67  62    75  84  79    95 104  99    92 101  96    85  91  87    72  79  72    38  43  35    30  33  23    29  32  25    30  35  29    29  34  30    39  46  44    56  65  63    65  77  75    97 109 107   109 121 119   115 127 122   123 136 129   139 151 143   149 159 152   124 136 124    77  86  75    52  56  47    43  44  38    21  22  16    46  51  43    80  88  80    95 105  97   117 127 120   106 116 108    65  75  67    50  60  52    51  59  51    53  59  50    66  73  63    81  87  77    82  87  80   101 107 100   108 118 110   122 133 125  
 159 146 143   145 142 137   157 160 154   143 148 148   116 120 123    96 101 104    74  80  82    45  54  52    55  65  58    62  72  63    81  86  80    98 103  97    82  87  81    59  64  57    39  43  36    31  34  27    40  43  35    40  43  33    32  37  29    34  40  33    61  70  67    95 105 104   110 120 121   105 119 119   108 122 122   127 142 139   148 160 158   131 141 136    98 106  99    67  74  67    38  51  41    47  57  48    43  48  40    38  41  34    34  39  32    88  98  89   112 125 115    97 110 100    56  67  56    38  48  37    42  50  39    73  79  69   109 115 105   128 131 119   139 139 129   156 156 146   171 169 160   162 164 155   120 125 115    66  73  65  
  97  90  87    72  75  69    53  66  57    30  41  35    29  35  31    33  37  39    47  51  54    79  83  86    92  98  99   115 124 123   107 110 103    75  78  71    43  45  39    34  35  29    32  33  25    32  33  25    42  44  35    42  46  36    60  65  57   105 111 107   129 138 135   107 117 118   110 121 124   131 147 148   134 150 150   120 134 133    91 102 100    49  56  53    42  48  42    80  85  79    72  88  80    60  72  66    35  43  38    50  56  51    93 104  98   132 149 141   113 132 121    80  95  80    61  73  59    80  91  77   132 139 126   153 158 146   186 188 177   199 198 186   191 188 176   188 184 173   172 165 156   155 153 143   108 110  99    46  52  42  
  29  29  18    36  36  28    40  40  39    36  44  33    56  67  52    50  61  55    71  82  84    97 109 116   122 136 144   132 148 156    82  90  85    33  38  30    36  38  28    39  42  32    27  33  28    29  41  42    56  71  72    96 108 106   130 144 143   102 118 118   113 128 131   131 145 149   147 158 166   116 131 134    77  93  93    38  52  54    40  52  53    48  62  60    81  97  88    88 107  95    47  62  57    46  60  52    44  57  47   131 140 130   153 159 147   113 115 104    53  56  42    75  80  61   117 121 100   148 148 127   203 200 179   202 194 177   185 175 162   180 173 156   190 185 166   175 168 149   126 120 101   125 125 109    81  86  77    63  74  70  
  61  65  58    57  64  61    68  80  82   104 108 112   120 127 131    93 112 114   110 139 141   121 150 152   115 139 141    97 115 119    86  93  86    83  87  79    61  62  51    46  46  35    80  83  75   116 125 122   135 145 145   127 139 139    97 111 111    88 104 104   126 141 142   121 134 138    75  86  90    46  61  61    42  58  57    38  53  53    49  64  63    40  55  50    43  57  49    82  96  83   155 168 161   105 118 110    69  79  71    83  90  81    59  62  52    50  52  39    76  79  64   132 135 119   159 162 144   201 203 182   190 189 169   154 150 132   133 127 112   169 165 155   174 170 159   153 147 131   136 132 113   135 135 116    92  99  81    83  95  78  
