P3
50 50
255
  67  56  36    63  56  35    59  53  31    43  37  15    39  33  11    44  35  15    54  46  20    62  63  15    73  79  12    97 107  13    99 109  13    76  78  22    68  65  28    50  47  14    64  65  22    72  78  24    76  79  23    80  73  15    92  71  16   108  76  32   144  93  17   133  92  25   110  75  24   110  78  37   127  98  56   149 128  77   134 119  62   145 134  76   154 145  80   118 109  50   175 167  92   173 165  77   109  90  37    87  64  21    98  77  13    99  78  15    93  77   4    93  86   3    69  66  12    46  45  13    43  39  30    33  28  17    39  34  17    87  83  43   140 136  74   114 107  58    80  68  40    80  69  24    85  75  21    82  70  27  
  75  64  44    70  59  39    86  77  56    78  70  49    60  50  30    49  38  18    52  43  18    58  58  10    74  76  12    98 104  12    88  94   5    64  65  10    68  67  21    64  62  16    81  85  32    69  80  19    66  77  15    67  69  14    56  44   4    63  40   9   111  68  22   127  80  19   138  86  25   135  88  38   122  87  42   137 111  52   148 127  54   167 154  79   157 146  78   144 133  71   187 181 101   147 139  58    85  69  24    73  50  16    90  67  15   104  81  29    89  67  15    78  64   1    69  61  12    51  45  14    46  39  20    36  29  15    40  32  17    68  63  29   117 112  58   114 105  64    93  79  53    82  70  33    76  64  20    65  51  13  
 112 101  83    46  35  16    57  46  26    63  52  32    54  43  23    51  40  18    51  43  16    55  55  10    70  71  10    94  98  11    86  89  10    61  60   6    62  60   9    65  65  15    73  73  20    79  83  24    79  85  23    60  63  13    38  36   4    31  25   5    41  25   1    68  39   4    96  53   9   110  65  21   126  85  35   146 112  47   162 135  53   169 156  69   160 146  77   165 155  90   191 183 110   112 103  39    65  49  18    65  42  18    73  50   8    87  63  19    89  63  20    82  62   8    73  58  10    71  58  22    66  56   8    55  44  16    63  54  30    74  68  35    79  71  38    79  67  41    86  71  48   107  92  62   105  92  50    83  68  27  
 172 165 147    54  44  27    43  31  14    45  33  16    40  29  10    49  41  20    52  48  21    58  58  13    70  70  12    87  88   7    77  77  10    58  56   8    65  65  11    66  65  17    55  52   9    66  61  13    77  72  19    53  49  11    32  29  11    24  24  14    26  28   6    33  27  11    51  29  14    77  41  11   113  67  17   127  88  17   142 114  28   147 136  49   139 128  62   172 162 100   177 169 106    96  85  39    57  42  18    58  40  14    71  52  13    81  57  13    90  65  12   100  78  16    95  75  15   103  86  29   118 103  32    99  86  35    75  65  26    55  48  17    47  39  22    63  51  34    80  67  42   102  88  55   120 108  55   109  94  41  
 202 196 180    85  77  62    44  33  18    36  24   8    31  23   4    41  34  15    49  45  19    51  51   7    70  70  13    86  87   9    71  69  12    59  55  12    67  67  13    72  73  23    66  64  22    54  49  10    65  56  16    53  41  15    36  23  12    35  24  13    30  22  16    47  26  14    82  42  15   128  74  28   160 110  45   159 127  50   153 137  56   131 120  47   108  99  41   140 134  74   129 122  68    94  84  47    83  69  44    70  55  29    80  61  29    89  66  21   100  75  13   119  92  24   123  99  29   130 108  33   145 125  42   143 128  54    95  85  29    44  37   8    42  34  22    66  58  38    79  70  39    86  72  37   118 103  51   123 108  50  
 183 180 165   101  94  80    40  29  16    36  24  10    39  29  13    33  28   9    44  43  16    54  54   9    72  71  15    88  86  11    75  70  17    69  64  25    76  76  23    67  72  13    69  72  23    54  49  11    60  51  14    55  39  16    48  26  13    49  27   6    86  42  17   127  72  28   154  90  32   162 104  42   162 116  57   164 134  66   153 134  61   107  97  36    85  76  27   109 104  49    90  83  33    88  77  46   102  89  60    81  67  43    64  46  24    77  54  13    98  72   8   116  87  18   125  96  26   124  99  20   149 125  40   164 149  60   114 105  40    46  39  14    42  36  24    67  61  34    88  81  45    87  73  39   121 105  64   136 119  62  
 184 180 171   148 141 133    69  54  37    52  31  10    43  30  15    34  25  12    48  38  14    51  47   7    64  59  14    85  82  29    74  69  14    78  76  19    86  83  28    76  81  19    70  71  16    75  61  19    85  51  12   124  73  32   141  79  35   146  78  35   162  84  24   156  89  23   124  70  20    92  55  12    84  62  19    93  81  34    94  87  28    85  74  30    89  79  33   106 100  41   103  96  44    82  75  35    74  65  50    71  63  43    67  56  31    72  55  23   100  80  27   112  92  30    97  81  16   101  89  17   145 122  24   169 149  62   112  97  37    54  41  12    49  40  23    66  59  32    95  89  56   105  92  58   144 121  70   140 110  58  
 193 187 175   193 188 169   116 100  66    88  66  25    68  53  23    46  38  17    60  51  24    60  55  17    66  62  16    86  81  27    85  79  21    92  86  26    94  88  29    95  83  20   106  85  24   122  86  27   140  88  22   176 114  35   203 137  50   198 128  40   161  90  37   124  63   8    92  42  15    69  33  13    61  42   7    69  58  17    74  66  23    77  66  33    83  74  37    88  79  32    90  81  38    79  72  26    62  56  17    64  57  34    98  88  64   106  91  61    89  73  23   111  95  23   108  90  14    98  78  19   143 118  31   172 152  66   128 109  44    73  54  22    63  49  30    82  78  38   130 128  75   132 124  77   141 118  68   146 116  57  
 174 166 155   207 200 179   134 117  76    99  74  22    81  62  21    52  39  14    62  50  26    72  68  30    84  80  34   103  98  41   110 102  38   109 100  35   108  95  32   119  96  29   132 100  29   147 101  25   176 120  32   191 129  36   188 126  38   156  97  20   133  76  29   112  64  12    87  48  12    76  50  12    92  81  22    88  82  33    68  61  30    67  57  33    66  57  30    58  49  16    60  51  17    89  82  31   101  95  31    76  70  25    94  88  54   149 140 111   115 104  67    96  82  25   105  87  18   114  90  30   132 107  29   160 135  50   152 128  48   122 100  43    87  70  35    76  69  29   128 127  80   125 115  81   105  77  47   127  90  47  
 130 117 108   197 188 173   158 139 104    98  67  22    74  49  12    51  33  11    52  38  16    58  52  17    76  71  24    95  88  29   108  98  31   120 104  35   137 117  49   151 122  53   158 118  47   160 110  33   181 124  40   175 118  41   138  85  30    94  45  13    81  40   1    82  46   2    79  53   6    94  81  16   104 100  22    91  87  26    72  66  30    78  68  42    68  60  36    45  37  17    47  37  15    81  74  28   120 115  39   112 105  27   100  91  31   134 127  84   119 112  77    87  75  43    92  76  29   135 117  47   152 129  46   141 116  32   147 121  31   149 125  44   110  92  39    55  45  13    75  71  45    88  77  56    80  50  30   107  68  31  
  92  77  57   175 167 151   189 171 147   113  82  46    76  47  12    64  43  14    58  41  13    56  46  14    72  62  17    91  81  20   110  96  26   127 107  35   151 125  55   158 122  53   153 106  39   147  92  28   144  86  24   138  85  28   115  69  26    85  48  20    64  36  14    53  28   8    62  45   7    89  79  20    81  74  14    84  79  25    87  80  34   102  93  57    81  73  46    36  28  16    41  31  20    53  44   9    91  85  19   138 129  32   135 126  30   125 119  36   113 109  43   100  93  44    95  85  38   117 106  43   137 115  42   128 104  28   146 121  30   153 131  39   127 109  50    72  59  31    67  60  35   103  91  59   132 105  62   149 114  57  
  87  66  35   150 142 123   199 188 167   130 104  72    75  47  10    78  52  16    72  49  14    62  46  17    70  57  13    94  82  22   120 105  34   131 109  37   145 114  45   141 108  40   102  67  10    87  48  10    78  40  11    76  44  14    73  51  17    65  48  14    53  33  26    47  31  11    70  63   2    84  80   6    71  62   9    91  78  32    96  84  32   112 102  54    79  70  38    28  19   9    32  23  13    35  28   6    61  53  11   108  96  16   125 116  12   124 119   7   120 118  11   114 113  16   111 108  29    88  79  26    78  57  13    98  77  19   140 123  33   144 129  33   121 104  46   102  87  58   116 105  73   153 137  96   153 129  74   130 102  43  
  86  58  31   127 119 106   200 195 181   161 142 115    75  47  15    78  46  15    80  48  19    70  47  20    77  59  16   109  94  33   135 117  47   144 120  47   153 121  53   130 104  44    71  48   5    49  28   8    44  26  17    39  28  16    36  30  12    36  31  11    38  26  12    65  60   6   112 115   8   109 110   9    89  78  19   101  85  34   107  91  35   113 100  47    69  59  26    34  25  14    29  23   9    32  25  11    41  31  12    64  53  10    87  79   8   104  96   1   120 113   4   129 123  10   135 130  26   119 111  26    79  64   8    74  59   7    95  83  15    98  88  17    86  71  29   104  87  56   138 121  80   167 146 106   134 108  65    82  57  26  
  65  29  19    92  82  82   188 185 181   199 183 163    96  69  45    77  42  23    70  33  16    72  47  22    89  69  27   125 109  49   135 116  46   128 102  32   129  96  31   111  78  32    71  41  14    51  28  13    40  24  14    35  25  10    30  21   4    33  21   7    38  34   1    90  92  10   128 135  10   100  99   3    91  79  24   109  90  33   122 103  42   116 101  48    61  50  17    33  24  13    28  25   6    29  24  13    36  26  21    41  33  17    53  46  11    80  68   6   102  86   4   102  85   1   122 109   5   139 131   1   116 112   2    80  70  14    60  47  19    54  42  17    60  44  23   100  84  45   136 119  63   157 132  89   122  96  64    62  39  27  
  30  26  21    61  51  46   157 153 142   202 199 179   129 107  83    82  48  21    75  45  14    88  62  26   100  81  31   114 101  43    98  85  34    78  58  21    73  48  19    55  36  11    50  25  11    48  20  11    42  29   8    29  31   2    27  24   8    33  16  20    52  42   8   102 109   5   108 116  11    84  79  10    96  83  14   104  89  34   131 121  56   148 138  65   100  85  27    44  26   8    32  24  18    29  28   5    36  31  12    35  28  14    32  26   5    47  42  11    68  62  15    78  68   5    91  78   1   113  97  10   110 100   7   102  91  21    85  74  21    71  54  18    71  49  27    90  69  36   121  99  50   154 123  79   121  92  43    64  40  10  
  24  18  13    47  37  32   122 120 111   194 194 178   157 141 121    74  42  18    95  64  33   123  91  52   109  87  36    90  77  25    73  60  19    58  43  15    48  31   9    32  22   1    27  15   4    30  15  11    39  28  16    37  31  16    31  23   9    36  24   7    63  57   8   105 114   4    94 101   7    82  79  12    86  74  20   107  93  44   161 150  84   189 177  96   145 128  63    62  44  20    29  20   9    30  27   4    28  22   5    33  24  12    33  26  10    32  25   4    44  36   3    68  57   8    84  70   5    88  70   1    92  74   3   112  98  27   112 101  29   102  90  27    92  74  32   100  82  43   124 102  55   142 111  63   123  92  44    81  55  30  
  29  18  13    34  26  24    80  81  77   166 170 162   171 159 146    70  43  23    89  60  29   117  84  42   105  78  33    85  66  25    68  54  28    48  35  19    34  22   7    31  23  10    29  22  12    36  30  18    40  33  18    33  23  12    29  19   8    37  30   5    80  78  12    94 105   1    73  79   4    80  77  17    69  56  18   108  94  53   183 173 105   179 162  80   138 117  52    77  55  28    46  33  19    37  31   9    33  25   9    31  23  12    32  24  14    32  23  14    38  28  13    53  40  12    74  59  13    99  83  25   103  79  15   105  86  14   113  99  17   107  97  17    93  83  22   110  96  47   124 105  53   139 106  55   131  98  50    91  62  39  
  34  19  12    30  23  19    53  56  55   134 139 137   181 176 168   110  90  74    81  55  29   104  75  39    97  73  36    83  66  37    64  49  30    41  27  13    37  24   6    54  33  13    65  44  14    60  45  13    42  30  15    28  19  13    26  18   4    44  34  10    88  89  12    87  95   4    60  65   2    70  66  18    73  58  28   111  98  58   162 150  84   154 133  66   120  94  41    69  44  20    43  28  14    41  34  15    41  31  17    39  30  16    35  27  16    30  21  14    34  23  17    39  26   8    52  37   6    88  71  28   117  91  30   112  85  20   108  88  17   106  94  26   124 117  57   147 137  78   123 106  50   125  93  46   134 100  54    93  63  35  
  30  14   6    26  20  15    38  40  39   118 120 120   205 205 197   170 159 147    70  51  33    73  55  28    83  66  38    70  54  28    46  29  11    41  24   4    55  37  10   101  65  20   126  82  22    98  57  10    47  20  10    28  18  14    27  23   3    58  47  16    87  87  14    75  79  12    57  61   7    61  55  20    79  65  32   108  96  52   112 100  41   107  84  42    91  64  32    54  31  15    33  19   9    42  34  16    48  38  22    42  32  15    42  33  17    34  26  16    31  22  14    35  24  10    39  26   2    53  38   4    94  66  16   104  74  22    91  66  16    95  83  36   148 145  96   176 173 118   138 123  73   109  78  42   115  82  39   105  75  38  
  36  20  10    30  25  15    32  29  23   102  99  94   200 201 193   183 180 168    62  50  37    64  53  33    66  55  29    54  40  13    71  54  27   104  84  54   123 102  63   130  91  40   139  85  19   135  76  15    87  41   7    47  25   2    38  28   1    54  43  18    76  72  10    66  65  17    57  58  10    51  43  11    75  61  23   105  91  47    84  71  26    68  48  25    58  35  19    47  26  17    35  23  13    32  25   8    37  28  10    34  25   5    43  35  16    44  37  22    40  33  19    39  32  14    39  28   5    42  30   3    72  45  12    89  57  18    74  47  11    65  53  23   126 127  91   163 158 121   122 108  76    91  67  38   109  81  41   139 111  71  
  45  32  20    42  36  22    37  27  16    78  67  57   148 149 136   153 156 145    72  67  56    70  61  42    81  70  41   109  96  61   153 139 103   135 117  77    92  75  28    81  55  16    90  48   2   136  75   9   141  78  10    97  53   3    57  33   3    43  31  12    68  61  12    75  72  26    61  58  16    57  46  11    86  68  31   105  87  51    64  49  19    48  35  17    40  23   9    35  21   9    35  27  14    36  31  15    39  30  12    39  28  11    38  29  12    39  32  14    43  36  18    41  34  15    36  28   9    36  24   8    50  26   1    75  45  14    69  43  17    63  53  33   140 143 119   162 158 134   107  93  75    90  72  46   105  81  47   150 122  88  
  48  35  23    48  41  25    47  34  18    61  45  31    99  99  84   138 144 132   102  98  89    81  69  49    98  87  55   141 130  88   172 159 117   116 103  58    90  78  28    72  66  30    67  42  12   116  59   1   163  88   8   146  79  19    76  40   7    48  41   9    84  73  31    84  80  29    67  62  25    87  76  36   106  86  52    95  74  46    44  29   9    33  27   4    38  26   9    39  27  11    37  31  15    33  29  14    34  25   8    35  23  12    33  23  11    35  28  10    35  30  10    35  29  10    37  28  14    39  29  19    58  37  10    69  42  10    63  36  17    78  68  60   158 161 145   153 150 130   105  92  76   102  88  63   115  92  63   148 121  94  
  61  58  15    54  51  11    67  62  30    74  68  51    83  80  70   146 147 139   145 147 135    65  61  47    48  43  26    82  79  46   149 146 103   101  95  55    75  67  24    78  70  28    79  64  29    84  53  16   114  62  15   128  72  14   107  63  11    77  49  11    75  67  18    84  69  26    97  84  53    83  73  45    79  64  29    93  78  44    45  34  13    34  24  12    34  24  12    33  23  11    34  24  12    35  25  13    35  25  13    30  23  10    36  27  11    38  28  10    33  25  11    32  25  14    37  26  13    51  32  16    85  57  11    78  47  26    58  36  24   103  99  81   166 173 156   117 116 104    84  78  58    96  87  59   126 112  83   159 139 106  
  72  69  28    78  76  30    95  92  49    95  91  63    86  84  68   146 149 132   154 155 137    73  65  59    43  32  28    60  48  28   144 133  86   116 106  53    48  36   5    36  25   3    48  36  10    67  49  16    80  49   9    98  57  16    97  61  18    96  72  28   103  93  40   101  85  40    72  61  30    57  50  24    90  76  47    88  73  49    43  32  17    33  23  11    33  23  11    33  23  11    33  23  11    34  24  12    34  24  12    37  29  15    42  32  14    44  31  14    40  29  15    31  23  12    33  21   6    53  33  14   100  70  18    87  55  29    69  46  29   115 106  85   148 145 130    83  73  61    74  61  44    94  84  61   122 108  81   123 103  69  
  64  59  21    72  67  30    72  66  33    67  62  38    71  69  53   125 127 116   172 172 165   122 115 109    58  43  36    71  52  28   150 134  79   135 122  61    67  53  27    37  26  15    28  22   8    24  21   4    43  34  13    62  45  16    94  72  34   116  95  49   104  90  41    89  69  27    50  36   9    61  54  35   121 106  85    75  59  44    28  18  10    31  21   9    32  22  10    32  22  10    31  21   9    31  21   9    33  23  11    37  29  13    41  30  10    48  33  13    48  36  20    37  26  14    36  20   6    57  35  15   101  70  27    84  55  31    83  60  43   134 121  98   130 119  99    75  57  36    80  61  37    96  86  66   120 106  79   104  83  46  
  87  81  23    64  54  19    47  35  17    60  51  33    88  84  65    94  94  87   164 163 165   159 158 147   108  99  72   110  94  49   127 110  54   106  92  43    67  57  32    36  28  13    23  18   9    19  18  13    27  25  12    65  58  29    92  81  40    85  70  27    77  58  18    87  65  32    66  52  32    75  68  52   126 114  95    64  51  37    28  20  12    28  20   7    29  21   8    31  23  10    29  21   8    28  21   7    32  24  11    41  32  15    46  34  12    56  40  18    58  43  25    43  30  14    37  19   1    54  29   6    74  43  23    62  36  26    93  76  64   149 137 117   120 106  83   101  81  48   103  84  46   103  94  69   130 116  85   125 103  62  
 122 115  27    85  73  16    62  46  16    65  52  30    81  74  52    63  60  46   131 133 127   153 158 146   148 147 116   132 123  72    86  72  27    47  35   9    32  26  10    26  20  10    19  12   2    32  25   6    69  62  33    93  87  49    77  69  31    53  40   8    74  49  21    71  47  22    80  66  50   120 115  99   140 130 108    53  41  23    29  21  10    27  19   8    28  20   9    30  22  11    29  21  10    27  20   8    31  23  12    41  31  15    49  35  14    60  43  19    63  46  25    54  36  18    53  30   9    67  36   9    60  35  20    51  34  26   108 101  89   150 145 127    91  79  63    89  73  45   107  93  54   114 106  74   136 122  87   133 110  69  
 120 104  20   107  89  21    84  64  20    52  34  12    44  32  19    49  42  30    99  99  85   145 150 142   162 161 145   137 129  95    90  80  47    47  36  21    25  17   6    19  11   6    29  18   1    77  64  19   116 105  54    88  80  39    60  50  20    55  41  14    76  54  27    72  48  25    80  68  52   129 125 109   131 121  95    50  38  15    31  22   9    27  19   8    27  19   8    30  22  11    29  21  10    27  19   8    30  22  11    40  29  14    50  34  14    63  43  19    66  46  23    62  42  20    72  47  19    89  56  22    73  49  20    69  58  36   128 128 109   133 134 120    52  43  41    51  38  27   107  97  68   132 124  89   128 114  78   114  92  51  
 115  90  26   120  95  31   106  83  29    76  54  23    58  40  26    67  55  43    73  69  55   120 119 112   157 153 142   119 112  92    86  76  49    75  64  36    52  41  14    42  33   5    80  68  27   119 106  54    89  78  32    55  48  15    53  43  15    67  52  19    82  61  28    80  59  29    98  89  68   134 132 113    96  87  61    41  27   7    28  17   6    28  20   9    27  19   8    29  22  11    30  22  11    28  20   9    30  22  11    44  30  18    54  36  19    69  47  24    68  46  23    63  40  14    77  49  17   101  64  25    92  65  25   101  89  56   144 145 117   110 111  95    35  27  28    59  48  43   131 123  99   135 126  96   115 101  69   121  98  60  
 131 101  39   130 102  35   126 101  34   112  90  34    81  65  25    85  74  47    80  70  53   109 103  92   164 158 138   126 119  98    80  68  39   104  91  44   132 117  65   140 131  68   145 135  78    87  72  33    42  32   8    44  40  16    52  44  12    89  73  31    84  67  24    93  76  38   116 109  82   126 125 105    75  66  41    58  41  24    38  25  17    29  21  10    27  19   8    29  22  11    31  23  12    28  20   9    30  22  11    40  26  15    51  32  18    71  46  24    72  49  25    63  39  12    79  49  13   107  69  27   116  79  42   134 117  83   156 155 122    92  92  72    33  24  20    91  81  69   149 141 115   112 100  78   100  84  57   145 122  89  
 133 119  46   130 112  40   131 109  42   125 102  45    92  70  28    75  58  31    67  55  38    90  88  80   162 162 154   165 161 150    99  87  64    94  82  43   101  96  45   105 100  45    80  72  34    39  32   6    47  40  11    61  50  20    77  63  20   103  90  22   109  80  26   116 103  51   107 102  72    92  85  70    69  54  32    76  59  29    57  41  15    34  27  11    29  22   5    27  20   1    34  26   7    28  19   3    30  21   6    50  28  12    57  32  10    67  49  19    65  47  19    75  49  18    95  60  17   130  90  31   137  97  36   163 130  78   167 141 106    90  71  50    50  38  22   121 115  92   133 124 103    83  67  52   102  87  57   146 130  87  
  87  68  28    91  69  26    98  75  28   107  83  37   105  83  40   108  93  57    90  78  50    91  84  71   143 144 128   198 197 179   158 150 130    68  53  29    42  31   2    53  43  12    59  48  25    55  43  19    75  64  26    85  72  26   105  89  36   123 106  35   115  88  24   133 119  64   131 126  88    71  64  41    68  53  28    81  62  32    59  43  18    27  17   9    29  19   9    42  29  20    37  24  15    31  18  10    35  22  17    52  29  20    62  37  18    73  50  18    83  58  22    93  62  22   103  65  16   126  84  25   147 108  40   158 124  63   152 125  72    99  78  33    84  68  29   119 106  74    95  80  54    66  49  20    98  81  43   141 122  79  
 124 106  66   113  94  51    99  77  31   109  86  41   121 102  61   109  94  60   104  88  64    97  83  72   136 132 117   195 196 180   195 189 170   104  92  71    67  53  26    75  62  26    85  71  32    80  69  17    98  86  20   108  92  24   133 113  48   139 117  47   133 106  54   153 136  95   141 132 100    74  63  36    62  46  19    78  58  24    56  40   1    46  32   6    57  43  16    62  48  21    54  40  14    48  32  10    48  31  12    53  32  14    68  45  19    80  54  14   101  68  21   110  72  21   111  69  13   131  87  26   151 113  38   164 128  58   148 118  46   124 100  23   123 103  31   115  92  39    81  57  16    94  72  23   108  88  38   113  90  45  
 196 185 123   165 151  89   143 125  65   120 101  46   105  87  40    88  73  34    81  63  33    84  63  41   104  95  73   163 161 145   197 194 181   137 128 107    94  79  48   123 109  61   146 134  77   146 132  66   151 133  61   155 134  63   176 152  86   185 156  96   178 151  97   170 152 107   131 122  72    91  80  26    83  67  11   118 101  31   119 107  29   108  97  30   102  92  23    94  81  13    89  74  10    85  71  10    81  66   8    73  55   8    83  61  14   103  73  22   113  77  21   114  72  12   122  77  13   134  89  22   164 125  46   184 145  72   163 126  48   156 125  30   154 125  25   128  97  13   115  84  13   129 103  33   118  93  33    99  72  25  
 175 162 109   174 159 101   159 143  84   140 124  64   117 101  41   133 118  63   140 123  69   139 119  65   112  97  58   122 116  95   188 185 177   175 166 152    98  84  54    75  58  17    94  76  28   112  92  41   131 109  58   157 133  80   179 152 101   194 166 118   201 174 127   176 157 114   157 143  93   158 143  85   117  97  36   164 146  75   179 167  82   151 139  55   134 120  36   139 124  39   138 123  40   137 122  42   135 119  43   127 111  38   123 103  35   117  87  28   116  78  20   144 100  40   169 124  58   163 119  48   174 132  59   179 135  70   160 117  45   168 130  33   167 130  18   153 117   8   161 125  27   152 121  35   132 102  33   120  90  38  
 171 153 112   183 166 122   172 154 106   157 138  86   145 126  70   161 141  88   174 153  97   177 154  95   145 125  79   121 108  82   166 160 149   182 177 161   155 146 110   143 129  79   140 123  68   126 105  53   117  93  50   127 103  60   133 109  65   144 118  82   158 129  96   137 113  82   158 138 103   183 159 122   143 115  78   212 188 147   217 198 147   195 175 113   188 169 104   184 165  99   178 159  93   175 155  93   177 156  96   179 159  86   184 162  91   141 112  54   121  87  32   166 128  68   183 140  74   178 133  65   182 141  78   163 118  61   152 105  43   164 119  35   163 121  13   159 120   3   170 132  20   170 136  42   160 127  52   140 108  49  
 205 186 144   203 184 141   161 141  97   143 121  77   147 124  80   136 111  70   161 136  94   172 147 100   165 137  95   146 125  97   158 147 133   184 179 163   193 186 154   194 181 130   206 191 127   211 192 132   210 187 140   207 185 140   208 188 144   213 194 161   182 154 117   155 133  90   164 142  99   136 108  69   113  84  44   166 141 101   184 161 123   211 187 150   228 204 164   223 200 158   224 200 156   222 197 156   217 192 152   215 187 136   205 177 126   134 107  61   105  78  27   133 101  42   149 111  49   169 124  67   161 117  68   143  96  45   145  95  37   156 107  34   160 114  23   166 123  18   175 136  28   189 154  59   194 159  82   167 134  71  
 195 174 131   191 170 125   174 153 107   159 137  92   158 134  90   140 112  72   139 111  71   154 128  84   146 116  69   142 117  82   144 131 115   190 183 176   208 201 187   198 182 157   207 188 147   210 189 143   213 191 150   213 195 148   226 211 163   227 213 178   191 160 138   195 171 134   234 210 174   201 170 137   151 119  79   174 147 105   190 166 133   185 160 129   177 153 119   167 141 104   179 154 114   204 179 139   214 188 151   199 167 133   143 111  80    90  64  30   111  88  40   137 111  51   153 117  60   150 103  56   144  99  58   140  92  44   138  88  31   136  86  20   138  90  11   149 105  15   165 123  27   186 148  55   188 151  75   167 133  68  
 198 180 141   180 160 117   156 132  83   158 130  78   149 117  68   150 117  72   162 129  88   156 126  85   145 122  76   143 127  86   129 117  92   160 152 137   191 184 169   175 164 137   196 175 137   193 166 119   174 149 103   173 156 116   186 170 134   201 180 143   134 109  79   160 140 106   207 187 149   183 157 118   156 128  89   212 190 151   225 210 172   220 202 166   221 199 165   199 174 139   157 128  94   146 121  88   144 120  86   119  98  66    87  64  36    75  47  23    87  61  32   101  76  41   115  85  41   121  84  37   125  84  31   132  86  45   132  83  36   119  69  12   120  72  10   136  90  16   159 123  35   173 148  69   186 160  86   166 141  60  
 236 219 175   189 170 123   143 121  71   141 116  67   134 108  59   154 127  82   158 132  89   183 155 111   194 171 123   193 174 130   171 156 122   151 140 118   134 126 110   125 111  89   167 145 112   189 163 119   181 156 112   204 183 146   216 194 162   164 137 107   122  98  67   140 121  86   172 152 114   176 150 113   139 111  76   195 172 138   202 186 150   169 150 115   166 144 110   211 187 153   231 207 174   225 201 170   212 190 158   197 177 144   204 181 149   171 145 112   127 102  65   120  97  52   117  87  38   126  87  37   124  81  37   122  75  38   128  78  32   123  72  14   117  63   3   131  78   8   173 127  48   210 178 107   219 187 120   183 154  81  
 199 180 124   171 149  95   149 126  73   149 126  74   140 118  68   162 142  93   151 131  83   145 121  73   172 145  98   183 158 110   188 167 121   178 161 126   147 134 113   139 125 106   142 123  99   182 158 121   223 199 159   244 222 186   227 202 175   162 132 110   176 152 118   207 187 152   210 190 152   204 177 142   157 127  95   220 197 165   244 227 193   216 196 159   179 156 121   221 198 166   246 223 192   238 218 187   243 225 193   244 228 195   248 228 191   250 225 183   233 210 160   209 186 132   169 138  85   144 105  54   127  84  49   108  61  25   117  66  19   129  72  12   129  69   7   139  78  12   174 120  48   205 165  98   209 171 106   177 143  73  
 171 142  72   165 136  68   160 130  66   147 120  60   137 111  55   146 126  71   157 137  84   147 126  76   151 125  78   142 115  63   150 123  69   174 153 109   167 149 123   164 151 134   174 159 139   196 180 146   218 200 162   221 202 167   176 153 125   128 101  80   211 187 152   226 207 170   220 200 162   214 187 153   174 145 115   230 208 176   253 235 200   230 208 168   201 180 144   237 217 183   248 229 197   235 216 184   235 219 186   231 215 181   236 217 180   240 217 172   215 192 139   201 178 121   172 141  89   136  93  48   128  85  49   130  84  41   157 105  48   157 100  31   147  83  12   148  81  11   158  97  24   170 122  45   164 121  45   146 108  33  
 163 122  40   156 118  36   156 119  39   143 108  35   143 113  46   147 121  61   154 133  77   142 123  72   144 122  72   139 112  58   130 102  44   145 120  70   148 123  90   163 150 129   183 175 152   180 172 143   200 188 152   192 176 137   127 108  73   129 108  79   223 201 159   239 221 178   220 200 159   182 155 119   145 116  82   227 206 169   244 227 186   215 193 150   198 178 137   225 207 170   239 220 187   229 213 177   221 206 168   222 207 170   236 214 175   197 173 128   169 147  96   202 180 127   180 149 102   126  85  44   124  82  39   162 118  63   207 157  89   182 127  48   156  95  12   164  99  17   166 104  22   170 120  28   161 115  25   140 101  18  
 163 117  30   163 118  29   172 130  39   160 123  35   152 118  43   145 116  52   126 102  46   118 100  50   119 100  49   122  99  47   118  92  39   118  89  42   126  94  56   145 126  95   173 163 136   172 165 137   176 165 131   156 140  99   121 102  59   137 120  77   218 196 147   225 207 160   229 210 165   202 176 135   136 108  68   221 200 155   226 210 162   198 177 129   198 178 134   216 198 158   224 207 166   219 201 158   215 197 150   215 197 151   210 187 143   182 156 110   184 161 113   207 185 136   179 151 105   126  90  48   127  86  33   157 115  49   194 147  72   174 121  40   162 107  17   178 121  31   173 116  30   187 135  39   174 129  31   156 116  28  
 165 118  37   175 130  42   179 139  42   166 130  36   149 118  37   137 108  47   105  81  29   103  85  36   108  92  40   113  97  45   117  95  48   112  82  39   115  77  33   124  94  55   164 147 113   190 176 150   172 155 124   139 115  73   141 117  65   150 129  74   206 185 132   214 197 145   221 203 153   206 182 134   128 102  54   199 180 126   194 180 123   191 170 118   199 180 131   202 185 139   205 187 141   199 179 128   198 176 121   181 160 102   179 154  98   189 162 109   205 183 133   204 184 134   179 155 105   126  94  47   129  88  31   144 103  32   160 114  40   151 103  27   162 113  23   169 120  28   150  98  14   171 119  32   158 112  21   154 113  32  
 159 116  40   173 132  44   167 130  32   159 125  28   146 117  37   129 103  46   105  80  35   109  90  43   118 106  52   110  98  48   106  87  47   112  81  40   118  77  30   126  90  43   153 126  90   181 160 135   182 158 131   148 117  76   138 108  51   141 117  53   186 166 111   191 175 119   200 183 130   192 168 117   104  79  23   156 138  78   164 150  87   195 175 121   187 168 117   176 158 110   184 166 116   181 159 103   169 143  84   148 126  57   176 152  85   173 147  89   165 142  89   162 142  90   147 124  71   116  86  32   125  85  25   146 105  34   146 100  30   134  86  16   152 107  22   161 118  27   135  89  10   147  94  20   141  94  11   149 110  32  
 146 114  42   160 128  49   152 120  34   143 114  29   125  98  25   110  85  29   108  87  40   102  89  42   111  95  48   101  82  46    93  69  34   106  82  33   107  81  28   137  95  45   145 107  64   164 137 107   177 152 119   146 113  69   137  99  40   146 109  40   166 135  63   168 133  61   182 147  76   170 141  79    93  71  23   118  95  41   155 132  65   191 172 111   186 168 106   158 139  76   153 132  69   155 129  66   155 124  64   164 139  80   181 156  98   178 149  93   152 127  67   149 129  66   124 101  42   110  80  26   125  84  21   129  88  16   137  93  14   130  85   6   133  87  12   143 100  22   125  82   6   127  84  11   137  95   9   156 118  20  
 149 119  51   147 118  40   147 120  35   137 112  30   117  94  24    93  72  15    88  70  21    78  64  24    91  74  34    97  78  36    91  68  27    96  70  30   102  74  32   120  85  38   127  98  57   167 151 121   205 189 160   174 152 113   117  91  36   118  93  28   150 121  53   159 126  58   163 131  62   155 129  68    91  69  21   118  95  41   153 131  63   178 160  98   159 141  78   139 120  54   135 114  47   140 114  47   149 120  52   150 125  58   150 123  67   163 133  80   158 135  75   131 110  56   101  73  24   117  82  23   140  98  22   144 101  21   142  97  17   134  88  12   137  90  15   146 104  21   133  95   6   134  99   5   144 110   6   149 117   9  
 138 116  48   130 109  31   142 121  39   133 113  41   113  94  34    97  82  24    90  77  23    74  59  23    73  57  24   100  82  38   100  79  33    86  61  25    94  69  32    97  74  28    81  65  27   118 111  88   193 188 166   195 186 154   116 102  57    96  80  29   126 102  40   141 111  50   151 122  57   149 125  65    97  74  29   117  93  41   144 119  53   142 124  60   126 108  43   136 118  52   148 129  61   148 124  55   147 119  49   138 110  42   127  97  44   140 114  65   140 120  65   100  78  37    88  53  13   141  97  29   145 101  12   150 106  12   143  99   6   136  90   3   133  88   5   138  99  11   132  99   1   137 109   1   141 114   2   144 119   5  
 128 108  44   121 103  30   117 102  28   101  86  23    84  73  18    94  85  27    95  86  28    87  74  31    78  62  25   101  84  42   109  91  43   101  80  36   111  89  45    95  78  33    64  53  20    76  71  55   168 166 153   210 207 185   140 135 101    70  62  21    92  72  21   112  88  35   136 111  51   132 110  55    87  64  22   111  87  37   148 126  60   138 123  57   130 115  52   138 119  60   137 117  58   128 103  45   131 102  44   135 104  49   120  91  43   142 118  74   127 110  67    87  66  33   105  68  25   167 119  43   164 119  25   167 124  18   162 120   6   150 108   1   136  96   1   136  97   4   127  93   1   127 102   2   122  99   1   129 108   2  
