P3
50 50
255
 189 155  58   180 147  50   179 146  49   183 150  53   180 145  53   175 139  51   175 138  56   175 136  58   172 133  57   169 130  55   181 135  73   182 137  72   176 129  64   172 125  58   156 108  39   140  93  20   151 104  31   159 117  41   147 108  28   128  95  20   115  89  20   108  87  18   109  92  14   114  93  15   135 110  27   146 122  23   138 114   2   146 124   9   142 123  12   120 103   1   116  89  12   115  89   6   113  91   1   116  99   1   118 105   4   114 105   4   107 100   1   116 110   1   124 116   8   120 110   9   118 105   8   124 109  21   116  98  23   107  82  27   103  70  32    96  58  20   111  74  18   128  91  23   128  92  18   135 103  19  
 177 141  44   175 139  42   176 142  45   178 142  47   173 136  45   170 133  45   169 131  47   174 133  54   172 130  53   167 125  51   170 126  54   174 130  59   175 130  61   183 137  68   180 132  65   169 121  55   172 125  59   164 123  53   150 113  39   142 110  37   138 109  41   127 104  34   125 107  26   130 108  31   137 112  31   141 116  22   135 111   5   141 118   8   140 119  12   125 105   5   118  95   1   125 104   4   131 115   8   132 121   7   123 113   1   118 111   1   118 113   1   127 122   7   131 123  16   124 115  12   120 107   6   125 110  15   118 100  16   105  78  16   101  66  23   105  66  23   126  87  24   142 104  28   141 107  20   145 112  16  
 178 139  36   176 137  39   173 135  38   171 131  39   163 122  32   158 117  29   156 114  28   166 123  42   172 126  49   175 129  54   170 123  45   174 129  52   177 133  59   191 148  78   200 157  91   198 154  91   194 154  92   182 142  78   164 129  59   162 129  57   155 127  58   141 116  43   140 118  39   142 119  44   133 107  31   133 107  19   129 104   8   130 105   7   133 109  14   129 105  15   124 105   1   137 119  10   150 136  20   155 145  26   150 142  25   151 146  29   153 147  34   146 139  30   138 129  24   139 128  22   132 120  12   126 111   6   129 110  14   127 101  17   119  85  19   114  78  19   123  86  15   129  92  13   130  94  11   134  99   9  
 185 144  38   184 142  41   181 139  40   172 129  37   160 116  27   159 116  24   158 114  26   167 123  38   174 128  49   185 139  63   185 139  62   183 139  62   180 137  63   185 144  72   191 153  82   189 150  81   184 147  78   178 141  72   161 126  56   159 126  55   155 125  55   145 117  46   152 126  51   144 120  46   129 103  29   133 108  26   132 106  21   123  96  11   119  91   7   113  84   3   126 106   7   140 122  19   151 136  30   164 151  43   174 163  58   176 167  67   168 159  59   162 151  48   153 139  40   140 127  22   135 122  10   137 121   9   138 121  15   138 113  17   124  92  15   111  75  12   107  73   5   109  73   4   117  80  11   124  88  11  
 173 133  23   180 138  34   184 142  40   179 136  40   170 127  32   175 133  35   178 135  38   176 132  41   175 130  47   188 142  64   186 144  72   185 143  71   182 142  69   184 147  70   190 154  76   187 154  72   181 147  68   173 139  62   158 125  50   159 127  52   162 130  56   160 130  57   165 135  64   145 121  45   125 102  24   135 109  32   132 105  31   123  94  20   124  92  20   120  86  15   140 117  24   149 127  32   156 137  39   167 151  53   177 160  68   175 159  71   165 149  61   168 151  58   155 139  45   137 120  20   133 117   5   139 124  10   137 121  11   128 105  14   111  82  18   102  70  20    99  68  13    99  68  11   107  77  16   113  84  14  
 164 129  13   172 136  26   180 141  34   181 142  39   176 139  35   179 142  35   181 144  38   172 134  35   170 131  43   181 142  62   191 152  84   188 149  80   188 151  77   189 154  74   191 159  74   187 155  68   177 145  57   165 130  50   149 115  38   155 122  43   166 135  52   166 138  56   164 135  60   143 120  38   127 104  24   133 110  34   133 106  35   130 100  33   138 104  38   139 101  36   158 128  38   161 133  40   165 140  45   172 149  54   174 150  59   172 150  65   170 147  64   169 143  59   153 128  44   135 114  22   133 116  12   133 119  10   130 115  10   122 104  16   105  84  23    92  69  27    85  63  22    81  59  19    83  60  19    85  63  13  
 168 137  20   170 138  26   172 137  27   173 138  30   175 143  31   173 142  25   177 146  31   172 140  34   178 144  53   189 153  74   184 150  79   176 142  69   176 142  66   179 147  65   184 152  67   180 149  59   168 135  48   149 112  35   138 101  26   153 121  38   175 146  53   180 154  58   178 152  62   168 145  56   155 133  47   160 137  60   159 133  65   156 124  60   155 118  55   148 110  45   155 120  35   161 126  39   163 131  41   163 133  43   161 131  45   163 135  52   161 131  53   156 124  48   144 114  39   131 106  21   133 115  19   136 121  21   126 113  15   113 102  13    94  82  19    74  60  22    62  49  18    56  43  18    58  42  18    61  46  13  
 165 136  16   163 133  17   158 126  13   161 131  15   173 143  26   174 146  21   181 155  32   183 155  45   195 166  71   202 171  90   194 162  87   177 145  67   169 137  59   169 137  55   171 139  54   167 132  48   152 117  34   132  92  21   125  86  14   146 113  29   171 143  43   181 157  49   184 161  58   181 161  64   162 141  51   154 131  54   149 124  56   146 115  53   146 109  47   144 105  40   144 105  30   158 120  41   161 123  42   155 119  37   150 114  36   146 112  38   141 105  34   140 103  32   126  92  21   130 103  24   139 119  27   129 115  20   124 112  20   105  96  17    83  74  20    58  50  19    45  39  13    41  35  10    42  35   8    48  40   2  
 163 133   2   149 119   1   149 116   7   150 119  15   153 125  17   162 135  20   176 150  34   180 155  44   186 161  59   196 170  76   189 165  75   181 155  64   161 132  42   147 117  28   152 120  35   155 123  40   141 108  32   111  78  12   116  83   6   144 114  18   166 140  22   182 158  35   182 160  41   175 156  46   164 146  45   150 129  42   147 124  48   142 114  47   139 106  41   139 104  40   137 103  32   159 124  59   159 124  59   150 115  46   145 110  41   144 108  47   131  97  44   117  89  38   117  85  28   141 111  39   131 105  18   117  99   9   115 103  21   101  93  24    64  56  14    47  36  18    48  41  17    48  43  13    46  39  14    47  39  16  
 159 128   2   148 117   3   144 112   7   140 108   6   153 122  17   159 130  17   166 138  22   173 147  34   177 150  43   182 154  55   182 158  62   181 156  63   163 136  46   139 112  24   133 106  19   134 107  19   122  91  11    97  65   2   122  89   9   153 125  17   165 140  13   177 155  27   179 157  40   180 161  52   174 157  52   157 138  44   149 127  43   144 117  42   145 114  45   149 114  49   151 117  46   160 125  60   156 121  58   148 115  49   145 112  45   134 102  44   115  84  32   101  74  25   110  80  25   128  98  29   115  89   5   109  88   3   107  92  12    86  76   7    61  49   8    53  42  22    49  43  15    45  40   9    47  42  13    53  47  18  
 154 124   1   145 115   7   139 107   4   135 102   2   150 117  13   162 130  18   172 141  25   177 148  30   178 148  34   175 144  36   182 155  53   179 154  56   157 131  43   128 102  18   120  94   7   125 102   9   122  97   9   105  76   3   124  96   7   149 122   9   160 136   4   175 151  19   175 151  30   175 154  43   175 158  49   166 149  43   154 135  38   145 120  34   142 110  36   139 104  38   143 106  39   147 112  49   149 114  52   149 117  53   149 119  55   131 100  46   112  84  34   101  76  28   102  75  23   113  86  22   114  88  11   114  92  10   106  86   8    84  70   4    58  46   6    47  36  14    44  37   9    46  42  11    54  51  20    64  59  27  
 155 128   1   145 115   5   139 109   1   137 104   2   142 107   3   160 126  15   178 145  28   178 146  25   180 148  28   170 137  21   172 142  32   163 135  34   140 114  25   120  94  10   119  98   9   135 115  17   137 117  15   122  97   5   125  98   1   141 114   3   156 128   2   168 141   9   165 140  12   156 136  23   162 144  34   158 142  29   150 132  26   143 120  26   142 112  33   138 104  37   145 107  42   147 110  49   141 106  46   142 110  47   144 116  53   126  99  45   123  97  49   111  88  40    98  72  24   102  76  18   113  86  15   114  88  12   104  78   3    79  61   1    58  42   4    57  43  19    58  49  23    60  55  27    70  66  39    86  82  50  
 159 132   1   148 119   1   150 121   1   153 120  11   153 119  11   162 129  14   176 141  20   178 144  21   183 149  26   174 138  16   162 132  16   155 125  20   137 110  18   120  97  10   121 100  10   133 114  11   135 115   9   124  99   1   130 102   1   147 118   4   152 124   1   153 127   1   149 125   1   146 125  15   158 139  32   163 144  34   158 139  32   151 129  31   143 115  33   131  98  27   141 102  38   150 112  52   142 107  48   148 116  53   152 122  57   126  97  42   128 101  51   122  99  50   112  88  40   105  82  26   112  89  20   116  90  12   114  86   7   107  84  19    97  75  34    90  74  48    85  75  49    83  77  54    76  71  51    67  65  36  
 160 135   1   157 128   1   168 137   5   177 145  26   183 152  37   175 143  24   170 137  14   179 144  19   184 149  25   179 143  20   171 136  20   165 133  27   149 122  26   131 107  17   127 104  10   134 111   9   138 114   7   134 106   3   139 109   1   153 124   3   152 125   1   144 119   1   137 113   1   133 110   9   147 128  26   163 144  41   171 151  49   171 148  54   162 134  51   144 113  39   143 104  39   148 109  49   135  97  37   144 110  45   157 126  59   138 106  46   132 103  48   113  89  35   112  89  40    97  76  22   107  86  18   119  95  15   123  94  11   124  98  24   129 104  48   120  99  60    86  74  40    67  59  35    59  53  33    53  49  21  
 160 134   1   167 137   2   180 145  10   186 156  29   198 168  44   184 155  29   172 140  14   176 141  17   177 141  18   175 136  15   171 134  20   167 134  26   155 128  27   142 117  21   137 113  15   144 116  16   150 120  15   148 117   9   146 115   3   151 122   3   150 123   1   142 118   1   131 107   2   131 108  12   143 120  27   152 131  38   165 143  51   173 151  62   172 145  63   158 126  49   145 106  41   151 111  49   141 103  40   147 110  41   159 125  53   140 105  37   125  92  30   113  86  28   108  85  33    91  70  14   109  89  19   125 102  17   130 103  12   125  97   7   120  94  18   104  83  26    75  60  13    61  50  20    58  51  28    61  57  25  
 161 135   1   172 141   5   181 143  11   185 154  25   193 166  37   193 164  34   185 154  25   177 143  18   173 137  15   169 130  10   168 131  17   164 130  22   156 128  24   145 121  20   139 114  14   139 109   9   142 110   4   150 118   3   150 119   8   151 119   8   145 116   2   138 114   2   131 109   3   119  95   3   126 102  14   137 115  29   158 136  50   175 151  67   177 149  68   162 133  53   150 110  44   155 115  53   148 108  44   146 108  35   158 121  44   147 109  38   127  91  25   113  85  24   102  78  24    84  64   7   100  82   8   111  90   2   122  95   1   133 104   2   129 101  11   119  96  25    98  82  25    74  63  25    61  53  23    69  64  27  
 170 147   6   168 139   7   177 145  15   187 151  30   201 165  45   201 167  43   188 154  29   170 137  15   161 129  11   159 126  13   165 130  16   169 135  27   163 133  30   157 131  33   148 122  27   137 111  14   141 113  18   147 116  19   144 113   4   150 120   1   152 122   2   136 107   1   127  99   4   110  87   8   105  82  14   126 102  40   150 124  59   155 125  54   166 131  59   174 135  66   153 112  47   149 108  47   149 108  48   143 104  42   152 115  44   150 114  36   137 106  25   118  92  18   106  86   9    89  70   9    89  70  12   101  81   2   122 100   3   136 107   1   137 106   1   127 100   1   109  85   6    88  68  22    64  49  18    69  61  19  
 163 140   1   162 134   2   173 141  11   183 148  25   191 155  33   192 157  31   185 151  23   172 138  13   165 131  11   161 125  11   164 129  15   169 136  28   165 135  34   153 127  31   152 126  31   150 124  29   144 117  19   146 118  14   156 127  10   160 132   4   155 130   2   145 121   3   135 111   5   114  95   8   100  82  12   102  80  22   108  82  25   125  94  31   151 115  46   165 127  56   154 113  47   143 102  39   144 104  42   140 101  35   146 108  36   152 117  34   141 108  22   121  93  10   118  96   9    96  77   6    91  71   7    98  78   1   113  91   4   127 100   2   130 102   2   126 100   6   111  88   5    89  70  12    66  51  11    70  60  18  
 160 137   1   159 131   1   170 139   8   179 143  16   179 141  14   177 140  10   179 142  13   175 138  13   172 136  15   164 127  11   160 125  13   167 134  27   172 142  41   158 131  35   156 129  36   159 133  38   148 123  25   150 126  18   164 140  20   167 144  13   157 137   2   150 131   5   139 121   4   119 107   1   104  93   2    99  82  11    95  73  11   113  86  22   134 100  33   149 110  41   155 115  46   144 103  38   147 106  42   146 105  38   142 105  26   150 114  25   144 109  15   133 103   4   134 110   8   112  91   4   102  83   6   101  81   4   101  80   4   121 100   4   126 103   8   121  98   5   112  92   1    96  77   2    71  54   1    68  53   6  
 165 142   5   170 141  12   176 144  16   183 145  16   180 141  10   175 136   5   179 140  10   186 147  19   191 153  29   180 141  20   166 130  16   167 134  25   174 144  42   163 133  38   156 127  35   163 134  41   159 130  34   154 130  24   162 140  23   165 146  18   156 139   8   148 133   6   138 123   3   130 125   1   123 120   4   128 119  22   128 112  28   138 115  38   138 108  35   145 110  44   154 114  46   148 107  41   146 105  41   146 106  38   141 103  23   150 114  19   150 116  12   148 118   2   145 121   2   123 104   1   117  99   8   107  89   7    90  72   3   106  88   5   115  98   8   116  97   3   115  97   1   105  86   2    89  69   4    89  70   8  
 164 141   7   174 146  20   170 140  14   175 139   9   183 144  13   177 139   7   175 136   5   182 143  13   195 156  28   190 151  24   182 146  24   180 145  29   175 142  37   163 130  34   158 125  32   167 134  41   168 136  42   157 128  31   158 133  26   158 137  20   157 138  17   150 134  15   133 116   4   118 110   1   115 111   3   124 116  16   123 112  15   132 114  23   128 102  24   134 100  36   147 110  43   147 108  46   137  97  35   138 100  31   141 103  21   152 116  18   158 125  13   157 128   1   150 126   1   133 113   1   127 110   7   110  96   4    86  70   1    88  73   1   105  91   6   117 103   4   118 102   1   108  87   2    99  78   4   108  90   9  
 168 145  18   170 140  20   160 129   7   174 137  12   191 154  24   188 151  21   178 141   9   180 142  11   195 156  25   204 164  34   194 156  24   197 160  35   184 149  36   168 134  31   167 131  36   170 133  42   169 131  41   163 128  38   162 133  35   153 128  23   157 135  24   152 131  24   126 105   6   103  88   1   102  90   8   108  96  12   106  93   2   118 101  11   122  98  20   124  95  30   136 102  39   142 105  48   134  96  40   136  98  34   142 105  26   151 117  18   157 126  13   156 133   1   149 128   1   138 119   1   126 113   1   111 100   1    89  76   1    82  69   1    95  83   2   108  95   1   115 100   1   109  89   2   104  83   1   107  90   1  
 172 147  24   167 139  22   160 129  11   171 137  13   186 151  25   181 146  18   175 140   9   177 140   8   188 151  16   203 168  30   201 163  19   205 166  32   194 156  35   180 141  33   174 134  37   172 130  38   166 124  33   165 126  37   163 129  34   150 121  22   156 131  28   151 126  24   128 102   6   105  85   1   103  87   6   103  87   9   105  89   7   113  96  12   116  94  19   114  86  23   118  87  31   126  93  40   131  97  45   134  99  38   145 110  30   153 120  22   158 129  13   155 135   1   149 131   1   140 124   3   127 116   1   119 110   1   101  91   1    88  78   1    90  79   1    95  81   1   110  93   1   115  95   5   113  94   3   109  95   1  
 159 134  15   163 135  20   162 129  15   172 138  18   182 148  24   175 141  16   177 142  13   182 148  13   189 153  16   205 169  30   212 171  22   205 165  24   196 158  32   184 143  33   175 133  34   173 128  35   165 121  30   162 119  29   158 121  26   149 117  16   158 130  28   152 123  23   139 109  10   122 103   1   112  97   1   109  93   5   116  99  17   116  98  20   111  89  19   106  80  21   104  73  20   106  74  24   122  89  40   127  93  35   143 110  33   160 128  30   164 138  22   157 141   6   148 133   2   142 127   7   132 120   1   129 122   2   112 104   4   104  96   9   103  92  13   101  85   5   110  95   2   116  98   5   117 100   5   115 101   1  
 161 128  12   156 124   8   157 126   6   173 139  15   182 146  23   174 139  19   166 131  16   166 130  11   179 143   8   190 155   4   199 164  12   202 166  15   202 162  19   183 140  13   172 125  15   180 127  34   170 115  30   171 118  32   155 111  22   149 116  21   154 129  29   147 124  21   135 112   7   126 111   3   129 117   1   138 120   1   131 108   5   121  95  12   105  82  12    95  73  19    93  68  23   104  73  31   119  81  39   134  93  42   147 108  39   154 124  32   161 135  27   159 137  14   143 128   1   140 129   6   130 124   1   133 128   1   127 120   1   125 113   4   108  93   1   100  84   1   105  88   1   106  84   4   111  88   9   119  96   5  
 151 118   2   151 118   4   152 120   3   163 127  10   177 143  20   169 138  13   159 127   4   158 124   2   168 131   4   183 147   8   196 163   8   203 167  15   197 159  14   180 140   6   175 130  14   174 125  24   162 111  16   169 119  23   157 115  20   146 113  18   147 121  24   147 124  23   132 109   7   125 110   1   138 124   1   152 134  10   145 121  16   130 105  16   112  89  13   103  81  20   111  88  34   113  84  35   122  86  40   146 106  52   157 119  50   158 126  39   167 139  40   152 128  18   135 119   2   130 120   1   127 123   1   134 130   1   132 126   5   120 109   3   115 100   6   116  98  12   107  86   1    97  73   1   100  72   1   106  79   1  
 159 124   7   153 117   5   149 113   1   161 125  12   181 149  28   179 148  21   170 140  14   165 131  11   159 123   4   169 130   9   185 154   1   191 157   7   188 153   8   181 143   8   172 132   9   168 125  14   166 121  15   169 124  19   155 118  16   138 108  11   139 113  18   152 128  31   140 115  14   126 108   2   138 123   1   154 135   7   145 121  10   136 109  12   126 101  14   128 104  31   127 103  39   120  92  33   125  90  36   153 115  58   161 124  55   158 125  43   172 142  52   151 124  30   126 106   4   118 107   1   122 117   1   131 128   1   132 128   3   136 128   2   134 123   4   129 115   4   132 113   7   137 113  19   131 101  18   122  92   6  
 160 124   3   153 116   1   157 120   5   170 136  19   186 155  31   190 161  32   193 163  40   180 147  34   160 125  15   158 120   9   174 141   1   177 144   4   173 139   3   170 135   4   158 122   1   155 117   3   161 121  10   157 116   8   139 103   4   127  96   6   127 102  12   148 123  27   141 117  12   133 111   3   145 125   4   154 133   6   144 118   4   138 110   8   135 108  13   143 115  30   132 108  33   128  99  30   138 104  42   163 126  65   164 126  59   157 124  47   172 140  57   155 126  41   119  98   7   109  97   1   115 109   1   128 124   4   131 126   1   141 134   1   144 135   1   142 128   1   155 136  15   164 138  31   154 123  30   148 114  27  
 155 119   1   150 112   1   161 124   6   173 140  15   180 150  20   190 161  34   198 167  51   182 148  42   163 125  20   160 119  11   164 128   5   168 132   9   158 123   1   159 124   4   160 125   7   159 123   9   160 124  12   147 111   5   121  89   1   118  88   8   119  93  11   136 111  17   139 114   7   133 107   4   142 117   1   154 127   5   154 123  12   153 122  17   151 119  19   154 122  31   140 114  30   144 114  37   163 129  58   176 139  71   170 132  63   165 129  53   169 134  53   152 119  34   116  91  11   107  90   8   107  96   5   119 112   6   128 122   2   135 126   1   147 134   4   150 136   5   156 136  16   159 133  27   151 119  26   151 115  36  
 154 118   8   149 113   3   157 121   4   168 135   6   176 143  12   185 154  26   187 155  39   172 136  32   164 123  23   165 124  19   161 123  14   155 117   9   146 109   1   155 119   6   161 125  11   163 130  15   168 136  20   153 121  13   115  84   1   108  79   8   104  77   7   121  94   8   140 113  11   142 112  16   144 115  10   156 126  13   158 125  20   156 122  21   151 116  14   152 116  19   162 129  45   163 127  48   176 139  66   174 136  65   171 131  59   175 137  59   167 129  46   140 106  18   119  90  13   111  91  12    97  83   1    99  88   1   115 104   1   131 118   1   152 138   8   158 143   9   159 140  14   164 143  25   159 133  29   150 119  32  
 141 104  13   143 105   7   151 115   3   160 124   2   174 139  12   180 147  15   179 145  22   172 135  26   169 126  27   169 125  28   169 127  27   155 114  11   146 106   1   149 113   2   146 111   1   151 120   1   169 138  17   158 130  15   114  88   2    99  71   7    88  59   2   104  74   4   135 104  17   144 110  25   144 110  14   160 126  22   165 129  32   161 124  26   162 123  23   167 127  31   178 140  57   172 133  53   177 138  62   170 129  54   168 126  50   175 132  53   162 121  35   136  99   9   131  99  18   123 100  15   103  85   1    87  70   1   100  84   1   121 105   1   147 132   4   164 148  11   163 146  13   166 148  19   162 142  22   152 128  28  
 127  90  12   129  91   6   134 100   1   146 109   1   170 132   9   176 142   6   177 142  12   182 144  30   177 133  36   171 125  36   172 128  29   168 125  24   155 115   8   148 111   1   144 109   1   156 125   1   171 143  14   160 135  13   125  99   6   103  77  16    86  55   8   100  69  10   132  99  24   150 113  38   152 117  28   173 139  41   180 143  50   172 133  39   174 133  35   182 139  45   180 139  57   173 132  53   179 138  60   174 130  55   168 125  47   168 123  42   153 109  23   139  99  11   142 108  22   136 112  17   120 101   9    90  70   1    98  77  10   121  99  12   140 120   9   155 137  11   162 143  20   162 144  21   151 132  16   139 116  21  
 127  84  15   131  89  15   129  94   2   145 107   1   167 127  13   164 124   3   168 128   6   175 134  17   173 129  22   167 123  21   173 128  28   173 127  30   153 110  12   147 108   6   155 122   9   163 133  13   178 147  27   175 143  33   143 110   7   121  85   2    93  54   1   115  75  11   136  98  24   148 108  25   159 117  33   183 141  59   177 135  53   185 142  60   192 147  66   188 142  61   180 139  51   184 141  58   191 144  68   179 131  59   158 110  38   150 102  28   142  96  16   145 102  11   149 109  10   143 108   4   126  97   1    95  74   1    87  73   4   105  89   6   123 106   9   143 127  15   153 136  17   148 134  15   133 119  11   120 106   8  
 131  95  11   128  90   8   124  88   1   140  99   1   160 118   2   162 120   1   167 125   2   171 129  12   173 129  22   167 122  20   166 121  20   169 125  27   164 123  25   159 121  19   159 124  15   166 135  18   176 146  27   172 140  30   157 123  22   138 102  17   113  74   5   123  85  17   137 100  23   147 107  25   161 119  38   183 141  59   191 148  68   203 156  78   207 160  82   195 146  69   173 127  42   171 124  44   174 125  51   165 115  42   151 102  26   154 105  27   156 109  24   165 120  24   166 121  18   160 118  10   147 111   6   117  89   1   102  79   3   108  85   1   120  98   1   132 110   1   137 116   1   134 115   2   124 107   6   115 100   6  
 135 107  10   137 100  10   136  94   2   154 106   1   170 123   5   175 130   8   182 136  15   181 136  20   184 138  30   176 131  29   170 127  23   164 122  21   172 132  31   172 134  31   156 122  14   160 129  13   174 145  28   175 144  34   163 130  29   157 121  34   136  98  23   131  91  17   145 106  24   163 124  41   177 138  56   188 146  66   194 148  70   197 149  72   200 149  73   187 136  59   182 131  52   173 121  46   171 119  45   165 115  40   160 111  34   172 124  40   176 128  38   177 129  24   180 131  19   178 128  13   170 124  13   143 104   4   122  87   1   121  89   1   129 100   1   138 110   1   136 110   1   131 107   3   120  98   5   109  88   4  
 130 104  11   139 103  14   143 100   7   163 114   3   179 128  10   182 133  12   191 145  24   191 145  28   187 143  33   184 139  36   186 145  39   164 125  20   169 131  29   173 137  34   153 120  13   151 121  10   170 140  27   175 144  38   166 132  35   162 126  39   149 109  30   145 104  23   152 112  25   157 120  35   171 133  50   187 144  63   196 148  68   196 144  67   195 140  65   188 132  57   187 130  53   172 117  43   167 114  41   165 115  40   162 113  34   171 123  39   176 128  35   184 134  26   186 133  19   180 127   8   177 125   7   163 114   3   150 104   3   138  98   1   141 104   1   144 110   2   139 106   1   131 102   5   118  92   6   103  80   3  
 120  92  11   131  93  10   144  98   5   166 117   5   180 131  12   177 131  11   192 147  27   192 148  31   183 141  30   187 144  39   191 153  46   175 137  31   168 132  27   167 134  29   152 121  15   147 116  10   160 129  22   162 130  29   160 126  34   166 129  45   157 117  34   153 113  25   159 116  28   171 131  43   180 139  52   189 142  58   190 136  54   192 134  54   189 130  52   190 131  53   181 122  44   169 114  37   160 110  36   156 110  35   152 106  29   159 114  33   169 124  35   183 137  34   183 133  25   178 126   9   178 126   6   172 122   6   161 114   4   149 107   1   147 108   3   143 104   1   134  97   1   126  94   3   118  90   8   110  84  10  
 109  77   4   117  78   1   141  98   6   167 124  14   182 140  22   178 136  18   187 146  28   186 146  30   177 137  24   182 142  31   184 150  40   185 151  42   172 138  31   158 126  22   147 115  12   137 108   6   141 112  11   144 113  16   149 114  27   163 125  43   159 119  32   158 117  26   172 127  37   180 136  44   181 134  44   191 137  49   195 136  50   198 136  51   188 126  41   183 122  39   170 114  27   160 107  25   144  98  22   133  91  21   130  92  21   148 108  38   162 122  46   168 128  40   163 119  23   160 112   5   165 118   4   163 119   4   153 110   1   150 110   5   148 109   6   140 102   2   130  95   1   124  92   3   117  89   8   111  85  11  
 113  76   1   112  73   1   136  96   6   162 123  17   181 143  30   179 142  27   180 143  28   178 141  25   176 139  25   178 141  27   180 148  35   185 153  42   177 146  37   157 126  21   137 108   6   129  99   1   127  97   1   135 103  13   145 109  27   146 107  28   155 115  28   173 129  37   184 139  49   191 144  49   191 139  42   184 125  31   187 122  32   186 120  31   180 115  25   179 117  27   174 122  26   163 116  27   143 103  23   126  92  21   123  89  25   136 102  41   144 109  46   142 107  36   137 100  18   138  98   3   145 108   1   150 115   3   146 114   1   142 108   3   138 103   1   134  99   2   129  95   2   121  89   3   110  82   1   104  78   1  
 139  99  12   122  85   1   133  97   6   154 121  15   177 145  34   182 150  37   179 146  31   178 144  28   187 152  36   186 151  35   179 147  34   176 145  32   180 150  40   164 132  28   136 107   6   129  99   1   128  98   3   133 100  13   138 101  24   140 101  24   163 121  34   177 134  40   188 142  52   194 143  46   196 141  41   182 119  22   183 116  21   177 108  15   173 107  14   177 114  19   173 122  20   164 120  26   144 108  26   127  97  27   114  83  25   105  74  20   101  70  16   111  81  21   126  94  21   143 109  21   152 118  17   149 120  10   141 116   3   134 105   1   130  98   1   128  95   1   128  96   4   122  91   4   112  85   1   108  83   1  
 149 113   4   140 103   1   143 105   4   155 126  14   178 153  37   183 158  42   177 152  35   178 153  35   188 163  44   183 159  37   179 152  35   176 146  30   176 144  28   163 128  15   146 112   4   133 100   1   135 103   2   146 112  14   157 117  28   160 111  32   178 126  41   190 138  38   190 142  27   193 140  28   193 133  26   181 113  17   165  94   5   154  86   1   153  93   6   167 113  23   156 113  21   159 116  25   153 110  22   146 106  25   125  91  18   116  85  20   100  72   9   106  81  12   114  91  12   136 113  21   137 114  11   136 114   4   137 114   1   132 108   7   127 103   7   121  97   2   115  90   1   116  91   4   112  87   8    99  76   1  
 157 124  11   158 124  14   160 126  16   165 139  22   180 156  36   191 166  47   192 167  48   188 163  44   190 165  46   193 168  49   192 166  48   187 160  41   180 148  32   163 130  17   151 117   9   152 119  16   164 131  31   170 136  39   170 130  39   165 120  33   179 129  39   183 133  34   175 126  18   179 125  18   184 125  26   166  99  11   152  82   3   150  84   6   141  84   2   150  99  14   140 100  10   149 108  18   153 113  24   151 113  27   141 106  24   138 107  34   122  94  24   122  98  25   130 107  24   133 112  17   126 107   4   128 107   1   124 103   1   120 100   1   118  98   1   119  97   1   115  92   1   108  85   1   105  83   2   108  85   7  
 175 146  29   181 152  32   180 152  28   174 151  25   178 157  30   185 161  37   180 156  32   184 160  39   191 166  48   197 172  54   196 174  54   192 167  49   182 152  37   172 138  29   163 127  22   176 138  39   193 156  59   196 161  65   185 146  51   169 126  31   172 126  30   174 126  27   165 117  16   161 108   9   163 104  13   140  74   1   129  63   2   131  71   5   119  69   1   121  80   2   126  91   9   131  95   9   147 110  22   151 114  25   145 108  22   149 114  33   139 108  30   131 106  27   137 113  25   142 120  20   138 117  13   128 109   7   119  99   2   112  95   1   109  93   1   112  96   1   113  93   3   102  82   1   100  78   1   110  87   9  
 186 161  43   191 167  41   190 168  35   175 154  22   176 156  25   187 164  34   175 152  25   177 152  30   182 155  39   189 162  49   184 163  44   181 158  40   173 144  32   173 141  33   170 133  31   184 145  49   198 160  64   199 164  67   198 160  61   181 143  40   172 130  26   165 121  21   150 104   9   144  92   2   137  80   1   122  59   1   117  54   1   118  63   6   112  69   5   113  78   7   114  83  15   113  79   6   137 101  20   145 109  22   141 103  18   149 111  29   145 109  30   133  97  20   136 103  15   143 113  16   144 116  18   130 104  11   117  90   3   107  86   1   101  84   1   103  87   1   107  90   6   101  83   3    97  76   1   106  82   8  
 176 155  39   179 160  34   181 162  29   166 146  13   164 144  11   177 154  22   168 144  16   155 130   8   154 127  11   171 143  33   181 158  44   179 155  43   172 144  37   174 141  40   167 131  34   176 138  41   188 150  55   191 157  59   197 163  58   180 146  38   161 124  18   153 113  12   137  93   3   132  82   1   125  72   1   120  62   1   122  64   8   118  67  13   112  73  15   115  85  21   105  78  25   109  77  17   132  98  26   143 105  27   144 106  25   150 109  33   142 100  27   139  95  21   141 101  18   138  98  10   136  99  10   133  96  10   119  83   1   108  81   1   102  81   1    98  79   1    98  81   4    98  79   5    97  74   3   102  78   8  
 173 152  44   174 154  37   168 150  24   160 141   9   160 140   7   166 143  11   161 138   9   156 131   8   155 126  12   159 129  20   162 135  30   166 139  36   169 140  41   172 140  44   162 128  31   166 127  32   177 138  42   178 143  43   179 146  41   166 134  26   151 117   9   148 110   8   136  94   3   126  81   1   121  73   1   121  68   1   123  70   7   113  67   8   100  63   5   100  70  12    90  63  17   106  77  23   128  95  29   142 105  31   153 114  37   157 115  43   137  93  24   135  88  20   137  91  20   139  93  18   136  93  14   135  93  11   130  88   4   123  90   5   118  90   6   107  82   1    98  77   1    94  74   1    93  70   1   100  73   4  
 181 159  59   181 160  53   171 151  37   155 135  11   155 135   5   155 135   4   160 137   8   165 138  16   160 130  17   142 111   5   134 101   8   133 102   9   143 113  22   149 119  27   150 117  24   156 120  24   166 128  32   158 124  23   162 131  25   165 134  26   153 122  14   147 111   8   138  99   1   128  85   2   121  75   1   125  76   1   125  77   2   117  72   4   103  66   7    87  58   1    78  51   5   103  75  18   123  91  23   142 106  30   157 118  41   162 122  50   141  97  30   126  82  20   120  76  15   130  86  23   134  91  21   136  94  12   137  96   5   139 100   4   134  99   5   118  89   1   108  84   1   102  79   1    97  72   1   104  76   3  
 175 153  59   180 158  58   173 151  47   168 147  26   168 147  19   161 141  10   167 144  15   166 139  17   163 133  21   158 125  19   141 105  17   123  90   3   123  92   4   126  96   6   134 103  12   146 110  16   160 124  25   154 120  18   156 124  19   163 135  28   153 122  16   144 110   6   144 108   4   138  98  12   123  81   2   133  87   2   136  88   6   131  87  13   127  91  27    99  67  13    91  66  16   110  83  23   126  95  22   143 107  28   147 109  28   153 113  39   140 101  34   134  97  36   117  78  21   118  78  19   127  89  22   142 103  20   139 103   6   143 102   1   138  98   1   123  92   1   120  94   3   118  94   7   110  84   1   114  86   4  
 170 145  54   181 159  63   170 152  48   167 152  45   173 157  43   174 151  31   175 145  26   176 146  29   174 147  28   168 144  21   155 125  12   141 113  10   130 101  15   119  90  13   109  78   1   135 101  11   160 128  28   149 122  14   148 125  14   161 143  30   150 130  17   148 124  12   150 120  11   140  99   5   131  87   1   136  89   9   135  89   8   150 111  25   143 110  27   115  89   9   120 102  26   119  99  23   124  98  23   139 104  33   144 100  35   146  97  36   148  99  39   146 103  43   123  83  28   113  76  21   116  80  17   132  96  16   142 104  11   140 102   5   135  99   2   127  94   1   124  91   3   120  91  10   113  88   3   109  89   1  
 169 143  49   175 152  53   179 158  53   185 164  60   186 164  56   184 161  49   185 158  47   182 154  45   178 153  39   173 149  28   162 136  18   149 123  12   137 112  11   134 107  17   113  83   2   118  86   2   152 118  26   165 136  34   161 137  32   169 148  39   167 145  38   154 129  24   153 124  23   140 102   9   127  82   1   135  88  10   142  97  17   141 102  17   127  96  12   139 114  33   145 129  44   150 131  47   143 118  37   134 102  27   135  95  26   131  85  23   145  99  39   144 106  45   133 100  44   125  94  39   115  83  23   118  85  10   126  90   5   134  96   3   143 104   9   138 100   7   122  87   3   113  82   4   112  85   5   114  91   6  
