P3
50 50
255
  33  62  73    44  79  92    64 102 119    67 102 117    67 100 115    61  95 106    81 112 123    86 115 125    92 115 126   106 127 138   106 125 132   119 138 144   140 156 163   142 156 162   144 156 162   166 173 181   175 182 192   175 183 196   170 178 191   148 158 170   132 142 152   126 136 146   114 124 133   110 126 129   146 161 164   175 190 193   185 197 203   195 206 212   190 200 206   166 175 182   170 184 185   169 182 185   171 181 186   171 178 184   184 190 194   208 212 213   212 216 215   197 201 201   183 188 190   179 183 186   168 171 174   154 158 161   155 159 159   156 162 161   168 173 173   174 178 179   166 170 169   155 159 158   150 155 154   163 166 163  
  37  63  68    34  64  70    30  64  68    30  57  62    39  64  69    60  87  92    84 113 119    95 123 129   122 146 156   137 161 171   116 140 150   118 142 149   110 131 139   115 133 141   135 146 155   149 156 166   159 165 174   161 172 176   166 177 183   164 175 181   156 167 173   140 151 154   142 153 154   155 162 166   150 157 165   148 155 165   158 169 180   164 177 187   150 166 174   133 150 158   153 166 174   169 179 189   176 186 195   171 178 187   174 179 186   181 186 189   178 182 182   177 179 177   180 182 183   184 184 187   181 182 184   173 174 175   164 166 164   153 157 155   149 155 153   135 141 139   131 136 131   128 133 129   122 127 122   137 142 136  
  86 105 111    86 105 111    92 115 119   102 120 126   113 130 137   130 149 155   122 144 149   119 141 147   107 127 134   104 123 130   119 136 144   136 156 162   138 156 163   149 165 170   160 172 176   157 165 168   161 168 170   152 164 161   127 139 139   121 132 134   116 127 129    96 106 106   102 112 110   139 146 149   146 153 161   156 164 174   172 181 193   178 191 201   172 188 196   169 186 193   173 186 195   177 189 199   172 182 191   177 186 193   186 194 197   179 188 185   176 185 179   184 190 185   188 194 190   190 196 194   196 202 200   197 203 199   188 195 189   183 189 184   185 191 187   187 193 189   188 195 188   177 184 177   164 171 163   168 173 166  
 144 157 166   143 156 165   155 168 177   153 166 177   143 157 168   150 167 177   125 142 150   115 131 138   125 138 144   120 133 139   113 120 128   109 118 124   106 118 121   105 119 119    99 111 109   106 115 114   130 138 136   142 157 155   142 155 156   145 157 160   131 142 147   120 131 135   125 135 137   111 125 124   112 128 128   134 146 153   153 165 173   164 173 183   162 171 178   155 162 168   134 149 156   140 154 162   126 139 146   130 142 145   140 150 150   138 149 141   147 159 149   141 154 144   117 130 123   116 129 122   122 135 128   107 120 113    94 107  98    99 110 103   103 113 105    99 109 101    94 103  94    84  92  82    77  85  74    87  95  84  
 117 139 153   121 143 155   131 153 164   134 152 166   140 153 170   150 161 177   153 160 175   165 173 185   171 180 189   180 190 199   184 195 201   176 187 192   149 160 164   125 135 137    96 106 107    87  96  95    80  91  89    69  84  81    82  95  93   116 128 128   135 147 147   135 145 146   143 153 154   122 132 135    86  95 100   101 112 116   125 137 140   119 134 137   120 137 139   106 124 126    91 112 115    86 106 110    89 108 112    97 115 118    67  83  83    41  58  51    39  57  50    44  63  57    49  68  63    50  69  63    47  66  60    47  66  60    62  81  75    93 108 101   114 126 120   121 133 126   133 144 138   152 159 156   164 170 168   176 182 182  
 159 175 190   156 172 184   162 179 188   173 187 196   183 196 205   192 202 211   202 211 219   209 216 223   202 210 216   183 193 195   182 191 196   180 188 192   175 183 186   170 178 180   160 169 168   168 174 174   168 175 173   158 167 166   150 160 159   175 184 183   189 198 197   184 189 190   184 189 192   182 190 191   171 181 180   144 156 154   116 128 126   100 114 111    83  98  95    58  73  70    37  52  55    39  54  58    48  63  68    64  79  82    63  78  79    74  89  86    97 111 107   123 135 135   147 160 160   161 171 172   178 188 190   184 194 195   189 199 200   196 206 206   199 209 209   203 212 211   194 202 202   190 196 196   182 188 188   179 184 187  
 181 191 203   178 189 197   190 201 207   187 201 203   179 194 193   180 189 191   165 172 174   152 159 161   133 141 143   106 116 115   132 137 140   150 155 157   170 174 175   185 189 189   187 191 190   169 173 172   169 172 171   178 180 179   172 174 173   171 175 174   170 174 175   171 177 177   160 166 166   115 124 120    82  93  87    57  68  62    43  53  48    35  46  40    42  53  47    72  83  77   110 120 121   130 140 143   147 157 161   166 177 181   178 189 191   189 201 201   200 210 210   208 213 219   214 219 225   213 216 223   209 212 217   206 209 214   199 202 207   187 194 197   175 183 186   143 148 152   147 152 156   164 169 172   161 166 169   161 167 167  
 155 165 173   140 150 154   124 135 136    95 109 107    64  77  75    51  61  60    51  59  58    81  87  88   116 123 126   145 153 155   160 164 165   177 179 178   172 173 171   162 162 160   114 116 113   105 108 107   157 161 160   147 150 149   120 124 123   107 113 111    73  82  79    47  58  55    41  52  50    32  43  39    35  46  40    39  50  44    57  66  61   100 109 104   154 161 157   197 203 199   214 218 220   218 223 226   216 222 227   213 220 226   206 215 220   189 199 201   184 194 195   182 187 191   173 178 182   187 191 194   176 180 183   158 162 163   159 162 163   140 144 145   116 123 123   108 113 116   125 131 133   141 147 147   157 163 161   164 170 166  
  48  63  66    33  49  48    24  40  39    22  38  38    50  64  65    78  88  90   111 119 122   153 161 164   162 169 174   133 142 147   136 140 139   156 159 155   163 164 158   146 147 142   117 119 116   123 127 126   119 126 126   106 116 112   107 118 114   105 117 113    97 112 109   110 126 123   120 136 133   123 135 135   142 152 153   150 160 160   166 174 176   197 203 206   205 210 213   199 204 207   168 172 173   167 171 175   167 172 177   160 166 172   141 149 152   110 120 122   111 121 122   128 139 136   135 146 142   148 158 153   146 156 148   131 140 132   133 140 132   133 138 131   119 124 118   133 139 135   114 121 118    83  91  87    65  75  68    54  64  55  
  23  41  43    37  55  55    66  85  85   103 121 122   135 151 153   163 176 180   174 183 188   172 181 186   158 167 172   150 161 165   129 138 135   110 115 111   105 109 102   109 112 105   113 117 113    88  97  97    73  85  85    78  93  90    92 107 104   109 123 123   127 143 142   143 160 159   135 154 152   146 159 162   173 182 187   182 191 196   174 182 187   172 179 185   163 170 176   138 145 151   117 125 127   117 125 127   109 116 121    96 105 108   103 113 115   104 114 115   114 126 124   126 141 135   135 150 143   125 138 129   101 113 102    78  90  77    65  76  62    48  57  44    38  46  35    35  43  36    26  36  33    16  26  24    15  27  21     9  22  14  
  70  85  88   133 148 151   168 184 187   161 180 181   149 167 169   153 169 169   142 156 156   123 135 135    84  98  96    63  78  75    42  54  49    26  36  30    36  42  35    34  39  32    36  44  39    26  38  39    41  55  57    60  72  72    84  95  96   108 119 121   127 138 140   155 166 168   181 192 194   190 199 202   183 191 194   178 188 190   167 178 180   153 164 166   153 164 166   146 157 159   154 168 169   153 166 168   137 148 152   106 117 119    91 103 103    64  76  72    57  69  64    45  57  56    38  50  46    35  46  40    37  47  39    53  60  51    66  74  62    80  88  75    72  82  73    70  79  76    82  93  95    76  89  92    77  90  92    58  74  73  
 164 175 181   173 185 191   147 160 167    97 117 117    60  80  79    33  52  50    27  42  38    18  33  27    14  30  21    10  27  17    16  31  28    24  36  29    34  42  34    49  58  50    69  81  77   114 131 131   152 169 172   168 178 180   171 181 183   186 194 199   183 190 196   163 168 174   150 155 161   147 154 157   123 132 133   111 121 122   132 142 143   133 146 146   105 120 120    84 100  99    82 101 102    59  76  78    53  68  71    53  67  69    60  72  71    56  69  61    72  84  79    80  88  93    81  89  93    75  82  82   107 111 110   131 135 130   126 129 123   103 111 102    66  75  70    55  65  68    76  87  97    95 108 120    88 102 111    82  99 106  
  77  89  89    54  66  65    37  49  47    21  32  27    23  35  31    32  47  44    35  52  51    49  68  67    38  55  54    25  41  38    39  50  56    90 101 106   134 144 149   157 167 170   185 194 196   189 198 197   176 185 185   159 168 170   125 135 139   123 137 140   128 142 145    93 106 107    75  86  87    80  93  95    72  86  87    48  60  59    39  51  48    52  66  61    53  69  65    46  65  61    41  62  65    65  84  88   105 123 128   123 140 147   128 144 151   135 150 157   117 132 141   111 129 141   101 115 123    72  82  83    68  74  73    62  66  66    51  52  54    34  41  43    25  33  35    19  27  29    19  28  27    22  30  29    18  24  24    18  24  22  
  41  54  55    60  72  72    73  85  85    88  99  98   118 130 130   110 124 125    74  90  94    79  95 100    89 104 108   110 124 125   154 165 167   181 193 193   168 180 180   123 135 133   101 113 111    77  90  87    53  66  64    58  73  73    84 101 101   101 121 121    86 106 107    71  91  90    57  75  72    48  65  67    36  54  58    32  47  50    57  71  72    90 107 107    89 109 109    60  81  83    64  79  82    60  75  77    66  81  84    65  79  82    54  68  71    52  65  71    45  59  63    47  61  69    40  54  58    29  40  42    24  34  35    23  32  35    36  43  49    37  46  48    23  31  33    14  22  24    22  31  32    24  33  32    21  28  28    17  23  23  
 133 147 150   133 144 147   127 138 139   112 122 124   108 119 122   120 133 139   136 151 158   165 179 187   180 194 202   157 170 176   111 123 119    71  83  79    37  51  48    18  33  31    16  32  29    18  34  33    25  40  40    31  46  46    37  55  56    46  65  69    38  59  62    51  72  73    60  79  79    49  71  76    42  63  70    44  64  71    46  65  73    46  67  76    46  69  80    34  60  73    43  63  74    45  65  76    39  59  68    29  49  58    26  46  55    34  54  63    35  53  61    29  43  48    24  39  43    26  41  44    21  36  41    24  39  45    43  58  65    49  59  63    25  33  35    15  23  25    34  42  44    33  41  43    25  33  35    19  27  29  
  74  89  91    89 100 102   109 118 120   133 141 143   168 178 180   172 183 187   147 161 166   122 136 141    83  97 101    46  57  61    24  35  34    21  34  32    26  40  40    26  42  42    25  43  44    23  42  46    27  43  48    32  44  51    28  44  52    25  43  53    27  45  57    34  52  64    40  57  66    31  55  65    29  54  66    35  59  71    35  59  71    39  64  79    43  70  90    33  64  85    49  68  83    43  63  78    35  57  70    29  51  62    31  54  64    37  61  70    34  58  65    30  50  57    37  57  64    38  58  65    30  49  56    35  51  58    35  49  53    42  52  54    21  29  31     9  19  21    23  33  35    25  35  37    22  31  35    26  37  41  
 166 180 182   167 177 179   135 143 145   112 120 117    86  95  92    55  68  66    37  51  51    21  35  35    19  32  32    17  29  28    22  33  37    22  33  38    38  52  59    45  60  67    34  51  59    29  47  57    35  53  63    33  50  61    29  50  63    30  53  68    37  63  80    39  64  81    51  74  91    58  84  97    54  80  93    44  70  83    49  75  91    73 100 119    72 101 126    44  75 102    37  58  75    27  49  65    35  57  70    34  56  68    37  59  69    54  77  85    64  89  98    57  86 100    56  85  98    44  68  82    34  53  62    43  56  60    39  47  46    28  36  37    35  43  46    39  49  51    29  39  42    30  41  46    41  53  59    69  82  88  
  92 105 106    48  57  59    23  31  32    14  22  17    10  19  14    12  23  19    11  23  21    10  22  20    13  25  22    19  29  26    19  30  36    26  39  45    36  49  57    34  47  56    37  50  61    36  53  63    38  58  68    37  63  73    37  66  77    47  79  93    57  90 107    52  86 102    58  90 107    60  88 102    51  77  90    39  63  77    39  65  80    50  77  96    56  85 108    59  90 115    58  93 121    58  93 121    64  99 124    48  83 106    39  74  94    55  88 107    68 101 120    63  95 113    43  74  94    33  61  80    35  57  70    42  53  58    44  48  46    36  42  42    53  61  64    54  65  67    46  57  62    71  84  91   104 119 126   134 148 157  
  23  35  35    20  30  28    24  32  29    31  35  34    31  37  35    36  46  47    35  46  48    30  41  43    20  31  32    26  36  37    31  45  48    30  44  47    26  40  43    21  35  37    29  42  48    34  47  53    33  47  53    34  54  59    44  66  74    41  68  79    47  75  89    45  73  87    41  68  82    33  58  71    24  48  60    29  51  64    38  60  73    38  63  78    50  79  99    71 103 124    67 108 140    69 110 139    67 105 133    56  92 118    57  92 117    50  85 107    45  76  95    42  71  87    39  67  87    44  71  92    53  74  92    47  62  70    51  57  59    79  86  87    90  98 101    75  84  90    97 108 115   124 137 146   128 144 152   113 130 140  
  28  38  38    36  45  41    38  47  43    47  52  53    50  55  59    51  59  65    37  47  54    37  48  54    32  41  47    32  39  45    28  43  40    24  39  36    29  43  40    28  40  38    24  36  34    23  33  32    26  34  34    23  29  32    24  33  38    25  37  46    47  61  72    47  61  74    48  61  74    40  59  71    31  53  65    40  60  71    37  60  71    35  60  73    44  72  88    40  70  88    47  73  90    46  71  86    42  63  77    40  58  71    45  60  69    33  46  54    31  47  56    55  78  90    75  99 117    69  93 116    60  81 102    55  71  84    66  77  84    75  83  87    66  74  77    38  47  52    62  74  80    61  75  83    56  72  82    48  66  76  
  25  34  33    36  40  42    37  38  42    47  48  45    50  52  47    35  41  38    37  47  46    42  52  53    38  46  48    30  39  38    30  40  49    23  34  42    23  37  40    22  34  35    24  30  30    29  31  30    27  29  30    24  32  35    21  31  33    30  40  42    39  50  52    26  36  38    27  39  41    30  40  47    37  47  56    47  61  70    41  58  66    38  54  61    34  48  55    35  46  52    21  37  34    20  36  34    15  32  31    13  31  30    10  30  31    11  31  32    13  32  36    30  46  49    41  55  58    39  50  54    33  43  45    28  35  38    29  33  37    20  24  32    11  16  21    13  21  23    33  41  45    37  44  52    28  34  39    30  36  35  
  18  23  19    28  29  26    34  31  28    31  31  28    27  31  29    20  26  27    24  33  35    29  39  41    29  37  40    24  32  35    25  30  33    31  36  39    31  40  41    28  38  39    22  32  33    17  22  25    20  25  29    19  27  30    25  33  36    27  35  38    30  38  41    23  31  35    24  32  35    27  34  39    28  37  42    29  40  44    23  37  40    24  36  40    23  33  36    20  30  32    20  25  29    23  28  31    16  20  23    17  21  24    23  24  29    23  24  28    16  19  22    17  26  25    18  27  26    22  32  30    18  27  26    16  26  25    15  25  24    10  21  18    10  23  14    19  32  23    20  34  28    24  36  34    24  36  29    31  42  29  
  16  21  17    19  20  15    19  19  14    19  19  16    16  18  17    12  16  18    14  19  22     9  14  17     8  12  14    14  16  17    16  17  12    18  21  17    20  27  23    24  34  32    26  36  37    12  22  23    16  25  26    16  22  22    20  25  28    17  21  25    16  20  23    14  18  21    15  18  21    15  17  19    17  20  22    21  28  28    17  26  25    19  28  27    20  27  27    21  25  26    14  24  28    10  19  22    14  22  24    18  24  25    19  23  24    22  24  23    13  15  13    17  18  15    16  20  16    11  20  15     3  14  10     6  19  15     9  26  20    11  29  23     7  27  19     9  31  19    23  44  37    43  61  59    49  64  59    65  79  67  
  43  57  58    28  41  43    27  41  42    16  24  21    12  18  14    11  20  17    12  21  20    10  17  17    12  17  16    10  12  10     7  12  10     7  13  11    17  24  22    15  24  21    12  23  19     6  17  13    11  21  16    12  19  12    10  15   9    10  15  11    14  16  13    16  18  16    19  19  19    18  20  19    19  21  18    20  25  19    15  20  14    16  21  16    17  21  20    19  23  22    20  34  34    24  38  38    29  43  43    28  41  41    20  33  33    23  35  35    23  34  33    25  35  32    17  28  26    14  29  26    17  33  30    17  36  33    29  48  46    44  64  68    66  90  92    71  96  98    97 121 128   126 146 158   110 126 133   108 120 119  
 100 124 135    73 102 114    62  94 106    43  69  74    32  56  60    43  68  72    45  70  74    27  50  53    23  42  44    28  44  45    31  46  48    21  34  37    28  38  39    25  34  32    21  27  23    16  23  16    15  23  14    11  21  10    10  18   7    12  19  10    15  22  14    18  23  17    19  24  18    19  25  23    17  23  21    21  27  23    20  27  21    21  28  25    20  28  27    21  29  30    19  28  27    35  44  46    31  41  44    27  41  45    28  44  51    31  50  57    33  53  60    33  58  59    31  55  57    39  60  63    48  69  72    73  92  98   127 145 151   151 172 184   132 156 168   112 139 149   111 136 151   124 144 161   115 129 140   122 133 134  
  85 115 131    77 113 132    75 113 131    91 130 145    86 128 142   104 145 162   107 146 162    88 125 139    83 116 127    81 111 121    67  87  96    47  63  71    41  54  59    37  46  49    21  30  28    17  24  17    16  25  17    19  32  23    21  34  26    20  33  26    21  33  29    20  33  30    15  30  27    17  32  35    18  33  36    26  40  40    26  41  39    26  41  41    34  49  53    48  65  73    51  69  71    28  47  52    20  42  48    28  54  61    52  80  88    79 109 119    74 107 117    68 100 109    78 108 116    90 114 124    97 117 126   119 136 145   146 160 169   141 160 170   125 148 156   115 140 145   112 136 144   131 148 158    90 101 103    65  69  61  
  61  90 104    69 100 115    82 114 127   113 149 166   113 151 170   113 151 169    98 135 154   101 134 151   100 130 143    59  86  97    50  68  78    63  79  89    88 100 109    78  88  95    36  48  52    33  48  48    51  67  67    92 107 110    87 104 108    82 101 105    82 103 108    72  93 100    66  89  96    67  91 100    59  84  91    57  81  84    57  78  82    58  80  86    67  93 103    92 118 132    84 118 130    51  85  97    58  92 102    65  99 109    64  98 107    81 115 124    89 121 131   116 142 157   132 156 170   139 159 173   140 158 168   156 170 178   159 172 180   149 163 173   140 159 165   117 138 143   127 147 152   135 148 152    86  90  83    88  85  67  
  45  69  81    81 104 113   120 142 147   133 157 169   114 141 156   113 138 153    97 119 134    96 114 126   100 115 123    70  81  88   118 132 140   119 132 141   136 147 157   103 115 125    54  71  79    84 105 111   120 141 149   177 195 207   155 174 187   144 166 179   140 164 180   113 140 155   103 131 147   117 148 164   109 140 151   106 135 143   118 145 153   125 152 163   119 149 165   122 154 175   125 157 182   126 156 180   136 162 183   134 158 175   116 136 150   133 151 163   163 180 193   169 186 204   162 178 194   164 178 191   170 184 193   162 175 180   153 164 167   137 149 159   123 137 148   134 153 160   150 168 175   109 118 124   104 104  96   124 118  98  
  56  70  70    84 100 101   101 116 119    84 103 108    71  92  97   120 141 146   134 153 159   112 131 137   105 124 130    92 111 117   103 116 118   140 152 153   131 143 142    91 104 104   105 123 123   121 142 145   146 167 174   159 173 186   145 160 174   126 142 157   123 137 149   137 150 159   157 167 175   166 177 184   156 171 178   151 165 174   149 163 175   140 153 168   147 160 177   169 182 201   165 181 199   165 179 198   151 163 181   158 170 188   164 179 197   162 179 197   162 180 198   153 172 185   142 159 174   154 168 185   140 152 168   136 150 162   137 153 160   150 165 176   148 162 174   146 159 167   126 136 136    98 102  90   134 131 105   108 104  66  
 153 168 173   156 171 178   137 153 160   113 132 135    95 115 116    98 118 119    86 106 107    74  93  95    66  84  86    59  77  79    44  58  59    64  78  79    61  75  75    57  73  72    58  76  76    65  86  90    80 102 107    89 109 116    88 110 116    90 113 119   116 136 141   129 148 148   140 155 155   153 167 173   151 165 174   157 171 179   157 171 180   158 172 181   151 167 176   144 161 169   144 167 161   138 157 156   145 161 163   158 173 177   155 171 179   144 162 172   123 142 153   123 146 152   120 143 150   111 134 144   104 126 137   118 140 148   120 141 147   109 123 122    94 103 100    86  91  86    76  75  66    65  57  42    97  83  61    88  72  47  
 156 172 171   142 160 159   118 136 136   100 118 121    83 101 105    62  80  84    37  55  59    47  65  69    40  58  62    32  50  54    36  53  61    69  83  91    97 112 119   103 119 126    78  97 103   100 120 130   101 125 134    96 122 134   113 139 152   158 185 196   160 184 194   134 155 163   126 144 149   154 170 178   158 172 181   166 181 188   169 185 189   161 179 180   134 152 152   115 134 132   107 133 130    88 112 109    84 105 103    84 104 102    65  84  82    57  76  72    48  65  62    54  67  66    58  75  75    53  72  73    38  59  62    40  58  61    36  51  54    26  39  38    36  46  41    64  64  53    59  50  33    65  51  30    86  70  44    86  69  43  
  59  78  77    63  83  82    71  91  91    78  95 106    86 102 117   104 120 135   109 125 140   138 152 168   132 145 161   110 123 139   120 137 155   149 165 181   161 177 193   167 184 200   151 168 184   158 175 191   145 166 180   133 157 169   133 158 169   139 164 175   109 131 141    94 114 119    85 102 105   103 118 122   120 135 140   121 139 141   105 123 125    85 103 103    56  75  73    39  58  56    71  98 109    57  80  92    30  51  61    32  51  58    30  48  51    35  55  52    43  59  57    48  59  64    50  67  73    35  55  61    28  48  55    27  43  54    34  43  57    58  73  87    60  72  79    53  53  46    53  44  22    86  72  39    93  80  41    94  85  42  
  73  91 106    93 112 127   121 140 155   155 173 188   168 186 200   179 195 210   177 193 208   183 199 214   182 198 213   160 176 191   116 134 146    88 106 118    78  96 108    85 103 115    65  82  93    54  71  81    54  70  75    45  63  59    34  53  51    27  47  45    24  43  38    22  39  32    19  34  24    27  44  39    38  57  53    30  49  48    26  44  45    23  41  44    24  42  46    35  54  60    30  58  62    53  80  87    52  76  87    56  76  89    63  82  94    57  74  83    46  65  75    45  68  82    49  75  88    62  91 104    65  94 108    62  86 104    83 102 123    87 100 115    48  57  60    38  35  22    82  71  39   113  99  54   131 118  67   135 126  71  
  98 117 131   115 137 150   139 161 174   135 156 164   128 148 153   120 141 146   106 125 131    82 101 107    73  92  98    53  72  78    27  47  46    13  33  33    17  37  38    16  35  35    18  34  33    18  33  30    23  34  30    20  30  26    14  26  23    20  34  34    23  39  38    18  32  31    31  45  41    47  64  60    42  61  57    27  46  44    51  69  72    74  93  98    83 102 109    88 107 116    85 110 115    93 119 124   103 130 138   107 132 140   110 133 139    92 113 116    71  92  94    65  88  95    50  72  77    38  58  62    37  55  57    38  53  55    53  66  69    53  56  49    40  37  21    67  57  29   135 119  81   162 142  97   166 145  98   138 120  72  
  34  59  61    35  61  62    42  68  69    33  58  60    29  53  55    30  54  56    30  53  55    25  46  49    21  42  45    15  36  39    19  37  37    29  48  50    34  54  55    30  48  49    25  40  40    20  30  26    27  34  32    31  37  40    65  73  79   112 125 133    96 112 122    76  93 103    91 108 118   125 143 149   138 156 159   133 152 156   148 167 173   167 186 192   164 183 190   140 159 166   130 153 159   109 135 143    99 126 135   105 132 139    94 121 122    49  73  69    51  72  67    73  86  88    57  64  63    67  66  62    79  75  66    53  47  36    48  45  33    60  55  36    59  51  29    84  73  46   128 114  84   163 146 115   144 124  95   111  87  59  
  47  72  76    41  66  70    38  63  67    42  67  75    36  60  70    39  63  73    38  60  71    49  71  82    47  69  80    50  72  83    64  78  90    81  98 111    93 109 122    91 106 117    96 107 116   109 115 121    97 101 104    97 105 103   145 156 157   141 156 161    95 114 121   108 128 136   110 133 141   125 144 156   135 153 165   133 151 163   109 127 137    88 107 114    79  98 104    69  90  93    40  62  61    57  81  85    44  72  81    64  91 103    72  99 110    42  67  74   100 121 129   123 138 151    84  88  97   106  97 103    93  81  81    87  77  72    91  86  77    92  87  75    71  65  51   121 119 103   134 130 113   130 121 106   128 113  99   138 120 106  
  34  71  89    56  91 107    62  94 109    62  92 109    65  94 110    49  78  91    60  87  99    72  97 106    74  95 103    44  63  71    50  73  87    85 106 116    93 110 116    87 102 105   102 118 118   104 122 124    81  98  98    67  82  77    65  82  76    48  66  60    38  59  54    37  61  55    36  61  56    36  51  51    35  54  55    45  76  74    39  73  67    32  61  55    39  67  68    36  64  75    41  74  81    67 101 108    65  99 107    75 108 119    92 121 135    97 122 140   143 162 183   112 122 134    74  81  75    71  71  65   102  97  94   126 124 115   152 152 146   137 146 151   129 138 141   151 150 149   134 126 119   149 145 134   155 157 145   142 152 140  
  72 108 124    89 122 136    74 105 117    99 131 144   102 131 147    64  91 107    54  76  89    41  60  67    27  44  44    19  35  28    19  32  33    24  36  35    28  37  35    30  39  36    27  38  34    25  37  36    17  32  34    15  34  41    17  36  43    26  46  53    21  41  48    58  78  85    66  86  93    54  73  80    72  95 106    89 121 134    92 123 133   103 129 135   125 151 158   116 146 156   122 144 162   127 147 162   153 173 183   159 181 189   150 175 188   142 171 190   141 170 192   106 126 142   116 130 129   166 171 171   162 160 165   128 124 123   119 116 118    89  90  89    84  84  77    67  64  48   100  96  76   110 113  96    61  73  64    37  57  55  
 118 154 170   106 137 150    84 113 124    82 110 120    60  87  97    42  65  71    22  40  44    10  24  26    10  22  21    20  30  29    19  36  36    28  43  43    46  63  64    59  78  81    37  56  63    49  74  81    82 107 118   100 126 141    90 114 128    84 106 120    77  96 109   140 158 170   123 140 153    94 121 120    81 115 115    71 103 114   114 140 156   137 157 173   133 155 168   127 156 167   116 146 169   127 151 166   137 153 160   112 124 126    87 101 104    84 104 114    63  88 101    37  66  72    78 101  93    91 103  95    70  72  69    46  43  38    38  33  28    46  36  26    39  27  13    55  46  29    76  76  60    46  57  49    25  47  50    29  61  73  
  93 126 141    80 111 124    81 109 119    69  90  97    52  71  71    37  54  44    13  28  16     8  20  14    37  48  54    83  95 110    71  95  97    51  75  80    59  86  92    71 100 110    54  86 101    87 122 141   120 156 173   127 158 170    73 102 113    53  78  90    53  73  82    76  94 100    78  93 100    89 116 116    91 122 125    84 111 123   117 134 151   139 151 166   133 149 163   121 146 159    94 129 134    62  91  94    31  54  54    20  38  37    24  39  39    19  34  38    16  34  39    16  39  42    22  40  32    28  39  30    31  33  28    43  42  36    66  63  53    86  74  60    60  46  34    97  88  87    90  93  99    88 104 117    95 122 139   118 152 172  
  98 131 148   112 143 157    90 118 130    46  61  68    27  37  36    16  26  17    10  23   9    19  34  26    75  93  96    97 116 130    69  90  92    45  67  71    56  82  89    71 100 111    68 100 115    89 120 138    71 103 120    58  86  99    57  85  96    76  99 110    80  97 107   102 116 125   151 163 170   164 182 198   171 192 213   173 190 210   163 174 185   160 168 172   139 151 152    93 113 118    51  76  73    36  62  64    49  78  84    65  93 102    69  94 101    76  95 100   108 123 130   126 133 145   126 130 137   126 127 130    83  80  87    91  89  96   112 111 110    98  91  82    95  88  82   139 140 145   135 146 158   127 148 167   129 156 177   128 161 180  
 136 169 188   135 166 185    94 124 141    48  63  71    35  43  48    34  42  45    45  54  56    54  70  69    51  74  71    33  61  56    29  56  66    56  84  96    81 112 126   112 144 161   116 147 165   106 137 154    76 103 119    75  96 113   120 140 156   160 177 192   154 168 181   151 163 174   170 179 189   137 149 156    99 114 119    68  86  85    57  72  62    51  62  48    34  48  37    36  56  53    50  73  94    62  87 112    76 104 131    66  94 117    53  76  87    58  71  71    96 101  99   144 142 148   169 167 171   132 131 130    86  85  91   109 108 117   111 113 110    89  88  80   141 143 137   154 168 166   144 167 171   124 153 162   125 154 168   126 155 173  
 139 171 194   119 151 174    87 118 140    45  68  77    52  67  74   112 124 134   135 145 156   109 122 129    52  72  72    33  57  53    60  87 106   103 132 150   100 131 149   110 140 158    92 120 135    52  76  88    30  50  60    43  56  65    44  57  66    46  57  63    63  74  80    72  82  86    67  76  80    36  45  35    12  28  16     1  22  13    12  34  26    15  34  29    25  44  46    61  84  91    89 116 146    85 112 142    58  83 110    29  48  66    17  29  36    35  40  35    55  56  45    53  55  47    55  57  52    40  43  35    65  70  67    88  91  96    73  78  72    68  71  62    76  84  79    51  72  74    40  71  78    58  93 105    89 123 139    93 124 142  
 104 136 161    93 127 153    78 111 137    63  94 101   114 140 141   165 183 188   155 168 176   129 140 152    92 106 121    92 110 124   104 120 133   118 135 148    74  91 102    39  55  63    20  31  34    19  24  22    14  20  16    12  21  16    11  20  15    17  26  21     6  17   9    17  28  21    17  28  20    15  21  21    19  32  40    38  60  79    63  88 111    83 106 129    99 122 147    66  92 119    37  61  68    34  53  62    49  64  72    51  61  68    29  37  40    63  72  71    83  92  89    48  58  53    40  48  49    53  61  59    71  78  85    64  67  82    34  38  42    32  35  28    33  42  41    65  85 100    95 127 153    91 128 157    91 127 152    77 113 133  
  61  93 113    53  80  98    51  73  91    52  74  85   110 130 139   114 130 137    65  78  83    58  69  73    56  67  71    53  64  68    27  36  31    25  30  34    18  23  27     8  12   9    10  13   5    14  16  13    12  18  20    21  31  31    12  23  20     4  21  15     9  28  26    16  36  42    28  49  62    48  76 100    80 111 139   112 142 168   110 137 159    83 105 122    49  64  75    26  37  43    23  33  32    36  46  47    55  67  69    32  44  45    10  22  22    24  34  33    30  36  35    35  36  38    32  33  35    29  33  34    25  29  30    15  20  23    15  22  24    20  39  41    64  92  96    96 126 137    75 108 120    56  86  97    37  59  64    26  41  42  
  51  79  95    51  72  87    42  60  72    33  48  53    33  47  48    31  41  42    17  26  25    21  27  27    17  23  23    11  19  21     9  15   4     5  11   6     4  12   9     6  16  10     4  17   8    11  26  24    46  60  65    46  58  63    23  39  48    48  66  83    70  93 116    73 100 128    81 111 141    97 125 143    77 103 117    53  81  93    33  59  69    26  49  55    31  50  52    28  44  43    23  34  36    20  32  35    19  33  36    27  39  41    32  41  40    24  30  28    17  23  20    13  23  22    10  20  18    14  24  23    18  28  27    27  39  37    42  54  54    40  52  52    36  50  51    28  43  48    13  30  34    13  26  30    15  23  22    20  23  20  
  47  71  81    40  57  64    34  46  50    27  34  32    23  28  24    18  20  15    19  20  14    13  15   9    15  17  13    10  14  13    10  15   6    16  23  21    19  31  34    29  46  50    43  67  71    55  82  92    79 108 124    65  96 118    73 103 130    95 124 156   110 139 170   127 157 181    80 108 128    31  56  57    14  36  33    21  46  44    14  40  42    29  54  58    35  59  63    29  53  57    31  54  68    45  68  82    47  69  83    42  62  73    37  53  60    25  36  38    19  30  32    26  44  46    35  51  53    34  49  52    45  60  65    45  59  64    37  50  56    30  40  44    19  24  28    11  16  19    15  19  20    22  25  24    17  19  17    18  18  16  
  26  43  47    25  36  35    22  28  25    17  20  15    23  24  18    10  10   2     9   9   2     6   9   4     9  17  15     8  18  20    19  33  41    40  55  68    69  89 106    90 115 135   104 134 155   116 149 172   126 161 186   110 150 175   108 147 171   107 143 163    81 113 127    47  76  83    16  44  44    12  37  29    10  35  29    13  39  38    34  61  68    56  85 100    79 110 130    94 124 148    92 132 157    84 123 149    67 103 128    59  92 113    73  99 114    90 111 124   101 119 129   115 133 143   123 140 150   119 133 144   123 137 148   112 124 138    95 105 120    62  75  86    22  35  43    13  22  27    17  24  25    12  20  19    13  22  23    21  32  34  
  20  29  28    19  24  19    16  18  11    12  13  10     8   9   5     5   7   3     2   8   4    14  24  23    26  41  47    41  58  70    86 109 130   119 145 166   121 150 173   117 149 174   126 158 183   123 152 176   109 137 156    92 122 133    61  91  99    26  57  62    10  43  48    18  51  59    39  71  81    68  96 109    83 111 125   106 133 152   124 152 174   130 161 187   135 168 196   115 148 179    91 131 156   109 148 173   117 153 177   121 154 174   121 149 164   126 148 160   137 155 163   125 138 144   110 122 128   126 137 143   132 141 148   120 128 138    99 106 116    46  60  68    23  38  43    38  52  53    34  46  46    30  43  43    46  61  61    39  57  59  
  13  17  13    12  13   8    12  13   7    12  12  10     6   8   7     4   9   6     1  10   8    22  39  42    69  94 105    95 121 140    94 126 143    92 126 141   107 144 160   109 145 164    92 126 145    66  95 108    36  65  74    27  55  65    33  62  69    49  78  84    78 106 119   116 142 166   145 169 202   138 166 205   131 159 197   151 178 210   131 157 183   103 129 150    77 105 122    74 103 119    96 120 130    83 107 117    70  93 103    56  77  86    47  64  71    49  62  65    52  63  62    37  48  40    25  36  30    32  41  36    25  34  29    20  29  24    23  31  26    26  36  32    37  48  44    41  53  49    35  47  45    45  57  55    49  61  60    39  51  51  
