P3
50 50
255
  60  65  61    87  97  89   112 132 123   129 154 151   134 162 165   150 175 179   135 157 155   141 161 152   146 159 152   112 124 112    49  58  37    42  46  19    46  49  20    71  71  47    51  50  34    62  62  52    87  91  77    60  64  49    78  81  61    68  66  42   151 144 118   150 144 128    39  41  39    54  62  73    53  70  90    29  41  50    63  69  67    83  88  81    47  57  48    52  64  56   112 119 112   168 174 165   220 220 215   182 181 176   174 175 169   172 175 168   162 168 164   126 139 134   108 127 125    78 100  98    65  80  83    79 102 108    66  84  84    70  86  83    73  94  97   104 106 101   209 188 169   250 220 199   182 152 126    84  56  32  
  59  65  59    79  91  83    90 110 101   124 150 147   129 157 160   152 177 183   136 157 159   144 165 160   151 168 166   152 167 158   106 119 100    43  50  25    36  39  12    50  50  26    58  56  37    59  57  43    77  79  59    70  72  54    66  66  48    70  65  45   138 130 110   137 131 115    39  41  35    83  92  95    64  79  93    28  39  44    72  76  71    84  89  82    70  80  73    53  64  60    87  97  93   166 171 169   223 223 218   190 188 183   179 180 173   161 164 157   161 168 161   143 155 151   115 133 131    84 103 103    68  82  83    77  98 103    78  96  96    68  84  81    63  82  86    74  75  70   189 168 149   235 207 186   173 143 117    84  56  34  
  61  70  63    70  85  75    78  98  89   106 132 129   122 150 154   138 164 172   139 163 169   147 170 170   148 170 171   152 170 167   155 170 158    89 101  80    49  55  30    39  40  16    51  49  26    65  61  41    70  68  41    88  86  65    68  66  49    55  49  33   153 144 128   155 149 133    60  60  50    95 106  98    58  68  76    31  37  38    67  69  63    75  80  73    57  67  63    74  86  87   103 113 116   155 160 165   209 209 202   187 187 180   182 183 175   158 162 155   153 162 154   142 154 150   113 128 126    83 100 100    64  77  77    65  85  89    78  94  93    74  89  86    75  94  98    93  96  92   195 174 156   233 205 185   167 138 115    96  68  47  
  79  91  87    67  83  75    72  93  86    88 114 111   118 145 151   118 146 156   136 162 171   147 172 176   153 178 182   146 168 169   153 173 165   137 153 137    89 100  78    69  73  48    37  36   9    51  49  23    83  79  48    94  90  66    68  66  47    67  59  44   152 141 125   186 177 161    89  87  73    91  97  84    58  63  67    24  27  24    51  52  45    79  84  77    53  64  60   114 127 128   148 157 162   170 175 179   199 197 190   183 183 175   180 181 172   156 162 153   128 138 130   112 125 119   106 121 118    93 107 107    62  72  71    57  75  79    76  90  90    78  93  90    81 100 104   104 109 105   191 169 155   238 209 193   163 135 114   100  72  53  
 112 126 126    78  97  93    69  92  86    85 111 110   110 139 145   117 144 156   128 155 166   140 169 175   148 173 180   146 171 174   147 169 166   149 168 157   137 152 133   113 123  98    77  82  52    35  36   5    80  75  45    90  89  61    81  79  58   142 135 116   177 164 145   184 171 152   122 115  99   113 112 100    45  51  51    18  20  15    56  58  47    73  79  69    59  69  64   138 150 148   175 184 184   191 193 193   193 190 183   187 187 178   190 193 182   171 179 168   121 131 122    88  99  93    87  99  97    78  90  90    67  73  73    57  72  75    82  94  92    83  95  93    93 111 115   106 110 109   179 157 143   239 212 195   170 141 123    95  68  51  
 134 149 155   107 127 126    86 108 105    86 112 111   100 129 135   130 158 169   129 159 167   129 160 165   144 168 175   156 180 184   147 171 169   150 171 162   144 163 147   136 150 125   124 133 102    58  64  30    53  49  20    87  85  60   100 100  74   105  99  73   130 117  91   195 179 156   189 176 160   122 113 104    59  65  65    25  27  22    48  51  40    59  67  54    66  77  69   130 142 135   173 179 172   195 195 187   213 209 200   206 206 196   202 205 194   171 179 166   118 130 120    91 102  96    77  88  84    68  78  78    77  81  80    63  77  79    78  88  87    81  93  91    90 108 112    97 101 100   151 132 118   240 212 198   200 173 155   102  75  58  
 136 155 162   126 146 150   106 132 131    86 114 116    91 121 128   130 161 170   134 164 173   123 153 159   145 168 176   155 179 183   141 166 165   132 155 148   146 167 153   141 157 135   144 155 128   107 115  85    41  41  11    57  58  35   102 100  74    80  73  41   111  97  67   189 173 150   144 131 116   106  96  90    88  94  91    36  41  35    28  30  21    44  50  37    79  88  76   130 139 125   161 165 152   174 173 160   215 211 201   216 215 205   212 215 204   179 186 175   119 131 121   105 116 108    76  87  83    64  74  72    68  72  72    65  80  79    67  80  78    74  86  85    80  97 100    96 102 101   127 112 100   210 181 168   177 152 133    95  69  54  
 139 160 166   133 156 162   116 144 148    95 125 131    86 117 125   102 134 142   124 154 164   132 160 171   132 157 164   151 176 181   144 170 170   136 161 156   140 161 150   147 164 148   142 156 137   141 153 131    78  90  54    28  30  13    62  55  33    90  77  41   112  97  65   176 163 144   121 114 100   119 115 108   119 122 115    37  39  34    28  29  24    47  48  37   122 123 105   163 165 144   161 162 146   170 170 160   206 202 191   218 215 206   216 219 208   190 198 188    77  87  79    70  80  75    67  76  73    63  72  69    81  85  89    80  95  93    74  93  89    73  89  89    79  94  97    95 107 105   124 117 109   186 157 146   112  91  71    79  58  40  
 145 165 172   139 162 168   126 152 158   110 138 145    96 125 133    90 120 130   104 133 144   125 153 164   128 153 162   146 171 177   142 168 171   138 162 161   137 160 153   136 156 144   150 166 151   156 169 153   116 128  97    39  44  20    41  36  15    77  65  36   103  89  55   172 160 139   164 154 147   160 153 147   119 121 113    37  39  34    32  33  28    39  40  31    93  96  78   173 175 156   200 201 186   175 175 167   198 196 184   199 198 188   210 212 201   194 201 190    67  75  67    39  48  41    61  70  65    61  70  67    76  81  85    83  99  98    84 103 100    80  96  96    80  95  98    96 108 106   128 123 116   195 167 158   123 102  85    99  80  64  
 166 186 195   151 174 182   139 162 170   124 148 158   110 137 146   108 136 147   113 141 151   111 139 150   122 146 158   137 161 170   133 158 163   121 147 148   126 151 148   134 155 150   154 171 164   155 170 162   146 160 136    67  76  47    38  37  16    73  62  39    93  80  46   157 143 120   163 150 144   162 152 145   104 104  94    44  44  39    35  36  31    26  27  20    34  37  22   127 130 113   192 193 180   151 151 143   180 179 167   156 156 146   188 190 179   180 186 176    88  95  87    38  48  39    68  77  72    56  65  60    82  90  93    85 101 100    77  97  95    90 105 108    94 109 113    97 110 110   126 123 116   185 162 151   116  97  82    97  78  64  
 177 197 208   179 199 210   173 193 204   151 173 184   131 154 166   119 145 156   108 136 147    94 122 133   100 124 135   117 141 151   129 156 163   114 142 145   118 144 145   146 168 166   152 172 170   152 171 169   150 168 152   118 131 106    45  48  27    44  38  18    97  86  54   177 163 136   159 145 135   166 153 145   138 134 123    78  75  70    34  35  30    18  21  14    29  32  21   114 117 103   180 182 171   175 174 169   160 162 151   140 143 132   172 174 163   171 174 165   155 160 153    61  68  61    65  75  67    70  81  73    70  79  84    77  95  95    74  94  92    89 104 107    83  98 103    89 103 103   124 125 117   148 128 117   113  94  81    90  70  59  
 185 205 217   193 212 226   186 205 219   169 188 201   152 173 186   131 155 167   115 142 153   115 143 154    84 108 117    79 106 113   112 139 145   118 146 151   107 134 138   142 166 169   145 167 169   153 173 175   154 172 164   149 162 146    68  74  54    31  27   8    81  71  43   169 156 124   164 149 127   155 137 130   194 188 176   166 161 155    58  57  55    16  19  14    26  33  23    87  91  78   160 161 151   180 179 174   112 115 104    91  94  83   118 120 109   131 133 125   192 195 187   111 118 110    44  54  45    79  90  82    81  93  97   100 118 118    87 107 106    87 102 106    78  93  99    76  92  92   109 112 105   152 136 126   105  87  73   112  94  80  
 186 205 219   188 207 221   187 205 219   182 200 214   169 188 202   146 168 181   130 157 168   132 160 171   107 132 138    57  85  90    79 107 111   122 152 155   103 132 134   135 161 165   147 171 174   154 177 179   153 172 170   155 169 162   106 113  96    45  42  22    44  33  11   112  99  64   162 146 115   149 130 123   170 161 150   173 167 161    53  52  50    11  16  12    25  32  24    81  87  75   153 155 147   163 162 158   120 124 113   129 132 121   151 153 142   136 137 129   181 184 175   172 177 170    55  65  56    55  67  57    79  93  96    96 116 115    84 104 103    80  95 100    83  98 105    76  93  93   101 105  98   176 162 151   152 134 120   110  93  78  
 185 207 222   180 201 215   187 206 220   185 204 219   170 189 203   145 165 179   134 157 170   124 149 161   117 147 157    78 106 110    42  73  72   102 141 137   109 146 148   130 158 166   153 174 182   153 178 181   159 178 179   153 168 163   113 123 108    92  93  72    37  31   6    72  63  33   126 112  85   146 132 115   143 133 122   138 136 130    43  47  42    13  17   8    23  29  20    85  95  87   164 172 163   157 156 147   146 146 129   188 188 172   183 182 168   153 154 142   178 179 168   202 205 195    93  97  88    38  43  34    71  76  77    86 101 102    86 108 106    81  97  96    79  92  94    91 102 104    97  99  91   176 163 145   199 180 164   112  91  75  
 168 191 205   181 203 217   192 211 226   182 201 215   164 183 197   150 169 183   144 166 179   131 155 165   127 155 167   109 137 143    61  93  91    52  91  87    91 129 132   125 153 164   147 170 180   144 169 173   157 176 180   160 176 173    86  97  85    90  93  72    50  48  23    55  48  22   142 131 109   141 129 107   121 113 102   105 106 100    43  49  43    14  20   9    15  23  13    70  82  78   166 177 171   155 157 146   163 161 145   194 192 177   168 166 151   146 147 133   173 173 160   210 212 201   122 124 113    30  32  22    45  45  43    72  86  86    91 112 109    88 103  98    71  82  81    85  91  94    87  84  77   163 148 127   191 170 155   131 108  92  
 145 169 181   174 196 209   195 214 228   197 215 229   167 185 199   132 151 165   151 173 184   150 174 184   140 161 178   126 154 163    90 124 127    34  65  68    50  83  88   114 147 156   142 172 180   140 165 173   153 174 179   167 186 184   103 117 107    46  54  36    72  71  50    43  39  15   101  94  71   165 154 134   134 128 117   109 111 106    55  64  59    26  32  24    14  24  16    54  69  66   145 158 156   150 157 147   164 162 149   179 177 164   178 176 164   159 159 147   171 171 159   214 214 202   129 131 118    31  33  19    30  35  28    64  76  71    83 100  93    90 101  91    89  95  90    82  88  88    92  88  79   154 137 117   197 174 160   126 103  87  
 122 144 155   136 158 169   170 189 201   194 211 224   182 200 212   120 140 151   111 132 143   139 161 172   138 155 172   114 142 153    96 128 136    84 110 118    35  63  69    83 120 125   124 159 166   146 173 183   161 185 191   162 184 186   151 167 161    58  70  56    66  71  53    64  63  42    46  42  20   161 154 133   174 170 159   125 130 126    46  55  52    23  30  23    13  23  16    41  57  57   109 126 125   141 152 144   183 181 172   191 188 180   181 179 170   164 164 153   163 163 152   196 196 184   137 138 124    45  47  33    24  30  20    60  70  62    88  97  88   113 114 103   117 120 111    84  89  85    86  81  75   144 125 109   202 174 162   123  99  86  
 151 172 182   140 160 170   148 166 177   175 192 203   185 203 214   157 175 186    96 116 127   109 130 141   136 156 170   122 149 161   104 133 144    98 123 133    41  68  73    44  80  82    99 133 137   138 166 177   152 178 187   153 178 182   168 188 185   121 136 127    63  74  58    50  53  34    31  29   9   107 101  82   193 188 177   143 146 141    62  69  65    32  36  29    18  26  20    25  42  42    99 119 117   155 169 160   184 184 176   189 189 181   182 182 172   164 164 154   169 169 158   202 202 191   141 141 129    50  51  38    24  29  19    53  57  50   123 122 113   163 157 143   104 104  93    83  88  84    85  80  76   140 122 110   210 182 171   150 124 111  
 158 178 186   165 184 192   142 160 168   152 169 179   163 180 190   171 190 200   136 155 165   112 132 143   106 133 143   111 135 147   101 125 139    72 100 109    54  83  84    35  65  64    69  99 102    99 128 137   142 168 181   153 179 186   162 185 186   153 173 166    96 109  96    36  42  26    25  25   7    52  49  30   177 170 157   155 156 150    79  82  78    36  37  29    24  29  23    18  34  33    86 106 104   141 157 147   165 165 156   184 184 174   181 181 171   163 163 153   166 166 156   193 193 183   149 149 140    63  63  54    26  26  20    58  56  51   134 124 116   167 153 139    85  82  71    87  93  90    82  81  78   130 112 104   186 161 149   133 107  94  
  60  81  86   138 158 164   143 160 168   133 150 158   157 174 184   156 173 183   154 172 182   142 162 172   118 151 156    96 120 132    87 109 123    75 106 111    64  96  93    40  66  62    42  68  70    73 106 113   125 152 165   155 182 191   162 187 190   162 185 179    94 110  99    50  58  43    34  35  18    30  27   8   132 125 109   167 167 159    96  98  93    47  44  37    26  29  22    16  31  28    70  89  86   133 149 138   155 155 143   176 176 164   188 188 178   171 171 161   160 160 152   177 177 169   137 137 129    68  65  60    26  23  18    63  55  52   137 121 114   162 144 132    91  87  76    92 101  98    92  92  93    90  75  71    71  49  36    76  49  38  
  20  39  46    61  81  88   126 151 156   157 177 184   153 167 176   150 162 174   139 156 166   153 173 182   151 169 179   120 140 149   115 140 147    92 117 125    55  79  83    33  53  54    28  42  42    53  63  62   102 132 139   150 181 186   159 186 189   168 193 190   100 115 111    38  44  33    43  41  25    33  24   6    94  87  69   170 168 147   115 115 103    57  61  64    30  38  41    18  28  19    55  66  50   122 133 119   166 166 154   183 183 171   177 177 165   172 172 159   159 159 147   166 167 159   123 126 119    58  63  56    28  28  20    69  67  54   112 103  88   114 100  87    84  80  71    83  91  83    98  99  93   127 109 107    78  59  42    62  34  20  
  41  58  64    75  96 101   104 129 134   164 184 190   180 194 203   165 178 187   148 165 174   150 170 178   155 172 182   130 149 158   125 148 155   115 139 146    76 100 104    40  59  63    30  44  45    40  53  53    65  92  93   128 154 157   149 173 177   170 191 193   139 153 151    48  54  44    71  71  53    62  57  34    52  48  27   138 136 114   122 123 110    60  63  64    45  50  54    24  34  25    36  47  34    85  95  85   153 153 144   185 185 176   187 185 174   177 175 162   167 164 152   165 164 152   127 129 119    73  76  66    33  33  25    62  60  47    93  84  69    85  71  60    68  64  56    68  76  68    87  88  82   168 150 148   131 111  95    92  65  51  
  39  54  58    73  92  96    73  97 100   114 135 139   174 189 197   177 190 198   166 182 190   157 176 183   154 171 180   150 169 177   124 146 154   102 125 133    88 111 117    61  81  86    44  61  62    56  72  72    58  78  74   106 125 125   106 126 130   138 156 162   168 182 182    78  86  78    77  79  62   111 112  86    48  47  22    98  98  71   128 129 112    74  76  76    51  56  59    23  31  25    28  38  28    63  73  67   128 131 126   183 185 178   199 198 189   191 187 175   177 172 159   180 178 164   159 159 143    86  88  73    31  31  22    60  58  45    80  73  57    71  60  49    62  60  53    58  67  61    79  80  75   172 154 152   161 139 126   141 115 102  
  27  38  41    71  87  88    59  83  84    75  96  98   149 166 172   191 204 212   176 191 198   171 188 196   155 171 178   150 168 175   127 146 156    97 118 127    91 112 118    82 103 108    57  77  80    50  70  71    54  67  63    97 111 111    82  98 103    67  84  91   140 155 157   125 137 130    76  83  67   150 156 132    89  91  65    67  69  41   117 119  99    94  95  93    64  66  68    23  30  23    22  32  24    53  62  60   101 109 107   169 174 169   192 192 186   180 176 165   176 170 157   192 187 171   163 161 144    92  92  74    46  44  33    53  51  37    62  55  41    62  52  43    63  64  57    57  68  62    73  74  69   166 148 146   172 148 140   169 143 131  
  31  39  41    50  66  65    59  81  80    53  76  77    98 116 118   170 183 189   197 212 219   184 201 208   170 185 192   149 163 172   138 155 163   121 139 149   107 127 136   102 122 129    77 101 105    56  79  81    54  66  65    75  89  90   103 120 123    70  90  92    41  59  59   142 156 151   150 161 151   174 185 170   138 140 116    55  58  29    80  82  61    88  89  84    69  70  72    29  34  28    13  23  14    41  51  50    85 100  99   140 152 150   189 194 187   183 180 173   170 163 153   198 192 179   171 169 153   147 148 132    84  81  69    25  23   8    34  31  16    57  50  40    60  62  57    58  70  66    68  69  64   163 145 143   179 151 147   194 169 159  
  27  33  33    34  48  46    63  85  82    75 100  97    64  84  85    75  88  94   170 183 191   209 224 231   194 208 215   171 186 193   152 166 175   141 158 168   127 146 155   104 128 134    84 109 113    68  93  97    63  76  82    49  67  71    62  82  83   124 146 144    52  74  71    74  93  89   179 191 190   167 178 175   164 169 146    61  65  38    45  46  28    61  60  55    50  50  50    38  43  35    17  27  18    36  47  43    82 104 102   122 138 135   171 180 176   183 183 178   151 147 138   183 179 168   181 179 167   196 198 185   112 110  97    32  33  17    27  24   9    44  39  30    55  60  56    58  70  67    61  62  57   155 135 134   180 150 148   210 185 178  
  24  28  28    25  38  36    52  74  71    66  90  87    46  64  65    51  63  68    92 104 108   179 193 198   188 199 205   170 182 189   153 166 174   150 166 175   132 150 158    97 121 127    78 103 107    59  87  90    64  80  86    50  69  72    24  44  44    77 101 100   130 153 151    63  84  85   137 154 154   171 185 186   155 162 142    53  57  35    28  28  11    38  35  29    30  30  27    34  39  32    18  27  19    29  39  33    70  94  90   108 128 126   149 161 158   187 188 183   173 171 163   186 185 177   183 183 175   204 203 196   135 135 120    51  51  35    30  24  10    37  32  22    49  54  48    59  69  65    57  55  49    94  74  70   184 154 151   198 173 167  
  24  29  29    27  42  40    49  71  68    71  93  91    52  67  68    70  78  80    70  79  79   124 135 132   168 175 181   160 169 174   146 157 162   144 159 164   120 139 143    89 112 116    64  89  93    60  86  90    49  70  71    51  68  68    52  69  70    34  53  59   127 152 160   128 155 162   124 147 147   164 182 176   123 135 120    33  36  20    40  36  20    37  30  19    36  34  29    39  43  42    29  35  33    32  39  32    60  79  76    88 109 107   140 154 154   181 182 181   184 184 176   178 184 172   190 193 187   214 206 209   144 149 135    71  68  54    48  37  25    28  23  12    28  34  24    39  44  37    63  55  46   106  86  75   185 158 147   189 164 161  
  37  46  49    33  48  50    55  77  77    71  93  93    59  75  75    49  59  60    65  76  73    72  83  77   110 117 121   161 171 174   145 155 160   135 150 153   103 121 125    87 108 113    72  96 100    57  82  86    57  81  86    50  70  74    68  86  91    58  78  84   104 129 139   168 192 202   151 172 174   152 168 164    92 102  85    25  27  10    57  51  33    45  38  23    61  58  50    69  73  70    47  55  52    17  25  20    48  65  65   101 123 123   154 171 173   183 186 187   182 182 175   172 177 163   186 189 181   218 213 210   155 161 147    77  74  62    63  56  42    28  26  14    16  21  13    26  30  23    40  30  23   110  88  79   188 164 150   185 160 155  
  37  52  59    37  55  61    50  71  76    74  94  97    74  92  94    47  61  61    57  68  65    75  88  81    59  67  69   179 189 191   167 177 180   142 156 159   111 129 133    79  98 102    92 113 118    97 121 125    76 103 114    47  70  78    52  71  79    85 108 116   118 145 156   157 184 193   162 181 187   155 169 169    65  73  58    34  35  17    67  61  39    49  41  22    70  68  56    82  87  81    41  50  47    17  26  23    38  49  51   114 135 138   152 170 174   178 185 187   180 179 174   168 172 158   163 165 154   210 207 202   161 164 153    91  91  77    63  64  48    25  27  14    19  24  17    14  15   9    32  21  15    95  75  66   178 155 137   178 153 148  
  22  42  49    38  59  66    58  78  85    52  71  77    82 101 105    74  93  91    35  50  45    87 100  93    85  93  95   168 178 179   191 202 204   144 158 159   145 160 163    95 113 118    62  83  88   104 125 130    86 114 125    46  71  78    43  63  69    63  86  94   111 138 149   158 185 196   157 177 184   165 180 183    72  82  72    40  44  27    75  70  48    46  41  19    56  55  41    81  86  81    49  58  55    23  32  31    26  36  38    94 115 116   132 156 158   158 168 169   175 176 172   179 181 170   167 169 158   201 198 192   190 190 180   108 109  95    65  68  51    31  37  23    17  22  15    17  18  12    30  20  14    62  44  34   141 124 104   168 143 138  
  35  64  68    36  59  65    75  94 101    27  46  53    58  79  83    88 110 111    44  60  60    70  82  79   116 125 123    95 105 104   177 188 189   161 174 175   140 155 158   130 148 152    69  87  93    72  91  97    81 108 115    60  85  89    32  53  55    46  71  74    95 125 132   145 173 184   156 180 188   166 185 190   108 125 121    37  45  34    74  74  54    51  50  27    98  99  83   108 114 107    76  82  80    34  40  40    20  28  27    61  83  82   129 157 158   149 161 162   170 170 169   182 181 174   189 191 181   204 203 198   192 186 178   146 146 132   106 111  95    86  95  80    53  60  52    17  18  13    27  18  11    40  28  16    97  80  63   159 134 131  
  57  92  93    50  76  81    75  94 101    32  51  58    46  70  75    82 107 109    67  86  87    67  78  79   121 130 127    61  71  70   113 123 123   180 192 193   143 157 160   132 148 153    93 110 117    62  81  87    65  90  94    77  99 101    44  66  65    28  54  54    74 105 110   131 162 172   162 190 199   175 196 203   154 176 179    56  69  63    53  58  40    53  56  34   104 107  90   140 147 138    85  91  89    45  50  50    21  26  23    34  56  53   116 146 145   148 164 164   171 171 171   181 178 173   183 184 178   199 199 194   196 184 178   183 180 168   127 134 118   101 113  99   128 136 128    44  46  41    25  19  11    35  26  13    82  65  52   140 114 114  
  58  86  91    62  88  94    46  68  74    35  54  61    33  55  60    44  65  69    53  72  76    74  90  94   132 145 146    79  91  89    50  61  57   162 172 170   167 178 182   136 150 157   129 148 154    94 117 120    71  92 101    77 101 107    67  93  95    26  50  53    31  52  59   113 133 142   177 201 209   179 207 214   181 203 205   111 127 123    46  55  42    60  63  44    69  69  52   138 142 129    96 103  97    60  69  65    21  32  25    20  36  30    94 112 108   149 162 161   164 172 169   177 180 176   171 173 168   189 190 183   193 188 184   187 187 182   146 155 149   109 121 117   139 149 146    89  93  89    25  24  15    26  18   7    77  58  50   130 108 103  
  47  70  78    68  92  99    48  71  77    24  44  51    88 108 114    43  63  69    53  74  79    87 107 112   118 133 136    89 104 101    41  52  46   121 130 127   173 182 187   144 157 165   147 164 171   141 162 165   130 150 161   119 144 151    90 118 121    53  77  81    14  31  36    48  65  72   141 164 170   171 202 207   185 206 207   147 164 158    48  56  41    72  76  53    69  68  47   142 145 128   120 127 119    91 101  99    52  65  58    18  30  26    53  65  61   144 155 154   168 179 175   178 184 180   183 184 179   188 189 183   185 185 183   180 184 183   163 171 171   154 166 166   148 158 158   112 118 114    47  47  40    26  21  10    81  63  59   114  97  90  
  24  44  51    44  64  71    79 102 110    20  43  51    67  90  99    74  97 106    63  85  96   119 141 152    94 110 110    91 106 102    60  73  66   132 142 138   165 175 177   162 172 180   151 166 173   141 159 163   127 147 156   127 149 155    98 123 127    81 105 107    61  80  84    18  37  41    43  69  69   127 157 158   178 200 203   153 169 163    41  50  31    76  80  50    63  63  35   119 120 102   139 144 138   106 114 117    67  78  72    20  32  28    20  32  28   101 113 109   157 168 164   181 187 183   179 184 178   166 169 162   166 168 168   184 188 187   171 181 182   144 156 156   145 158 155   122 128 124    58  60  54    29  27  18    68  60  55    96  88  81  
  27  46  53    13  32  39    50  73  81    64  89  96    38  63  73    90 115 126    64  88 100   118 142 154    69  83  83    91 106 100    82  95  86   131 142 136   152 162 165   160 170 179   151 163 171   149 162 168   103 124 130    78 101 107    82 105 110    73  97  99    82 106 109    65  90  92    28  54  53    71  99  98   163 183 189   137 154 147    41  50  29    82  86  53    56  55  24    79  80  59   161 163 159   125 129 137    54  64  61    30  41  38    22  34  30    96 108 103   140 152 147   175 185 180   172 179 174   150 155 150   165 170 171   177 183 184   163 173 174   127 140 140   146 159 157   142 152 149    62  68  62    27  29  23    35  35  30    56  56  51  
  31  50  57    36  58  64    51  75  83    78 106 113    54  82  90    68  95 104    83 107 118    80 103 114    57  67  67    95 106 100    84  95  85   114 125 119   137 147 149   169 179 188   140 151 160   154 167 173   139 161 165    91 112 116    89 109 114    72  96 101    62  89  94    90 120 122    94 121 123    79 104 107   158 178 186   135 152 148    43  52  34    78  80  50    53  52  22    67  65  46   175 176 171   141 145 150    72  81  81    33  42  41    15  26  22    82  95  89   134 147 140   161 172 166   154 163 158   145 153 149   178 184 189   169 177 181   164 175 177   119 133 133   134 148 148   158 170 167   116 126 122    55  62  58    20  23  18    40  43  38  
  41  61  69    48  72  79    60  88  93    42  73  77    58  89  92    43  71  76   101 125 131    71  90  98    64  70  69    80  86  80    77  86  75    91 102  95   106 118 118   153 165 172   150 165 172   128 142 147   143 168 166   116 136 139    91 110 117    84 107 115    64  93 102    83 115 122   142 169 177   148 169 178   169 189 199   156 171 173    58  65  55    56  56  35    49  45  23    70  67  49   185 185 176   149 152 150    90  96  99    44  52  53    28  39  35    37  50  43   119 132 125   137 150 143   121 131 127   161 170 167   180 188 195   151 161 165   148 161 163   105 119 120   140 154 154   166 180 177   153 164 162    90 101  99    24  27  22    37  42  36  
  38  60  68    31  57  64    15  44  49    33  64  67    62  93  95    24  51  53   100 122 125   103 121 125    38  38  38    63  65  60    55  63  52    65  76  68    70  82  82   118 131 137   170 185 192   129 147 151   124 149 146   125 144 146    77  94 102    67  89  99    72 104 115    82 116 125   134 162 174   174 194 208   157 177 189   162 177 182    84  90  85    33  31  18    34  29  12    60  57  42   200 200 190   167 170 163   118 123 127    79  87  89    44  55  51    30  43  36   102 115 106   123 136 129    82  93  89   138 148 147   165 176 181   152 163 169   142 156 159   102 116 117   111 124 124   144 159 156   106 121 118    80  91  90    46  49  42    56  61  54  
  56  85  93    38  62  67    21  39  40    26  46  44    75  99  99    54  79  83    79 105 104    81 102  99    14  24  15    65  71  64    59  61  56    86  92  88    77  92  89   115 133 133   182 195 201   153 162 171   130 147 154   101 120 125    85 106 109    61  85  89    57  82  87    64  93  99   117 147 157   141 171 182   104 134 145   103 123 124    75  83  78    25  26  20    23  25  14    34  39  19   160 162 148   188 184 183   128 128 126    88  93  89    34  45  37    60  70  62   129 136 129   141 146 142    85  96  92   109 124 121   127 142 142   109 126 128   116 135 138    97 118 123    80 101 106   131 150 154   113 129 131    61  75  76    48  55  50    53  62  58  
  50  77  88    44  67  74    35  56  61    47  69  74    56  82  89    86 114 119    79 102 102    56  74  70    22  34  26    72  80  73    81  86  80    73  80  74    98 113 107   115 131 129   186 199 202   169 178 184   141 158 165   112 130 134    82 100 104    63  86  90    37  62  67    35  63  70    54  83  94    87 117 128    54  80  90    42  59  58    70  75  67    42  40  34    36  38  25    27  31  11   112 114 101   189 188 187   141 141 140    71  78  74    33  44  36    49  60  52   145 152 145   185 190 186   119 130 126    97 112 109   122 136 135    69  85  85    44  61  62    83 102 105    94 114 119   110 129 134   130 148 151    73  89  92    50  59  55    59  68  65  
  48  75  87    57  80  92    26  50  60    78 104 115    82 112 124    98 125 134   122 142 143    80  94  89    47  61  56    66  76  72   122 128 123    47  54  47    55  68  60    84 100  96   173 184 185   176 183 188   142 158 164   129 147 151    80  99 103    66  87  90    32  57  61    41  68  75    53  81  92    72 101 113    50  72  79    32  45  42    85  88  78    80  77  68    42  42  30    27  31  12    86  89  75   202 201 202   171 171 172   101 107 104    53  65  58    32  43  36   116 122 117   186 191 187   136 147 143    94 109 106   123 134 131    93 106 105    39  54  54    54  71  72    76  95  99   113 132 138   129 149 153    73  93  97    55  65  61    57  67  65  
  81 108 122    70  95 108    30  54  66    80 108 120   109 141 154    80 109 120   110 131 135    86 100  98    76  94  93    67  78  76   125 131 127    43  50  42    34  46  36   101 115 109   166 176 176   182 190 192   139 154 159   139 155 160    94 112 116    63  84  87    30  54  58    47  73  80    70  97 107    71  99 110    41  61  68    35  47  43    95  97  86    79  76  67    35  35  23    36  40  22    62  66  54   193 193 193   191 192 196   136 144 142    64  77  72    26  37  31    71  77  73   173 177 175   159 169 168    99 114 111   123 134 130   137 149 147    75  88  86    41  56  56    67  84  85    94 112 117   114 134 140    79  99 106    58  69  67    42  54  52  
  87 116 132    67  93 106    21  43  54    46  70  81   112 140 152    86 116 126   110 136 143    99 120 122   113 136 138    65  80  79    89  98  93    54  61  53    35  45  34   131 144 134   140 151 148   181 188 188   133 146 152   124 139 144   111 128 133    68  87  91    35  59  63    39  64  69    68  95 103    86 114 125    57  81  88    48  63  60   127 132 122    67  66  58    30  32  19    40  44  27    45  48  37   168 168 168   190 193 196   139 147 149    67  79  75    33  45  41    34  40  36   144 148 147   181 190 189    93 108 105   103 117 114   143 158 155   121 133 131    48  60  58    51  66  66    96 111 114   111 129 133    96 115 121    58  72  69    34  48  48  
  77 110 128    67  94 105    24  45  50    34  53  58   114 139 145   105 135 145   123 156 165    94 125 133    82 107 111    44  62  62    97 106 103    72  80  69    20  30  16    77  89  79    93 104  98   171 177 175   134 147 153   112 127 132   120 138 140    94 113 117    71  92  97    41  66  71    64  91 100   115 142 153    95 123 135    66  86  87   113 123 115    51  53  47    31  34  23    30  34  17    49  52  40   143 143 143   183 186 191   138 148 149    95 110 107    54  66  62    25  30  28    99 103 101   188 197 196   100 115 112   116 133 133   150 166 165   141 156 153    85  98  95    50  62  60    72  86  86   105 120 122   104 122 126    64  78  78    37  51  51  
  64  96 110    59  86  95    57  78  81    32  54  56    87 113 119    89 120 131   102 138 148    93 128 140    94 120 125    75  94  95    78  90  86   120 128 118    50  60  47    41  52  41    47  57  51   155 163 162   147 159 164   116 131 133   112 130 131    98 117 121    82 103 108    43  68  73    79 105 114   148 175 186   123 153 168   106 127 131    84  95  92    39  42  36    54  56  47    31  36  21    49  53  40   116 116 115   183 187 189   142 150 150   120 133 130    73  84  80    29  37  35    64  70  69   171 180 180    98 111 109   112 129 128   154 169 168   160 174 173    97 110 106    43  57  52    54  68  65   102 117 118    98 114 119    57  72  73    32  49  49  
  36  55  59    39  61  66    43  68  73    29  57  66    53  83  94    67  99 110    69 102 113    63  96 107    56  79  85   109 129 130    61  77  72   145 157 147   142 151 140    44  54  46    43  53  52   161 172 174   134 145 146   112 126 127   122 137 139   110 128 132    80 101 106    41  64  70    62  87  94   137 164 172   152 178 192   171 191 200   106 117 118    39  44  38    68  69  61    33  34  26    34  37  28    71  78  70   172 174 171   141 146 142   108 115 113    92 103  99    35  47  45    40  52  50   151 161 162   128 137 139    96 109 102   116 128 125   126 141 137   109 125 117    33  51  40    44  64  54    73  93  93    82 100 110    75  93  97    45  63  67  
  20  30  35    38  53  60    24  44  51    27  53  60    36  65  74    70 103 111    48  81  88    49  83  87    45  66  72   117 135 137    68  81  76   118 129 120   170 178 167    69  77  70    63  72  71   177 187 189   121 134 137   104 117 122   120 135 139   113 131 135    81 102 107    37  60  66    22  47  52    87 115 120   163 189 202   189 209 218    99 112 115    29  35  31    40  42  34    34  36  25    27  30  21    42  48  41   138 139 136   161 164 160   103 109 107    84  94  91    46  58  54    20  32  30   105 119 117   162 176 174   153 165 162   135 147 146    84  98  98    83  98  94    38  55  48    54  73  68    67  86  90    82 100 111    69  87  91    50  68  72  
  19  29  34    49  64  69    52  71  78    46  71  78    53  82  90   103 132 138    59  88  91    40  69  70    38  58  65   113 131 133    62  74  70    95 103  95   162 169 158   100 106 100    88  94  94   179 187 190   120 133 140   100 115 122    99 116 122    96 115 121    75  96 101    58  82  87    29  54  59    39  68  71   135 162 173   178 198 209    93 108 113    27  35  32    32  37  26    46  49  36    33  38  29    26  31  27   100 100  98   170 172 170   135 139 138    83  92  89    56  67  63    20  32  29    66  81  77   129 145 142   159 171 169   177 188 190   108 122 125    66  80  80    48  64  61    72  91  89    79  98 103   101 119 131    74  93  97    32  50  54  
