P3
50 50
255
  48  46  33    60  52  35    56  41  23    55  42  20    79  76  36    87  88  43    85  85  18   101  98   8    93  84  15    80  67  32    86  78  36    78  75  30    76  77  27    76  76  20    76  70  13    83  66  16    81  61  19    75  55  13    75  51  12   110  93  37   109 102  24    81  75  12    78  68   6   104  95  16   113 108  18   103 106   3   108 115   1   117 120   3   118 114   2   117 109   2   114 113   7   117 119  17   110 118  21   122 134  29   115 127  28    94 103  10   107 116   7   126 137  12   134 149  23   148 162  47   130 141  33   112 118  12   116 115  24   105  97  24   114 116  40   140 154  76    96 106  52    74  67  25   107  90  22   131 108  15  
  39  36  24    51  43  28    57  44  26    61  47  28    77  72  41    67  66  34    65  62  13    86  80   5    88  78  20    74  59  36    67  54  45    62  55  33    76  76  33    80  80  26    64  56   9    72  53   9    83  61   9    85  64   9    90  67  15   113  95  27   120 117  18   121 120  32   111 106  27   128 120  22   138 131  20   121 123   3   119 125   1   127 131   1   133 130   1   145 138   5   128 126  25   121 125  19    99 106  15   101 111  18   118 128  29   112 118  28   106 109  15   127 132   8   149 164   2   155 170  11   151 160  34   133 135  26   136 134  29   142 138  43   147 151  63   128 138  70    60  61  27    61  48  23   109  90  35   133 113  21  
  40  36  17    69  54  25    74  59  32    61  50  34    62  56  26    59  55  10    61  56  12    79  70  25    85  68  31    80  58  40    46  45  22    30  29  22    63  65  35    85  84  31    79  65  10   110  84  16   127  97  20   132 109  24   118  98  21    91  77  15    87  78  12   106  98  23   104  95  27   133 115  40   141 126  34   124 120   9   121 127   1   123 129   1   125 128   3   126 123   7   118 115  18   116 120  17   101 108  18    89  97  14   127 132  39   124 123  37    94  87  12   130 126  12   137 137   4   128 134   4   143 162   9   159 174  31   164 165  39   159 158  37   132 135  42    92  98  36    69  76  33    80  85  28   104 104  20   127 119  39  
  55  49  27    65  52  29    71  55  27    74  60  26    75  67  21    72  66  12    67  61  13    66  59   8    68  59   8    74  61  24    62  55  29    40  33  20    62  57  25    88  82  20   121 108  12   162 141  22   150 124  17   142 120  27   138 118  35   103  87  26    69  55   1    71  60   1    76  62  14   107  89  29   135 118  39   138 126  26   142 136  20   130 129   8   108 108   1   111 111   1   113 119   1   114 121  15   108 119  28   102 112  29   107 112  34   108 105  30    98  95   8   119 121   2   117 118   1   117 123   1   156 172  12   167 182  10   173 176  12   159 160   9   121 123  11    92  97  14    84  96  23    97 107  31   119 126  33   141 141  50  
  54  43  24    49  35  13    73  55  24    73  55  24    68  54  14    69  59  13    62  55   9    51  45   1    50  42   1    56  45  13    60  42  21    59  43  22    89  76  39   121 110  38   164 154  28   186 167  26   152 127  17   138 118  26   136 118  32   106  89  32    80  64  12    86  73  13    76  61  19    96  80  29   132 114  46   143 120  36   148 126  27   138 124  16   109 106   2   105 112   1   118 130   1   113 128  10   111 127  27    86  97  28    52  53   8    81  77  11   115 115  12   135 141  10   148 154  10   139 147   1   144 155   1   152 160   1   162 162   1   156 155   2   116 116   1    93 100   4    93 109   9   102 119  19   121 135  27   133 141  34  
  40  23  11    56  41  11    85  66  31    61  43  25    52  37  15    63  50  12    67  56   9    66  54   7    66  52  13    61  45  19    62  41  22    62  45  19    92  80  34   130 119  47   157 146  34   144 126  11   115  92   9   127 112  29   127 114  32    95  80  21    85  73  11   106  98  20   100  90  26    90  76  21   126 106  43   160 130  55   166 133  43   148 124  21   117 112   4   106 116   1   116 133   1   119 140   3   111 132  13    81  95  15    69  73  15   116 114  35   148 147  37   146 146  19   150 152   5   143 147   1   127 127   3   130 131   1   152 153   4   139 142   1   102 109   1    94 105   1    94 112   1   106 124  11   131 144  27   127 134  25  
  60  34  21    83  66  31   100  79  42    59  45  27    45  34  15    59  46   9    74  60   6    81  63   7    83  61  12    79  55  11    66  49  24    65  51  23    91  81  34   113 104  42   117 106  26   107  92   6    97  82   8   115 108  26   118 110  28    92  82  12    96  87  10   109 103  10   107 101  17    88  75   9   126 104  36   173 140  62   175 140  49   153 128  24   124 118   4   116 125   4   128 144   1   124 144   4   113 134   7   107 126  14   121 129  30   137 138  39   149 143  42   127 113  13   124 115   1   133 129   1   127 121   7   123 123   1   145 153   3   125 139   3   103 117   3   103 121   9    94 114   1   111 128   5   141 153  20   125 128  16  
  95  66  35   107  83  45   102  79  43    58  46  22    41  29  10    53  38   7    75  54   9    80  55   6    84  55   6    98  67  13    65  53  15    63  51  26    93  84  45   103  96  43   105  98  27   130 121  30   136 126  34   131 124  33   117 108  20   106  95  12   125 110  24   118 106  13   115 103  19   117  97  24   158 132  57   175 145  61   148 119  25   134 115   9   121 115   2   119 123   3   133 142  16   123 134  18   106 122   6   107 122   9   107 113  19   106 104  20   135 123  40   127 104  31   131 116  15   158 151  12   149 142   4   134 135   2   142 152  15   120 136  22   108 126  25   106 128  20    90 112   1   109 129   1   144 158   4   133 138   1  
 113  81  34   118  89  41    90  67  33    59  42  15    52  34  10    68  45  12    89  64  15    92  63  13    93  61  16   114  83  30    70  59  17    52  37  18    77  64  35   106  95  45   122 113  36   155 147  46   166 155  53   153 136  46   127 106  24   127 102  19   145 119  33   132 106  22   142 116  36   148 118  41   152 122  44   139 113  27   123 104   8   141 128  25   143 134  26   128 122  10   130 128  24   127 130  23   102 109   6    87  93   3    93  91  18   108  99  31   134 118  50   145 124  57   144 130  38   179 170  34   177 167  21   154 148  17   145 150  30   117 131  24   103 118  28   104 121  26    97 116   5   110 129   1   130 147   2   126 136   4  
 123  90  35   116  84  23    83  59  27    78  57  21    85  62  21    99  74  18   112  86  11   106  79   9    95  68  12   106  79  23    72  57  23    49  31  18    74  57  34   117 101  51   126 115  29   145 133  32   157 140  49   141 115  35   121  89  19   140 105  24   167 131  44   154 117  38   158 121  43   155 118  40   139 106  27   137 113  29   129 115  22   126 116  17   135 125  21   150 138  33   153 147  31   137 137  13   110 114   6    93  96   6   103 103  13   121 113  34   117 100  37   143 126  57   157 145  61   176 163  53   188 168  54   167 152  40   137 137  12   124 136   8   116 128  27   116 131  37   114 133  29   105 123  21    95 108   7    85  94   1  
 113  87  11   119  97   5    97  76   8    74  63  10    89  78  17   114  95  17   124  98  13   112  82  12    89  60  12    87  58  23    76  56  31    56  41  15    65  54  32    95  87  41   115 107  34   146 132  42   157 139  36   132 105  20   128  85  13   147 102  22   151 116  29   140 112  35   129 101  31   125  97  26   144 125  18   164 155  17   144 136  15   115 100   9   150 131  34   174 155  29   163 148  23   163 156  11   150 148   6   113 112   1   105 104  10   114 112  25   118 114  32   144 138  51   172 168  77   184 175  88   179 162  71   148 138  31   111 116   4   117 130   2   120 137  28   109 135  42   103 131  37    69  83  20    33  36  10    28  29  11  
 124 109   1   123 110   5   100  85  15    67  55  17    66  52  13    84  63   6   110  85  16   111  81  23    90  61  18    92  67  27   105  88  43    77  64  28    60  50  28   101  94  52   130 123  53   139 127  43   156 143  48   141 124  41   140 108  38   145 110  42   116  88  23   101  80  22   100  81  17    96  76   6   120 107   1   145 138   1   130 121   4   125 111  16   163 149  45   168 154  32   161 153   5   172 171  10   155 157   9   120 122   4   106 107  12    97  98  24   102  98  37   125 116  53   131 120  64   161 144  83   182 160  83   145 132  36   115 116   9   120 131  15   129 149  33   111 139  31   101 122  43    48  55  22    16  18  10    24  26  16  
 114 101   3    94  82   7    68  59  15    48  36  17    55  38  19    78  58  17   108  83  26   108  80  30    95  68  25   111  89  37   132 122  44   116 107  49    89  81  43   119 115  66   139 135  64   119 110  30   132 123  36   133 124  48   134 116  49   138 117  54    91  72  23    73  60  19    84  75  24    78  68  17   103  96   5   126 121   1   113 103   3   132 119  30   162 152  57   133 124  29   125 120   2   145 146  15   120 124   3   104 114   1   111 122   3    96 100  20    61  57  14    62  50  20    63  45  22   108  88  41   166 145  68   164 150  59   136 131  30   109 119  17   123 145  32   115 138  33    75  89  28    25  27  10    21  22  19    72  81  71  
  74  54  22    48  34  10    33  27  13    44  34  20    67  52  30    96  79  34   110  88  28   101  75  24    99  74  27   120 100  36   141 129  51   130 121  52   113 108  52   127 125  70   144 139  82   110 100  37    96  86  16   101  96  27   113 103  38   139 125  62   104  92  40    72  64  27    70  65  27    64  62  13    86  87   1   134 134  10   145 140  23   153 145  38   153 149  48   127 122  34    95  90   2   101  97  15   100 103  10   127 141  13   143 160  19   108 118  27    59  58  22    55  49  25    61  50  14    90  75  11   129 115  27   170 160  66   166 161  67   116 125  30   111 128  35    87 103  27    41  47   4    20  20   1    25  30  14    73  87  69  
  54  32  25    38  23   9    36  28  20    59  51  32    81  68  34   107  91  35   107  87  24    91  67  17    96  71  26   110  88  31   123 107  50   122 114  44   128 127  52   122 120  61   124 117  74   113 100  56   102  89  32   106  99  27   114 104  43   135 124  62   120 108  49    84  74  27    64  59  14    66  68  13    81  85   2   142 144  28   185 183  58   180 177  62   141 138  40    99  96  14    93  91   8    85  84   8   120 125  41   158 171  55   149 167  32   102 112  13    71  76  18    67  73   7    89  89   6   113 107  17   118 108  21   156 148  64   178 174  94   145 151  67   102 111  46    46  52  15    25  26   3    26  24   5    38  42  26    57  69  57  
  67  42  21    62  45  17    54  42  29    63  51  33    86  74  28   116 103  33   112  93  28    94  69  20    97  70  29   108  81  37   113  97  41   126 120  37   151 154  52   127 126  48   101  92  38   114  98  41   119 103  34   113 103  26   111 100  43   115 104  46   118 103  43   101  88  28    85  81  15    86  88  18    81  85   8   131 132  38   180 179  72   166 162  58   118 112  26    93  85  13   102 101  10   114 116  23   174 179  87   186 197  93   138 152  30   110 121   4   112 122  20   127 138  33   147 149  36   137 127  35   101  89  19   121 113  48   177 169 106   176 173 102    95  94  45    25  26  11    20  18  14    24  19  14    47  46  40    53  58  54  
  77  50  24   102  80  41    93  75  51    73  57  34   104  93  31   136 124  34   123 104  28   107  84  23   111  84  32   119  90  46   118 101  43   124 117  33   149 149  44   126 124  37   100  90  23   122 106  31   123 105  29   111 100  30   110 103  43   121 111  49   137 123  58   134 123  54   130 130  46   126 129  35    92  96   3    95  95   9   129 127  43   134 129  35   118 109  13   113  98  16    99  94  12   147 147  56   201 204 109   181 189  84   121 131  10   126 135  11   133 139  31   147 147  53   184 171  81   164 143  68   114  93  37   104  88  37   152 136  84   188 176 117   111 103  59    22  20  10    12  10  12    30  27  12    56  54  27    29  30  15  
  81  50  28   102  77  32    94  74  28    86  71  34   131 122  44   150 143  30   123 107  14   119  97  19   125 102  30   129 100  45   108  89  46   106  95  35   123 119  39   102  96  28    97  83  27   143 124  56   141 119  55   117 105  48   108 103  39   118 115  41   134 124  52   131 123  51   138 140  51   148 149  51   136 135  43    96  94  30    68  63  16    89  82  13   114 102  15   101  80   5   119 112  34   195 191 108   194 195 102   129 136  23   107 116   1   139 143  34   123 120  44   114  99  44   170 141  90   192 160 101   175 150  93   135 113  65   125 101  52   187 166 109   152 140  93    30  26  17    12  10  10    50  51  11    97  99  36    53  50  12  
 121  80  25   105  69  23    84  64  18    91  79  21   136 131  40   155 149  30   148 131  26   143 113  34   135 102  42   128  96  56    86  70  42    75  68  36    76  71  40    61  52  22   109  96  55   164 154  91   141 134  62   128 117  54   118 120  41   126 139  53   125 136  57   138 141  41   158 151  32   164 144  22   150 137  21    99 100  22    50  47  10    65  55  13    97  88  19   106 102  25   170 160  73   197 195 117   141 135  65    69  69   7   112 117   4   148 134  33   134 116  49    79  68  38    69  53  40   102  77  55   170 148  94   179 146  87   135 103  50   172 150  91   175 156 118    52  36  29    18   9  11    53  53   6   134 140  41   103 102  20  
 108  72  18   102  75  16    99  87  28   108 102  29   134 129  40   133 129  33   127 112  30   128 101  34   123  93  41   113  86  52    79  64  37    68  63  33    64  63  30    55  49  19   101  92  54   153 149  91   139 142  74   122 132  66   125 136  62   127 138  60   129 132  47   161 152  47   177 161  26   173 151   3   131 112   1    81  71   5    51  46   5    77  71  27    95  86  31   121 111  41   180 176  87   151 152  86    65  59  21    59  57   3   113 110   7   146 122  38   154 127  71    86  69  50    36  25  20    49  29   9   113  91  43   142 109  55   123  96  40   153 135  71   147 132  91    42  33  20    12   9   6    34  30   6   100  93  17   122 113   2  
  90  65  10   101  87  17   110 107  36    99  95  36    94  91  39    79  73  34    78  62  27    96  75  34   117  95  54   124 104  78   102  92  63   106 103  69   109 111  73    96  95  59    98  93  56   113 113  62   108 119  52   102 125  40   105 123  29   116 123  23   127 125   9   155 141  26   177 156  31   173 148   5   147 120   1   101  81   1    85  75  10    85  82  25   110 104  43   126 115  42    88  86  35    53  52  27    29  24   7    62  60   1   125 114  12   182 145  62   172 137  73    95  72  52    37  29  26    56  44  26    86  65  30    92  58  21    96  75  30   134 121  63   118 106  59    40  36  10    17  15   3    31  23   5    82  66   8   145 125   9  
 120 103  49   120 113  50   120 120  56   109 108  57   107 104  68   107 106  78   111 104  74   119 106  63   126 114  69   128 119  82   122 116  80   131 134  90   131 137  89   107 110  66    88  87  44    87  92  40    90 103  35    98 116  23   107 120   4   132 136   1   137 133   1   118 108   3   110  98   6   117  97   5   144 115   3   145 114   7    98  74   7    87  81  19   121 119  49   122 112  56    40  36  26    13  12  13    41  43  12    92  93  14   154 130  34   209 162  74   185 147  68    94  72  42    37  30  23    55  47  30    63  47  24    60  30  12    68  45  17    88  71  30   117 103  49   100  91  48    72  66  18    99  95   5   142 135   7   159 150   1  
 153 139  84   141 132  81   144 137  88   132 128  84   122 124  84   135 140  98   141 142  95   123 118  73   105  98  61   104 100  69   108 108  61   112 118  63   102 111  54    80  82  30    74  74  22    85  92  31    91 103  27   103 115  18   110 112   4   136 133   1   157 151   2   140 137   5    96  93   4    63  46   1    97  65   1   139  94  12    98  63   1    89  76  18    81  78  27    53  47  19    25  21  16    40  44  19    91  99  30   115 117  38   144 110  38   198 143  58   177 136  67    94  75  44    42  33  27    53  46  31    43  36  20    56  33  16    81  53  25    89  66  27   136 118  45   160 143  52   155 142  27   161 156   6   137 133   2    88  81   1  
 114  91  40   122 104  61   140 123  78   110 100  68    91  90  57   107 116  62   125 132  67   108 108  56    86  86  49    96  97  63   110 113  60   100 109  49    98 105  46    91  91  36    84  81  27    91  95  27    94 107  19    96 114   1   109 115   4   136 134   1   159 154   1   170 169   1   136 135   1    73  67   1    69  43   1   123  80  23   143 109  32   107  92  29    58  51  18    41  35  10    36  28   8    76  79  24   107 117  37    72  70  19   106  63  16   199 140  54   143 104  47    72  55  33    44  37  34    54  49  39    32  29  16    69  47  16   121  90  43   113  84  37   136 106  44   152 120  44   166 138  39   164 146  21   127 121   3    99  97   9  
 105  63  19   130 100  48   146 121  61   102  90  46    93  91  45   120 130  57   136 149  58   128 135  57   109 112  53   108 116  59   106 110  59    93 100  46    91  94  43    94  88  41    90  80  28    95  93  22   107 115  25   110 128  13   128 139   1   153 154   1   160 156   1   173 170   3   179 180   6   151 152  12    96  81   2   108  79  12   137 116  36   100  89  29    52  42  14    56  43  12    60  46  20    74  72  21    74  79  24    44  38  10   108  62  29   201 142  63   135  99  42    74  58  36    54  55  45    49  51  39    35  27  20   102  73  35   153 116  57   115  79  32   143 105  56   163 124  57   151 117  29   153 129  19   155 143  15   142 136  11  
 133  78  39   158 122  56   168 139  62   124 110  55   122 121  67   134 144  69   124 136  46   120 126  54   113 114  68   108 113  73   103 107  60   104 109  62    90  90  47    87  77  39   101  88  40   116 110  38   124 127  36   115 125  17   125 130   1   153 155   1   174 173   3   154 151   1   137 135   1   151 151   4   133 128   3   115 101  15    96  83  27    62  50  16    51  35  14    80  60  37    87  68  35    66  56  23    54  54  23    35  31   6    78  30   9   155  95  37   150 117  62    99  84  54    68  78  56    59  66  50    41  29  24    99  62  24   138  97  40   112  70  34   113  70  35   129  89  36   131  94  28   141 112  26   163 142  22   164 146  22  
 129  85  28   169 141  68   177 156  86   144 131  76   127 126  65   130 143  69   108 123  51   104 114  56   108 117  67   106 118  70    99 101  61   100 107  63    97  99  56    95  84  45   120 102  55   117 107  39   115 115  32   118 120  24   113 113   3   148 145  18   181 181  24   147 146  12   109 109   2   116 115   1   120 111  19    99  83  25    76  57  16    56  34   3    66  42  13    96  68  34    66  54  20    48  38  31    39  35  20    30  24  13    42  28   8    85  61  29   129 104  59   112  97  62    85  74  58    61  54  46    41  29  15   114  76  36   125  86  35    92  58  26    89  58  29    88  60  19   100  73  18   127  98  30   154 126  36   177 153  33  
 150 108  57   180 154  84   185 166  94   152 141  86   120 120  61   117 130  60   107 122  54   116 126  69   118 128  77    94 105  57    67  66  37    77  78  42    83  82  42    94  83  43   114  98  54   107  98  38   105 105  30   113 119  26   115 116   6   149 144  22   187 181  57   165 162  44   124 127  11    85  83   5    72  63  18    54  39  12    59  38  11    82  57  22    96  72  29   103  80  36    46  37  10    25  17  10    24  21   8    24  19   7    41  27   9    84  62  21   116  95  48    99  92  67    73  66  53    44  32  23    69  44  17   120  83  32   107  72  28    82  53  21    97  68  38    93  61  38    73  42  17   120  94  40   154 130  41   173 146  42  
 179 139  92   194 169 111   188 169 111   141 131  84    97  99  45    96 108  42    97 111  46   116 125  69   129 137  87   107 116  67    96  93  59    94  94  55    95  93  54    99  91  52   100  89  45   105 100  38   114 120  39   107 116  32    95  92  16   147 137  46   190 178  82   171 166  58   114 118  16    59  57  15    44  40  27    33  23  18    53  29  14   102  72  32   113  90  34   101  88  30    45  38  21    21  17   8    22  21   7    24  20   8    46  31  16   111  89  41   128 109  60    79  76  59    60  55  43    69  45  26   135  92  45   121  85  30    76  49  17    80  59  19   105  82  36    97  67  22   111  87  32   169 154  72   172 154  58   147 116  28  
 189 160 102   202 182 125   176 160 108   106  98  57    85  86  38   102 114  53    98 109  49   106 111  58   131 134  84   137 144  92   140 143  89   116 118  70    87  87  46    83  81  43   107 105  58   129 136  64   121 132  46    91  98  31    77  68  25   145 131  66   202 188  98   181 175  74   105 103  34    50  49  16    33  34  17    28  24  17    55  32  17    99  65  28   102  78  25    81  76  21    40  36  27    21  19  10    26  26  13    28  24  13    43  28  14   116  96  38   120 100  47    88  77  57    88  71  52   119  78  35   164 104  38    97  63  19    60  43  19    74  60  29    90  68  34   104  77  22   181 167  77   205 201 100   167 154  64   131 101  21  
 182 160  86   170 158  91   122 111  55    83  76  38    98  98  57   114 123  68   101 107  51   113 111  61   135 132  82   141 143  87   146 151  93   108 113  59    77  82  36    77  83  42   108 116  69   136 146  81   108 117  46    78  75  22    98  87  34   163 147  72   209 197 103   173 164  78    94  88  33    59  55  22    28  27   6    28  23   8    61  40  19    84  54  22    72  51  15    49  47  11    29  27  15    13  13   3    21  22  10    27  25  12    49  37  15   126 112  46   118  97  42   106  80  49   133  99  64   172 115  45   156  90  18    63  33   9    40  31   9    53  44  15    79  63  21   149 131  48   195 189  72   142 142  36    90  77   6    96  65  16  
 150 136  65   102  92  38    68  57  18    67  58  28    91  91  54    94  98  47    85  83  32   124 116  67   156 148  95   157 155  94   131 133  83   104 103  48   102 103  47   106 113  61   104 112  65   107 112  64    98  94  43   108  93  34   140 124  50   170 155  68   170 157  62   135 125  46   105  94  34    83  70  37    38  26  12    38  25  12    65  47  21    61  38  13    44  29   7    37  40   8    26  28   7    14  15   1    18  19   7    24  22   8    66  62  26   151 141  73   144 125  69   148 115  73   206 160 111   246 180 104   162 103  47    50  28  19    37  32  11    52  46  14    93  82  28   159 149  66   147 141  50    97  96   9    85  77   2    94  73  14  
  88  75  24    38  27   1    39  27  14    54  46  24    83  80  46    90  89  42    89  83  33   126 112  62   151 138  82   157 148  84   135 130  67   122 115  45   126 120  47   132 132  65   123 123  68   111 103  57   118  99  49   162 134  65   161 140  63   145 128  56   114 100  27   108  92  27   130 113  46   115  93  41    67  42  18    50  29  15    59  42  19    38  25  10    35  32  10    63  72  15    37  39   4    19  21   3    24  26  12    29  28  13    89  88  38   141 138  70   129 115  63   168 139  93   232 185 125   230 165 104   110  68  37    29  19   9    43  36  17    60  50  28    66  54  27    59  48  16    49  40   1    74  70   6   117 113  16   125 117   7  
  65  54  18    36  26  15    39  27  21    44  33  13    64  59  25    88  85  39   119 110  60   152 134  84   150 133  76   140 129  64   161 153  65   150 135  46   146 133  44   142 135  56   128 123  56   136 121  62   163 136  76   185 149  79   166 139  67   122 101  46    97  77  42    99  79  35   115  96  24   140 116  32   108  78  30    65  38  17    56  41  22    33  26  20    46  49  22    95 110  20    58  61  16    26  26   6    30  30  17    45  44  27   122 124  63   133 132  66   104  95  45   141 121  76   181 139  76   143  81  37    48  21  10    26  23   7    48  38  20    68  56  30    60  53  24    64  62  16    84  84   7   101  99   3   100  97   1   108 105   1  
  71  63  29    40  30  12    49  33  14    62  49  20    75  68  22    98 100  35   132 137  69   148 148  86   140 134  73   141 130  64   153 140  65   138 128  56   142 129  49   143 127  65   125 110  64   149 127  69   156 121  59   134 106  45   120  92  40   131 100  53   115  94  52    73  60  25    82  63  20   128 101  37   117  91  38    73  51  29    59  42  30    42  33  17    48  49  12    86  95  16    41  47  10    35  37  10    49  49  25    66  70  34   145 156  81   130 140  65    92  91  55   101  91  61   102  88  50    68  54  27    26  19  14    21  18  16    35  30  14    64  51  27    78  67  23    94  88  22   134 124  22   167 156  25   127 119   6   106 104   1  
  67  65  25    56  55  25    84  78  45   102  95  51   101  99  43   122 125  57   150 156  85   152 153  89   136 131  72   134 123  67   140 122  50   115  97  40   108  88  29    91  72  24    74  62  31    90  75  48    71  44  30    47  23  15    72  49  25   126 100  64   102  82  54    47  36  19    63  47  24    80  60  24    74  54  28    58  40  27    60  48  27    44  33  21    70  67  14    92  91  12    36  38  12    30  29  10    50  51  21    93  97  51   135 144  77   113 121  57    85  87  47    84  84  46    83  77  49    69  64  37    41  47  19    26  35  13    23  28  10    46  39  21    67  61  33    63  60  24    59  55  10    75  68   4    91  85   1   124 121  11  
  78  82  33    78  84  40   101 105  57   114 113  61   105 105  49   127 131  70   157 162  90   139 141  67   118 114  48   127 118  62   114  96  32    93  70  30    86  58  18    82  59  20    72  65  36    57  53  41    33  20  24    49  34  23   100  82  46   124  97  47    79  54  23    41  26  14    43  28  13    54  35  17    42  23   9    51  35  25    55  46  21    42  32  16    95  93  21   105 106  25    37  31  18    27  24  10    76  77  42   109 112  63    96  99  43    97 101  49    93  94  59    76  76  43    66  63  35    79  81  43    73  84  42    58  68  35    63  71  35    75  75  31    73  66  26    71  66  30    53  47  23    48  41  11    87  78   4   121 111   1  
 102 107  46    96 105  48   102 108  51   105 107  57    96  97  53   120 122  72   159 161  91   144 148  60   122 121  38   139 134  67    92  78  28    65  44  14    83  53  15    97  72  25    91  87  45    72  76  48    51  44  32    90  71  44   119  91  49   118  78  30    80  44  17    40  18  14    42  23  18    54  31  13    51  23   8    58  38  18    44  36  12    46  41  14   109 115  25    89  97  28    38  25  17    45  38  26    83  82  50    81  80  42    82  80  33   110 110  61   101  99  66    78  70  49    53  46  26    63  61  22    60  63  21    54  55  26    79  81  39    96  87  44    87  67  37   117  92  51   112  91  41   108  92  35   137 119  28   148 124   2  
 101 100  34    91  97  36   104 107  51   110 114  67   104 106  66   112 111  65   144 144  73   143 143  52   113 112  25   112 107  38    90  82  37    75  58  24   106  77  30   114  86  35    87  78  35    78  78  43    85  76  53   118  96  69   110  79  45   109  66  25    90  56  25    40  25  12    36  24  16    54  32  13    66  33  23    63  38  14    37  27   9    57  52  14   122 124  34    55  58  20    30  15   3    52  46  29    54  53  34    52  45  30    88  79  41   120 116  62   102  97  62    70  60  43    36  27  23    37  35  15    37  33   7    31  23   9    43  35  12    58  45  20    84  58  39   132  98  50   132 100  31   118  90  29   116  89  22   119  92  15  
 121 117  50    96  97  40   100  98  52   107 112  66   113 117  74   115 113  64   134 130  60   144 139  53   118 112  32   103  95  34    98  90  39   102  86  41   126  97  42   116  83  39    72  54  27    84  76  51   103  89  71    70  55  33    60  38   9    75  43   3    76  52  18    42  35  17    32  28  15    48  31  10    71  41  10    57  28  11    36  22  11    79  67  16   102  86  27    58  46  25    82  67  44    69  64  46    29  27  19    34  22  21    92  74  40   123 111  55    90  82  48    55  51  33    22  22  15    29  31  20    28  22  17    23  11   8    44  33  14    76  69  29   100  84  41   126 100  36   137 109  31   100  73  21    61  37   9    55  34  10  
 126 125  62   114 118  66   115 115  76   108 111  74   108 109  71   112 108  59   130 122  53   137 128  45   117 107  29   105  95  31   115  99  36   120  98  43   134 101  42   113  80  34    77  58  31   101  90  66    99  83  71    44  32  25    42  24   8    75  46  18    72  49  24    43  33  11    48  38   2    79  59   1   101  69   1    66  30  12    42  24   8    83  65  18    80  55  19   112 103  67   163 150 117    65  62  47    18  17  14    39  25  22    85  63  29   108  89  37    89  76  42    55  50  30    25  25  12    31  29  17    36  24   6    59  41   7   108  93  32   137 127  57   120 108  49   105  91  28   125 109  25   104  85  15    56  39   5    36  25   1  
 104 105  49   111 117  69   117 119  85   102 104  81    88  88  61    98  90  46   129 118  51   140 128  45   125 114  31   116 108  32   146 123  49   157 130  69   159 125  60   147 114  62   108  93  55    93  85  48    71  56  34    44  31  19    52  35  11    76  47  12    81  54  13    88  72   9   122 105   2   171 148  12   151 108   2    96  50  17    51  32   1    54  34  10   110  91  49   183 183 133   139 126  87    34  32  24    17  16  15    43  30  20    84  59  26    95  72  25    96  77  41    70  56  31    34  25  18    39  30  16    87  69  17   144 122  29   172 151  39   167 148  47   140 125  52   104  92  38   113 103  19   118 104  19    66  48  10    34  22   7  
 127 126  70   132 127  85   118 109  72    82  71  49    77  68  46    93  86  39   120 106  38   141 119  46   143 121  46   138 121  34   133 122  45   150 118  60   161 114  58   180 137  80   147 118  77    77  62  37    71  62  35    64  47  19    71  47  19   106  78  16   147 126  11   158 145   1   159 150   1   151 137  11   117  83   2    86  40   1    63  30   1    68  55  26   154 144 101   169 148 109    60  53  36    20  18  14    21  19  18    52  42  28    97  77  47    97  71  38   101  81  51    72  63  37    61  43  18   118  96  42   167 144  46   178 156  34   166 144  27   148 133  42   149 133  52   121 103  43   120 109  24   139 121  16    94  66  13    45  29  21  
 141 138  86   133 127  87    99  88  53    71  60  31    86  79  48   118 110  63   123 111  47   122 100  36   134 113  43   151 136  49   117 104  34   115  84  32   126  84  35   133  97  44   105  82  43    69  55  32    62  52  32    67  51  33    86  65  30   115  93  18   143 126   8   151 141   1   158 153   4   136 130   1    90  67   1    71  29   3    96  54  15   152 119  70   154 133  90    72  57  35    26  19   4    23  21  12    32  32  17    79  70  36   117  98  49   103  75  33    86  62  38    80  66  52    85  69  29   114  96  26   140 123  32   147 131  25   127 112  16   113 108  18   109 100  29    96  82  31   134 125  41   159 144  31   113  94  12    52  43   3  
 125 122  72   110 103  62    77  67  27    82  73  31   106 101  60   129 122  75   122 109  52   111  90  34   115  96  35   122 110  31   118 100  45   103  74  30   104  70  27    96  70  27    79  63  31    63  52  32    44  35  14    48  36   9    69  50  23    87  63  17    88  69   1   109  97   1   145 146   1   150 147   1   103  83   1    88  55  11   162 127  78   194 164 119    99  76  55    28  12  19    25  16  14    24  22  12    53  51  23   111 101  52   125 104  47   103  72  27   119  92  53   115 101  55    93  76  22    86  68   3    62  41   1    57  39   3    72  61  11    82  79  18    70  63  24    59  47  25    93  84  27   121 107  20   106  88  14    77  62  24  
 101  98  47    91  84  33    86  76  23    90  82  27   102  97  51   112 107  61   112 101  43   110  92  32   104  87  33    95  86  31    97  77  41    88  65  23    85  62  21    70  53  20    60  51  31    57  50  32    50  42  20    47  37  16    66  47  29    83  60  27    79  56  15    77  59   8   104  99   7   126 116  10   110  87   1   155 123  50   208 177 116   140 116  80    50  35  22    21  13  10    26  14  23    24  18   9    65  61  28   118 104  55   111  86  33   101  68  23   131 101  55   119  96  37   118  96  19   128 108  21    83  61  14    46  30   7    46  36  16    56  46  18    44  32  17    38  28  24    56  49  18    91  76  25    91  61  22    87  51  24  
 100  95  38    94  88  22   105  95  25    97  90  25   102  98  51   109 103  61   119 112  47   123 111  41   100  88  37    79  70  39    64  47  26    74  56  15    77  61  19    49  38  16    42  34  24    57  52  32    73  66  37    59  50  27    60  44  21    89  68  27    89  65  29    63  39  19    58  41  10    82  66   8   140 118  41   191 154  77   174 125  68   105  59  20    62  34   8    24  15   1    22   7   1    33  24   8    78  69  33   131 114  56   135 107  41   122  90  34   117  84  35   137 108  33   152 129  14   148 128  12   128 107  17    97  83   9    61  47  20    64  42  27    62  45  22    46  37  26    50  45  21    74  61  25    82  46  15   116  63   8  
 110 107  39   113 106  28   119 109  28    98  90  23   104 100  54   123 120  77   138 133  66   129 121  49    92  84  38    70  65  44    62  53  32    84  72  31    90  77  35    56  47  28    56  51  39    74  70  44    86  81  39    95  90  41    77  62  23    86  64  22    92  64  29    69  41  22    66  42  20   125  97  47   170 148  82   126  98  51   105  50  16   130  60  11   114  54   6    87  50  20    81  68  33    75  62  31   111  98  50   142 124  44   153 128  33   136 106  37   118  86  35   139 110  29   140 113   9   132 105   8   140 120  14   128 115  14    80  64  15    81  56  37    75  57  30    45  36  19    54  47  24    60  47  18    80  45  10   152  94  11  
 128 123  49   135 127  43   132 121  38   102  94  29   105 101  53   133 130  81   132 128  66    98  90  31    70  65  23    70  70  41    77  77  48    94  88  46    96  83  49    78  68  46    80  76  51    90  87  52    75  70  31    91  86  36    88  73  23    86  61   8   102  71  25    94  62  26   104  74  41   146 111  72   108  84  42    53  33  10    96  52  18   161  95  23   166 100  25   150  99  44    97  77  42    83  67  24   138 124  55   168 149  50   172 145  44   132 102  33   104  74  30    98  72  18    94  67   2   107  79   6   139 120   7   135 121  18    91  75  14    73  54  30    47  36  12    42  34   6    78  67  34    68  55  27    74  44  17   134  84  15  
 148 144  67   144 136  52   134 122  42   107  99  37    93  89  40   109 107  55   108 104  47    84  76  28    82  79  39    98 103  59    98 106  66    98  96  54    94  81  53    91  79  56    75  71  34    86  82  42    75  69  36    84  78  36    98  84  34   106  80  29    93  58  13    98  65  20    99  67  19    95  69  32    76  60  18    78  62  16   136  99  34   166 114  29   141  89  25   108  68  28    66  39  24   104  85  37   170 156  70   159 139  37   135 105  20   120  89  31   108  84  36   117 102  32   111  92  21   102  79  16   139 123  18   139 124  26    95  77  24    66  58  25    33  31   3    61  58   8    98  88  27    64  52  12    54  32   8   105  62  23  
