P3
50 50
255
  46  76   6    23  51   2    13  45   1     4  29   1    89 110  46   231 245 186   198 198 141   128 133  67    97 103  55   100 108  64   105 121  48    61  78   4    41  55   8    25  38   1    27  45   1    58  79  10   111 135  47    81 105  29    41  63   1   109 125  50   182 187 106   195 188 123   235 220 177   224 214 163   159 158  79   198 197 120   248 240 192   246 236 180   194 185 111   147 133  73   126 109  42   127 111  36   133 117  27   178 164  64   232 220 136   238 224 167   227 215 163   202 191 129   151 133  64   135 115  57   125 107  50   135 119  59   185 171 110   187 172 118   178 165 108   209 199 131   224 210 164   238 223 174   242 231 169   245 234 178  
  80 111   3    49  78   8    24  49   1    14  27   8    68  77  24   213 219 154   234 226 177   143 141  77   109 107  59   117 118  78   111 123  44    98 119  11    69  92   2    43  64   1    26  54   1    22  49   2    46  77   9    52  82  18    46  68  10   128 146  68   204 211 132   194 193 123   205 194 137   179 180 103   101 113  22   116 125  49   184 184 130   197 192 131   216 208 142   223 212 160   200 193 129   180 163 101   178 155  83   200 182 103   245 234 172   249 240 202   250 237 195   193 177 112   143 128  51   157 140  75   143 128  68   131 116  55   143 129  71   157 144  94   186 174 122   219 209 148   220 203 143   214 199 126   208 194 123   183 173  94  
 146 193   1   118 161   6    73 109   3    33  53   1    33  39   2   150 152  70   200 192 123   137 131  62   156 153  92   165 164 115   117 125  46   116 140   1   160 190  34    83 107   5    40  67   3    43  72  10    61  96  11    54  88  14    40  67  10    97 120  44   166 182  99   152 166  76   105 119  13    80  95  17    49  65   1   102 113  37   185 184 114   188 180 116   210 201 140   227 220 167   217 211 141   206 192 142   226 205 154   228 213 140   205 195 118   203 195 134   207 195 141   173 161  95   168 155  80   199 185 121   186 173 112   142 130  65   110 100  34   150 140  79   190 182 117   179 173  96   175 167  87   193 186 108   196 189 114   205 200 130  
 130 180   1   136 185   2   128 165  10    87 110   1    39  48   1    57  65  23    87  90  37    91  93  31   116 116  49   146 151  68   115 127  43   114 144   1   217 244 118   143 172  40    43  68   4    54  84  14    66 103  19    49  83   8    42  70   9    89 110  51    81  99  33    87 107  29    99 115  20    52  72   4    53  74   6    62  73   9   124 127  64   125 125  66   120 116  60   180 170 103   158 149  79   109 101  37   204 199 103   208 211  94   117 120  23    90  91  23    86  87  29    92  95  34   113 109  40   139 132  66   153 143  79   132 121  56   113 102  39   114 105  45   115 111  50    98  97  34    84  94  23    99 105  38   105 108  41   134 135  64  
  98 140   1    96 135   1    71  97   6    76  99   7    74  91  19    15  28   1    13  23   1    50  56  13   110 119  33   111 125  30    88 109  26    64  95   1   136 169  59    94 124  24    38  66   1    59  98   4    54  96   8    46  85  15    39  69   7   105 130  60    70  90  34    38  56  15    83  99  23    61  82  10   140 165  75    83  96  16    59  65   4    56  63  11    64  62  21   117 108  48   111 106  18   150 145  58   213 217 106   165 173  50    96 103   7    80  84  22    59  65  18    51  56  21    89  89  25   110 106  42   130 121  59   112 102  41   108  99  39   102  95  40    78  76  22    70  70  18    87 106  29    91 104  35    67  75   9    83  88   2  
  61  86   2    61  89   6    31  57  12    35  58  18    52  69  34    11  22   5    33  49  14    71  85  38    72  87  19    65  84  23    41  67   5    51  82  21    63  98  20    26  53  11    42  63  14    74 109  14    46  84   1    53  85  15    42  61  10    98 111  44   154 163 105   113 128  50    77 100  20    64  91  20   185 209 126   175 185 108    68  73   7    60  70   9    60  67  21    87  89  30   174 172 101   248 248 176   209 213 119   128 137  27   108 117  22   125 135  50   129 141  56   122 134  54   146 149  86   159 160  98   166 163 100   157 152  90   141 138  77   155 153  94   138 139  81    81  84  27    86 104  43   123 139  66    79  88  36    63  70   3  
  79  99  28    69  93  25    57  89  26    57  90  37    42  67  31    18  33   9    63  78  33   102 117  47    70  85  24    48  68   2    44  75   3    45  80  11    36  63  13    34  59   1   129 148  26   130 160  21    56  85   1    51  72   1    68  73   3   146 142  53   212 203 145   134 132  57    74 100  20    58  86  18   156 178 103   200 208 138    87  91  26    70  83  15    57  71   8    99 110  30   215 218 149   216 219 148   145 152  66   102 111  26    80  87  26    72  79  28    80  89  30    85  93  38    96 102  45    98 103  47    94  97  42    95  97  42    94  95  40    99 101  46    85  91  34    85  93  37    83  94  43    87  96  42    93  99  45   106 113  36  
  67  84  36    71  94  35    51  79  31    45  73  35    42  66  23    32  48  24    53  60  43    67  74  42    59  69  29    56  75  18    53  82  12    34  62   1    34  54   4   102 121  32   208 223 117   133 162  42    43  73   2    55  75   8    79  78  12   100  87  12   110  93  41    89  80  18    79  99  27    68  90  23   110 131  47   135 142  66    92  94  29    80  91  31    68  78  26    96 104  33   143 148  84   124 129  69    90  96  32    77  85  26    65  72  30    61  70  26    59  71  20    59  68  31    60  68  34    64  72  38    54  61  28    61  67  36    67  72  42    69  74  44    66  73  39    71  77  43    87  91  57    80  84  37    98 102  46   102 108  37  
  59  79  38    49  71  26    33  56   9    24  44  11    34  53  14    42  60  30    57  69  38    50  58  45    44  56  31    52  73  35    46  75  13    24  52   1    81 102  11   194 209 103   208 222 125    93 123  23    43  77   1    61  85   4    87  85   6    85  67   1    82  62   2    78  68   2    65  72   8    70  83  26    77  91  21    83  89  20    73  77  16    63  70  17    66  66  36    72  67  30    71  73  27    85  87  46    79  84  39    55  62  21    49  59  21    52  67  17    48  65  13    38  53  23    39  50  31    46  56  39    46  55  42    39  48  36    39  46  36    48  54  44    49  56  44    35  41  27    44  48  31    52  56  28    73  80  39    67  73  26  
  55  81  34    38  61  18    25  43   1    22  33   8    36  51   9    52  74  27    44  64  25    50  70  31    55  76  38    44  73  24    37  69  14    24  52   8   116 141  38   224 237 143   199 208 105    89 112  11    56  86   1    52  66   1   107  99   6   188 168  48   158 137  25   111  93  15    60  53  12    60  65  26    82  91  35    65  69  17    52  53  14    42  44  11    64  60  37    76  62  24    78  78  48    91  91  57    84  90  44    61  69  28    50  61  28    41  58  12    52  72  19    45  65  28    41  55  33    44  57  38    39  51  35    30  42  30    37  49  37    36  46  35    47  54  44    33  40  28    26  37  23    44  58  19    53  66  33    44  53  28  
  79  82  36    38  46   5    19  36   8    23  43  11    41  55  13    49  51  36    47  59  25    58  75  31    52  75  22    56  83  17    55  83   7    37  56  13    68  89  11   195 218 113   201 215 126    76  96  11    53  68   9    56  58   1   118 109   9   195 181  47   139 127  34    84  80  11    56  54  17    57  55  18    65  64  31    56  54  32    43  40  23    46  44  26    56  52  27    69  66  30    79  80  39    90  88  50    89  87  53    73  73  43    40  44  14    32  41   3    44  61  13    50  70  15    41  57  30    52  60  38    49  53  36    42  48  33    34  45  32    45  60  47    52  67  54    31  43  30    27  35  18    56  67  35    54  66  31    40  49  28  
  65  80  25    43  57  14    26  42   1    43  61   9    44  58  15    40  50  18    50  65  24    58  75  32    54  75  33    58  83  26    62  90   5    33  53   1    61  82   1   111 136  12   129 143  41    66  82   7    52  65  12   102 110  10   157 158  17   129 119   8    83  73   4    63  61  12    50  46  17    51  47  21    50  45  23    49  46  27    47  43  23    50  47  21    69  67  33    85  83  44    82  83  46    56  58  32    48  50  35    47  55  40    28  40  24    15  29   9    38  56  20    49  71  17    53  62  19    95  99  60    99  97  66    59  59  35    52  59  38    56  68  49    51  62  46    40  49  36    40  54  19    74  85  54    52  62  33    45  55  26  
  59  82  35    41  60   8    96 112  19   120 135  22    77  90   8    79  93  25    69  88  22    55  73  27    63  85  37    64  89  27    58  84  10    31  49   1    87 110   1   142 174   5    98 113   1    70  78  26    54  62  18    93  99  11   130 133   7    91  84   8    69  64  18    57  62  12    63  61  23    51  47  17    47  42  19    45  40  19    45  39  17    48  44  17    62  61  31    92  91  60    77  76  37    44  43  22    32  35  26    27  36  20    33  45  15    38  49   7    77  85  29    93 101  31    77  81  26    98  97  47   113 109  66    72  69  34    64  69  37    67  78  49    61  72  47    52  61  37    66  77  42    82  94  60    65  77  39    63  75  31  
  52  70  37    62  78   4   198 208  69   172 177  26   110 114   2   107 118  27    88 105  33    61  78  25    61  82  31    58  81  29    57  83  13    33  53   3    85 110   4   185 222  26   110 130   1    74  84  23    65  75  17   104 111  25   135 146   8   126 133  17    94 101  21    84  94  31    84  83  38    67  64  24    67  61  29    60  54  27    64  57  31    67  62  34    52  51  23    62  63  33    49  50  29    32  37  16    31  38  24    33  43  17    80  94  17   115 128   4   156 158  45   181 170 101    92 101  30    70  72   9    96  94  40    67  68  22    50  58  17    61  76  40    66  80  48    43  55  25    41  48  21    52  61  22    71  82  32    77  88  36  
  42  51  21    63  70   1   175 172  61   202 191  77   147 145  30   108 114  12    72  82  20    50  61  24    48  64  23    62  82  36    59  85  11    36  59   2    59  82   2   123 155  12    91 117   5    88 105  32    65  75  15    76  87   4   139 153  15   182 196  61   111 125  13    65  74   9    69  65  27    80  75  35    92  85  42    78  71  33    69  60  28    74  70  35    71  72  29    67  74  24    48  67  30    56  76  33    66  85  39    65  84  28    81  95  15    91 103   1   147 150  44   202 196 108   145 159  66    91  99  15   105 107  33    83  87  27    56  66  14    53  68  24    53  68  30    44  55  22    50  55  16    72  78  31    77  84  32    74  82  28  
  60  69  15   100 107  20   125 121  22   161 151  56   121 116  26   102 103  23    83  90  23    51  57  24    50  64  13    73  94  35    63  93  11    39  67   1    45  71   1    58  85   1    57  85   9    57  82   7    67  86   1   146 169  23   204 224  70   200 217  76   147 158  47    85  91  19    64  60  21    83  80  27   111 106  47    95  88  35    65  57  20    66  62  27    80  82  33    93 101  37    95 116  36    96 114  47    98 113  48    88 100  29    86  94  31    72  76  25    72  74  12   107 114  23   137 147  54   113 117  31   116 115  35    91  93  19    75  82  12    81  93  25    81  91  26    91  99  36    87  92  27    80  83  24    72  75  17    76  81  13  
  73  80  12   112 117  28   129 128  32   122 118  22   110 106  18   118 116  34   106 109  37    84  87  28    88  96  28    98 114  44    83 107  15    40  64   1    47  73   6    79 114   5    53  91   3    38  63   2    90 107  12   213 229  93   220 234  95   151 165  25   136 141  42   128 131  43   108 106  40    95  93  21   125 121  46   124 117  52    88  80  40    77  69  40    76  74  31    98 103  35   148 149  88   151 151  91   127 128  56   112 113  35   103 103  34   104 102  38    92  94  21    91  95  16   109 111  31   119 116  35   133 128  45   124 119  37   122 121  36   134 136  48   111 113  21   102 102   9   102 102  21   101 100  23   124 123  46   133 133  48  
 129 130  46   117 115  35   188 185  92   199 190 120   198 189 115   196 186 112   173 167  94   163 153  93   180 172 103   195 191 112   158 164  79    56  71   5    44  71   1    81 121   3    48  84   3    49  69   4   111 117  27   227 225 134   192 190  91   165 165  62   204 199 126   168 161  69   161 155  57   144 137  56   165 158  86   174 170 100   110 103  55    76  65  37   107  97  54   157 153  75   217 208 161   237 226 202   188 181 132   175 174  91   170 169  86   178 175  84   178 175  69   153 146  51   161 156  80   170 165  79   170 165  74   174 165  79   177 166  83   193 180  97   157 143  56   156 142  54   158 144  52   152 139  43   172 159  64   172 157  73  
 154 167  66    83  83  23   162 165  77   205 202 136   197 195 124   194 192 120   213 202 132   210 197 133   221 209 141   250 241 177   220 221 150    78  89  21    37  59   1    62  97   4    48  79   2    57  77   6   113 125  28   146 149  63    82  77  22   165 158  95   251 237 179   175 160  71   152 144  66   213 205 138   228 222 157   213 208 140   122 114  61    72  61  25   117 104  59   168 159  86   193 189 125   209 201 165   223 216 169   227 225 149   224 219 143   210 202 121   221 213 114   208 197  99   210 203 124   218 211 132   184 177  96   187 179  96   209 197 122   223 209 142   173 158  89   177 164  84   212 192 124   209 190 118   202 184 110   193 174 103  
 176 191  86   156 158  86   107 104  34    98  95  28    66  64  10    92  93  18   214 201 123   210 196 126   213 198 131   243 231 173   213 212 145    70  81  12    34  54   1    48  80   4    53  87   1    57  84   1   106 130  38    95 108  28    76  81  13   209 205 142   239 224 168   183 167  82   137 130  59   187 181 116   208 203 136   213 209 137   136 131  68    83  73  25   104  90  42   152 139  73   153 147  72   129 122  50   164 162  79   202 199 120   220 214 154   222 214 150   228 221 139   228 218 139   178 171  81   144 138  51   144 138  52   169 163  79   191 183 110   210 198 134   203 192 124   177 166  87   185 174 107   198 187 126   220 208 153   202 191 128  
 109 118  29   199 197 109   210 201 132   179 177  69   132 133  30   146 152  42   181 176  77   183 172  96   181 169 101   203 195 130   167 170  91    51  63   1    27  48   1    48  80   7    56  92   5    49  83  10    62  94  18    76 101  25    83  97  20   143 146  75   150 142  85   148 139  70   142 139  62   122 120  45   133 131  55   159 158  78   158 155  84   151 142  85   107  97  42   106  95  35   144 130  69   170 160  88   145 142  53   150 148  62   182 184 107   181 183 100   163 167  79   205 206 129   191 184  95   124 119  25   161 157  67   179 175 102   170 167 105   173 169 106   181 175 107   160 151  85   161 162  68   146 144  66   177 173 111   193 188 132  
  91  97  14   169 166  62   230 223 121   195 195  51   152 158  13   163 171  46   162 167  61   162 161  79   139 135  67   146 144  80   137 144  59    77  96   9    35  60   2    39  71   1    51  87   1    49  83  10    84 118  39   100 126  40   101 113  31   144 146  72   141 141  74   120 118  53   120 117  43   127 126  51   141 142  69   117 119  46   117 117  49   141 138  75   125 122  60   130 123  62   159 148  80   173 167  91   146 146  60   120 124  37   160 164  81   181 186 100   135 142  45   155 163  60   202 196 110   154 151  60   147 147  65   165 167 104   161 162 111   144 145  90   143 142  82   145 142  82   135 131  66   131 127  62   153 149  85   174 169 108  
  82  93   9   150 155  18   219 220  74   178 181  39   130 136  12   114 123  22   133 147  46   140 149  65   114 117  50   112 115  61   113 124  44    93 115  20    37  65   4    37  68   6    59  90   1    57  88  10    84 110  44    93 108  37   118 121  45   170 163  98   166 161 108   122 121  67   124 120  59   120 118  57   113 112  55   104 106  47   113 115  54   108 111  46   115 118  50   120 121  55   107 110  37   110 116  32   129 137  47   126 135  44   132 140  39   137 144  35   171 173  74   178 177  95   184 181  84   165 165  73   124 128  45   132 140  67   136 144  84   136 142  88   147 151  90   144 147  76   107 111  54    86  90  33    92  95  37    96 100  44  
  66  81   1   109 119  10   140 150  23   145 159  34   116 134  30    73  92  10    90 103  26   102 115  36    92 102  38    77  87  38    72  88  25    62  85  10    30  59   1    37  68   5    62  90   6    62  82   6   100 109  32    94  94  26    90  88  27    99  99  39   126 126  76   138 141  86   110 110  57    92  91  37    92  91  36   106 106  49   116 116  59    94  94  39    77  78  26    85  87  39    78  73  23    77  77  24   103 106  34   108 112  26   129 134  19   143 149  20   209 212 127   204 205 160   128 130  35   125 129  41    99 107  39    83  96  31    92 107  44   111 120  60   115 120  49   115 117  49    88  96  24    83  88  31    69  72  20    56  57  10  
  70  82  15    66  74  12    69  76  18    73  85  23    73  91  17    76  98  13    82  94  30    88 101  31   110 122  60   109 125  64    72  94  23    33  57   1    22  49   1    42  75   7    64  94   3    70  86  11   122 127  46   109 106  38    92  92  30    82  86  25    85  92  40   102 111  44   112 118  58   103 107  48    88  89  31   113 112  55   109 107  55    85  83  35    91  89  48    76  77  37    84  78  24    81  76  36    72  70  25    66  63  12    76  72   1    98  98   8   131 133  67   139 148  95   101 102  39    95 102  30    73  83  29    52  65  15    55  68  14    87  95  35   111 115  39    86  85  21    89  90  21    93  94  25    93  92  33    91  87  30  
 103 116  35    86 102  14    86 104  20    69  86  12    59  76   8    69  85  20    73  86  34    82  98  30    90 107  36    90 110  39    78 102  29    37  62   5    16  45   1    38  74   4    63  98   1    68  85  16   102 107  45   121 120  62   116 118  61    84  92  34    72  80  30    65  76   8    71  80  23    70  77  23    66  70  19    92  94  45    94  95  45    78  78  27    93  93  38    95  96  39    87  81  32    67  63  24    67  69  23    81  81  35    80  76  27    86  83  32    65  64  19    70  76  23    93 102  40    69  81  12    61  75  17    75  90  24    79  91  23    82  89  23   111 111  35    85  81  10   108 104  31   104  98  32    94  86  33    71  62   8  
  78  89  19    78  95  19    77  98  21    72  92  21    75  89  26    66  79  20    47  61  16    83 101  29    75  96  19    46  67   5    52  75  15    34  62   5    23  54   1    39  75   4    65  99   1    49  66   9    61  66  21    73  73  29    68  72  24    55  63  15    52  61  21    65  74  13    69  81  14    75  85  24    64  73  19    58  62  16    70  73  30    72  75  28    69  71  17    84  85  29    82  80  33    67  71  19    68  78  14    85  94  23    86  87  30    73  70  31    77  77  38    86  94  40    98 113  35    69  83  18    54  66  14    72  87  11    86 100  17    68  72  12    88  84  22    98  91  27   106  97  27    82  70  18    87  74  29    81  68  24  
  70  78  11    75  89  21    56  72  12    62  78  24    85  98  45    85  96  38    67  83  33    80  99  33    72  91  28    50  68  16    51  72  20    31  56   7    27  57   2    35  70   1    56  87   2    47  63  15    50  54  16    58  58  23    49  54  16    49  57  18    46  52  20    53  61   7    68  81   7   109 122  53    94 105  46    58  68  17    47  54  10    52  59  15    71  76  29    77  81  32    69  70  19    59  67   9    70  83  22    71  84  18    79  84  31    75  74  38    75  76  34    82  89  37    87  97  35    81  93  34    49  58  13    61  73   8    87  99  25    77  82  19    81  83  13    77  74  14    89  83  10    81  74  11    69  60   9    68  57  17  
  69  70  31    58  63  27    54  62  23    82  92  48   109 122  68   116 129  71    82  97  46    63  78  24    51  65  16    52  69  21    67  86  31    33  55   9    26  52   4    34  65   1    48  74   1    63  77  26    85  91  41    80  82  42    53  57  21    63  71  31    59  65  30    82  88  35    87  95  39   108 117  61   108 120  66    86  99  47    67  80  27    71  84  29    91 104  45    97 107  47    65  68  23    53  62   8    55  70  20    60  75  18    70  79  23    72  73  28    71  74  26    65  69  35    79  83  32    97 106  35    65  75  12    69  78  15    73  83  20    74  83  15    88  99  12    95 102  24    93  95  12    96  97  18    83  84  20    74  72  18  
 100  99  71    73  72  43    69  72  33    87  95  47    96 105  58    92 103  59    87  98  63    68  82  31    61  74  26    66  79  36    74  92  37    38  59   2    31  55   7    29  56   9    50  74   5    87 102  41   111 118  52    86  88  39    51  56  15    79  87  40    77  82  42    91  94  38    96 100  52    75  83  34    86  99  46    90 105  50    88 106  46    97 115  53    94 110  48   102 116  54   101 108  55    80  94  33    62  77  33    77  93  43   116 126  66    90  95  34    71  77  16    58  62  30    84  83  34   107 111  37    87  94  22    81  90  23    63  71  22    64  70  31    68  80   9    94 107  27    84  89  21    68  74  10    93 100  24   101 112  16  
 108 111  63    89  95  45    92  98  51   116 119  75    88  89  47    73  71  31    67  79  32    66  80  26    76  93  32    82  97  32    84  96  33    54  67  13    30  52   3    22  51   1    57  79  15   104 121  51   119 128  64    78  82  32    53  63  13    67  83  21    87 103  40    74  84  31    88  98  42    82  92  36    90  98  43   115 124  71   108 117  65   101 112  63   100 113  67    91 106  61   125 143  72   124 140  81   107 122  75    93 110  64    98 112  61    99 112  53    85  94  34    56  63   6    45  57   6    75  85  29    98 105  45    93  97  38    83  87  35    71  74  25    67  74  21    71  81  20    87  92  30    76  82  13    84  93  14    95 104  18  
 124 128  71   108 114  57    92  98  41    98 101  44    89  91  33    92  92  34    89  94  34    87  95  33   114 124  59   132 141  73   127 134  65   101 109  45    45  62   7    30  54   2    51  71  15    92 105  44    96 102  45    76  79  32    67  74  23    73  86  22    78  92  25    99 109  49   132 136  75   134 136  78   133 133  78   131 132  79   114 117  62   119 125  66   124 132  66   106 117  47    82 105  34    91 113  46    85 105  45    90 106  51    95 105  50   104 110  52   115 118  55    93  93  28    66  69   8    95  97  34   108 108  42    99  98  27   119 118  47   115 114  42    93  96  22   104 108  33   111 113  28   102 105  24   100 102  25   116 118  44  
 146 147  87   128 129  70   122 122  63    94  93  29   101  98  30   134 129  59   140 136  66   129 128  61   147 147  85   164 163 100   158 157  86   158 160  87   103 113  48    38  54   5    63  77  15   108 114  50   113 111  49   114 111  51    90  91  26    93 100  27   102 109  33   140 142  70   161 157  94   168 163 101   167 160 103   162 153  98   141 135  76   143 139  74   148 148  73   146 149  69   142 145  65   110 114  34   111 115  34   133 137  64   148 147  82   156 153  89   147 142  73   138 132  57   134 128  44   110 102  29   112 101  39   120 109  48   134 124  55   136 128  47   115 109  20   128 124  32   138 135  39   128 124  36   114 109  30   140 133  63  
 129 124  57   153 147  82   171 163  97   152 142  72   138 126  51   161 148  69   184 171 104   182 174 108   188 181 123   206 197 144   186 177 114   168 167  92   150 157  90    60  73  24    85  91  17   151 149  78   163 153  83   139 127  57   100  92  21   123 118  46   168 163  92   187 179 108   188 179 119   186 175 115   182 169 109   189 175 114   184 172 109   180 169 108   180 171 110   197 188 127   212 207 136   161 157  81    99  95  14   139 134  57   192 182 113   202 190 122   186 169  97   155 138  58   173 163  76   156 144  70   118 104  44   157 142  84   177 162  97   177 164  91   174 159  84   182 166  94   179 170  72   141 132  38   150 139  55   193 180 104  
 200 194 133   205 199 137   211 201 139   201 187 125   162 146  84   144 127  63   200 185 125   202 193 128   206 200 140   218 207 160   228 219 164   193 193 119   139 149  78    74  89  34    96 100  26   192 184 118   222 206 145   213 195 131   158 144  82   174 162 107   204 191 140   215 198 146   218 207 151   207 197 136   190 178 115   187 173 108   189 175 112   197 184 128   193 181 132   199 186 143   220 215 158   209 208 143   128 129  54   121 126  41   149 155  64   163 167  72   158 161  59   135 137  29   168 162  78   201 194 118   136 127  63   159 149  90   192 179 121   210 194 134   213 194 134   215 195 134   212 197 118   180 165  86   163 147  69   217 203 128  
 147 153  80   166 171  95   204 205 131   210 206 139   193 184 123   168 157  98   165 152  97   150 144  73   169 167  99   181 175 125   185 180 125   179 183 107   128 143  61    80 104  32   102 113  42   171 172 111   195 187 129   195 185 120   162 155  93   200 192 143   200 193 146   193 182 131   192 187 124   199 191 128   199 190 128   182 173 109   178 167 106   213 203 144   206 196 142   171 164 111   178 166 122   187 179 131   185 184 128   171 177 106   106 119  34    84 101   7    77  96   1    70  88   1   102 108  19   144 151  65   145 149  70   178 178 108   202 197 134   197 186 123   188 174 102   190 174  95   203 190 116   203 190 115   150 136  59   161 148  70  
  55  68   9    60  74  11    94 107  44   145 151  96   164 166 119   145 143 102   115 111  61    98 100  30   101 105  33   119 120  67   105 108  54   105 115  40    98 117  35    65  90  19    80  97  27    75  85  25    84  87  29    88  90  27    98 102  41   118 122  70   115 118  69   103 106  52   110 113  52   113 112  54   131 128  70   136 131  73   121 115  59   141 137  79   154 153  94   149 149  90   164 163 107   150 150  92   135 138  75   154 159  86   140 149  67   107 118  33    84  96  14    69  80   5    80  92  19    97 110  28    98 110  24   112 123  37   134 140  60   141 140  64   149 145  63   144 137  49   137 134  40   141 137  48   136 130  46   133 128  49  
  59  75  38    48  67  23    51  72  25    65  82  40    75  89  52    81  92  60    82  91  55    68  80  27    72  86  24    79  93  33    69  86  23    69  87  19    72  89  26    58  74  25    57  71  16    63  77  23    64  79  24    64  78  27    62  76  27    56  70  26    50  64  25    50  63  28    50  59  22    49  54  19    52  56  19    63  65  29    53  55  19    50  55  19    56  63  27    66  75  38    80  91  51    90  99  50   105 113  52    83  91  25    94 101  36    93 104  40    78  94  27    66  87  17    72  88  26    78  95  28    79  95  26    76  91  23    76  88  22    77  88  19    86  97  19   100 112  24    88 100  24    80  90  23    70  78  23    77  84  38  
  68  83  59    61  80  47    62  82  47    64  83  48    60  78  47    56  73  45    65  78  52    63  77  40    62  80  28    74  93  28    80 102  29    77 100  27    72  94  27    61  82  20    64  78  34    67  83  35    70  86  31    71  88  28    69  86  26    70  87  30    63  79  28    50  66  19    49  55  22    43  48  16    36  42  12    42  47  21    37  44  20    42  48  22    41  46  19    42  47  18    38  48  20    52  62  24    78  85  39    66  75  23    60  69  19    69  82  31    69  87  31    58  81  21    71  94  33    68  88  31    63  79  29    62  76  27    60  71  23    57  66  15    60  69  13    71  78  21    58  68  24    53  62  21    52  62  21    59  67  26  
  71  84  67    64  82  57    61  81  53    57  78  47    48  72  40    45  69  37    45  61  43    56  77  37    66  90  29    70  96  24    75 101  23    75 103  20    69  95  23    66  89  32    63  79  42    58  74  37    62  78  40    58  75  35    54  71  25    74  91  36    86 106  38    69  89  17    50  54  21    42  47  17    31  39  14    34  42  23    30  40  22    37  41  23    37  40  18    42  42  20    39  48  30    37  45  21    42  48  19    48  55  22    48  57  26    47  61  25    46  67  23    54  81  29    65  91  38    64  87  44    62  78  49    58  70  46    56  65  37    51  58  26    47  53  23    47  51  25    40  53  18    53  68  24    50  65  11    58  73  15  
  66  79  62    69  83  63    69  87  60    59  80  49    44  67  33    35  61  24    32  52  24    44  69  15    78 107  21    84 115   7    73 106   1    69  98   3    62  84  19    69  87  46    73  89  50    65  79  46    59  72  49    51  64  47    41  52  31    48  61  27    67  84  33    77  95  33    55  58  30    43  47  23    29  34  12    32  38  22    32  35  21    32  33  19    29  29  14    36  35  18    28  36  25    34  39  25    31  34  18    37  42  25    42  49  32    38  52  28    40  62  24    51  79  30    48  75  31    50  70  40    54  68  51    55  65  54    51  58  42    43  49  27    38  46  24    37  44  25    48  65  25    64  83  27    61  82  12    60  79  13  
  55  68  52    63  76  59    71  85  64    67  84  59    57  76  45    50  73  40    48  69  32    43  62  26    62  85  27    76 101  16    72  96  12    65  83  28    54  68  35    54  68  36    62  77  42    68  82  51    60  71  47    45  56  39    42  50  35    38  46  30    36  44  24    41  48  26    44  50  31    38  41  21    29  29  10    36  32  14    36  33  15    36  32  18    31  29  16    37  38  25    31  37  24    32  35  20    31  33  20    35  38  25    37  43  30    32  46  23    47  69  28    45  73  20    55  78  44    49  66  40    53  65  46    61  67  55    54  58  44    40  48  26    40  51  20    49  62  26    54  76  12    57  80  10    63  85  14    55  74  11  
  61  71  62    64  73  62    63  72  60    56  66  50    49  63  41    49  65  41    51  68  43    54  68  49    51  65  40    60  75  37    63  76  40    61  69  48    63  68  55    53  59  42    54  65  45    65  75  55    68  78  57    56  64  45    45  51  33    44  49  32    43  46  31    37  40  27    32  41  24    36  39  19    39  35  12    60  49  25    74  63  38    74  65  44    49  47  29    35  38  23    32  35  18    33  35  18    36  37  22    35  36  25    40  45  32    34  48  22    57  80  35    48  78  18    59  76  51    52  65  41    55  63  41    61  64  46    54  58  41    46  55  28    51  65  21    59  79  19    59  83  10    52  72  13    43  60  17    41  56  20  
  66  75  65    70  74  64    65  71  54    61  69  49    57  68  49    55  67  51    56  68  51    57  69  52    52  62  44    63  74  54    74  82  63    65  73  55    63  67  51    56  59  44    62  71  53    65  73  56    65  73  55    59  64  47    48  52  34    46  50  30    46  48  29    43  44  27    33  38  22    34  38  14    47  45  11    96  84  44   126 106  66   128 107  74    92  78  51    53  47  23    39  44  24    35  38  21    38  40  25    37  38  25    38  42  26    45  56  29    59  76  37    56  77  29    56  71  43    57  69  44    59  68  46    60  65  44    53  57  35    53  59  28    61  72  27    64  78  23    52  62  22    42  52  19    41  49  25    44  52  34  
  66  74  54    66  74  54    75  83  60    73  81  58    67  72  55    74  79  64    68  77  57    68  77  56    65  73  52    74  82  62    84  89  68    75  80  59    72  75  54    62  65  45    57  65  44    66  74  53    69  74  55    62  67  48    59  62  41    58  61  40    55  54  34    47  47  27    39  42  29    34  37  16    37  38   6    85  77  40   120 101  67   123 103  71    92  80  53    64  59  34    47  51  28    36  39  18    37  38  20    39  40  24    41  44  26    49  58  31    55  67  32    58  73  34    56  71  51    62  74  56    66  74  59    62  68  53    51  55  37    47  52  28    55  62  30    60  70  33    57  62  32    45  50  23    43  48  25    46  51  31  
  82  90  47    81  94  53    81  92  58    77  86  58    79  83  56    89  92  63    86  92  63    83  90  58    77  84  52    81  86  55    92  97  66    80  83  53    82  85  53    68  71  39    68  74  47    82  88  60    82  86  58    70  73  44    69  70  40    71  72  39    65  64  32    56  55  22    47  50  25    51  55  26    42  43  11    49  44  11    63  53  19    70  60  27    60  56  22    48  52  15    55  59  24    47  50  18    50  50  20    53  53  25    53  56  28    56  60  27    60  67  32    69  79  41    68  82  57    70  82  55    72  80  53    72  77  48    68  72  42    60  65  30    56  62  26    61  67  31    59  60  24    52  56  22    54  57  25    53  57  28  
  98 109  40    92 108  40    85 100  43    89 101  53   102 108  61   114 116  66   103 108  63   102 107  62    96 101  56   100 105  60   113 116  72    91  93  49    93  95  52    98 100  56    95  99  55   108 113  67   108 110  65    95  97  48    92  94  41    93  92  37    87  85  29    81  80  22    74  72  16    77  74  20    74  69  17    71  66  14    75  69  16    81  78  23    86  87  26    86  90  26    82  88  28    79  82  24    79  81  25    80  79  26    83  84  33    88  90  40    88  92  41    95 102  51    99 106  54   100 106  51   105 108  50   107 107  46   106 105  42    95  93  30    82  81  18    87  85  23    85  86  30    84  85  30    83  86  33    82  85  35  
 112 122  39    91 106  23    88 106  27   109 125  53   125 136  65   128 137  64   127 133  72   122 128  68   117 123  63   126 132  72   137 143  82   116 120  62   106 111  52   124 129  70   121 124  63   130 132  69   132 133  69   125 127  57   121 121  48   119 118  41   115 114  34   114 112  30   113 109  22   105  99  15   109 102  21   109 103  25   107 107  27   108 110  26   113 116  29   114 116  27   106 112  30   107 111  29   109 111  29   107 107  27   110 108  32   117 117  45   119 121  51   124 126  60   125 124  54   133 130  60   150 145  72   157 149  73   154 146  67   141 133  51   122 114  32   123 115  32   119 120  42   115 116  38   111 113  38   108 111  38  
 140 148  68   114 125  41    81  96   9    82 101  14   108 126  40   130 149  67   143 151  77   137 145  71   135 143  69   137 145  72   134 142  69   131 139  67   115 123  52   132 139  69   151 151  84   150 150  81   151 150  77   145 145  66   138 137  53   139 135  48   137 135  42   133 130  35   126 126  24   128 125  26   136 131  34   122 123  25   120 128  30   127 136  37   136 142  43   137 137  40   134 139  45   122 127  32   123 123  27   128 126  31   137 135  43   148 145  58   143 142  61   138 136  60   131 129  55   158 154  82   203 195 125   213 203 130   194 185 108   169 160  77   142 134  44   138 130  36   126 125  34   125 124  33   122 123  33   120 121  35  
 158 160  94   148 155  78   123 136  48    83 102   8    61  83   3    78 102  19   119 128  47   128 137  56   143 152  71   127 136  56    92 101  22   109 119  41   108 119  40   134 144  66   153 152  86   150 148  80   151 149  77   148 145  68   140 135  51   140 135  45   136 131  37   122 116  20   104 111   8   113 115  14   124 125  24   114 121  18   127 143  40   135 153  51   141 150  53   145 146  53   136 140  46   128 130  33   135 135  35   143 141  41   143 139  42   147 142  51   149 144  62   150 144  66   144 145  70   151 150  78   178 175 106   184 177 109   177 170  96   169 164  80   149 146  51   140 137  35   145 142  49   139 136  43   133 132  40   131 131  43  
