P3
50 50
255
  25  30  24    31  37  31    33  40  32    29  35  28    13  18  11    14  22  14    11  18  11    19  27  20    25  35  27    34  44  36    27  38  32    32  43  35    38  48  40    43  50  43    38  45  38    31  36  29    28  32  26    25  27  24    19  21  18    15  17  14    18  20  17    21  22  20    25  27  24    24  26  21    22  24  19    22  24  19    21  23  18    24  26  21    24  26  21    20  22  17    21  22  17    25  25  20    23  24  19    22  23  18    18  19  13    24  26  19    37  39  33    27  29  23    18  20  13    21  22  16    15  16  10    15  16  10    18  18  13    18  18  12    20  21  15    23  24  18    44  47  37    56  59  48    61  65  52    47  51  37  
  21  26  20    21  27  20    18  25  18    25  31  24    25  30  24    16  23  16    23  30  23    23  32  24    23  33  25    17  27  19    23  32  27    28  38  30    35  43  36    36  42  36    33  38  32    35  40  34    42  44  39    42  44  41    32  34  31    24  25  23    18  20  17    16  18  16    19  21  18    26  28  23    26  27  22    21  22  17    18  19  14    19  20  15    20  20  15    21  22  17    21  22  17    27  28  23    24  25  20    22  23  18    22  23  17    23  25  18    29  30  24    25  27  21    20  21  15    20  21  15    18  19  13    18  19  13    21  21  16    22  22  17    20  21  16    21  22  16    34  37  30    49  52  43    61  64  53    45  48  37  
  22  27  21    28  34  28    31  38  31    27  33  27    35  40  34    23  30  23    26  33  26    23  30  23    26  33  26    25  32  25    14  20  16    17  23  18    31  36  30    37  42  36    34  36  31    28  30  25    26  28  23    30  32  29    34  36  33    40  42  39    35  37  34    29  31  28    23  25  22    19  21  16    18  19  14    20  21  16    22  23  18    21  22  17    17  18  13    16  17  12    25  26  21    27  28  23    21  22  17    26  27  22    35  36  30    30  31  25    24  25  19    21  23  16    20  21  15    18  19  13    21  22  16    20  20  15    21  21  16    19  19  16    16  17  12    19  20  15    25  27  21    41  44  37    53  56  49    35  38  29  
  10  15  10    17  22  18    23  29  25    22  28  22    27  34  27    26  33  26    19  25  19    20  27  20    24  31  24    32  39  32    24  28  25    14  16  13    18  20  16    22  24  19    26  27  22    32  33  28    30  32  27    28  30  27    33  35  32    40  42  39    34  35  32    30  32  29    26  28  25    17  18  14    17  18  13    18  19  14    18  19  14    19  20  15    19  20  15    18  19  14    20  21  16    20  21  16    15  16  11    19  20  15    29  30  24    27  27  22    21  23  17    20  22  16    21  22  16    20  21  15    23  24  18    22  23  17    18  18  13    21  21  18    22  22  20    19  19  17    14  16  12    21  23  18    22  24  19     9  11   6  
  10  15  11    10  15  11    12  18  14    18  24  20    24  29  26    30  36  32    25  31  27    30  35  31    22  27  23    22  27  22    14  17  14    13  16  13    24  26  23    25  27  24    25  26  21    31  32  27    33  34  30    32  34  31    31  33  30    32  34  31    22  24  21    20  22  19    22  24  21    20  21  16    21  22  17    18  19  14    14  15  10    16  17  12    19  20  15    15  16  11    17  18  13    19  20  15    18  19  14    18  19  14    18  19  13    20  21  15    23  24  18    23  25  18    24  25  19    24  25  19    23  24  18    23  24  18    16  16  10    12  11   8    17  17  15    17  17  14    15  17  14    24  26  22    23  25  20    25  27  22  
  11  16  12    11  16  13    15  21  19    20  26  23    26  32  28    33  39  35    33  38  34    29  34  30    20  25  21    14  19  15    17  19  16    17  19  16    23  25  22    23  25  22    22  24  21    25  27  22    22  24  19    17  19  16    21  23  20    26  28  24    21  23  20    21  23  20    24  26  23    22  23  19    20  21  16    15  17  12    12  13   8    16  17  12    19  20  15    16  17  12    22  24  19    19  20  15    23  24  19    28  29  24    27  28  22    24  25  19    24  25  19    22  24  17    22  23  17    22  23  17    20  21  15    19  20  14    13  13   8    14  14   9    24  25  20    27  28  23    29  31  26    31  33  28    25  27  22    30  32  27  
  28  33  29    25  30  29    25  31  29    25  31  27    27  33  29    27  33  29    27  32  28    19  24  20    18  20  17    17  19  16    19  24  20    19  24  20    19  24  20    17  22  18    17  22  18    14  19  15    12  16  11    13  15  12    17  19  16    20  22  19    19  21  18    20  22  19    26  28  25    25  26  22    17  18  13     7   8   3     8   9   4    14  15  10    21  22  17    27  27  22    20  21  16    14  15  10    19  20  15    28  29  24    30  31  25    24  25  19    20  22  15    21  23  16    21  21  16    17  18  12    18  19  13    17  18  12    18  18  12    22  22  16    27  28  22    27  28  22    30  33  26    24  26  20    22  24  19    22  24  19  
  26  30  29    38  43  41    52  58  56    46  52  49    32  38  34    26  32  28    27  32  28    23  28  24    23  26  23    20  22  19    16  20  18    23  28  25    22  27  23    14  20  16    12  18  14    13  19  15    15  21  15    17  19  16    21  23  20    22  24  21    19  22  19    16  18  15    19  21  18    21  21  17    11  10   6     7   6   2    16  15  11    20  19  15    19  18  14    24  23  19    15  16  11    16  17  12    19  20  15    19  20  15    18  19  13    20  21  15    20  22  15    23  25  19    23  24  18    17  18  12    21  22  16    19  20  14    27  27  21    34  34  27    30  31  23    23  24  16    23  25  18    17  20  13    29  31  25    29  32  25  
  20  25  21    20  26  21    25  31  27    23  28  24    22  27  23    23  28  24    22  27  23    20  25  21    18  23  19    18  23  19    21  26  19    20  25  19    22  27  21    17  22  16    16  21  15    13  18  12    17  23  17    18  24  20    19  24  20    16  21  17    17  22  18    19  24  19    16  21  15    13  15  11    11  11   9     9   9   7    17  17  14    25  26  21    21  22  17    19  20  15    16  18  13    22  24  19    26  28  23    20  22  17    15  17  12    19  21  16    26  28  23    32  33  28    25  26  20    26  27  21    26  27  21    26  26  21    28  29  23    26  30  23    21  26  19    23  28  21    20  25  19    21  26  18    22  28  18    28  34  24  
  17  22  18    16  21  17    20  26  22    24  30  25    25  30  26    23  28  24    20  25  21    19  24  20    20  25  21    24  29  24    26  31  27    26  31  27    27  32  28    19  24  20    17  22  18    16  21  17    20  25  21    19  25  21    22  27  23    21  26  22    21  26  22    23  28  23    21  26  20    20  21  18    20  20  18    18  18  16    23  23  20    28  29  24    26  27  22    26  27  22    16  18  13    27  29  24    23  25  20    20  22  17    19  21  16    20  21  16    28  30  25    33  34  29    28  29  23    27  28  22    22  23  17    20  21  15    25  26  20    23  24  18    24  26  19    27  28  22    23  24  18    25  26  20    28  29  23    32  34  27  
  20  25  21    19  25  21    22  28  24    24  29  25    26  31  27    26  31  27    23  28  24    22  27  23    22  27  23    23  28  24    31  35  34    33  37  36    32  36  35    22  26  25    23  27  26    26  30  29    27  31  29    23  29  25    25  31  27    27  32  28    23  28  24    24  29  25    22  27  21    18  21  17    20  22  19    21  23  20    25  27  23    27  29  24    25  26  21    26  28  23    25  27  22    28  30  25    28  30  25    29  30  25    22  24  19    19  21  16    29  32  26    26  29  22    25  28  20    27  30  23    23  26  19    21  25  17    24  27  18    25  26  18    31  32  26    35  36  30    25  26  20    27  28  23    31  31  28    29  29  27  
  29  34  30    27  33  29    25  31  27    23  28  25    25  30  26    26  31  27    23  28  24    21  26  22    20  25  21    20  25  21    24  30  28    27  33  31    29  35  33    26  32  30    33  39  37    42  48  46    37  43  40    25  31  27    28  34  30    30  36  32    26  31  27    27  32  28    25  30  24    17  20  16    19  20  17    25  27  24    29  30  27    26  28  23    21  23  18    21  23  18    28  29  24    26  28  23    34  36  31    36  38  33    30  31  26    30  32  27    34  37  31    31  36  29    23  28  21    23  28  21    24  29  22    26  32  22    28  34  24    25  31  21    27  34  24    30  36  26    21  26  20    24  29  23    25  30  25    20  25  21  
  36  41  37    38  44  40    38  44  40    31  36  32    30  35  31    27  32  28    22  27  23    22  27  23    23  28  24    23  28  24    28  34  32    27  33  31    29  35  33    28  34  32    35  41  39    42  48  46    33  39  37    28  34  30    31  37  33    33  39  35    30  36  32    31  36  32    30  35  29    23  26  22    24  27  24    32  34  31    33  35  31    27  29  24    22  25  20    23  25  20    29  31  26    35  37  32    35  37  32    31  33  28    34  36  31    34  36  31    29  31  26    30  33  26    27  30  23    30  34  27    34  37  28    35  38  29    32  35  26    27  36  23    24  35  21    26  36  25    25  35  24    28  38  29    28  38  30    25  35  27  
  35  40  36    41  47  43    44  50  46    39  44  40    38  43  39    36  41  37    33  38  34    33  38  34    32  37  33    29  34  30    34  40  39    30  37  35    32  38  36    31  37  35    33  39  37    36  42  40    29  34  32    37  43  39    35  41  37    33  39  35    32  38  34    29  35  30    27  32  26    25  30  26    26  31  27    31  36  32    33  38  33    30  35  29    31  36  30    33  38  32    35  39  32    40  43  36    31  34  27    29  32  25    32  35  28    31  34  27    35  38  31    38  41  34    38  41  34    40  43  34    38  41  32    37  40  30    34  37  28    35  42  30    32  40  27    34  42  29    37  45  32    40  48  35    39  47  34    40  48  35  
  32  37  31    35  42  35    38  45  38    39  42  37    42  44  39    42  44  39    41  43  38    44  46  41    40  42  37    33  35  30    29  35  31    28  34  30    35  41  37    38  45  41    40  46  42    44  50  46    37  44  40    45  54  49    41  48  43    35  41  37    36  42  38    30  36  31    26  33  26    28  34  29    27  32  28    31  36  32    35  40  35    35  40  34    39  44  38    41  46  40    37  42  35    35  40  33    30  35  28    33  38  31    33  38  31    37  42  35    54  57  50    61  60  55    51  50  43    40  40  32    33  33  25    36  36  28    39  39  31    40  40  30    37  37  27    40  40  28    42  42  30    46  47  33    47  48  32    51  52  36  
  33  38  32    37  44  37    41  48  41    38  41  36    38  40  35    36  38  33    35  37  32    39  41  36    39  41  36    33  35  30    31  38  31    32  39  32    42  49  42    46  53  46    43  50  43    48  55  48    42  49  43    51  60  55    45  52  48    39  45  41    45  52  47    39  46  41    36  43  36    36  41  36    32  37  33    35  40  36    39  44  39    38  43  37    39  44  38    39  44  38    49  54  47    44  49  42    41  46  39    36  41  34    37  42  35    42  47  40    46  49  43    45  44  39    36  35  28    31  31  23    31  31  23    34  34  25    31  31  23    36  29  22    40  31  24    46  37  28    47  40  28    53  45  31    59  52  34    66  59  41  
  40  47  40    35  43  35    38  48  39    38  44  37    37  42  36    34  39  33    36  41  35    37  42  36    36  39  34    43  45  40    42  44  39    42  45  40    46  48  43    48  50  45    53  55  50    55  60  54    50  55  49    56  61  55    54  59  53    61  66  60    58  62  56    46  48  43    49  52  45    45  48  42    40  42  37    41  43  38    45  47  42    43  45  40    43  45  40    43  45  40    47  49  43    46  50  43    49  54  47    40  45  38    41  46  39    39  41  36    37  36  29    52  45  34    50  39  29    51  35  27    69  51  39    75  57  42    81  65  46    87  69  42    89  72  44    91  74  48    86  68  44    76  58  37    74  56  36    77  59  39  
  37  42  36    35  42  34    37  44  36    37  43  36    39  44  39    41  46  40    40  45  40    38  43  37    37  40  35    46  48  43    49  51  46    40  42  37    47  49  44    54  56  51    51  53  48    52  57  51    58  63  57    63  68  62    52  57  51    60  65  59    65  67  62    48  50  45    43  46  39    51  53  48    57  59  54    46  48  43    44  47  41    46  49  42    43  46  39    46  49  42    44  45  39    45  49  42    39  44  37    31  36  30    39  42  35    38  38  32    43  38  30    78  66  48    98  83  61    93  76  48   100  80  50   105  86  57   105  85  59   103  85  65    95  79  56    90  74  49    90  74  48    90  74  49    98  82  58    92  75  55  
  38  43  37    42  47  40    42  46  39    39  44  37    39  44  39    42  47  41    42  47  40    40  45  39    41  44  39    51  53  48    43  45  40    45  47  42    51  53  48    50  52  47    48  50  45    53  58  51    61  66  60    62  67  61    49  54  48    48  53  47    59  61  55    55  58  51    59  62  55    60  64  57    53  57  50    50  54  47    46  49  41    44  47  38    41  45  36    42  45  36    44  45  37    45  47  38    48  51  42    35  38  29    32  33  25    36  35  27    43  36  27    86  70  53   112  93  68   138 118  86   155 132  98   119  96  65   124 100  74   123 104  87   131 116 100   137 122  98   142 128 101   137 123  95   145 131 105   154 139 116  
  45  48  41    46  49  42    42  44  38    42  45  39    41  46  40    40  45  39    40  45  39    40  45  39    43  45  40    48  50  45    46  49  42    44  47  40    43  46  39    44  47  40    50  53  46    45  50  43    40  45  38    45  50  44    51  56  50    48  50  45    52  55  48    58  61  54    67  70  63    69  74  65    51  58  48    57  59  51    52  55  45    49  52  41    49  51  40    52  54  42    54  54  46    53  54  46    52  53  45    44  46  36    51  48  39    63  59  50    69  59  51    88  71  62    91  72  58    80  61  42   122 102  78   123 101  78   138 115  96   153 137 115   159 147 123   156 144 120   161 149 123   153 141 114   166 155 127   182 168 141  
  51  54  47    52  55  48    51  53  46    48  51  45    47  52  46    47  52  46    44  49  43    39  44  38    38  41  36    40  42  37    36  39  32    38  41  34    41  44  37    42  45  38    48  51  44    44  49  42    42  47  40    42  46  40    55  57  52    51  54  48    51  54  47    50  53  46    53  55  49    54  58  51    48  54  45    42  44  36    42  44  35    51  53  42    51  53  40    50  50  38    59  59  49    61  61  51    45  45  35    48  46  37    55  52  41    60  51  42    75  64  54    93  79  69    80  66  58    85  70  63   125 108  98   136 119 103   142 124 103   156 145 109   150 140 104   148 133 105   146 131 108   136 122  97   167 152 124   170 155 122  
  48  51  44    46  49  43    47  49  44    45  49  43    50  55  48    57  62  55    52  57  50    41  46  39    38  42  35    39  42  35    38  41  34    40  42  36    40  43  36    48  51  44    67  70  63    55  60  53    47  51  45    53  55  50    52  55  49    57  60  53    59  62  55    49  52  45    42  43  37    39  43  36    47  52  45    41  44  36    52  54  45    66  68  58    75  76  65    52  52  41    36  33  24    37  37  27    40  39  28    54  51  39    57  49  38    71  58  49    97  83  70   101  90  70    73  61  47   101  89  79   111  99  86   134 121  99   144 129  99   145 132  91   143 129  90   138 122  88   122 106  74   121 103  72   169 151 116   186 168 130  
  45  48  41    44  49  42    45  51  45    46  52  45    50  55  49    59  64  57    54  59  52    43  48  41    41  45  38    42  45  38    43  46  39    51  54  47    50  53  46    49  53  45    66  69  62    51  56  49    43  48  41    50  53  46    48  51  44    62  65  58    69  72  65    60  61  54    47  48  40    35  39  32    37  42  37    49  51  46    58  61  54    66  66  58    75  75  66    54  52  42    43  40  31    38  36  24    52  49  37    62  57  45    64  54  44    93  79  68   109  92  79    89  72  54    74  58  41   103  90  73    97  84  65   115  98  74   119 101  72   110  91  63   122 103  72   138 120  79   143 125  78   152 132  82   174 152 106   183 160 118  
  42  45  38    41  46  39    39  47  40    49  56  49    54  59  52    56  61  54    50  55  48    43  48  41    42  46  39    40  43  36    41  44  37    41  44  37    45  48  41    52  55  48    63  66  59    44  49  43    42  47  40    46  49  42    42  45  38    53  56  48    59  62  55    65  66  60    64  65  57    41  45  40    34  39  35    52  54  49    47  48  43    47  48  41    46  46  38    53  50  41    54  51  42    55  53  41    54  51  39    61  54  43    71  59  47    82  65  55    79  59  50    85  62  53    74  54  40    79  62  44    79  61  39    89  67  46    98  74  54    79  53  39    97  72  50   147 126  81   183 163 102   190 169 105   192 167 113   192 165 119  
  52  54  45    45  48  39    47  50  41    48  50  42    36  37  29    51  52  44    47  49  40    40  43  34    45  48  38    46  49  38    43  48  41    37  40  33    43  46  39    52  55  48    61  64  57    53  56  47    56  58  49    66  68  59    64  67  58    64  67  60    62  67  60    64  69  63    65  70  64    56  65  55    52  60  49    53  59  49    45  47  39    41  42  35    39  40  34    44  45  40    52  49  38    50  46  37    54  49  40    67  58  49    67  55  45    66  50  37    62  41  27    74  46  35    69  46  35    46  28  16    58  42  27    82  66  46    70  54  30    55  34  18    70  47  31    95  71  44   123  99  60   146 122  75   141 116  65   158 131  78  
  45  46  38    48  49  41    51  54  45    48  50  41    40  40  33    53  55  46    55  56  48    46  49  39    51  54  43    55  58  47    50  53  46    41  44  37    48  51  44    54  57  49    62  65  56    60  60  53    61  62  54    55  56  48    61  64  55    60  63  54    47  50  43    44  48  41    55  60  53    59  66  56    62  70  59    60  66  56    60  63  54    49  50  42    46  46  40    61  60  55    58  56  44    52  47  38    51  43  36    57  48  39    60  47  38    64  48  34    65  48  33    65  46  32    48  33  19    38  25  13    43  33  20    52  40  25    51  38  22    67  43  28   111  84  65   125  99  72   124  97  62   133 105  63   127  96  51   132 101  55  
  39  40  32    37  38  30    45  47  39    53  54  46    44  45  37    43  45  36    44  46  35    38  40  29    43  45  34    45  47  36    39  42  33    39  43  34    50  53  44    53  54  46    62  63  55    56  58  47    58  60  49    49  51  40    48  49  40    59  60  52    51  54  45    35  39  30    42  45  36    53  58  50    66  71  64    69  72  65    65  67  60    44  45  37    38  39  29    57  57  47    65  63  52    60  56  47    58  50  42    55  43  35    54  40  29    51  37  24    51  37  22    40  32  16    32  25  11    24  17   3    28  22  10    38  30  19    48  39  27    62  44  28    74  53  34    89  69  44   103  82  54   107  85  54   124 100  68   123  98  67  
  35  37  29    34  35  27    44  45  37    52  54  44    48  50  40    51  53  42    49  51  40    42  44  32    40  42  29    40  40  28    34  37  28    39  42  32    42  44  33    38  40  29    56  58  47    56  58  47    57  59  48    60  61  51    52  54  43    48  50  39    54  56  45    52  54  43    41  43  32    38  39  30    48  51  43    58  61  54    45  48  41    29  31  23    28  28  19    45  43  32    47  45  33    51  46  35    54  44  35    49  37  28    53  39  29    47  33  20    41  29  16    29  23   9    27  21   6    30  24   9    37  30  12    42  34  15    50  40  21    54  46  26    63  56  37    56  49  30    56  48  27    51  43  22    64  54  33    60  49  30  
  38  39  31    37  38  30    42  43  35    46  48  38    38  40  29    40  42  29    40  41  28    45  45  33    44  44  32    39  39  27    33  35  24    40  43  31    45  47  35    44  46  33    58  59  46    52  52  40    43  43  30    44  44  32    53  53  41    54  54  42    62  62  50    69  69  57    66  66  54    44  44  33    33  33  25    33  34  29    26  29  22    23  24  17    34  33  22    43  39  27    40  38  26    42  37  26    43  33  23    44  30  20    58  43  33    50  36  25    39  28  17    36  27  17    36  28  14    48  37  19    63  51  29    67  55  28    67  55  25    72  65  37    82  78  51    75  70  46    77  72  50    70  65  43    72  67  46    64  59  39  
  26  27  19    23  24  15    39  40  32    50  52  40    44  46  33    43  45  32    39  40  27    46  46  32    50  48  35    53  51  38    47  49  36    41  42  30    40  42  29    43  45  31    50  51  37    53  54  39    48  49  35    43  44  30    42  41  27    52  50  37    71  69  56    73  71  58    70  68  53    67  64  51    51  49  36    20  21  13    20  22  17    24  24  19    41  38  30    45  38  28    49  46  34    48  40  30    44  32  22    48  32  20    56  42  31    43  31  19    25  15   5    26  14   7    37  23  12    52  37  18    71  56  33    91  77  49   109  95  65   115 106  70   114 106  70   102  94  61   120 111  80   115 107  78    96  89  60   103  97  65  
  25  26  18    27  28  20    29  29  21    32  33  22    42  44  30    54  56  42    49  50  36    44  44  30    44  42  29    55  51  39    47  49  36    38  40  26    38  39  25    43  44  30    43  44  30    48  49  35    42  42  27    43  41  28    51  49  36    45  44  29    50  47  32    61  58  42    72  69  52    85  80  64    74  69  57    27  27  17    17  19  14    23  24  19    37  33  28    43  36  28    41  38  29    45  38  27    48  35  23    50  34  21    44  29  16    34  22  10    23  13   4    22  12   4    30  17   7    42  29  13    45  30  14    46  34  17    69  59  41    93  83  55    98  87  57   105  95  67   112 102  75   118 109  81   121 115  84   119 113  80  
  22  22  14    19  19  11    23  23  15    27  29  17    32  34  20    38  39  25    46  46  33    54  52  39    52  49  34    52  49  34    48  49  35    40  41  27    31  32  18    34  35  22    36  37  21    50  51  35    41  39  24    42  40  27    55  53  38    55  52  37    54  50  35    50  46  30    55  49  33    74  68  50    76  73  58    35  35  26    10  13   7    22  22  19    34  30  26    46  37  32    39  35  26    49  42  30    57  43  30    52  35  23    33  16   4    31  18   9    33  26  15    42  35  24    53  43  31    58  46  34    55  44  32    48  39  30    45  39  33    44  38  21    59  52  33    63  58  39    68  63  46   110 107  87   120 120  97   103 103  75  
  20  22  11    19  21   8    20  22   9    23  23  10    30  28  15    39  37  24    38  36  23    41  39  26    50  48  35    45  44  30    48  48  35    51  51  39    48  48  36    34  34  22    27  27  15    41  41  29    45  45  33    39  39  27    44  43  30    52  50  35    54  51  34    57  53  34    57  52  32    49  44  24    63  60  45    46  43  35    19  18  13    21  19  13    37  35  24    47  44  30    49  40  33    53  43  34    51  39  30    42  26  18    42  24  14    47  27  19    63  41  33    69  41  36    81  54  47    90  65  58    93  70  62    91  69  60    89  69  58    86  66  55    84  64  55    69  49  42    64  46  40    66  49  44    64  49  41    79  65  54  
  18  20   9    22  22  11    25  25  13    26  25  12    29  27  14    41  39  26    41  39  26    34  32  19    36  34  21    39  37  24    37  37  25    37  37  25    40  40  28    34  34  22    32  32  20    34  34  22    45  45  33    48  47  35    42  40  28    40  37  22    48  45  28    63  58  39    64  58  39    58  51  32    67  61  44    47  44  33    27  25  18    40  39  33    60  59  48    51  49  36    40  30  20    39  28  18    43  30  20    38  23  12    46  28  16    55  35  24    58  39  25    61  39  26    67  44  33    72  51  42    78  58  50    85  65  58    92  72  65    96  76  66    96  76  67    89  69  62    89  70  64    85  67  60    67  53  42    64  50  39  
  24  24  14    28  28  17    31  29  17    27  27  16    23  23  13    29  29  19    33  33  23    30  30  20    30  30  20    30  30  20    33  33  20    40  40  28    41  41  29    36  36  25    45  45  33    33  33  21    39  38  26    54  52  40    43  39  28    41  38  23    49  43  27    53  46  29    60  53  35    63  55  37    58  50  32    51  45  33    45  43  34    34  34  26    34  34  24    36  34  22    29  21   8    29  20   7    40  29  16    44  30  17    50  36  23    60  44  29    59  44  28    56  43  26    60  45  30    66  49  36    68  50  40    70  52  45    73  53  47    82  62  52    82  62  53    82  62  55    91  71  64    97  78  71    92  74  65    89  73  60  
  40  36  28    44  41  32    42  40  29    33  33  23    26  26  18    25  25  17    25  25  17    29  29  21    33  33  25    30  30  22    30  30  18    39  39  27    36  36  24    34  34  22    41  41  29    29  29  17    26  25  14    37  33  22    33  29  18    40  34  22    49  42  28    47  40  24    53  44  29    59  49  31    53  45  25    42  37  23    36  33  22    26  26  16    23  23  13    26  26  16    34  30  19    32  28  16    34  29  17    38  32  20    37  29  16    44  36  23    51  43  30    47  39  26    51  42  29    58  47  34    57  43  30    61  44  31    61  43  31    73  53  43    79  59  51    80  60  52    76  56  47    76  58  48    84  66  55    89  72  59  
  41  38  29    44  41  32    39  36  27    35  34  25    32  32  24    31  31  23    26  26  18    23  23  15    27  27  19    32  32  24    32  32  20    31  31  19    27  27  15    30  30  18    27  27  15    29  29  17    33  32  20    39  36  25    37  33  21    34  28  16    46  40  25    52  44  31    45  36  22    42  32  13    49  41  22    41  36  20    27  25  11    27  25  13    28  26  14    32  29  17    39  39  29    42  42  32    40  40  30    40  40  29    36  35  23    36  34  22    34  31  20    36  31  22    45  38  29    59  51  38    60  48  32    64  51  33    64  50  30    65  48  35    65  47  37    64  46  34    63  45  33    74  56  44    80  62  50    69  51  39  
  33  33  24    39  39  29    37  37  27    34  34  25    26  26  18    25  25  16    29  29  21    23  23  15    19  19  11    28  28  20    38  38  28    34  34  24    26  26  16    26  26  16    21  21  11    35  35  25    37  36  25    36  34  22    33  31  19    30  26  14    39  35  23    52  46  33    55  48  34    44  35  19    47  40  22    47  41  25    37  34  19    31  27  14    24  20   8    37  31  19    37  35  22    42  40  27    47  45  32    51  49  36    54  53  39    59  57  44    36  33  22    31  26  19    36  30  20    51  43  31    55  46  29    67  56  35    68  57  34    59  46  31    61  47  36    65  51  38    59  45  29    61  45  30    68  51  36    67  49  35  
  26  27  19    31  32  21    30  32  21    29  30  19    21  21  11    19  19   9    30  30  20    26  26  16    20  20  10    26  26  16    33  33  23    34  34  24    29  29  19    22  22  12    21  21  11    29  29  19    27  27  16    29  29  17    27  27  15    32  30  19    31  29  16    35  31  19    45  40  28    49  43  28    50  44  28    49  43  27    38  35  18    39  35  18    40  33  17    46  37  22    44  33  15    44  33  15    47  36  18    53  44  25    61  53  34    76  68  49    60  53  36    56  50  36    44  37  24    45  38  23    42  35  19    50  41  24    45  36  19    51  41  29    56  46  34    58  49  32    61  50  31    62  49  31    63  48  32    66  50  34  
  28  31  22    31  34  23    31  34  23    28  28  18    27  27  17    29  29  19    31  31  21    27  27  17    24  24  14    32  32  22    28  28  18    28  28  18    35  35  25    30  30  20    23  23  13    22  22  12    21  21  10    23  25  12    25  27  14    34  34  22    38  36  23    41  38  26    40  36  24    37  32  18    44  38  24    56  53  36    47  43  25    39  33  14    39  31  14    48  36  20    56  36  12    60  40  16    64  46  22    75  57  33    64  47  22    69  52  28    63  50  27    57  50  30    52  45  26    65  58  40    66  59  44    64  54  43    43  33  24    37  30  18    39  32  19    51  44  26    70  62  42    75  64  44    65  52  34    63  50  34  
  32  33  25    35  36  27    38  39  31    40  41  31    34  35  23    35  35  23    32  31  19    36  33  22    48  44  33    41  37  25    37  34  24    36  34  22    41  39  26    48  45  33    45  42  28    39  36  21    33  30  16    35  31  19    30  28  15    27  25  13    30  28  16    33  31  19    47  45  33    43  41  28    39  35  23    44  40  27    51  45  30    50  43  27    43  35  18    39  30  13    48  34  16    50  34  15    61  44  23    63  45  21    62  45  19    64  50  22    60  46  18    59  43  18    59  43  18    66  52  26    72  61  39    65  58  40    63  58  43    62  53  38    62  50  36    54  45  30    47  38  21    59  51  33    61  54  36    54  47  29  
  23  24  16    28  29  21    35  36  28    44  46  35    40  43  32    40  42  31    37  37  27    39  38  27    46  44  32    41  39  27    41  38  29    52  50  40    48  46  34    46  44  31    60  57  44    66  63  48    51  47  33    39  36  24    39  37  25    35  33  20    35  33  21    36  34  22    32  31  19    34  34  22    31  30  18    30  27  14    37  33  20    44  38  24    47  40  25    50  43  27    44  35  18    43  31  14    50  36  18    51  36  15    51  36  13    52  40  16    48  39  16    49  42  23    47  37  18    57  45  23    67  55  34    62  50  29    55  43  25    52  42  26    63  54  37    73  64  47    65  56  39    59  52  34    51  44  26    47  40  21  
  27  27  19    28  28  20    34  34  26    34  37  28    32  35  26    34  35  27    39  40  31    44  44  35    49  49  39    49  49  39    50  47  38    50  48  38    41  39  27    37  35  23    47  45  32    60  58  45    57  55  42    52  50  38    51  48  36    48  46  34    42  41  29    37  37  25    31  31  21    27  28  18    28  28  18    30  30  20    33  31  19    32  29  17    34  30  18    40  36  24    40  37  22    36  30  16    39  30  16    38  30  13    40  31  14    41  34  15    35  32  14    29  29  16    26  21   6    36  28   9    55  42  20    61  46  22    63  47  24    54  42  24    45  37  19    43  36  18    53  46  28    68  61  43    66  58  40    58  53  33  
  31  31  21    31  31  21    34  34  24    35  37  29    33  36  29    30  33  26    38  38  31    48  49  41    58  59  51    70  70  62    75  72  63    74  71  62    73  70  61    61  59  48    41  40  28    43  43  31    53  53  41    58  56  44    50  48  36    45  45  33    37  37  27    37  37  27    43  43  33    35  37  28    33  34  26    33  34  25    28  29  18    20  20  10    21  19  10    30  28  16    32  32  19    30  28  16    32  30  18    31  28  16    33  29  17    34  32  19    33  32  21    34  35  25    31  29  15    34  28  10    41  29  12    42  29  10    48  35  16    46  37  20    44  37  21    48  41  23    48  43  24    48  43  24    46  41  22    53  48  29  
  32  29  20    32  32  22    35  35  25    31  31  24    30  31  25    30  31  25    36  37  29    37  38  30    33  34  26    34  36  28    46  43  34    59  56  47    78  76  67    87  87  77    77  77  67    69  69  59    58  58  47    35  35  24    32  32  22    33  33  23    29  29  19    32  33  22    36  38  27    34  37  27    27  30  21    26  27  19    28  29  20    26  27  19    23  23  16    23  23  13    23  23  13    25  27  16    27  29  18    26  26  16    25  25  15    27  27  17    29  26  17    32  29  17    37  31  18    43  36  21    39  32  16    33  26  12    35  29  16    33  27  13    32  26  12    38  32  16    40  34  18    41  35  19    40  35  19    51  45  29  
  39  37  25    39  38  26    37  37  27    33  33  25    30  30  22    28  28  20    30  30  22    34  34  25    37  37  27    43  43  33    36  33  26    35  32  25    43  42  34    62  62  55    79  80  72    95  97  89    90  91  82    56  56  46    40  40  30    32  32  22    27  29  18    23  24  16    22  23  15    23  24  15    21  22  14    23  24  16    27  28  20    26  27  19    23  23  16    24  24  16    23  23  13    28  29  19    29  31  20    24  26  17    22  22  14    25  22  15    25  22  13    27  23  11    32  27  13    41  35  21    36  30  18    24  23  12    20  20  13    21  19   8    23  19   7    26  22  10    24  20   8    28  23  10    35  29  15    48  42  28  
  45  41  30    38  35  24    33  32  22    37  35  26    38  35  26    38  35  26    38  35  25    38  35  25    39  37  25    41  39  27    39  36  29    40  38  31    41  41  33    39  40  32    36  37  29    49  52  43    70  72  63    86  86  76    59  59  49    35  36  27    27  28  19    26  27  19    28  29  21    29  31  21    29  31  20    29  29  19    25  25  15    21  21  11    22  22  12    30  30  22    33  31  19    35  34  22    30  31  19    25  27  15    23  23  13    26  21  15    25  20  13    20  19   9    23  21  10    30  26  15    27  23  12    21  19  11    22  22  15    21  20  11    23  20  11    23  19  10    21  16   7    25  21  10    28  21  11    31  24  14  
  37  33  21    28  26  14    25  24  13    32  29  19    34  30  19    37  33  22    38  34  23    39  35  24    42  40  28    42  40  27    36  33  26    38  36  29    38  38  30    40  40  32    39  40  34    35  38  31    33  35  27    45  45  35    43  44  36    31  32  24    35  36  28    42  43  35    39  40  32    42  42  31    40  40  28    38  38  28    36  36  26    30  30  20    25  25  15    25  25  15    40  36  24    38  35  22    29  29  16    23  23  11    26  23  14    26  22  13    26  21  14    19  23  17    23  24  17    31  29  19    25  21  10    23  19   8    28  25  16    27  24  17    29  27  19    27  24  17    20  16   9    24  20  11    26  21  12    28  21  13  
  52  46  32    39  32  18    31  25   9    27  24  11    25  23  11    22  20   8    26  24  12    32  30  18    38  36  24    52  50  38    40  40  28    41  39  27    42  40  28    42  40  28    41  39  26    41  39  26    40  37  25    33  33  23    33  33  23    28  28  18    26  26  16    32  31  22    40  37  28    45  46  35    40  42  31    34  36  25    31  31  20    46  46  34    49  49  37    34  34  22    35  32  23    38  35  26    35  32  23    34  31  22    27  26  16    33  33  23    34  34  25    26  27  20    23  24  16    21  21  11    26  26  15    22  22  10    21  21   9    27  26  12    32  29  14    27  25  12    26  23  12    26  23  15    18  17   9    20  19  14  
  46  40  26    41  35  21    40  34  20    36  33  20    34  32  20    29  27  14    25  23  11    26  24  12    27  25  13    34  32  20    40  38  26    37  35  23    36  34  21    43  40  28    51  47  35    46  42  30    41  38  26    47  45  33    41  39  27    37  35  23    36  33  24    33  33  23    28  28  18    24  25  15    22  24  13    28  28  18    26  26  16    33  33  23    37  37  26    36  36  24    29  26  17    32  30  21    30  30  20    32  32  22    27  27  17    32  32  22    34  35  25    30  31  23    24  25  17    23  23  13    24  24  14    25  25  13    42  42  30    48  47  33    45  43  30    49  47  34    40  38  27    26  23  15    19  18  10    16  15  10  
