P3
50 50
255
  55  50  24    61  55  33    56  48  28    52  45  22    45  39  15    81  76  48    81  77  38    94  90  45    69  63  26    50  42  18    60  51  21    82  75  35   104  99  47   144 139  83   153 147  97   130 123  82   122 117  80   117 115  79   123 118  80   157 146 108   142 129  87   108  93  49   115 102  56   107  93  54    79  64  35    51  43  23    33  28  15    25  23  14    18  18   8    19  18   6    20  16   7    19  15   6    20  16   7    19  15   6    17  13   4    17  13   4    21  17   7    24  20   8    28  24  13    32  28  17    24  20  10    21  17   8    23  19  10    26  21  10    43  40  25    47  46  26    51  51  25    68  67  33    88  84  45    90  83  40  
  85  81  52   124 118  90    81  73  53    55  48  24    66  59  31    83  77  44    79  74  33    71  67  23    64  58  21    64  56  26    75  67  31    82  74  33    96  90  42   123 117  67   147 140  94   145 136  98   169 162 129   180 175 149   133 125  97    93  80  51    80  65  32    80  64  30    97  82  44    95  81  45    81  68  36    57  46  25    37  32  17    30  27  17    22  19  10    24  21  12    22  18   9    22  18   9    22  18   9    20  16   7    18  14   5    19  15   6    21  17   7    24  20   8    27  23  11    31  27  16    26  22  11    23  19  10    24  20  11    32  27  15    43  40  25    56  55  34    71  71  44    74  72  38    80  76  35    94  87  43  
  52  46  21    88  82  54    85  78  51    56  49  23    65  59  26    77  71  29    74  67  22    55  47   6    66  58  20    77  69  32    79  74  32    77  72  29    89  85  40   105 101  58   105 100  60   105 100  62   126 121  85   154 150 117   150 142 109   129 117  82   133 118  79   116 101  59    95  81  37    86  71  32    88  74  40    63  53  27    43  37  19    33  30  17    24  21  11    28  25  18    24  20   9    25  20  10    23  19   8    21  17   8    20  16   7    20  16   7    21  17   7    25  21   9    26  22  11    29  26  14    27  23  12    25  20  10    23  19   8    24  21   7    37  33  17    51  49  28    65  65  34    74  73  36    81  78  37    83  79  34  
  37  30  13    54  48  23   100  95  59    80  74  41    65  58  20   100  94  44    96  90  42    77  70  28    80  72  33    84  74  32    74  70  24    71  67  24    86  81  43   100  94  59    99  93  59   105  99  63   106 101  65    98  93  58   109 100  65   114 103  65   106  93  51   115 101  55   120 107  59    99  87  43   101  92  52    80  71  39    58  52  28    41  36  20    27  23  13    26  21  14    27  23  11    27  23  11    25  21  10    21  17   6    22  18   9    22  18   9    22  18   8    24  20   9    26  22  11    29  25  14    27  23  12    23  19   8    22  18   7    23  20   6    46  43  27    68  66  43    76  75  42    92  91  51   102 100  56    88  87  41  
  60  53  33    67  61  32    99  96  53    91  86  47    71  67  23   108 105  50    96  92  41    89  82  39    83  76  34    88  81  35    87  85  37    85  81  40    96  91  56    88  83  52    93  88  58    88  83  51    89  85  53    76  71  47    80  71  45    91  77  49    85  72  38    95  82  45   112 100  60   117 107  63   119 111  67    96  87  49    69  60  30    48  41  18    37  31  15    31  27  16    31  27  15    29  25  13    26  22  10    22  18   7    22  18   7    22  18   9    22  18   9    24  20   9    27  23  12    29  25  14    27  22  10    22  18   6    21  17   5    21  17   5    41  37  21    80  75  52   100  97  64   101 100  60    97  98  54    93  94  50  
  88  84  51    96  93  49   102  99  54   100  97  53   107 105  57   118 117  63    94  92  40    93  89  42    86  82  37    94  90  45    97  94  53    93  89  52   103  99  65    90  85  54    87  82  52    93  88  58   101  97  68    90  87  59    75  69  40    70  61  28    96  86  50    97  88  46   100  92  47   112 105  59   115 108  62    99  92  47    82  75  35    68  61  29    53  46  22    39  34  15    37  34  19    32  29  14    28  24  11    25  21   9    22  18   7    22  18   9    23  19   9    24  20   9    26  22  11    29  25  13    29  25  13    24  20   8    22  18   6    23  19   9    30  24  11    67  62  40    99  96  63   100 100  61    92  95  53    94 100  56  
 113 110  66   119 117  68   113 111  63   108 107  56   136 136  86   121 120  72    98  98  48   101 100  50    98  96  50    84  81  40    78  73  41    91  86  54   116 111  78   113 108  75   103  98  67   105  99  71   108 104  76    98  98  64    85  83  46    83  78  38   105 101  56   114 110  60   105 102  48    99  95  45   103  97  49   100  92  44    98  90  44    96  87  48    66  61  29    46  42  16    46  43  26    37  33  18    30  27  13    26  22  10    21  17   6    20  16   7    23  19  10    23  19   8    25  20  10    29  24  13    34  31  19    30  26  13    24  21   6    24  20  11    22  15   6    43  38  17    68  64  33    84  83  46    88  92  51    86  93  52  
 103 100  57   114 112  65   125 123  72   117 119  63   138 140  89   106 107  63    90  91  43   110 110  57   128 127  79    98  96  57    97  91  65   116 111  82   133 128  95   117 113  78   123 118  86   109 104  75   100  96  72    94  95  70    98  97  68   107 103  71   119 115  78   129 126  84   118 116  70   114 111  63   112 106  57    96  89  37    91  83  32   100  93  47    78  73  36    70  66  36    53  50  33    39  37  20    33  29  16    28  24  12    20  17   5    19  15   6    24  20  10    23  19   8    22  18   7    28  24  12    40  36  24    35  31  18    26  23   8    26  22  14    26  19  10    40  33  14    50  46  15    70  69  32    84  88  48    81  89  50  
  82  80  28   104 102  44   128 126  66   126 124  72   134 132  83   123 121  72    94  92  45    82  81  39    98  95  59   125 125  91   145 147 123   154 157 129   155 157 125   145 146 114   144 143 113   132 130 106   135 134 110   114 114  87   130 131 100   126 127  93   119 120  80   133 133  89   121 120  73    95  93  39   104 100  44    96  90  40    76  68  25    78  69  29    81  71  34    77  67  31    59  50  33    45  39  23    31  26  14    23  19  11    16  13   6    20  15   9    19  15   7    20  18   6    21  19   7    23  24   8    39  40  24    40  42  26    29  32  15    26  25   9    24  22   9    29  24  12    37  32  16    53  51  26    77  79  45    95 100  57  
  89  87  30    99  96  40   124 121  68   146 143  97   145 144  98   119 118  72    99  99  54    72  73  33    80  80  44   131 130  99   118 121  94    68  71  42    95  97  68   136 136 108   129 129 101   137 136 108   126 125  97   122 123  93   135 136 104   125 125  90   130 131  91   151 150 105   138 137  90   108 105  58    85  78  34    69  61  22    72  64  27    71  62  26    66  56  21    68  58  22    58  50  29    46  40  22    33  28  14    25  21  11    18  15   7    18  13   7    17  12   6    19  16   6    20  18   6    21  22   8    35  36  20    41  42  24    30  33  14    26  26  10    24  22   9    26  22  10    34  28  13    46  44  20    63  65  32    74  79  39  
 108 107  38   105 103  44   106 102  52   107 107  65   115 116  74   117 118  76   105 107  67   100 102  64   115 119  85   154 156 125   134 137 106    98 101  74    73  74  51    98  97  76    95  95  70   107 108  77   108 109  77   116 117  86   126 126  92   140 138 100   149 147 107   147 144 100   130 127  82    94  89  49    61  55  19    54  45  12    62  53  22    59  50  19    57  48  15    59  49  17    57  50  23    48  42  20    37  33  15    29  26  13    20  18   8    21  16   9    18  14   7    18  15   8    18  15   7    19  19   7    29  30  14    41  43  22    34  38  15    28  28  12    24  22   9    25  21  10    29  26  12    38  36  16    48  50  20    54  57  21  
 121 122  48    95  94  34    85  83  35    90  89  52    69  70  36    81  83  48    98 101  64   137 141 107   141 146 115   103 107  80   108 112  79   127 129 102   127 128 108   112 112  93    82  82  58   104 105  74   132 133 100   140 140 107   131 129  95   138 134  97   128 123  83   111 107  64   109 105  59    95  91  45    81  76  34    70  65  27    63  54  22    58  48  20    59  49  22    59  49  22    63  57  28    55  50  23    43  39  19    32  30  16    23  20  10    22  17  11    19  15   9    17  14   8    17  14   7    17  17   5    25  26  10    40  43  21    38  42  16    30  32  12    24  23   9    23  19   8    27  24  11    36  34  16    45  47  20    49  54  21  
  93  93  33    79  76  32    74  69  38    60  59  33    50  50  23    45  48  19    68  71  42   133 137 109   122 126 100    81  85  60    80  80  50    92  92  68   117 117  99    93  94  78    84  85  64   124 127  96   143 146 111   144 145 111   139 136 101   126 121  84   116 109  66   108 102  55   110 106  56   104 102  44    97  95  37    79  76  26    65  59  21    59  52  21    58  50  26    65  57  36    68  62  31    60  55  28    45  41  22    31  29  15    21  18   8    19  14   9    17  13   6    18  15   9    17  14   8    18  18   8    22  24   9    38  41  18    41  45  17    33  35  14    25  24   9    22  18   6    27  23  10    37  35  17    50  52  27    59  64  33  
  57  55  18    49  44  23    46  39  29    42  39  24    44  43  24    69  69  47    68  70  46    88  90  67    71  75  52    47  51  29    57  57  33    48  47  26    53  53  34    71  73  53   106 109  86   118 121  92   115 118  87   123 125  91   120 118  83   107  99  60   120 108  66   118 111  62   110 105  51   104 103  36   107 106  38    94  92  36    74  69  25    58  53  20    51  46  21    59  52  33    60  53  25    54  49  24    41  37  18    28  26  12    20  17   7    22  17   9    19  15   8    19  16   8    18  15   8    19  19  11    21  21   8    34  36  16    41  46  18    36  39  15    29  28   8    23  21   6    27  24   9    38  36  17    55  57  32    71  76  44  
  27  21  10    35  28  20    46  39  31    53  48  38    41  37  26    41  40  24    53  52  33    66  67  46    50  51  33    52  53  35    65  64  46    52  51  33    55  55  34    71  73  51    80  82  59   102 106  79   123 127  99    96  97  67    89  84  51    81  69  32    98  85  40   113 104  52   116 110  53   112 110  45   112 111  46   103 100  46    78  74  32    56  51  19    45  39  15    43  36  17    48  40  17    45  40  19    36  31  16    26  23  11    20  17   8    25  21  12    22  18   8    19  17   6    18  15   8    19  19  11    20  20   7    29  31  11    40  45  17    41  44  18    34  36  13    30  29   9    30  28  11    37  36  17    56  58  33    74  79  48  
  15   9   9    31  27  16    36  34  14    44  40  29    54  50  41    36  32  20    50  48  32    63  62  44    50  50  34    52  53  37    50  48  35    59  57  40    86  86  64   112 115  89   106 110  83    91  95  70    90  94  70    80  81  53    92  87  56    91  79  42    77  64  19    92  81  27    95  90  28    89  86  26    71  69  13    61  57  10    55  50  14    47  42  13    45  40  15    43  38  16    45  37  18    44  38  20    35  30  16    25  23  11    19  16   7    23  19  10    20  17   6    19  17   5    18  15   5    19  18  10    19  19   9    25  27   9    39  43  18    45  49  20    40  42  17    37  35  15    34  32  13    38  37  16    54  57  30    74  79  47  
  14  11   5    26  22  10    33  27  11    52  49  31    65  64  46    57  56  38    50  51  35    52  53  37    52  54  38    53  56  39    52  55  37    87  89  72   111 113  94    92  94  72    69  71  47    67  69  45    68  70  41    88  88  49   104 100  50   111 100  48    93  79  32    83  70  23    82  74  19    65  61  15    56  53  12    49  45   7    47  43   9    45  42  13    39  36  11    39  37  14    39  37  12    30  28   8    26  23   9    21  18   8    18  15   6    18  18   8    19  18   7    20  17   8    18  16   8    16  16   8    18  18  10    24  26  12    39  42  24    47  50  25    40  42  19    38  39  21    32  33  17    38  40  21    51  54  28    65  68  37  
  17  14   8    17  13   3    40  34  21    76  74  57    97  96  78    65  64  46    52  53  36    67  68  52    56  58  41    53  56  39    65  67  54    78  80  65    77  80  62    59  63  41    72  76  51    83  86  60    91  94  63    98  99  57    95  91  44   104  94  44   108  94  45   103  92  40    86  79  22    68  64  15    59  56  13    59  55  15    50  47  13    37  33   4    33  28   5    29  27   6    30  28   6    25  22   4    23  19   6    21  17   8    18  15   6    19  17   5    18  17   6    20  17   8    21  18  10    18  18  10    17  17   7    20  23   8    36  39  21    46  49  23    39  41  16    34  36  16    30  31  16    35  36  22    39  40  23    44  45  25  
  22  21  17    19  16   8    40  34  25    64  61  46    64  63  45    50  49  31    52  53  35    61  63  45    61  65  47    52  55  38    43  49  37    43  49  36    51  56  40    68  73  53    71  76  53    80  85  58    94  99  67   109 109  67    87  83  42    86  79  32   100  91  36   107  99  42    94  88  31    81  77  25    68  66  17    58  55  13    47  43   8    36  32   6    33  28   8    30  24   8    26  20   4    24  19   3    23  19   6    24  20   8    22  20   8    21  19   7    20  18   6    20  18   7    21  18   9    18  18   8    17  17   7    17  18   5    27  30  14    40  43  17    37  39  14    30  31  14    24  24  12    25  25  16    26  26  18    29  27  18  
  34  33  28    27  23  18    34  30  22    42  40  24    53  52  32    50  51  33    52  53  35    60  62  44    63  66  47    52  55  36    48  56  44    44  52  40    54  61  48    87  94  77    82  90  67    78  84  56    84  89  54   100 102  58    78  76  37    73  69  25    84  79  23    97  93  32    92  88  33    90  87  34    85  81  32    63  59  15    48  44  10    40  35  11    28  23   7    29  23  10    27  21   9    29  23   9    28  22   8    26  22   8    26  22  10    24  20   8    24  22  10    24  22  10    21  19   7    20  18   6    20  20   8    18  18   6    22  23  10    29  33  13    33  36  17    29  31  17    22  22  13    20  20  12    22  20  13    27  24  17  
  66  67  60    45  44  36    49  46  36    59  58  40    64  64  44    60  63  42    68  70  50    68  71  52    63  66  47    61  64  45    60  71  57    54  62  49    55  63  49    84  91  74   107 115  92    87  93  65    82  87  52    83  85  42    70  68  32    70  67  27    80  78  27    93  90  35    88  85  34    84  81  33    86  82  35    71  66  27    55  50  20    42  36  14    27  21   7    29  22  12    33  25  13    38  30  16    35  29  11    31  26   7    27  24   7    24  20   8    26  21  11    26  23  11    22  21   8    24  22  10    24  24  12    23  23  11    27  27  16    28  31  18    34  36  23    31  33  22    26  28  17    24  24  13    26  24  12    29  28  15  
  82  84  73    62  62  50    60  61  46    76  77  58    79  81  60    69  71  50    93  95  74    98 101  80    75  78  57    92  96  76    98 107  89    86  95  79    61  68  54    70  77  62   111 116  95    99 105  79    91  96  62    83  87  45    71  73  35    65  65  29    69  67  28    86  85  41    92  91  47    84  80  39    75  70  31    65  59  25    53  47  21    42  35  16    33  26  13    31  24  14    39  29  17    50  42  24    48  42  19    41  37  12    35  30  10    29  23   9    28  22  11    26  22  11    27  24  12    28  26  13    28  26  13    26  26  15    34  34  25    41  44  32    45  49  35    36  38  25    29  30  17    29  30  15    32  31  16    37  35  18  
  73  75  61    69  71  53    62  64  43    73  75  53    77  79  57    79  81  59    89  91  70    90  93  72    90  94  73    92  97  75   101 111  86   116 125 105   102 107  91   102 106  89   121 124 103   118 121  96   104 107  76    99 103  66    82  87  49    64  66  33    51  52  21    66  66  34    82  81  45    82  77  43    71  64  35    56  49  21    46  38  17    39  32  15    31  25  10    27  21   9    42  34  15    61  53  30    63  57  28    55  50  21    43  38  15    31  24  11    28  22  12    26  22  10    28  24  10    27  25  10    26  24  11    25  25  14    35  34  28    48  54  37    60  65  45    47  52  32    36  38  20    32  33  16    35  34  18    40  39  24  
  83  87  70    91  94  72    78  81  55    76  78  55    87  89  67    88  90  68    79  83  61    77  80  59    91  95  74   103 108  86   103 112  83   116 124 101   125 131 112   126 129 112   102 104  83    99 101  77   113 116  87   111 115  82    94  98  61    70  73  41    51  50  29    52  51  29    55  54  25    60  55  29    67  59  35    55  47  26    45  38  19    40  33  16    29  22   6    34  28  14    38  30   9    64  57  29    70  64  31    62  56  25    47  41  18    29  23  10    26  20  11    28  24  12    25  21   7    23  21   6    24  22   7    23  23  12    30  30  23    44  50  27    65  71  43    61  67  39    49  52  30    37  39  20    33  32  19    37  34  24  
  92  94  77    86  88  69    89  90  66    74  75  53    83  85  64    89  92  71    82  85  67    71  75  59    72  78  62    91  98  82   106 119  93   112 124  99   118 128 104   122 130 107   111 120  93    97 104  75   117 124  93    98 105  74    82  87  55    75  78  47    61  62  31    57  54  28    49  44  23    47  38  18    61  50  23    78  65  31    66  51  25    54  40  25    40  27  16    37  28  13    48  36  12    70  62  31    70  66  30    56  53  20    38  34  11    29  22  13    27  18  12    30  24   9    30  26  11    26  23   8    24  19   8    22  18   6    28  25  13    40  42  26    61  67  40    69  77  38    51  56  24    43  45  26    33  34  22    33  30  21  
  75  77  62    74  75  56    92  94  70    81  83  60    82  84  62    88  91  70    89  93  72    83  88  68    77  83  65    82  89  71    92 105  79   119 129 104   128 137 113   122 130 107   124 131 105   118 124  96   122 127  97   117 123  93    95 100  69    81  84  53    62  63  32    51  48  22    45  40  19    39  29  13    44  34  10    75  64  29    70  57  25    58  44  23    43  31  15    36  27  10    50  39  16    66  57  28    71  67  31    65  63  28    50  46  20    31  23  10    30  21  12    30  24   8    30  24  10    26  23   8    24  20   9    21  17   5    25  22  10    35  36  21    59  62  36    73  78  43    59  63  33    52  52  34    38  35  25    26  24  12  
  72  76  62    80  83  63    92  95  70    78  80  56    72  74  50    78  82  59    85  88  66    87  92  69    93  98  76   100 105  83    91 101  76   112 120  96   127 134 111   117 122  99   107 111  86    94  98  71    87  91  61   106 110  78    96  99  68    87  88  56    68  69  38    53  52  25    50  47  25    41  32  19    37  26   7    78  68  35    80  71  33    67  56  26    54  43  21    43  34  15    49  38  19    60  52  25    75  71  36    74  72  34    62  58  28    37  30  12    37  30  15    34  28  11    32  26  11    32  26  12    29  26  12    25  21   9    26  22  10    30  30  15    51  53  31    64  67  36    59  60  31    58  56  36    44  41  27    29  25  13  
  65  69  55   103 106  87   107 110  85    91  93  68    81  85  60    82  86  61    92  96  71   103 107  82   111 117  91   113 119  93    95 100  77    89  93  71    97 100  79    98 101  79   102 105  79   104 104  75    95  96  65    91  92  60    84  85  52    81  81  47    70  69  38    60  59  31    52  50  26    45  38  26    40  30  14    74  64  33    85  76  37    75  65  27    61  51  23    47  39  17    48  36  20    57  50  24    82  78  43    77  75  36    67  65  29    44  39  10    41  33  13    34  27   9    32  25   7    32  26   9    32  27  13    27  24  10    25  21   9    30  27  13    46  44  25    58  56  33    62  61  34    65  63  40    54  49  32    38  32  18  
  59  61  50    91  95  76   128 132 107   100 104  78    87  91  66    92  96  71    97 101  74    99 103  76   103 107  80   103 107  80    98 102  77    87  90  66    83  84  60    87  87  62   110 109  81   108 107  75   106 105  71   104 101  66    86  84  47    78  78  40    76  76  40    82  80  50    65  64  35    51  45  29    47  40  23    64  54  26    86  76  39    80  72  33    65  56  26    51  43  23    43  31  17    54  47  22    89  85  49    85  84  41    84  80  41    68  63  31    52  45  19    39  31  11    36  28   9    36  29  11    34  29  13    30  27  13    27  23  11    27  24  10    35  32  17    49  46  26    67  65  42    73  71  46    57  55  33    38  36  18  
  76  82  67    88  92  73   134 138 113   116 120  94   105 108  83    99 103  78    97 101  75   100 104  77   105 109  80   107 112  82   106 106  78    98  98  71    88  88  61    90  87  58   113 110  78   117 113  77   123 118  80   115 111  70   101  98  57    93  90  50    86  84  46    93  93  58    78  78  45    57  54  30    51  45  23    52  45  19    78  69  36    78  68  34    64  54  27    51  42  24    44  35  19    58  51  25    97  95  55   100  99  54   100  98  54    93  87  52    65  57  28    48  38  17    42  35  15    40  33  15    35  29  13    32  27  13    29  26  12    25  21   9    27  24  12    39  35  23    66  63  41    79  78  49    70  69  42    52  51  29  
  88  93  79   103 108  89   139 144 120   133 136 114   119 122 100    98 102  78    99 103  78   111 115  89   111 114  87   104 107  78   106 105  74   108 107  77   114 112  81   115 110  79   122 118  81   124 119  80   127 121  80   116 110  65   111 107  61   105 101  56    92  91  48    89  90  51    73  75  37    58  58  24    48  44  16    44  35  14    59  48  25    58  48  21    50  39  17    40  30  18    54  45  28    68  62  34    99  97  56   102 101  53    94  91  45    93  87  50    71  61  32    59  48  26    52  43  22    46  39  20    36  29  12    32  26  11    31  28  14    30  27  14    31  29  17    35  33  20    60  59  38    82  82  52    86  86  55    71  71  47  
 110 117 101   128 132 114   132 137 113   116 120  98   116 119  98   114 118  95   114 118  95   116 119  93   108 111  84   105 108  79   106 106  72   110 109  76   112 109  77   105 101  67   111 106  69   120 115  73   121 117  71   119 113  65   113 108  60   109 107  58   108 107  59   100 101  59    78  80  40    68  69  30    52  50  18    44  36  17    48  38  18    45  34  12    40  28   9    36  26  15    47  39  19    63  58  29    88  86  44    91  91  42    77  75  29    87  82  42    80  70  39    78  66  43    70  59  39    61  53  33    46  39  22    41  36  20    41  38  23    33  31  17    32  29  19    31  28  19    48  49  29    73  77  45    83  86  54    66  68  43  
 126 138 118   133 145 125   114 126 106   107 117  97   107 119  99   107 119  99   111 122  99   111 121  94   105 111  80    99 103  69    97  99  70    91  91  62    86  83  52    90  84  51    94  89  51   105 100  60   108 103  60   111 105  56   106 100  52   108 101  54   114 108  62   106 101  52    93  90  37    93  89  40    70  63  17    60  50  12    66  52  22    56  40  18    45  31  14    41  29  15    39  30  12    59  54  22    76  75  35    80  81  41    69  70  37    65  64  34    71  68  37    97  90  59    97  91  64    84  78  56    63  58  39    47  41  25    47  43  26    46  40  22    40  34  22    37  32  26    41  39  27    66  70  43    80  89  55    70  80  46  
 111 123 103   117 129 109   120 132 112   124 137 117   119 131 111   109 121 101    99 110  89    97 106  81   100 106  77    91  95  62    76  77  46    86  85  53    93  89  54    97  90  53    99  92  50   107 100  54   106 100  52   104  98  48    97  91  43    99  93  44   108 102  52   107 101  48   105 100  45    96  93  36    95  89  37    85  76  31    73  59  26    65  51  25    53  39  19    41  30  11    43  31  16    63  56  27    74  71  33    72  71  36    68  67  39    62  58  33    70  66  39   110 103  73   123 116  91   117 111  91    97  94  75    76  75  58    60  59  44    53  52  32    48  44  31    41  38  31    38  37  24    60  63  38    80  86  54    79  86  53  
 100 112  92   110 122 102   127 139 119   134 146 128   125 138 121   101 113  95    88 101  80    90 100  77    83  90  63    76  81  52    79  78  46    88  84  51    99  92  55   104  96  52   101  91  43   105  98  44   109 102  47    99  93  40    88  82  30    92  86  34   110 104  52   110 105  48   113 109  49   103  99  36    98  92  32    87  79  31    78  65  30    68  55  29    52  41  18    40  31  10    46  34  17    71  62  34    75  70  35    71  67  35    74  69  44    62  56  34    71  65  41   112 105  78   133 128 104   145 142 122   130 128 114    97 100  85    73  77  62    64  67  48    53  54  38    40  40  28    36  37  22    58  60  36    75  78  49    72  75  46  
 106 118  98   109 121 101   112 124 104   113 126 108   104 117 100    80  93  75    72  85  64    71  81  58    59  64  39    65  67  43    82  78  43    80  75  37    95  85  43   107  95  46   101  90  34   107  98  36   116 109  48    97  92  36    87  82  27    94  87  33   134 127  72   127 121  62   125 119  56   122 115  50    99  90  33    83  72  28    74  64  32    56  45  23    42  33  14    36  28   9    52  38  18    78  68  38    79  74  37    78  73  39    78  72  45    68  62  38    78  71  44   113 107  81   136 130 109   155 154 135   144 147 132   113 119 105    91 100  85    85  92  73    71  75  57    50  52  38    37  39  24    50  50  30    62  60  38    64  62  37  
  96 109  89    97 110  90    94 107  87    98 110  92    91 104  86    77  90  69    65  77  52    56  64  39    57  60  36    71  72  48    80  76  39    81  74  35    95  85  39   106  95  43   103  90  31   106  98  32   116 109  43   102  98  36   100  95  35    98  92  34   155 149  90   157 150  89   145 137  75   133 124  63   102  90  39    74  62  26    55  43  22    41  30  17    36  27  15    34  26  13    56  42  18    79  69  35    79  75  34    83  79  41    77  72  39    81  76  43    92  85  54   115 108  83   134 130 109   145 143 127   144 148 133   127 135 120   103 115  99    84  94  76    74  82  61    61  66  46    43  45  28    40  40  23    48  45  26    62  57  35  
  98 111  91   105 118  98   102 115  95   100 112  91    97 109  85    80  92  66    66  77  47    64  71  41    67  68  40    71  70  42    85  81  43    95  90  48   101  93  46   103  92  40   107  97  36   110 101  36   118 111  44   120 116  50   122 116  54   106 100  41   155 146  89   178 169 112   161 152  94   143 129  75   106  90  47    58  44  16    40  29  15    41  32  24    37  29  20    32  26  13    52  40  15    69  61  28    71  67  28    80  78  39    75  72  37    97  93  56   112 107  73   112 106  81   122 119  97   128 129 111   140 142 129   127 134 120   103 114  98    85  95  77    76  85  64    65  70  47    46  48  29    38  38  24    43  40  26    60  55  37  
 127 140 120   126 139 119   115 128 108   111 122  98   112 122  95    96 107  75    91  99  64   101 104  69   102 101  69   102  97  67   102 100  61   113 109  67   113 104  59   112 101  51   124 113  57   125 115  54   130 124  58   134 130  60   134 129  64   118 109  50   133 124  69   175 163 111   169 157 105   156 140  89   115 100  58    63  49  23    45  34  22    45  37  29    37  31  19    32  27   9    43  31  15    54  47  21    60  56  24    68  66  34    65  63  33    94  91  55   116 113  77   106 102  74   115 112  88   122 120 102   133 136 119   121 126 111   102 110  94    98 107  90    89  97  75    71  77  51    51  53  34    42  41  29    42  38  27    56  52  34  
 125 138 118   122 135 115   116 129 109   109 120  93   104 113  83   106 116  81   111 119  79   117 121  82   134 131  96   143 138 105   137 135  96   142 138  96   138 130  85   138 128  78   146 137  82   139 130  71   139 132  69   136 132  61   133 128  63   127 118  59   114 105  51   164 152 102   173 161 111   150 132  81   114  97  53    74  61  35    47  39  25    37  31  20    38  35  18    36  31  10    36  27  17    45  38  20    51  49  22    52  51  25    48  48  22    74  73  42   100 100  65    96  93  64   114 111  87   110 109  89   120 121 105   115 118 103    99 104  89    79  86  70    75  83  60    76  82  56    64  67  47    48  47  36    35  33  22    44  41  24  
  97 106  89   114 126 105   112 125 101    99 110  78    99 109  74   113 121  83   127 131  91   141 142 101   155 155 112   160 157 112   158 155 110   160 157 111   156 154 103   146 145  89   142 142  82   140 142  81   137 137  72   138 134  66   141 133  75   134 121  75   108  93  51   127 109  66   156 138  92   143 129  77   129 116  70    92  79  46    51  39  20    41  31  19    38  31  20    38  32  18    33  26   8    39  32  14    49  43  24    50  47  24    60  58  29    63  64  30    76  76  44    78  77  53    88  87  65    99  98  77   104 105  87   108 110  95    98 100  87    74  73  63    60  62  48    78  83  60    69  77  51    52  56  33    45  41  27    47  36  31  
  85  94  75    88  98  76    88 101  76    99 107  76   104 112  78   118 124  88   136 139  99   156 155 115   170 168 125   172 169 124   169 167 118   173 171 120   165 164 111   156 155 100   154 153  97   145 146  88   139 139  80   137 135  77   112 107  57    92  84  42    73  60  22    84  69  29   148 132  87   160 148  93   138 129  73   114 104  56    82  73  34    54  46  16    44  37  14    39  32  13    39  30  15    40  33  14    45  39  18    57  53  28    68  67  37    76  75  44    78  77  47    70  69  40    75  74  51    91  91  72    99 100  85    98  99  85   100 102  88    84  85  72    72  75  59    84  92  68    80  91  62    64  70  46    52  50  36    48  40  34  
  86  94  71    75  85  60    74  84  56    89  97  62   104 110  74   126 130  93   145 147 107   158 157 117   168 166 123   172 169 124   177 176 122   172 171 118   160 158 107   150 148  98   137 137  87   119 119  69   106 105  56    86  85  41    78  75  36    81  76  43    74  65  32    72  61  23   135 124  80   166 159 101   152 147  83   143 138  72   123 118  56    88  82  27    76  69  21    61  54  11    47  39  14    44  37  11    48  42  16    57  51  25    65  61  32    92  90  57    91  91  55    78  76  42    83  81  55    85  83  67    95  95  83    99 102  87    94  97  79    87  91  74    83  91  70    90 100  73    93 104  74    77  85  60    57  57  42    45  40  33  
  83  92  63    71  80  51    77  86  54    90  95  61    97 101  64   116 118  81   137 139  99   155 155 112   159 158 114   155 153 108   136 136  85   116 116  67    95  93  50    89  87  47    83  81  43    81  81  45    91  91  56    85  86  54    81  81  52    80  76  51    70  65  36    74  68  30   116 111  63   165 161  98   171 168  98   159 157  83   147 144  69   119 116  38   110 105  26   101  95  17    72  67  13    53  46   3    53  46  14    52  45  18    59  54  22   104 101  59   112 111  64    93  90  51    90  88  60    85  83  67    87  87  77    95  98  83    91  96  75    92  99  78    94 104  79    94 107  78    99 111  82    87  94  70    60  62  46    40  39  26  
  91  98  65    88  95  61    87  93  59   101 106  70   107 111  74   110 112  73   117 119  78   123 124  81   123 125  79   124 123  77   105 106  62    90  92  51    75  77  42    75  75  46    73  73  47    79  79  53    96  97  70    96  99  73    88  90  66    75  75  51    72  71  40    88  86  44   102 102  48   141 141  72   170 170  98   169 167  93   166 163  86   148 145  57   134 131  31   135 133  22   104 102  14    71  66   2    58  49   9    54  44  17    64  58  23   102  99  47   130 129  70   113 110  67   114 110  80   111 108  90    99  99  87   108 111  95   105 112  90    95 104  80    94 104  79    92 105  76   102 112  83    97 104  78    73  76  56    50  51  35  
  91  97  63    92  97  63    95  99  65   100 104  66   105 110  70   108 113  72   105 110  69   104 108  64   106 109  62   113 116  69   115 121  80   107 113  77    90  95  64    80  84  58    80  84  59    82  86  61    88  93  66    90  94  67    78  81  54    66  69  40    81  84  45    96 100  47    98 102  39   117 118  48   168 165  94   182 179 110   174 169  94   164 160  72   151 148  43   146 146  27   121 120  12    95  90   7    68  59   9    58  48  16    65  57  22    86  81  27   134 132  73   130 125  80   125 120  85   121 119  95   107 108  92   114 118 100   106 112  93    96 105  82    95 105  80    94 104  77    98 106  77    99 104  78    80  84  60    56  58  36  
  94  98  65    92  95  63    95  96  63   108 113  74   108 115  73   102 109  67   104 112  67   107 115  68   102 110  61    99 107  58   100 111  68   107 118  78   104 113  80    97 106  75    95 105  71    87  99  61    79  89  51    80  86  52    69  75  41    77  81  44   100 106  59   105 111  49   101 109  35   115 116  44   157 154  83   181 177 106   171 167  91   165 161  76   158 155  60   149 147  46   128 126  15   115 110  20    85  76  17    65  54  16    63  52  19    69  61  21   117 111  65   137 131  87   123 118  80   125 124  93   114 116  94   115 119 101   114 121 105   108 116  97   101 111  88   100 108  83    93  99  70    96 100  71    82  86  57    57  60  31  
  99 103  70    93  94  62   101 102  69   109 114  75   103 110  68    92  99  57    93 103  57   100 109  62    96 106  57    94 104  54    83  97  49    92 104  61   101 113  74   104 118  79   107 122  81   103 119  72    99 112  66   102 108  70    84  90  52    94  99  59   108 114  62   105 111  45   103 112  33   105 105  32   120 116  46   162 158  84   182 180  99   174 170  88   160 155  74   151 146  65   140 136  30   125 119  31    98  89  25    75  64  21    68  57  26    64  53  25    79  71  38   109 102  59   124 119  80   129 128  94   115 118  92   118 122 103   116 123 109   105 113  96    97 105  85   101 106  82    93  97  69   103 106  76    97 100  69    76  80  49  
  89  90  56   107 109  70   116 117  83   100 104  66    96 104  62   105 114  71    92 104  58    86  99  52    90 106  57    85 101  52    79  94  52    73  87  44    72  81  43    87  94  61   112 120  83   122 132  78   120 133  64   119 126  62   114 124  67   115 126  70   120 130  69   104 109  46   104 104  45   111 102  49    95  84  30   140 127  72   192 182 123   182 172 112   177 170 110   160 155  96   147 144  51   133 129  43   110 106  33    82  77  19    70  65  21    68  62  29    66  59  31    87  80  49   112 107  67   124 120  82   126 126  99   114 120 104   110 123 106    98 111  92    91 105  80    90 100  72    89  99  64    93 101  63    97 107  66    87  98  56  
  69  74  38    94  99  59   114 118  80    99 105  66   110 117  76   115 123  82    99 109  66    89 100  57    91 103  58    94 108  62    93 103  65    82  89  48    82  87  49    87  91  58    97 102  63   113 120  65   123 134  65   121 132  63   120 131  69   124 137  77   121 133  69   100 107  46    85  84  33    72  63  29    60  46  17    86  73  39   158 144 105   191 180 132   179 171 118   173 168 110   159 154  72   132 129  51   112 108  39    96  91  36    75  70  29    59  52  21    59  52  27    77  70  42    97  91  55   120 117  81   129 129 105   120 126 109   107 120 102    89 104  82    85  98  72    78  87  58    74  81  45    79  86  45    89  97  53    82  91  46  
