P3
50 50
255
 153 137   1   171 153  19   177 157  34   165 145  24   163 143  18   178 160  33   192 173  53   193 172  60   195 172  60   202 177  74   204 178  81   195 170  70   189 167  56   194 173  58   198 176  64   195 173  64   197 176  62   198 175  64   197 175  63   196 172  62   195 171  61   192 169  57   189 166  52   185 162  46   184 159  43   190 166  50   189 165  49   189 164  49   192 167  51   183 157  44   176 150  37   182 156  43   184 160  36   179 155  30   179 154  28   185 160  34   192 167  41   190 164  42   185 159  40   184 157  40   188 161  44   192 165  48   189 164  45   194 168  47   204 179  56   199 174  48   183 158  32   175 150  23   168 152  16   164 146  10  
 154 137   1   166 147  16   173 154  27   172 153  26   175 156  28   184 165  39   189 167  50   188 165  55   194 173  61   202 179  75   205 182  83   201 177  78   198 177  72   202 183  73   206 186  78   205 184  80   203 181  72   205 183  75   204 182  75   203 179  74   204 180  73   204 180  71   196 173  61   184 161  48   186 162  47   188 165  50   189 166  51   187 164  49   186 163  47   183 160  45   178 155  40   175 152  36   176 152  31   177 153  32   171 147  24   177 152  30   193 168  46   195 168  50   184 157  41   182 155  42   189 165  49   189 165  47   187 163  45   192 168  49   200 176  55   198 175  52   186 163  39   179 155  30   177 158  28   166 147  14  
 145 126   3   147 128   5   160 141  17   178 159  32   188 169  42   187 167  46   186 164  51   188 166  59   190 171  59   194 175  68   200 180  78   205 184  85   208 187  87   207 188  86   211 192  91   216 198  98   211 187  85   211 187  85   206 183  82   202 179  78   204 179  78   206 181  77   198 174  66   186 163  53   189 165  55   193 170  60   199 176  65   198 175  64   193 169  58   193 169  58   194 171  60   191 167  56   188 164  49   190 166  50   180 156  39   181 156  38   197 172  54   202 175  60   191 165  53   186 159  49   188 166  50   188 166  50   192 170  52   196 175  57   197 176  57   196 174  55   192 170  50   188 167  46   190 169  46   181 159  30  
 132 115   2   141 123   5   150 133  11   157 141  16   166 150  24   176 157  36   180 160  43   178 159  43   176 158  46   188 170  59   200 181  75   208 189  87   214 194  95   214 194  97   215 195  98   217 199 100   221 197  96   217 193  93   210 186  86   205 181  81   203 179  79   201 177  75   198 174  68   194 170  64   197 172  72   198 173  73   200 175  72   203 179  76   207 182  79   205 180  77   200 175  73   198 174  70   197 174  64   196 173  61   191 168  55   186 163  49   192 169  56   201 177  65   200 174  66   193 167  59   194 173  58   193 172  57   196 175  60   200 179  63   199 178  62   198 177  60   198 177  61   198 177  61   197 174  58   189 167  45  
  91  74   1   102  86   1   109  92   1   107  92   1   113  94   2   124 105   7   132 114  12   130 113   8   142 122   9   175 155  41   197 177  65   201 180  73   210 189  88   219 199 101   217 198  96   209 190  85   205 184  75   204 181  76   204 181  77   206 183  81   204 181  79   201 178  76   200 177  73   203 180  74   204 178  82   203 177  81   202 176  78   207 181  83   213 187  89   209 184  84   203 178  78   205 180  80   204 181  75   199 177  67   192 170  59   180 158  46   177 154  42   191 167  57   204 179  72   202 178  72   204 182  70   195 173  61   188 166  54   193 171  58   201 179  67   204 182  71   203 181  69   201 179  67   202 179  68   190 167  52  
  79  62   6    78  63   2    81  64   1    84  66   1    86  67   1    93  75   1   109  92   4   123 108   8   135 114   1   175 153  36   196 175  56   195 173  61   201 180  75   212 189  87   208 187  79   198 178  64   192 172  57   195 175  62   201 179  68   204 181  75   203 180  76   199 176  72   196 173  69   194 171  65   197 172  71   198 173  71   200 176  74   200 175  71   193 169  65   192 168  61   196 172  66   198 174  67   202 180  73   202 180  72   196 174  63   184 162  50   179 156  44   186 165  53   198 174  66   201 177  69   192 169  57   181 157  47   171 147  37   179 155  45   200 176  68   207 182  75   199 175  69   197 172  67   198 177  70   194 172  64  
  85  71   3    87  73   1    91  76   2    95  79   4    98  81   5   105  89   3   119 104   3   131 117   5   150 125  11   181 158  38   200 177  56   198 177  59   204 182  70   207 185  78   208 188  77   208 187  72   199 179  64   203 183  69   206 185  75   206 184  76   204 180  76   203 180  74   198 175  69   192 169  63   199 176  70   198 175  69   199 176  70   192 170  62   183 160  51   185 163  52   188 165  55   180 158  44   181 161  53   189 169  56   186 165  51   179 157  47   177 155  45   175 154  41   174 155  41   175 155  45   168 143  34   167 143  32   168 143  32   177 151  41   192 167  56   197 173  64   195 170  61   193 168  62   187 168  59   194 172  66  
 100  86   1   105  90   2   107  92   3   108  91   1   111  93   1   119 101   2   131 112   9   138 120  13   144 117   6   167 141  26   194 171  52   195 173  52   200 180  61   203 183  69   211 191  83   211 191  88   210 189  87   211 190  87   214 191  89   210 187  84   203 180  77   201 178  74   198 175  71   196 173  67   198 176  77   201 180  80   204 181  80   198 176  71   191 169  61   190 168  57   187 165  52   178 157  42   165 148  36   163 145  27   147 127  10   138 114   9   134 110   7   133 111   2   134 116   6   127 109   6   134 112  10   142 120  16   152 130  25   157 135  26   154 133  21   161 141  24   178 159  37   184 165  42   185 162  46   183 160  46  
 109  96   1   121 107   8   122 107   7   115 100   1   121 103   1   130 112   5   133 115   5   132 115   2   128 103   4   137 113   7   167 146  28   188 168  44   200 180  55   201 180  62   207 186  76   208 185  83   206 185  75   207 187  77   206 184  75   199 176  69   194 172  65   198 175  70   199 176  70   194 171  65   192 173  71   196 177  75   205 185  81   206 187  79   196 178  67   190 171  59   189 171  57   189 171  57   178 160  39   162 142  20   151 130  10   144 120   7   128 105   1   130 107   1   136 115  12   119 100   1   122 102   6   123 103   3   119  99   1   134 113   5   141 119   6   141 119   1   162 141  16   176 153  27   176 153  28   176 155  31  
 131 118   5   138 125  13   138 122  10   133 117   5   141 124  11   147 130  15   144 127   9   143 124   6   138 118  16   138 117   9   144 125   7   176 158  34   203 184  56   199 178  53   200 178  59   202 179  65   204 185  67   200 180  63   198 177  63   196 174  62   191 169  58   198 176  67   200 178  69   182 159  53   189 168  62   195 174  68   202 181  76   205 184  81   203 182  79   203 181  79   199 177  77   189 169  69   182 161  44   167 147  22   164 144  23   151 127  25   123 101   1   127 108   1   139 122   2   125 107   1   106  90   1   112  96   1   109  92   1   119 101   1   133 114   1   138 117   1   154 131  14   169 143  29   167 145  22   173 151  31  
 146 132  10   150 135  13   144 130   7   140 124   3   149 133  12   159 142  21   155 136  16   145 126   6   144 127   9   141 124   6   144 127   9   156 137  17   180 160  40   200 180  55   194 173  45   191 171  38   187 168  47   177 158  38   184 163  44   195 174  57   181 159  47   177 155  44   193 172  61   192 170  61   187 160  53   191 164  57   195 171  62   193 169  60   186 162  55   184 160  53   180 158  50   174 151  43   154 133  26   142 123  12   126 106  11   101  80   8    88  69   1   105  88   1   117 104   4   108  94   1    94  82   4   102  86   8   107  91   8   108  91   1   125 106   6   141 121  12   148 128  11   167 145  26   172 151  34   176 155  39  
 155 139  14   160 144  19   157 141  14   149 133   5   154 136  11   167 148  27   162 143  24   143 123   5   147 131   8   145 128   8   140 122   7   145 125  13   150 130  16   170 150  32   176 157  32   168 150  21   163 144  23   160 141  22   159 139  20   168 147  29   163 142  27   161 139  26   178 156  44   182 160  49   159 134  23   160 135  24   165 143  31   171 150  36   171 150  36   168 148  32   164 145  28   158 139  22   129 114   7   113  98   1    95  81   1    78  64   1    70  59   1    72  61   1    75  65   1    84  74   1    86  78   1    91  81   1   105  95   2   110 100   2   121 109   4   129 116   8   126 111   4   141 124  20   162 146  34   174 158  45  
 164 146  20   167 149  22   171 153  25   168 150  22   165 147  21   172 153  32   168 149  31   149 129  15   144 125  12   153 134  21   148 128  17   147 126  18   144 125  16   155 135  27   146 127  18   133 114   6   138 119   2   146 127   9   137 116   4   145 124   8   160 139  24   156 135  20   157 135  22   158 137  23   153 137  18   150 134  17   145 130  16   136 120  12   129 113  11   125 110  12   116 101   8   103  87   1    94  77   7    88  74   1    80  70   1    68  60   2    61  56   2    58  53   1    52  47   1    60  52   8    72  62   1    78  68   1    87  79   2    94  85   4   101  91   5   104  91   7    98  86   4   102  87   9   121 106  14   138 124  26  
 175 158  36   179 160  37   183 164  38   189 169  42   180 160  34   165 146  23   162 143  23   158 139  20   131 115   4   139 121  10   141 122  12   144 123  16   146 126  20   145 126  21   129 114   8   120 106   1   121 106   1   119 103   2   115  99   1   122 104   9   121 104  12   106  91   4   106  91   2   117 104   7   131 116  10   132 117   9   129 117   6   121 109   3   113 102   1   106  94   1    95  81   2    82  69   1    73  64   9    66  57   1    60  53   1    55  49   1    54  48   2    56  50   1    52  48   1    50  45   4    53  47   1    54  47   1    53  46   1    55  48   3    60  52   3    65  56   4    67  59   4    69  60   4    68  59   6    70  63   3  
 182 167  45   185 169  41   183 165  34   181 163  30   176 158  24   169 153  19   169 151  27   157 139  26   129 117   7   126 114   6   124 110   4   125 106   6   127 109   8   127 113  13   128 116  15   126 117  13   122 109  16   115 100  14   101  87  10    87  72   3    73  58   1    68  53   1    71  58   1    79  66   8    86  68   1    90  73   1    95  82   1    98  88   1   100  89   4    95  86   7    85  75   5    75  65   3    61  55   3    55  49   1    51  45   1    50  46   1    50  45   3    50  47   4    51  48   3    49  46   1    52  49   4    51  47   3    49  45   3    49  46   3    50  45   3    50  46   1    51  47   1    51  48   1    54  49   7    51  47   2  
 175 163  31   171 159  22   162 148  15   156 138  14   156 139   9   163 150   9   151 138   9   118 101   1    79  64   8    73  57   5    71  53   5    67  48   6    62  44   3    64  47   5    68  54  12    67  55  11    73  62   1    75  64   4    72  59   5    61  49   2    57  44   2    57  45   5    57  45   4    53  41   1    61  47   4    62  50   5    63  52   3    62  53   1    61  52   1    56  50   1    52  44   1    47  41   1    44  40   1    41  37   1    42  39   1    44  40   3    42  39   1    42  40   2    44  42   2    42  43   2    45  44   1    44  43   1    43  41   1    42  40   1    44  43   1    47  44   1    48  46   1    48  46   1    49  44   2    49  44   2  
 181 169  45   169 157  23   158 145  11   147 133   7   145 131   1   151 140   1   135 123   5    99  80   2    64  53   1    58  47   1    59  46   2    56  43   5    44  33   1    44  32   1    46  37   3    44  36   1    47  39   1    46  38   1    48  40   1    52  43   3    55  47   6    55  46   3    53  45   1    52  45   1    48  41   1    49  41   1    49  41   1    47  41   2    45  40   1    44  39   1    43  39   1    42  38   2    41  37   1    38  34   1    39  35   1    39  35   4    37  34   2    36  35   1    37  36   1    34  34   1    35  34   1    35  34   1    35  34   1    37  35   1    40  37   2    43  40   3    45  42   4    44  42   3    44  39   3    44  39   3  
 192 177  55   165 152  19   151 136   5   145 129   4   144 129   1   142 128   1   119 103   1    87  67   1    69  57   2    60  49   1    56  46   3    49  40   5    38  31   1    39  31   1    43  37   5    41  35   2    45  36   3    43  34   1    43  35   1    47  38   4    51  41   7    50  41   3    50  40   2    49  39   1    48  39   4    48  39   3    49  39   5    48  40   5    48  39   5    46  39   4    44  38   3    44  38   3    43  36   4    40  33   2    39  32   2    38  30   2    35  29   1    36  31   1    36  32   1    31  29   1    35  29   4    37  31   6    37  31   3    37  32   2    40  33   4    43  36   6    44  37   6    41  34   4    43  36   1    41  35   1  
 208 190  65   192 175  39   183 167  22   169 153  10   153 135   1   136 119   1   110  91   1    89  69   1    73  58   4    64  50   3    54  43   3    45  36   5    38  30   6    37  29   4    38  30   3    37  29   1    40  30   3    41  30   2    40  30   1    41  29   1    44  32   2    48  34   1    51  36   4    52  36   3    54  40  11    50  37   7    49  36   3    49  36   1    49  36   1    47  34   1    47  34   1    48  35   3    47  35   1    47  33   1    45  33   2    43  30   3    37  27   1    38  28   1    39  30   1    36  27   1    39  27   1    42  30   4    43  32   1    43  32   1    46  34   1    49  38   5    49  36   5    46  33   2    46  38   2    43  35   4  
 207 188  59   200 183  41   194 178  22   177 162   3   164 148   2   151 132  12   121 101   6   100  79   1    68  52   1    61  45   1    48  35   1    40  29   1    39  29   4    39  28   6    38  26   2    38  26   1    37  24   7    39  26   7    45  32   5    52  37   4    56  43   4    61  46   3    67  51   4    72  56   7    70  53  11    67  51   6    65  49   1    65  49   1    62  46   1    57  39   2    52  34   4    52  32   7    56  41   3    58  42   6    61  45  12    56  41  12    49  33   7    48  32   7    48  34   8    46  32   5    50  35   4    54  39   7    56  42   5    56  41   1    57  42   2    60  45   5    57  42   4    52  37   1    47  36   6    47  36   6  
 175 160   2   182 167   3   176 158   1   166 150   1   156 138   1   138 119   1   116  94   7    89  65   1    62  48   1    53  37   1    50  34   7    45  30   6    46  33   5    53  36   8    55  36   4    59  38   8    56  34  18    61  45   1    70  52   7    72  54   7    78  61   2    84  67  11    88  70   5    82  64   2    74  58   3    71  55   3    70  53   4    73  55   3    80  60   5    80  59   3    75  52   2    76  52   9    80  53   8    80  53   6    83  56   7    80  57   6    76  52   3    74  52   4    76  53   8    72  51   8    81  56   7    83  59  10    78  54   6    76  52   4    81  56   9    79  55   9    73  49   3    72  47   2    69  52   1    64  45   6  
 149 125  14   145 118   7   141 116   1   147 123   1   150 128   1   142 121   5   119  99   3    94  73   1    85  68   1    74  58   1    67  51   6    61  46   2    66  52   2    79  64   6    82  64  11    81  60  13    75  55   6    97  80   1   100  81  13    91  71   7    91  72   1    96  75   8    97  78   2    96  75   1    93  71   2    89  67   3    86  62   6    87  63   7    93  70   7    98  74   6    97  73   4   100  76   7   110  82   8   112  86  12   109  84  11   103  77   7    95  70   5    90  64   6    89  62   9    88  62  12   103  75   9   109  82  14   106  79   7   101  75   1   105  79   4   106  79   5    99  73   2    96  68   1    99  71   1    93  65   2  
 145 117   6   138 110   2   147 119   2   155 129   3   152 128   1   141 119   1   121 100   2   108  87   1   102  84   1    97  79   6    89  70  11    82  64   2    91  75   3   101  86   6    94  76   8    86  65  12   106  84  10   124 107   4   120  99   9   119  96  12   122 100   8   131 108  15   140 119  13   141 121  13   139 113  10   129 102   7   119  91   5   123  96  10   129 103   9   129 104   6   133 109   8   141 117  16   147 121  17   150 124  22   148 122  24   139 112  19   125  97  12   116  87   9   111  81   8   107  77   7   123  88   5   133 100  11   136 103   7   133 102   1   136 105   1   136 104   3   130  98   1   128  95   2   132  96   1   128  91   2  
 172 146   3   160 134   1   169 142   1   175 149   4   169 144   1   152 130   1   129 108   1   119  97   2   116  97   1   109  88   2    98  76   3   104  85   4   126 108  15   117 102   7    91  74   1    92  71  15   128 105  16   147 128  10   130 108   3   139 116  14   155 133  21   168 146  31   176 156  28   179 159  29   171 144  17   165 137  15   155 127   8   161 135  15   170 145  23   172 148  26   179 155  40   185 159  50   175 149  33   174 149  34   179 152  41   174 146  40   157 128  25   151 121  24   149 117  22   137 106  12   143 105  10   151 114  14   156 120  12   157 122   8   157 122   4   149 114   1   143 107   1   145 110   2   146 112   1   141 106   1  
 205 181   1   201 176   1   204 180   1   202 180   1   188 168   1   166 148   1   146 128   1   144 124   7   137 121   1   134 114   4   118  96   1   121 100   1   145 127  16   132 118  11    93  77   1    85  66   2   122 103   2   165 150  20   143 124   5   152 132  17   177 157  36   188 166  49   185 165  42   188 168  45   195 170  48   200 174  55   186 162  39   179 155  31   185 161  35   196 171  52   211 184  78   209 181  85   197 174  60   193 170  58   198 173  63   196 169  62   184 156  49   183 155  49   184 153  47   169 138  33   158 123  21   164 128  25   172 137  29   182 148  35   182 149  34   167 134  19   152 119   4   151 117   3   147 115   2   139 107   1  
 194 165   3   195 167   4   191 164   1   197 170   3   198 175   8   181 161   2   160 141   1   149 130   3   139 121   1   143 124   7   137 117   2   131 111   1   143 126  13   134 118  17   102  86   7    87  72   8   116  97   6   166 153  29   156 141  23   175 159  41   191 175  53   200 180  67   200 181  65   195 174  65   203 186  70   218 200  88   211 191  80   200 181  68   194 173  56   193 172  55   203 181  71   202 178  76   192 172  60   195 174  65   196 173  70   196 171  71   198 173  74   203 175  76   198 169  70   188 159  60   175 144  34   176 144  35   177 145  38   190 157  50   200 169  60   192 160  49   174 144  28   166 136  18   154 122  11   148 116   7  
 194 167   1   193 167   2   188 161   1   193 168   1   200 178  10   183 163   5   153 134   1   135 114   1   127 107   1   129 109   1   137 119   1   133 115   3   124 106   8   109  92   8    89  72   4    86  70  13   115  95  20   149 133  27   152 136  27   180 163  52   187 170  52   191 173  59   196 177  61   186 166  54   195 180  64   210 194  82   207 188  82   203 183  75   195 175  60   187 166  48   198 177  61   204 183  70   196 176  69   200 180  76   200 177  76   197 173  76   204 178  84   209 182  90   202 173  82   194 163  74   183 155  41   175 146  35   165 136  27   173 142  38   187 157  53   189 159  54   181 152  41   171 143  28   160 127  20   159 126  19  
 184 163   1   178 157   1   183 159   3   180 157   1   186 164   5   184 166   5   160 143   1   150 129   6   146 119   4   144 121   2   146 128   4   127 109   5   110  92   8   104  85  13    90  69   5    90  68   9   104  80  11   116  95  13   131 109  14   152 131  30   163 141  37   157 135  27   156 133  21   154 131  16   170 151  28   185 163  46   188 164  52   190 163  51   193 167  52   192 168  53   196 173  64   198 175  73   205 181  83   194 170  70   188 164  62   175 149  50   172 145  50   190 160  69   196 166  74   190 159  66   185 152  51   186 153  48   182 150  41   186 153  47   193 160  60   199 165  70   201 167  70   190 156  56   187 154  49   190 157  52  
 181 164   2   177 159   1   174 153   1   165 139   1   170 145   6   177 155   6   168 149   1   170 149   6   166 143   2   153 130   7   128 105   5   107  86   2   105  86   9   102  82  14    90  68  10    88  65  13    79  56  11    85  63   7   107  87  12   133 113  23   133 112  14   126 103   3   137 113   2   145 123   4   156 135  15   163 138  21   166 139  22   168 140  19   175 148  22   181 156  32   181 156  40   182 156  49   196 172  71   192 168  60   178 153  43   157 130  30   145 114  27   148 115  34   159 126  36   160 129  29   159 125  36   168 135  39   174 142  36   174 142  34   179 147  44   189 156  59   202 169  73   215 182  86   210 177  72   204 172  68  
 164 147   3   165 150   1   175 157   1   177 157   2   178 157   4   177 155   5   159 138   1   147 125   1   130 117   1   120 105   6    97  84   1    93  82   1    93  86   1    82  73   1    72  59   6    67  53   8    67  48  17    64  44   9    72  51   4    89  69   6   102  79   6   114  90  11   133 110  15   143 121  11   141 116  14   141 114  10   144 116   7   146 117   1   153 124   1   160 132   6   152 124   6   149 121  11   158 133  30   170 144  38   161 134  30   147 116  25   129  96  18   120  83  11   129  94  12   138 104  13   135  99  24   132  97  14   135 102  10   135 103   8   133  99   9   131  98   9   149 115  26   191 157  67   200 168  65   198 168  65  
 143 129   1   168 157   1   194 185   1   186 173   2   164 146   1   159 143   1   157 140   1   144 126   1   126 112   6   114 100   3    99  89   1   101  96   1    93  89   1    75  67   1    73  61   7    70  58   7    62  46   9    58  39  11    55  34   3    60  38   1    71  48   5    85  59  13   102  77  13   121 100  11   132 109  14   125  99   6   137 109  12   150 122  17   156 126  16   150 120   9   134 105   4   133 103   9   123  98   1   126 100   6   117  87   2   116  84   7   116  82  11   111  74   6   113  76   9   117  80  11   121  88  16   121  87  13   122  88  14   115  81   9   113  79   9   115  81  10   128  96  13   160 129  38   170 142  39   189 160  58  
 144 132   1   146 134   1   152 138   7   146 129   3   128 110   1   122 102   1   129 113  10   134 120  10   136 119   6   126 110   1   113 101   1   112  99   2    98  85   4    84  69   2    83  66   6    83  65   5    70  57   8    62  47  12    65  47  14    69  51   9    64  45   6    54  32   3    62  40   1    93  76   7   108  86   9    98  74   1   104  78   1   125  98  13   135 109  14   132 106   4   125 101   1   127 102   4   119  94   7   116  89   5   112  84   2   117  86   9   119  87  15   112  77  11   107  71  10   110  75  17   113  79   8   114  80   8   113  78   8   110  75   9   112  76  12   117  82  15   130  97  18   148 117  28   168 139  38   186 159  57  
 137 126   1   126 112   6   117 100   2   119 104   1   114  98   3    92  74   1    84  69   2    96  85   7   113  96   2   116 102   4   109  97   3    97  86   5    91  80  10    87  75   7    87  74   7    92  77  16    85  71  19    65  49   8    68  54   8    82  69   7    77  63   7    60  43   9    59  42   7    80  66  10   103  88  11   100  82  11    95  73   6   103  78   6   115  92   6   127 106   9   132 113  10   119 100   1   113  87  11   112  87   3   124 100   7   129 102  14   122  93  17   110  78  13   103  70   9   112  78  17   121  87  16   124  90  15   123  90  10   126  93  14   123  89  14   121  88  13   132  99  19   138 106  20   159 131  31   182 156  55  
  73  60   1    74  62   2    73  60   1    80  65   1    89  71  12    87  68  16    82  62  11    84  66   7    98  81   3   116 100  16   122 109  19   112 101  12   111  99  15   115 102  23   107  95  24    96  82  20    71  57  20    63  49  11    70  56  10    87  73  12    94  79  11    86  69   9    78  58   7    77  56   8   108  85   4   123 100  18   122  99  15   115  91   5   126 102   7   143 120  18   149 126  19   139 118  11   137 108   6   133 106  11   131 105  17   119  91  18   102  73  13    95  65  10    98  67  11   106  75  15   117  79  13   127  90  20   128  92  18   124  88  13   125  90  14   129  94  18   135 102  22   137 104  24   136 109  15   159 135  38  
  52  41  17    59  49  15    68  56  13    78  65  19    94  79  32   104  88  37   106  89  30   105  90  22   109  89  21   122 103  31   130 112  35   128 112  32   127 110  32   123 105  35   107  89  26    87  68  12    82  68  21    81  65  17    80  63  10    90  72   9   110  92  19   125 106  30   118  95  28   102  76  18    95  73  13   105  82  20   117  93  28   121  98  27   124 102  26   128 105  26   128 105  22   124 102  16   119  96  18   111  90  19   100  77  24    81  59  17    63  41  10    61  39  10    68  46  15    74  51  17    88  57  17   101  68  25   108  76  26   113  78  22   118  83  19   125  87  17   130  92  15   137  97  18   134 100  27   143 112  35  
  32  20  20    33  22  16    30  22   7    31  21   4    38  27   7    48  37  12    61  49  14    70  60  17    65  49  26    59  42  19    52  36  13    48  33  10    48  33  12    48  32  15    47  32  17    47  30  17    45  34  11    52  38  18    50  36  14    44  29   5    49  34   2    65  48  14    71  52  21    68  46  19    62  46  19    60  44  16    64  46  16    65  47  16    62  45  11    67  50  12    72  56  15    68  51  11    61  48  16    54  41  13    43  34  10    33  25   8    27  20   7    29  21  12    34  25  16    33  24  15    34  20   5    43  25   9    59  38  15    79  54  22    98  66  27   110  73  27   124  84  30   139  95  39   138  94  32   140  96  32  
  32  24   7    31  23   9    27  21   9    26  21  12    25  19  13    25  18   9    26  20   9    31  22  10    23  22   4    21  21   5    22  22   8    25  24  15    25  24  16    23  22  12    24  23  13    29  28  15    26  26  11    24  23  10    22  20   9    21  18   8    25  20   8    30  24  11    33  27  12    34  27  10    37  28  16    35  26  15    32  24  12    32  22   9    31  22   9    34  24   9    35  25  10    32  22   8    30  23   8    26  21   6    23  20   3    20  21   2    20  22   4    24  25  11    28  25  17    24  21  15    26  26  14    27  24  12    29  23   9    37  25   8    45  29  11    57  35  15    71  46  23    83  55  33   102  63  24   109  70  29  
  57  50  12    43  37   8    30  25   7    25  23  11    24  23  11    26  25  12    30  27  14    33  28  16    25  25   7    26  25   9    27  27  14    29  28  16    31  30  19    33  30  19    32  30  16    31  29  14    30  28  15    29  27  13    27  25  12    26  23  12    28  22  15    30  24  16    32  26  14    33  28  11    35  32  16    36  33  17    30  28  13    28  26  11    33  30  15    30  29  14    28  26  12    30  29  15    32  24  16    29  24  13    27  25   9    26  26   7    25  25   6    29  28  13    33  30  18    31  26  17    25  27  19    27  29  20    28  29  19    28  26  17    27  25  13    31  27  16    35  29  18    33  27  16    40  24  16    46  29  18  
  82  68  31    57  46  21    35  28  15    27  23  17    25  25  16    27  28  14    31  29  15    31  28  15    32  27  15    33  28  16    33  27  15    33  28  14    37  31  17    41  33  22    38  31  19    34  26  16    33  25  16    37  30  14    35  29   9    30  24   4    31  23   9    37  30  17    40  32  17    38  32  12    35  33  14    40  38  19    37  34  16    30  29  10    33  32  12    36  35  17    33  34  17    31  32  15    34  27  15    32  25  13    28  25   9    26  25   9    25  24   8    30  28  15    35  31  20    36  29  20    30  28  20    31  30  21    33  32  21    29  29  19    26  28  15    30  32  16    32  33  18    26  27  10    28  29  18    27  28  17  
 101  86  35    71  57  21    41  33  13    31  27  13    27  28  12    29  31  10    34  33  14    35  32  16    28  28  18    31  31  19    33  33  17    32  33  13    34  33  13    35  34  16    36  34  21    37  32  23    35  31  26    35  33  17    32  32   6    30  29   4    30  31  10    35  36  19    36  37  19    34  36  14    45  39  23    37  32  15    35  32  15    37  34  17    33  30  13    32  30  13    36  35  17    37  36  18    35  32   8    32  29   7    30  29   8    28  29   9    29  29  12    35  34  17    39  36  20    37  34  17    38  35  17    36  33  15    36  33  15    37  32  16    35  30  14    39  34  19    42  37  22    39  32  21    37  33  13    36  32  13  
  92  75  47    58  46  20    36  29  10    28  29  13    28  30  16    31  33  19    35  36  20    32  33  15    34  32  17    34  32  17    33  31  16    35  33  18    40  39  21    44  41  24    41  38  21    36  33  16    40  37  22    38  35  18    32  29  12    31  28  11    38  35  16    41  36  17    39  34  15    41  36  16    45  40  20    44  39  19    42  37  17    39  36  17    39  36  17    40  37  18    40  37  18    40  37  18    38  33  14    38  33  14    36  31  12    28  25   6    27  24   5    34  33  15    39  38  20    37  36  18    38  37  19    38  37  19    41  40  22    36  35  17    35  34  16    40  39  21    38  37  19    37  36  18    35  33  20    34  32  19  
  62  49  25    43  33  12    32  28  10    29  30  15    28  30  17    31  33  19    36  37  21    36  35  16    37  35  20    36  34  19    35  32  17    36  34  18    40  38  21    45  41  25    43  41  23    40  37  20    38  35  18    37  35  17    33  30  13    33  30  12    37  34  15    41  36  17    42  37  17    44  39  19    48  43  23    47  42  22    44  39  19    41  37  18    40  38  18    41  38  19    41  38  19    41  38  19    39  34  15    40  35  16    38  33  15    32  30  11    31  28  10    37  36  18    41  40  22    37  36  18    38  37  19    38  37  19    41  40  22    37  36  18    36  35  17    41  40  22    40  39  21    38  37  19    37  35  22    34  32  19  
  37  30  13    32  27  11    32  30  16    31  31  18    30  30  18    35  34  21    39  37  21    38  34  15    37  35  20    37  35  20    37  36  19    39  38  20    43  42  24    47  44  27    45  42  25    41  38  21    40  37  20    41  38  21    38  35  17    37  34  15    39  36  17    44  39  19    46  41  21    47  42  22    50  45  24    48  43  23    45  40  20    43  38  18    42  38  18    41  39  19    41  39  19    41  39  19    43  38  19    42  37  18    40  35  16    34  31  12    33  30  11    40  39  21    45  44  26    41  40  22    40  38  22    38  36  20    42  41  24    39  38  21    37  35  19    42  41  24    42  40  24    39  38  21    38  36  23    32  30  17  
  31  28  14    33  30  17    33  32  20    32  32  20    31  32  19    37  35  21    40  38  20    39  34  15    35  34  17    37  35  18    39  38  20    42  40  23    45  44  26    48  45  28    45  42  23    40  38  19    42  39  21    43  40  21    41  38  19    39  37  17    39  37  16    44  39  19    48  43  21    48  43  21    53  48  25    50  45  24    47  42  21    45  40  19    45  40  20    45  40  20    43  40  20    43  40  20    45  40  21    44  39  20    40  35  16    33  30  11    33  30  10    40  40  22    47  45  28    44  43  25    40  39  24    37  35  20    42  40  25    39  37  22    35  33  18    41  39  24    42  40  25    38  36  21    35  33  20    30  27  15  
  33  33  19    35  35  22    35  36  22    33  34  20    35  34  19    41  39  24    42  41  23    40  37  19    39  38  19    39  38  20    39  38  20    40  39  21    43  42  24    48  45  26    47  44  25    44  42  22    42  39  20    42  39  20    42  40  19    39  37  16    38  36  15    44  39  17    48  43  21    46  41  19    53  47  25    50  45  23    48  43  21    46  41  19    46  41  19    45  40  18    44  39  19    44  39  19    43  38  19    42  37  18    40  35  16    35  32  13    36  33  14    43  42  24    47  46  28    43  42  24    43  41  26    38  36  21    43  41  26    39  37  22    33  31  16    40  38  23    42  40  25    37  35  20    32  30  17    30  28  15  
  33  34  17    36  37  21    38  36  20    36  35  17    38  37  19    38  39  21    37  39  21    37  38  20    41  40  22    42  41  23    41  40  22    41  40  22    44  43  23    48  45  26    49  46  27    47  44  25    43  40  21    42  39  20    42  40  19    40  38  17    39  37  14    47  42  20    51  46  24    48  43  21    55  49  25    54  48  24    52  47  24    51  46  24    50  45  23    49  44  22    48  43  21    46  41  19    44  39  20    43  38  19    40  35  16    35  32  13    36  33  14    44  43  25    49  48  30    45  44  26    46  44  29    40  38  23    44  42  27    39  37  22    33  31  16    40  38  23    43  41  26    38  36  21    33  31  18    32  30  17  
  31  32  15    37  36  19    38  37  18    37  36  18    37  37  18    36  37  20    36  38  20    36  38  20    43  41  24    43  41  24    43  41  24    44  43  25    47  45  26    50  48  29    50  47  29    47  44  26    45  42  23    43  41  21    42  40  19    42  40  18    43  40  17    50  45  23    53  48  27    51  46  23    52  46  23    53  48  25    52  46  23    48  43  22    49  44  22    48  43  21    45  40  19    46  41  19    45  42  22    43  39  20    38  35  15    33  31  11    36  33  14    44  43  25    50  48  31    48  46  28    47  45  30    40  40  24    45  43  28    40  39  24    33  32  16    39  38  23    43  42  27    36  35  20    32  31  18    32  31  18  
  33  31  16    38  36  21    36  36  20    36  37  21    36  37  21    36  37  21    40  41  25    38  39  23    46  44  29    45  43  28    43  41  26    44  43  25    48  47  29    51  50  32    50  49  31    46  45  26    45  42  23    45  42  22    42  40  18    43  40  16    47  42  19    49  44  22    50  45  25    51  44  26    49  45  25    52  48  28    48  45  24    46  42  22    49  45  24    46  42  20    43  40  17    50  46  24    44  43  23    41  40  20    36  35  15    34  33  13    37  36  17    45  43  26    50  47  30    51  48  31    42  43  27    40  41  25    44  45  29    41  42  26    33  34  18    38  39  25    41  42  28    34  35  21    30  31  17    30  31  17  
  34  32  17    36  35  20    33  34  18    35  36  20    35  37  20    36  37  21    39  40  24    36  37  21    42  41  26    43  41  26    45  43  26    46  45  27    50  49  30    52  49  31    48  46  27    44  41  22    41  38  18    45  43  22    46  42  20    44  40  15    44  40  15    48  43  21    50  45  25    49  43  23    48  46  25    47  45  24    45  43  22    46  44  23    48  46  25    42  40  19    40  38  17    48  46  25    43  42  22    41  40  20    36  35  15    33  32  14    36  35  16    43  42  24    51  49  31    54  52  35    43  44  28    40  41  25    42  43  27    40  41  26    33  34  19    37  38  24    42  43  29    35  36  22    30  32  18    29  31  18  
  35  35  19    37  38  22    34  35  19    36  37  21    39  39  24    39  40  24    40  43  26    35  38  21    41  42  26    44  42  27    45  44  26    46  45  27    50  49  29    54  51  32    53  51  30    51  49  28    45  41  19    50  46  24    52  47  23    47  43  16    46  42  15    52  47  23    53  48  26    47  42  22    47  45  24    50  49  27    48  46  24    44  42  21    44  42  21    43  41  20    41  38  19    42  39  20    37  36  18    36  35  17    35  34  16    33  32  14    34  33  15    39  38  20    46  44  29    50  48  33    44  46  32    39  41  27    41  43  29    39  41  27    32  34  20    36  38  24    42  44  30    38  39  27    31  33  20    28  30  17  
