P3
50 50
255
  13  13  11    15  15  13    13  15  12    13  13  11    15  15  13    16  16  14    15  15  13    14  14  12    13  13  11    14  14  12     6  12  10     8  11  13    14  15  16    21  22  16    57  62  43    58  68  36    66  80  35   105 125  63    95 113  56   104 120  58   108 120  51    52  58  18   112 118  67   133 136  73   152 153  75   162 157  72   174 168  67   205 196 107   214 204 130   208 197 140   197 189 124   143 141  77   124 133  64   132 147  73   112 130  56   173 189 124   163 174 117   130 132  76    92  93  35   137 148  79   127 148  84   102 121  69   104 115  56    92 101  47    87  93  54   125 131  80   127 132  82    77  80  55    51  54  33   102 108  78  
  10  10   8    11  13  10    10  12   9     7   9   6     7   9   6     9  11   8    10  12   9    12  14  11    13  15  12    14  16  13    16  22  19    13  16  15    13  15  13    17  19  10    49  53  32    55  66  31    75  90  42    95 115  54   101 121  56   143 160  93   127 138  77    97 105  52   116 124  67    95  99  36   144 144  73   181 174 103   149 142  52   191 182  96   212 204 128   216 207 150   176 173 104   165 169 101   140 152  82   146 162  91   154 171 103   149 165 102   128 140  79   137 142  80    93  98  37   105 119  51   124 146  83    99 121  70   114 129  72   109 119  68    75  81  42    92  98  54   102 108  59    62  67  34    56  61  37   157 163 137  
  12  14  11    14  16  13    13  15  12    11  13  10    10  12   9    11  13  10    11  13  11    14  16  13    14  16  13    14  16  13    16  22  18    17  21  17    18  20  16    25  28  17    59  67  44    73  86  47    82  99  50    57  77  20    80 101  32   131 148  82   109 122  63   127 137  76   135 144  83    67  70  19   121 121  56   170 166  92   135 127  48   198 188 120   196 189 117   169 165  92   151 158  81   150 160  85   122 137  65   102 120  54   116 134  74   100 115  55   123 136  74   145 154  91   121 132  70   119 139  74   123 148  91   114 138  92   117 137  88    91 102  59    87  94  54    88  95  53   100 108  59    90  98  56    71  79  52   169 178 151  
  18  20  17    20  22  20    19  21  20    19  21  20    19  21  20    18  20  19    18  20  19    19  21  20    18  20  19    17  19  18    15  22  15    16  20  16    17  19  14    37  40  28    81  89  64    70  85  43    67  85  37    73  95  42    73  93  32   115 133  75   118 131  70    97 107  52   124 131  74    76  79  29   106 107  39   184 182 105   162 156  78   207 198 137   197 193 119   146 146  57   133 146  67   128 143  65   128 147  75    80 100  36    64  83  24    99 114  55   156 169 107   165 176 116   140 155  99   119 141  87    96 121  75   121 148 107   130 153 114    59  72  41   110 119  77   128 137  90   110 119  71   148 158 115   108 118  88   151 166 126  
  18  20  17    17  21  20    17  21  20    17  20  20    17  21  20    16  20  19    18  22  21    21  25  24    21  25  24    20  24  23    19  26  19    20  25  21    13  17  11    20  26  12    62  72  44    65  80  39    78  97  49   101 123  78    66  86  41   111 129  71   102 116  57    67  74  34   119 127  75   108 113  54   114 118  45   189 189 118   179 175  99   205 199 128   191 192 109   163 168  78   133 147  68   107 127  49   120 142  70    97 120  52    86 107  42   107 122  59   112 124  65   121 133  80    89 106  58   114 136  96   153 176 140   152 173 138    98 118  88    38  50  29   104 115  70   144 156 101   115 124  78   154 166 126    95 109  71   145 165 106  
  15  19  18    15  19  18    15  19  18    13  17  16    13  17  16    14  18  17    16  20  18    18  22  21    18  22  21    18  22  21    10  16  12    14  18  16    14  19  14    22  28  15    56  69  42    65  82  39    79 101  50    93 116  75    62  81  45   119 140  76    92 105  58    55  62  28   115 123  72   114 121  62   129 136  60   171 171  96   164 162  84   207 204 132   198 199 119   167 173  87   107 122  47   103 122  51    92 115  43    80 104  27    82 105  25    80  97  26    93 105  47   102 114  65   102 122  77   149 170 136   155 174 141   103 119  83    47  63  31    32  43  20   100 113  65   124 137  77   128 140  96   163 176 140   105 124  73   153 177 101  
  13  17  16    14  18  17    13  18  17    12  16  15    14  18  17    15  19  18    16  20  19    16  20  19    16  20  19    16  20  19     7  13  11    17  21  21    20  25  21    17  24  11    46  58  32    60  79  36    77 100  51    85 109  66    72  93  48   106 127  63    65  78  35    58  65  26    91  98  49    87  93  37   116 123  47   161 162  87   141 140  62   170 167 102   181 183 112   126 133  56   107 118  50   113 129  67    91 112  43    89 115  27    88 114  17    95 117  37   140 152  94   125 138  85   131 152 104   127 149 112   110 125  84    84  94  45    51  62  19    49  63  27   101 114  65   110 126  65   156 169 129   143 158 122   101 123  58   157 184  99  
  11  15  14    12  16  15    12  18  16    12  18  16    14  20  18    17  23  21    19  25  23    18  24  22    18  24  22    19  25  23    14  19  20    22  26  27    24  28  27    21  28  18    54  67  42    59  78  37    64  87  38    79 104  55    76 101  41   104 124  67   104 116  70    87  96  49    90  97  50   111 120  57   115 121  51   168 168 107   149 148  75   132 132  60   130 133  65   100 104  51    98 107  41    85  97  39    77  96  28   105 131  36    86 113   6   101 122  40   111 125  65   113 126  70   137 159 105    81 103  60    94 107  61   114 122  63    91  99  46    93 107  61    93 110  59    96 110  55   162 175 137   134 151 111   116 142  67   153 183  93  
  14  20  19    11  18  16    16  25  22    20  26  24    20  26  24    12  18  16    16  22  20    18  24  22    20  26  24    16  22  20    23  28  33    25  30  39    17  25  25    29  42  20    66  83  40    78  98  43    71  94  37   100 123  68    93 106  60    89 101  61   115 133  82   123 147  83   112 134  78   114 129  76   140 150  97   156 163 106   162 164  98   139 139  65   115 111  42   122 116  55    86  83  32    43  42  11    63  74  21    99 120  34   112 132  46   129 145  58    96 103  40    82  88  36    98 109  59    63  73  37    61  66  24    95  98  42    88  90  52   103 117  77   117 128  88    69  78  39   123 140  95   125 139  90   133 149  74   157 187  70  
  16  22  20    14  21  19    14  23  20    14  21  19    17  23  21    18  24  22    22  28  26    21  27  25    18  24  22    15  21  19    18  24  21    13  18  19    17  24  21    39  52  31    71  87  49    89 108  62    88 108  57    69  88  36    50  62  23    71  83  36   118 138  79   134 156 100   134 154  97   128 145  83   152 167 102   170 177 117   168 170 107   168 166  96   185 180 111   195 189 130   119 113  58    64  65  10    75  85  22    97 115  32   120 140  57   147 161  78   160 167 105   114 120  63    61  71  24    57  67  32   101 109  51    74  77  24    66  69  33    99 114  63   147 158 105    61  71  25    82  99  52    82  95  57   111 125  71   171 199 111  
  14  20  18    14  20  18    12  18  16    12  18  15    15  22  19    23  29  27    23  29  27    20  26  24    16  22  20    16  22  20    19  25  14    13  20  14    13  21  13    26  38  19    51  66  34    54  70  31    48  66  21    63  79  30    66  76  32    72  81  38    88 106  51   116 137  75   123 141  83    94 111  45   110 124  50   155 162  96   161 158 101   178 172 103   190 182 107   160 150  88   140 130  63   138 137  63   105 112  40    99 116  32   102 118  43   108 120  49   118 127  63   140 148  83    90 100  54    68  78  42   142 151  83    73  77  21    52  56  18   114 129  76   157 168 108    70  77  32    94 109  58    74  86  53    99 114  69   148 176 110  
  23  29  27    20  26  24    18  24  22    18  24  21    18  24  20    24  30  27    20  26  22    19  25  21    17  23  19    19  25  22    16  22  12    15  20  13    13  20  11    26  37  20    60  73  44    55  72  29    41  58  13    79  93  45   103 112  63    83  92  49    68  82  32   111 130  69   108 121  63   103 113  50   147 153  80   145 143  78   112  99  46   145 130  59   147 133  46   114  97  26   162 150  72   169 163  94   113 117  51   111 126  39    81  97  29    82  93  32   126 135  68   147 156  87   107 118  68    79  90  50   150 160  91    95 101  39    57  62  22   111 124  82   161 170 114    68  71  30   125 139  83    86  97  58    92 107  57   116 145  76  
  21  27  25    20  25  24    20  26  24    23  29  25    19  25  21    20  26  22    15  22  18    17  23  19    17  23  19    20  26  22    16  20  19    10  14  12    13  19  13    35  43  29    74  88  57    84 100  52    73  91  35    61  73  27    68  75  31    76  86  31   101 119  62   113 130  78    96 108  52    93  96  36   140 135  68   144 129  68    95  72  18   134 111  35   158 137  42   143 122  38   170 155  79   158 148  90    95  94  42   117 130  49    81  94  25    80  90  30   119 125  64   129 136  69   102 115  57    99 110  66   160 170 108   141 149  79    90  98  51    87 100  60   144 152  97    85  88  46   140 152  93    99 109  67    92 107  53   127 158  84  
  27  32  28    23  29  25    23  29  25    21  27  23    15  21  17    13  19  14    10  16  12    13  19  15    13  19  15    15  21  17    21  22  26    15  17  17    16  21  15    29  37  23    65  79  47    85 102  49    79  97  37    59  70  22    81  91  39    89 102  46   121 140  86   113 130  80    69  80  27    76  75  16    89  79  13   157 138  74   127 101  38   153 127  43   184 164  64   180 160  69   190 174 102   143 134  76   125 125  78   170 181 111   128 142  67   142 154  83   101 106  51   110 115  54   103 115  53   109 121  72   146 155 100   143 151  80   117 126  72    96 112  61   146 157  96   136 139  93   165 174 121   115 122  88    62  73  30   112 139  74  
  23  28  24    19  25  21    15  21  17    14  20  15    14  20  16     9  15  11    10  16  12    12  18  14    14  20  16    15  21  17    20  21  23    24  27  23    21  27  18    24  32  18    65  75  50    84 100  49    73  91  31    67  81  29   125 137  75   135 150  94   121 141  90   119 138  85    77  88  38   118 118  54   127 120  48   194 179 108   168 148  69   173 155  64   187 173  77   173 163  73   196 186 105   133 127  63   113 116  58   170 182 112   165 178 107   148 160  83    97 100  45   126 130  73   133 146  84   126 138  87   130 138  81   112 121  57    88  99  41    86 105  47   152 164 108   117 121  76   138 145 105    98 101  79    41  48  19   110 134  79  
  16  21  17    18  24  20    15  21  17    16  22  18    19  25  21    12  18  14    15  21  17    16  22  18    20  27  23    22  28  24    24  26  23    26  29  21    19  24  14    18  25  13    58  67  44    74  91  44    62  79  20    73  86  33   138 151  92   127 145  82   111 132  76   111 131  85    77  89  41   119 124  52   150 148  69   184 174  95   162 148  60   164 152  58   206 199 107   176 173  88   176 170  77   138 135  66   124 131  60   128 142  64   118 130  68   109 119  44    88  92  32   102 106  54    98 111  50   110 122  71   129 138  76    88  95  41    94 106  46   101 122  62   140 151 107    65  68  31    62  67  39    46  46  32    54  58  37   144 165 112  
  13  18  14    16  21  17    19  24  20    16  21  17    20  25  21    20  25  22    17  22  18    19  24  20    23  28  24    29  34  30    18  24  22    15  19  14    21  22  22    22  25  18    73  81  46    87 101  42   101 117  52    92 110  39   120 143  69   128 152  89    98 116  71    95 110  60    59  69  24   122 121  59   158 153  77   161 159  81   173 171 106   176 163  88   223 202 132   206 196 113   194 178  97   135 130  48   108 116  38   100 121  13    82 101  14    83  95  15    81  87  24    99 108  50    93 103  45   122 134  70   111 122  66    88  99  38   104 114  51   132 151 100   162 174 131    60  57  23    45  41  21    24  27  20    65  74  55   187 199 146  
  13  18  14    15  20  16    16  21  17    20  25  21    22  27  23    19  24  20    17  22  18    20  25  21    23  28  24    30  35  31    32  38  37    30  34  29    26  28  25    36  39  31    68  75  41    81  94  41    92 107  47   106 122  50    95 115  43   131 153  88    66  85  39    60  75  26    53  61  21   121 121  63   149 141  78   178 175 112   174 172 115   162 151  79   199 181 109   211 202 129   206 191 115   133 128  57    70  77  11    86 108  14    66  86   4    89 102  31    84  93  30   101 110  52    97 107  52   155 166 108   124 136  86   121 131  75   106 115  55   145 162 113   177 188 150    70  68  38    54  51  32    29  31  23    67  77  50   182 197 132  
  21  26  22    20  25  22    20  25  21    22  27  23    22  27  23    21  26  22    25  30  26    26  31  27    23  28  24    27  32  27    27  32  36    31  36  31    28  31  25    27  30  19    53  60  28    90 102  56    65  78  26    84  98  30    90 108  38   134 154  92    67  84  38    66  79  28    60  66  28    88  88  37   172 166 115   182 180 129   174 174 124   174 164  94   193 177  98   228 220 153   186 177 106   124 122  62    65  74  20   105 125  53    82 102  32    79  94  34   102 113  49   103 111  57    85  94  43   140 150  98   133 143 100   155 165 112   108 117  62   133 148 103   172 183 148    82  83  53    56  55  36    33  36  26    68  79  43   155 174  96  
  29  34  29    25  30  26    23  28  24    23  28  24    25  30  26    26  31  27    27  32  28    28  33  29    25  30  26    25  30  26    34  39  44    28  33  28    31  34  27    27  31  18    61  68  38    98 109  69    63  75  31    87  99  41   104 119  59   105 123  64    68  84  34    92 104  49    71  77  36    69  69  23   183 180 132   182 182 130   202 203 151   182 174 103   166 153  63   208 200 126   180 176 104   107 109  54    87  98  49   137 157  98   109 130  65    53  70  16   113 126  62    77  83  38    74  84  31    93 106  52   113 124  80   139 150 100    75  83  39   107 122  76   166 177 140    93  99  65    45  44  25    27  28  20    62  72  35   148 166  90  
  27  29  26    23  25  22    19  21  18    22  26  23    28  33  29    25  30  26    20  25  21    22  27  23    24  29  25    26  31  27    25  30  33    23  28  21    28  31  23    27  31  19    52  59  30    63  73  36    71  81  44    95 105  61   128 141  91   117 133  79   106 123  67   120 134  68    94 101  52    72  72  30   173 171 116   193 195 130   206 209 149   182 175 100   174 162  60   195 190 100   192 191 116   120 123  66    97 108  59   133 151  97   104 124  62    57  72  20   108 120  57    72  76  37   110 119  64   111 124  63   131 144  93   127 139  86    66  74  38   103 115  68   152 164 123    73  81  39    38  42  17    30  30  26    69  77  48   175 193 131  
  19  22  19    15  17  14    12  14  11    15  19  15    24  29  25    23  28  24    15  20  17    18  23  19    20  25  22    20  25  21    18  24  23    29  33  26    33  35  29    25  27  18    53  59  30    60  71  31    92 102  64   100 109  71   130 145 100   166 185 129   104 123  61   119 134  65    96 104  53    55  55  14   164 163  98   205 208 138   169 172 107   167 159  79   185 174  64   166 161  60   195 193 117   143 144  83    89  96  44   124 138  85   125 140  83    75  84  38    95 105  44    76  79  38   125 136  76   108 122  60   150 163 112   132 145  90    79  88  52   121 131  86   147 159 117    77  91  42    82  88  57    36  35  32    71  78  53   181 198 150  
  17  19  17    13  15  12    11  13  10    13  17  13    19  24  20    19  24  21    17  22  18    19  24  20    17  22  18    14  19  15    19  25  20    20  25  16    23  25  21    20  22  16    67  73  44    82  93  50    83  95  50    76  88  47    96 112  67   152 172 116    88 109  46    96 115  46    69  78  34    46  45   7   143 143  70   202 203 138   173 174 112   168 160  72   181 169  56   156 150  49   190 186 116   134 135  73    89  93  42   147 155 103   153 160 115    67  71  32    90  96  40    80  86  34   109 119  56    81  94  39   139 152 108   149 164 106   105 117  73   127 137  95   142 153 118   106 123  71   132 142 103    41  41  35    72  78  56   181 196 158  
  19  20  17    14  16  13    13  15  12    17  21  18    19  24  20    16  21  17    16  21  17    19  24  20    17  22  18    16  21  17    17  24  16    13  17   9    19  21  19    22  25  20    64  71  42    87 100  51    73  87  34    65  80  32    83 102  51   120 144  84    79 101  38    77  95  31    70  78  43    61  60  25   135 133  60   175 174 119   185 182 126   164 154  62   161 148  34   165 156  62   174 169 103   126 122  63   113 113  64   163 168 119   128 132  94    64  65  32   102 105  53   137 144  82   126 138  72   103 115  67   115 126  90   126 141  81    88 101  48   122 129  90   141 151 125   104 121  71   133 143 103    43  43  35    63  69  46   161 177 140  
  22  24  21    18  20  17    17  19  16    23  24  22    22  24  21    19  21  18    20  22  19    21  23  20    20  21  18    17  19  16    15  21  18    16  20  13    18  21  16    23  26  17    63  69  40    61  73  30    68  82  38    71  89  36    77  92  47    94 110  50    63  75  23    63  71  31    73  84  28    76  80  20   140 143  73   138 138  77   178 176 105   190 181 108   168 153  70   184 163  81   177 162  99   132 126  58   121 124  73   146 154 110   119 127  80   121 125  61   102 103  48   150 158 104   152 163 114   144 160 114   118 135  79   111 128  68    64  76  37    79  85  38   109 119  68    84  97  53    96 105  66    28  29  21    47  51  40   136 153  96  
  24  27  24    22  24  21    23  25  22    19  21  18    20  22  19    23  25  22    22  24  21    21  23  20    20  22  19    22  24  21    19  25  23    21  26  19    16  19  13    18  22  10    60  67  35    64  76  30    76  91  38    88 107  42    87 102  48    68  83  27    72  85  32    70  81  40    69  79  38    81  86  24   148 152  79   136 137  69   168 166  96   185 175 106   186 171 100   202 182 111   173 160  94   118 113  48    89  93  47   135 143 100   146 154 107   137 142  82   104 106  56   143 152 100   144 156 110   140 156 112   123 141  88    95 111  55    48  57  22    74  81  37   133 145  96    77  92  50    72  83  45    32  33  25    32  34  24    88 104  51  
  18  23  19    15  20  16    18  23  19    17  22  18    20  25  21    24  29  25    23  28  24    19  24  20    17  22  18    17  22  18    27  33  32    17  21  14    18  21  13    19  23   8    44  54  17    92 107  53    73  89  30    88 104  37    98 113  51    90 107  39    90 106  45    78  91  44    88 102  50   129 135  69   180 183 116   144 145  75   152 149  84   177 168 100   197 182 114   176 157  88   127 118  49   149 145  85    99 103  63   148 158 117   144 154 105   100 105  49    78  81  37   117 130  78   124 141  94   137 155 115   134 154 104   118 133  81    59  66  31   102 110  68   168 181 134   114 130  90   120 132  97    57  58  50    44  46  35   102 115  66  
  17  22  18    16  21  17    20  25  21    20  25  21    21  26  22    22  27  23    21  26  22    20  25  21    17  22  18    15  20  16    19  23  23    19  23  16    43  46  37    29  33  17    38  48   8   111 127  68    82  99  38    93 109  37    97 114  40    99 116  34    78  94  29    68  82  37    91 110  45   144 152  92   159 162 108   121 121  57   176 172 110   181 173 102   181 168  97   149 133  56   118 110  41   154 152  94    98 104  67   141 153 112   173 186 134   125 132  77    61  65  26    90 106  49   127 146  92   164 185 139   144 164 114   122 136  83    71  75  35   108 116  73   169 184 137   138 154 116   123 134 102    53  52  44    55  56  45   124 134  94  
  21  26  22    20  25  22    20  25  21    17  22  18    19  24  19    19  24  20    18  23  19    20  25  21    20  25  22    19  24  20    15  19  19    26  30  23    49  52  43    38  42  24    73  85  42   101 120  57    93 112  47   106 122  49    99 115  44   108 124  48    84  99  41    52  64  30    56  72  25   120 129  75   136 138  87   116 117  52   195 191 129   166 159  89   195 185 115   184 172  97   156 147  81   128 126  69    70  76  38   117 130  84   160 170 118   155 159 103    77  79  38   103 119  55   138 158  97   152 173 123   124 143  92   112 125  69    78  82  34   128 134  89   134 148  99   107 123  85    98 107  77    38  36  27    39  38  27   101 107  75  
  18  23  19    20  25  20    18  23  19    15  20  16    18  23  19    19  24  21    16  21  17    16  21  17    19  24  20    22  27  23    21  25  25    21  26  18    24  27  18    32  38  20   100 112  68   100 118  56    81  99  38    71  84  35    59  71  30    95 109  59   100 114  62    65  76  39    43  54  24    96 105  51   145 151  89   112 115  46   179 175 110   174 167 100   183 174 110   208 199 134   210 201 138   135 133  73    63  69  25   128 139  91   143 152  98   110 114  53    78  79  31   125 137  72   140 159  96   139 160 110   115 133  86   125 137  81    83  85  33   114 119  68   143 152 100    81  92  52    55  60  32    35  32  21    35  33  21    65  68  45  
  12  17  13    17  22  18    19  24  20    15  20  16    17  22  18    19  24  19    15  20  15    16  21  17    18  23  19    19  24  20    19  23  23    18  22  14    14  17   8    21  27  10    82  95  53    91 111  50    63  83  26    32  47  10    31  42  18    88  99  61   121 134  78   100 112  65    63  72  38    93 101  49   117 124  57   109 110  45   162 159  89   180 174 106   166 159  90   199 191 125   203 191 134   148 145  82    93  98  46   113 123  70   140 148  92    91  93  26    84  83  30   122 129  71   131 146  89   152 169 126   111 127  89   136 146  98   101 102  54   115 115  63   130 135  77    58  65  24    44  46  18    40  35  22    36  32  21    39  42  24  
  12  17  13    14  19  15    13  18  14    12  17  13    13  18  14    13  18  14    13  18  14    19  24  20    22  27  23    17  22  18    20  24  22    20  24  16    22  25  17    21  27  10    74  86  45    65  85  26    62  82  26    48  65  16    42  56  22    80  95  43    98 112  50    68  78  33    68  77  36    62  71  25    99 106  44   178 179 120   185 182 112   188 182 110   187 182 103   186 180 105   181 169 115   160 157  91   131 136  79   104 113  58   136 144  87   127 129  57    95  92  35    86  88  37   120 130  80   165 180 143   121 135 103   155 163 122   113 113  71   103 101  49   149 153  92   132 138  94    77  76  48    57  50  37    44  39  28    30  31  18  
  12  17  13     8  13   9    15  20  16    15  20  16    12  17  13    11  16  13    19  24  20    22  27  23    18  23  19    22  27  23    20  29  24    19  25  19    14  19  15    15  22   6    72  84  40    65  82  25    91 113  52   102 128  53    72  90  35    80  95  31    92 105  53    85 103  54   102 125  68    85 101  40   138 150  77   157 162 104   157 157  95   167 165  93   178 174  89   185 174 106   158 156  86   141 143  75   114 119  60    77  84  26    99 101  53   129 130  73   107 105  58    81  84  46    96 111  69   168 186 147   146 156 112   152 150 102    93  81  49    85  81  41   138 141  85   141 145  96    94  99  60    85  88  49    61  58  43    33  28  24  
  10  15  12     7  12   8    13  18  14    17  22  18    16  21  17    17  22  18    22  27  23    24  29  25    21  26  22    18  23  19    22  28  24    11  15  10     8  10   7    20  25  10    73  84  41    85 101  44   109 129  70    96 121  51    55  73  24    67  81  22    74  87  33    87 103  47   107 128  65   110 125  65   164 175 108   126 130  76   159 159 100   175 172 104   179 173  94   215 205 139   178 176 105   116 119  48   112 117  56   109 116  56    99 105  50   117 119  55   102 100  49    80  84  42    94 109  64   155 172 129   168 176 128   144 139  91    72  58  24    84  79  38   144 146  90    97 100  54    68  71  36    89  93  56    57  57  40    33  30  23  
  12  14  11    11  12  10    14  16  13    17  21  16    18  23  17    20  25  19    21  26  21    24  29  23    23  28  22    15  20  14    20  24  20    18  20  14    16  17  12    17  19   3    67  76  33    74  89  33    93 113  57    70  93  29    31  47   5    72  86  28    96 107  49    96 108  47   120 136  70   125 137  78   170 178 119   147 150  99   164 163 106   196 194 126   211 205 129   222 212 146   190 188 118   128 130  59   123 128  65   123 131  66   109 115  56   119 122  53    87  87  30    84  89  44    84  99  48   127 140  94   150 155 106   128 121  68    81  67  27    93  87  43   154 153 100   110 112  73    55  59  31    93  99  64    58  62  40    38  38  28  
  12  14  11    12  14  11    14  16  13    16  18  14    18  20  15    17  19  14    19  21  16    24  26  21    21  23  18    16  18  13    18  19  16    15  17  11    19  19  14    35  37  21    70  78  36    71  84  31    73  90  34    88 112  47    52  68  26    81  92  37   122 132  71   108 118  56   117 128  64   110 120  57   170 177 116   163 165 110   161 160  99   166 163  92   198 191 116   200 192 120   199 195 132   146 146  83   118 123  66   124 132  72    99 104  47   128 134  64    91  93  35    91  97  49   108 121  66   133 146  93   120 121  70   122 112  60   134 120  76   110 104  58   154 154 102   113 114  82    62  66  41   141 149 113    86  92  64    25  29  13  
  10  12   9    12  14  11    13  15  12    14  16  12    17  19  14    12  14   9    16  18  13    21  23  18    15  17  12    17  19  14    23  23  21    22  22  16    30  30  23    69  72  53    66  75  30    95 110  55    74  93  37    99 121  53    69  86  39   100 114  54    91 102  44    84  94  36    79  89  29    96 105  34   189 195 128   169 171 108   181 181 112   151 148  72   180 175  98   163 156  78   215 211 155   158 158 102   106 111  60   125 132  78    75  82  31   126 130  67   133 134  81    79  86  36   122 135  76   160 169 115   107 106  56   120 112  58   137 127  78   126 121  74   167 166 117   101 102  73    61  65  42   155 164 124   104 113  79    33  40  21  
   9   9   7    10  10   8    11  11   9    14  16  12    16  18  13    12  14   9    14  16  11    17  19  14    12  14   9    15  17  12    14  14  11    19  20  14    25  27  17    55  60  38    58  70  24    98 115  61    77  96  43    94 115  49    73  91  39   131 148  82    76  89  35    86  96  42    79  91  29   118 125  47   197 200 130   134 135  67   167 166  93   149 146  67   186 181 106   186 180 100   220 214 164   161 159 107    80  84  36    98 106  55    74  80  33   107 113  53   129 132  81    68  73  26   102 112  54   133 141  88    95  92  46   118 112  61   124 120  70   153 154 107   115 119  69    59  63  34    76  83  54   158 170 122   111 122  82    35  39  22  
  10  10   8     9   9   7    10  10   8    13  14  10    12  13   8    15  16  11    15  16  11    14  15  10    16  17  12    13  14   9    15  17  14    17  20  11    19  22  12    37  44  22    84  98  51    98 117  63    72  91  43    88 106  49    98 115  62   129 148  80    68  82  30    87 102  48   114 131  57   134 144  56   196 197 129   124 125  55   155 154  82   148 145  71   183 176 110   198 192 119   215 208 154   132 131  75    59  64  14    81  89  36    91  98  49   112 117  56    86  89  39    60  65  22   100 110  53   127 134  82    97  95  53   141 138  91   131 133  83   153 159 113   117 122  75    75  83  50    76  86  49   121 135  78    94 104  58    38  41  25  
  12  12   9     9   9   7    11  11   9    10  11   6     6   7   2    16  17  12    14  15  10    12  13   8    21  22  17    11  12   7    14  19  14    15  18   9    20  23  11    33  40  16    79  94  47    85 106  51    70  90  45    82  98  49    94 111  59   110 129  60    74  91  39   100 117  62   129 151  67   116 126  34   116 116  50   109 107  41   173 170 101   160 156  86   178 170 112   199 191 125   215 210 149   112 112  51    91  96  40   109 117  60   116 125  72   144 150  84   100 103  52    88  92  52   116 126  70    86  93  44   113 111  71   155 155 109   122 129  79   145 153 109   161 169 121    80  87  54    94 105  64   127 139  78    76  85  36    53  56  39  
  10  12   7    13  14   9     5   6   1     5   6   1     3   4   1    12  13   8    13  14   9     8   9   4    12  13   8    14  15  10    12  16   9    13  13   6    22  22  10    36  44  21    53  69  33    74  90  42    88  98  49    93  93  43   113 117  53   120 130  67    85 101  46   111 130  70   136 158  77    89 108  36    46  49   8    72  72  11   172 174 103   196 185 127   173 156  88   199 186 136   220 208 159   116 113  51    92  95  30   118 125  65   120 128  68   148 154  92   115 120  61   109 117  64   127 135  85    54  63  18   108 120  76   149 162 119   128 141  98   132 142 100   161 172 129    82  94  55   130 144 108   169 183 145    87  99  64    41  47  31  
   6   7   2     7   8   3     7   8   3     9  10   5     8   9   4    11  12   7    10  11   6     8   9   4    13  14   9    19  19  14    19  22  15    17  16  11    20  20  11    32  40  19    42  54  19    67  75  28    87  88  39    80  75  32    89  93  35   106 117  57   105 122  71   105 120  77    83  98  50    58  72  11    90  96  32   100  99  34   164 163 102   200 191 129   147 133  62   176 167  94   220 210 156   128 127  56   107 112  46   125 132  78   140 148  88   147 154  85   108 112  55   116 124  66   144 152  98    96 106  55   109 118  73   152 164 120   147 160 116   165 176 135   167 180 136    94 109  66   128 143 103   146 160 114    97 109  65    53  58  33  
  17  18  13    11  12   7     8   9   4    10  11   6     9  10   5     8   9   4     7   8   3     7   8   3    10  11   6    16  17  12    19  18  11    16  14   9    19  20  15    28  35  20    38  45  13    83  81  32   108  99  49    75  63  27    55  55  10   106 119  68   112 130  80   112 126  82    85  93  53    83  94  39   138 142  73   152 150  74   162 161  97   178 169 107   159 149  65   135 132  46   182 179 110   132 135  58   119 126  60   129 137  83   110 117  63   155 162  90   112 117  54   129 137  72   144 152  92   144 153 100    99 109  59   106 117  70   110 123  75   159 172 130   122 137  93    69  85  38   105 120  73   118 132  77   108 118  66    55  59  26  
  27  28  23    26  27  21     9  10   4     9  10   5     9  10   5     7   8   3     7   8   3     9  10   5     9  10   5    12  13   8    17  14   6    14  11   7    18  20  17    16  24  11    34  40   8    94  87  36   113  96  40    93  78  33    90  92  50   140 156 113   137 154 106   122 133  84    98 105  61    71  78  33    80  82  18   141 140  58   144 142  75   190 182 119   171 163  78   146 142  60   120 120  35    96  99  26   110 117  51   119 127  66    67  72  29   129 134  67   109 114  43   134 141  73   129 135  72   118 126  69    90  99  46   109 119  67   102 114  61   157 172 127   122 138  91    76  93  41   115 130  80   125 136  81    97 102  55    56  55  28  
  25  26  20    49  50  44    16  17  10    10  11   5    11  12   7    10  11   6    12  13   8    14  15  10    12  13   8    11  12   7    17  14   5    16  13   9    14  16  13    13  22   9    47  54  21   101  97  45   110  93  35   100  89  33    92  99  53   144 163 118   160 175 130   115 120  78    62  63  30    49  52  18   127 128  61   158 154  82   146 143  88   189 179 119   174 161  90   172 169  87   107 106  16    98 100  26   114 118  54    97 105  44    54  57  17   102 107  42   118 122  48   119 125  57   112 118  55   103 108  49    99 106  52   118 128  74   123 133  80   155 169 122   126 143  89   105 121  66   127 141  88   117 127  74    65  68  28    41  36  22  
  19  20  14    62  63  56    22  23  15    10   9   4    12  11   6    12  11   6    12  11   6    15  14   9    15  14   9    13  12   7    13  12   5    18  15  10    11  13   8    22  32  15    67  79  44   107 110  60    94  86  33    72  66  26    68  79  38   127 146 100   126 137  87   112 114  73    75  76  47   102 109  63   137 138  76   119 115  54   171 165 121   195 183 137   167 154  83   143 138  56    98  91  11   132 129  54   121 123  59   103 107  51    64  67  21   123 128  62   119 122  56   125 126  65   125 128  70   116 121  65    94  99  46   129 137  84   143 152  97   148 160 108   134 149  91   102 118  56   104 118  59    92 101  45    61  63  23    45  39  27  
  10  12   5    55  56  48    35  37  27    10  10   4    10   9   4    13  12   7    14  13   8    15  14   9    17  15  10    12  11   6    13  14   8    20  18  13    19  19  10    28  37  16    67  83  47   100 114  64    73  78  30    53  54  19    43  61  17   118 136  87   113 120  68   105 104  54   102 108  58   139 151  82   127 128  73   135 130  72   197 192 143   193 179 136   146 130  54   132 123  47   155 141  69   184 176 106   121 118  54   103 105  48    81  83  35   170 174 115   121 122  59    97  96  41   106 106  53   111 113  63   100 104  53   142 149  96   122 130  76   114 123  71   141 155  94   118 133  64   130 145  76   124 135  66    97 102  49    48  47  21  
   7   9   3    49  50  42    62  63  54    17  17  11    10   9   4    17  16  11    19  18  13    18  17  12    20  19  14    13  12   7    16  19  12    24  22  16    34  33  22    35  44  21    63  83  45   100 122  72    79  94  40    87  98  39    64  88  27   123 143  87   134 138  85   111 110  55   100 109  46   121 138  62   119 123  64   150 148  88   152 149  88   168 156  98   131 113  41   165 154  83   186 168  97   192 179 120   116 112  48    82  83  20    98  99  53   195 197 146   151 153  88    80  78  28    95  94  45    84  86  37   105 109  59   145 150  98   100 107  53    75  83  31    84  96  33   132 145  73   143 157  79   142 156  76   143 151  85    54  54  16  
   8   9   3    26  27  19    70  71  63    37  39  29     9  10   2    13  14   6    17  19  13    15  17  11    18  20  15    13  15  10    17  17  15    20  23  15    30  39  15    45  55  23    90 107  56    98 115  62    52  65  28    84  99  37    77  94  31   109 123  67   130 143  74    92 101  42    99 104  44   114 125  48    89 102  34   149 153  95   147 137  82   147 127  66   130 114  52   199 193 129   177 164 102   166 160  89   111 114  51    77  83  32   115 123  67   201 206 139   153 156  84    88  89  24   102 105  48    87  92  36    95  98  53   147 151  98   108 111  57    78  83  41    72  83  41   139 166  69   118 144  55   123 144  67   136 149  79    88  93  27  
  14  15   9    19  20  12    55  56  48    63  63  54    21  21  11    10  10   1    20  21  13    17  18  11    20  21  15    16  19  12    15  14  10    17  18  10    29  35  16    45  53  26    89 103  54    91 106  49    56  70  25    88 104  16    61  78   2    88 100  39   104 112  59    53  53  24    83  83  38   121 126  57    86  95  29   169 173 120   167 158 105   154 137  71   138 124  53   198 188 130   160 147  85   148 144  74   130 133  72   110 117  68   128 136  80   176 181 115   116 119  51   102 103  43   119 123  67   124 132  75   101 107  59   141 148  91   113 118  59    73  80  34    87  97  55   164 188  98   144 168  87   133 152  82   138 151  84   120 126  61  
