P3
50 50
255
 161 119  37   204 159  67   171 118  38   171 115  42   206 155  75   214 167  95   210 165 109   214 170 119   183 143  86   193 153  94   169 130  71   145 113  54   117  92  34   102  88  30   118 112  52   102 102  40    79  79  43    70  67  33    92  85  55   126 117  86   116 108  73   108 103  66   118 115  78   104 101  68   118 116  80   142 132  95   184 169 115   167 156 103    85  81  56    74  80  65    70  83  64    92 103  92   115 121 107    67  73  60    30  38  25    18  26  15    33  41  30    76  82  69    85  90  75    55  57  43    40  49  30    77  87  63   123 131 107    70  78  57    31  35  22    43  44  36    46  48  37    95  97  83   141 149 125   101 111  87  
 132  94  38   186 145  69   184 136  54   157 100  30   168 113  44   210 160  86   217 172 103   216 174 117   221 181 116   195 154  93   148 108  52   138 105  47   155 130  67   151 137  72   133 129  66   109 110  49    84  85  42    75  73  33    92  88  50    93  87  55    80  74  47    95  88  65   104 101  72   102  99  67    86  81  61    87  75  50   136 120  78   144 131  86    84  78  52    60  62  43    88  96  72    68  76  57    58  63  49    87  93  79    54  62  49    37  45  32    47  56  42    43  49  35    65  69  54    65  68  53    50  59  41   104 113  90   116 124 101    52  60  39    41  47  33    57  63  52    48  52  40    89  94  77   143 152 122   120 130 102  
  87  54  19   109  73  24   149 106  39   150  98  32   148  90  27   188 134  58   200 154  72   205 165  99   227 186 122   196 153  99   141  99  56   130  92  47   160 132  77   167 150  90   140 132  78   114 111  64   104 104  62    95  94  53    95  92  54    91  86  54    83  78  53    76  70  49    84  79  57   122 120  94    99  93  74    80  69  45   104  91  55    93  79  43    74  65  41    54  50  35    90  90  75    64  67  53    27  30  16    65  70  56    80  87  73    76  84  70    53  60  47    45  51  35    86  90  72    93  96  77    64  69  55    76  82  63    87  95  73    93 101  80    80  88  73    65  74  61    78  87  71   101 112  91   128 136 107   124 133 105  
  96  66  32    71  38  13    97  60  21   135  91  31   143  89  22   164 108  32   181 134  51   210 167  95   230 188 121   205 160 109   142  98  60   128  86  48   155 122  74   153 132  76   129 115  66   107  97  57    91  87  53    82  77  47    71  66  39    83  78  48   106 104  67    87  84  48    62  58  32    86  81  65    89  81  60    90  83  55   102  91  59   106  94  64   117 106  84    53  44  32    53  47  39    59  59  50    40  42  28    60  62  49    85  90  76    94 101  87    72  78  63    81  86  67   109 114  93   109 113  89    63  66  56    46  50  34    59  66  45    89  97  78    57  65  50    51  60  47   101 112  93    95 107  83    92  96  76    88  95  72  
 121  87  43    86  55  37    71  42  22   121  86  37   155 110  40   153  99  25   161 108  33   205 158  81   237 195 116   234 191 124   169 124  71   129  86  34   143 105  48   149 120  58   151 127  71   150 131  79   106  96  61    73  63  38    49  41  23    59  54  25   104 101  56   112 110  63    66  61  30    49  40  27    51  40  27    85  78  56   104  97  73   123 115  91   155 144 118    81  73  53    36  32  18    55  58  40    47  48  34    76  78  66    80  84  70    63  70  54    86  93  75   121 126 105   108 114  89    99 103  76    55  58  50    59  62  51    74  78  61    69  74  56    46  52  38    66  72  58   101 109  91    96 104  80    76  78  63    60  62  48  
 128  87  41   109  78  46    73  52  28   114  90  50   174 136  74   176 123  58   159 104  37   180 129  48   212 172  85   232 191 112   207 162  94   158 112  52   146 101  43   169 130  72   184 151  91   176 147  87   149 137  84    97  84  48    49  37  17    43  34  14    74  68  37    87  82  45    65  56  25    48  37  14    59  46  28   101  95  67   118 116  92   126 121  99   147 140 111    78  70  49    22  20   8    44  52  32    46  44  31    64  64  50    63  65  51    47  51  36    97 104  84   113 118  95   107 111  83   105 110  79    40  42  37    51  54  43    74  78  63    65  67  54    55  57  44    68  69  57    75  78  59    85  88  63    78  79  63    70  70  52  
 125  74  26   121  87  40    91  70  36    93  73  42   130  98  51   155 108  50   166 110  45   175 119  42   184 136  57   201 155  78   226 182 112   206 160  97   174 126  70   188 141  86   205 164 108   198 162 101   170 155  91   122 109  55    51  39   7    36  25  10    55  45  28    69  59  35    73  63  35    78  69  38    95  84  55   139 136  95   125 123  94   123 119  97   151 146 113    82  77  55    32  30  26    34  40  29    67  65  54    65  66  53    49  51  36    63  67  49   107 112  90    73  78  54   100 106  78   114 120  89    49  53  45    41  45  34    67  70  57    56  58  45    47  47  34    74  72  58    84  83  64    85  84  62    60  58  40    82  81  61  
 154  93  35   146  96  37   120  85  44    85  58  37    82  57  32   106  74  30   150 106  46   175 120  56   175 116  46   161 109  38   202 157  86   236 190 120   225 172 106   205 151  87   185 137  78   182 140  83   171 140  81   149 126  62    93  76  25    62  48  21    55  43  26    52  43  26    53  45  24    68  63  36    85  83  51   147 145 101   121 115  89   116 109  90   167 164 122    91  89  59    43  39  35    39  39  28    54  55  47    86  88  75    59  62  45    68  71  49    92  98  72    89  95  68   116 125  97   117 126  99    81  88  70    65  71  57    71  74  65    40  42  31    49  50  34    83  82  61    71  69  49    73  70  53    76  73  61    82  82  65  
 159  94  45   178 119  54   151 102  47    97  61  27    80  58  29    69  49  21    81  56  21   111  77  29   129  83  32   124  73  17   171 114  53   217 157  89   233 175 104   230 176 108   195 147  86   172 129  74   164 119  63   180 135  78   160 122  58   118  91  40    63  46  29    41  32  28    49  45  29    51  46  25    63  63  32   125 126  85   101  99  72   116 113  92   170 170 132    89  89  62    48  48  40    55  56  43    39  39  31    83  85  72    84  86  71    91  95  75    84  90  66    96 102  76    92  99  73    78  85  58    77  84  64    93  98  83    74  77  68    54  56  44    68  69  53    83  82  62    55  54  34    55  53  37    61  61  48    70  71  56  
 170 111  65   201 141  78   174 116  58   104  62  18    82  63  21    56  49  21    40  25  16    53  30  16    67  36   6    78  38   5   110  56  14   154  89  30   199 132  57   240 178  99   242 188 119   207 161 105   170 117  65   179 126  72   203 156  87   193 158  91    87  64  32    42  27  21    65  59  48    64  61  42    55  59  33   103 106  71    93  96  69   111 113  91   142 145 112   121 123  99    78  78  68    59  60  44    33  33  23    71  73  61    88  92  77    95  99  81    68  73  53    58  64  41    44  48  25    78  82  59    98 103  83    68  72  58    67  70  61    85  87  76    75  76  60    86  87  67    86  85  67    50  48  34    59  59  47    91  93  79  
 159 120  62   199 152  89   197 145  91   121  79  36    66  43  10    43  30  15    42  26  22    52  30  18    51  33  14    61  38  22    70  35  12   108  55   9   163  95  21   207 135  51   235 170  96   234 183 119   213 162 108   179 133  70   184 143  77   199 161  97   154 122  67    71  46  21    51  41  30    46  49  28    57  60  40    89  94  64    98 102  77    98 102  79    97 101  74   112 114  94    90  91  76    57  56  36    27  27  17    58  60  49    78  82  68    65  72  56    49  56  38    43  48  29    45  48  27   118 120  98   108 113  91    49  53  38    55  56  48    81  83  72    65  66  52    56  57  39    84  82  67    79  78  66    53  55  41    81  85  68  
 119  88  38   140 105  59   174 138  86   134 104  52    71  47  19    53  34  21    65  45  29    66  41  19    65  47  27    61  45  26    65  44  23   104  69  31   146  92  35   153  88  17   167 103  29   199 145  73   216 163 100   203 153  84   176 127  64   194 147  87   223 181 122   143 112  73    45  31  16    26  26  13    50  52  36    89  92  71   101 105  81    88  91  70    69  71  52    57  58  42    80  77  61    77  74  52    34  33  23    37  39  28    80  82  72    80  86  75    53  60  46    49  53  36    64  65  47   107 104  85   106 111  89    72  74  59    64  66  57    73  75  64    66  67  53    45  46  30    55  56  42    64  64  52    48  53  34   104 113  91  
 131 101  47    88  55  29   109  80  47   107  83  39    72  48  22    73  50  26    93  73  35    82  61  26    86  63  35    84  65  33    77  58  26    96  73  38   115  79  40   125  78  28   151  97  32   162 106  31   177 118  42   187 124  50   198 130  61   219 155  96   237 187 139   155 124  84    56  41  20    41  33  36    51  51  40    88  90  72    90  94  71    90  93  72    76  76  62    48  45  33    64  57  40    65  58  36    40  37  28    35  37  26    77  82  72    90  98  87    52  58  46    38  41  27    52  51  34    83  79  60    85  89  66    75  78  61    71  73  62    83  84  76    58  60  46    39  40  24    59  59  46    75  75  66    93 101  78   121 131 106  
 183 146  78   104  68  31    98  71  43    86  70  33    71  55  26    77  59  38    91  71  41    95  73  30   139 108  49   127 104  56    94  79  38    87  70  34    99  67  35   123  78  37   168 117  54   185 134  45   179 123  32   175 110  37   195 121  47   222 149  78   238 177 114   181 140  87   110  87  59    76  68  50    61  66  52    72  75  60    63  64  49    87  85  68    89  87  71    59  57  40    39  38  23    28  27  16    32  32  25    28  30  25    68  71  66    91  98  88    55  59  44    25  28  11    42  41  28    42  39  29    31  33  20    58  60  49    70  72  61    82  84  74    68  73  59    34  39  24    74  80  64   102 108  94    77  83  68    83  91  72  
 197 151  75   133  91  42   122  89  55   104  85  45    74  59  25    70  53  33    77  56  29    93  71  23   156 121  54   148 120  72    89  71  39    66  48  23    84  59  28   114  78  36   160 115  54   166 119  39   177 116  31   165  97  34   173 103  32   203 136  53   225 163  99   222 175 121   186 155 110   114  93  71    43  46  32    59  61  50    50  51  40    81  82  66    86  88  65    76  77  53    37  38  26    20  20  18    16  16  11    26  26  24    56  58  55   102 105  96    80  84  67    50  55  35    39  41  28    22  22  14    26  27  19    68  69  61    74  77  66    94  97  86   106 112  99    69  75  61    75  84  67    64  72  55    50  56  44    98 105  89  
 193 143  58   157 111  51   143 106  62   133 108  67    84  64  31    80  60  39    97  76  47   127 108  59   152 120  63   162 131  86    90  64  39    45  25  14    49  34  16    76  60  23   127  98  48   126  86  32   152  88  26   174 107  45   180 111  46   199 136  57   214 156  93   226 176 123   204 166 104   126  87  65    63  56  39    66  62  52    45  45  40    64  71  56    74  84  55    78  84  56    44  45  30    21  17  18    13  10   4    20  19  14    39  40  35    97 100  92    99 106  90    64  71  53    34  38  24    43  45  37    70  72  61    94  96  85    68  71  60    96  99  88   126 132 118   108 115 100    94 100  85    49  56  40    87  93  79   100 107  89  
 193 146  65   162 117  56   137 101  56   139 112  73    79  60  29    71  57  34    78  66  41    93  83  45   127  98  53   191 159 110   161 128  89    84  61  43    36  26  18    32  28   8    69  52  24    85  54  26   133  86  39   178 124  60   186 123  53   184 119  50   197 136  75   219 169 105   209 165 103   165 121  74   126 106  75    93  79  61    55  48  44    69  72  66    72  82  61    64  72  45    53  54  36    31  26  19    19  16   5    19  17  12    31  32  27    66  70  63    94 101  85    69  77  59    29  36  20    47  53  42    70  73  62    89  93  82    63  66  55   101 105  93   122 126 112    99 104  90    85  91  77    55  60  46    59  66  50    71  79  58  
 187 144  76   150 110  52   122  89  43   124 101  61    75  58  29    63  53  33    63  59  39    61  58  36   115  92  55   222 192 137   231 197 136   133 106  66    60  47  32    34  28  23    39  30  17    71  54  33    99  77  33   121  83  37   174 122  46   180 117  49   161 102  49   182 134  70   211 169 103   207 164 101   194 159 110   144 116  83    96  78  62   105  99  90    74  76  63    54  59  40    62  65  45    62  60  45    34  34  21    29  29  22    29  31  26    47  52  45    94 100  86   103 111  93    55  62  46    36  41  29    45  48  36    82  86  73    70  74  61   101 105  91    94  98  84    44  48  34    35  39  25    45  49  35    57  63  48    72  80  60  
 167 122  69   145 105  52   136 101  52   135 108  63    98  79  45    70  58  33    64  58  42    60  56  47    95  77  49   196 169 118   243 208 138   176 143  79   104  79  45    71  57  45    68  63  47   104 100  72    74  70  37    67  44  15   151 111  48   168 120  51   123  76  33   118  77  29   180 138  76   221 174 111   215 165 111   182 139  91   143 113  74   127 109  84    61  53  37    37  35  23    46  48  33    70  73  57    74  76  60    46  48  38    29  33  27    48  53  46    83  89  76    91  98  81    64  69  54    23  25  14    28  32  18    72  76  62    76  80  66    93  97  83    72  76  62    20  24  12    19  21  10    42  45  33    61  68  56    73  80  63  
 155 108  61   146 100  50   147 109  54   142 109  59   127 103  60    86  68  38    72  59  44    67  58  55    87  75  52   140 117  74   224 189 121   230 192 114   166 134  77   111  90  61    79  74  46    70  74  34    46  46  34    46  31   5   106  76  35   115  84  23   109  77  31    81  45  17   111  67  21   150  96  39   174 113  62   174 123  66   177 138  80   142 114  69    73  58  32    40  33  23    31  32  25    53  58  50    71  75  58    36  41  29    27  32  26    46  53  46    68  74  62    57  62  47    85  87  73    46  46  34    35  39  25    63  68  53    78  82  68    89  93  79    71  74  61    45  47  36    50  52  41    47  49  38    28  35  27    38  44  30  
 147 106  63   152 113  62   152 114  57   145 109  53   138 107  59   108  82  50    88  66  47    82  64  54    63  67  31    59  34  18   147  98  61   239 187 104   199 158  76   102  73  26    65  46  25    72  57  40    37  37  27    41  36  20    50  39  17    65  46  23    86  59  37    85  51  28    71  35   5    82  45   8   160 102  40   193 134  74   202 148  87   182 137  77   159 126  83   100  79  55    61  55  35    54  60  30    64  58  44    57  57  47    24  26  21    38  41  34    64  64  52    56  55  40    80  83  66    85  94  77    83  90  57    77  80  59    54  54  45    67  64  57    83  81  68    83  86  65    83  88  68    68  75  57    28  36  28    35  40  26  
 146 115  74   152 122  78   158 131  79   168 145  84   177 159  98   152 137  87    91  77  48    69  57  44    52  44  43    33  23  18    47  29  16   115  83  42   171 130  56   146 106  40    88  63  27    73  66  41    40  38  24    50  49  32    47  48  27    36  32  12    55  40  19    89  59  34   118  74  39   155 104  59   196 138  89   188 131  76   201 147  83   205 158  95   200 162 111   165 138 103   119 105  78    81  72  49    68  60  45    47  44  34    25  27  22    26  28  23    49  49  39    62  60  46    67  68  52    75  81  65   131 137 108    96  99  79    35  35  24    40  37  30    59  60  46    66  69  50    62  66  47    80  87  71    69  75  65    96 103  84  
 148 128  84   142 121  80   132 114  70   181 168 111   209 202 135   201 194 133   140 134  91    92  85  59    61  53  45    50  50  37    44  45  33    49  35  22    85  54  24   120  84  35   103  79  31    74  64  30    55  53  28    71  75  51    44  52  31    21  26  11    36  31  16    77  55  34   135  95  57   174 123  74   173 122  76   170 120  60   201 150  81   217 168 102   191 147  87   177 141  87   168 140  95   114  91  57    52  39  21    34  28  16    23  24  19    25  27  23    32  32  24    50  47  35    62  59  44    71  71  57    92  96  74    82  85  67    44  45  32    56  57  46    66  67  53    38  41  25    48  52  36    77  83  68    86  92  81    99 107  85  
 155 135  84   140 121  81   101  84  53   159 148 110   178 173 120   185 180 122   181 176 125   153 145 106    91  82  52    87  85  52   101 103  69    92  90  67    71  59  48    71  56  34    77  64  30    76  65  38    93  94  56    91  95  63    47  50  27    24  26  14    34  30  22    53  39  25    91  68  37   110  81  36   122  85  43   142 103  49   168 124  69   180 131  79   161 112  59   172 128  68   189 150  92   148 111  63    78  57  31    45  32  15    18  15   8    37  39  34    42  43  37    29  26  14    37  34  19    52  51  36    46  48  33    52  54  39    61  64  47    93  97  81    63  67  53    21  24  12    29  32  20    58  61  49    71  74  69    61  66  50  
 175 150  96   155 133  93    99  82  57   133 122 101   130 125  93   127 124  81   139 135  89   133 126  82   120 100  58    92  85  39    71  72  39    68  71  51    67  68  48    58  54  35    60  58  36    78  80  48   100 104  67    88  89  55    66  65  38    40  38  21    32  25  18    33  26  16    37  34  12    56  53  21    95  76  47    98  73  43   102  67  40   113  68  41   124  74  38   135  84  36   140  94  41   163 118  69   156 125  87    86  66  37    45  38  23    44  46  38    36  37  31    15  15   3    32  30  17    37  35  22    34  34  26    46  48  34    72  77  57   107 111  92    58  64  50    26  29  20    45  48  39    50  52  41    33  35  34    57  60  48  
 172 150 100   158 139  97   110 100  69   115 111  88    84  84  63    70  71  46    88  88  55    92  89  54   123 100  57   105  94  50    57  55  29    40  41  32    41  42  28    27  27   7    34  37  14    58  62  33    52  56  34    53  56  30    75  78  50    57  58  33    36  35  19    34  32  20    23  24  10    41  42  24    68  67  46    61  49  35    77  52  36   122  88  56   155 113  68   147 100  49   135  86  34   191 141  89   215 176 127   164 138 100   119 108  88    60  60  50    24  27  18    16  19   8    63  64  51    62  63  49    27  26  23    44  46  33    73  78  56   111 119  96    73  79  65    23  28  21    41  44  38    26  27  19    24  26  22    68  72  57  
 141 126  87   126 114  79   101  98  67   100 103  79    66  72  51    64  70  51    85  86  66    75  73  51    95  82  54   108  96  68    67  62  33    34  33  11    33  34  21    28  30  11    31  33  12    44  41  31    31  33  20    48  50  32    74  78  52    65  70  42    57  60  38    58  60  42    35  35  19    34  34  18    35  40  18    48  45  28    86  73  48   148 122  76   179 142  77   173 129  66   169 121  63   213 167 105   227 187 133   158 130  94   114 100  79    62  62  49    21  25  17    42  46  36    96  98  83    63  64  48    36  35  30    31  34  23    43  48  30    89  97  77    73  80  65    27  32  21    14  17   9    16  17  10    24  27  19    93  98  79  
 112 114  89    88  91  69    98 101  82    73  76  59    63  64  50    76  74  61    71  67  52    51  44  29    41  37  20    56  53  36    49  46  29    35  34  16    40  39  21    38  39  21    30  31  13    29  30  12    47  45  24    75  73  52    68  66  45    45  44  24    54  56  35    72  74  54    42  45  25    38  41  21    35  34  19    40  38  18    71  62  37   137 116  72   189 156  89   178 133  72   161 115  62   207 166 101   219 186 132   107  79  52    64  46  34    53  50  36    37  43  29    93 100  87    78  81  64    48  47  27    60  60  45    51  53  42    37  40  32    40  46  36    67  73  58    60  64  47    34  38  24    28  30  21    54  57  45   109 113  96  
 125 125 103   108 110  89   117 120 101    63  65  49    56  57  42    63  61  47    62  59  42    56  50  34    23  20   4    29  26  10    31  29  13    29  28  12    31  29  13    35  36  19    37  38  21    33  34  18    44  42  21    72  69  49    58  57  37    35  34  16    32  33  15    48  49  33    45  47  31    39  41  26    37  35  27    41  37  24    59  48  27   119  96  54   204 169 105   182 135  80   153 105  60   218 175 120   228 191 130   106  75  37    50  32  20    62  58  46   106 114  83   120 129 104    36  39  29    32  32  21    72  71  64    61  62  54    74  77  67    47  53  41    30  36  25    55  60  49    60  63  51    60  61  48    81  88  69    98 105  85  
 116 115  95   144 143 123   131 133 112    69  72  53    68  70  52    74  75  58    62  61  43    48  45  28    23  21   6    21  19   4    23  21   6    22  20   5    16  17   1    22  23   7    31  32  16    32  33  17    36  33  14    52  49  31    51  50  32    46  46  28    31  32  16    22  24  10    29  31  16    34  36  22    40  39  34    49  46  31    68  56  34   110  85  42   203 165 101   207 160 105   171 122  79   227 184 132   238 195 134   122  88  50    56  38  24    98  95  79   147 153 121    89  95  71    23  25  20    43  44  43    68  66  67    49  50  42   102 106  91    81  87  73    29  34  27    26  32  25    60  63  52   103 106  89    82  90  67    92 100  79  
  76  73  52   125 124 103   103 105  84    82  85  64    90  93  72    60  61  43    45  44  29    34  33  18    38  36  23    36  34  21    29  27  14    17  18   5    11  12   2    10  11   1    18  19   5    26  27  13    31  28  11    36  35  18    34  33  18    39  39  23    48  49  33    28  31  13    25  28  10    50  54  36    62  63  48    50  48  27    67  55  29   113  86  42   195 155  89   210 162 103   155 107  57   198 158  97   217 170 110    88  53  23    73  55  41   103 100  81    94  94  77    71  71  59    42  43  36    67  68  69    63  63  60    63  65  54   131 136 120   126 132 118    93  99  91    44  49  43    41  44  33    69  73  56   116 123 101   113 120 102  
  91  86  63    98  96  73    92  92  67   127 129 106    84  87  66    40  43  26    35  35  23    30  28  18    26  26  15    32  32  20    32  32  21    30  30  19    28  28  17    23  23  11    18  18   6    20  20   8    27  25  12    32  30  16    33  31  16    36  37  20    48  50  31    42  46  23    62  66  43    84  89  65    57  60  36    45  44  19    66  51  27   112  82  45   163 120  62   160 110  54   126  79  28   184 145  77   194 147  82    86  51  22    71  56  44    53  50  36    49  45  31    69  64  49    85  83  67    92  95  84    63  65  49    92  95  79   112 119 102    86  93  77   115 123 109    98 104  92    40  44  33    32  35  23    88  95  78   136 143 128  
 119 114  88    95  92  66   106 106  79   135 137 112    67  70  49    46  48  33    46  46  37    34  33  27    21  21  11    20  20  10    18  18   8    19  19   9    23  23  13    26  26  16    25  25  15    22  22  12    27  25  13    39  37  24    36  36  20    42  43  24    46  50  26    40  44  18    71  77  47    73  80  49    51  54  27    50  48  25    60  42  28    84  51  27   122  75  30   134  82  36   149 101  52   183 144  75   189 143  67   100  69  28    52  38  33    30  27  21    66  61  35    90  82  51   102  98  72    89  93  66    87  92  64   106 111  90    97 104  88    54  63  46    89  98  79   125 133 114    56  62  50    22  24  19    41  47  35    95 101  88  
 129 126  89   112 112  78   108 111  82   104 112  87    66  73  53    72  77  62    48  50  34    40  41  25    32  32  20    19  20   7    13  13   1    12  13   1    17  19   8    25  25  15    26  26  18    29  29  20    29  29  16    42  42  28    38  38  21    38  38  17    57  60  34    55  58  30    46  51  23    54  59  33    74  73  46    65  62  35    64  44  21   110  65  31   166 110  54   164 112  56   181 135  80   184 141  70   176 129  68    78  51  20    30  22  17    39  37  22   102  93  45   128 112  49   117 105  51    85  84  40   100  96  67    95  93  72    90  92  81    35  42  31    38  46  31   103 110  91    79  84  68    34  35  25    33  36  24    40  43  36  
 128 125  89   133 134 100   111 117  87   116 125  98    99 108  85   119 127 106    91  94  75    35  36  18    51  52  38    28  29  15    19  19   7    28  28  16    31  31  21    29  29  19    29  29  21    22  22  14    27  27  15    28  28  16    27  28  14    27  28   8    57  59  35    59  63  38    25  28   7    36  39  24    67  60  40    81  76  47    95  74  31   169 123  63   221 163  99   189 141  79   172 135  78   153 116  63   138 100  57    61  39  11    39  34  16    64  63  33   115 105  52   142 128  64   117 106  54    83  79  43    86  80  55    81  78  61    95  95  87    41  46  40    23  28  21    70  76  65    65  67  54    43  44  31    62  63  47    38  39  33  
  91  90  63   106 109  79   106 113  80   128 138 104   120 131  99   144 153 126   142 147 125    62  65  46    43  45  31    43  45  31    38  38  26    37  37  25    30  30  18    24  24  14    26  26  16    14  14   4    19  17   5    23  20  11    24  24  17    20  21   7    35  38  18    50  53  32    32  33  20    20  20  15    42  38  18    93  88  59   122 105  50   179 140  71   223 169 109   202 157  88   146 116  51    87  61  28    82  63  34    53  40  15    56  50  22    79  77  40   111 107  62   132 126  82    56  54  22    45  44  27    54  50  39    59  60  46    74  76  64    45  50  42    22  27  23    36  38  32    48  48  35    65  64  45   106 110  75    77  79  56  
  56  58  37    73  77  52   111 118  86   107 117  80    91 103  65   103 112  81   126 131 108   100 104  84    53  57  43    55  58  44    47  47  34    32  32  19    32  30  18    32  30  18    23  23  12    21  21  10    25  22  13    23  21  13    19  18  12    17  18   8    21  23   8    50  50  32    64  61  45    36  32  18    48  48  26   109 106  80   107  94  55   129  95  47   208 160  99   218 173  86   155 126  46    88  67  30    51  49  30    33  27  11    38  30  15    72  65  45   126 123  98   107 110  82    56  60  40    33  37  25    48  48  43    50  53  39    47  51  34    55  61  44    58  61  48    54  57  39    77  80  50   102 104  62   143 149  93   129 132  89  
  50  56  36    64  70  47   114 122  91   120 130  95   110 120  85    69  79  47    66  72  49    84  89  70    54  61  46    44  48  34    55  55  43    58  56  44    61  58  47    62  59  47    34  34  22    21  23  10    25  22  14    22  22  11    19  20   8    13  13   2    25  23  12    59  54  36    82  73  39    84  75  29    66  66  35    89  85  64    74  65  45    76  52  20   178 139  71   213 170  66   153 119  34    83  61  26    40  42  23    31  28  15    41  34  27    77  70  64    87  86  77    42  46  31    82  88  69    86  92  73    49  53  39    47  52  33    67  72  47    89  95  67    88  93  64    86  92  56   100 107  59   114 120  63   114 122  68   113 119  75  
  86  96  73   100 109  84   124 133 105   132 142 113   105 114  85    64  72  47    56  64  42    66  72  55    55  65  49    29  34  20    36  36  24    42  39  27    50  44  34    67  63  52    56  57  43    39  42  28    23  21  15    26  27  11    32  34  12    25  23   9    38  30  23    55  42  20    82  68   7   148 134  43   110 100  39    68  56  26    70  59  42    72  59  29   138 109  51   200 159  67   152 119  40    61  41  17    48  45  18    82  81  53   103 105  78   109 111  93    48  48  41    19  19  12    61  63  43   119 125  93    92  98  65    71  77  46    85  90  59    85  91  58    86  93  54   104 112  68    99 108  60    92 101  52    82  90  48    83  90  52  
  82  92  65   119 129 104   141 148 124   126 134 111    40  49  27    48  56  34    82  89  71    77  83  66    70  81  65    40  46  32    30  30  18    30  26  15    26  20   9    26  22  10    26  28  13    26  28  14    27  25  20    59  61  40    61  64  36    34  32  15    41  30  24    69  52  27   110  91  13   177 160  34   170 147  42    88  65  20    56  43  17    77  69  41   107  81  52   154 116  51   142 114  40    52  39  19    88  78  44   141 141  91   154 163 105   106 115  72    34  35  21    33  29  26    44  44  25    99 104  64   119 126  77   106 113  72    97 103  69    74  80  45    81  87  49   100 109  67    77  87  51    58  67  38    81  89  48   108 116  75  
  65  76  58   115 127 103   162 173 143    90  99  71    24  27  10    41  41  33    51  48  40    75  74  60    84  98  79    81  91  75    40  46  33    20  20  11    23  20  11    20  18   6    22  20   7    17  16   2    43  45  30   101 104  83    46  47  29    33  22   3    84  57   8   151 116  18   163 123   2   177 132  15   170 140  29   123 103  38    72  62  35    60  54  27   101  88  49   120 101  60    96  81  41    74  68  25   111 108  66   140 140  83   154 159  93   113 119  56   107 113  52   121 126  61   102 103  44   110 110  60   107 109  56   104 104  67   113 113  80   100 104  68    82  86  58    73  80  46    63  70  34    62  67  45    71  88  43   104 122  72  
  89 100  80   151 163 137   155 165 136    92 101  74    51  54  35    54  54  43    43  41  28    34  32  17    61  73  48    98 107  85    81  85  69    47  47  35    36  34  26    21  19  11    24  24  15    49  50  40   101 106  78   105 108  87    41  36  23    64  47  14   127  97  23   165 129  15   168 129   1   157 118   1   139 110  15   106  86  27   106  97  61    92  89  45   104  93  51   104  85  57    87  73  41    93  91  37   131 129  79   147 147  87   152 157  91   126 132  68   148 155  88   185 192 117   147 154  80   111 113  48    83  81  41    66  64  36    98  97  65   128 131  91   106 112  72    76  83  35    78  88  34    66  75  34    75  92  46    92 110  59  
  65  73  52   130 140 112   151 159 130   106 111  87    59  62  43    66  67  48    58  58  39    28  26  11    28  32  19    46  48  37    49  50  39    60  60  48    63  63  51    52  53  39    71  73  56   101 104  85    98 104  70    68  68  51    45  33  24    80  55  16   133 100   9   163 126   1   161 127   1   150 117   7   127 103  21    99  83  23   102  97  44   126 126  64   100  93  41    70  55  23    81  70  32   118 117  51   155 152  96   146 146  84   147 150  88   109 114  55   118 125  59   173 182 100   154 163  78   111 117  37    85  84  36    68  65  29    96  93  51   129 131  78   146 149  97   130 138  76   121 132  65   106 116  60    93 110  57    95 111  58  
  72  78  57   139 146 118   148 153 127    69  73  54    47  50  32    95  98  73    87  90  64    39  39  24    21  18  14    22  20  15    15  15   6    25  25  12    54  56  39    80  83  63    80  84  61    59  62  37    31  35  12    37  34  21    52  37  30    64  37   8   106  72   1   143 111   1   138 112   3   119  94  14   114  96  35    91  80  26    77  73  24    98  96  48    75  69  29    66  54  23    78  67  33   108 102  59   141 138  76   152 151  91   148 147  96    88  90  46    79  85  28   145 153  74   159 169  82   128 136  55   107 110  47    95  95  45    96  95  41   112 111  51   139 140  79   151 156  84   155 164  84   133 142  73   113 126  66   123 136  76  
 105 108  91   122 126  99   100 104  81    20  22  10    26  27  13   100 103  72   115 118  89    47  49  34    41  39  25    38  36  22    22  23   7    19  22   4    52  54  37    57  58  42    28  26  12    26  24  11    17  16  10    28  25  13    66  55  43    71  49  34    93  65  21   128 105  27   107  89  16    72  58  13    69  59  29    57  50  19    57  52  21    57  52  24    64  59  21    85  79  26    96  90  30    86  77  20   126 122  52   163 159  99   128 125  84    66  65  34    74  78  34   131 140  69   159 171  88   138 149  71   109 118  51    84  86  36    77  74  28    85  79  28    96  91  38   128 126  55   147 153  63   143 149  65   123 130  66   147 155  88  
  49  51  36    50  52  28    79  80  62    32  31  28    17  17   8    61  65  32    98 102  71    29  29  19    33  31  16    60  61  44    43  45  25    42  45  24    67  70  51    59  57  41    38  34  22    27  20  11    17  14   9    23  22   6    55  53  33    62  54  38    66  50  31    77  63  31    52  45  11    46  44  20    58  58  39    80  79  59    59  57  36    69  66  35   129 127  77   128 126  52   120 117  26   124 118  21   149 147  61   172 169  99   121 118  74    62  61  33    87  92  51   143 153  84   154 166  84   136 147  70   102 116  46    70  76  32    74  71  38    75  65  36    69  55  25   111 100  49   121 117  43   132 129  56   127 128  63   141 144  75  
  69  72  57    74  77  56   109 111  94    46  45  39    28  29  18    63  66  38    81  83  58    19  20  11    13  10   2    26  25  15    37  38  26    44  47  30    76  78  57   106 105  84    74  70  52    38  31  15    32  26  20    47  46  31    72  72  49    74  73  50    44  39  24    46  41  29    67  67  50    73  77  56    69  75  49   118 120  99   132 132 110   127 126  98   107 104  69    76  71  27    82  75  17    98  90  18   122 120  36   168 167  90   158 155 105    94  93  59    90  96  51   140 150  84   143 155  76   132 142  65   116 131  59    96 105  55    90  88  56    77  67  48    43  28  17    82  71  43   109 103  56   120 114  64   152 153  98   144 146  80  
  77  86  65    52  59  37   103 106  86    94  96  75    64  64  46    63  63  47    55  56  44    14  15   5    17  14   3    24  21  14    22  20  14    26  27  15    44  44  25    92  92  68    86  84  63    39  34  18    37  28  26    57  51  37    99  96  71   119 120  91    92  94  71    87  89  71   119 123 102   132 136 113   117 122  98   133 136 114   114 116  95    72  74  55    47  45  31    37  34  20    33  29  11    36  32  11    70  69  21   160 160  86   187 182 126   149 148  98   130 137  79   151 162 103   148 158  87   130 136  65   111 123  55   113 123  63    97 101  57    69  67  42    35  30  19    53  50  37    86  85  61   139 140 105   167 173 138   117 121  77  
  86  96  70    56  65  39    67  70  47    81  83  61    51  50  30    40  37  22    38  35  24    17  14   6    15  15   3    30  27  18    26  22  14    30  28  14    37  35  13    48  46  22    58  55  36    26  23   9    26  22  14    29  25  12    48  47  26    83  82  60    76  76  57    73  73  54   116 117  94   137 140 112   108 111  85    59  61  42    27  27  15    28  28  16    45  45  30    60  60  43    32  32  18    21  20   9    50  44  20   134 130  70   182 177 111   166 164  98   160 165  99   174 183 123   164 171 105   128 131  67    96 110  35   115 126  57   106 113  59    79  80  46    47  45  29    32  29  19    49  48  33   144 144 122   173 176 154   108 107  89  
 103 113  84   111 120  91    59  63  38    43  43  22    33  30  12    46  41  27    34  27  17    22  18   7    21  21   9    36  34  23    40  32  21    60  52  34    62  56  30    51  45  19    48  45  26    28  26  14    18  18   6    20  20   8    18  19   5    55  53  39    54  52  37    59  58  38   116 114  89   123 122  91    64  63  42    39  38  22    18  16   4    13  13   3    22  23  10    64  66  53    54  55  47    21  22  16    33  24  16    98  91  44   164 158  88   150 146  75   145 147  84   166 172 112   167 173 109   141 146  80    89 101  29   112 123  54   134 142  82   113 118  73    62  64  38    53  54  40    87  87  76   157 157 145   165 169 144   148 145 133  
