P3
50 50
255
  94  88  33    80  70  32    60  45  14    87  72  32   113  97  48   115  99  54   125 110  69   143 128  84   161 149 111   155 152  98   122 122  84   109 113  99   126 134 122    94 104  91    94 100  92    54  60  48    32  32  21    58  59  44   109 111  87    91  92  62    67  68  37    80  80  54    79  78  58    53  51  38    43  39  27    49  43  29    60  52  30    86  76  45   127 120  79    69  63  28    28  24   1    19  15   4    18  21   3    30  33  15    75  78  59    80  83  67    50  52  39    25  26  17    43  44  38    63  64  61    43  43  33    35  35  26    39  41  28    60  62  48    76  79  63    63  62  45    42  38  19    50  43  25    73  68  47   102  97  76  
  97  87  41    88  74  37    82  64  33    75  57  22    90  72  31   119 103  58   122 108  63    84  71  29   102  90  52   149 144  90   120 120  81    91  93  77   108 113  99   125 130 118   138 140 132   132 135 120    95  95  82    85  87  73    96  98  79    86  88  67    63  65  43    50  50  29    67  66  48    85  84  68    55  53  43    39  33  24    36  28  17    57  48  31    91  84  60    60  54  33    20  18   6    17  17  13    13  14   9    14  15   9    15  17   8    22  25  13    35  38  25    35  38  24    51  56  43    60  64  53    40  40  33    19  20  13    15  18   8    42  45  33    58  60  47    54  53  39    79  77  62   131 126 111   177 171 157   200 196 184  
 118 102  53   123 108  59   116  99  58    71  52  21    75  57  27   102  87  50   115 102  67    75  61  34   107  97  58   149 142  99    78  74  44    52  50  33    64  66  42   123 125 101   143 142 126   165 164 144   160 161 145   122 123 108   127 128 115   138 139 127   127 127 114    99 100  85    97  98  80   104 105  86    74  74  59    54  50  41    48  40  36    43  34  28    44  36  26    37  33  23    20  20  15     9  12  11    16  10  14    18  12  14    14  11   8    11   9   4    25  24  13    34  33  22    47  47  35    60  60  48    29  31  27    13  15  11    10  13   7    42  44  36    83  84  75   129 129 118   180 179 168   204 201 189   197 194 182   168 164 157  
 111  93  43   118 102  49   156 141  96    97  80  53    65  49  27    80  65  38    95  82  56    69  55  36    94  88  50   103  96  67    56  48  37    53  48  35    74  73  33   139 139  94   119 116  83   133 129  99   176 175 153   143 143 124    92  90  77    82  80  71   106 104  96   116 114 102   143 144 127   150 152 133   138 137 114   114 110  93    95  86  79    86  77  70    87  80  69    65  63  51    49  51  42    34  39  34    33  30  29    30  27  24    27  25  21    24  24  17    30  30  23    32  32  26    37  37  32    60  61  57    45  47  44    31  32  29    32  33  28    97  97  92   146 147 139   159 159 149   169 169 158   146 145 133   126 125 106   112 109  96  
  82  65  33    83  69  32   117 104  69    75  62  37    51  40  18    56  46  19    96  86  52   121 112  75    80  78  39    53  48  23    46  39  33    60  55  37   102 101  50   129 128  72   102  99  58   108 103  64   157 154 124   156 153 126   106 101  82    56  50  37    44  40  28    49  46  34    95  93  80   130 128 113   141 136 107   121 114  91   113 101  85   124 112  97   138 130 112   120 116  96   118 120 104   110 113 103   102 109  97   111 118 106    86  96  83    84  94  80    97 108  98    94 106  99    89 100  98   103 114 114   102 103  99    80  80  75    65  62  57   100  97  90    99  95  86    83  81  69   101  99  86    74  75  60   100  96  68   109 104  83  
  64  50  26    53  41  17    55  45  20    53  46  20    50  43  20    45  37  12   109 101  65   145 138  86    79  83  39    54  53  21    42  40  19    59  55  25   103 101  53    96  93  49   102  95  62   128 124  79   121 115  78   106 100  65   154 147 117   148 142 117    86  79  61    42  36  22    44  37  27    65  58  50    85  72  49    76  60  40    81  63  45    88  71  51    88  76  50   100  92  68   101  97  80    79  79  69    88  90  80    94  99  88    85  90  78    99 106  94   102 109  98    77  86  78    71  80  75   106 116 112    97  97  89    64  61  52    66  61  50    66  59  48    59  52  38    59  53  38    55  54  35    73  72  52    89  84  54    76  70  46  
  85  74  39    75  65  37    66  60  34    65  61  35    65  61  39    55  49  28    85  79  47    98  92  46    82  88  43    84  88  42    77  79  35    69  69  23    76  73  28    71  67  35    78  72  44   116 112  68   123 116  76    84  77  41   113 106  72   150 144 114   156 149 123    96  90  69    41  33  21    45  38  31    91  72  57    73  54  39    65  44  28    68  50  31    74  58  33    95  84  56    77  68  48    43  35  25    35  27  24    41  33  27    57  48  40    73  64  55    65  55  45    45  38  28    50  45  38    95  92  85    83  77  65    48  41  28    56  49  32    74  66  49    74  67  49    66  60  42    61  59  40    72  70  51    83  77  47    57  49  26  
 106 101  51    96  90  53    67  61  37    53  51  32    69  68  47    74  74  45    66  68  34    71  71  37    63  67  32    72  77  33    89  94  41    86  88  38    69  68  28    77  74  41    82  78  42    97  94  51    98  94  56    68  64  30    75  70  40    89  85  54   125 121  89   115 111  82    82  77  57    59  53  41    95  79  68    69  55  41    46  32  19    51  37  25    75  60  40    98  82  51    96  77  47    73  49  28    43  32  22    39  24  11    55  34  19    77  53  36    78  54  35    55  38  18    73  61  42    93  86  67    78  63  50    55  42  21    68  58  28    80  73  42    75  70  44    65  60  41    60  58  40    77  74  54    89  83  51    65  56  34  
 106 107  53   117 118  72    74  75  42    44  46  20    56  57  32    68  68  41    59  59  30    72  71  42    60  64  31    45  46  19    52  51  29    55  52  33    60  58  35    78  74  43    88  86  46    99  96  50    78  74  46    67  63  33    92  89  58    72  68  39    67  63  36    79  75  52   116 113  92   122 119 100   117 115  98    69  67  51    33  27  15    47  37  25    81  66  53    89  71  52    86  63  35    96  71  35    85  55  26    83  51  21    89  56  23    98  66  32    82  55  22    56  37   6    73  62  33    72  66  38    80  68  48    70  62  34    91  84  49    98  94  58    72  67  36    69  65  39    66  63  37    70  69  41    64  53  29    54  42  24  
 106 112  60   120 129  70   115 124  66    73  80  33    50  55  25    44  46  24    55  54  26    74  74  35    78  81  39    58  59  28    45  44  24    39  37  24    45  42  27    42  39  19    63  59  32    73  69  40    49  43  26    68  66  42   108 107  77    80  79  51    60  57  37    48  45  29   105 103  81   156 155 128   151 155 136    84  87  70    47  48  28    53  48  27    51  42  25    45  28  19    57  38  20    88  70  33   111  79  33   131  97  52   127  93  49    96  63  23    77  48  14    66  46  18    73  60  40    66  59  40    82  74  55    92  87  58    82  79  44    96  93  57    83  78  49    78  74  49    68  64  37    58  54  25    53  42  24    53  44  25  
 105 112  69   104 114  62   104 115  59    93 103  55    80  85  55    59  60  41    57  55  33    53  52  23    59  61  23    65  67  29    53  55  18    60  61  30    70  68  46    46  43  25    50  48  30    41  38  19    37  33  21    51  48  29    79  77  52    49  48  28    41  39  24    54  53  40    86  85  65    76  76  50    87  88  70    92  91  73   101  98  73    95  92  61    61  56  34    28  20  13    31  23  16    57  51  33    65  48  20    70  51  22    73  53  24    67  47  17    62  43  17    66  50  27    75  64  47    51  41  28    59  56  42    87  85  64    66  65  38    69  67  42    69  67  47    76  72  53    62  57  38    50  46  21    41  34  14    47  43  18  
  77  81  44    74  78  43    63  68  35    78  85  50    86  92  56    82  85  54    59  58  35    35  32  18    45  45  22    64  65  37    62  63  31    80  82  45    92  93  58    83  84  51    85  84  57    63  62  38    50  49  32    42  42  24    49  48  32    35  34  20    30  31  17    53  54  39    68  70  52    37  39  20    61  59  44    96  92  74   102  97  75   111 107  80   117 113  89    77  74  59    37  35  24    26  26  18    19  16  13    18  14   6    35  30  17    58  50  31    45  37  14    51  45  19    88  84  56    49  45  20    41  42  32    72  74  58    73  73  52    59  58  38    59  56  41    75  72  57    69  64  44    63  58  35    60  53  26    51  49  16  
  71  71  33    62  63  27    91  94  55    85  92  48    76  83  33   100 106  60    91  93  56    62  61  34    42  42  20    48  47  29    48  46  30    62  62  36    74  76  38    95  97  58    93  94  62    62  61  39    60  62  40    55  56  40    50  50  40    49  49  40    43  45  31    41  43  26    38  40  25    32  34  23    42  42  28    70  69  54    56  51  38    61  54  44    93  87  70    98  95  70    77  74  52    39  37  25    20  22  15    20  22  11    28  29  12    45  45  22    45  44  18    50  51  23    78  79  52    50  52  27    41  44  31    61  65  46    61  64  42    55  56  35    66  65  48    72  69  52    67  62  41    66  61  33    78  65  33    70  62  23  
  83  80  40    68  71  26   108 115  64    93 102  46    78  84  29   104 105  56   113 116  72    97 101  62    67  66  49    49  47  30    35  34  16    38  38  14    63  63  34   100 101  72    80  80  56    53  52  34    62  62  45    58  57  41    49  48  31    67  67  46    64  65  44    47  47  27    32  31  18    33  31  24    32  32  20    58  57  44    57  53  40    37  32  23    37  31  24    44  39  29    46  45  29    49  49  33    62  59  37    58  56  32    39  39  14    30  34   8    44  48  22    49  55  27    50  56  27    46  52  22    42  44  27    70  72  56    55  54  42    46  44  29    58  55  36    55  50  26    44  38  14    68  61  34    89  75  36    84  73  24  
  72  69  34    63  68  24    92 104  54    92 103  47    84  89  34    83  85  36    85  88  45    81  88  47    69  68  50    51  50  32    45  44  26    46  43  23    46  45  23    84  82  59    86  85  57    55  54  25    49  46  32    52  51  32    71  71  47    79  79  51    74  74  46    52  52  31    32  30  15    36  34  22    38  38  26    65  63  50    84  81  66    41  37  26    24  19  15    24  21  16    23  23  13    36  37  21    82  79  47    96  95  65    73  75  47    37  41  16    35  40  17    46  51  28    42  47  23    36  41  17    38  43  14    62  65  46    49  48  39    39  36  27    56  53  34    61  58  25    54  51   9    74  72  26    94  83  24    98  87  24  
  57  58  28    61  69  32    77  90  45    75  89  39    75  83  32    75  77  30    73  75  33    67  72  32    55  55  30    51  50  29    53  52  33    56  53  35    35  30  10    56  52  27    89  84  54    68  64  30    45  44  24    66  66  41    93  93  65    73  74  42    78  79  48    70  70  44    40  39  19    37  34  19    31  31  19    50  48  33    89  86  71    48  44  33    30  25  19    30  27  22    22  22  10    30  33  14    52  52  19    70  71  39    61  64  36    36  42  16    34  39  17    39  44  24    35  40  20    32  36  16    43  46  22    56  58  39    51  51  36    46  45  22    76  74  33    88  87  28    88  88  16    88  89  12    98  90   8   114 105  30  
  53  52  28    50  59  28    57  73  32    64  81  32    68  78  29    78  81  37    81  83  43    62  66  28    56  59  28    59  59  30    54  54  25    56  55  26    51  47  19    52  46  21    70  63  39    69  62  40    63  62  41    77  77  51    70  71  39    58  59  25    73  74  40    70  70  42    43  42  21    31  30  12    27  27  15    35  33  18    70  67  51    57  53  41    35  30  23    33  31  23    26  28  14    32  35  15    37  38  12    40  44  19    38  42  18    35  41  18    40  46  23    40  45  22    34  38  14    32  36  10    37  33  14    61  56  35    77  71  43    74  70  26    95  92  25    99  96  12    96  94   2    91  87   1    98  93   6   114 107  38  
  63  59  35    53  58  26    57  72  30    72  89  42    71  82  35    80  84  42    78  79  44    53  54  23    54  57  28    61  62  30    63  65  27    59  60  19    65  65  26    61  60  28    58  53  32    59  53  38    60  59  39    56  56  31    47  47  17    83  84  51    86  87  54    58  58  31    42  41  20    34  32  16    34  33  21    39  37  22    55  52  35    64  60  48    34  31  22    32  32  23    35  38  23    39  46  23    37  40  21    38  44  25    37  43  24    34  42  19    38  47  21    46  53  24    51  56  23    54  57  23    70  61  19    87  77  39    95  84  46    85  75  28    89  81  18    87  80   6    91  85   6    94  87   8    98  96  30   126 122  70  
  74  64  35    72  72  35    67  79  34    71  86  37    67  77  31    71  75  37    61  62  33    50  52  28    44  44  21    50  50  23    63  66  30    58  63  21    65  70  26    66  72  32    67  71  35    62  65  35    48  46  30    37  37  16    42  42  17    80  80  51    73  73  44    43  42  19    41  40  23    45  43  30    48  46  34    44  42  27    50  47  30    68  65  50    40  37  28    27  29  18    34  38  21    39  48  22    34  42  21    33  42  20    35  44  22    36  45  21    37  45  19    44  50  19    57  61  27    69  71  34    82  75  25    80  71  30    77  69  35    77  68  35    73  67  25    74  71  21    73  72  19    71  69  18    92  94  55   124 123  90  
  79  65  30    82  79  38    69  78  31    70  84  35    71  80  37    61  65  30    45  45  21    70  71  53    57  56  38    44  43  22    46  49  21    53  58  24    73  80  38    81  90  41    83  95  42    70  83  29    46  44  31    53  51  36    61  60  39    48  48  22    49  49  24    42  42  21    35  33  20    35  32  25    49  47  35    28  26  11    37  34  17    69  66  51    56  54  43    29  31  18    33  38  18    41  49  23    33  44  13    31  42  13    31  44  15    35  45  18    35  44  15    40  44  17    45  46  15    44  43  12    46  39  18    38  31  13    49  43  25    68  68  43    58  61  28    64  69  30    64  71  35    55  64  31    75  80  59    81  84  62  
  81  66  31    70  61  28    66  65  34    57  64  31    56  66  32    46  55  24    50  53  33    46  44  32    53  52  32    55  57  33    67  72  41    71  79  41    66  75  33    62  71  27    71  78  34    88  95  53    54  59  26    56  61  31    62  66  41    61  66  36    63  67  32    68  69  36    50  45  23    42  34  22    34  31  26    25  23  13    21  22   8    50  53  36    79  82  68    39  43  28    36  41  21    41  47  19    32  45  19    40  50  25    38  44  17    40  44  17    45  48  21    42  45  18    50  53  27    47  51  24    33  29  25    17  14   9    40  40  32    67  67  57    55  58  45    64  68  51    64  69  50    74  79  60   108 116  93    89  94  72  
  90  76  41    64  56  24    55  54  23    49  56  21    62  72  34    68  76  41    61  63  37    49  48  31    53  53  26    69  71  46    73  76  53    55  61  36    44  51  21    49  56  20    68  74  34    96 103  57    51  54  32    45  48  25    66  70  45    64  69  39    68  72  36    84  86  44    82  81  37    74  72  26    56  57  26    35  34  13    31  32  16    42  43  22    74  77  54    51  55  35    41  46  25    40  46  22    40  48  25    33  41  14    44  49  18    58  61  31    51  51  26    51  51  29    66  67  44    61  64  37    39  37  30    15  15   6    31  31  22    69  71  60    64  66  53    75  79  64    65  69  53   101 106  90   136 142 126    79  82  64  
  71  61  26    74  68  36    62  61  30    60  66  29    70  80  39    63  71  30    65  69  35    75  75  49    68  70  40    53  56  30    42  45  25    35  39  23    39  44  24    58  63  38    79  85  51    98 103  64    48  48  35    41  43  26    62  65  43    48  52  26    49  52  22    70  73  32   102 104  46   109 112  41    86  93  27    68  72  20    57  57  25    42  41  18    57  57  35    55  58  35    47  51  27    41  46  22    36  40  21    37  41  14    58  61  26    77  76  43    64  60  38    61  57  40    68  65  45    67  66  41    43  44  32    23  23  12    34  35  23    84  86  74    77  79  67    61  65  52    48  53  41   110 116 104   110 112 103    45  46  34  
  65  59  24    65  61  30    62  63  31    71  75  38    74  81  38    60  67  22    56  58  20    66  66  35    56  59  34    37  40  18    37  41  20    49  54  35    61  66  46    70  73  53    66  68  45    59  61  36    37  37  25    36  37  21    48  51  33    34  36  20    36  37  20    49  50  22    90  92  43   100 102  38    89  97  25   100 106  30    79  81  18    50  49  11    41  39  15    61  62  35    57  61  37    32  36  21    33  35  19    42  43  17    54  55  20    57  54  22    47  41  18    56  50  32    59  54  35    68  64  43    52  53  39    32  33  20    35  36  23    85  88  75    91  94  82    41  46  36    43  49  39   109 115 107    75  75  70    34  32  24  
  73  69  34    66  63  32    62  63  31    84  88  51    87  93  49    73  79  33    64  66  27    64  64  32    69  71  49    38  42  19    44  49  27    57  62  42    46  50  33    46  49  32    54  55  40    54  52  38    45  44  24    33  34  16    36  38  24    34  37  25    39  39  29    43  41  25    59  58  28    48  45   8    58  61  14    86  92  21    85  89  10    89  89  27    69  67  22    68  69  30    66  69  44    40  43  35    28  30  12    35  37  14    52  50  24    54  50  20    45  40  11    72  66  41    63  58  38    51  46  29    49  50  36    33  35  22    32  34  21    67  70  59    88  93  81    33  39  29    64  71  62   120 127 119    63  62  58    55  52  41  
  80  78  43    69  68  37    49  50  18    72  76  41    82  87  46    87  90  47    98 101  64    97  96  66    76  81  48    50  55  27    38  43  23    41  45  32    36  38  28    27  29  19    39  40  26    72  70  54    77  77  51    40  41  20    50  51  36    52  54  40    42  43  27    52  54  32    51  50  28    29  27   7    49  50  16    52  52  10    69  67  13   107 106  40   102 102  38    70  72  21    70  74  35    54  61  28    26  29   7    20  22   6    36  35  18    49  45  21    57  55  17   101  99  61    79  75  50    40  36  24    33  34  22    32  34  21    39  42  30    54  57  46    78  84  72    41  49  37    77  85  74   107 115 104    61  58  49    58  54  42  
  88  85  50    71  68  38    67  67  38    67  69  38    63  66  29    68  70  34    76  77  46    78  77  51    78  84  46    61  65  35    44  48  30    32  36  26    27  30  23    23  25  18    37  39  24    61  60  42    67  68  42    52  55  34    54  56  38    43  46  27    49  52  30    61  64  38    42  43  17    49  49  25    48  50  16    27  24   4    36  33   8    72  71  25    93  93  36    81  84  29    85  92  40    69  79  20    48  54  26    30  34  14    33  32  16    46  45  20    70  69  31   106 105  65    71  70  42    33  30  18    30  31  22    34  37  25    46  48  34    54  56  44    74  80  69    56  66  54    79  88  78    76  82  72    55  53  41    56  52  35  
  88  80  49    84  78  52    72  70  49    44  47  24    63  69  40    62  66  36    61  63  34    70  69  45    73  78  49    68  72  47    49  54  33    37  44  28    45  51  37    35  39  26    36  38  26    41  41  30    36  39  28    45  49  32    45  48  26    32  35  13    45  47  27    64  66  45    57  61  28    55  60  17    35  38  17    17  19   4    29  30  17    47  49  29    50  55  21    65  71  25    79  86  35    76  84  30    68  79  39    48  55  22    42  45  18    52  52  23    75  75  42    75  74  44    47  47  24    38  39  25    32  31  26    35  38  25    45  47  28    53  50  36    51  54  45    67  81  74    87  98  90    59  60  52    46  43  29    68  61  42  
  82  76  49    90  86  63    64  65  46    37  44  21    42  51  21    51  60  26    73  78  46    81  83  55    58  62  39    56  59  39    55  59  42    56  63  47    70  76  61    55  59  45    44  46  33    47  48  35    34  38  25    49  53  36    44  47  28    40  43  24    43  44  28    49  50  32    59  61  35    59  62  28    48  51  29    36  39  22    43  45  32    48  51  34    39  43  15    51  57  19    68  75  32    62  69  27    64  73  35    62  68  35    54  57  30    47  47  21    51  51  22    53  53  26    51  50  30    56  55  41    29  26  22    26  28  18    31  31  18    39  34  23    41  42  34    90 103  95    83  95  86    45  45  37    46  42  26    53  46  27  
  58  58  25    58  58  32    42  47  25    44  54  30    39  52  24    40  50  20    46  55  27    62  66  44    42  44  30    32  34  20    47  51  36    55  62  46    63  70  54    59  66  50    55  59  42    52  54  38    39  41  27    42  44  30    35  38  21    42  45  28    38  39  23    28  29  13    47  46  28    57  56  35    61  67  41    52  56  39    43  45  34    42  45  31    42  47  24    46  52  24    53  60  28    51  57  28    51  58  26    59  64  36    57  61  36    49  50  26    41  40  19    44  43  22    50  48  30    46  45  30    17  12   8    18  18  10    20  18   8    33  26  18    47  48  40    96 110  97    66  79  67    41  41  33    42  39  22    33  28   8  
  98 100  60    87  91  58    38  47  20    36  48  24    48  62  36    45  58  32    33  42  23    43  48  35    47  47  35    27  29  16    30  34  19    33  40  24    49  56  40    63  71  53    67  71  55    60  64  49    40  41  28    28  30  17    23  25  12    32  33  19    33  34  18    28  28  10    35  33  18    46  44  31    60  66  40    46  51  31    28  31  20    28  31  20    33  36  20    31  36  15    38  42  21    43  47  28    36  40  18    33  37  15    44  48  25    55  58  37    44  44  27    31  29  15    34  31  14    35  32  14    31  23  13    27  24  15    34  29  23    40  32  26    58  58  48    86  98  83    59  70  56    47  47  37    56  53  36    48  43  24  
 102 103  66    77  81  50    45  53  28    34  46  22    39  52  27    46  58  34    31  40  21    34  40  27    32  32  22    30  32  19    31  35  20    30  37  20    46  55  36    51  58  42    51  58  42    51  55  42    47  49  35    35  37  24    28  29  17    29  30  15    42  44  23    50  49  28    38  36  20    34  32  20    52  56  29    51  53  34    29  31  20    16  16   8    20  21   8    35  38  21    45  47  31    29  31  17    18  19   8    21  24   8    33  36  18    41  44  28    36  37  24    34  33  20    53  49  32    84  80  56    74  67  47    43  39  23    44  37  29    44  35  28    75  74  62   100 113  94    59  70  54    40  39  31    59  53  36    62  57  38  
  67  66  39    52  54  31    44  48  31    33  43  23    32  44  19    49  61  33    51  59  33    42  46  26    23  23  13    31  33  20    41  45  30    50  58  39    60  69  50    51  60  44    55  61  48    52  58  47    50  52  38    41  43  31    29  29  19    33  34  18    58  60  37    65  65  39    44  43  23    30  28  15    34  36   9    57  57  39    41  39  30    19  18  10    22  21   9    37  36  21    45  44  29    29  29  15    21  20  17    31  33  22    36  39  23    27  31  16    26  28  18    27  27  15    54  51  31   119 116  87   110 103  74    52  47  26    38  31  20    36  26  17    84  82  68   115 128 107    53  64  48    49  46  39    70  65  44    58  52  31  
  45  51  22    44  49  25    44  48  28    43  47  29    36  43  20    46  55  30    58  70  40    42  55  23    42  44  19    42  46  21    37  41  21    53  62  41    56  65  48    46  54  39    63  72  57    55  66  51    44  50  32    49  56  39    51  56  38    69  74  49    86  89  57    76  77  45    41  40  16    35  33  18    35  37  20    35  37  19    52  53  33    29  31  13    40  41  28    32  31  21    27  26  16    35  34  23    31  33  32    36  42  25    31  35  16    22  24  15    23  23  17    25  22  16    42  38  24   127 125  87   132 128  90    63  59  39    28  25  18    23  23  16    97 101  89   115 123 109    51  56  41    64  64  47    57  51  33    43  38  14  
  49  56  39    35  43  25    34  38  22    49  52  33    57  62  39    51  60  32    47  58  25    53  67  31   105 112  63   106 115  73    43  50  19    39  47  26    41  47  33    36  44  30    50  60  43    51  61  42    41  50  33    71  80  62    77  84  66    89  95  69   127 131  98   121 123  88    65  63  40    35  32  17    34  36  23    36  39  18    57  62  37    43  47  23    40  43  26    27  27  16    15  15   3    20  21   7    24  27  19    39  44  21    31  34  13    28  30  18    29  30  17    29  27  15    39  38  18   123 123  83   133 130  91    61  58  40    23  24  18    31  36  29   104 110  98   105 111 101    59  61  47    70  72  50    62  56  40    41  36  14  
  47  53  42    30  36  23    29  33  18    34  37  17    45  49  26    51  56  31    42  48  23    40  48  23   103 118  54   143 156 103    80  90  55    54  62  41    39  44  34    24  29  19    44  50  36    55  63  42    41  49  38    55  61  49    48  52  35    73  79  53   117 120  89    87  90  59    68  68  45    38  36  18    35  39  21    52  56  33    59  63  36    61  65  38    45  47  26    34  35  19    22  23   4    35  37  14    51  56  22    48  52  18    38  40  13    47  49  27    48  51  26    46  48  25    38  40  19    73  76  48   106 104  66    54  51  32    18  19  13    24  30  20    71  77  65    70  73  62    64  66  52    73  75  52    76  71  52    66  62  40  
  46  50  32    43  48  27    48  52  30    44  47  26    32  36  17    31  34  18    36  37  26    38  39  31    65  79  32   104 116  76    84  93  62    53  61  40    33  36  24    26  29  17    56  57  45    56  58  45    32  36  31    33  38  28    39  43  25    78  82  57   106 110  81    51  53  26    53  54  30    55  55  35    44  47  28    48  53  29    63  67  40    76  78  52    52  54  33    42  44  24    38  41  18    51  54  25    62  66  18    51  53  13    44  45  14    56  60  29    62  66  33    63  66  34    36  40  15    48  52  34    80  76  42    52  51  33    33  34  28    57  63  52    76  82  67    45  49  35    48  51  34    51  52  28    58  56  36    75  73  52  
  46  46  26    37  38  19    36  38  18    51  54  35    54  57  38    48  50  33    47  48  32    35  36  21    43  51  32    64  72  53    70  78  58    56  62  43    33  37  21    42  45  31    52  54  42    51  53  42    33  34  30    38  41  28    46  50  28    62  66  39    74  78  51    49  52  28    54  57  35    68  71  49    51  53  35    48  51  29    56  58  33    50  52  30    33  34  17    30  31  15    34  35  15    47  49  22    46  47  14    38  38  14    39  38  14    56  58  26    63  67  30    70  76  33    49  55  17    62  65  40    87  85  53    59  57  42    41  42  36    88  94  82    97 104  87    57  61  46    54  55  38    49  49  25    44  42  21    57  54  36  
  63  57  32    45  42  19    35  33  14    38  39  23    47  50  33    70  73  52    85  88  63    70  73  45    52  57  41    48  52  36    51  56  39    53  57  40    44  48  31    58  62  46    47  50  34    53  56  41    43  44  37    51  53  36    51  56  27    77  83  50    62  66  39    52  55  33    60  63  42    51  55  32    54  55  37    61  63  42    42  44  22    21  23   5    16  16   5    16  16   6    27  26  12    48  48  28    42  41  27    22  21  12    27  27   9    65  67  36    67  69  36    82  85  45    84  87  46    71  72  43    93  92  61    60  57  44    36  37  31    87  93  79    85  93  73    73  77  61    72  73  55    58  58  34    75  74  53    74  71  55  
  86  79  35    62  58  21    44  43  16    34  35  19    35  37  23    41  45  28    57  61  38    84  88  61    93  98  67    58  63  37    49  53  32    49  53  38    58  62  47    65  69  52    58  63  41    65  73  47    52  54  42    60  64  41    61  67  33    98 104  69    66  69  43    47  50  29    36  39  18    33  37  14    52  53  35    64  66  45    51  52  33    51  51  39    33  32  27    24  20  17    35  32  25    39  37  24    44  45  28    37  38  24    44  47  21    89  92  58    72  72  47    70  70  45    90  89  62    68  65  52   103 102  72    63  64  50    48  50  43    99 105  91    72  80  59    68  72  55    70  70  53    57  55  30    96  96  72   104 102  87  
  82  70  33    77  66  35    49  39  14    40  33  17    36  32  19    31  32  17    33  36  19    48  52  33    52  57  50    48  55  39    67  75  51    59  69  36    77  87  53    77  86  55    55  63  40    63  70  54    45  51  37    48  53  33    83  87  61    72  75  48    49  48  28    35  36  21    37  37  22    42  45  27    44  44  41    64  68  43    75  78  47    85  83  67   115 112  98    82  81  50    62  58  28    45  39  27    45  43  22    74  71  57    70  67  52    70  67  47    49  44  29    43  36  28    68  63  44    90  87  52   126 121  86    71  70  48    56  62  51    79  84  78    48  48  40    47  41  29    51  45  33    61  55  45    96  94  81    72  68  56  
  77  68  44    64  55  32    47  39  18    46  41  21    46  44  26    49  50  34    44  46  33    48  50  38    33  39  29    30  36  22    44  52  33    60  69  45    71  79  54    61  69  47    46  53  33    52  60  43    37  43  31    45  50  31    67  71  47    54  56  33    41  40  21    32  33  20    33  34  21    37  39  23    25  27  14    53  57  30    69  72  44    57  55  37   121 119  96   140 140  97   106 103  65    58  53  34    49  51  32    50  49  36    58  57  42    54  51  32    46  43  26    40  34  23    67  63  41   119 116  78   143 134  97    91  88  61    56  60  44    70  75  67    39  39  31    35  32  22    44  41  31    92  91  80    95  93  81    53  49  33  
  87  82  66    56  51  35    38  34  17    48  46  29    45  44  27    46  46  32    45  46  34    44  45  35    34  39  28    29  34  23    42  46  35    55  60  46    50  55  40    48  54  38    45  50  34    64  70  54    51  57  48    57  61  45    69  73  50    60  62  40    46  44  28    34  34  23    33  33  22    30  32  19    23  25  12    42  43  27    42  43  30    31  28  20    73  71  48   120 118  76   102  99  63    61  54  38    35  37  23    23  25  14    52  53  39    66  65  44    62  60  40    63  58  43    96  92  66   112 109  67   132 120  79   125 119  87    98 100  80    84  88  76    34  35  28    30  30  23    60  61  52   119 123 113    86  81  68    51  42  27  
 100  97  75    70  67  48    31  27  15    34  31  24    28  24  18    29  29  19    45  46  33    39  42  23    41  44  33    39  42  32    41  44  35    48  51  41    43  46  35    38  41  29    34  38  23    70  74  60    63  68  61    65  69  54    61  66  43    48  50  28    34  32  17    28  28  18    28  28  18    26  28  15    23  24  12    26  26  17    25  22  20    25  22  18    59  57  35   119 117  78    96  93  60    58  51  34    35  36  23    31  32  22    36  37  21    56  56  33    66  64  42    68  65  47    91  87  60    85  83  41   120 106  68   127 121  89   110 114  90    82  86  72    31  31  26    26  26  23    83  86  78   118 123 112    74  64  48    65  50  35  
 124 120  84   102  97  69    36  30  17    28  23  19    27  23  21    22  21  16    37  39  25    26  29   9    35  39  28    45  48  37    44  48  35    57  61  46    50  54  39    38  42  27    47  51  37    66  70  56    63  69  59    43  47  30    57  61  38    65  67  45    37  36  18    29  29  18    34  34  22    31  33  19    41  43  20    27  28  11    24  22  10    32  31  14    68  67  37   117 115  74   125 122  82    86  80  50    51  49  32    37  34  20    39  37  18    57  56  29    55  50  28    46  40  24    71  67  44    91  88  52   117 108  78   121 120  89   109 114  91    66  72  60    28  28  26    35  33  34    99  99  91    93  96  82    78  63  40    82  64  42  
 151 144 102   175 167 131   104  96  72    44  38  23    22  18   9    22  22  14    36  38  25    29  31  18    38  39  31    35  37  24    45  48  29    85  89  65    99 103  79    66  70  48    62  64  50    67  69  59    62  68  56    51  56  36    93  97  72   106 108  84    49  48  28    25  26  12    30  31  16    39  42  25    51  54  28    61  63  41    53  52  31    88  86  62   114 113  83    87  83  50    98  94  57    96  92  52    61  52  31    45  37  18    48  40  18    57  52  22    68  63  41    39  33  19    47  44  28    83  82  53    81  76  55   114 116  94   115 124 103    54  62  52    24  24  26    56  49  51    93  89  80    64  61  42    77  54  30    76  57  24  
 104  95  63   172 164 131   162 154 120   103  96  70    44  38  21    21  18   8    27  27  19    36  39  29    52  53  43    48  49  35    39  42  19    64  68  40   107 111  83    77  79  58    40  42  29    45  46  39    51  56  44    66  72  54    86  92  68    75  79  55    42  41  23    30  30  15    23  23   8    31  34  17    55  56  36    68  68  50    48  47  28    58  56  35    68  64  42    61  57  35    78  74  47    92  89  56    69  55  28    55  42  20    56  45  21    53  45  19    73  66  45    53  47  32    61  56  43    82  78  57    50  48  36   101 107  90   112 124 109    50  58  50    27  27  27    76  70  69    85  75  66    61  48  33    85  58  33    86  64  29  
  36  34  27    83  80  58   151 146 112   168 161 129    90  81  64    36  28  22    22  20  13    21  24  10    39  41  28    53  54  38    57  56  35    65  65  41    72  72  49    51  50  32    31  31  21    40  41  35    44  47  38    80  88  75    79  90  74    55  62  45    47  47  31    37  34  19    30  28  15    39  41  28    57  56  38    57  56  38    45  44  26    43  42  23    43  42  23    45  44  24    47  46  26    81  80  60    99  88  53    60  48  18    59  48  23    57  47  24    68  59  34    82  75  50    78  71  51    66  58  45    45  46  37   102 114 101   102 119 108    38  48  40    36  39  32    95  94  82    80  67  53    69  41  28    85  54  28    83  59  29  
  23  24  19    26  25  15    96  92  76   183 177 159   141 137 123    56  52  44    24  24  19    24  26  20    32  34  22    50  51  37    78  77  58    82  82  60    57  56  35    33  32  14    30  30  18    38  39  32    35  37  28    81  88  76    75  85  68    44  51  33    50  48  33    48  43  29    40  38  23    54  56  42    46  45  27    42  41  23    48  47  29    54  52  35    54  52  36    46  44  28    35  33  17    74  72  55   103  98  62    91  85  55    89  83  54    72  65  36    64  57  25    73  66  36    62  55  30    59  50  32    55  64  38   112 128 106    85 103  88    39  47  38    74  77  67    93  91  74    73  61  37    84  58  28    80  53  30    67  44  19  
  44  46  40    31  32  27    47  45  41   112 108 101   118 118 103    67  68  52    38  40  30    29  34  28    28  30  18    34  34  22    54  52  37    76  75  55    84  83  63    67  66  48    42  43  29    35  37  26    49  49  41    79  82  71    76  85  68    56  60  43    44  43  25    44  38  22    48  46  31    49  52  35    38  37  19    42  40  22    52  51  33    50  49  33    50  48  33    43  41  28    37  34  21    68  65  52    88  89  55    99  99  70    82  79  59    61  56  36    46  41  15    65  60  31    76  69  41    73  66  41    85  95  61   107 124  98    67  84  66    69  76  61   113 115 101    64  65  50    49  42  22    86  66  40    78  57  25    69  49  22  
