P3
50 50
255
  75  83  24    91  98  31   136 137  60   123 125  45   100 101  22    99  99  26   106 105  40   103  99  37   118 115  47   145 143  69   134 135  61   121 134  41   121 133  44   125 125  50   136 131  58   128 133  64    63  72  20    32  42   6    44  43  15    40  39  14    31  32   7    26  30   4    28  33   9    21  29   4    15  24   1    16  26   1    25  36   1    39  48  12    27  38   7    19  29   1    28  38   4    33  40   1    51  56   2    91  96  33   142 129  74   121 109  61   124 116  64    89  85  40    45  42  17    52  53  21    39  45   1    43  51   6    42  52   1    43  53   1    37  51   4    38  54   1    60  81   2    80 101   6    56  70   1    68  73  32  
  89  96  45    97 105  37   130 136  47    91  96  19    74  79  14    88  92  28   106 110  37   102 106  27   100 101  24   131 130  58   123 120  57   124 121  53   139 138  57   135 134  54   153 145  80   160 152  83   141 141  68    70  81  16    70  62  16    75  69  25    78  75  32    67  67  27    41  45   9    23  30   1    20  31   1    24  37   7    22  31   1    25  34   5    21  30   5    20  30   3    23  31   2    23  29   1    33  36   1    52  53   8   122 111  53   141 130  77   137 130  74   115 111  64    44  42  16    38  40  13    41  49   3    49  61   9    67  79   3    66  80   2    52  70   1    40  58   1    37  53   1    51  65   3    58  68   4    67  75  17  
 108 117  61    76  83  33    93 100  27    62  70   9    45  53   5    45  55   6    56  66   6    78  87  13   102 105  31   116 116  45   110 106  43   111 106  31   135 131  55   114 112  45   130 122  57   157 145  69   163 159  76   102 112  31    66  60  12    56  51   6    61  59  16    70  70  31    50  55  21    23  31   1    17  28   2    25  37  12    23  31   9    20  28   4    25  33   7    32  40  10    32  38   8    29  34   2    29  32   2    31  32   3    79  68  17   139 130  77   131 126  64   116 115  58    49  49  14    28  31   7    33  43   4    43  58   7    59  71   3    78  95   4    85 107   6    63  84   1    40  55   1    41  52   5    53  59   5    75  81  17  
 103 115  41    74  83  25    52  55  10    36  42   5    36  46  12    33  49   6    45  63   4    73  88  12    90  98  16   100 104  21   123 126  35   103 112  21    79  87  18    88  89  36    93  88  30    76  73  15    71  71  22    51  54   8    31  37   3    26  33   1    23  31   1    25  33   4    25  33   7    19  29   3    19  29   5    24  35  11    24  32  10    22  31   5    29  37   5    37  45   7    37  43   7    30  36   1    26  30   1    25  29   3    49  41   3   124 118  73   143 141  82   126 126  61    59  62  13    24  28   2    27  36  11    18  33   1    33  39   1    47  59   1    71  90   3    60  80   1    41  55   1    49  57  15    66  67  24    80  80  27  
  57  68   7    76  89  18    74  75  19    43  50   1    32  48   1    46  69   9    63  90  10    81 103  14    90 104  19    90  95  20   102 113  15    53  70  14    39  56  17    72  80  30    56  57  12    39  44  12    27  35  10    24  27   4    15  35   4    16  34   4    15  31   2    19  33   3    23  36   7    20  31   1    20  31   1    32  42   9    20  30   5    23  32   3    30  37   3    37  43   5    38  45   4    32  38   1    29  34   1    32  39   7    24  22   1    72  69  37   109 107  65   116 117  58    83  86  29    26  29   1    20  26  13    22  32   7    30  34  15    31  37  12    37  47   6    36  49   1    36  45   3    47  52  18    76  74  35    79  76  25  
  31  38   4    49  59   9    88  85  28    87  90  33    55  71   6    62  90  13    87 120  31    90 116  27    93 108  28    88  95  26    88 103  22    52  67  20    37  54  14    52  70  16    76  86  34    65  72  29    44  51  14    23  33   2    21  35   7    21  35   6    20  33   3    20  32   3    22  35   3    24  35   4    23  34   3    23  34   1    22  32   8    21  29   6    29  35   5    34  40   7    32  36   1    26  32   1    26  33   1    29  36   2    31  38   3    22  24   1    32  30  10    83  81  44   114 113  64    41  41  15    16  19  10    39  47  23    37  44  16    39  44  23    35  43  18    34  44   8    48  56  16    57  60  19    86  85  29    98  95  22  
  45  50  10    41  46   7    56  45  26    70  67  29    70  80  18    80  99  23    95 118  38    94 114  37    93 107  28    93 104  22    93 112  28    86 102  23    63  80  15    35  52   1    72  85  26    61  66  15    44  47  12    44  55  18    38  45  14    36  43  12    28  36  10    24  31   8    20  30   2    21  33   5    25  37  12    24  38  12    21  33  10    20  29   7    29  32   6    43  45  11    39  43   5    33  39   2    33  40   5    31  40   6    30  41   4    27  33  10    25  25  15    41  39  19    60  59  26    25  26   4    18  20   9    30  37  10    41  48   8    31  35   9    37  44  17    36  45   4    43  51   3    58  62  11    78  79  12    89  92   2  
  71  70  20    59  56   7    41  34  18    62  57  24    80  77  24    95  92  31   105 104  45    88  88  34    79  84  25    87  95  30    92 103  32    71  82  17    70  79  28    63  72  22    64  74  16    47  55  13    27  32   7    31  39   5    31  45   7    43  57  15    34  47  17    30  43  15    31  47   8    28  45   6    23  39   8    26  42  10    27  45  13    40  50  14    49  50   1    70  72   1    70  77   5    48  56   4    32  38   3    28  35   2    28  36  11    26  33  10    26  31  12    18  21   7    21  23   9    21  24   7    26  29  10    27  30   9    44  46  16    49  52  26    55  58  31    39  44   8    46  52   3    69  75  11    78  87   6    88  97   2  
  92  88  29    69  65   3    49  39  15    75  67  31    97  94  44    91  88  37   100  99  52    83  84  41    75  82  33    83  93  38   102 105  47    73  78  20    79  84  33    93 101  44    84  95  30    41  51   6    30  35  13    27  35   8    20  35   5    22  37   2    30  46   4    44  60  12    40  56  11    40  57  13    31  47   5    26  41   3    29  46   8    51  61   7    83  88   6    89  94   1    78  85   3    49  54   2    32  36   5    28  30   4    38  40  12    32  34  10    29  30  10    32  34  18    25  26  12    27  29  12    38  40  21    31  33  11    36  39  15    72  81  36    86  96  44    49  58  13    68  75  22    88  95  14    97 105   2   100 107   1  
  83  74  20    80  69  13    68  59  21    62  52  16    99  92  54   101  97  58   109 109  66   105 109  60    75  84  31    76  86  33    91  89  34    88  88  32    72  72  21    92  96  37    95 106  37    59  66  22    34  41  23    20  28   9    18  31  10    13  27   1    59  76  25    92 110  49    35  50   3    32  47   4    43  59  12    41  54  16    34  49  11    45  55   1    93  97  10    97 102   4    72  76   1    52  55   8    45  43  18    36  32  12    55  51  21    42  37  11    36  32  12    40  38  23    29  28  13    48  47  29    56  56  35    40  40  17    37  42  13    64  72  31   100 110  60    81  91  40    63  71  24    56  61   4    81  84   8   104 109  13  
  87  75  27    91  77  29    94  82  34    56  43   9    67  56  34    75  68  40    89  88  40   133 139  75   107 115  48    76  84  20   103  99  51    87  83  35    54  53   9    75  78  24    80  89  23    56  64  13    42  51  19    32  42   4    19  30   7    23  36   9    37  53   7    46  63  10    27  42   1    22  36   1    26  41   1    33  47  12    35  49   1    51  62   1    77  81   1    79  81   1    65  68   1    56  59   7    40  41   2    59  54  24    90  81  50    68  61  33    45  40  20    33  30  13    40  38  23    61  60  39    48  46  20    49  45  16    77  79  36    55  60  16    91 101  48   115 130  65    80  92  32    72  79  26   104 111  38   120 127  27  
  77  64  22   100  87  45    99  84  37    65  49  19    50  37  20    65  56  36    75  70  30   120 121  59   122 125  54    96 100  27   101 103  35    80  81  21    52  52   8    60  64  19    62  70  15    43  52   4    36  46   9    37  49   1    33  46   1    40  53   8    35  47   4    22  36   1    25  39   5    22  36   3    29  45  10    22  38   3    35  51   5    58  69   6    70  75   4    63  65   5    50  52   8    43  45   8    35  34   2    66  60  33    88  80  48    62  57  29    45  43  22    28  28  10    33  33  14    51  50  25    54  50  18    72  67  31    76  67  30    70  67  22    89  94  41   111 125  65   104 120  58    95 111  41   104 120  35   116 129  34  
  67  55  27    83  69  41   100  83  43    79  63  31    59  44  23    64  51  36    76  66  45    96  89  51   107 103  43   111 107  32   103 112  27    84  90  21    54  58  15    47  51  16    38  45   3    42  51   6    39  51   5    51  66   2    71  85   8    76  90  21    36  47   5    29  40  11    30  44  10    30  46  11    28  46  12    27  47   5    39  56  11    60  75   4    75  85   1    58  63   3    41  44   9    29  31   7    33  31   7    52  47  21    53  49  17    40  38  10    38  39  17    30  32  14    41  43  22    52  51  22    64  60  23    79  70  29   103  87  39   105  96  43    93  95  39    87 100  42   109 128  64    98 120  47   100 121  41   117 137  56  
  39  31  15    54  45  27    90  69  28    80  59  33    61  45  27    70  61  38    87  81  52    70  66  32    71  67  26    82  77  26    72  80  22    58  66  12    58  64  22    52  58  18    55  63  17    55  67  10    64  82   8    87 109  16    98 118  22    69  83  19    28  38   6    33  43  17    37  52  10    35  53   5    37  57  12    38  60  13    43  57  10    60  78   1    85 101   2    64  76   1    33  38   1    32  32  10    44  42  20    46  43  17    41  39  15    35  33  14    31  30  10    29  29  11    43  41  26    61  58  23    84  78  25   105  96  43   122 110  49   115 104  49    86  79  29    79  79  27   111 120  57   119 135  64   105 127  52   105 130  56  
  21  17   5    46  40  27    76  58  31    79  62  37    66  51  31    67  57  34    86  80  50   102  97  57    85  81  36    68  64  18    48  54   6    42  49   5    52  59  15    50  60   9    63  74  12    77  93  19    84 103  21    72  92   8    92 115  24    73  91  26    43  57  18    30  45  12    44  60  15    56  76  18    58  80  19    61  81  28    53  67   9    68  84  13    79  93  13    60  70   7    44  49  10    47  47  21    40  40  15    34  33   3    30  29   4    33  30  20    32  30  16    31  31   5    35  31   7    51  46   9    94  88  29   134 125  61   133 122  58   117 107  46    96  87  27    99  96  29   124 128  53   138 151  70   118 135  57   106 127  55  
  20  20   9    29  26  17    49  40  30    67  57  35    78  66  40    79  65  46    91  79  53   128 118  76   118 113  59    79  76  21    60  66  16    45  51   5    40  49   1    43  53   1    49  64   1    67  82  10    91 109  31    86 105  26    90 115  34    81 105  31    64  86  28    35  54  12    38  58  13    67  89  29    67  89  25    52  73  16    71  88  21    64  77  23    54  65  21    47  55  17    50  56  22    48  51  23    44  44  16    49  49  18    31  35  11    27  29  15    27  28  11    37  36   6    44  40   5    70  63  18   121 113  50   148 138  70   133 123  56   133 124  58   118 109  42   111 107  34   111 111  32   133 137  56   134 144  67   122 133  61  
  23  25  13    22  24  14    30  31  21    48  47  26    74  68  39    85  72  43    85  69  41    86  74  38   101  91  46    87  82  27    73  76  31    56  61  14    47  55   8    41  51   6    33  45   1    38  50   1    64  79  12    94 110  32    81 108  27    68  97  20    70  97  30    56  81  27    28  52   6    30  51   7    43  62  15    40  57   9    46  61   7    39  51  13    45  54  25    53  60  28    48  53  20    42  45  21    44  45  20    42  43  13    32  37  19    30  34  12    28  30   7    38  37   8    59  54  13   101  95  33   137 128  59   128 117  54   126 118  48   122 113  44   102  93  25   106  97  29    98  91  21   115 110  39   130 130  60   135 137  65  
  21  24   8    24  28  10    31  35  15    41  44  23    61  58  30    82  75  37    97  85  49    93  79  50    96  83  48   120 110  62    71  71  32    48  50  10    44  51  12    44  55  12    38  51   5    42  55   5    44  56   3    61  72  15    72  98  15    72  97  25    61  88  22    56  84  24    43  69  22    25  45  14    27  43  16    34  50  15    29  43   8    39  51  19    53  63  30    58  67  29    50  56  23    45  48  26    45  46  28    35  36  13    24  30  10    31  35  14    36  35  14    58  54  21    90  85  29   105  97  32   108  99  35   111 101  38   137 129  56   121 113  35   117 110  24   136 129  41   121 114  30   118 112  34   111 108  34   138 137  64  
  51  53  31    27  32   4    25  27   8    33  34  15    45  46  21    65  64  26    92  88  46   110 100  61   104  89  53   130 113  75    88  87  44    53  56  14    39  46   5    47  58  12    45  60   6    47  62   6    42  52   3    52  60  16    77  95  19    84 105  36    60  84  20    43  69   9    50  78  23    47  70  28    34  50  18    28  43  12    33  46  17    45  59  22    50  63  22    56  66  27    53  60  29    42  45  23    38  40  22    36  37  21    26  30   9    27  30   9    40  35  18    74  69  32   113 110  44   100  94  27    76  69  13   102  95  34   131 123  48   131 124  36   139 132  30   150 146  41   130 125  28   132 128  42   109 107  28   115 115  40  
 119 122  95    73  77  43    27  24  14    29  30  14    43  45  22    45  48  18    62  63  19    91  86  32   116 103  56   119  98  67    89  87  37    76  79  27    49  58   4    48  62   9    46  59  12    42  56   6    49  60   5    78  88  27    87  99  33    75  91  21    68  89  22    52  78  17    38  66   6    41  67   4    39  59   8    38  54  19    44  58  22    55  71  26    52  65  22    50  59  27    44  50  24    35  39  13    34  38  15    30  30  20    30  31  16    38  39  13    48  43  22    54  47  18    86  81  18    96  92  19    76  72  12    87  81  30   120 111  34   152 145  57   152 143  47   151 145  48   118 112  25   130 126  49   131 129  53   111 114  37  
 117 113  89   169 165 120    59  57  42    24  27   6    27  36   6    39  49  13    43  50   9    81  80  33   115 105  54   105  90  36    90  79  33    99  90  41    71  68  23    57  65  26    45  63  18    43  63   7    41  53   1    66  67  30    80  88  22    75  92  17    82 107  27    69  92  24    51  65  18    49  61  21    60  77  30    57  82  24    62  68  32    53  59  22    36  41   9    44  49  18    43  46  21    45  49  26    37  40  19    28  31  12    29  26  17    45  44  23    36  35   5    57  54  23    76  71  31    89  84  25    94  89  23    95  86  25   108  96  25   136 127  47   156 149  58   143 139  43   128 127  38   115 116  38   101 105  36   119 124  61  
  71  71  34   110 107  76    54  49  35    28  27  11    29  33  11    40  48  16    38  43  12    46  46  13    75  69  18   104  97  24    93  84  26    98  88  33    88  84  34    52  56  12    53  64  20    52  66  19    61  66  20    74  71  27   123 123  50   112 117  51    78  92  23    72  91  23    61  81  22    63  82  25    70  87  26    79  95  39    92  96  53   109 113  72    85  88  52    57  61  29    51  55  28    55  58  37    36  39  21    22  25   9    25  26  15    29  29  10    38  36  13    67  63  34    83  79  33   105  99  35   114 107  37   110 100  37   140 130  40   142 133  43   157 148  61   146 139  57   150 147  68   147 147  76   136 142  78   161 167 108  
  78  81  45    47  46  25    37  29  13    37  31  21    49  48  29    55  58  25    46  50  18    33  32   7    43  39   1    80  78  12    92  86  22   101  92  37   106  97  47    81  77  30    59  61  20    55  58  21    84  83  35   102  96  35   128 115  47   132 122  62    96  96  26    84  98  23    61  83  19    70  92  26    98 111  39   133 136  73   128 129  80   117 117  71    86  88  47    64  65  32    56  59  32    49  51  32    25  27  13    17  20   8    22  24  13    26  28  11    38  37  16    49  45  18    92  87  38   132 127  54   113 105  30   103  92  27   124 112  39   140 130  45   153 145  49   130 124  33   158 155  78   174 175 110   164 172 104   167 179 106  
  77  80  48    86  88  50    60  54  19    48  41  25    52  47  33    56  55  24    57  58  23    47  46  24    36  35  10    50  50  10    86  84  17    93  86  25    99  90  33   140 133  80   102  98  61    46  41  14    63  55  15    98  88  26   116  93  30   138 118  58   124 116  43    94 102  24    67  85  16    85 106  35   109 118  43   125 122  55    95  95  43    78  77  29    70  71  29    55  56  22    46  46  20    41  42  24    27  28  14    20  22  11    23  25  12    32  34  14    46  45  22    48  43  14    86  80  30   130 123  50   122 115  37   111 100  32   101  91  23   123 114  35   136 129  37   127 121  23   152 151  59   152 157  73   151 162  86   148 163  88  
  58  59  27   119 126  61   111 111  49    61  56  25    47  40  28    53  47  29    54  50  27    48  45  26    34  33  13    33  36   8    48  51   2    88  87  30    99  92  31   132 125  71   113 105  71    56  49  23    81  72  31   134 124  62   167 140  70   125 102  36   103  89  27   103 103  35    89 100  22    99 111  33   100 105  38    95  92  36    95  97  50    89  92  46    89  91  51    53  57  24    43  46  19    46  48  27    31  32  18    18  18   6    34  32  19    64  64  38    49  49  14    46  42   6    91  84  38   120 114  49   132 124  51   116 108  36   111 109  23   142 138  48   148 142  47   118 113  11   100  98   5   102 107  10   135 147  64   136 151  76  
  61  57  29    83  86  31   127 128  69    67  65  27    49  42  23    44  34  21    39  32  16    51  46  27    43  43  19    33  35   7    27  39   1    78  84  21   100 100  26    95  90  35   103  96  68    84  75  58    59  49  22    60  49   6   137 110  40   130 112  35    85  73  12    94  90  29   112 112  33   117 116  43    94  92  42   115 116  66    81  90  48    58  67  26    70  76  40    65  70  38    70  74  47    54  56  35    26  28   9    29  30  14    27  23  10    78  75  41    75  72  27    63  58  16    81  74  33   100  93  39   138 133  65   136 129  57   106 108  26   123 123  32   131 128  25   130 127  10   113 114   1    93 100   1   109 120  25   127 140  62  
  58  53  33    71  71  39    85  88  45    63  64  22    68  65  31    53  44  23    42  33  18    55  49  30    48  48  25    36  40  16    28  38   9    51  60   5    89  94  18   104 103  43   117 112  81   124 117  95    92  83  47    76  65  21   111  89  25   144 130  51   101  95  22   101  95  31   114 108  37   103  97  41    70  69  29    89  96  47    74  84  51    47  57  23    51  61  29    41  49  19    50  54  30    51  54  33    32  34  16    22  22   6    28  21   6    55  49  12   109 106  51   132 126  74   119 111  65   132 124  71   163 156  93   147 141  70   100  99  27   107 107  29   117 115  21   132 133  11   153 158  10   138 148   1   113 124  13   104 116  43  
  50  48  26    70  78  48    89  97  57    59  64  21    68  65  31    53  43  26    53  41  32    53  47  32    43  45  23    33  39  15    36  40   8    50  58  12    72  84  10   110 121  47   106 108  64   108 102  73   118 106  67    93  78  36    96  84  27   142 131  65   149 141  68   120 113  43    93  88  31    74  73  31    64  67  32    65  70  37    71  81  51    53  63  33    52  60  30    34  42  13    31  36  11    39  43  21    40  42  25    22  24   8    30  23  10    66  59  26   127 120  64   147 138  75   158 146  86   147 135  77   125 116  50   156 149  74   111  99  32   106 101  18   109 108  14   109 109   2   144 143   6   149 156   1   136 148  15   102 115  33  
  56  53  25    85  91  52    91  99  60    60  64  33    60  55  32    52  44  26    45  36  17    46  43  15    93  96  56    83  92  41    36  40   5    40  47  11    55  64   8    91 102  31   113 118  64    96  92  58   112 100  70   116 101  70   103  90  42   136 124  68   155 145  82   144 135  74   103  97  47    72  70  31    67  68  38    56  60  34    71  79  41    59  66  32    51  56  25    30  35   8    30  33   9    41  44  21    49  49  25    42  42  16    40  37  13    51  47  16    66  61  19    91  85  31   119 112  50   104  99  27   101  97  18   148 144  64   116 103  34   104  93  16   118 104  23   132 116  27   151 139  18   142 143   1   136 149  11   116 133  31  
 102 101  58   125 127  83    87  95  56    60  64  28    66  66  29    61  57  23    38  32   7    44  40  14   130 134  83   181 193 112    76  83  33    33  38   5    38  46   8    62  73  14   104 112  53    90  88  50   106  97  66   132 119  84   120 107  63   108  96  47   135 124  69   164 155 100   146 140  91   102 100  59    65  66  35    48  50  24    60  63  31    57  60  33    48  50  30    34  33  20    33  32  19    39  37  22    45  45  24    52  52  25    75  74  30    79  77  31    79  75  28    83  77  23    89  83  23   122 115  46   133 127  51   129 123  43   102  87  18    95  74   7   130 102  32   165 135  48   163 141  28   130 123   1   116 125   5   106 124  19  
  64  61  24   104 102  65    89  97  55    72  78  37    76  78  36    60  57  23    37  32  13    42  36  25    73  75  40   132 141  76    94 103  50    60  66  32    51  58  25    49  60   4    96 108  38    91  93  42    92  86  50   109 100  59   138 125  83   123 110  66   104  92  43   127 118  63   145 140  85   117 115  66    86  88  48    66  70  38    62  63  32    60  60  35    44  43  24    33  31  18    29  27  14    30  28  12    43  42  20    62  62  35    92  86  39   108 102  53   114 107  57   107 100  47   108  99  40   122 111  45   148 136  63   127 116  36   111  99  28   146 125  46   170 137  59   168 130  56   163 133  46   140 130  22   110 117  13    84  97  10  
  32  29  14    64  60  37    90  98  58    99 106  63    77  79  41    50  49  22    33  27  16    32  27  24    37  32  22    50  49  26    49  55  24    59  65  37    66  75  45    48  61   9    78  90  16    89  95  34    76  72  36    92  84  49   118 104  67   146 132  95   134 121  80   105  94  46   103  98  44    97  95  44    75  76  36    65  67  36    61  62  31    64  66  35    53  53  27    53  54  28    51  52  27    52  53  26    58  59  28    71  72  41    56  48  19    77  70  36    88  82  43   113 108  61   113 106  52   103  94  34   132 121  55   155 144  72   131 121  41   142 121  46   163 130  60   158 123  53   165 139  65   146 137  57    93  96  14    94 102  19  
  32  30  22    59  53  44   105 112  76   114 123  69   105 113  52    60  62  23    31  27  14    30  25  21    32  28  19    38  35  18    44  47  33    31  36  15    32  40  18    48  58  24    62  73  14    86  90  36    82  79  41    73  66  31    87  73  46   113  98  71   121 108  78   108  96  57    91  84  36    92  89  42    85  85  49    52  51  27    40  42  20    48  50  27    40  42  17    46  48  22    47  50  23    50  54  26    47  50  23    45  48  22    35  32  18    53  52  23    65  68  24    56  59  14    61  62  25    67  63  29    66  59  18   108 100  48   124 114  49   118  97  32   133 103  34   151 121  48   160 141  65   148 142  71   112 112  42    94  96  23  
  30  28  15    39  35  29    63  65  46   114 121  62   140 147  69    81  81  32    41  35  20    37  32  23    36  37  19    30  33  12    43  50  26    29  36  15    22  28  13    40  48  28    46  54  17    56  61  17    86  86  44    83  81  39    77  68  44    76  68  45   101  92  71    94  85  62    78  73  45    72  71  37    88  91  56    63  68  33    35  34  20    35  36  21    36  38  22    31  33  16    32  35  15    43  45  24    42  42  21    44  44  21    37  35  25    45  46  20    51  53  18    41  42  13    44  42  19    51  46  20    52  47  15    49  43  11    78  70  27   101  91  37   108  94  28   135 121  48   119 111  39   121 119  54    87  91  34    53  59   9  
  32  27  14    35  27  25    29  27  17    70  71  33   109 108  57    71  66  30    46  38  17    51  46  25    51  53  29    46  49  32    49  59  35    41  49  30    21  29  14    17  26   9    25  33   9    30  35   3    71  72  37    93  93  56    79  74  45    78  70  47    87  79  58   102  95  77    92  87  67    58  56  30    58  61  30    58  62  28    39  38  18    43  44  26    40  43  24    21  24   5    29  32  11    56  58  34    55  55  28    46  45  15    33  31  12    45  45  19    52  52  27    29  29  13    26  24  11    33  30  10    61  56  26    71  66  27    83  73  20   100  90  34   110 102  39   118 115  45    93  95  26    80  87  27    57  69  20    35  50  10  
 102  95  65    71  60  38    37  31  25    37  31  20    44  35  19    53  42  22    56  48  25    56  50  24    65  63  38    62  64  41    55  64  47    57  66  46    39  51  30    19  30  12    21  29  14    21  25   9    34  39  16    46  49  22    70  65  33    89  82  54    81  73  50    86  78  59   105  98  80    64  59  41    49  48  27    44  46  23    35  38  14    39  42  18    40  44  21    32  36  12    36  40  13    62  65  36    82  83  51    82  82  48    95  94  51    50  51  17    42  46  20    30  35  17    30  34  18    37  36  15    54  51  13   123 118  62   156 139  69   113 100  36   127 122  60   120 125  60    92 106  37    65  85  21    44  64  14    32  52  17  
  85  77  29    98  86  45    62  55  36    43  34  24    50  40  30    55  45  24    61  54  27    67  61  39    61  56  32    65  63  33    47  56  37    53  65  39    64  78  47    46  58  32    28  39  21    25  33  18    33  38  20    29  33   9    55  53  18    84  80  50    76  69  44    62  54  35    91  81  67    77  71  57    54  53  38    40  44  28    39  42  21    33  36  15    36  40  19    41  46  25    38  42  19    51  53  28    76  76  47    81  79  50    97  96  46    64  66  28    37  44  14    39  50  20    35  43  13    49  53  23    56  53  11    96  90  32   152 142  65   129 123  58    96  99  43    86 102  41    91 113  45    72  96  30    36  55   4    27  43   8  
  95  92  26   109 101  48    81  77  30    48  40  16    49  39  28    57  50  29    58  52  21    72  67  40    69  64  43    65  60  38    43  50  27    52  62  32    78  91  56    76  90  55    55  68  40    37  46  23    38  46  22    40  48  21    43  46  14    67  68  40    77  72  49    66  59  40    70  61  49    75  70  58    55  56  43    44  49  36    32  36  20    27  30  16    23  27  14    28  31  17    36  38  22    43  45  26    49  46  25    48  43  21    54  53  20    48  48  25    46  49  29    53  58  32    53  57  25    59  60  28    59  54  21    65  59  20   120 120  52   119 123  64    47  59   8    55  74  17    75  99  34    66  87  24    38  54   4    31  41   4  
 149 155  63   157 158  90   162 161 100    81  76  42    33  24  12    41  34  17    50  46  18    61  58  32    54  51  33    46  41  28    47  50  31    47  53  31    66  75  48    82  94  61    80  93  58    52  63  30    43  52  23    46  53  29    37  45  19    46  50  26    68  66  45    55  49  33    47  40  26    63  62  48    79  85  70    70  80  65    35  39  25    25  28  15    20  25  12    21  25  12    29  31  18    37  38  22    36  33  14    39  34  14    43  44  23    40  38  21    37  33  18    48  44  24    66  61  33    58  56  18    65  61  25    60  56  24    64  71  14    83  92  36    52  67  11    50  66   8    56  76  16    44  63   8    29  45   1    36  48  14  
 138 148  51   207 213 150   236 234 184   166 162 125    66  60  39    47  43  28    44  40  27    37  33  20    40  38  22    42  38  20    41  42  27    41  44  30    57  62  46    78  86  62    83  95  59    59  69  32    48  57  28    40  44  26    38  49  27    37  45  24    54  55  37    63  60  43    37  34  17    50  51  35    71  80  64    60  73  55    54  58  41    27  32  17    27  34  18    24  27  13    20  23   7    45  47  26    57  55  33    52  48  24    49  54  23    56  56  26    47  41  16    44  33  11    71  61  27    84  80  26    74  73  18    62  63  16    63  67  16    53  61   5    69  79  17    64  78  17    56  74  18    31  48   3    29  49  13    20  39  11  
 128 145  14   202 208 140   247 239 217   218 217 172   133 147  51   105 120  38    48  54  26    29  29  21    41  32  29    51  39  23    39  36  21    50  51  34    57  62  40    56  68  41    74  87  59    65  75  50    53  58  36    45  48  30    36  39  32    37  41  26    55  60  37    72  77  54    52  55  38    64  65  57    62  63  56    47  48  41    77  94  84    44  60  49    16  28  14    21  29  13    29  32  15    27  27   7    49  44  24    50  43  24    46  46  20    55  56  14    54  53   9    45  38   9    90  80  44   115 106  38   130 119  38   108  96  22    67  57  20    47  49   5    40  53   1    67  85  24    65  84  21    27  42   2    34  49   8    26  42  13  
 132 144  12   192 194 125   238 233 196   220 223 168   135 152  50   119 137  51    62  72  38    17  19   7    33  27  20    46  39  18    39  33  21    46  43  29    54  57  39    51  60  37    66  76  52    72  79  57    51  55  36    44  47  30    35  38  30    36  40  25    54  60  37    75  81  57    65  71  52    62  67  55    65  70  58    50  55  41    62  77  65    58  71  58    12  22   9    21  28  13    28  31  15    25  27   9    28  26   8    35  31  13    42  38  22    67  67  26    72  70  22    44  38   6    66  56  27    83  74  22   119 111  39   115 107  32    91  86  23    54  57   5    32  43   3    33  47   5    51  64  15    57  70  16    46  61  15    39  55  18  
  96 102   4   165 170  81   235 235 180   203 208 146   121 137  40    83 100  19    43  54  18    23  27   9    25  24  13    31  28  11    40  34  23    45  41  30    46  47  32    45  48  31    46  52  34    69  73  56    60  62  47    41  42  27    43  48  38    55  60  45    46  55  31    55  64  40    49  59  39    48  59  41    84  97  76    80  93  68    35  46  31    51  61  45    39  47  33    30  36  22    29  33  18    29  32  16    33  35  18    26  26   9    54  48  28    61  57  22    69  65  26    53  47  18    56  47  19    72  65  17    82  76  14    98  92  30    98  97  24    65  68  13    33  42   6    30  40   9    45  54  12    61  69  16    48  61   3    53  69  14  
  70  74  14   129 142  40   222 226 155   184 187 129   122 133  55    60  73   8    49  60  22    55  64  33    25  27  14    28  28  19    44  37  27    43  39  28    38  37  24    43  44  31    37  39  26    53  55  41    65  66  52    67  68  54    56  63  51    49  57  40    34  44  22    51  62  40    45  56  38    40  53  35    68  82  57   102 117  86    55  65  43    37  46  24    60  69  51    35  42  27    23  27  13    24  26  12    33  35  20    24  26  10    38  33  10    58  53  23    49  44  14    54  48  22    50  44  15    61  56  12    70  67  14    68  64  14    85  83  11    72  73  15    33  40   1    31  38   1    49  53   3    72  75  17    68  75  16    61  72  17  
  90  98  33   104 117  25   188 191 114   202 202 147   145 152  84    50  59   3    65  73  34    95 103  64    53  58  36    38  40  26    34  32  19    31  29  16    28  28  15    30  30  18    42  44  31    52  56  41    47  51  34    61  65  49    68  78  63    55  66  47    30  42  22    45  56  39    47  58  43    50  61  45    57  69  45    96 109  79    75  88  54    45  58  28    67  77  53    49  56  38    27  31  16    25  27  14    23  24   8    25  26  10    32  29  13    53  48  21    52  49  14    42  39   8    45  39  13    59  52  22    74  69  26    65  62   8    66  59   8    52  50   3    48  50   6    82  84  29   110 111  40   118 117  41   103 105  33    87  92  31  
 133 140  64   106 113  26   165 164  91   219 219 158   167 172  97    62  68   5    57  64  23    78  85  43    81  88  48    81  87  47    32  33  17    29  30  14    28  30  16    24  26  13    49  52  39    64  68  53    46  53  35    31  39  18    56  69  51    63  75  55    37  49  29    45  53  41    47  54  47    37  43  34    46  52  35    76  85  58    84 101  59    67  82  45    56  67  37    64  72  49    43  47  30    28  31  14    26  27  11    33  32  14    29  27  12    38  39  15    46  46  13    45  42   9    56  51  21    62  55  25    76  70  28    72  66  12    64  51  19    73  67  12   115 118  39   150 150  71   135 127  61    97  86  30    99  94  29   111 112  33  
  99  98  44   132 136  49   168 162  86   189 186 117   143 149  55    74  80   6    62  69  12    53  62   2    67  75  25    77  85  36    33  37  15    29  32  14    28  30  16    29  32  20    44  48  34    54  62  43    53  62  39    34  45  19    35  47  23    49  62  40    57  69  50    48  58  43    41  49  39    37  42  34    50  54  38    84  91  61    97 117  69    98 116  66    58  70  31    46  53  28    40  46  24    37  40  21    41  41  23    27  24   5    23  24   5    34  35  14    45  45  21    50  49  19    59  55  20    63  58  21    60  54  14    62  57  10    75  62  25    83  76  25   102 100  36   115 111  38   108 102  27    98  89  17   114 105  31   106  98  21  
  40  38   7    87  88  29   169 161  71   191 186 100   148 153  38    86  92   1    98 113   1   111 130   3    85  97  25    56  61  29    55  60  18    37  39  10    27  29  13    35  38  28    42  47  33    45  54  33    42  51  27    43  54  28    40  52  23    36  48  26    68  82  58    73  89  59    48  63  38    45  57  42    56  66  46    79  91  53    90 112  60   107 125  59    97 108  53    63  70  39    49  59  31    40  49  25    30  32  17    27  25   7    28  26  13    36  35  17    36  35  12    45  44  14    57  54  21    57  53  17    63  59  21    76  72  31    83  78  30   104  97  41   113 108  42   110 107  36   104 105  35    95  92  25   110  97  31   122 100  34  
  33  30  14    44  40  11   148 143  55   172 172  70   128 134  20    90  98   1   119 137   3   126 151   1    84  99   9   104 113  53   147 148  76    71  71  21    38  41  16    35  41  27    43  53  35    40  49  26    33  41  20    31  35  21    26  37  19    24  36  20    39  53  30    68  86  49    71  89  48    49  65  35    44  58  36    49  60  39    74  90  50   110 123  59   124 134  71   129 136  97    84  95  64    41  50  30    28  31  19    24  25   8    26  24  10    35  34  16    30  30   6    46  45  15    53  49  15    46  44   6    66  62  24    74  70  32    65  62  16    99  94  39   113 108  42   123 120  49   126 128  56   121 120  49   118 107  36   141 122  50  
  36  32  21    33  28  17   108 104  32    98  99  18    69  73   1    81  89   2   112 127   7   107 128   1    56  65   1   100 105  46   206 200 110    93  89  29    38  41  14    31  39  24    41  55  32    50  63  33    43  49  26    32  33  19    13  24   8    27  38  24    33  46  25    52  69  33    83 102  57    68  86  46    42  56  30    28  39  25    65  75  47   133 143  82   132 139  72   128 136  89    98 107  76    58  69  53    23  27  20    24  26  12    32  31  13    39  37  19    34  33  11    52  50  20    68  68  30    59  57  17    54  52  13    59  56  21    59  57  16    85  82  30    93  87  24   119 116  47   126 128  55   120 120  46   116 109  34   151 138  60  
