P3
50 50
255
  34  32  19    34  32  19    30  28  15    25  23  11    23  21   9    25  22  13    24  21  12    22  19  10    22  18   6    26  22  10    26  22  10    30  26  14    28  24  12    24  20   8    28  24  12    29  25  13    20  19  15    12  11   7    11  10   5    11  11   3    21  18   9    44  37  29    62  53  44    69  59  50    72  69  64    51  48  43    30  26  23    14  13   9    21  19  14    24  24  17    39  41  28    39  41  27    24  25  19    18  19  11    22  24  13    41  42  28    48  49  35    52  50  38    52  49  40    41  37  28    31  26  23    42  37  31    48  44  33    33  30  15    38  37  19    45  44  26    46  45  27    30  28  13    20  21   7    19  16   7  
  30  28  15    31  29  16    30  28  15    26  25  12    25  23  11    25  23  11    25  22  12    23  20  11    25  21  10    26  22  11    24  20   9    29  25  14    29  25  14    26  21  11    28  24  13    27  23  12    21  19  15    13  12   8     9   8   3    11  11   3    20  17   9    44  38  30    71  62  53    77  67  58    67  64  59    58  56  51    31  27  24    16  16  11    18  17  12    20  20  13    35  37  24    42  45  31    28  30  23    20  21  13    22  24  13    38  38  26    46  46  33    53  50  39    56  54  42    47  43  34    38  33  28    40  35  29    50  46  36    44  42  29    36  34  20    24  22   8    24  22  10    17  15   4    16  16   5    20  17  10  
  27  24  12    28  25  13    28  25  14    29  26  14    29  26  15    28  25  14    26  23  12    24  21  11    26  22  11    26  22  11    24  20   9    28  24  13    29  25  14    27  23  12    29  25  14    29  25  14    23  20  14    16  15  10     8   7   2    11  11   4    15  12   5    35  31  23    68  60  52    69  60  51    66  63  57    69  66  61    32  29  25    18  17  13    19  18  13    21  21  13    29  31  19    42  44  31    32  33  26    21  22  14    19  21  10    33  33  22    40  40  28    50  48  36    57  55  43    51  47  37    40  36  29    39  36  27    49  46  37    46  44  33    29  26  17    16  13   6    19  16  10    17  15   9    11  11   2    14  11   5  
  26  22  11    25  21  10    25  21  10    28  24  13    32  28  17    32  28  17    28  24  13    24  20   9    25  21  10    27  23  12    24  20   9    27  23  12    26  22  11    25  21  10    30  27  15    33  29  18    25  22  14    19  19  12     9   8   3    10   9   5     8   7   1    24  21  14    57  50  42    58  49  40    62  59  52    74  71  66    35  32  27    18  17  13    19  18  13    20  20  12    23  25  14    40  42  29    37  38  28    23  25  15    17  19   8    28  28  18    34  34  23    45  43  31    55  53  41    52  48  36    42  39  28    40  38  27    48  45  36    45  43  35    25  23  17    17  15  11    19  17  13    14  13  11    16  16   8    16  13   6  
  27  23  14    23  19   8    22  18   7    27  23  12    32  28  17    33  29  18    29  25  14    25  21   9    26  22  11    27  23  12    25  21  10    26  22  11    24  20   9    24  20   9    32  28  17    37  33  22    30  28  17    24  21  12    11  10   5     9   8   4     7   6   2    21  18  11    50  46  37    62  56  44    57  54  47    76  73  66    48  46  41    22  21  17    22  22  17    21  21  13    23  25  14    46  48  37    40  42  31    24  26  15    15  16   8    25  25  17    33  33  23    47  44  34    61  59  46    60  56  44    51  49  36    42  40  28    40  37  28    42  39  34    24  23  19    16  15  11    15  14  10    17  16  13    15  15   5    26  23  16  
  27  23  14    24  20  11    23  19   8    26  22  11    29  26  14    29  26  14    28  24  12    28  24  12    30  26  15    29  25  14    23  19   8    24  20   9    24  20   9    24  20   9    33  29  18    37  33  22    33  31  19    25  22  13    12  11   6     8   7   3     9   8   4    20  17  12    43  39  30    65  59  47    59  56  47    76  73  66    61  58  53    25  24  19    27  26  21    23  22  17    21  22  14    47  49  38    46  48  35    28  30  19    15  16   8    22  22  14    29  29  22    46  43  34    64  62  49    66  63  48    56  54  41    43  41  29    32  29  20    37  34  29    22  21  16    17  16  11    15  15   7    24  24  16    23  25  11    28  26  14  
  27  23  13    24  20  10    25  20  11    27  23  12    27  23  12    27  23  11    27  23  12    30  27  15    33  30  20    28  24  15    20  17   9    20  17   9    23  19  10    25  20  12    32  28  18    37  32  22    32  29  17    25  22  13    15  13   8     8   7   4    11  10   7    17  14   9    32  28  19    59  55  44    62  59  50    70  67  60    61  59  54    22  22  17    26  25  20    22  21  16    17  18  11    36  37  27    55  56  43    37  38  27    20  21  11    20  20  13    25  25  16    40  38  29    57  55  43    59  57  43    54  51  40    45  43  32    34  31  23    35  35  27    27  25  20    19  19  11    15  15   6    21  21  10    30  30  17    27  24  13  
  32  28  16    24  20   8    24  20   8    25  21  10    27  23  12    28  24  13    26  22  11    30  26  15    31  29  17    24  21  12    16  16   8    15  15   7    19  16   9    24  20  11    34  27  17    43  35  24    32  28  17    30  26  17    19  16   9     8   7   2    12  11   6    16  13   6    28  24  15    57  53  44    63  59  50    63  59  52    56  55  50    22  23  18    22  23  18    22  23  18    16  17  11    25  25  17    49  49  37    45  45  33    32  32  20    24  24  13    26  26  16    37  37  27    50  50  40    52  52  42    56  53  46    44  41  34    32  29  22    36  33  26    32  29  22    17  17   9    18  18  10    22  22  14    32  28  17    25  21  10  
  37  33  21    27  23  11    23  19   7    22  18   7    25  21  10    29  25  14    27  23  12    30  27  15    33  30  19    25  22  13    17  15   8    15  15   7    19  16   9    26  22  13    37  30  20    46  38  27    34  30  19    30  27  18    20  17  10     9   8   3    11  10   5    15  12   5    26  21  12    52  48  39    70  63  54    67  63  54    57  54  48    25  26  20    23  24  19    24  25  20    17  18  12    18  18  10    41  41  30    47  47  37    39  39  28    29  29  19    30  30  20    40  40  30    50  50  40    49  49  39    51  50  42    39  38  30    30  29  21    35  34  26    31  30  23    17  17   9    16  16   8    21  21  13    31  28  19    22  19   7  
  40  36  24    31  27  14    27  22  10    24  20   9    26  22  11    29  25  14    29  25  14    33  29  18    39  34  24    29  26  17    20  17  10    16  16   8    21  18  11    28  24  15    39  32  22    48  42  30    36  32  21    32  28  19    21  18  11    10   9   4    11  10   5    14  11   4    23  19  10    46  42  33    80  73  63    73  69  60    56  53  46    31  31  25    26  27  22    25  26  21    17  18  12    14  13   8    34  34  26    40  40  32    35  35  25    25  25  15    24  24  14    43  43  33    59  59  49    52  52  42    43  43  35    32  32  24    27  27  19    32  32  24    29  29  21    17  17   9    16  13   6    21  18  11    28  25  16    19  16   7  
  36  32  19    32  28  16    31  27  15    27  23  12    26  22  11    29  25  14    30  26  15    36  32  21    39  35  24    29  25  16    19  16   9    15  15   7    19  16   9    24  21  12    34  29  19    42  37  24    36  32  21    31  27  18    22  19  12    10   9   4    11  10   5    14  11   4    20  16   7    39  35  26    82  74  63    80  73  63    55  52  45    36  35  30    30  31  26    26  27  22    20  21  15    17  18  12    27  27  19    32  32  24    36  37  29    27  27  19    15  15   7    37  37  27    66  66  56    60  60  50    39  40  32    29  30  22    27  27  19    30  30  22    27  27  19    19  19  11    16  13   6    20  17  10    27  24  15    20  17   8  
  33  29  17    32  28  15    33  29  17    28  24  13    26  22  11    29  25  14    29  25  14    35  31  20    40  33  23    29  25  15    19  16   9    17  16   8    18  18  10    24  21  12    30  27  15    37  32  20    33  29  18    29  25  15    22  19  12    11  10   5    11  10   5    14  11   4    18  14   5    33  29  20    71  61  51    85  78  67    58  55  46    38  37  31    32  33  28    31  32  27    25  26  20    21  22  16    23  24  18    26  27  21    31  32  26    27  28  21    17  18  10    33  34  24    55  57  46    50  52  41    38  40  32    31  32  25    30  31  22    28  28  20    25  25  17    22  22  15    18  16   8    20  17  10    29  25  19    22  19  12  
  34  30  18    31  27  15    31  27  15    26  22  11    25  21  10    28  24  13    28  24  13    32  28  17    37  30  20    26  22  13    19  16   9    18  15   8    19  19  11    23  20  11    29  25  14    32  28  16    32  28  17    27  23  14    21  18  11    12  11   6    12  11   6    14  11   4    17  13   4    29  25  16    59  49  37    93  85  74    65  61  52    38  38  30    31  32  26    34  35  30    27  28  22    17  18  12    22  23  18    29  30  25    32  33  27    31  32  26    26  27  19    31  32  24    43  45  34    44  46  35    37  40  31    33  35  26    32  33  25    24  25  17    23  23  15    24  24  16    20  17  10    19  16   9    27  24  17    22  19  12  
  35  30  19    28  25  13    30  26  15    28  24  13    25  20  10    26  22  11    25  21  10    28  24  14    28  24  16    21  18  10    15  12   5    16  13   6    20  18  10    21  18   9    26  22  13    32  29  19    32  28  17    27  23  13    22  18  10    15  12   6    13  10   5    13  10   5    17  14   6    24  20  13    56  46  36    94  85  76    79  73  64    45  42  34    37  35  28    32  31  26    30  31  25    18  20  14    18  20  15    33  34  28    40  42  34    42  43  34    32  33  23    26  28  18    35  36  27    46  48  40    37  37  32    32  32  26    35  35  29    26  26  20    22  22  14    25  25  17    18  15   8    17  14   7    23  21  15    19  18  10  
  36  32  20    27  23  12    28  24  13    27  23  12    23  19   8    24  20   9    23  19   8    26  22  13    22  19  12    17  14   7    13  10   3    16  13   6    20  17   8    21  18   9    25  22  13    33  30  21    37  33  21    32  28  17    24  21  12    17  14   7    12   9   4    12   9   4    17  14   7    23  20  13    50  41  32    92  83  74    88  81  71    52  48  39    41  38  31    31  30  25    34  34  29    22  25  19    18  19  13    32  33  27    39  40  32    53  55  44    37  39  27    25  27  16    29  30  22    43  44  38    43  42  37    35  34  29    38  37  32    27  26  21    20  20  12    24  24  16    19  16   9    19  17   9    21  20  15    21  21  13  
  33  29  17    24  20   9    24  20   9    24  20   9    23  19   8    25  21  10    24  20   9    27  23  14    16  13   6    14  11   4    13  10   3    17  14   7    21  18   9    21  18   9    24  21  12    33  30  21    37  33  21    34  30  19    28  24  15    20  17  10    13  10   5    11   8   3    15  12   5    22  19  12    46  37  28    86  79  69    89  82  74    55  51  42    42  39  32    35  35  27    38  39  33    27  28  22    20  20  12    30  30  22    37  39  28    59  61  48    38  40  29    24  25  17    24  24  19    41  42  36    49  48  43    41  40  35    40  39  34    29  28  23    21  20  15    22  22  14    20  17  10    20  17  10    22  21  16    26  26  18  
  33  30  17    25  21  10    25  21  10    25  21  10    25  21  10    26  22  11    23  19   8    24  20  11    16  12   6    15  11   4    15  12   4    20  16   7    22  19  10    21  18   9    24  20  12    32  29  20    33  29  17    32  28  17    30  26  17    23  21  13    16  13   8    11   8   3    13  10   3    18  15   8    40  32  23    77  70  61    87  81  72    60  56  47    46  43  36    39  39  31    41  42  35    32  33  26    25  24  13    30  29  18    50  50  37    54  54  42    36  38  25    23  24  16    20  22  15    43  44  39    53  52  46    46  45  39    43  42  37    33  32  27    24  23  18    21  20  15    19  15   9    18  15   8    23  22  17    29  29  20  
  34  31  18    26  23  12    28  25  14    29  26  14    27  24  13    27  24  12    23  20   8    23  19  10    20  16   8    18  15   6    19  15   6    22  19  10    25  21  12    22  19  10    23  20  10    31  27  17    36  32  20    34  30  19    31  27  18    25  22  15    17  14   9    12   9   4    14  11   4    18  15   8    31  24  16    66  59  51    89  85  76    75  71  62    58  55  48    43  43  35    44  44  36    40  41  33    32  29  17    40  37  25    69  67  54    48  47  34    38  38  26    25  26  18    20  21  15    40  41  36    56  56  48    49  49  41    45  44  38    35  34  29    25  24  19    19  18  13    19  16  11    18  15  10    21  20  15    26  26  18  
  31  29  16    24  22  10    28  26  14    29  27  15    27  25  13    27  25  13    24  22  10    25  22  13    24  20  11    21  17   8    20  16   7    23  19  10    26  22  13    23  19   8    23  19   8    29  25  14    37  33  21    34  30  19    30  26  17    24  21  14    18  15  10    13  10   5    14  11   4    17  14   7    26  19  11    53  48  39    86  82  73    87  83  74    71  68  61    49  47  40    46  46  38    47  47  39    35  31  17    53  50  35    69  66  52    42  40  25    37  37  25    26  26  18    20  22  15    36  36  33    56  56  47    49  49  41    43  43  35    35  35  28    24  23  18    16  16  11    18  15  10    17  15  10    18  17  12    22  22  15  
  35  33  20    28  26  14    31  29  17    30  28  16    25  23  11    23  21   9    20  18   6    23  20  11    26  22  13    22  18   9    19  15   6    22  18   9    26  22  11    24  20   9    23  19   8    29  25  14    32  28  16    30  26  15    27  23  14    24  21  14    19  16  11    15  12   7    14  11   4    15  12   5    29  24  15    42  38  29    74  70  61    85  82  73    78  75  68    57  54  47    49  49  42    51  51  43    37  31  17    61  58  43    55  52  37    35  33  18    31  31  19    24  24  16    23  24  19    36  36  34    51  51  43    47  47  39    43  43  35    39  39  31    27  26  21    17  16  11    17  14   9    14  10   7    19  18  13    23  23  15  
  37  31  17    31  27  16    29  26  19    27  27  17    28  29  13    28  26  11    23  21   9    24  19  15    24  22  10    25  21  10    25  21  10    27  23  12    28  24  13    24  20   9    24  20  11    32  24  16    29  26  17    27  24  15    26  23  14    24  21  12    19  16   9    14  11   4    13  10   5    16  11   7    18  18  10    32  32  24    62  61  54    91  88  81    78  75  68    68  65  60    56  53  48    58  55  50    35  35  27    29  29  21    23  23  15    32  32  24    34  34  27    28  29  21    32  33  25    30  33  24    40  42  31    36  38  27    42  42  34    43  43  35    37  37  29    13  12   7    14  13   8    15  14   9    19  16   9    22  19  12  
  39  33  16    31  26  15    30  26  19    29  28  18    28  28  13    28  26  11    25  21  10    26  21  17    26  24  12    25  22  10    23  19   8    25  21  10    27  23  12    25  21  10    23  19   8    29  22  12    30  28  16    27  25  13    24  21  12    23  20  11    21  18  11    18  15   8    16  12   7    15  12   7    19  19  11    30  29  21    57  54  47    90  87  80    87  83  77    69  66  59    55  53  47    65  62  56    42  42  34    26  26  18    23  23  15    27  27  19    30  31  23    33  34  26    34  35  27    38  39  31    41  43  32    37  39  28    37  38  30    43  43  35    35  35  27    15  14   9    14  13   8    18  17  12    18  16   8    23  20  13  
  44  38  19    32  26  13    33  29  20    34  31  22    32  30  17    32  30  15    31  27  15    34  28  21    26  24  12    24  20   9    21  17   6    23  19   8    28  24  13    28  24  13    25  21   9    29  22  11    32  29  17    30  27  15    27  23  13    26  22  13    23  20  13    20  17  10    18  15  10    17  14   9    18  17   9    26  23  16    46  43  36    87  84  77    97  94  87    69  66  59    53  49  42    68  64  57    49  49  41    24  24  16    24  24  16    28  29  21    28  29  21    37  38  30    40  41  33    39  40  32    43  45  34    39  41  30    33  34  26    45  45  37    35  35  27    19  18  13    12  11   6    19  18  13    22  19  12    25  22  15  
  55  48  26    33  27  11    34  30  19    35  32  23    32  30  17    36  33  18    36  30  18    39  32  22    27  25  13    24  20   9    19  15   4    21  17   6    29  25  13    30  26  15    27  23  11    29  23  11    34  30  18    34  30  18    32  28  17    28  24  15    23  19  11    18  16   8    17  14   9    17  14   9    21  18  11    25  22  15    41  37  31    83  81  73   103 100  93    69  65  56    46  42  34    58  54  46    52  52  44    24  24  16    23  24  16    34  35  27    26  27  19    36  36  28    52  52  44    42  42  34    44  46  35    41  43  32    34  35  27    49  49  41    39  39  31    23  22  17    11  10   5    16  15  10    24  23  16    23  22  14  
  71  63  38    37  29  11    35  28  18    34  30  21    32  28  16    39  36  19    37  31  17    37  28  19    30  29  17    27  24  12    22  18   7    23  19   8    30  26  14    33  29  17    29  26  11    29  23   9    37  31  17    39  33  21    38  33  21    31  27  16    23  19  10    17  14   7    16  13   8    17  14   9    19  16  11    24  21  16    37  34  27    79  76  69   109 104  96    73  69  60    49  44  35    51  47  38    52  53  45    27  29  20    25  26  18    36  37  29    25  26  18    34  34  26    61  61  53    54  54  46    49  50  39    45  47  37    39  39  32    48  48  40    44  44  37    27  26  21    14  13   8    14  13   8    25  25  17    23  23  15  
  84  77  48    40  33  14    34  28  16    34  30  19    33  29  17    44  40  23    40  35  20    39  31  20    33  30  21    30  26  15    24  20   9    24  20   8    31  27  15    34  31  16    31  28  13    30  24  10    38  32  18    40  34  20    39  33  21    30  26  15    24  20  11    19  16   9    17  14   9    15  11   8    15  12   7    21  18  13    33  30  23    72  67  61   106 102  93    78  74  65    56  52  41    47  43  32    45  46  38    32  33  25    29  30  22    32  32  24    25  25  17    31  31  23    50  50  42    61  61  53    51  53  42    47  49  38    38  39  31    39  39  31    42  42  34    25  24  19    16  15  10    14  13   8    22  22  14    24  24  16  
  85  77  48    41  35  14    35  29  17    33  29  18    37  33  20    49  44  27    46  40  23    46  36  25    35  31  21    30  25  14    26  21  10    27  22  10    34  30  17    38  33  19    33  29  15    33  26  13    40  32  20    41  36  21    37  32  20    29  26  13    26  21  12    22  18  10    18  14   9    14  11   7    17  13   7    24  20  14    31  28  21    67  62  56   102  98  90    79  75  65    55  51  40    43  38  26    40  41  32    34  34  26    33  34  25    28  29  22    24  24  17    29  29  21    38  38  29    54  54  45    50  51  41    44  45  35    36  37  30    31  31  24    35  36  28    22  22  17    16  15  10    13  12   7    18  18  11    22  21  14  
  70  60  34    40  32  14    39  33  22    33  29  18    37  34  19    45  40  21    48  39  22    50  38  24    41  35  21    32  26  12    30  24  10    32  26  12    37  31  17    40  33  21    34  27  14    32  25  12    38  32  20    42  39  24    40  37  22    32  29  14    29  25  13    25  21  10    20  15   9    17  14   9    20  16   6    27  23  14    31  26  20    60  55  49    97  92  86    86  82  72    57  51  39    54  48  35    49  45  34    41  38  29    33  33  25    29  30  24    22  23  17    28  29  21    39  39  29    44  44  32    48  49  41    41  42  34    37  38  30    30  31  25    27  28  22    24  25  20    15  16  11    12  13   8    16  15  11    13  12   8  
  66  56  33    35  26  10    43  36  26    38  34  23    35  32  16    44  39  20    50  41  23    50  38  22    42  35  22    35  29  15    34  28  14    33  27  13    35  29  17    36  30  18    31  25  12    30  24  12    32  26  14    38  34  21    40  37  22    36  33  18    32  28  16    28  24  13    24  19  13    21  18  12    18  15   6    21  18   9    32  27  20    51  46  40    87  82  76    86  82  73    56  52  40    60  56  44    45  41  30    39  36  27    34  34  25    27  28  22    22  23  17    27  28  20    44  44  34    60  59  47    47  48  40    42  43  35    35  36  28    28  29  23    28  29  23    25  26  21    15  17  12    15  16  11    13  12   8    11  10   6  
  61  50  30    37  29  14    42  35  27    38  34  23    39  35  19    49  44  24    58  50  29    53  42  24    44  39  24    39  34  19    39  32  19    35  29  17    34  28  16    34  28  16    29  22  12    27  23  12    28  21  11    34  30  18    39  35  23    38  34  22    34  30  18    29  25  14    27  23  14    27  24  17    19  17   8    19  16   7    28  25  18    48  43  37    82  77  71    85  81  72    56  52  41    61  57  45    35  33  20    38  35  26    38  38  30    28  29  23    22  23  17    26  26  18    49  49  39    71  69  57    46  47  39    43  44  36    36  37  29    29  30  24    32  33  27    29  29  24    17  18  13    17  18  13    13  12   8    10   9   5  
  47  36  14    40  31  16    38  31  21    37  33  22    43  40  23    49  44  24    64  55  35    57  46  28    45  39  25    40  34  20    37  32  17    32  26  14    30  24  13    30  26  15    26  22  11    26  22  11    27  20  10    30  26  15    37  33  21    38  34  22    32  28  16    27  23  12    27  23  14    28  25  18    24  22  13    23  20  13    23  20  13    39  37  32    71  66  60    74  70  61    61  57  46    70  66  55    38  36  24    35  35  25    39  39  31    28  29  23    26  27  21    28  28  20    49  46  37    60  58  46    42  42  34    37  38  30    34  34  27    30  31  25    32  33  27    30  31  26    19  20  15    17  18  13    14  13   9    10   9   5  
  53  44  17    40  31  13    37  31  20    35  32  20    41  38  23    46  41  22    58  49  32    58  46  32    46  38  25    38  32  18    33  27  13    27  21   9    26  22  10    30  26  15    25  21  12    23  20  11    27  20  12    27  23  13    33  29  18    37  33  21    31  27  15    26  22  11    27  23  14    29  25  19    20  17   8    20  17  10    22  19  13    34  31  26    63  60  53    72  68  59    64  60  49    73  69  58    44  43  30    32  32  22    40  41  32    35  36  30    31  32  26    24  24  16    49  46  37    62  58  47    39  40  32    31  32  24    30  31  23    28  29  23    29  30  24    30  30  25    22  23  18    17  18  13    15  14  10    11  10   6  
  91  82  52    44  36  15    40  34  21    35  31  20    38  35  20    48  42  25    51  42  28    58  45  35    48  41  25    39  33  19    31  25  11    25  19   7    27  23  12    32  29  19    28  25  16    24  21  12    26  19  12    24  20  11    32  28  17    38  34  22    32  28  16    27  23  12    28  24  15    28  25  18    18  15   7    16  13   6    22  19  14    27  24  19    60  57  51    82  79  71    63  59  48    64  60  48    58  58  46    30  30  20    37  38  30    41  42  36    37  38  32    22  22  14    49  46  37    65  61  50    45  46  38    32  33  25    32  33  25    30  31  25    26  27  21    29  30  25    25  26  21    17  18  13    15  14  10    11  10   6  
 127 110  71    59  46  22    37  33  18    37  36  22    40  37  20    44  35  23    53  42  30    58  47  30    50  42  25    39  32  17    30  23  10    25  20   9    28  24  13    33  29  19    32  27  16    26  21  10    23  19  11    24  20  10    35  30  18    39  33  21    35  30  18    28  24  13    25  22  13    28  27  19    20  17  10    15  12   5    18  15   9    24  21  15    53  52  45    72  71  64    57  56  47    57  55  46    60  59  47    31  31  21    33  34  26    42  43  35    36  37  29    25  25  17    45  44  34    62  60  48    56  54  45    30  30  21    32  33  25    29  30  22    27  28  22    25  26  21    24  23  19    18  16  12    14  13   8    13  12   7  
 117  98  56    56  44  18    39  34  22    38  39  23    39  36  19    44  34  24    52  40  28    53  45  26    48  39  22    45  38  22    31  25  11    21  17   5    30  26  15    35  31  20    32  26  14    29  24  12    23  20  11    25  21  10    37  31  19    41  35  23    37  31  19    29  25  14    22  19  10    25  25  17    21  18  11    16  13   6    17  14   7    24  21  14    47  47  39    62  62  54    51  51  43    52  52  44    64  62  50    41  41  31    32  33  25    38  39  33    29  30  24    26  27  19    39  39  29    58  56  44    62  59  49    32  32  22    32  33  25    29  30  22    28  29  23    24  25  20    22  21  17    19  15  12    16  15  10    14  13   8  
 112  93  53    52  40  17    42  39  27    42  40  25    43  38  21    43  33  23    40  30  20    45  37  18    49  40  23    47  40  24    34  28  14    23  19   7    32  28  17    39  35  23    37  30  18    34  26  13    24  21  12    24  20   9    36  29  18    42  36  24    40  34  22    31  27  16    21  18   9    22  22  14    23  20  13    18  15   8    19  16   9    25  22  15    45  45  37    57  57  49    46  46  38    49  49  41    62  60  48    47  47  37    29  31  23    36  37  31    27  28  22    28  29  21    33  33  23    54  52  40    66  63  54    43  40  31    34  34  26    29  30  22    28  29  23    24  25  19    25  24  20    19  18  14    20  19  14    17  16  11  
 109  91  56    46  34  13    38  34  23    41  39  24    49  43  27    46  36  26    37  28  18    48  42  24    53  45  28    42  35  19    33  27  13    31  27  15    37  33  21    45  39  27    44  36  23    36  28  15    27  24  15    24  20   9    32  26  14    40  34  22    41  35  23    33  29  18    22  19  10    21  21  13    22  19  12    19  16   9    22  19  12    27  24  17    46  46  38    54  54  46    43  43  35    46  46  38    49  46  37    41  41  31    26  27  19    38  40  33    32  33  27    31  32  24    28  28  18    55  51  42    73  69  60    54  51  43    36  36  26    30  31  22    27  30  22    25  25  20    27  28  23    25  23  20    24  23  18    19  18  13  
  92  77  44    45  34  17    39  35  25    38  35  20    46  39  23    44  34  25    35  26  17    43  38  23    53  45  30    42  35  19    32  26  12    36  31  19    45  40  28    47  40  27    43  34  20    42  33  18    31  28  19    23  19   8    29  23  11    37  31  19    42  36  24    35  31  20    24  21  12    22  22  14    21  18  11    17  14   7    19  16   9    27  24  17    45  45  37    52  52  44    40  40  32    45  45  37    41  38  29    37  37  28    25  26  19    39  40  34    36  37  31    32  33  26    28  28  19    55  52  43    78  74  64    68  65  56    40  40  30    33  34  26    26  29  20    23  25  18    27  28  22    25  25  21    24  23  19    19  18  14  
  76  61  31    45  35  19    40  36  26    35  31  16    43  36  20    43  33  24    37  28  20    38  35  20    49  42  26    44  37  20    33  27  13    35  28  16    44  38  26    42  34  21    38  29  14    46  35  19    34  31  22    24  20   9    26  20   8    36  30  18    43  37  25    37  33  22    23  20  11    20  20  11    20  18  10    14  11   4    16  12   6    23  20  13    42  42  34    50  50  42    39  39  31    45  45  37    40  38  29    37  37  29    29  30  24    35  36  30    38  39  33    35  36  30    33  33  25    48  45  36    77  71  60    74  70  60    42  42  32    36  37  29    25  29  20    20  23  16    25  26  20    22  23  18    22  21  17    19  18  14  
  83  69  41    49  40  25    38  34  25    37  33  20    47  39  24    41  31  22    36  27  20    34  32  19    47  40  24    42  35  19    37  32  17    36  30  18    33  27  15    35  26  13    39  31  16    44  32  16    37  34  25    24  20   9    26  20   8    37  31  19    45  39  27    37  33  22    21  18   9    16  16   8    24  22  14    16  13   6    14  11   4    21  18  11    40  40  32    50  50  42    41  41  33    47  47  39    41  38  29    40  40  32    34  35  29    33  34  29    42  44  38    42  43  37    39  39  30    40  37  28    70  63  53    73  69  58    41  41  31    39  41  30    28  31  22    20  23  16    24  25  19    22  23  17    23  22  18    21  20  16  
  86  69  39    55  43  21    35  29  17    44  37  29    43  34  25    45  35  24    37  31  19    35  34  22    41  34  19    45  39  25    42  36  22    36  30  16    29  23   9    31  24  11    36  33  19    34  32  17    34  28  16    27  23  11    27  23  11    33  29  18    37  35  23    34  31  22    24  21  12    16  13   4    18  14  11    17  13  10    13  10   5    18  15  10    34  30  24    44  41  32    46  43  34    49  46  37    40  40  32    50  50  42    37  37  29    28  28  20    52  52  42    60  60  50    44  41  32    39  36  27    73  71  59    77  75  63    45  42  33    34  34  24    40  40  32    19  20  12    32  33  27    27  30  23    25  26  21    17  18  13  
 102  87  53    61  50  25    31  25  10    40  36  26    43  35  25    42  33  20    37  30  18    32  30  17    38  32  18    45  39  26    41  35  22    34  28  17    29  23  11    26  21   9    29  25  14    31  27  15    35  31  19    28  24  12    24  20   9    28  24  13    32  30  18    32  30  18    26  23  13    21  17   8    17  13  10    15  12   9    13  10   5    15  12   7    28  25  18    42  39  30    45  42  33    43  40  31    36  36  28    39  39  32    34  34  25    26  26  18    51  51  41    70  70  60    53  50  41    41  38  29    66  64  53    80  77  66    45  43  34    30  30  20    35  35  27    23  23  16    31  31  26    33  35  28    28  29  24    20  21  16  
 112  96  61    85  76  48    40  34  17    37  33  21    44  36  24    40  33  18    35  29  14    33  31  18    38  32  21    45  39  28    36  29  19    28  21  12    25  20  10    21  17   7    25  21  11    29  25  15    32  28  17    27  23  12    23  19   8    25  21  10    31  27  16    33  30  18    28  26  14    22  19   9    16  12   9    15  11   8    13  10   5    14  11   6    23  20  13    42  39  30    48  45  36    39  36  27    34  34  26    34  34  26    36  36  28    24  24  16    39  39  29    68  68  58    61  58  49    48  45  36    49  47  38    74  73  63    44  44  34    30  30  21    33  34  26    32  33  25    31  32  25    40  41  34    34  35  30    27  28  22  
  95  81  43    86  77  48    42  37  18    35  31  19    45  38  24    40  33  17    32  28  13    31  31  17    39  32  22    42  35  25    29  22  14    21  16   7    24  20  10    21  17   8    23  19  10    26  22  13    25  23  11    23  20   8    22  18   7    25  21  10    31  27  16    35  31  20    30  27  15    23  20   8    14  10   7    13   9   6    13  10   5    14  10   5    23  20  13    43  40  30    50  47  38    42  39  30    36  36  28    34  34  25    41  41  33    27  27  19    28  28  18    58  58  48    64  61  52    54  51  42    34  34  25    63  63  54    43  44  35    27  28  20    30  31  23    35  37  29    26  27  19    36  37  29    42  43  37    30  31  25  
 107  93  56    79  70  41    40  37  18    42  38  26    41  35  23    37  29  16    32  28  16    29  29  17    36  29  19    37  30  20    26  22  11    24  20   9    27  24  14    24  21  12    24  20  11    23  19  10    24  21  12    23  21   9    21  19   7    22  18   7    29  25  14    36  32  21    34  29  19    27  24  12    14  10   7    13   9   6    13  10   5    15  12   7    25  22  15    40  37  28    49  46  37    47  44  34    40  40  32    36  36  28    41  41  33    34  34  26    30  30  20    53  53  43    68  64  56    56  53  44    33  34  26    49  50  42    45  46  38    29  31  23    32  33  24    39  40  32    29  30  22    38  39  31    46  47  41    33  34  28  
 114 100  64    72  62  35    39  35  19    40  36  25    34  27  17    37  29  18    35  31  20    32  32  22    33  29  17    34  30  18    30  26  14    30  26  14    28  24  13    25  21   9    25  23  11    24  22  10    26  23  14    26  23  14    22  20   8    21  19   7    28  24  13    36  32  21    36  32  20    29  25  13    16  12   9    14  10   7    12   9   4    16  13   8    25  22  15    33  30  21    40  37  28    48  45  36    44  44  36    37  37  29    37  37  29    38  38  30    32  32  22    45  45  35    67  64  54    58  55  46    35  36  30    36  37  31    48  49  41    36  37  29    38  39  31    44  44  37    35  37  29    36  37  29    40  41  33    40  40  33  
 114  99  60    74  63  34    44  40  23    41  37  27    38  31  22    41  32  22    35  30  21    29  28  20    36  32  18    35  30  19    33  29  17    32  28  16    25  22  10    23  19   7    28  25  13    27  25  13    26  23  14    28  25  15    24  20  11    22  20   8    29  25  14    37  33  20    36  32  20    29  23  11    16  13  10    13  10   7    11   9   4    15  12   7    24  22  15    30  28  19    33  31  22    44  42  34    46  46  38    38  38  30    35  34  27    35  34  27    29  28  20    35  34  26    61  58  50    58  56  47    37  40  33    27  30  23    46  47  41    42  43  35    38  39  31    43  44  36    34  35  27    27  28  20    34  34  26    45  45  37  
 128 110  63    86  74  37    46  42  18    44  41  26    45  39  27    39  31  20    39  32  21    31  27  17    38  32  20    37  31  19    38  32  20    35  31  19    27  23  11    25  21   9    29  25  13    29  25  13    30  26  15    30  26  15    24  20   9    23  19   8    28  24  13    38  32  20    41  35  23    31  25  13    14  13   9     9   8   4    13  12   8    12  11   6    22  21  16    32  33  25    28  29  21    37  38  30    47  47  37    39  39  31    32  31  26    29  28  23    30  29  24    27  26  21    48  48  40    54  54  44    44  47  40    31  34  27    40  42  36    50  51  43    35  36  28    44  44  36    41  41  33    36  36  28    35  35  25    45  45  35  
 127 109  60   116 104  64    53  49  23    45  42  27    50  44  32    40  32  19    36  30  16    34  30  18    36  31  18    36  30  18    39  33  21    38  33  20    30  26  14    25  22  10    27  23  11    29  25  13    34  30  19    31  27  16    26  22  11    24  20   9    24  20   9    34  29  18    41  37  25    30  25  14    12  11   7    10   9   5    13  12   8    11  10   5    21  20  15    33  34  25    29  30  22    33  34  26    49  49  39    46  46  38    31  30  25    28  27  22    26  25  20    22  21  16    33  33  25    52  52  42    50  53  47    39  41  34    39  40  34    50  51  43    37  38  30    37  38  31    41  42  34    42  42  34    42  42  32    48  48  38  
 115  98  46   115 105  63    50  46  19    39  36  21    45  39  27    43  34  22    36  30  16    31  28  13    35  29  17    35  29  17    37  31  19    40  34  22    34  29  17    27  23  11    27  23  11    31  27  15    39  33  21    34  29  17    30  25  13    26  22  11    20  16   5    28  24  13    38  34  23    26  22  11    11  10   6    11  10   6    13  12   8    10   9   4    19  18  13    32  33  25    30  31  23    28  29  21    48  50  39    55  56  48    34  35  29    25  26  21    20  21  16    18  19  13    20  21  13    46  48  37    59  60  54    45  46  40    31  33  26    45  46  38    46  47  39    37  38  30    39  40  32    35  36  28    51  51  41    52  52  42  
