P3
50 50
255
  35  29   5    28  18   3    37  22   7    50  32   3    75  56   4   106  84  19   119  97  30   115  94  32   112  94  25   109  96  26    92  81  17    90  78  15   105  91  24   119 101  36   124 103  40   116  94  34   107  85  24   108  86  21   111  88  20   110  87  17    97  79  19    78  62  21    73  59  31   101  88  50   137 120  68   144 121  63   142 112  54   152 120  56   157 128  61   139 112  41   135 108  34   138 109  37   132 101  33   133 104  29   141 111  26   153 125  25   153 128  17   137 114   5   121 100   1   122 102   8   126 108  16   130 113  28   133 116  39   122 104  32   113  93  22   120  98  25   121  97  25   109  87  21    91  72  11    81  64  14  
  43  37  14    34  24   8    36  20   7    58  40  12    85  64  13   120  99  31   140 117  49   132 109  48   123 103  35   115 100  30    96  82  15    96  81  16   109  95  25   124 106  36   128 107  42   123 101  41   106  81  25   101  76  18   105  81  18   106  83  15   111  93  19    93  77  26    69  56  17    86  75  26   136 121  54   163 140  68   175 145  77   167 136  71   152 125  52   152 129  47   160 139  56   158 135  56   146 121  48   145 119  45   141 115  32   136 112  13   147 124  17   136 116  10   115  98   1   103  87   1   124 105  12   130 113  28   137 119  47   121 101  41    99  76  25   105  78  30   109  82  33    98  74  22    90  69  20    83  65  26  
  57  50  18    35  26   9    36  24  13    51  36   9    85  70  15   119 101  26   144 125  45   139 119  47   123 106  44   115  99  42    95  83  24    88  77   5   106  96  13   120 105  30   133 114  43   134 109  38   122  93  26   114  84  18   115  87  19   110  85  14   104  84  21   104  85  30    85  68  21    85  68  25   103  85  36   125 110  44   148 132  56   164 143  61   160 133  44   157 133  40   156 141  49   148 134  53   140 122  50   126 112  41   120 107  30   123 112  22   121 112  13   113 105   5   102  93   1    98  91   1   114 101   9   124 111  19   127 111  31   117  98  39   101  79  35    83  60  19    88  65  21    95  73  26   107  87  30   101  81  27  
  70  59  14    48  34   5    45  29  10    51  33   2    82  64   4   120 101  21   147 127  41   146 127  51   134 115  47   115 100  39    95  84  22    93  84  11   106  97  15   120 105  23   127 109  27   135 108  32   129 100  24   124  95  15   131 106  18   119  99   4   107  89  14    99  81  22    92  74  32    88  70  36    90  72  33   103  85  34   110  92  35   124 101  37   138 111  40   144 118  42   138 122  42   134 120  47   131 113  47   108  92  29   100  86  21   108  96  23   108  97  15   104  95   6   100  93   1   105  99   4   115 103   1   118 106   5   125 112  20   133 117  43   132 113  54   120  99  42   125 105  44   132 113  48   130 112  41   121 103  40  
  85  72   9    62  47   9    58  38  20    58  36  16    81  59  13   117  97  20   143 125  33   150 132  48   142 126  48   121 108  37    98  88  19    91  82   9    96  87   8   114 101  13   125 106  17   134 110  22   135 108  15   135 107   5   142 119   6   134 115   1   114  97   7    99  80  17    83  63  26    73  54  24    82  63  30    87  69  31    82  61  24    95  70  26   114  85  36   120  93  37   114  94  28   117 102  35   120 104  40   105  91  30    93  80  20    91  80  17    91  80  12    96  88   8   102  95   2   111 106   4   120 113   1   122 115   2   129 119  16   140 126  37   143 127  48   130 114  35   131 116  34   141 124  40   135 118  35   127 110  42  
 106  95  17    81  69  13    62  45  14    55  35  11    68  49   9    97  79  11   127 108  26   140 121  34   140 123  41   134 118  42   112  98  27    90  79   7    89  80   5   103  89   5   121 102  13   131 107  12   139 112   4   143 119   1   147 127   1   150 132   1   130 113   8   106  86  17    75  54  16    68  48  16    84  67  25    87  68  25    78  57  17    81  54  17    91  60  22   102  71  25   103  79  18   110  92  24   111  96  28   114 102  34   105  96  27    99  90  20    96  91  14   105 100  13   113 108  10   117 113   7   119 112   1   127 120   5   130 121  13   132 121  21   135 122  27   129 117  22   128 115  22   135 119  30   130 113  30   123 104  39  
  95  89   2    85  78   5    65  56   2    57  44   3    62  48   4    84  67  10   117  98  27   132 111  22   135 115  28   136 118  34   123 107  27    95  82   6    81  71   1    90  77   1   106  89   4   124 101   3   142 120   1   155 134   1   160 140   1   162 144   7   140 123   8   111  90  12    87  65  18    88  67  25   103  84  28   113  93  30   112  90  30   100  71  21   100  68  22   113  80  29   119  89  24   119  95  20   109  93  17   109  99  18   110 104  18   116 112  22   116 114  17   120 118  16   120 116  10   122 115   8   125 115   2   125 115   6   127 115  13   131 119  19   132 120  22   132 118  21   131 115  23   129 112  30   120 102  30   109  88  32  
  95  91   1    92  85  14    73  62  16    59  43  15    56  37   5    75  55   2   112  91  16   140 116  21   145 121  25   146 123  27   143 126  28   123 109  15    99  89   2    96  85   1   102  86   1   117  99   1   147 126   1   163 145   1   170 153   5   164 149   7   143 128   5   113  93   5    93  69  12    87  64  13   110  87  18   138 116  30   145 120  31   136 104  27   127  93  29   135  97  35   139 101  29   130 101  17   116  96  12   113 101  13   113 106  15   119 116  19   124 122  20   131 129  22   130 123  15   126 116   5   131 119   9   119 106   4   124 109  13   139 123  27   135 120  22   125 109  14   117 101  12   106  90  14    98  79  15    92  70  20  
 102  95   6    95  85   9    81  65  12    72  51  12    79  52   6   106  80   6   134 108  12   156 129  23   166 139  28   165 143  24   172 153  33   163 149  33   137 127  14   118 112   3   110 102   1   117 101   1   145 126   5   163 146   1   170 157   1   165 154   1   148 132   6   125 105   8   104  79  14    97  68  14   114  85  17   138 109  15   148 118  10   151 116  16   137  99  19   136  94  22   144  97  19   139 100  14   125  99  14   119 104  19   113 103  18   109 103  19   113 108  19   128 123  25   135 127  19   132 120   5   125 111   3   117 101   2   124 105  12   140 122  26   139 121  22   132 113  18   117  99   9    97  81   1    91  72   7    90  68  17  
 116 102  14   109  97   2   111  97   2   115  96   4   125 100   7   145 116  12   153 124  11   167 140  25   180 154  31   178 154  23   179 160  25   168 153  21   143 134   6   127 125   1   122 117   4   117 103   3   138 120   4   158 144   2   166 156   1   174 167   1   152 137   8   139 120  16   132 106  36   142 111  58   145 112  47   143 110  15   156 123   7   160 123   9   143 104  12   137  90  15   146  95  14   142  98  13   123  95  10   107  89  10    98  86  14    92  84  14    92  85  12   109 101  14   124 113   6   131 118   1   126 110   1   129 110  11   128 108  15   133 113  16   141 122  20   147 127  31   134 116  24   110  96   8   100  82  11    94  73  17  
 136 114  11   147 130   4   150 136   1   135 118   1   121  98   3   128 105   2   146 121   2   168 141  17   182 157  35   185 161  35   183 161  24   172 148  12   157 129   2   143 121   1   133 113   1   132 111   4   134 115   1   153 137   1   170 158   2   171 158   1   148 139   2   148 128  35   176 155  84   182 167  98   182 165  95   170 145  46   161 133   1   158 131   3   147 111   1   142  98   5   144  96  14   139  93  14   134  92  12   112  79  14    88  65  14    78  65  19    83  76  19    98  92  11   120 109   6   136 119   4   137 119   9   142 121   8   144 121  12   145 117  19   144 117  25   148 122  29   147 123  29   128 102  19   108  79  11   102  70  11  
 125 101   3   145 127   1   157 145   1   149 135   1   135 116   1   133 112   1   144 121   3   166 139  20   179 153  37   182 159  38   184 163  30   177 154  17   165 140   5   151 128   1   140 120   1   142 120   7   142 121   1   152 134   1   163 149   1   166 153   1   151 138   4   164 143  53   191 170 101   188 172 103   192 176 106   182 158  58   160 133   1   161 135   1   156 122   4   152 111  11   143  97  12   138  95  11   134  96   9   111  81   6    94  71  10    85  70  15    85  77  14    97  92   8   117 107   3   130 115   1   131 110   1   137 114   2   145 119  12   150 120  26   152 120  34   151 119  32   150 120  30   138 110  25   119  87  15   113  80  13  
 115  89   3   138 118   5   159 144   4   163 149   3   157 139   4   149 127   3   150 124   6   166 140  21   175 152  35   184 162  42   187 169  38   182 163  23   174 152  11   163 141   3   152 129   1   148 124   1   149 128   2   156 138   2   161 145   4   161 146   1   161 147  20   173 152  63   182 161  93   181 163  97   190 170 102   189 163  67   160 132   4   161 137   1   153 123   1   146 108   5   133  92   3   135  96  11   135 100  13   119  91   9   108  87  14    95  82  16    90  83   9   100  95   3   117 107   2   131 115   3   129 107   1   136 111   1   147 117   9   154 119  24   155 117  33   152 114  32   149 112  28   142 109  24   123  90   9   121  88   7  
 123  97  19   136 115  17   150 135  11   160 145   6   160 142   4   151 130   3   147 123   1   158 136   8   168 147  22   181 163  35   188 172  36   183 166  24   176 159  11   175 155   5   166 144   1   158 137   1   157 139   1   159 142   1   159 144   1   163 148   4   171 155  33   177 157  67   175 154  85   178 157  92   191 168  98   175 148  53   150 124   1   158 135   1   145 117   1   132  98   1   122  86   3   126  91  13   125  95  15   117  92  13   112  92  19   100  88  17    99  92  12   109 102   5   122 110   1   136 119   5   141 118   4   150 123   5   160 126  15   167 128  29   171 126  40   170 123  43   164 119  36   147 110  23   132  96   8   131  96   7  
 121 100  13   129 108  14   136 120  10   144 129   4   153 137   3   155 134   4   152 129   3   151 133   1   159 144   3   173 160  16   181 169  24   180 168  21   179 164  13   181 164   4   180 162   1   178 160   1   171 156   3   159 144   1   155 141   1   167 153   5   179 161  39   178 159  64   174 154  81   173 149  83   182 154  82   149 120  24   146 121   1   152 131   4   139 116   5   121  95   6   113  83  10   108  81  15   105  80  13   102  80  15    97  79  17    95  82  18   105  96  16   115 105   7   123 109   1   136 114   4   140 113   1   150 120   3   162 125  13   170 127  27   174 128  39   177 129  44   175 129  44   161 120  34   147 110  17   142 107  15  
 122 106  11   127 111  16   129 113  15   129 113   5   132 115   1   140 120   1   147 127   1   155 138   1   161 149   1   172 163   8   178 169  16   180 170  20   179 168  16   177 163   5   179 166   1   179 166   1   179 166   4   167 153   1   159 145   1   168 155   2   182 163  37   175 157  52   177 157  76   176 149  80   152 121  45   136 108   9   149 126  10   143 124   4   130 110   8   110  89   8    96  75  11    90  69  13    90  72  18    94  76  25    86  70  19    86  73  19    98  87  15   111  97   8   124 102   5   130 103   4   134 100   2   145 109   4   161 120  15   169 124  27   174 125  37   177 127  42   177 129  43   166 123  38   152 113  23   145 111  22  
 110  93  11   110  95  12   110  95  13   107  91   9   109  90   4   118  97   3   131 109   6   148 128   7   158 144   2   167 161   4   171 165   7   173 166  12   172 163   9   164 155   3   166 157   1   166 157   1   173 163   3   170 157   6   162 148   1   164 151   1   172 152  20   167 152  37   175 157  66   180 153  78   144 111  31   145 116  17   147 125  12   133 120   1   119 104   4   102  86   9    86  72  12    81  68  17    84  72  22    85  72  27    77  64  22    79  67  18    91  75  14   108  87  13   124  94  17   120  83  10   120  78   1   131  89   2   146 101  10   156 108  22   162 114  31   164 116  34   166 119  38   160 116  35   147 109  22   142 106  27  
  99  83  23    92  77  12    88  73   8    87  69  11    87  64  10    90  66   6   102  77   2   123 103   1   139 126   1   155 148   1   159 155   1   162 157   3   159 153   2   152 146   4   157 150   1   158 152   1   165 156   1   161 149   1   155 141   1   162 148   1   162 140   4   159 144  23   157 140  43   156 128  50   153 118  35   157 128  29   142 123   9   133 122   1   116 106   4   106  95  17    89  79  19    83  73  22    77  69  20    66  58  14    62  53  12    73  62  16    89  72  18   110  85  22   125  90  27   108  65  10   115  70   9   124  78   7   140  92  13   154 105  27   164 114  41   168 120  44   169 122  44   158 114  34   144 105  22   138 104  31  
  75  62   7    75  60  10    77  61   5    74  57   1    69  48   5    69  45  13    84  60  12   115  89   2   132 111   1   158 140   3   162 149   1   156 148   2   155 149   7   150 142   2   152 146   1   151 146   1   151 146   2   155 149   5   151 143   1   154 143   2   153 146   1   157 143  18   151 130  28   139 110  24   145 115  27   157 129  29   141 118   9   128 117   1   122 114   7   106 101  13    89  84  20    83  77  26    70  63  18    58  53  23    55  49  16    80  70  19    94  77  17   106  83  22    97  68  15    91  58  13   110  66   5   116  71  11   122  78  17   140  94  32   149 102  36   151 102  32   159 110  38   155 107  38   150 106  37   146 107  38  
  81  68  15    81  67  14    85  70  11    91  73  10    89  68   5    87  63   1    94  69   1   112  84   1   126 102   1   150 130   2   158 144   1   152 142   1   151 145   6   146 140   2   146 140   1   142 139   1   140 137   1   141 136   1   142 135   1   147 139   1   143 136   1   149 137  11   145 124  21   131 104  16   135 108  19   149 123  26   139 117  12   126 114   8   111 103   7    98  93  10    89  86  18    75  71  20    61  56  18    54  51  19    60  55  14    90  80  23   104  86  19   107  81  16    97  63   8    93  56  11   106  65   3   118  73  14   121  75  16   126  80  19   136  88  24   144  95  27   152 104  31   151 104  30   144 101  27   138 100  27  
  91  80  14   101  89   8   116 104   6   131 115   9   134 114   3   121  98   1   118  91   3   126  97   7   129 102   1   142 119   1   149 133   1   143 135   1   145 141   2   145 139   4   141 137   3   141 139   4   139 137   1   137 136   1   141 139   1   147 141   1   142 134   1   141 130   4   147 129  22   144 120  27   138 113  23   142 119  25   136 117  17   128 117  17   109 100  14    81  77   3    72  71   8    60  60  14    45  44  17    50  50  16    62  59  10    87  77  11   114  94  16   121  92  16   109  71   8    96  52   2    96  54   1   112  67   9   115  70  11   118  71  10   134  86  23   152 103  36   157 108  37   158 111  34   147 103  25   137  98  21  
  99  86  22   115 104  13   129 116   6   144 126   8   149 127   5   135 106   1   125  91   1   127  96   1   132 104   1   142 119   2   154 137   8   148 140   3   142 139   1   142 139   4   139 135   1   143 141   6   144 145   6   142 144   2   148 148   3   149 147   1   140 135   1   142 133   4   146 131  21   151 131  35   156 135  46   150 131  39   128 111  14   117 107   6   102  93   7    76  71   3    62  58  11    49  49  17    39  40  17    46  47  11    63  61   9    89  78   8   119  97  14   129  95  11   125  80   8   118  68   6   103  58   1   111  64   7   117  68   8   120  71   7   137  88  19   152 104  31   150 102  27   155 107  31   148 103  26   141  99  23  
  95  80  13   118 103  17   126 109  12   137 116  10   152 125   9   146 116   3   135 102   1   132 100   1   139 110   2   148 123   5   159 143  12   158 148   8   149 147   1   143 141   1   135 133   1   136 138   1   142 145   3   144 146   2   148 151   1   146 147   1   158 152  12   147 139   9   151 139  25   166 151  51   175 160  69   176 162  74   154 142  49   115 107   7    94  88   1    82  74   9    57  51  17    40  36  16    38  39  14    53  52  15    72  67  16    92  78   9   118  92  10   128  90   4   133  87   6   136  82   8   112  63   5   114  64   3   122  70   5   128  75   4   140  88  10   144  97  14   141  95  12   148 100  23   147 101  25   139  95  21  
  77  57   4   108  90  19   124 105  17   136 113  11   145 119   6   135 105   1   128  96   1   134 104   4   139 111   4   145 120   2   155 136   6   159 149   7   156 151   2   148 143   1   134 131   1   132 130   1   135 136   1   138 140   1   143 145   1   142 143   1   143 140   1   144 136   6   144 133  16   158 146  42   181 170  79   193 183  98   176 169  82   144 139  37   109 103   5    79  72   1    51  43   6    44  40  16    55  56  19    70  71  23    86  81  27    96  81  17   110  82   7   121  80   2   133  84   4   139  85   5   111  61   2   119  63   1   133  76   3   141  85   2   148  95   4   151 102   4   146 100   5   149 101  18   150 103  23   137  90  18  
  64  40   5    97  74  28   122  98  30   138 112  28   140 110  26   128  92  14   121  87   6   117  86   1   127  99   1   144 118   6   151 132   6   153 139   3   150 141   1   147 139   4   136 129   1   130 125   1   131 131   1   134 134   2   139 138   1   141 140   1   140 137   1   136 130   1   146 137  17   164 155  48   180 171  78   193 186 106   194 188 108   177 172  83   145 139  42   102  96   8    72  64   4    70  64  20    81  80  32    87  87  27    98  94  30   106  88  26   104  73   8   107  65   1   123  72   2   135  81   7   118  63   1   128  71   1   143  82   2   154  94   1   160 106   1   162 112   1   154 107   1   147 101   5   146 100  12   140  94  15  
 130 110  50   145 121  66   152 127  64   156 129  57   147 114  47   134  99  30   132 100  22   122  90  12   129 100   9   147 121  13   149 127   6   146 130   1   148 136   3   145 136   5   137 127   2   130 124   2   132 127   7   133 130   6   137 133   4   142 138   4   142 139   1   135 131   1   143 137  14   162 155  47   177 170  77   191 186 106   197 192 119   197 190 114   183 176  86   149 143  47   112 105  26    85  81  18    83  81  26    97  99  29   103  99  26   100  84  20    97  65   7   107  65   7   120  71   9   124  69   4   119  60   1   129  69   1   144  80   1   160  98   1   174 116   3   172 123   2   163 116   1   149 105   1   145 101   4   148 103  17  
 175 161  90   167 146  80   164 139  73   157 128  57   152 123  48   140 110  39   136 103  34   148 113  31   156 124  25   157 127  18   153 123  13   145 117   6   145 118   2   137 113   4   139 119   7   138 122   5   135 122   1   134 126   1   139 134   6   143 138   8   148 141   8   147 140   9   138 133  10   143 139  29   160 155  62   184 178 101   193 190 117   192 194 120   193 188 118   174 165  89   144 134  47   106 101  17    88  85  19    97  96  26    88  80  20    77  59  15    76  50  10    84  54   5    91  59   5    96  63   9   105  64   2   115  68   1   136  80   6   157  98   9   172 116   8   176 126   3   174 127   1   163 115   1   153 106   6   150 104  17  
 177 159  94   175 154  90   168 141  71   148 118  38   139 108  26   129  97  23   126  92  24   134 100  25   136 104  21   139 109  18   144 116  18   139 111  12   134 107   5   130 109   3   129 111   1   127 112   1   130 119   1   141 132   5   144 136   9   140 135   7   144 137   7   144 138   9   136 131   9   134 129  18   144 139  43   174 167  86   191 188 110   193 194 115   189 184 110   175 165  85   160 151  58   135 127  39   108 100  28    94  86  21    86  74  21    58  38   1    63  36   6    69  39   4    72  43   3    77  48   8    88  51   1   102  59   2   123  72   2   143  87   1   159 104   1   167 118   1   168 122   1   167 118   5   157 108   9   148  98  12  
 170 152  76   174 154  77   170 145  64   150 121  35   131  99  19   115  77  13   104  66  12   105  73  14   112  80  20   111  82  15   120  93  13   131 106  16   134 110  13   130 113   9   127 113   4   130 117   3   131 118   3   136 126   6   136 126   5   138 128   7   143 135  11   145 139  16   137 131  12   128 123  13   131 125  26   156 151  60   172 169  84   179 180  97   182 176  99   175 164  83   162 152  57   136 126  33   108  96  18   102  85  25    87  64  19    54  29   1    55  27   7    56  30   9    52  30   7    54  33   9    65  36   3    85  49   5   108  64   2   127  77   1   146  94   1   160 111   1   165 117   1   166 116   6   155 102   6   148  94   6  
 162 144  60   152 130  52   145 120  41   136 107  28   123  90  13   109  73   8   101  65  10    85  56   8    79  51   4    93  66  14   112  87  18   120  98  10   130 111  11   131 115  15   128 115  13   133 120  16   129 116  10   130 118  10   127 115   6   134 122  12   137 128  11   142 135  18   135 129  14   130 123  14   130 124  22   141 137  39   151 147  55   170 166  84   184 177 102   180 169  90   162 149  57   130 114  24   112  93  16   118  93  35    80  52   7    66  37   6    56  28   9    51  26  12    40  21   6    35  22   5    51  29   7    73  44   9    99  61   4   121  74   1   141  93   1   156 110   3   163 116   7   161 112   8   150  97   4   158 102  15  
 176 154  79   148 124  58   123  99  36   118  91  22   121  94  15   124  95  15   119  90  16    97  73  14    93  68  11   101  79  21   105  84  16   109  90   8   125 109  15   134 120  25   130 116  23   125 112  18   122 110  13   126 112  16   120 106   9   119 105   8   121 113   4   125 117   8   126 119  10   129 122  14   123 118  14   130 125  23   142 137  41   169 162  82   187 177 106   180 168  95   169 156  72   140 122  38   121  97  26   119  89  31    88  58   6    87  55  15    72  43  16    60  36  16    47  30  10    41  29   5    51  32  11    72  45  10    97  61   5   120  76   1   139  93   2   151 108   6   155 112   7   153 108   8   147  97   8   157 101  14  
 180 158  83   177 156  92   166 145  90   161 140  83   155 134  67   140 118  45   124 102  27   124 105  29   123 104  27   109  89  18    92  73   5   100  82   9   124 108  23   135 121  27   133 120  26   124 111  17   118 105  13   118 105  12   114 101   7   112  99   3   117 108   5   112 103   1   117 108   5   121 113   9   109 102   1   116 111   8   141 135  37   169 160  76   181 172 100   176 166  94   181 170  90   152 135  55   111  87  17    97  69   8   104  75  17    97  67  16    89  61  21    76  52  20    67  47  15    63  48   9    66  42  10    80  50   8   100  63   6   121  76   2   135  91   3   144 102   4   145 106   5   148 109  11   147 103  15   144  94   8  
 158 137  55   172 152  84   174 157 101   180 167 114   187 174 121   186 170 119   170 152  98   149 129  56   126 108  23   114  97  14   101  82  14   101  83  11   120 105  15   128 116  14   138 126  23   130 118  19   121 109  12   113 103   6   118 109   9   125 117  16   125 115  17   117 107   8   114 104   6   113 105   6   104  96   1   118 110   9   143 135  33   164 153  60   171 162  83   178 170  95   186 178  95   157 143  59   110  88  16    91  66   6   104  78  20    95  66  10    92  62  15    84  55  17    81  56  14    84  62  10    88  62  11    96  63   8   111  70   7   123  78   4   129  85   1   135  98   1   141 107   5   146 112  16   141 102  15   141  96  11  
 145 123  51   151 133  69   152 137  80   164 154  99   177 170 116   189 178 133   185 169 129   166 144  87   141 122  42   132 116  29   122 104  30   116  99  21   124 111   7   133 121   8   149 139  28   140 129  21   126 117  12   115 107   2   124 117  10   131 127  17   132 122  25   124 114  19   114 104   8   111 103   5   114 106   7   129 121  20   142 132  30   148 137  37   156 147  62   176 171  89   179 173  84   154 143  55   126 106  29   112  89  29   101  76  19    94  67   9    92  61  12    91  58  16    93  62  14   100  71  14   108  78  14   111  75  12   122  78  12   127  80   6   126  84   1   131  95   1   140 109   7   137 106   9   122  87   1   135  96  11  
 107  85  36   116  94  43   132 111  57   143 125  69   156 141  83   164 153  99   164 155  95   159 148  77   146 130  61   130 112  39   129 112  28   135 120  20   141 127  15   148 137  11   150 144   5   148 144  11   122 119   5   114 112   1   136 132  14   141 134  26   144 140  30   148 143  35   142 135  29   139 132  26   143 134  29   147 139  32   153 144  38   153 143  39   154 139  40   169 150  54   169 148  55   139 118  27   129 111  19   139 116  32   126  99  25   109  77  18   111  73  22   108  69  17   110  74  12   118  84  13   130  91  16   139  97  20   133  90   9   131  89   2   134  97   2   134 100   2   135 107   8   118  97  12   108  80  16   122  90  22  
  55  41  12    65  49  20    87  69  37   110  93  52   135 120  66   152 140  71   155 145  70   154 143  68   146 132  52   129 113  26   126 110  11   141 126  14   144 133  11   145 135   2   149 142   1   141 136   4   127 122   5   126 121   6   140 134  16   151 143  32   161 155  45   159 153  43   154 147  38   153 145  35   156 148  37   157 147  34   155 145  34   153 140  36   148 131  31   140 120  25   144 120  27   138 116  23   132 111  18   135 108  29   130 100  28   127  91  24   132  93  28   127  88  21   126  88  17   129  92  19   141 100  21   145 102  24   153 109  28   155 112  27   141 102  11   135 100   5   133 102  10   107  84   6   102  73  16   123  91  31  
  38  36  17    39  32  19    47  34  24    65  47  27    95  78  34   127 113  42   142 130  46   142 131  46   141 128  34   133 119  13   139 124   4   157 145  15   153 142   8   151 141   1   154 146   3   138 129   2   130 120  11   127 119   9   136 127   8   150 139  21   157 147  32   157 148  32   153 144  27   154 145  28   153 144  27   150 139  24   152 140  27   153 138  32   152 133  32   137 115  20   125 100   8   125 100   8   129 106  13   132 103  18   129  96  17   132  94  19   140 100  25   142 100  26   140  98  23   138  97  18   142  99  21   143  97  20   154 109  29   158 113  31   150 108  22   152 112  24   138 104  17   115  89  15   106  75  24   107  75  24  
  31  34  13    34  30  17    38  28  19    42  27  14    56  42   9    81  69  13   104  93  19   125 113  22   137 125  19   144 130   8   149 136   1   163 152  10   154 145   5   146 135   1   140 128   1   124 111   1   120 107   5   120 107   3   136 125   6   149 139   8   159 150  23   165 156  30   158 148  25   157 146  27   152 140  25   145 133  23   154 140  33   149 132  28   135 115  17   132 109  16   121  96   6   119  94   4   135 110  18   145 117  20   143 110  19   135  96  18   130  87  19   126  81  15   127  83  11   131  89  11   135  88  20   138  92  20   141  95  19   154 109  27   156 114  28   158 119  28   143 108  18   116  88  14   105  75  21    99  69  18  
  35  30   6    44  36  15    54  42  20    58  45  17    62  49  10    73  63  11    89  81  14   113  99   6   130 116   9   144 131   5   147 134   1   154 142   1   152 141   1   136 122   1   123 107   1   108  92   1   105  90   1   111  97   1   135 122   1   155 143   3   163 156  16   162 154  18   158 149  19   150 140  20   137 124  18   130 116  20   136 120  25   135 117  19   120 101   8   122 102  14   113  91   5   113  90   2   132 108  15   150 123  22   151 121  24   143 106  26   124  83  17   109  64   6   108  63   6   117  75  15   125  77  17   127  81  18   144 101  29   157 116  35   156 119  30   164 128  32   146 112  18   122  95  14   118  90  24   126  98  35  
  57  46  16    63  50  17    72  58  17    82  68  19    86  75  17    90  83  19   102  91  20   111  95   6   115  98   1   131 113   1   141 127   1   148 135   1   150 138   2   133 118   2   119 100   6   104  85   6   102  85   3   112  96   4   129 113   2   153 140   4   162 155  15   152 144   8   155 146  18   145 134  18   132 120  19   126 112  24   117 102  18   119 103  14   113  98  12   109  94  13   103  86   4   111  93   5   129 110  16   140 118  21   143 119  23   142 114  29   132  98  24   115  77  17    97  58   9    94  55  12   105  60   3   121  79  17   144 107  36   156 121  41   164 130  42   176 143  48   164 132  37   159 131  45   156 129  51   151 128  48  
  86  74  22    90  77  22   100  84  23   111  93  27   112  95  23   109  93  18   112  97  20   113  94  14   108  87   1   121 101   1   137 116   7   140 123   4   142 127   4   129 112   5   105  87   3   100  82  10   106  88  13   115  97  16   123 105  10   143 128   9   145 136   9   140 132   5   148 139  17   145 134  23   131 121  23   123 111  26   116 103  24   112 101  20    98  86   9    91  82   7   105  94  14   126 113  27   142 126  33   141 126  30   138 122  27   140 118  32   132 106  29   115  86  21    94  64   8    89  58  10   108  70   5   134 100  31   141 110  37   159 131  52   175 147  63   176 146  58   183 153  65   184 155  69   177 151  65   164 140  50  
  91  84   6    95  85   8   101  85  11   109  88  13   108  85   9   105  83   4   112  90  11   114  93  17   114  92  11   124 100  13   127 104   8   121 102   1   127 110   1   125 109   6    90  73   1    97  78  10   107  90  18   108  90  17   110  92  10   123 106   1   135 126   9   143 134  17   148 140  25   151 144  34   137 128  30   123 113  27   124 114  35   108  98  24    95  86  14   100  93  23   113 105  29   124 115  29   143 132  37   143 134  33   140 127  33   136 120  36   121  98  25   104  79  12   100  77  10   120  97  29   146 112  38   148 117  41   158 132  54   171 147  67   179 154  74   180 153  72   183 153  73   184 155  72   176 150  62   175 152  56  
  86  79   8    84  76   4    94  82  10   103  87  15   104  85  16   101  80  15   100  78  15   105  82  17   111  89  17   110  89   9   113  93   6   116  99   6   116 100   4   114  95  16    97  78   9    90  75  10    96  83  19    95  85  11   101  90   3   116 104   7   129 124   6   144 137  20   151 141  26   153 141  32   148 134  34   144 131  38   131 119  34   112  99  27   101  91  20    95  86  19    86  78   8   108 101  20   131 124  31   133 126  27   132 123  28   126 113  29   114  96  30   103  82  25   115  94  28   133 115  33   133 120  42   144 131  51   164 152  71   171 156  80   173 155  79   172 154  69   174 155  65   180 156  66   179 153  62   181 152  60  
  79  71   5    78  69   1    86  75   1    93  78   5    94  75   6    91  71   8    89  67   8    87  65   9    91  71   9    94  75   7   103  85   8   108  91  10   108  91   9   106  88  15   102  85  16   103  90  22   102  92  22    96  85  11    98  86   5   107  96   7   114 105   1   127 119   9   146 135  23   152 140  29   145 133  28   138 125  30   135 122  34   116 104  25   104  94  18    98  90  18    93  85  11   108 101  18   123 115  25   133 122  37   112 100  21   108  93  25    99  81  24    95  75  19   111  92  26   115  98  19   142 130  56   163 152  73   158 147  66   157 143  68   167 150  78   158 141  62   162 142  58   170 145  59   170 143  55   175 145  55  
  72  64   2    74  66   1    82  73   1    88  77   1    89  73   3    85  64   4    86  64   8    89  70  10    90  72   7    87  72   3    89  74   5    89  75   6    92  79  10   105  91  20   114 100  26   117 105  29   106  97  18    95  85   6    95  84   5    99  86   8   102  90   1   115 103   4   140 128  16   150 137  20   147 134  20   132 119  15   132 120  24   126 113  26   111 100  18   103  94  15   104  95  16   117 108  24   128 118  30   127 114  40   104  88  29    88  71  21    77  60  12    93  76  19   114  97  29   132 116  42   143 133  61   145 137  59   143 136  56   141 132  57   136 124  55   131 114  44   144 124  50   157 131  50   159 130  47   165 132  43  
  68  61   7    71  65   3    76  70   1    82  73   1    84  69   4    85  64   8    89  68  12    95  79   9   102  88  16   102  90  16    95  83   9    88  78   7    94  84  14   112 103  22   123 113  25   124 115  22   116 107  12   106  96   4    99  88   4    93  80   2   100  84   1   113  98   1   134 120   4   149 134   7   154 140  15   137 124   7   128 114   6   130 115  17   115 103  12   111 101  15   115 105  18   119 109  23   125 114  31   112  98  28   101  85  29    88  69  26    97  80  31   133 117  56   142 127  58   156 141  72   137 127  55   137 131  51   131 126  46   118 111  37   119 108  43   119 102  40   124 103  36   146 118  43   153 122  42   161 126  38  
  63  56  12    65  59   8    64  59   2    67  60   1    73  59   2    81  60  10    88  66  14    90  72  12    96  80  13    96  84   8    92  84   3    93  86   1   104  99  10   115 110  15   122 116  15   128 121  14   128 120   9   121 111   4   108  95   1    98  85   1   104  86   1   115  96   1   132 115   1   151 135   1   157 143   5   150 137   7   133 119   1   130 115   8   123 108  12   124 113  23   127 116  24   120 108  20   118 105  26   122 105  34   135 117  54   140 120  69   144 125  69   151 134  66   152 135  63   154 138  67   150 136  63   128 119  41   119 113  35   108 101  30    95  84  22   103  84  22   123 100  34   140 109  35   152 118  39   159 122  34  
  50  44  10    54  49  12    53  50   7    57  50   4    63  50   3    73  51   4    80  55  10    80  56  11    86  64   9    89  71   3    93  82   1   101  93   1   110 106   3   118 114   8   126 120  11   132 125   9   134 125   4   127 116   1   115 103   1   111  98   1   114  95   1   120 101   1   137 118   1   152 133   1   151 135   1   155 139   4   141 126   1   131 114   6   127 111  13   129 115  19   128 118  21   124 112  21   120 104  29   117 100  31   123 105  39   131 113  48   138 120  53   143 124  52   150 131  54   143 124  47   147 130  52   119 108  29   111 103  27    94  84  19    85  70  10   101  80  15   122  95  24   142 107  31   150 114  34   153 113  27  
  38  31   8    44  38  14    44  39  14    49  41  12    57  44   5    69  48   2    81  56   5    89  62   2   101  78   7   108  90   9   114 101   9   113 104   5   110 103   2   116 111   6   126 120  11   132 122   7   133 120   2   131 116   1   125 109   1   126 110   1   125 105   5   128 107   1   141 119   2   148 127   1   147 128   1   147 129   2   139 121   1   129 109   1   125 106   8   120 106   9   120 108   7   125 112  19   118 102  28   101  84  23   105  87  25   123 104  35   132 111  41   143 120  46   154 130  48   154 130  41   138 116  31   118 102  20   108  95  23    85  70   9    91  71  12   118  91  21   130  99  19   152 116  35   159 122  38   163 123  35  
  33  26   8    37  31  15    32  26  11    36  29   9    51  37   5    70  50   6    96  72   8   121  96   2   126 104   4   120 101   1   112  97   1   106  95   1   102  92   1   107  99   1   120 111   6   128 116   6   134 118   4   141 122   8   137 119   3   133 116   2   128 109   6   129 108   1   139 117   3   142 120   1   151 129   9   144 124   4   135 116   1   133 112   2   130 111  13   120 106   9   119 108   4   127 114  21   114  96  24   104  85  34    96  78  23   115  95  29   123 100  29   141 115  41   154 127  41   147 121  23   132 108  18   123 102  20    97  80  11    76  58   1    94  70  11   121  93  18   142 109  23   160 124  40   176 139  52   188 148  60  
