P3
50 50
255
  47  52  20    49  54  23    55  60  28    58  65  29    82  91  49    88  98  48    62  71  23    52  60  23    37  43  19    38  43  21    77  84  53    82  88  58    46  50  35    39  44  27    52  57  37    56  61  41    47  51  34    37  41  27    41  45  31    52  56  42    56  57  49    46  47  38    59  61  49    72  74  61    88  89  76    87  90  73    82  83  68    78  78  65    75  78  63    88  94  77    91 100  79    86  98  74    71  82  57    69  79  54   102 112  85   105 116  86    83  92  61    60  67  39    51  56  34    78  81  64    80  89  70    63  71  53    62  67  50    69  72  55    60  63  46    49  50  34    42  43  27    62  62  46    69  65  48    43  37   9  
  76  82  50    47  51  28    47  52  24    54  61  25    58  66  27    64  74  23    78  89  31    70  77  37    63  66  42    44  48  25    50  55  23    71  76  46    51  53  38    54  58  40    74  79  57    74  79  59    54  59  39    47  51  35    42  46  32    35  39  25    15  16   8    19  20  11    31  33  21    29  31  17    43  46  29    62  65  48    77  78  62    70  70  53    63  66  45   108 116  92   116 127  97   100 114  80    87 101  66    83  95  62    89 101  66    99 111  71    88  98  57    58  65  29    62  67  38    85  89  65    75  84  63    75  84  63    87  93  73    68  71  53    37  39  22    45  46  30    45  44  27    60  58  38    75  69  45    79  72  34  
 114 115  74    75  78  43    56  61  35    43  48  26    39  45  19    49  54  21    61  66  27    73  80  36    73  79  41    60  65  35    57  61  34    67  72  44    70  77  45    72  80  50    75  83  59    64  72  51    56  63  48    67  72  58    75  79  65    66  70  55    28  32  17    24  28  13    33  37  23    43  47  33    59  63  51    51  54  43    36  38  28    22  23  17    20  22  17    45  46  40    65  67  53    65  71  44    88  95  58    96 106  58    91 100  58    57  62  32    57  61  29    64  69  30    88  91  51    94  95  63    81  89  53    63  71  42    71  79  54    82  90  60    81  87  53    96  97  67    65  63  42    64  62  39   108 106  53   122 119  44  
 134 135  92    84  86  54    63  67  43    58  65  36    47  53  18    49  54  17    56  61  26    64  71  37    70  77  44    51  58  25    65  75  41    84  94  58    88  99  58    69  78  47    52  60  35    46  54  33    48  52  37    49  53  39    65  69  54    73  77  62    63  65  52    69  71  58    67  69  56    55  57  43    53  55  42    49  51  38    42  44  30    26  28  11    34  38   9    78  85  45    98 106  61    88  97  53   100 108  67    93  99  65    78  83  51    60  66  31    79  84  46    84  89  49    81  85  50    68  71  42    57  65  41    49  58  38    49  58  40    86  95  71   104 111  79   101 104  73    96  95  70    82  79  55    96  91  54   106  99  55  
 107 110  68    59  59  35    61  63  44    84  89  59    90  97  54    97 101  61    79  83  50    62  69  39    72  81  47    79  89  52    77  87  50    75  85  48    83  93  57    93 100  73    70  75  52    45  50  30    45  49  33    40  44  29    40  44  29    42  46  31    57  59  48    76  78  66    48  50  37    26  28  15    21  23  10    20  22   8    42  45  28    56  60  33    80  86  46    94 103  51    75  86  30    73  82  33    94 101  64    67  71  46    71  74  48    97 101  66    78  84  46    64  70  33    50  56  20    60  66  28    53  67  33    64  78  51    57  71  46    73  87  56    91 101  66    93 100  66   109 111  80    99  93  59    88  81  44    85  76  43  
  97  97  70    54  52  35    51  51  37    67  70  45    93  97  58   117 119  82   101 102  70    84  88  54   100 105  68   105 110  70    71  77  42    65  70  42    69  73  52    78  81  60    81  84  63    66  69  51    64  67  50    63  66  49    45  47  32    25  27  13    32  34  24    46  48  37    37  39  26    26  28  14    33  35  21    42  44  30    57  60  40    75  79  52    63  67  38    35  42  11    32  39   9    63  69  42    78  84  58    71  73  48    83  86  56    80  84  49    59  65  32    46  52  20    53  61  20    89  99  42    94 113  58    93 111  64    80  98  58    79  96  55    84  97  57    79  88  54    77  79  49    75  69  32    82  77  34   104  99  57  
  93  90  79    52  50  38    46  44  31    53  50  33    69  69  46    66  66  40    73  72  44    99  95  67    80  77  45    67  64  31    66  62  32    75  70  48    49  44  30    42  40  24    64  65  47    59  59  42    60  61  43    69  71  54    52  54  37    32  35  18    32  34  21    32  34  21    53  55  42    58  60  46    47  49  35    42  44  30    33  36  19    39  42  21    41  45  29    44  48  38    64  67  60    70  73  63    50  54  39    55  58  37    62  65  34    49  54  16    68  74  38    86  93  56   100 110  61   100 113  52    87 106  52   100 117  73    93 109  71    85 100  60    69  81  41    70  76  43    78  78  50    81  72  43    69  63  24    93  91  48  
  54  53  45    30  28  16    49  44  31    39  33  17    35  32  14    48  46  26    69  66  47    71  63  46    51  44  26    53  47  25    67  61  37    83  77  56    67  62  41    54  50  34    58  56  41    48  47  28    59  58  38    59  61  41    47  48  30    59  62  45    54  56  42    35  37  23    65  67  53    74  76  63    41  43  30    27  29  17    27  30  16    47  51  36    78  82  68    89  94  79    86  90  77    75  78  67    66  71  59    82  86  70    73  77  53    67  73  38    79  86  45    91  99  57   111 120  76   100 110  60    39  49  24    48  58  38    51  61  42    59  69  40    70  78  42    84  89  52    78  79  44    78  73  36    90  87  42    83  84  39  
  50  51  31    29  27   9    57  53  35    65  59  38    54  49  27    53  50  34    63  59  45    56  53  37    69  66  51    60  57  42    38  35  20    46  43  25    55  55  32    45  42  26    59  56  41    57  55  37    65  63  43    58  58  37    44  45  26    80  81  65    77  80  61    43  46  28    66  69  53    63  65  52    23  24  11    21  23  12    22  24  14    38  41  30    64  68  52    82  87  65    87  92  70    76  82  63    54  61  46    62  66  52    41  45  30    36  41  20    61  67  37    70  76  39   101 107  70   120 125  93    53  56  45    29  32  24    36  40  29    51  54  32    75  79  45    87  87  49    69  66  29    79  75  32   127 127  79   103 106  58  
  82  86  54    68  66  44    81  76  55   111 106  76    86  81  49    40  35  17    54  52  39    79  81  55    59  61  41    34  36  22    40  42  33    42  44  32    33  35  22    48  44  31   100  94  80    85  82  64    71  69  48    83  82  62    70  70  52    87  87  71    66  68  47    48  50  30    62  63  47    63  63  51    31  31  21    28  28  20    32  33  26    29  32  24    29  33  20    51  55  36    75  80  60    76  84  64    53  60  42    57  65  45    28  35  22    33  35  29    44  47  35    65  69  43    85  89  58   121 124  96    96  98  78    40  41  26    56  58  42    84  87  61   100 100  65    94  92  54    83  79  47    71  66  40    89  88  52   107 111  72  
  65  63  40    72  69  44    71  67  40    85  82  58    85  83  65    29  31  20    44  46  37    70  74  58    48  52  41    26  31  17    47  51  34    39  44  25    42  45  33   113 111  91   149 147 122   110 109  85    69  69  46   111 114  91   117 122  99    57  62  40    36  36  37    41  40  32    57  56  37    82  82  57    70  74  50    37  41  26    36  41  30    41  45  30    44  47  35    55  58  47    53  57  42    55  61  37    83  89  59    99 101  76    83  82  61    51  50  29    62  64  43    83  86  65   104 108  88    75  80  60    91  96  86    59  64  48    63  67  44   116 120  88   133 135  99    99 101  62    99 102  63    84  89  49    71  76  39    71  78  44  
  39  38  17    49  48  27    35  32  14    41  38  21    79  81  60    68  71  50    43  48  25    51  54  33    44  47  32    44  46  32    50  52  36    32  34  19    44  46  36    83  82  64    79  78  57    70  69  48    71  71  50    81  83  62    84  87  67    52  55  36    44  46  28    61  61  43    60  59  40    78  77  57    93  94  76    57  62  42    66  73  53    62  66  50    45  49  35    43  47  33    42  46  30    61  66  45    98 102  75   123 126  86   105 108  63   109 114  73   108 113  74    82  87  53   114 121  89    73  79  51    44  48  33    96 100  83    70  74  56    76  79  58    69  71  49    63  63  39    80  81  55    79  83  52    68  73  41    53  60  29  
  37  38  24    53  51  38    43  41  27    70  68  49    90  91  68    86  91  61    84  89  58    76  78  53    45  47  29    41  42  26    63  64  46    42  43  27    41  42  33    60  62  44    65  67  45    60  62  41    88  87  67    81  80  60    63  62  42    60  59  39    71  75  40    83  85  58    66  64  48    53  51  39    68  69  53    85  89  65   107 114  86   105 113  91    59  65  47    38  42  27    43  45  31    63  67  47    59  62  38    50  53  21    43  48  14    70  74  41   120 125  93   119 123  95   131 136 110   135 141 115    98 104  78   117 121 101    66  69  55    36  37  28    39  39  32    42  39  30    61  60  45   104 109  78    82  88  54    58  65  31  
  34  33  29    28  28  15    49  49  28    79  79  52    49  52  23    51  55  28    85  89  62    67  65  42    28  26   9    28  26  11    53  52  32    56  58  37    46  47  31    60  63  42    82  86  61    58  60  36    85  84  61   100  98  75    88  84  62    66  61  39    92  92  64    73  72  51    45  43  30    42  40  28    91  91  74   112 115  88    88  95  63    99 108  82    82  88  66    56  61  41    62  65  48    72  74  55    57  59  38    44  45  33    39  40  32    62  64  50    85  87  72    85  89  68   113 119  93   148 154 126   111 118  86    97 102  79    58  60  46    34  34  28    57  56  51    54  54  44    67  68  49   104 110  74   119 126  85   115 124  80  
  28  27  17    36  35  20    54  53  30    51  50  23    31  31   5    40  42  20    57  58  39    44  41  23    27  24  11    24  22   9    53  52  31    63  66  39    53  55  30    49  54  27    59  63  36    70  73  46    91  91  63   105 102  75   120 115  87    68  63  34    62  55  45    46  42  31    51  48  36    84  83  66   164 166 145   122 125  98    64  68  40    60  66  39    58  64  40    66  69  48    87  91  71   101 104  84   100 103  82    93  95  80    80  82  68    72  75  56    62  67  43    78  84  54   117 125  89   133 141 102   122 127  96   123 127 101    87  91  70    41  43  26    51  52  34    81  83  62    76  79  55    90  95  63   137 145 107   130 139  96  
  54  53  33    51  47  31    41  37  20    43  38  20    58  53  34    51  49  26    50  50  27    43  40  22    35  32  21    35  33  21    43  45  26    67  70  43    64  68  41    53  58  33    46  50  27    60  62  37    54  54  28    57  54  28    95  90  64    91  84  58    34  25  20    44  38  26    97  95  76   122 122  97   148 148 122   107 107  83    98  97  74    82  84  60    71  75  50    86  90  67    96 100  77    86  91  69    93  98  76    97 103  77   108 115  87   116 122  94   116 122  93   114 121  90   115 123  92   108 115  84   124 129  99   122 127  97   112 117  87    80  85  55    91  94  65   109 111  81    69  72  45    73  77  58   101 106  84    92  98  71  
  59  56  41    43  36  23    48  40  26    54  45  29    55  49  27    62  58  33    85  82  54    82  81  56    42  41  26    26  26  16    55  57  40    71  74  53    43  48  27    28  30  15    34  35  21    40  38  24    42  38  22    45  39  22    44  37  18    54  47  28    49  41  20    76  71  46   140 140 111   128 129  98    65  65  37    45  43  19    59  55  34    64  63  40    70  70  46    78  80  56    90  94  70    77  85  61    90  99  75    70  79  55    62  69  47    92  97  75    96 101  79    71  76  54    92  97  75    85  90  68    83  87  62    79  84  53    89  95  60   116 122  86   138 144 110   115 118  90    92  95  71    76  80  65    57  61  46    55  59  42  
  29  20  20    33  25  17    52  43  26    69  59  36    80  73  45    73  67  41    66  63  35    65  66  34    44  44  25    29  29  16    34  36  22    42  46  32    22  28  16    21  20  15    39  36  31    38  33  28    44  39  32    49  42  33    39  32  21    48  41  29    90  85  43   127 126  85   162 164 125   131 132  99    71  71  42    78  75  51    73  68  47    73  68  48   103 102  79    99 101  77    69  75  49    73  82  55    88 100  73    51  59  43    42  49  35    76  82  66    90  95  74    62  68  42    87  93  63   108 115  82    93  97  73   107 113  81   109 115  77   125 131  92   112 117  84    70  74  51    83  87  68    76  81  60    58  62  44    85  90  70  
  28  16   2    59  42  27    82  59  44    72  53  37    59  53  34    46  55  34    42  54  33    73  77  58    67  73  59    38  43  35    28  33  25    26  28  18    28  29  16    49  45  31    64  57  39   110 103  74   124 119  81   100  97  57   115 114  77   145 146 114   156 160 109   136 139  91   133 134  94   137 137 103   106 106  70   123 123  87   116 116  78   114 111  72   119 117  84    89  92  62    79  83  56    91  95  64   102 106  72    55  57  37    57  59  39    94  96  76    75  77  64    73  76  55    91  97  66    83  89  61    49  52  35    66  69  46    96 101  68   116 120  84   104 108  72    67  70  42    60  61  41    59  60  48    57  60  46    73  77  60  
  74  56  41    82  67  51    53  42  25    34  27  11    51  51  37    67  70  60    73  77  68    66  71  56    44  50  38    25  30  23    23  28  20    26  27  17    47  46  34    95  95  65   117 115  75   158 158 107   166 165 109   182 183 126   198 203 148   178 185 134   151 152 117   136 139  96    88  88  53   107 106  76   166 167 128   164 164 123   122 120  88    82  78  48    78  77  46    67  70  39    89  94  62   106 111  77   128 132  96   120 123  90   124 127  99   116 118  94    80  85  60    71  76  50    83  89  62    86  93  62    61  64  43    67  72  45    89  93  62    91  95  62    98 101  72    86  86  63    57  57  35    68  71  49    66  69  48    57  62  40  
  74  55  40    62  52  35    57  59  40    67  76  60    84  92  83    70  72  69    43  44  42    35  41  30    32  38  30    26  31  25    25  28  21    36  37  25    62  60  46    68  68  51    66  65  44    80  79  51   111 110  79   143 143 112   127 129 103    72  76  53    56  55  39    88  88  62    98  99  66   104 105  68   148 148 110   121 121  87   103 101  75    68  64  41    61  61  32    75  80  47   106 112  76   122 128  92   138 143 109   161 167 126   154 159 125   113 116  85   100 106  71    78  83  55    71  76  53   109 116  84    96 104  67    92  97  66    76  80  56    56  58  39    65  65  45    78  78  54    64  65  37    73  78  47    98 102  76    85  90  66  
  67  54  44    74  71  59    98 104  91    72  84  73    44  54  46    57  59  58    52  52  52    38  43  37    43  48  42    29  34  28    26  29  19    45  46  33    69  67  51    61  61  47    44  46  32    77  78  61   104 106  88    68  70  55    46  48  36    63  64  56    65  63  51    48  46  35    94  95  61   126 130  81    88  89  60    65  62  46    85  83  60    80  79  53    70  73  41   115 121  83   126 133  97   100 104  74    87  90  66   100 103  72   105 108  77    85  90  60    97 103  69    87  93  62    76  83  52   115 122  88   128 138  87   113 121  84    78  82  62    46  46  37    49  47  34    90  88  64    91  91  62    62  64  41    84  87  66    78  81  61  
  54  51  46    49  49  43    54  58  51    39  45  38    30  37  29    44  49  42    48  52  45    44  46  41    40  44  38    34  40  30    37  40  28    47  48  33    60  58  40    63  65  46    71  74  55    73  78  58    45  50  31    36  39  23    41  43  29    64  66  52    82  84  61    63  64  49    77  78  52   109 110  76    75  74  55    50  48  35    64  65  38   112 115  80   120 125  88   118 126  87   100 107  75    63  68  45    41  44  30    54  55  42    86  89  68    96 100  75    81  86  60    73  80  47    82  90  52   116 125  88   136 148  99    89  99  59    65  71  43    70  72  53    60  59  40    68  66  40    77  73  51    49  47  34    54  54  40    61  62  48  
  40  45  38    32  35  28    37  37  32    39  38  33    37  38  30    32  39  26    29  35  23    32  32  27    32  35  27    41  44  33    61  65  50    73  77  59    88  90  69    92  94  78    60  64  50    46  50  36    45  50  39    40  43  34    35  36  28    41  41  31    76  80  47    91  94  66    74  75  59    61  61  50    68  67  50    73  73  47    83  85  53   126 132  91   121 129  89    72  82  47    87  95  67    74  79  61    52  54  45    42  42  39    65  67  54    95  99  76    92  96  72    93 101  63   102 113  66   117 128  86   107 119  79    71  81  40    70  77  36   102 106  66    92  92  58    64  60  34    58  53  32    51  45  33    59  55  41    73  70  53  
  69  76  60    40  43  30    36  35  26    35  30  25    30  27  20    32  34  23    35  35  23    43  40  31    42  41  30    54  58  43    86  91  71   105 110  88   122 127 105    98 102  82    60  63  45    32  36  23    35  40  28    30  33  21    29  30  16    46  44  30    70  74  47    94  97  69    67  68  53    36  36  26    69  71  46   142 146 109   150 153 116   127 134  92    99 106  69    70  79  49    89  97  74    64  70  53    59  62  47    54  56  45    47  50  34    63  67  43    85  92  58   105 113  70   106 117  68    94 106  56    90 104  60    89 102  58    96 105  60    98 102  58   106 107  65    99  97  58    78  73  40    72  64  40    68  62  36    72  66  40  
 107 111  88    75  77  58    57  56  45    40  37  30    26  23  18    29  24  20    34  29  22    43  37  27    48  47  33    79  81  63   112 120  97    96 105  81    80  88  64    61  63  49    34  35  27    29  33  26    25  29  25    23  24  19    35  33  25    62  57  47    70  72  58    57  60  40    67  69  47    82  85  57    97 101  66   120 124  87   134 139 101   127 135  96    95 104  72    65  73  50    70  78  57    80  87  66    72  76  54    69  73  50    53  56  35    68  73  44   102 111  66    97 106  59    81  93  46    81  94  39    69  85  31    64  77  30    60  69  30    70  74  37    97  98  54   109 107  55   116 112  62   104  96  59    78  72  34    86  81  43  
  85  86  70   118 119 103    66  67  53    38  39  26    27  27  16    28  28  18    37  37  27    44  45  31    44  46  32    77  81  66    90  94  80    61  65  51    57  60  47    46  49  39    32  35  26    29  32  20    34  36  24    33  35  22    43  44  31    50  52  38    53  53  43    43  43  33    76  79  55   123 128  96    81  85  62    35  39  24    55  59  40    71  74  56    72  75  56    72  75  58    51  54  40    73  77  56    87  92  60    76  80  55    72  76  53    81  86  55    89  97  59    81  89  48    69  79  37    78  89  47    65  82  38    55  69  27    56  64  30    65  67  31    90  85  34   116 103  52   109  94  50    87  77  40    84  73  43    93  85  47  
  43  46  29    82  85  68    58  60  46    35  37  24    22  24  13    29  31  20    57  57  47    50  52  38    63  65  52    72  75  62    38  42  28    33  36  25    56  59  48    60  63  53    47  50  39    42  45  34    48  50  38    47  49  36    48  51  37    42  44  30    40  40  28    49  49  40    92  95  75   103 107  81    65  68  50    81  85  69    90  94  72    66  69  45    80  83  54    92  94  67    41  42  27    42  44  34    63  64  55    54  58  37    70  75  50    88  91  64    69  73  45    54  60  29    65  72  39    83  89  56    64  72  31    59  64  21    63  65  30    68  68  35    81  79  32    95  87  38    96  83  40    92  83  43   113 103  65   114 105  59  
  42  46  29    50  54  38    58  62  47    41  45  31    48  52  38    64  67  56    60  64  52    52  55  41    88  90  77    72  74  63    20  22  11    25  28  17    40  43  32    56  59  48    55  58  47    47  51  37    49  52  38    49  51  37    44  46  32    44  47  33    67  70  53    64  66  55    67  70  55    80  83  64    76  79  65    82  86  71    76  79  58    93  92  69   128 128  99   121 121  94    74  75  60    50  50  43    62  61  57    69  72  52    75  79  54    62  65  45    45  48  31    39  42  26    44  47  29    66  69  48    65  64  30    68  62  23    71  65  32    62  62  32    61  67  26    74  72  29    95  89  46   105 103  53    96  93  50    87  85  37  
  66  73  55    65  72  55    65  72  56    58  64  49    69  75  61    65  70  57    44  50  38    64  68  57    84  86  75    64  66  55    36  36  26    30  32  21    47  49  38    60  64  51    49  53  39    51  55  40    52  56  41    43  46  31    51  54  38    55  58  41    45  48  27    32  34  24    33  36  24    44  47  32    60  63  54    61  65  50    48  50  31    57  54  41    63  61  43    66  65  47    91  89  76    76  77  61    93  94  73    91  95  72    51  54  36    19  21  11    27  28  23    48  48  42    57  58  46    50  52  31    59  53  28    66  57  24    63  55  27    42  47  22    40  53  19    54  61  22    83  86  47    87  93  47    59  63  28    52  52  24  
  83  90  72   108 115  98   112 119 103   110 119 102    99 107  92    66  74  59    54  62  47    70  77  64    52  55  43    46  46  36    50  50  40    41  42  30    46  49  36    57  61  44    60  64  47    73  76  60    69  73  56    43  47  30    44  47  31    64  67  50    51  56  35    30  32  22    39  42  30    47  51  37    50  53  45    66  69  57    73  75  60    52  50  41    55  56  36    50  53  29    70  74  51    93  97  73    95 100  70    66  71  51    30  33  23    22  24  20    64  64  64    95  95  89    86  87  71    68  67  47    57  50  36    65  59  36    60  56  34    42  49  25    40  55  19    38  50  10    59  63  27    74  71  34    61  57  27    57  51  27  
 111 115  98   103 108  93    98 105  89    94 101  85    88  97  80    78  87  70    76  85  69    59  66  52    45  48  35    50  50  38    62  60  47    70  71  57    60  63  49    48  55  36    48  53  33    80  85  65    86  91  71    54  59  39    55  60  40    65  70  50    69  77  55    57  64  50    52  57  41    65  69  51    45  48  39    48  51  41    78  82  66    88  92  72   103 111  75   107 119  73   102 113  74    97 107  80    75  85  65    56  66  52    52  59  51    47  51  45    74  76  69    92  94  83    75  77  58    76  78  56    55  50  37    58  58  40    60  62  43    66  71  41    74  81  32    59  63  13    60  58  15    90  78  25   101  89  32   107  95  37  
  66  68  54    53  55  41    64  68  53    78  84  68    94 101  86    99 108  91   112 122 105    90 100  83    80  84  70    73  71  56    61  60  45    68  70  54    72  77  58    78  86  63    82  90  67    91  96  76    98 103  83    84  89  69    69  74  54    64  69  49    89  97  77   101 108  93    97 105  82    86  93  69    47  51  36    35  37  30    69  74  58   107 118  85   125 141  91   134 151  96   115 133  86    86 102  71    74  90  69    69  83  66    75  86  69    78  89  72    68  77  60    66  72  54    68  71  55    54  56  39    54  48  32    37  40  22    33  38  16    62  58  17    99  87  19   102  92  25    94  85  30   108  97  31   123 114  38   120 110  39  
  66  68  54    73  75  61   100 103  89    93  97  82    80  86  70    66  74  58    92 102  84   108 119  99    81  86  68    61  60  45    68  65  48    67  67  49    71  77  56   106 114  91   124 132 109   125 133 110   121 126 104   106 111  90    97 102  82   102 107  87    84  93  74    84  92  75    83  91  65    76  85  54    56  60  44    47  50  43    90  97  79   109 126  83   102 121  68   109 130  74    94 116  71    79 101  64    63  85  53    58  76  48    61  76  50    74  88  62    62  73  48    52  58  38    62  65  51    53  55  44    64  52  33    57  59  39    76  79  53   121 108  57   149 124  41   136 114  33   111  97  38   111 107  50   102 100  40    77  74  28  
  61  63  49    65  67  54    73  75  63    46  48  39    45  46  40    53  54  49    51  55  47    69  76  63    49  53  41    43  45  32    50  51  39    67  71  57    82  90  73   100 107  85    97 102  79   103 108  85   117 122  99   122 127 104   118 123 101    82  87  64    66  64  46    60  59  42    62  61  47    67  68  54    59  62  45    55  60  40    75  82  61    75  85  63    59  68  47    80  88  69    82  94  72    75  93  65    67  90  57    51  67  36    52  61  36    55  62  47    49  60  40    51  61  41    63  58  54    72  52  37    83  68  42    92  78  46   115 103  57   124 114  53   108  96  28   105  89  27   123 111  54   115 118  64    97  97  63    76  73  62  
  97 100  83    74  77  61    50  52  38    26  28  14    36  38  25    42  45  34    48  53  40    62  68  52    77  81  64    82  84  68    69  70  54    69  73  55    82  89  68    82  85  69    84  85  72    63  64  51    52  54  40    56  58  44    46  49  34    29  31  17    51  47  36    47  46  30    44  45  25    77  79  58    80  83  63    63  67  50    64  69  53    62  70  51    46  53  35    53  60  44    60  69  50    90 106  81    83 103  73    59  73  50    44  54  36    43  49  39    74  83  65    77  85  62    76  69  49    95  78  38   137 111  55   136 113  60   117 100  53    94  83  39    75  71  26    90  88  36   129 129  74   103 104  60    81  79  50    75  72  53  
  85  89  72    97 100  83    97 101  84    74  78  60    75  80  60    59  64  44    68  72  52    94  97  76    77  79  58    63  65  45    50  51  30    59  62  41    60  63  42    43  44  29    47  47  35    44  44  32    40  40  29    37  37  25    38  38  26    53  53  41    65  62  54    56  54  39    90  90  68   140 143 119   136 139 117   112 116 102    92  95  84    68  72  57    56  60  46    67  71  57    78  85  69    96 107  87    82  97  73    48  62  45    48  57  41    47  55  38    79  86  62    95  98  70    94  85  52   112  96  40   148 116  55   131 107  48   110  94  45    92  84  45    82  82  39   107 115  55   130 139  74   112 114  68   112 114  72   123 125  77  
  41  44  33    69  72  60    57  61  46    68  72  57   100 103  87   105 110  90   106 110  91   106 107  89    75  76  58    91  92  74   104 105  89   117 118 102    95  96  80    59  59  42    70  69  51    82  81  63    88  87  69    75  74  56    65  64  45    84  83  65    70  68  56    51  50  35    79  80  61    85  88  66    62  65  46    65  67  53    69  71  58    51  53  40    43  45  32    54  58  44    67  71  56    48  56  38    44  53  33    54  64  47    80  90  67    78  88  58    86  93  62    85  84  52    96  85  45   104  86  29   100  84  24   103  90  31   112 104  47   111 109  50    92  94  31   122 125  58   117 120  59    96  98  57    99 103  56   135 140  76  
  47  52  48    41  46  39    36  40  32    56  59  49    69  73  59    69  73  58    65  69  54    43  44  30    33  34  20    60  60  48    69  69  59    70  70  60    50  50  41    41  40  25    49  48  30    68  67  49    75  74  56    63  62  44    60  59  41    52  51  33    37  37  17    58  59  42    70  71  58    50  50  38    25  27  13    35  37  18    62  65  46    74  76  63    74  78  63    80  84  69    72  76  59    54  59  41    82  87  67   100 107  84    90 100  73   106 116  87   102 103  78    91  84  51   112  99  45   127 113  41   134 133  54   114 112  45    95  95  30    94  97  26    85  87  14    94  94  35    72  70  29    59  62  34    70  72  35   117 120  67  
  73  79  77    37  42  38    37  42  36    50  56  47    61  64  54    58  61  50    44  47  33    45  46  33    48  49  37    43  45  33    34  35  28    35  35  29    20  19  15    28  26  18    46  43  34    48  45  36    48  45  36    47  44  35    47  44  35    52  49  40    83  85  61    83  84  68    49  49  39    25  25  18    21  23  10    47  50  31    68  72  50    62  65  50    54  58  39    98 106  83   129 136 113   139 143 121   142 145 124   112 116  91    87  92  70    94 101  81    80  79  61    92  82  44   125 114  39   138 128  39   129 127  44   120 117  55   102 103  51    86  91  29    86  93  23    85  91  32    65  69  27    64  69  33   101 104  62   128 130  82  
  52  59  51    69  76  67    59  66  56    67  73  61    65  70  56    59  63  49    47  50  34    60  62  44    73  77  59    71  78  62    64  70  56    69  71  61    51  52  44    47  45  35    58  56  44    61  59  47    51  49  37    45  43  31    60  58  46    76  74  62    83  83  66    61  62  47    34  34  22    27  27  17    30  31  18    49  50  34    46  49  30    32  37  16    53  60  36   117 128  98   138 148 118   120 127  99    85  88  64    59  58  34    71  74  54    67  71  51    69  66  39    90  81  28   130 120  39   115 107  32    87  81  23    87  83  42    79  78  47    65  71  27    72  82  20    75  85  22    84  93  36   107 115  61   112 120  62   100 103  55  
  26  36  20    36  44  29    48  55  40    65  72  56    63  67  50    36  40  23    72  76  57    78  82  59    61  68  45    65  74  53    45  54  35    49  55  40    59  61  48    50  52  34    65  67  46    66  68  47    46  48  27    43  45  24    62  64  43    66  68  47    48  48  36    43  44  29    42  43  27    35  36  20    28  28  13    24  24  11    25  26  11    47  54  31    82  93  64    96 110  75    80  91  57    77  86  53    92  96  67    72  69  46    64  65  44    95 100  67   101 100  54   102  92  28   119 108  36    85  73  32    77  75  37    72  71  44    56  56  34    71  76  43    81  89  40    75  82  26    95 101  47   111 121  65   106 114  56    86  87  51  
  54  67  40    38  49  29    42  50  36    54  62  45    80  85  66    80  85  65    85  91  70    85  97  63    61  72  45    54  60  45    44  47  36    49  51  39    55  57  43    55  58  42    50  53  33    49  51  31    44  44  32    43  40  32    49  46  35    49  46  28    53  45  41    53  51  33    47  48  24    45  47  28    32  35  24    32  38  26    45  55  31    61  77  37    81  92  55    67  72  40    69  72  41    82  83  51    83  84  49    57  59  25    52  50  28    59  52  36    91  84  55    86  83  39    86  89  46    62  69  37    73  85  50    66  73  53    55  58  37    97 101  53    95 101  35    66  73  16    79  85  38    88  95  41    71  76  41    68  71  49  
  84  94  65    73  83  61    54  61  46    52  59  40   102 109  87    64  69  47    45  49  35    71  76  69    54  60  51    64  67  56    78  82  68    43  47  33    54  56  44    69  72  54    49  51  36    46  48  35    56  57  41    69  70  47    77  77  50    52  52  26    33  29  27    35  35  22    44  46  26    68  75  54    65  74  53    49  60  34    58  74  34    72  93  35    85 102  44    80  89  43    65  68  43    51  52  37    41  42  27    43  42  28    36  32  21    44  37  16    80  75  36    61  59  22    47  48  22    52  58  30    72  82  55    61  68  43    67  73  43    94 102  58    82  92  33    71  83  21    81  92  32    74  80  32    59  64  30    68  71  46  
  53  58  36    56  60  47    75  79  70    89  96  82    95 102  85    58  65  49    32  37  28    39  41  38    52  55  47    54  58  42    85  91  68    78  84  55    87  94  62    66  70  45    35  38  21    35  37  24    47  49  33    75  77  53    95  98  71    73  76  51    48  53  33    43  49  24    62  71  45    64  76  51    54  68  43    60  77  45    74  94  50    85 108  47   104 125  60    93 106  58    47  50  30    28  28  25    27  28  25    30  30  22    29  27  14    72  70  30   115 115  53    80  80  36    59  60  36    87  94  57    97 102  79    69  75  44    81  86  48    68  74  31    68  78  26    73  88  23    78  91  30    55  58  21    57  61  28    76  78  48  
  52  52  40    52  52  48    60  61  58    49  52  44    39  45  33    59  66  59    67  72  66    31  33  22    54  55  46    71  73  61    67  72  51    96 103  71   105 115  72    68  74  46    45  49  26    39  43  18    38  40  22    33  35  23    46  48  35    71  75  56    94 107  67    98 113  75    93 108  72    67  83  49    63  83  46    66  89  47    60  83  37    72  94  47    86 102  59    52  62  31    22  26  13    20  21  16    37  38  32    35  34  29    34  33  19    86  87  45   101 105  47    66  67  29    61  64  40    76  83  47    77  75  49    66  64  30    85  83  41    80  81  33    83  87  36    84  93  40    75  82  36    71  71  43    85  85  54    91  93  56  
  40  38  23    46  44  34    45  46  37    31  35  21    28  35  17    49  55  42    70  75  66    46  46  36    34  35  28    42  43  38    77  78  70    76  80  63    64  70  44    65  69  45    76  79  52    78  83  51    60  65  37    48  54  31    51  59  35    56  64  36    68  85  43    82  98  59    96 113  72    85 106  61    70  95  40    68  93  35    70  94  41    53  72  35    38  50  30    31  37  29    41  44  37    60  62  51    56  58  47    33  33  30    33  32  28    62  63  46    52  53  29    47  48  30    60  62  49    39  41  27    61  49  26   115 105  69   137 129  80   121 114  65   103  98  59    85  82  50    72  70  43    81  80  54    88  88  54   101 102  63  
  78  78  52    70  70  48    69  72  50    92  97  69    71  78  47    51  56  34    55  60  42    69  72  53    78  81  62    79  83  64    96  99  80    60  63  47    39  41  27    53  54  34    60  62  39    72  76  50    88  96  59   105 118  70   104 119  70    69  85  38    69  85  40    77  94  50    63  81  37    59  79  30    75  98  44    83 105  57    94 115  72    96 112  78    72  81  67    88  90  85    68  70  57    71  72  57    56  55  47    30  32  22    43  44  36    51  52  46    40  42  32    67  69  54    79  81  64    49  51  37    75  59  41   129 116  78   139 127  77    93  80  40    65  53  30    75  64  44    80  74  48    70  67  39    86  86  49   120 121  81  
  99 100  77    89  90  70    88  90  70   113 116  91    98 102  75    65  68  48    69  73  54    99 105  74   110 115  85    85  89  62    78  80  56    79  80  60    63  61  45    45  43  28    30  30  16    66  69  49   116 124  90   114 128  81    87 104  54    67  84  39    92 106  63    78  93  54    45  60  19    64  80  35    85 101  61    66  82  56    80  94  74   134 148 120   139 148 126   142 147 124   106 109  78    67  67  39    38  36  20    43  46  26    60  64  49    50  53  43    47  51  33    69  74  51    66  70  49    69  73  48   108 101  79    93  84  53    88  78  45    85  73  48    80  69  51   111 103  79   110 105  75    94  89  54   115 114  72   126 128  87  
  38  38  26    45  45  36    65  65  55    72  73  58    64  65  49    45  45  36    65  66  55   106 112  84    70  74  55    26  28  17    19  18  10    37  35  24    39  37  23    32  28  23    69  68  59   106 109  90    95 101  78    74  85  61    74  88  60    84 101  67    58  67  44    38  47  25    59  69  40    89 102  64    78  92  55    91 103  84   124 135 125   137 147 130   127 134 105   114 120  77   144 147 100   129 130  91    87  86  59    68  71  50    62  65  60    48  50  45    63  68  45    70  74  57    53  55  46    84  88  66   110 108  78    71  65  46    55  46  35    90  81  66   122 116  88   100  97  64    88  86  50   129 125  85   126 127  81    98 100  60  
