P3
50 50
255
 145 156 124   138 147 113   125 129  95   132 133 101   152 151 121   109 108  77    94  94  57   106 109  66    97 105  55   133 143  88   109  96  61    65  53  19    66  58  17    65  60  18    75  73  18    95  95  35    69  66  29    57  57  18    80  81  34    70  62  24    64  48  14    73  56  18    87  78  43   116 114  85   139 150 129   119 132 115   110 110  94    83  77  65    50  44  31    73  62  41    80  70  44    66  60  41    46  41  30    34  30  24    41  41  34    81  96  78   119 140 111    99 109  66    70  75  25    78  76  28    67  59  23    51  45  14    55  49  19    63  77  22    85 108  33   103 122  66   100 113  88   100 110  94   104 111 102   131 139 127  
 101 113  76   100 107  70   120 122  84   123 123  85   122 123  81   121 123  76   139 141  92   115 120  69    94 102  53   137 146 101   132 116  82    83  69  36    83  73  32    66  60  14    92  90  28   107 108  44    61  57  24    56  54  35   120 120  83   114 109  67   100  87  45   111  98  54   103  94  58   119 116  87   128 136 114    95 105  88   105 100  86    99  86  76    62  50  39    90  74  55    96  87  58    60  54  33    43  36  24    48  43  37    60  60  53    78  93  75   113 137 105    88 105  53    66  76  18    77  76  24    65  56  18    60  49  21    77  67  37    78  89  35    85 108  29    75  92  33    70  78  50    75  79  62    61  63  53    70  72  59  
  81  67  38    72  58  25    87  82  50    88  88  55    88  89  53    93  99  66   110 122  72   116 129  61    96 101  48   112 110  70   125 115  63    72  56  23    78  57  31    95  78  27   135 127  42   115 109  36    66  59  18    52  49  26   106 108  79   132 134  96   124 119  75   142 135  93   110 105  73    88  88  68    87  92  82    62  69  55   115 113  90   151 133 110    97  71  44   102  79  38   104  87  46    66  56  39    49  48  32    70  75  53    89  98  86   103 120 107   133 157 124   107 122  70    70  78  21    77  72  34    61  52  26    67  64  27   106 109  60   110 123  57    84  96  36    54  57  24    60  58  40    83  83  66    68  71  52    35  40  20  
 127 113  76   103  89  59    52  44  24    37  34  17    51  54  30    49  59  30    61  77  26    90 109  38    92 104  48   104 110  68   110 101  59    59  43  13    76  56  22   114  95  34   132 116  37    92  76  20    57  40  13    44  36  16    67  67  44   102 105  75    96  95  57   140 137 100   117 115  85    95  96  78   107 112 100    79  84  69   126 122  97   176 156 128   121  94  64    88  62  27    84  66  35    61  51  36    51  50  38    69  72  56    94 100  85   100 116  96   133 153 123   119 133  86    67  75  16    62  60  13    75  69  39    92  89  54   109 111  71   105 114  60    68  76  30    38  40  17    40  38  26    75  74  61    87  90  74    73  77  60  
 131 118  76   126 113  76    70  64  36    42  38  22    41  39  20    47  52  31    71  83  40    79  94  30    90 101  44   125 134  81   114 108  66    82  72  29    96  80  28   117  97  31   117  93  31    87  63  16    66  44   8    53  41  12    48  47  24    86  93  69   119 124  96   136 139 109   118 123  94   128 133 115   151 159 143   106 113  92   112 106  79   144 126  89   110  83  48    73  42  20    64  46  25    47  37  24    32  31  24    60  62  53   102 105  88    83  92  71   106 120  95   130 144  98    81  91  28    69  70  18    94  90  56    98  95  64    78  77  48    69  74  36    55  61  29    40  39  28    27  23  20    36  33  26    66  65  53    94  95  81  
  87  75  40    99  91  54   107 106  67   115 113  80    72  70  39    36  39  16    64  70  37    71  82  25    79  91  29   117 128  60   105 114  54   110 111  48   126 119  52   108  90  37   102  78  43   107  85  34   110  91  23    84  70  21    55  54  19    89  99  74   135 145 121   125 133 109   121 130 105   131 142 125   146 155 137    87  91  68    71  64  32    94  79  35    87  64  25    68  36  19    64  48  23    53  46  34    34  33  26    59  59  49    82  82  70    54  56  43    83  93  69   131 147  97    93 105  41    67  70  18    80  78  45    82  79  51    65  65  38    53  56  26    76  79  59    53  52  47    25  23  21    30  28  19    72  70  56   106 104  89  
  64  56  34    61  59  28    71  74  38   101 109  61    98 111  55    59  72  29    63  80  33    83 104  42    87 108  41   105 128  51   106 126  59   121 134  67   127 129  69    77  65  32    56  38  22    77  61  14   117 105  25   114 102  31    68  68  19    70  78  48    93 103  79    88  98  74    97 110  87   136 150 134   144 154 134    72  77  47    68  63  29    97  86  42    90  70  32    77  48  32    89  76  41    77  72  57    67  69  57    80  83  67    51  49  43    26  25  19    78  86  58   122 139  81    94 107  42    60  64  17    54  53  25    58  58  31    60  61  30    73  76  48   139 143 123    88  90  84    28  29  22    73  74  61   120 119 100    95  94  74  
  45  48  17    46  57  17    57  66  25    58  80  25    86 116  47    89 121  54    91 122  52   101 134  57    99 130  61   105 137  64    97 119  56   115 130  76   108 110  70    58  49  28    34  21   5    43  33   2    95  87  23   118 111  32    92  92  36    63  68  34    66  70  47    69  76  54    77  91  66   124 140 123   138 150 129   101 103  72   135 131  96   135 127  91    90  76  42    87  65  41   102  89  50    77  73  56    82  87  70    89  94  71    38  39  29    48  48  39   116 125  92   129 147  84   103 117  48    66  73  23    48  48  20    55  55  26    66  67  34    91  96  66   155 163 141   124 130 121    69  74  66    99 102  88   107 110  90    69  68  50  
  75  90  37    73  96  36    90 109  54    91 116  60    83 114  45    85 116  45    96 127  52   106 138  58   103 130  62   101 128  57   111 129  68   127 137  85    99  97  64    51  41  21    39  29   3    65  57  19   102  98  46   106 103  36   105 103  58    79  77  51    65  61  40    77  80  55    89 101  73   127 144 125   124 137 116   100 103  71   135 133  97   102  99  71    68  61  33    92  78  42    92  78  45    71  67  49    83  91  72    74  84  56    42  48  24    66  70  44    98 109  68    95 114  54    90 107  36    74  84  25    55  59  20    57  58  24    60  61  29    81  88  60   116 125 105   142 152 143   149 157 151   125 131 120    75  78  65    46  47  36  
  88 112  42    80 110  45    73  97  43    81 101  49    80 102  38    83 103  40    88 106  41    95 111  41    84  99  33    85 101  27    98 111  42   128 135  70   119 115  72    77  66  41    56  46  12    85  80  29   110 108  51   106 105  51    93  90  54    70  63  43    50  39  21    65  64  37    88 100  68   134 154 133   109 122 102    74  75  42    84  84  49    55  55  32    70  66  42    98  90  45    75  60  37    76  74  55   114 124 105   119 130 103   120 131  92   100 110  66    62  76  30    77  95  40    84 101  27    75  87  20    57  64  16    65  69  31    75  75  46    82  91  65    88  99  81   108 119 111   141 151 147   150 158 152   146 150 144   121 120 117  
  72  85  35    69  96  42    62  81  35    57  67  38    45  49  36    56  62  26    87  97  29    86  97  23    86 101  27    72  88  24    74  90  26   108 121  52   121 122  68    95  87  49    75  62  21    76  61  21    93  75  40    97  84  45    82  68  33    76  70  32    53  52  26    36  39  30    70  81  63   141 155 133   108 119  94    45  49  19    73  74  42    50  49  20    81  84  56   111 117  91    71  79  58    79  85  67   115 120  99   146 153 118   120 129  86    89  99  63    81  92  59    92 109  56    77  97  33    50  65  22    49  56  35    53  56  31    76  74  44    70  69  45    50  49  42    44  42  42    67  69  62   111 115 108   145 150 144   132 139 129  
  44  51  29    64  84  43    84 100  47    60  67  28    30  32   9    49  52  11    94 101  36   102 112  37    99 113  30    76  92  16    62  76  13    90 100  34   107 109  57    79  73  35    97  85  46    95  81  42    70  55  23    81  64  33    79  64  31    94  85  44    66  59  32    41  38  29    92  96  85   148 158 142   116 125 101    72  78  42    58  59  27    42  43  20    68  73  51    93 102  77   102 112 101    86  93  81   106 112  91   149 156 123    94 102  65    33  42  15    38  48  23    69  87  35    71  92  28    46  62  20    31  39  17    45  46  20    74  70  42    50  47  26    29  26  19    21  19  21    26  28  20    51  55  46    86  91  84    81  89  77  
  26  27  23    75  91  43   121 133  60    98 101  39    67  66  17    81  81  26    95  99  37    92 100  29    96 111  23    80  97  15    78  89  21    87  95  29   124 125  70    91  85  40    95  89  41   113 106  61    90  79  46    87  71  45    72  58  26    86  74  34    75  66  39    45  38  29    83  80  76   135 139 130   120 125 101   107 113  75    58  62  28    27  31   9    45  53  33    69  83  57   102 114 110    75  85  77    67  75  56    96 103  69   111 120  74   109 121  74    77  92  48    68  88  38    74  94  32    56  68  30    31  35  14    57  56  27    79  74  49    45  40  24    20  15  13    19  14  17    29  30  20    40  44  33    75  80  72    83  91  79  
  37  42  30   114 128  63   129 136  56   120 121  40   117 118  41   105 107  34    81  83  20    80  87  20    87 100  16    85  99  21    90  97  25    98 103  35   136 137  77   136 135  78   116 115  58   123 121  70   118 116  75    92  86  57    68  61  30    67  62  29    54  48  25    40  35  23    64  62  56   115 118 107   110 115  92   129 135  99   113 120  81    79  90  55    86 100  68   104 123  91   108 127 103    52  66  48    24  33  20    25  30  15    53  59  34    97 107  71   100 114  75    88 107  63    76  95  37    49  59  23    40  40  21    91  89  59    90  83  61    46  39  27    18  12  13     9   5   7    25  26  14    41  46  31    90  98  86   119 129 116  
  63  68  42   128 135  75   121 120  54   130 127  50   140 139  58   110 111  32    81  84  19    91  98  31    93 105  21    89 102  21    86  91  25    82  85  28    98  97  45   111 110  55   113 113  60   126 127  83   124 127  89    94  98  64    74  76  48    57  56  36    42  41  23    34  36  18    65  69  53   107 112  94    82  87  66    93 100  70   133 145 100   131 147  95   119 139  94   121 143 107   103 121 108    36  47  40    11  14  15    12  12  17    11  12  14    22  29  22    69  81  63    83 100  65    71  85  40    49  56  26    77  76  55   128 124  96    86  78  60    35  27  18    19  13  14    14  11  10    32  36  20    56  64  46    91 102  90   127 138 127  
  70  75  42    95  97  50   124 121  61   139 135  66   129 128  60   123 126  49   104 110  37    90  97  30    96 104  25    93 101  24    85  89  33    48  48   8    64  61  23    86  85  39    99 100  57    89  90  59    75  80  51    79  88  54    66  71  44    57  59  45    80  83  66    68  76  48    74  84  57   109 115  92    78  86  63    73  84  57   106 122  77   103 123  67    92 113  68   115 135 107   101 112 112    53  60  54    39  40  34    18  17  14    12  13  14    16  22  24    52  63  58    60  72  52    52  59  33    59  62  35   109 107  83   122 117  94    68  60  45    34  29  19    16  12  12    12  12   9    52  58  38    77  88  67    83  98  86   121 138 128  
  78  74  47    64  60  27    89  88  33   111 111  43   107 108  41   120 128  45   114 124  43    75  82  20    73  78  20    79  82  28    82  87  29    58  59  22    65  64  26    93  94  44    92  93  48    61  62  31    61  65  38    67  71  45    50  53  30    45  46  32    77  81  57   106 115  78   112 122  92   121 130 106    77  87  62    65  78  49    80  97  57    66  86  44    68  87  60    98 115 106    79  90  75    57  64  41    86  88  62    60  59  44    21  21  19    21  28  34    55  65  65    44  50  43    29  32  21    62  62  40    96  94  67    86  82  63    55  52  36    40  37  26    22  21  18    31  33  26    90 100  78    94 109  87    88 108  96   119 140 133  
  46  34  19    41  33  16    60  60  24    87  91  21   103 107  31   104 116  23   111 124  35    79  85  31    46  47  14    51  46  23    75  84  13    72  75  27    58  60  11    91  96  32   106 109  53    78  81  39    59  61  32    55  53  36    69  67  46    51  48  29    58  59  27   108 115  73   126 134 106   113 123 100    68  81  53    83  98  65    87 104  69    45  62  37    63  78  71   103 116 123    57  60  59    31  31  22    49  45  33    55  49  44    27  26  28    16  26  22    52  65  57    36  38  40    29  29  27    75  73  52    86  82  54    71  68  51    56  53  38    42  41  28    35  36  31    48  52  43    92 105  79    70  88  64    92 112 101   123 146 140  
  58  46  30    52  40  20    74  60  28    84  82  23    88  96  33    90 106  36    87 111  27    81 102  31    52  62  23    40  39  24    53  53  15    69  76  28    71  80  26    95  99  43    87  88  30    67  74  28    41  47  20    42  49  17    83  90  46    86  93  42    87  92  33   114 123  60   136 142 102   135 147 125    70  84  64    67  79  57    56  65  45    37  47  33    84  96  90   114 128 128    61  68  60    26  30  24    23  26  19    21  23  18    19  23  22    29  35  37    46  52  55    30  32  34    62  62  55   109 108  89    74  72  47    68  66  43    49  47  31    30  33  20    52  53  44    58  55  50    41  49  35    36  57  36    90 112  97   124 141 140  
  62  53  20    66  61  20    76  74  20    72  73  21    64  71  20    75  90  26    77  99  13    85 104  25    84  92  43    46  45  14    35  31   6    57  58  36    89  95  49    86  89  45    57  56  17    62  64  26    54  57  36    65  70  31   101 110  45   110 119  41   107 116  34   112 122  54   132 138 102   143 150 130    66  73  57    25  31  20    19  27  20    39  50  45    97 112 109    97 117 112    65  72  64    50  54  46    44  47  39    23  25  19    16  20  18    42  48  51    55  62  65    39  42  41    96  97  86   131 130 110    59  57  40    55  51  40    41  38  33    45  48  39    87  88  82    44  44  40    28  37  25    46  66  48    80 102  90   113 128 130  
  61  50   6    76  73  11    92  97  26    64  65  23    33  36   8    63  72  31    89 104  40    82  94  28    88  90  37    67  63  15    49  42  15    50  48  30    93  98  52    85  85  42    39  33   6    35  34   6    39  40  21    58  60  25    93  96  43    92  95  38    75  79  29    68  75  37   115 121  99   133 136 120    66  68  55    25  27  22    39  44  45    73  84  85   101 119 116    85 108  98    61  68  60    47  52  44    48  53  44    34  36  30    20  24  20    53  59  60    68  75  76    70  73  69   129 131 114   124 123 103    54  50  40    52  48  49    44  40  43    79  81  73    96  97  89    27  29  20    29  40  25    50  70  52    85 106  95   118 136 135  
 112 101   1   103 103   3    89  95  13    52  53  20    31  31  22    47  49  39    66  71  46    58  59  26    73  70  28    88  82  25    91  83  37    82  81  39   104 108  59    92  92  41    58  53  12    41  38   8    47  46  23    59  55  32    68  64  37    60  57  37    48  46  39    51  53  48   111 117 107   124 128 114    63  65  52    58  61  52    99 106 102   116 127 123    96 110 104    68  85  77    66  71  64    40  46  38    39  45  35    32  37  29    30  35  31    64  70  69    54  60  61    66  70  65   135 139 116   117 117  93    68  64  56    57  53  54    42  40  35    67  69  57    51  55  40    18  26   7    41  56  35    47  67  47    92 112  98   123 143 133  
 161 150   1   117 112   6    57  55   9    27  25   7    27  25  20    25  24  24    33  32  23    44  39  24    71  63  32   101  91  39    99  91  35   102 101  49   123 125  77   109 110  58    97  96  33    79  78  22    57  56  21    50  44  22    62  56  30    81  76  54    79  76  65    82  84  81   135 142 134   130 138 124    63  72  55    86  95  76   120 129 110   107 115 100    73  80  71    47  54  47    65  68  61    44  50  40    31  37  27    62  69  61    80  87  80    70  76  74    39  43  45    46  49  45   127 131 109   119 123  96    69  67  55    66  64  56    70  71  55    65  66  49    49  56  34    55  70  41    68  87  58    58  78  53    80 100  81    91 112  95  
 147 129   7    91  76  18    47  36  28    36  32  23    43  40  31    41  41  31    49  47  30    57  52  34    73  66  40   106  98  53    86  75  21    87  84  40   125 129  83   109 111  70    97  98  35   102 107  22    77  79  20    64  60  22    77  73  40   104  99  69    87  85  66    87  87  80   134 138 130   124 131 119    89  97  81   111 124 101   123 135 111   101 109  89    58  62  51    39  40  35    54  57  50    44  48  38    66  73  63   128 136 125   111 118 111    60  65  61    38  42  43    37  40  39   115 119 103   126 128 106    73  71  56    81  80  65   106 108  87    76  77  60    55  62  40    71  88  56    78  99  67    76  95  72    86 106  87    92 114  95  
 116  98  22    69  56  21    53  48  31    47  45  32    50  47  38    48  46  34    39  37  22    39  35  21    50  44  23    84  79  36    91  83  15    86  85  31   115 121  67    90  92  57    64  63  17   103 110  23   116 125  37   110 112  44    93  89  48    91  85  58    76  71  53    83  80  75   105 106  97    99 101  88    90  94  80    73  79  65    78  87  72    80  90  75    57  63  52    79  82  73    81  83  76    60  65  55   112 122 109   122 132 121    67  75  66    49  54  48    36  38  37    27  30  30    96  98  91   122 122 110    57  56  44    39  38  26    44  44  33    38  36  29    29  37  21    54  75  47    67  90  65    76  93  78   103 120 109   135 156 143  
  92  75  36    60  51  31    41  41  26    35  32  21    30  25  22    24  21  21    23  19  19    27  22  22    34  29  15    76  74  31   102  98   7    96 101  18    99 110  40    81  87  46    59  58  28    91  97  26   112 124  15   106 114  18    88  88  30    84  80  41    91  87  59   110 107  94    99  97  88    68  64  52    66  63  54    38  40  34    52  59  56    66  76  70    69  79  70   136 147 133   130 131 125    93  98  88    99 108  96    55  65  53    24  32  24    49  54  48    34  37  35    22  26  27    81  82  82   117 116 113    47  44  39    29  26  22    30  28  29    38  34  38    54  61  52    87 109  88    79 102  83    61  77  71    86 101  98   138 158 151  
  52  49  35    44  41  32    33  32  21    26  27  22    19  20  16    22  25  14    17  19  12    16  16  19    29  31  13    80  89  24   111 119   2    94 102   3    88  98  26   104 112  72    99 105  71    74  80  21   104 108  17   115 112   3    89  84  11    75  70  33    92  86  67   110 107  89    80  78  63    63  50  34    69  57  42    53  49  41    61  63  59    54  59  55    51  55  47   122 125 112   115 117 104    72  74  64    48  48  44    23  24  25    19  23  24    43  52  51    29  38  36    16  20  23    62  66  68   116 122 113    47  52  47    31  32  36    53  55  49    67  84  74    89 111  92    94 110  81    59  72  54    31  41  40    60  75  72   120 141 123  
  42  43  30    43  43  35    32  32  24    26  27  21    26  28  23    28  31  22    22  24  18    26  26  27    43  46  29    82  91  37    99 105   9    96 104  13    91 103  29   105 115  66   135 142 103    93 100  45    83  88   7   109 108  12    88  84  20    64  58  23    73  67  46    87  82  67    60  57  44    62  52  37    82  72  57    75  72  63    67  69  64    55  58  54    48  50  42    75  77  64    67  68  62    35  36  31    20  21  18    16  16  18    22  27  30    56  64  68    41  49  53    17  23  24    74  80  79   143 151 141    75  82  76    65  69  71    79  85  76    82 101  81    90 110  84    63  78  52    22  33  19    13  23  21    47  60  59   100 117 106  
  39  45  18    31  34  20    26  27  16    25  27  17    27  29  23    26  28  23    26  27  23    31  31  29    39  41  27    55  61  25    65  68  11    85  92  30    83  94  36    72  83  39   113 121  87   126 132  93    90  95  40    77  76   8    66  63  13    74  69  37    63  57  35    47  41  27    38  32  24    55  48  33    77  74  58    83  83  74    68  69  65    61  62  58    55  55  48    48  46  37    27  30  23    23  24  15    35  37  26    31  34  25    28  34  29    71  81  83    56  67  69    24  34  32    96 106 100   157 167 156    90 100  92    51  61  56    51  62  48    62  81  52    82 101  71    58  71  47    21  29  16    36  42  37    53  61  60    49  59  58  
  43  59   6    33  41  12    21  24   9    18  21   7    20  23  15    19  19  17    23  24  21    24  25  18    25  27  15    32  35  17    48  49  31    56  61  34    44  52  23    37  46  25    58  65  50   110 114  96   129 132 104   102 102  61    66  63  28    72  66  39    65  58  40    44  39  26    42  37  31    59  57  42    81  82  65    90  92  81    71  73  67    63  63  58    48  46  40    31  27  19    34  37  23    85  89  71   121 126 102   124 131 106    92 104  83    84  96  84    75  88  82    73  85  79   129 143 131   149 164 149    76  89  79    36  47  37    46  59  42    70  87  61    70  85  61    78  89  72   101 109  92   108 114  98    68  73  66    25  30  35  
  62  83  13    51  61  27    26  28  18    14  15   5    16  17   8    15  16  11    17  17  14    20  21  13    32  34  23    42  45  38    46  47  42    27  31  24    19  24  17    22  27  22    31  36  30    70  74  62   117 120 103   127 127 108   123 122  99    97  92  70    73  68  50    49  44  34    46  43  38    75  76  62   104 107  92   103 106  95    74  77  70    63  63  57    37  34  28    33  29  20    72  79  63   103 110  89    96 103  77    99 109  81   130 142 121   133 148 133   117 132 123   107 123 113   129 145 128   126 143 125    63  77  64    69  83  67    71  86  65    55  71  55    32  45  35    62  73  58   113 122  99   115 122  96    64  67  55    19  19  26  
  69  92  11    53  64  24    27  28  23    16  17  13    17  19   8    21  23  12    21  22  16    33  36  26    47  50  38    43  45  42    25  28  19    20  23  16    19  21  17    19  21  17    42  45  37    65  69  52    57  61  44    73  74  65   123 121 104   121 116  96    75  69  54    38  36  27    45  46  39    74  78  64   107 111  96   110 113 102    81  82  75    62  62  57    28  26  19    35  32  23    62  67  60    47  54  42    36  42  28    59  66  51   117 128 118   145 160 154   116 132 128    77  93  80   101 119  96   105 122 103    60  74  59   101 117  96    88 103  79    48  63  51    37  50  43    70  82  71   103 114  92   110 117  92    73  76  63    25  24  27  
  70  95   1    52  65   9    27  27  16    23  22  21    25  27  14    38  41  23    39  41  31    44  48  36    42  45  33    25  27  24    10  13   5    22  24  18    15  16  10    25  26  19    61  62  52    61  63  49    26  27  17    25  25  20    50  48  33    85  80  62    69  66  54    55  56  48    84  90  81    89  96  82   103 108  93   111 114 103    86  87  79    59  59  51    25  25  17    46  46  36    87  96  84   100 108  98   100 106  98   119 128 121   144 155 149   150 165 158   116 133 126    75  92  75   113 130 104   111 126 106    80  94  78   121 137 113   123 139 112   118 135 116   130 146 133   149 162 152   125 136 124    79  85  73    36  37  30    22  22  19  
  92 119   4    62  77   2    37  39  12    31  29  27    33  34  22    59  63  41    55  57  46    41  44  33    26  29  17    15  18  14    15  17  16    15  15  15    23  23  21    31  31  26    52  52  44    40  41  36    21  21  19    19  19  14    31  29  14    69  63  47    73  69  59    82  83  76   138 146 134   140 149 133   121 125 111   111 114 103    82  83  75    54  55  47    46  47  39    99  99  92   135 144 126   113 122 106   100 108  96   103 113 103    76  89  79   107 123 110   124 141 127    95 110  92   107 123  95    90 105  85    81  95  79   108 124  97   108 123  96    99 117  90   110 129 107    93 109  99    38  48  47    25  31  33    30  31  30    32  31  26  
 106 128   1    86 101   7    47  51  17    31  31  24    55  59  38    77  81  50    49  50  34    31  31  25    30  32  24    23  28  20    19  15  12    16  18  13    22  27  21    38  43  36    38  40  34    33  27  23    30  18  21    31  19  26    43  34  27    73  68  50    75  73  59    83  83  73    88  90  82    99 104  86   136 139 121   104 104  94    57  54  49    56  55  47   115 118 103   157 165 143   107 115 100    63  72  60    58  68  61    55  67  64    38  50  49    53  67  67    99 112 112    80  90  87    80  92  83    71  88  73    73  89  71    90 102  85   102 111  95   113 125 102    96 105  84    46  50  37    36  36  31    48  48  43    50  50  43    50  53  42  
  97 118   1    72  86   8    40  45  15    46  48  35    73  78  48    83  86  51    45  46  28    23  24  17    26  29  22    24  29  23    33  30  28    17  18  13    25  29  23    52  56  49    51  51  43    44  38  32    40  31  27    28  18  17    34  27  16    71  68  51    68  64  52    55  53  43    52  52  42    89  89  69   131 130 109    98  93  82    38  34  28    55  54  44   125 128 112   150 158 135   116 125 106    99 109  93    98 109  97    96 107 100   100 113 106   107 122 116   121 136 126   108 121 104   116 130 110   127 142 119   130 146 120   121 134 112   121 129 111   137 146 124   111 118 100    75  79  65    78  78  73    75  75  70    71  72  64    83  86  75  
  81 102   6    59  73  13    44  51  25    63  68  46    90  97  56    91  96  54    43  45  24    18  18  12    20  23  16    21  26  20    29  28  26    26  25  23    48  50  44    77  79  71    79  78  66    94  87  75    91  83  73    53  49  39    52  49  33    72  69  54    45  41  30    46  42  32    78  75  57   120 115  89   140 134 109   105  98  80    45  40  28    46  46  33    86  92  73   105 115  91    92 100  80    90  97  80    93 102  89    95 107  97   105 116 108   108 121 112   121 134 121   122 135 113   128 142 119   135 149 124   124 138 115   113 124 103    92 100  83    95 104  83    84  92  73    69  73  60    64  65  58    59  59  54    63  63  56    64  67  56  
  77  98  21    65  80  31    59  70  38    70  79  42    92 101  49    90  96  47    41  43  20    13  14   7    10  13   7    10  12   7    13  11  12    29  28  26    52  53  47    58  58  48    61  58  46    92  85  69    91  84  69    87  85  71   111 109  94   119 118 105    64  60  51    62  56  39    96  89  61   113 102  71   127 115  88    92  84  64    44  39  24    71  71  57   101 106  90   103 112  91    71  75  58    35  39  25    33  40  28    37  46  37    40  50  42    61  72  62    89 100  90    92 103  90    79  90  76    70  80  65    68  76  60    67  75  59    52  59  43    68  75  56    60  67  48    40  42  29    33  33  26    44  44  39    57  58  50    50  53  44  
  77  97  35    76  94  42    74  88  46    79  89  42    94 106  45    89  97  43    43  45  21    16  16  11    11  11   7     9  11   6    17  16  14    36  35  31    47  45  38    38  34  23    55  49  33    77  68  51    60  52  36    82  79  69   117 115 103   125 123 111    72  68  56    79  72  49   117 107  68   117 104  70   107  95  68    66  58  38    60  55  40    93  93  79    87  91  74    80  87  69    68  69  61    37  39  33    29  33  27    24  31  24    42  49  41    60  70  59    59  69  58    77  85  74    66  74  62    40  47  31    56  63  42    63  69  45    53  59  32    60  67  44    44  48  31    23  25  12    32  32  22    56  57  50    55  56  50    29  32  25  
  68  86  32    75  92  41    80  95  47    87 101  46    97 110  42    83  92  35    40  42  19    18  17  13    13  14  10    15  17  12    25  24  20    43  41  36    40  36  27    30  24  11    61  54  39    66  55  39    37  28  12    52  49  37    90  88  75   108 106  93    62  58  45    68  60  37   107  95  57   119 108  78   115 106  83    64  59  40    63  61  47    78  80  66    45  47  34    31  33  20    35  34  30    45  44  40    45  46  41    43  47  40    53  59  47    51  60  43    47  56  35    80  89  64    79  85  62    43  47  21    57  62  30    67  74  36    61  69  27    52  57  32    28  32  15    19  20   7    31  31  20    43  44  35    33  35  28    18  21  14  
  68  85  38    68  83  38    77  90  42    85  99  41    89 102  33    70  80  23    32  34  12    14  12  11     9   9   6    13  14   8    35  35  27    53  52  42    41  36  25    35  27  15    64  55  40    50  38  22    35  24   6    43  40  20    82  81  60   102 101  83    59  54  42    55  46  29    87  73  48   122 114  91   131 128 109    65  63  48    48  49  37    49  50  40    30  28  19    32  28  19    40  37  32    41  40  35    53  54  45    71  74  59    61  69  46    57  66  36    75  86  51    83  94  56    73  80  45    50  53  22    58  62  29    61  65  30    69  76  36    47  53  28    22  25  10    40  41  27    53  53  42    36  37  28    18  21  13    20  22  17  
  85 102  58    67  81  44    70  82  37    82  96  37    84  97  28    66  75  18    34  36  15    18  16  15    10  11   7    12  14   8    30  30  20    49  47  35    35  30  19    44  35  23    75  63  50    51  38  22    55  44  26    68  63  38    95  94  66   102 101  79    60  55  43    53  42  33    73  57  44   114 110  94   130 131 117    55  57  44    36  39  29    35  35  27    30  27  20    42  35  29    41  38  31    27  25  16    41  42  28    63  67  46    72  78  46    74  84  44    68  80  37    68  80  38    64  71  35    50  53  24    69  70  46    54  57  33    49  54  27    37  41  23    29  31  17    53  54  40    47  47  36    29  29  20    24  27  19    18  20  15  
  57  66  35    61  67  33    69  74  28    92  95  29    97  99  34    80  84  36    36  38  13    19  20  10    14  13   9    23  21  16    52  50  38    57  53  37    37  28  19    48  36  29    69  59  34    70  63  21    84  78  34    94  92  52   104 103  78    98  95  80    60  50  38    66  53  40    67  58  47   106 111 105   130 134 124    52  51  30    34  33  13    34  35  20    34  36  16    49  49  19    30  36  33    28  34  16    45  51  20    66  71  40    61  67  39    54  62  30    55  65  28    56  65  33    43  52  27    54  63  33    70  78  53    49  55  44    29  35  22    34  37  21    47  48  33    49  49  37    28  29  19    24  25  18    24  25  20    28  29  24  
  46  54  22    66  73  31    88  94  36    97  99  35    81  81  26    50  52  17    21  22  10    15  15  14    14  12  14    32  28  27    76  75  54    64  60  42    45  36  25    53  43  29    75  68  40    74  70  29    85  83  39    98  97  53    86  87  59    74  72  56    54  45  34    64  54  42    72  66  55   104 110  96   110 114 100    40  36  28    29  25  20    39  42  28    66  72  41    90  93  48    58  69  32    70  81  29    82  92  39    61  65  36    27  28  20    32  37  22    53  63  30    63  75  28    54  64  31    57  65  38    60  67  50    46  51  46    25  31  20    40  43  29    46  47  33    36  37  25    21  23  13    20  21  14    21  22  17    24  24  19  
  53  58  21    71  79  23    93 103  31    86  91  24    70  69  20    38  37  11    20  17  11    17  14  15    25  21  18    53  50  42    78  77  48    56  49  35    36  28  14    59  53  27    94  92  54    83  83  41    92  93  46   101 103  53    89  93  62    65  66  51    56  49  39    84  77  65   105 102  90   117 124 103    93  96  83    34  28  28    43  41  34    65  73  46    90 102  54   100 110  53    77  90  36   102 113  52    98 106  53    56  59  31    24  25  16    29  34  18    54  63  23    74  85  27    73  81  43    64  69  46    55  58  48    53  55  52    37  40  31    42  44  30    38  38  25    30  30  18    30  32  22    30  31  24    27  28  22    22  23  18  
  75  77  26    87  95  25    97 109  31    96 102  32    84  84  33    40  38  12    19  15   5    24  20  10    51  49  30    91  89  64    80  79  53    39  33  24    43  38  22    74  72  33    97 100  48    80  87  34    84  92  34   110 116  58   120 127  90    85  87  72    52  49  40    77  75  62    97  99  83    95 101  83    67  70  58    38  35  25    78  84  52   115 131  74   109 126  62    78  88  34    78  88  29    93 101  50    71  75  37    42  44  19    33  35  14    31  36  12    52  60  22    71  81  26    70  77  39    52  57  33    51  55  41    60  63  56    42  45  36    33  34  23    28  28  18    29  29  19    41  42  32    40  41  34    36  37  31    24  25  19  
  88  90  23    97 106  30    93 105  31    98 103  36    83  82  34    41  37  13    37  31  18    55  50  30    83  81  52   108 108  74    70  70  47    28  24  14    38  36  12    74  79  23    83  93  22    75  87  15   109 120  48   117 127  60   110 121  80    85  92  74    57  59  47    78  80  63    83  92  68    83  92  70    49  52  35    43  46  22    91 104  48   105 128  48    95 117  43    95 108  56   121 130  66    91  96  47    45  46  14    27  25   8    28  27  15    25  27  14    44  49  27    59  67  26    52  59  23    33  39  12    50  55  36    64  68  54    36  39  30    29  30  20    31  31  21    35  35  27    43  44  36    42  43  35    40  42  35    29  30  24  
  91  91  19    99 106  34    92 104  37    86  92  36    67  65  28    54  47  30    70  63  48    82  77  50    93  89  55    90  89  55    50  53  24    47  50  21    81  84  38   101 111  35   105 119  25   104 122  26   121 139  47   110 124  49    89 103  58    84  95  77    58  64  50    63  71  47    69  85  49    82  97  63    48  58  30    50  58  22    84 101  42   112 137  59   122 143  72   107 117  66   100 103  57   104 106  63    88  87  57    55  52  37    34  31  25    31  32  21    41  44  24    56  61  30    49  54  21    29  33   9    43  46  27    53  56  38    29  30  20    23  24  16    28  28  20    33  33  25    36  37  29    37  38  30    37  38  30    30  31  23  
 103 102  35   110 116  51   111 122  58    96 101  48    72  69  35    75  68  49    87  80  54    90  86  44    99  98  52    86  84  44    63  72  24   113 125  61   148 161  80   151 166  67   138 157  43   110 131  14    97 116  12    84  99  20    92 109  60   103 116  94    58  68  50    47  59  28    64  84  40    72  91  50    40  54  21    65  77  40    97 116  64   106 130  67    95 112  55    68  76  34    44  42  19    67  65  39    82  78  53    82  79  58    88  87  66    91  94  64    75  80  47    69  74  40    56  61  29    32  34  18    32  33  25    40  42  28    27  29  19    21  20  15    21  20  15    23  22  17    24  25  17    29  30  22    26  27  19    22  23  15  
 130 126  66   128 131  75   119 129  67   101 107  48    77  75  33    85  80  47    93  87  46   106 102  44   129 128  69   110 110  59   103 120  50   136 154  63   144 162  57   128 147  33   118 138  12   108 130   4   103 122   9    99 115  33   112 129  79   114 128 106    72  84  63    68  83  48    80 103  53    80  99  63    49  64  33    71  86  49    94 113  63    87 109  54    69  84  41    70  73  48    66  64  43    58  52  37    59  53  35    89  86  56   113 116  74   104 110  69    87  93  54    94 101  60    65  70  38    38  39  31    36  36  37    47  48  38    36  37  28    32  31  26    27  26  21    21  21  15    20  21  14    28  29  21    23  25  17    24  24  17  
