P3
50 50
255
  28  34  32    38  43  39    48  54  52    29  34  33    19  24  23    43  47  46    26  30  29    12  17  15    12  18  14    41  46  43    55  65  64    48  57  54    26  32  28    18  23  16    24  27  20    30  33  26    35  38  31    28  30  25    29  32  22    39  42  31    49  52  41    48  51  40    34  37  26    45  48  37    85  88  77    59  62  51    35  37  26    36  38  27    30  32  21    23  25  14    21  22  14    22  23  15    23  24  16    25  26  18    32  33  25    41  43  32    52  52  42    51  51  41    55  56  48    55  58  51    60  65  61    45  51  49    33  39  39    55  62  62    34  40  38    35  41  39    16  22  19    12  17  13    15  20  16    12  17  14  
  20  26  23    42  44  41    37  41  40    26  30  29    16  22  21    32  38  36    30  36  34    19  25  23    18  24  22    44  50  48    60  70  69    48  57  54    22  28  24    18  23  16    28  31  24    31  34  27    34  37  30    28  30  25    27  29  17    35  37  26    42  44  33    48  51  40    49  52  41    57  60  49   100 102  94    73  77  68    50  52  41    38  40  29    32  33  23    31  32  24    26  27  19    21  22  14    24  25  17    28  29  21    41  43  32    44  46  35    48  48  38    55  55  45    62  63  55    58  60  55    63  67  64    50  56  55    30  36  36    49  55  55    44  50  48    34  40  38    14  20  18    16  21  17    16  21  17     8  13   9  
  26  32  30    37  39  35    31  35  34    27  31  30    20  26  24    28  34  32    39  45  43    24  30  28    19  25  24    44  50  49    47  57  56    42  51  48    20  26  22    23  28  21    40  43  36    34  37  30    29  32  25    27  29  24    28  30  17    35  37  24    45  47  36    51  54  43    54  57  46    52  55  46    87  91  82    72  78  68    54  55  46    47  48  39    39  40  32    34  35  27    29  30  22    25  26  18    28  29  21    35  36  29    41  43  32    51  53  42    53  53  42    52  52  42    55  56  48    51  53  48    61  65  64    51  57  57    37  43  43    35  41  41    42  48  48    34  40  38    23  29  27    21  25  23    14  19  15    10  15  11  
  32  40  38    31  35  33    31  36  35    32  37  35    24  30  28    25  31  29    32  40  39    21  30  28    21  29  28    42  50  49    44  54  54    42  51  50    11  19  15    19  26  19    36  40  33    33  36  27    29  31  25    28  29  23    25  27  17    38  40  30    47  48  39    49  51  42    54  57  47    53  56  47    84  88  78    74  78  68    48  48  39    50  50  40    47  47  37    28  30  20    26  27  17    35  36  26    32  33  23    35  36  27    39  39  29    53  53  43    62  62  53    50  51  44    48  49  43    48  50  45    56  58  56    47  52  50    39  47  44    31  39  37    39  47  46    36  42  42    29  35  35    21  25  24    19  24  20    11  16  11  
  34  44  43    22  26  25    31  37  35    37  42  40    29  35  34    31  37  35    29  38  37    18  27  26    26  34  34    44  54  52    40  50  50    44  53  52    12  21  16    23  30  23    34  39  32    27  30  21    27  28  22    31  32  26    29  30  22    33  35  26    43  44  36    47  50  41    50  53  44    56  59  50    76  79  70    54  57  48    45  45  35    40  40  30    37  37  27    21  23  13    20  22  11    31  33  22    28  30  20    33  35  24    40  40  30    53  53  43    69  69  61    69  70  64    51  53  47    43  45  40    43  48  44    44  49  45    48  57  52    36  45  42    39  48  47    39  45  45    30  36  36    21  25  24    20  25  21    13  18  12  
  37  46  43    27  32  28    26  32  30    22  28  26    30  36  34    49  54  52    34  40  38    23  32  31    43  52  51    40  49  48    39  48  47    49  58  55    22  28  24    26  32  24    30  36  26    17  20  11    17  18  12    28  28  23    30  31  23    33  35  26    47  50  41    47  49  41    39  42  32    62  65  56    87  90  82    60  64  54    59  59  49    49  49  39    43  43  33    27  29  18    21  23  12    26  28  17    26  28  18    33  35  24    51  51  41    50  50  40    54  55  47    72  74  65    66  70  63    59  61  56    46  51  47    50  55  51    50  59  54    41  50  47    40  49  46    49  55  55    36  42  40    27  31  30    19  24  20    14  19  13  
  33  39  37    22  27  23    32  38  35    22  27  25    22  28  25    40  46  44    31  37  35    35  41  39    62  70  69    50  58  57    41  49  48    56  62  59    25  32  25    25  30  23    29  35  25    21  24  15    23  25  19    32  33  27    44  47  38    40  43  34    39  42  33    47  50  41    38  41  32    58  62  53    80  84  75    56  62  52    55  55  45    51  51  41    46  46  36    28  30  19    19  21  10    27  29  18    32  34  23    35  37  25    53  54  43    52  54  43    56  58  49    68  71  62    71  74  67    61  66  60    51  56  50    52  58  54    44  53  50    40  48  46    38  47  43    46  52  49    30  36  34    27  32  28    17  22  18    15  20  15  
  36  42  40    23  28  24    27  32  28    24  29  25    17  22  19    27  33  31    28  34  32    37  43  41    64  70  68    63  69  67    52  58  56    64  69  65    33  39  32    31  36  29    35  40  30    28  31  22    26  29  22    26  28  22    38  41  33    45  48  40    41  44  36    55  58  50    45  49  41    65  70  62    80  85  77    65  70  62    58  58  48    45  45  35    36  36  26    28  30  19    23  25  14    27  29  18    32  34  23    34  36  25    50  52  39    51  53  42    71  73  62    74  77  68    65  70  63    56  62  55    61  68  61    52  58  53    46  55  52    44  53  50    38  47  42    36  43  37    22  28  23    20  25  20    16  21  17    14  19  15  
  33  39  37    30  35  31    31  36  32    20  25  21    20  25  21    26  32  28    18  25  23    29  35  33    62  68  66    71  77  75    53  58  55    60  65  60    35  40  33    40  45  36    40  43  34    27  31  21    25  29  22    22  24  19    24  27  20    38  42  35    40  43  36    44  47  40    38  43  37    87  92  85    88  93  86    68  73  66    55  55  45    36  36  26    26  26  16    26  28  17    23  25  14    23  25  14    31  33  22    34  36  25    49  51  38    53  56  43    79  82  71    82  87  78    60  65  57    49  56  48    61  68  61    58  67  59    54  63  61    46  55  52    39  48  43    32  40  32    25  32  24    19  24  18    15  20  17    13  17  15  
  29  35  33    27  32  28    33  38  34    19  24  20    19  24  20    25  30  26    16  22  20    16  22  20    38  45  42    57  63  61    55  60  57    57  62  56    38  43  36    50  53  44    42  45  36    23  26  17    25  28  21    27  29  24    24  27  20    25  28  21    39  42  35    40  44  38    32  37  30    89  94  87    76  81  74    64  69  62    54  54  44    43  43  33    34  34  24    26  28  17    15  18   7    17  19   8    30  32  21    33  35  24    40  44  30    46  50  36    59  62  51    79  85  75    74  79  72    62  69  61    52  59  52    56  66  58    60  69  68    41  50  47    32  42  34    24  31  23    26  33  25    17  22  16    19  24  19    19  23  22  
  24  30  28    29  34  30    24  29  25    14  19  15    21  23  22    32  34  34    31  33  32    14  19  15    42  47  41    56  63  55    48  55  48    60  67  60    62  67  61    44  49  42    43  48  41    24  27  20    33  36  29    30  34  27    21  22  14    23  25  16    31  34  25    35  38  29    24  30  20    74  80  70    81  89  78    51  59  48    51  53  39    41  43  30    31  33  22    24  25  17    15  16   8    24  24  14    24  24  14    27  27  15    36  39  28    38  41  30    47  49  36    73  73  61    76  76  64    60  61  50    54  57  48    50  55  48    51  56  53    52  57  53    42  47  43    26  31  27    14  19  16    25  29  28    20  24  23    16  20  19  
  16  22  20    26  31  27    19  24  20    17  21  20    20  25  23    28  32  31    28  33  31    17  22  18    39  44  37    54  61  53    49  56  49    62  69  62    47  52  46    34  39  32    33  38  32    26  29  22    41  44  37    26  29  22    21  22  16    29  30  22    30  33  24    26  29  20    37  43  33    92  98  88    88  96  85    73  80  70    45  47  33    33  36  22    28  30  19    25  26  18    15  16   8    23  23  14    24  24  14    30  30  17    38  41  30    45  47  36    51  53  40    60  60  49    68  68  56    65  67  55    55  59  50    48  53  46    39  44  40    43  48  44    42  47  43    31  36  32    12  17  13    18  22  21    17  21  20    16  20  19  
  16  22  20    32  37  33    15  20  17    16  21  19    31  39  37    32  39  39    24  31  30    20  26  23    29  34  28    41  46  40    36  43  36    48  55  48    40  45  39    36  41  34    30  35  28    28  31  24    35  38  31    26  29  22    25  27  21    29  31  25    31  34  25    23  26  17    44  49  39   109 115 104   101 107  96    66  72  61    59  61  47    37  39  26    24  26  15    23  24  16    16  17   9    24  24  16    25  25  15    31  31  19    43  46  35    44  46  35    53  54  41    63  63  51    69  69  57    62  64  53    51  54  45    57  62  55    45  50  46    47  52  48    52  57  53    43  48  44    17  22  18    16  20  19    14  18  17    13  17  16  
  21  27  25    36  41  37    28  34  32    27  35  34    47  57  55    33  43  43    24  33  32    34  42  39    27  32  28    41  46  40    42  49  42    48  54  48    40  45  40    39  44  37    33  38  31    32  35  28    31  33  26    24  27  20    25  29  22    27  31  23    34  37  28    32  35  26    43  46  37   102 106  95   112 116 105    63  67  56    61  63  50    35  37  24    23  25  14    26  27  19    20  21  13    28  28  20    25  25  15    26  26  16    28  31  20    35  37  26    51  51  39    58  58  46    64  64  52    60  62  51    46  49  40    48  53  46    49  54  50    46  51  47    50  55  51    46  51  46    22  27  23    21  25  24    16  20  19    11  15  14  
  21  25  24    39  42  39    28  34  32    30  39  38    39  51  51    30  44  44    47  59  59    68  76  74    34  39  35    30  32  27    41  48  41    57  64  57    41  46  40    34  39  32    34  39  32    28  30  23    32  35  28    17  20  13    17  20  13    29  32  25    37  39  32    36  39  30    29  31  21    53  56  45    83  88  74    77  81  67    50  52  39    29  31  18    24  25  17    29  30  22    18  19  13    23  23  15    22  22  12    24  24  14    24  26  15    33  35  24    44  44  32    49  47  35    58  58  46    71  73  62    62  65  56    49  52  45    45  50  46    41  46  42    43  48  44    40  45  41    25  30  26    27  30  29    19  23  22    13  17  16  
  15  19  18    25  27  24    16  25  24    29  39  38    34  46  46    33  48  48    38  52  52    59  69  68    44  49  47    25  27  24    40  47  40    58  65  58    47  52  45    35  40  33    45  50  43    32  35  28    37  40  33    23  26  19    18  21  14    29  32  25    29  32  23    30  33  25    34  37  26    31  35  21    48  50  37    74  75  63    50  52  39    30  32  21    24  25  17    24  25  19    10  11   5    18  18  10    24  24  16    28  28  18    38  40  29    43  45  34    48  48  36    56  54  42    61  61  49    68  68  58    60  61  53    32  35  28    42  47  44    45  50  46    47  52  48    41  46  42    25  30  26    26  30  29    17  21  20    14  18  17  
  34  39  38    19  23  20    14  21  21    23  33  32    24  38  38    38  54  53    30  44  44    46  56  55    52  58  55    27  28  25    52  58  51    52  59  52    42  47  41    31  36  29    51  56  49    40  43  36    35  37  30    29  31  25    19  22  14    29  32  24    34  37  29    38  41  32    53  56  46    47  50  37    44  47  33    77  80  65    52  53  40    31  33  22    25  25  17    22  23  17    12  12   7    24  24  16    31  31  23    32  32  22    38  40  28    46  48  36    49  49  37    53  52  40    62  61  49    72  72  63    74  75  68    44  46  39    39  44  39    46  52  47    46  52  47    40  45  41    26  31  26    25  29  28    17  20  19    14  17  16  
  32  37  35    24  33  30    28  33  33    23  32  32    25  37  37    46  60  61    41  55  55    40  50  49    39  45  41    35  36  31    53  59  52    52  58  52    48  53  47    35  40  33    42  45  38    36  39  32    33  34  28    36  37  31    24  27  18    25  28  19    32  35  28    39  42  35    54  57  48    49  52  41    41  45  31    72  76  61    51  51  39    38  38  28    35  35  27    26  25  20    17  16  11    23  23  15    31  31  23    34  34  24    42  43  29    50  51  37    53  53  41    46  47  34    62  64  53    71  72  64    80  81  75    54  55  49    37  44  36    41  48  41    39  46  39    43  48  44    27  32  28    23  27  26    19  22  21    10  12  11  
  22  26  25    23  30  28    42  49  49    30  38  40    45  57  57    51  65  65    50  64  64    52  62  61    40  46  44    32  36  32    47  54  47    54  61  54    50  55  49    32  37  31    29  32  25    35  38  31    30  31  25    30  31  24    31  34  25    22  25  16    26  29  22    35  38  31    48  51  43    45  48  37    42  46  32    68  72  57    44  44  32    32  32  20    24  24  16    18  18  11    17  16  11    20  20  12    23  23  13    31  31  21    39  40  26    47  48  34    62  62  50    48  48  36    55  57  46    70  71  63    77  78  72    51  53  47    37  44  36    40  47  40    37  44  37    43  48  44    24  29  25    13  17  16    16  20  19    10  13  12  
  25  27  28    24  30  29    43  51  53    32  42  43    68  80  80    41  55  55    31  45  45    50  61  59    47  57  56    36  45  43    35  44  39    61  67  63    44  51  44    25  30  24    29  32  25    45  48  41    38  39  31    30  32  24    36  38  27    24  25  17    29  30  24    39  40  34    43  44  38    39  40  32    43  45  34    64  66  53    53  53  42    32  32  19    19  19   9    17  17   9    21  21  14    24  24  16    25  25  15    31  31  21    30  29  16    41  40  26    57  57  45    61  61  49    49  51  40    74  75  67    70  73  66    36  39  32    38  43  36    46  52  45    31  37  30    31  36  32    27  32  27    14  19  17    17  21  20    17  21  20  
  22  23  25    20  25  25    29  39  41    28  38  40    85  97  97    47  61  61    35  49  49    77  89  89    77  90  90    42  52  53    41  50  45    92 101  96    69  76  69    29  34  28    13  18  11    22  25  16    33  34  26    40  41  33    35  37  26    23  24  16    25  26  20    37  38  32    39  40  34    34  36  28    36  38  27    48  50  38    57  58  44    42  42  29    44  44  34    42  42  34    29  29  21    24  24  15    27  27  17    32  32  19    33  31  18    45  43  30    53  53  41    65  65  53    50  53  42    66  69  60    73  76  69    42  45  38    30  35  28    44  49  43    38  43  37    35  40  36    35  40  36    24  28  27    23  28  27    17  21  20  
  34  38  39    27  34  34    41  52  54    36  48  49    80  92  92    45  59  58    45  59  58    98 113 113   100 114 116    46  60  62    34  45  39    79  88  83    63  72  67    25  31  25    13  18  11    17  20  11    27  28  20    40  41  30    35  37  26    22  23  15    19  20  14    28  29  23    35  36  30    33  34  28    32  33  25    35  36  26    55  55  41    40  40  27    43  42  33    41  40  32    25  24  17    21  20  11    24  23  14    28  27  15    38  35  23    49  47  34    53  50  39    51  51  39    62  64  53    55  58  49    70  74  67    67  72  65    38  42  35    40  45  39    49  54  48    42  47  43    32  37  33    26  32  30    29  35  33    20  26  24  
  40  48  47    42  52  51    54  66  70    45  58  59    66  78  78    38  53  50    43  58  55    94 109 109    97 112 115    50  66  70    39  50  46    57  68  63    62  71  66    33  40  33    25  30  23    22  25  16    20  22  11    32  32  22    37  39  28    29  30  22    21  22  16    26  27  21    33  34  29    34  35  29    35  36  28    37  39  29    60  58  45    43  41  29    35  32  23    29  26  19    24  21  14    24  21  12    23  20  11    27  25  13    39  35  23    56  53  40    53  51  39    50  50  38    82  84  73    60  63  54    50  55  48    75  80  73    55  58  51    44  48  42    52  57  51    39  44  40    33  38  34    27  33  31    27  33  31    23  29  27  
  45  56  57    74  86  88    56  70  76    45  60  63    71  87  87    38  55  52    60  76  73   100 115 113    67  80  81    39  52  54    47  57  57    48  58  55    66  72  67    40  43  35    30  32  23    27  29  20    22  23  16    29  30  25    38  41  33    32  34  26    23  26  18    26  26  19    28  29  22    31  31  24    27  28  20    42  43  35    60  59  47    38  37  25    29  28  17    25  25  14    20  20  10    21  18   9    24  20  12    31  29  19    40  38  24    57  52  38    56  48  36    51  47  35    79  81  68    70  77  66    37  45  38    62  68  63    67  73  68    48  52  48    45  51  46    40  46  42    40  45  42    27  32  29    23  27  26    19  23  22  
  60  72  72    77  91  93    45  60  65    63  78  81    84  98  98    49  65  62    67  82  79    87 102  99    57  71  71    41  55  55    60  71  73    40  50  48    50  56  50    34  36  28    29  31  20    29  30  22    20  21  15    21  23  19    24  27  19    25  28  19    27  30  21    25  26  18    26  27  19    34  35  27    27  29  18    44  46  35    67  67  55    39  39  27    30  30  18    29  29  19    22  22  12    19  19   9    26  23  14    32  29  20    35  33  18    53  47  33    52  42  30    55  49  37    72  74  61    62  70  59    46  56  48    70  75  71    54  61  54    48  54  50    47  52  49    35  41  37    40  46  42    33  38  34    21  26  22    15  19  18  
  58  71  71    49  63  64    28  44  44    73  87  86    61  70  69    35  43  42    72  81  80    79  91  89    79  93  93    48  67  65    61  75  76    48  60  58    54  64  59    35  41  32    26  29  18    30  33  21    24  25  16    21  22  14    17  20  11    14  17   8    27  30  21    25  26  18    26  27  19    39  41  30    28  30  19    49  51  40    65  65  53    33  34  22    28  28  18    30  30  20    20  20  10    16  16   6    21  21  11    28  25  16    32  33  17    54  48  34    55  45  33    57  51  39    71  73  60    69  77  66    64  71  63    62  66  62    55  62  55    56  63  56    60  67  60    38  44  40    38  43  39    40  45  41    27  32  28    23  28  24  
  43  55  55    45  59  59    37  53  50    56  70  67    48  57  55    34  38  37    60  66  64    68  78  76    90 104 100    37  55  50    61  74  74    53  65  62    50  60  54    30  37  29    24  30  18    33  37  23    28  30  19    34  35  23    33  36  27    22  25  16    40  43  34    36  37  29    25  27  16    34  36  25    26  28  17    59  61  50    57  59  48    30  32  21    31  31  21    35  35  25    23  23  13    18  18   9    23  23  14    28  28  20    36  36  21    46  40  26    53  43  30    47  41  27    57  59  46    64  71  58    61  68  59    55  57  51    64  71  64    55  62  55    67  73  66    53  58  52    42  47  41    43  48  44    32  37  33    33  38  34  
  44  56  56    60  75  73    49  63  60    42  54  52    48  57  56    32  39  38    34  39  38    75  83  78    84  93  86    31  42  33    36  44  41    43  51  46    48  55  48    38  44  37    31  37  26    32  35  23    25  27  15    41  41  29    41  44  35    31  34  25    53  56  47    46  47  38    29  31  20    37  39  28    29  31  20    59  61  50    53  55  44    34  36  25    35  37  26    38  39  28    26  26  17    21  21  13    24  24  16    30  30  22    36  37  23    48  42  28    55  45  33    49  43  29    57  59  45    59  65  52    70  76  66    71  73  67    59  65  58    56  62  55    63  68  62    53  58  51    44  49  43    45  50  44    29  34  28    34  37  32  
  62  75  73    65  80  77    46  57  57    39  51  51    53  66  66    52  65  62    45  54  49    60  65  58    70  72  61    59  58  47    53  52  48    54  55  50    54  56  50    44  47  39    32  38  28    42  45  35    34  35  26    34  35  24    35  38  29    25  28  19    47  50  40    47  49  38    34  36  25    45  47  36    33  35  24    49  51  40    46  48  37    33  35  24    31  33  22    27  29  18    21  21  13    18  18  10    17  17   9    21  21  13    32  33  19    49  44  32    60  50  38    51  45  31    71  72  57    73  79  65    79  82  73    72  73  66    63  68  61    64  69  62    57  62  55    46  51  45    41  46  40    45  50  45    32  35  29    34  35  30  
  84  96  94    61  76  71    32  40  42    35  46  46    49  65  64    59  78  74    66  81  74    66  71  62   138 135 122   130 122 107   104  97  89    82  78  69    68  68  60    56  59  51    35  39  32    43  46  37    38  39  31    31  32  24    33  36  25    25  28  17    50  53  42    57  59  48    37  39  28    36  38  27    29  31  20    50  52  40    46  48  37    35  37  26    26  28  17    19  20  12    19  20  12    19  19  12    16  16   8    20  20  12    39  40  26    44  40  28    63  53  41    50  42  29    76  77  63    78  82  68    64  67  57    69  70  62    67  72  65    60  65  58    53  58  51    54  59  52    45  50  43    51  54  48    42  44  39    36  38  33  
  71  85  85    55  69  69    30  38  30    49  58  54    41  51  50    58  68  67    70  75  70    94  90  80   117 105  92    75  56  42    85  76  61    82  76  62    54  54  42    55  61  51    43  50  42    31  38  28    29  32  21    30  30  19    46  49  40    37  40  30    46  47  39    58  59  51    35  36  28    35  37  26    39  41  29    58  59  48    56  56  44    34  34  22    28  28  16    26  26  14    22  20   8    26  24  12    30  28  16    28  26  14    39  37  24    33  31  18    59  60  44    56  57  41    75  78  63    70  73  60    61  64  55    69  72  65    80  85  74    66  72  61    65  70  63    69  74  68    59  64  58    52  57  51    45  50  43    31  36  29  
  69  83  83    38  51  51    38  50  47    56  67  66    52  64  61    62  72  65    59  61  48    75  66  45    83  65  34    84  61  25    76  63  46    98  91  74    56  55  43    50  55  45    48  55  47    38  44  34    42  44  34    31  31  19    42  45  33    36  39  27    43  45  34    53  55  43    41  44  32    45  47  35    36  38  25    57  58  45    62  62  50    31  31  19    33  33  21    32  32  20    27  25  13    29  27  15    28  26  15    38  36  24    49  47  34    39  37  24    51  52  36    65  66  50    79  81  67    75  78  65    75  76  68    71  73  66    86  91  79    84  90  78    53  57  49    59  63  57    52  56  51    51  55  50    48  53  46    39  43  35  
  74  87  87    53  66  66    51  66  68    53  68  68    59  72  68    63  72  63    76  74  60    92  78  52    94  69  29   110  80  29    84  66  46   121 110  92    66  64  50    57  60  50    64  71  63    44  49  41    53  55  44    42  42  30    53  55  41    48  50  37    35  37  24    53  55  41    52  54  41    42  43  30    34  35  21    60  61  46    66  66  54    32  32  20    30  30  18    37  37  25    33  31  19    29  27  15    29  27  15    38  36  24    41  39  26    47  45  32    46  47  31    57  58  42    61  62  47    68  69  56    75  77  66    67  68  60    74  78  64    84  87  76    54  57  48    61  64  57    61  63  58    50  53  47    54  57  50    47  50  41  
  60  71  71    60  72  72    65  80  83    60  76  75    59  74  69    56  63  58    85  80  74    93  75  57    90  60  27   110  73  27    95  71  47   132 117  95    79  73  57    59  62  51    69  76  68    47  53  46    53  55  44    48  47  35    51  53  39    57  59  45    31  33  20    43  45  31    46  48  34    36  37  22    32  33  17    56  57  41    55  55  43    30  30  17    28  28  16    38  38  26    33  31  19    25  24  12    28  26  14    31  30  17    40  38  25    45  43  30    44  45  29    56  57  41    46  47  31    59  60  46    78  78  67    79  79  70    61  65  51    66  69  58    57  60  50    64  67  60    62  64  59    46  48  41    50  53  46    50  53  44  
  41  53  53    55  66  66    73  89  89    55  70  67    51  64  57    55  61  57    70  64  65    79  60  53    82  52  27    99  64  23    92  63  35   126 106  81   105  96  79    60  63  50    59  66  58    54  61  53    53  55  44    58  56  43    45  47  34    50  52  39    37  39  26    40  41  27    42  43  29    44  45  31    34  35  20    61  62  48    70  70  58    34  34  22    32  32  19    33  33  20    32  30  18    36  34  22    29  27  15    32  30  18    35  35  23    47  47  34    39  40  24    46  47  31    45  46  30    56  57  43    74  74  62    80  80  70    71  73  60    62  64  53    58  59  51    73  74  68    59  60  54    54  55  49    45  46  39    51  52  44  
  37  49  49    44  56  56    76  87  89    58  71  64    51  64  54    41  48  41    57  54  52    75  61  53    79  56  27   104  76  27    96  64  33    85  60  34    96  85  67    59  61  48    58  65  57    57  64  56    35  36  25    59  57  44    54  56  45    53  55  42    49  49  37    46  46  34    41  41  29    46  46  34    33  33  21    56  56  44    74  74  62    34  34  22    28  28  16    31  31  19    32  30  18    35  33  21    27  25  13    28  26  14    40  40  28    53  54  40    40  41  25    54  52  37    54  52  37    60  58  43    85  83  70    70  68  56    84  86  73    69  71  58    56  57  49    64  65  59    54  55  49    55  56  50    49  50  42    56  57  48  
  41  51  49    53  62  60    66  75  74    54  63  56    60  70  59    35  40  33    41  40  35    72  61  46    99  78  43   110  84  31   118  80  46    76  50  19    89  77  55    55  56  46    67  74  68    80  88  77    42  45  33    43  42  32    34  35  25    43  44  34    36  36  27    29  30  21    25  25  16    36  36  25    33  32  21    50  48  37    54  54  42    31  30  19    38  37  25    47  46  34    40  38  25    29  27  15    30  27  15    33  31  18    42  41  29    57  57  43    43  44  26    61  60  43    72  71  54    66  65  49    79  77  64    76  74  63    67  69  57    68  70  58    74  75  67    80  81  75    80  82  76    65  66  60    52  53  46    46  47  40  
  42  47  40    54  57  50    55  62  54    72  75  68    52  55  48    31  34  27    38  38  30    73  64  47   117  94  63   116  81  39   131  89  47    90  61  21    77  62  38    63  61  56    59  67  63    56  65  50    42  48  34    28  28  26    19  19  12    24  25  18    26  28  21    25  28  21    22  23  17    29  29  20    39  37  26    82  78  67    61  59  47    33  31  19    40  38  26    42  40  27    36  34  21    29  27  14    31  29  16    33  31  18    44  42  29    55  53  38    55  57  36    54  56  34    60  62  41    74  75  59    66  64  52    74  71  64    64  66  55    71  73  62    84  85  77    83  85  76    76  79  72    65  68  61    55  57  52    54  56  51  
  33  38  32    53  58  51    57  64  56    75  79  72    43  46  39    37  40  33    48  48  40    75  65  49   122  99  68   112  77  35   123  81  39   101  69  32    68  50  28    68  62  55    46  50  44    39  45  32    38  42  30    18  18  16    17  18  13    19  20  14    35  38  32    37  39  33    25  27  19    34  35  24    49  47  34    88  86  69    68  66  54    33  31  19    29  27  15    30  28  16    33  31  19    32  30  17    31  29  16    28  26  13    38  38  24    51  51  36    55  55  36    47  47  27    51  51  30    68  68  52    65  64  52    75  74  66    68  70  59    72  74  63    77  80  71    77  80  71    76  79  72    67  69  64    53  56  51    53  55  50  
  23  28  23    38  43  36    60  67  59    51  56  49    26  29  21    47  50  43    54  55  47    81  72  55   131 108  77   113  78  36   109  70  29   103  70  37    70  50  30    54  45  35    49  46  37    48  50  39    42  44  35    22  21  19    20  21  18    30  32  28    41  43  40    40  45  39    33  36  27    39  41  29    52  52  37    62  61  43    65  62  53    37  34  25    36  34  22    32  30  19    36  34  22    34  32  20    31  29  17    29  27  14    29  29  16    42  43  28    58  57  39    55  52  33    51  48  29    53  51  36    58  58  46    84  84  74    66  69  58    68  71  62    70  73  63    65  68  61    95  98  91    72  74  69    51  53  48    51  56  50  
  27  34  27    22  27  21    56  63  55    42  47  40    19  22  15    39  42  34    61  62  54    95  88  70   123 100  68   120  87  44   119  82  43    95  64  35    67  44  27    59  47  32    53  48  36    47  47  37    37  38  32    25  25  23    20  21  18    31  33  30    39  44  40    42  47  41    39  45  35    36  38  25    57  58  42    87  86  68    60  60  50    41  41  31    39  39  29    27  27  17    25  25  14    24  24  12    26  26  14    32  32  20    31  33  22    45  46  32    62  59  42    52  48  29    52  49  30    61  58  43    65  65  54    79  81  70    65  68  59    76  79  70    78  81  72    69  72  65    93  97  90    79  84  78    65  70  64    72  77  73  
  38  44  38    28  35  29    49  57  48    41  46  39    29  32  26    33  37  30    57  58  50   103  96  78   110  88  57   118  85  42   128  96  55    77  48  23    45  22   6    64  52  33    57  51  34    47  47  37    43  46  43    29  32  29    18  20  15    32  35  29    47  52  46    42  47  41    42  48  39    36  39  28    46  47  34    74  75  59    43  43  34    33  33  23    34  34  25    22  22  12    22  22  12    22  22  12    23  23  13    31  31  20    29  31  21    35  35  23    50  47  32    49  43  27    64  59  41    76  73  58    72  72  61    70  72  61    62  65  56    69  72  63    66  69  61    70  73  66    71  76  70    83  88  83    66  71  67    58  63  59  
  45  51  47    42  48  44    47  57  48    39  44  37    29  34  27    27  32  25    44  45  37    96  89  71   104  82  51   126  93  50   127 100  60    86  59  36    62  40  25    58  46  24    50  45  24    40  41  31    47  52  49    27  34  30    22  25  17    36  42  33    43  48  41    30  37  29    35  40  33    35  38  28    42  44  32    45  45  32    33  33  25    30  30  22    36  36  28    24  24  15    24  24  14    22  22  12    21  21  11    29  29  19    27  28  20    28  28  16    46  41  27    48  41  25    67  60  44    78  73  59    76  76  64    76  78  67    85  88  79    75  78  69    64  67  60    76  80  73    80  85  79    90  95  89    62  67  63    48  53  49  
  47  57  52    52  62  55    36  46  36    43  45  39    32  35  28    21  25  17    47  47  35    83  68  53    82  57  35   112  85  54   107  82  42    94  69  36   104  82  56    54  37  19    52  41  29    48  45  39    53  56  49    34  43  29    24  24  18    36  37  31    43  46  40    29  33  25    22  27  20    28  31  22    32  33  24    35  35  26    35  36  29    31  32  25    29  29  23    25  25  18    24  25  16    20  20  11    20  20  11    27  27  19    30  29  16    31  32  18    48  44  29    57  49  31    74  62  42    81  70  52    79  76  65    90  93  85    99 106  95    80  86  76    54  57  50    74  76  70    93  95  90    83  88  82    61  67  63    45  53  48  
  56  67  61    70  81  73    41  51  40    41  42  36    37  39  32    28  31  22    43  39  27    80  61  46    72  44  24    82  56  31    90  64  33   108  82  51   115  92  60    56  36  11    47  34  19    57  49  40    71  71  61    36  40  28    29  27  20    19  19  11    30  31  24    39  42  33    33  36  28    28  29  21    21  22  14    19  19  11    30  31  25    27  28  22    23  24  18    25  26  18    28  29  21    22  22  14    18  18  10    24  24  16    30  28  15    28  29  15    43  40  25    63  55  36    79  64  43    82  69  50    78  74  62    83  86  79    82  90  79    81  87  77    62  65  58    67  70  63    81  83  78    76  81  77    68  74  70    56  66  61  
  60  71  64    53  64  56    47  57  47    44  44  39    51  50  45    46  49  38    44  40  25    87  68  50    76  48  26    82  56  29    81  50  32   110  82  58   112  87  56    75  51  21    58  39  17    69  55  42    95  86  76    73  68  57    36  31  20    21  19   7    37  37  26    63  65  54    50  51  43    29  29  21    27  27  19    22  19  14    25  26  20    27  28  22    20  21  15    22  23  14    29  29  22    22  22  14    13  13   4    18  18  10    29  27  14    28  29  15    40  37  22    59  50  32    71  56  35    79  66  47    79  75  60    64  67  59    65  73  62    66  71  64    74  79  72    71  73  68    62  67  61    76  81  77    81  87  83    61  70  65  
  50  61  53    71  81  74    44  54  45    39  40  34    43  43  35    49  52  40    53  50  35    96  78  57    83  55  30   103  78  47   100  68  51    79  49  23    97  70  40   103  78  50    69  46  27    73  55  41    92  77  63    76  64  48    52  46  34    35  31  19    31  29  17    49  49  37    43  43  33    23  23  15    27  24  19    19  14  10    30  31  25    34  35  29    25  26  20    20  21  12    25  25  18    19  19  11    11  11   3    21  21  13    28  26  14    30  30  18    40  36  22    56  48  29    68  53  32    81  68  48    86  83  68    66  69  60    80  87  77    64  70  62    72  78  70    65  70  64    66  73  67    85  92  88    85  92  88    55  63  60  
  50  60  52    84  92  84    50  58  50    36  37  31    34  34  26    46  49  36    58  55  37   101  81  58    91  64  36   108  84  49   121  93  64    99  71  40    82  57  25    86  61  37    71  47  31    67  48  35    71  57  41    76  65  43    51  46  35    39  36  24    20  19   8    31  32  20    36  37  28    23  23  15    26  24  18    26  22  17    26  27  21    35  36  30    28  29  23    21  22  14    24  25  17    19  19  11    16  16   8    26  26  18    27  25  13    27  27  15    39  35  23    62  54  35    76  61  39    80  68  46    84  81  65    77  80  71    78  83  76    69  76  68    76  84  76    62  70  63    67  77  71    82  91  86    81  90  87    61  67  65  
  43  53  45    67  73  66    45  52  44    41  40  35    41  41  33    46  48  35    57  54  35   102  82  58   102  75  46    99  75  38   124 100  66   138 114  77   115  93  54    97  76  44    61  42  20    40  26  11    48  37  24    46  38  23    49  46  38    36  36  27    16  17   9    27  30  20    41  43  35    31  32  24    21  22  14    17  16   9    17  18  12    26  27  21    26  26  21    21  22  14    21  22  15    19  19  11    17  17   9    22  22  14    26  23  11    25  25  13    39  35  23    63  55  36    81  66  43    76  63  41    68  65  48    76  80  69    91  96  89    68  75  67    76  86  78    70  81  73    75  86  80    83  94  88    86  95  92    54  60  58  
  21  31  23    35  42  34    37  44  35    49  48  43    48  48  39    43  45  31    69  67  46   120 100  75   122  93  62    95  69  32   121  98  67   170 148 109   160 142  95   128 111  68    82  66  36    34  22   6    24  16   8    20  15  11    37  36  32    34  33  29    19  21  16    21  24  17    30  35  28    32  35  26    27  28  20    22  23  15    19  20  14    26  27  21    27  28  22    23  24  16    22  23  15    21  21  13    17  17   9    16  16   8    20  18   6    28  28  16    42  38  26    56  48  30    82  67  44    82  70  48    67  64  47    79  82  71    99 104  97    63  70  62    65  75  67    68  80  71    75  88  81    73  84  80    84  93  90    65  71  68  
