P3
50 50
255
  47  53  49    54  60  56    49  55  51    40  50  45    40  53  46    41  54  47    43  56  49    42  55  48    40  53  46    44  57  49    48  57  54    50  56  54    50  56  54    48  54  52    46  52  50    45  51  49    46  50  48    50  55  50    50  56  51    72  83  70   101 114  85   121 138 100   124 142 102   116 130  93    84  94  68    58  66  56    49  55  53    45  51  48    42  48  46    44  51  50    48  54  52    46  52  50    48  54  50    51  57  53    54  60  56    52  58  54    51  57  53    47  53  51    46  52  50    45  51  49    43  49  47    45  52  48    46  55  50    47  53  49    45  51  47    43  49  45    43  49  45    45  51  47    45  51  47    44  50  46  
  52  58  54    56  62  58    55  61  57    51  64  58    49  64  57    48  63  56    50  65  58    52  66  59    51  64  57    52  65  58    65  74  71    56  62  60    51  57  55    51  57  55    54  61  59    52  58  56    48  52  50    49  53  51    50  56  53    71  78  66   103 117  86   126 144 101   126 145  99   118 132  90    83  94  65    57  65  55    47  53  51    43  49  47    44  50  48    48  54  53    47  53  49    48  54  50    51  57  53    51  57  53    53  59  55    51  57  53    52  59  53    47  53  51    45  51  48    43  49  47    37  46  43    38  47  42    40  49  44    43  50  45    44  50  46    44  50  46    45  51  47    45  51  47    44  49  45    42  47  43  
  71  77  73    70  76  72    75  81  77    72  81  76    66  77  71    64  75  69    67  76  71    69  78  73    71  78  74    72  78  74    75  83  81    64  70  68    58  64  62    58  64  62    61  67  64    58  64  62    54  58  56    53  58  55    53  58  55    70  78  64   108 122  88   126 144  96   122 142  87   115 130  83    89  99  70    58  66  56    44  50  49    43  49  48    43  49  47    47  52  52    53  59  54    51  57  53    52  58  54    51  57  53    53  59  55    49  56  49    51  58  52    49  55  53    44  52  50    41  50  47    38  47  44    38  47  42    38  47  42    36  45  40    36  45  40    38  47  42    40  46  42    40  46  42    40  45  41    40  45  41  
  76  85  80    79  88  83    82  91  86    84  90  86    82  87  83    82  87  83    86  88  85    87  89  86    90  91  89    94  94  92    85  94  91    79  85  83    74  80  78    65  71  69    59  65  63    55  61  59    55  59  57    61  66  63    65  70  67    81  88  74   111 126  89   123 141  89   123 143  84   111 128  81    91 104  73    60  71  58    42  51  49    46  55  53    44  53  50    47  55  54    54  60  56    48  54  50    49  55  51    52  58  54    58  65  59    51  58  51    49  56  51    47  56  53    43  52  50    41  50  47    39  48  45    39  48  43    38  48  43    37  46  41    37  46  41    38  47  42    39  45  40    39  45  41    42  47  43    45  50  46  
  78  83  76    73  78  71    76  81  75    82  87  80    75  80  74    78  83  76    80  85  78    80  85  78    83  88  81    78  83  76    82  87  83    77  83  79    72  78  74    68  74  70    64  70  66    62  68  64    61  69  66    62  66  69    65  73  72    88 100  84   107 125  87   132 150 100   127 145  91   107 123  82    86 100  71    60  70  54    57  63  58    52  56  58    53  55  57    48  50  49    55  61  59    50  56  54    54  60  58    56  62  60    55  61  57    56  62  58    56  62  58    53  59  55    51  57  53    45  51  48    45  51  47    47  53  49    43  49  45    44  50  46    42  48  44    38  44  40    38  44  40    39  45  41    40  46  42    44  50  46  
  75  80  73    80  85  80    80  85  79    83  88  82    80  85  78    79  84  78    83  88  82    85  90  84    82  87  81    73  78  72    83  88  84    74  80  76    75  81  77    75  81  77    69  75  70    65  71  67    64  72  68    59  64  66    66  74  73    86  99  83   108 125  90   129 146  99   123 140  90   118 133  94    98 111  82    76  87  70    74  81  76    67  72  73    63  66  65    59  61  60    57  63  61    58  64  62    59  65  63    52  58  56    48  54  50    58  64  60    64  70  66    59  65  61    57  63  59    51  58  53    49  55  51    48  54  50    44  50  46    45  51  47    43  49  45    42  48  44    43  49  45    42  48  44    38  44  40    39  44  41  
  75  80  75    82  87  81    82  87  81    82  87  81    82  87  81    80  85  79    77  82  76    77  82  76    80  85  79    83  88  82    78  83  79    70  77  73    73  79  75    75  81  77    69  75  70    64  70  66    64  71  68    63  68  68    69  77  75    82  95  80   104 121  88   113 131  88   104 120  76   101 115  80    76  89  63    64  75  60    67  74  69    65  71  71    61  65  65    64  68  65    64  70  69    60  67  65    60  66  64    59  65  63    61  67  63    62  68  64    58  64  60    54  60  56    54  60  55    52  58  54    52  58  54    53  59  55    49  55  51    47  53  49    44  50  46    45  51  47    49  55  50    49  55  51    44  50  46    43  49  45  
  79  84  78    83  88  82    86  91  85    82  87  82    85  90  86    89  94  90    86  91  87    82  87  83    80  85  82    85  90  86    81  85  84    80  86  84    79  85  83    76  82  81    73  79  77    68  74  72    63  71  68    58  64  63    63  72  70    83  97  83   104 121  90   113 131  90   103 120  79    93 107  74    65  77  52    56  67  51    54  63  57    59  65  63    56  62  58    61  68  61    56  65  62    55  63  60    57  63  61    56  62  60    58  64  60    59  64  60    55  61  57    54  60  56    53  59  55    52  58  54    52  58  54    51  57  53    48  54  50    50  56  52    45  51  48    45  51  47    46  52  48    50  56  52    47  53  49    47  53  49  
  82  87  82    87  92  88    86  91  87    88  93  89    92  97  93    91  96  92    90  95  90    88  93  89    82  87  83    81  86  82    83  87  86    85  90  89    82  88  86    75  81  79    70  76  74    67  74  72    65  73  70    62  70  67    65  76  71    96 110  96   116 132 102   128 145 105   120 136  96   109 122  90    83  96  70    72  83  67    60  69  63    59  68  66    53  62  58    54  63  56    63  72  69    59  68  65    58  66  63    56  62  61    60  65  62    64  69  65    60  66  62    55  61  57    54  60  55    52  58  54    53  59  55    51  57  53    48  54  50    51  57  53    46  52  48    44  51  47    43  49  45    45  51  47    43  49  45    43  49  45  
  92  98  94    89  95  91    89  95  91    93  98  96    94  98  97    93  97  96    90  94  93    89  93  92    89  93  92    90  94  93    94  99  98    90  97  95    90  96  94    85  91  89    77  83  80    73  79  77    76  84  81    73  80  78    77  88  83   112 125 110   124 143 110   139 157 114   130 148 104   114 127  91    93 103  75    81  92  76    69  79  73    67  77  76    61  71  70    59  70  66    61  71  67    58  67  64    58  66  63    57  63  61    59  64  60    59  64  60    59  61  58    56  61  57    54  59  55    52  57  53    53  58  54    53  58  54    51  56  52    52  57  55    45  52  50    47  54  52    45  51  49    47  53  51    45  51  48    43  49  47  
  95 101  97    88  94  90    92  98  95    91  96  94    89  93  92    95  99  98    95  99  98    92  96  95    94  98  97    94  98  97    88  93  92    84  90  88    84  90  88    82  88  86    76  83  80    73  79  77    72  80  77    68  76  73    82  93  87   119 133 116   129 149 113   147 166 120   138 157 110   116 129  91    92 103  72    79  91  73    75  85  79    74  85  84    69  81  81    71  83  81    58  69  65    63  74  70    71  78  76    66  72  70    58  63  59    63  65  62    66  69  66    62  67  63    57  62  58    54  59  55    53  58  54    52  57  53    50  55  51    53  59  56    48  55  53    52  58  56    49  55  53    52  58  56    49  55  53    49  55  53  
  83  89  85    79  85  82    76  82  80    86  90  89    81  85  84    80  84  83    81  85  84    83  87  86    89  93  92    85  89  88    81  85  84    80  85  84    78  84  82    78  84  82    81  87  85    75  81  79    66  74  71    63  71  68    85  96  89   120 135 117   131 151 113   150 170 122   140 159 109   124 138  96    97 108  76    79  90  71    75  85  78    69  80  80    65  76  77    67  80  80    64  75  71    58  69  65    62  70  67    64  70  68    62  67  63    65  67  64    65  68  65    62  67  63    58  63  59    56  61  57    58  63  59    59  64  60    60  65  61    60  66  63    53  59  57    55  61  59    49  55  53    50  56  54    48  54  52    49  55  53  
  71  78  71    72  79  72    73  80  73    76  81  76    79  84  81    78  83  79    78  83  79    82  87  83    80  85  81    73  78  75    70  76  72    75  81  77    76  82  78    68  73  70    66  72  68    70  76  72    65  70  68    57  62  62    77  88  80   117 132 112   130 147 112   143 162 113   143 162 103   126 141  86    97 110  68    73  82  62    63  69  62    63  69  63    62  67  65    61  65  66    56  62  58    59  65  60    58  64  60    60  66  62    61  66  62    58  63  59    60  66  61    59  65  61    52  58  54    54  59  55    55  61  57    61  67  63    57  63  59    60  64  60    58  60  57    54  59  55    51  56  52    51  56  52    52  57  53    50  55  51  
  72  79  72    76  82  76    78  83  77    77  82  77    79  84  80    83  88  84    78  83  78    73  78  74    75  80  76    73  78  74    66  73  66    65  71  67    71  77  73    69  75  71    64  70  66    65  71  67    64  70  67    58  63  62    74  83  76   100 115  97   120 137 104   140 159 112   135 153  98   112 129  76    85  99  62    69  81  62    61  68  61    57  63  59    56  62  60    59  66  65    59  65  63    59  65  63    57  63  61    59  65  63    58  62  61    51  55  54    50  54  53    55  61  59    55  61  59    56  62  60    54  60  58    60  66  64    57  63  61    58  63  62    58  62  61    59  63  62    59  64  62    57  63  61    57  63  61    54  60  58  
  62  67  61    66  71  65    65  70  64    66  71  65    72  77  70    83  88  82    78  83  77    70  75  69    72  77  71    68  73  68    69  74  68    66  71  65    69  74  68    68  74  67    62  68  64    60  66  62    61  66  63    60  65  63    73  82  74    84  96  79   116 132 102   133 151 108   130 148  97   118 135  87    89 105  70    70  81  66    65  74  69    63  72  67    61  70  65    61  70  67    58  65  63    65  71  68    65  71  69    61  66  65    56  60  59    55  59  58    57  62  60    60  66  64    62  68  66    67  73  71    64  70  68    63  69  67    61  67  65    60  66  64    60  66  64    62  68  66    63  70  68    63  72  69    63  72  69    60  69  66  
  51  56  50    56  60  54    56  58  53    60  63  57    66  69  62    74  77  70    75  78  71    74  77  70    75  78  71    72  75  68    64  67  60    64  68  61    62  67  61    62  67  60    65  72  65    66  72  66    62  67  63    55  61  56    68  76  66    70  81  65   111 125  98   117 134  94   123 143  95   130 148 102   108 123  93    78  90  77    71  82  76    70  80  74    69  79  71    66  75  70    63  69  69    68  75  75    69  74  75    64  68  69    59  63  64    63  68  68    68  73  73    66  72  72    62  68  68    73  79  79    74  80  80    63  69  69    62  68  68    59  67  67    57  66  65    58  67  66    60  69  68    62  71  70    64  73  72    63  73  72  
  45  48  41    50  53  46    53  56  49    56  58  52    60  61  55    57  58  52    57  58  52    64  65  59    67  68  62    70  72  65    65  66  58    67  70  60    64  67  59    59  63  56    59  64  58    59  66  59    58  64  58    58  63  57    74  81  70    76  85  67   112 125  99   118 135  96   127 147 100   127 146 101   115 130 100    82  94  80    69  80  74    63  73  66    64  74  66    64  73  68    69  76  74    66  72  70    64  68  67    63  67  66    62  66  65    61  65  64    60  64  63    61  67  65    56  62  60    66  72  70    68  74  72    56  62  60    58  64  62    56  64  63    53  62  61    54  63  62    56  65  64    58  67  66    60  70  69    60  70  69  
  38  41  34    43  44  38    49  50  44    50  52  44    55  56  48    51  52  44    50  51  43    54  55  47    53  54  46    60  61  53    53  55  44    57  58  48    60  62  53    58  63  55    55  60  53    55  62  55    58  64  57    52  58  49    72  78  65    75  82  62   104 116  85   121 138  97   122 143  93   116 135  87   107 121  87    74  85  69    61  70  63    59  65  59    57  64  56    55  62  55    61  66  62    59  64  60    60  65  61    58  63  60    57  62  58    54  58  54    51  55  51    52  58  54    53  59  55    55  61  57    56  62  58    52  58  54    55  61  57    54  60  57    52  58  56    55  61  59    56  63  61    56  65  62    58  67  64    56  65  62  
  34  35  27    37  38  30    43  44  36    45  45  36    50  50  40    51  51  41    52  52  42    53  53  43    49  49  39    51  51  41    47  47  35    50  50  38    50  52  42    50  53  44    44  48  41    42  49  42    46  53  45    45  51  40    71  76  62    71  79  56   103 115  82   125 144  99   116 140  85   109 127  75    91 103  66    59  68  50    46  53  46    50  55  49    47  52  45    45  50  44    45  50  44    48  53  47    53  58  52    49  54  48    46  51  45    50  52  47    47  50  45    42  49  42    44  51  44    42  49  42    47  54  47    46  53  46    48  55  48    47  52  47    46  51  47    47  52  48    49  54  50    50  56  52    52  58  54    51  57  53  
  27  28  20    30  31  23    35  35  27    36  36  26    34  34  24    36  36  26    40  40  30    42  42  32    41  41  31    38  38  28    33  33  21    38  39  27    34  36  25    33  35  26    35  39  32    34  41  34    34  40  32    34  40  29    63  67  53    63  68  46   101 113  78   118 137  89   109 134  75   101 117  64    74  85  46    51  58  38    31  36  27    33  37  30    33  36  29    42  44  39    39  44  38    37  42  36    40  45  38    38  43  36    41  44  37    42  44  38    39  43  36    33  40  32    28  35  27    29  36  28    39  45  37    35  42  34    34  41  33    38  41  35    36  38  33    34  39  33    35  40  34    37  42  36    42  47  41    43  48  42  
  23  21  16    28  27  22    28  27  22    23  22  17    27  25  20    31  31  23    32  32  24    32  32  23    31  31  21    29  29  19    26  27  19    30  31  23    30  31  23    28  29  21    30  31  23    29  30  22    27  28  21    32  33  24    53  57  39    63  71  43    99 111  73   108 121  76   102 112  66    82  89  48    70  74  46    46  47  34    33  35  28    31  34  27    25  28  21    27  29  26    28  31  24    28  31  24    30  33  26    32  35  28    34  37  30    34  37  30    31  34  27    28  31  24    27  30  23    25  28  21    27  30  23    30  33  26    29  32  25    29  31  25    29  30  24    32  33  27    33  34  28    33  34  28    33  34  28    31  32  26  
  21  20  15    24  23  18    25  24  19    23  22  17    25  24  19    26  26  18    24  24  16    26  26  17    28  28  18    28  28  18    23  24  16    25  26  18    26  27  19    24  25  17    25  26  18    25  26  18    22  23  16    26  26  18    55  60  45    68  78  49    96 110  73   110 124  81    94 107  61    69  77  37    51  56  27    32  34  22    24  26  20    22  25  18    20  23  16    22  24  20    21  22  16    21  22  16    24  25  19    27  28  22    30  31  25    30  31  25    29  30  24    26  29  22    25  28  21    24  27  20    24  27  20    26  29  22    26  29  22    25  27  21    25  26  20    26  27  21    26  27  21    25  26  20    25  26  20    23  24  18  
  21  20  15    20  19  14    21  20  15    22  21  14    22  22  14    22  22  14    20  20  12    22  22  14    24  24  15    27  27  17    22  23  15    21  22  14    22  23  15    21  22  14    20  21  13    20  21  13    23  23  17    28  28  22    50  55  40    51  63  36    70  86  50    99 116  73    93 110  66    81  90  50    52  56  28    23  25  13    18  19  13    19  21  13    20  23  15    18  20  15    19  20  14    19  20  14    20  21  15    23  24  18    26  27  21    27  28  22    26  27  21    24  27  20    23  26  19    21  24  17    20  23  16    21  24  17    22  25  18    23  25  19    22  23  17    22  23  17    22  23  17    20  21  15    20  22  15    19  20  14  
  20  20  12    20  20  12    20  20  12    20  20  12    22  22  14    23  23  15    23  23  15    23  23  15    24  24  15    24  24  16    24  24  17    21  22  14    22  23  15    22  23  15    19  20  12    20  21  13    23  22  16    25  23  18    44  49  36    50  63  38    73  90  56   103 124  82   105 126  82   105 115  75    68  72  46    27  29  17    18  19  13    20  21  14    19  20  14    19  20  15    21  22  16    20  21  15    20  21  15    20  22  15    22  23  17    23  24  18    23  24  18    23  24  18    23  24  18    20  21  15    18  19  13    19  20  14    21  22  16    21  22  16    19  20  14    20  21  15    19  20  14    19  20  14    20  21  15    20  21  15  
  20  20  12    23  23  15    21  21  13    20  20  12    22  22  14    24  24  16    25  25  17    25  25  17    23  23  15    24  24  16    24  26  18    22  23  15    22  23  15    22  23  15    20  21  13    21  22  14    23  22  16    25  24  18    42  47  33    53  66  41    91 108  74   120 141  99   117 138  94   117 128  89    81  85  59    33  34  22    20  21  15    19  20  13    14  15   7    18  19  14    20  21  15    19  20  14    19  20  14    18  19  13    18  19  13    18  19  13    20  21  15    22  23  17    22  23  17    20  21  15    18  19  13    18  20  13    20  21  15    18  20  13    16  17  11    17  18  12    17  18  12    17  18  12    18  19  13    17  18  12  
  21  21  13    24  24  16    22  22  14    21  21  12    22  22  12    22  22  14    23  23  15    23  23  15    23  23  15    25  25  17    24  25  17    22  23  15    22  23  15    22  23  15    21  22  14    21  22  14    24  24  17    34  34  26    39  45  29    44  57  30    98 114  78   135 151 111   130 147 104   128 137  99    87  91  65    30  32  20    18  19  13    22  22  15    17  17   9    19  18  12    18  19  11    19  20  12    19  20  12    18  19  11    18  19  11    19  20  12    21  21  13    22  23  15    22  23  15    19  20  12    18  19  11    19  20  12    20  21  13    20  21  13    18  19  11    18  19  11    17  18  10    17  18  10    18  19  10    17  18  10  
  22  22  14    23  23  15    23  23  15    23  23  13    22  22  12    21  21  11    22  22  14    21  21  13    22  21  15    26  24  19    22  23  15    22  23  15    21  22  14    22  23  15    23  24  16    22  23  15    22  23  14    33  34  23    42  48  29    56  67  38   106 120  83   131 146 104   123 136  92   115 123  85    73  78  53    28  30  19    20  21  15    25  24  18    23  23  15    20  19  14    19  20  12    20  21  13    22  23  15    21  22  14    21  22  14    22  23  15    23  24  15    22  23  15    21  21  13    18  19  11    19  20  12    20  21  13    20  21  13    20  21  13    20  21  13    21  22  14    20  21  13    20  21  13    20  22  14    20  21  13  
  23  23  14    20  20  12    22  22  14    23  23  14    22  22  12    22  22  12    23  23  15    22  22  14    22  21  15    24  24  19    22  23  15    23  24  15    22  23  15    22  23  15    24  26  18    24  24  17    21  21  13    33  34  22    49  53  34    73  82  52   104 116  78   105 117  74    90 100  57    75  82  45    46  50  26    30  32  21    27  27  22    20  20  12    21  21  12    22  21  16    20  20  12    22  22  14    23  23  15    23  23  15    22  22  14    23  23  15    23  24  15    22  23  15    20  21  12    18  19  11    19  20  12    21  22  14    20  21  13    19  20  12    18  19  11    20  21  13    22  23  15    22  23  15    23  24  16    22  23  15  
  23  23  15    22  22  14    24  24  16    20  21  13    20  21  13    21  22  14    21  22  15    25  26  18    26  27  19    24  25  17    22  23  17    25  26  20    26  27  21    25  27  20    23  24  18    20  21  15    24  23  16    49  46  31    67  70  43    90 100  65   108 117  86    94  99  71    81  83  54    55  56  39    33  33  23    25  25  15    23  23  13    23  23  13    22  22  13    18  18  10    22  25  14    24  27  16    21  24  13    18  21  10    21  24  13    22  24  14    19  22  12    24  25  19    23  24  18    21  22  16    19  20  14    18  19  13    20  21  15    23  24  17    24  25  17    22  23  15    20  22  14    20  21  13    20  20  13    20  21  13  
  21  21  13    19  19  11    21  21  13    20  21  13    22  23  15    22  23  15    21  22  14    22  23  15    22  23  15    21  22  14    22  23  17    23  24  18    22  23  17    24  25  19    24  25  19    21  22  16    26  25  19    59  59  44    81  89  58   103 115  76   113 124  89    83  90  63    75  78  55    53  54  39    31  31  21    25  25  15    23  23  13    24  24  14    25  25  17    24  24  16    21  23  12    23  25  14    21  23  12    20  22  11    23  24  14    23  25  14    22  23  13    21  22  14    21  22  14    20  21  13    19  20  12    19  20  12    21  22  14    22  23  15    22  23  15    21  22  14    20  21  13    20  21  13    20  21  13    20  21  13  
  21  21  13    20  20  12    21  21  13    22  22  14    24  25  17    24  25  17    21  22  14    20  21  13    20  22  14    22  23  15    23  24  18    21  22  16    20  21  15    23  24  18    26  27  21    23  24  18    28  30  23    69  75  56    94 107  69   116 134  83   130 147 103    91 103  72    71  77  55    45  47  34    26  26  16    23  23  13    21  21  11    21  21  11    20  20  12    19  19  11    21  23  12    21  23  12    21  23  12    22  24  13    22  24  13    23  25  14    22  24  14    21  22  14    21  22  14    21  22  14    20  21  13    20  21  13    22  23  15    22  23  15    20  21  13    19  20  12    20  21  13    21  22  14    20  21  13    19  20  12  
  22  23  15    23  24  16    24  25  17    22  23  16    24  25  17    25  26  18    23  24  16    22  23  15    23  24  16    26  27  19    24  25  19    23  24  18    23  24  18    25  26  20    26  27  21    24  25  19    31  33  24    75  84  57   110 127  77   129 153  88   136 157  99    96 111  72    67  76  52    39  42  28    25  25  15    27  27  17    26  26  16    23  23  13    21  21  12    19  19  11    22  24  13    21  23  12    22  24  13    22  24  13    21  23  12    21  23  12    22  24  14    24  25  17    23  24  16    22  23  15    21  22  14    21  22  14    21  22  14    22  23  15    20  21  13    19  20  12    20  21  13    21  22  14    20  21  13    18  19  11  
  23  24  16    24  25  17    25  26  18    23  24  16    23  24  16    25  26  18    24  25  17    23  24  16    24  25  17    28  29  21    22  23  17    25  26  20    26  27  21    26  27  21    25  26  20    24  25  19    37  40  29    84  96  62   111 131  73   133 158  85   134 156  90    99 115  69    70  78  49    37  38  24    22  22  12    25  25  15    25  25  15    23  23  13    23  23  14    24  24  16    22  24  13    22  24  13    23  25  14    23  25  14    22  24  13    22  24  13    23  25  14    24  26  15    22  24  13    21  23  12    21  23  12    21  23  12    21  23  12    22  24  15    22  23  15    20  21  13    20  21  13    21  22  14    20  21  12    18  19  11  
  23  24  16    23  24  16    23  24  16    23  24  15    23  24  16    24  25  17    24  25  17    23  24  16    23  24  15    25  26  18    20  21  15    26  26  21    27  28  22    25  26  20    23  24  18    22  23  17    39  42  30    78  88  55    92 109  52   122 143  74   122 142  80    97 109  65    78  83  52    41  42  27    23  23  13    23  23  13    21  21  11    20  20  10    22  22  13    24  24  17    21  23  12    21  23  12    22  24  13    23  25  14    24  26  15    25  27  16    24  26  15    22  24  13    20  22  11    20  22  11    21  23  12    21  23  12    21  23  12    22  24  15    23  24  16    22  23  15    22  23  15    21  22  14    20  21  13    20  21  13  
  22  23  15    23  24  16    22  23  15    23  24  16    23  24  16    24  25  17    25  26  18    24  25  17    23  24  16    24  25  17    22  23  17    25  26  20    25  26  20    25  25  20    24  25  19    24  25  19    33  34  25    55  60  35    78  89  45   109 124  70    98 111  62    73  79  44    68  68  43    45  44  30    28  28  18    28  28  18    26  26  16    24  24  14    24  24  15    25  25  17    21  23  12    23  25  14    22  24  13    22  24  13    24  27  16    27  29  18    25  27  16    24  26  15    22  24  13    22  24  13    22  24  13    22  24  13    22  24  13    22  24  13    24  26  15    24  26  15    22  24  13    21  23  12    21  23  12    24  26  15  
  24  25  17    25  26  18    24  25  17    24  25  17    23  24  16    24  25  17    26  27  19    27  28  20    25  26  18    26  27  19    26  27  21    25  26  20    24  25  19    25  26  20    27  28  22    27  28  22    33  34  27    54  55  40    81  88  55   107 117  75    91 100  64    61  63  38    47  44  24    34  33  20    23  23  13    26  26  16    28  28  18    26  26  16    25  25  16    23  23  15    24  24  14    27  27  17    24  24  14    22  22  12    25  25  15    27  27  17    26  26  15    29  31  18    26  28  16    25  27  14    24  26  13    23  25  12    22  24  11    22  24  12    24  26  15    25  27  16    22  24  13    21  23  12    23  25  14    26  28  17  
  28  29  21    29  30  22    30  30  22    28  28  21    28  29  21    29  30  22    31  33  22    33  35  24    30  32  21    26  28  17    28  29  21    26  27  19    25  26  18    25  27  19    27  28  20    28  29  21    31  33  24    57  65  45    90 106  70   117 133  87   114 122  81    70  71  44    42  41  28    29  29  21    28  28  20    28  28  20    28  28  21    30  30  22    28  28  21    30  30  22    29  29  21    27  27  19    27  27  19    28  28  20    27  27  19    28  28  20    30  30  22    30  30  22    28  28  21    27  27  19    29  29  21    27  27  19    25  25  17    23  25  15    22  24  13    23  25  14    25  27  16    27  29  18    26  27  16    24  26  15  
  28  29  21    28  29  21    29  29  21    30  31  23    30  31  23    30  31  23    30  31  23    32  34  23    32  34  23    31  33  22    30  31  23    29  30  22    29  30  22    30  30  23    30  31  23    29  30  22    32  34  24    64  71  52   110 125  91   123 139  95   124 131  92    83  83  57    37  36  24    27  27  19    27  27  19    27  27  19    27  27  20    29  29  21    27  27  19    28  28  20    31  31  23    29  29  20    28  28  20    28  28  20    27  27  19    27  27  19    28  28  20    28  28  20    26  26  18    25  25  17    26  26  18    24  24  16    23  23  15    24  25  15    23  25  14    24  26  15    25  27  16    26  28  17    26  28  17    24  26  15  
  32  33  25    32  33  25    33  33  25    32  33  25    32  33  25    31  32  24    31  32  24    33  35  24    34  35  25    34  36  25    32  33  25    32  33  25    33  34  26    33  34  26    32  33  25    30  31  23    36  37  27    79  85  66   105 119  87   107 122  81   112 118  81    71  71  48    40  39  28    30  30  22    32  32  24    31  31  23    31  31  22    32  32  24    30  30  21    31  31  23    30  30  22    29  29  20    28  28  20    28  28  20    27  27  19    28  28  20    28  28  20    27  27  19    25  25  17    23  23  15    24  24  16    22  22  14    21  21  13    23  24  14    24  26  15    23  25  14    24  26  15    25  27  16    24  26  15    24  26  15  
  30  31  23    30  31  23    31  31  23    30  31  23    31  32  24    31  32  24    33  34  26    34  35  26    34  36  25    33  35  24    34  35  27    34  35  27    34  35  27    34  35  27    32  33  25    31  32  24    36  37  27    72  76  58    86  98  68    87  99  64    92  97  66    54  52  34    33  32  23    28  29  21    30  31  23    29  30  22    28  30  21    29  30  22    26  27  20    28  29  21    27  27  19    26  26  18    27  27  19    28  28  20    28  28  20    29  29  21    29  29  21    27  28  20    25  26  18    22  23  15    24  25  17    22  23  15    22  23  15    23  24  14    23  25  14    23  25  14    22  24  13    23  25  14    23  25  14    22  24  13  
  29  30  22    29  30  22    30  31  23    30  30  24    29  30  22    30  31  23    31  32  24    31  32  24    32  33  25    32  34  23    33  35  24    33  35  24    33  35  24    31  33  22    30  32  21    30  32  21    35  36  24    59  61  44    69  78  53    71  82  50    73  77  51    44  43  27    27  28  19    28  29  21    30  31  23    29  30  22    28  29  21    29  30  22    26  27  20    27  28  20    25  25  17    26  26  18    26  26  18    26  26  18    27  27  19    28  28  20    27  28  20    27  28  20    25  26  18    22  23  15    24  25  17    22  23  15    22  23  15    23  24  14    23  25  14    23  25  14    23  25  14    22  24  13    22  24  13    22  24  13  
  29  30  22    29  30  22    30  30  22    29  30  23    28  29  23    28  29  21    26  27  19    27  28  20    29  30  22    31  32  24    30  32  21    30  32  21    30  32  21    28  30  19    28  30  19    28  30  19    33  33  21    53  53  36    54  61  38    56  64  40    58  60  40    38  37  23    31  32  24    27  29  21    30  31  23    29  30  22    28  30  21    30  31  23    27  28  21    28  29  21    27  27  19    27  27  19    26  26  18    24  24  16    25  25  17    25  25  17    24  24  16    24  25  17    22  23  16    21  22  14    23  24  16    22  23  15    22  23  15    23  24  14    24  26  15    24  26  15    24  25  15    23  25  14    22  24  13    23  25  14  
  25  26  18    24  25  17    24  25  17    27  27  21    27  28  22    27  28  22    25  25  18    25  26  18    26  27  19    29  30  22    26  28  17    27  29  18    28  30  19    27  29  18    26  28  17    26  28  17    30  29  17    44  42  26    48  54  32    50  58  35    54  55  39    36  35  24    25  26  19    22  24  16    25  26  18    24  25  17    25  26  17    26  27  19    23  25  16    25  26  18    27  27  19    29  29  20    27  27  19    24  24  16    25  25  17    24  24  16    23  23  15    23  24  16    21  22  15    21  22  14    24  25  17    22  23  15    22  23  15    21  23  13    22  24  13    23  25  14    23  25  14    22  24  13    21  23  12    21  23  12  
  26  27  19    25  25  18    24  25  17    25  25  19    26  27  21    27  28  22    27  28  20    26  27  19    25  26  18    25  26  18    23  25  14    26  27  16    28  30  19    27  29  18    26  28  17    25  27  16    29  27  16    43  39  24    44  50  30    46  54  33    54  55  41    33  31  23    23  23  18    24  25  18    26  27  19    25  26  18    26  26  18    27  28  20    25  26  17    26  27  19    27  27  19    28  28  20    27  27  19    25  25  17    26  26  18    26  26  18    23  23  15    22  23  15    21  22  14    22  23  15    25  26  18    23  24  16    23  24  16    19  20  10    19  21  10    21  23  12    20  22  11    19  21  10    18  20   9    18  20   9  
  23  24  18    25  26  20    26  27  21    23  24  16    27  28  20    25  26  18    24  25  17    26  27  18    21  23  12    25  27  16    27  29  18    25  27  16    23  25  14    22  24  13    24  26  15    25  27  16    25  27  15    37  40  23    45  49  29    44  47  26    46  48  30    29  32  16    21  23  12    21  23  13    24  26  14    24  26  15    23  25  14    23  25  14    24  25  15    24  26  15    25  25  15    26  26  16    25  25  15    23  23  13    25  25  15    25  25  15    23  24  13    23  25  14    21  23  12    21  23  12    19  21  10    21  22  11    22  24  13    22  24  13    21  23  12    21  23  12    22  23  15    19  20  12    16  16   8    15  16   8  
  22  23  17    23  25  18    24  25  19    20  21  14    22  24  15    23  24  16    23  24  16    25  26  18    23  25  15    27  29  17    23  25  14    23  25  14    22  24  13    22  24  13    24  26  15    24  26  15    24  26  14    39  41  26    47  50  30    46  49  28    46  49  29    29  32  16    21  23  12    21  22  12    22  24  13    23  25  14    20  23  12    21  23  12    22  24  13    22  24  13    20  22  11    22  24  13    23  25  14    22  24  13    22  24  13    21  23  12    18  20   9    19  21  10    19  20  10    20  22  11    19  21  10    21  22  11    22  24  13    22  24  13    21  23  12    21  22  14    22  23  15    20  21  13    16  17  10    17  18  10  
  21  22  14    22  23  15    22  23  15    21  22  14    22  23  15    22  23  15    22  23  15    22  23  15    21  22  14    22  24  13    19  20  12    21  22  14    21  22  14    22  23  15    23  24  16    22  23  15    22  23  13    35  38  22    43  46  26    44  48  25    45  48  28    27  30  14    19  21  11    19  21  11    20  22  11    20  22  11    19  20  10    19  21  10    19  21  10    19  21  10    17  19   8    19  21  10    20  22  11    19  21  10    19  21  10    18  20   9    16  18   8    17  18  10    18  19  11    21  22  14    20  21  13    21  22  14    21  22  14    19  21  11    18  19  11    17  18  10    18  19  10    17  18  10    15  16   8    15  16   8  
  21  23  12    22  24  13    21  23  12    21  23  15    21  22  16    22  23  15    21  22  14    20  21  13    20  22  14    19  20  12    19  20  12    20  21  13    20  21  13    20  22  14    22  23  15    21  22  14    19  20  10    31  32  18    42  43  24    46  48  27    48  50  28    28  29  15    21  20  13    19  19  12    18  19  11    18  19  11    18  19  10    17  18  10    17  18  10    17  18  10    17  18  10    17  18  10    16  17   9    15  16   8    16  17   9    16  17   9    17  18  10    20  21  13    21  22  14    24  25  17    22  23  15    21  22  14    20  21  13    16  17  10    16  17   9    15  16   8    15  16   8    15  16   8    15  15   9    15  16  10  
  20  21  13    21  22  14    20  21  13    19  20  13    18  19  13    19  20  14    20  21  13    21  22  14    22  23  15    21  22  14    21  22  14    20  22  14    19  20  12    18  19  11    20  21  13    20  21  13    19  20  10    32  33  19    44  45  26    51  53  29    53  55  33    30  31  15    21  20  13    18  19  13    17  18  12    17  18  12    17  18  12    17  18  12    16  17  11    16  17  11    16  17  11    15  17  10    15  16  10    15  16  10    15  16  10    15  16  10    17  18  11    20  21  13    21  22  14    24  25  17    21  22  14    20  20  13    17  18  10    17  18  10    18  19  11    17  18  10    16  17   9    16  17  10    17  18  12    17  18  12  
  18  19  11    19  20  12    18  19  11    17  18  12    18  19  13    17  18  12    18  19  13    19  20  12    19  20  12    19  20  12    21  22  14    20  21  13    18  19  11    16  17   9    18  19  11    18  19  11    18  19  11    34  34  22    44  46  26    52  55  28    52  54  31    26  27  11    17  17  10    17  18  12    16  17  11    15  16  10    16  17  11    16  17  11    15  16  10    15  16  10    14  15   9    14  15   9    16  17  11    17  18  12    15  16  10    14  15   9    15  16   9    16  17   9    18  19  11    21  22  14    19  20  12    19  20  12    17  18  10    16  17   9    17  18  10    16  17   9    15  15   8    15  16  10    16  17  11    16  17  11  
