P3
50 50
255
  43  42  22    48  47  25    53  53  28    64  65  35    65  66  34    64  65  33    58  60  28    69  69  36    73  73  38    75  75  37    75  77  45    56  60  32    34  44  22    23  36  18    18  30  13    20  30  10    30  37  15    40  45  22    48  51  29    53  52  32    41  39  20    26  25  10    18  19   6    15  15   8    18  17  12    21  21  10    32  33  20    40  41  27    33  35  21    18  20   9    15  15   7    16  18   9    32  35  14    66  57  17    52  49  13    22  29  16    21  21  11    24  25  10    30  31  15    36  37  13    46  48  15    49  51  16    44  42  16    37  37  13    44  43  15    68  66  14   101  97  16   114 109  18   107 102  11   112 108  12  
  36  38  16    43  43  19    52  52  27    59  60  30    60  61  30    57  59  27    57  58  27    67  67  36    71  71  36    69  69  33    68  69  38    56  62  33    36  46  24    25  38  19    25  36  19    25  34  14    27  35  14    39  46  25    48  52  32    47  48  32    41  39  26    28  28  19    20  21  14    14  14   9    16  14  10    18  18  10    26  26  16    32  32  20    26  27  16    14  15   7    10  12   3    20  16   6    53  41  19   103  76  34    78  62  22    27  30  14    23  23  10    26  27  12    31  32  15    37  37  13    45  47  12    48  50  15    41  40  13    37  36  12    42  41  12    68  66  14   101  98  17   108 103  12   102  97   6   120 116  19  
  36  38  14    47  49  25    53  56  29    58  59  30    55  55  27    55  55  28    65  65  39    73  73  44    70  71  39    71  72  38    65  69  37    57  64  34    40  51  26    30  43  22    30  41  24    28  37  17    28  36  15    37  44  21    42  45  24    45  46  28    41  42  26    25  27  15    18  20  13    16  16  11    16  15  10    18  18   9    26  26  16    35  35  25    27  27  18    17  17   9    11  15   8    28  20   8    76  51  27   141  97  51   103  73  32    33  31  11    25  26  10    26  27  11    32  33  16    37  37  11    47  48  13    50  50  15    41  39  11    36  35  10    43  42  13    68  66  15    99  97  17   106 101  13   103  97   7   121 117  20  
  48  53  23    48  51  22    56  59  30    62  63  33    55  55  26    62  62  38    71  71  47    82  82  57    76  76  47    73  74  42    71  75  42    58  66  34    44  56  30    37  51  28    31  44  23    28  37  18    31  39  16    38  46  18    44  49  22    46  49  22    44  47  25    28  31  13    17  22  10    17  19  12    15  16   8    17  17   9    31  31  21    46  46  36    36  36  26    21  21  11    15  19  12    32  24  11    82  57  31   144 101  52   101  70  27    35  30  11    27  24  11    26  27  11    34  34  16    38  38  12    50  50  16    55  54  20    45  44  16    37  36  11    47  43  14    66  64  13    95  92  14   109 105  16   107 103  14   114 111  14  
  50  55  23    52  55  24    57  58  27    61  62  30    56  56  28    72  71  48    73  72  51    89  89  67    80  83  54    70  73  40    69  75  41    57  68  35    46  60  32    40  56  30    33  47  23    28  37  16    30  37  15    42  46  22    52  56  30    48  51  25    46  48  24    33  37  19    19  24  12    16  19   8    15  17   6    19  21  10    35  35  22    50  51  36    37  38  21    24  25   7    20  22   9    31  28   9    72  60  28   122  94  41    82  62  19    34  31  15    28  23  12    28  29  12    35  35  16    40  40  13    54  54  17    58  58  22    48  47  19    42  40  13    48  45  15    63  62  11    92  90  12   109 106  19   109 105  17   112 112  15  
  50  52  21    64  64  33    62  62  29    66  66  32    58  59  28    75  75  52    83  83  63    95  97  74    81  84  55    75  79  44    64  71  37    59  70  36    47  62  30    39  55  27    36  50  25    29  38  17    28  34  14    41  43  25    53  53  31    55  55  29    47  48  24    30  32  13    19  22  10    18  20   8    20  22   8    28  29  15    37  39  21    49  51  28    38  39  12    35  36   5    34  33   5    38  37   7    66  63  24   107  91  36    74  62  18    37  38  22    32  26  15    33  32  14    37  36  16    42  42  15    55  55  19    57  57  20    48  46  16    45  43  14    49  46  15    63  61  10    93  91  16   106 104  19   104 103  15   117 117  20  
  60  60  29    67  65  33    73  70  36    73  72  36    67  66  35    78  78  53    94  94  73   100 103  78    86  91  60    79  85  48    69  77  43    61  74  38    46  63  28    38  54  24    35  49  23    30  39  18    32  37  15    51  51  25    66  66  34    65  65  28    53  53  15    41  43  10    31  35   8    25  29  10    26  29  10    32  35  16    39  42  18    53  55  26    48  49  12    51  54  11    59  57   9    53  52   6    67  63  18   107  91  35    74  65  18    37  40  19    32  30  14    34  33  15    36  35  15    42  42  15    54  54  18    54  54  16    47  43  13    44  42  13    49  47  16    67  64  15    96  93  20   108 106  22   105 103  15   116 118  20  
  64  63  33    72  68  36    79  75  39    70  68  31    79  79  45    83  82  57    92  92  71   101 103  79    96 101  69    74  80  42    79  89  54    64  77  41    46  63  28    37  54  22    31  46  19    30  40  16    39  45  19    69  70  29    96  96  48    78  79  23    63  64   6    69  72  18    53  58  10    31  37   9    25  30   8    29  32  11    38  41  15    58  61  26    58  60  17    65  69  18    79  78  12    65  63   6    67  60   9   109  88  29    76  63  16    31  36  10    28  27   7    33  32  13    33  32  12    41  40  13    53  53  15    52  51  13    46  42  12    40  38   8    51  48  17    71  67  20    98  95  22   113 111  28   108 107  19   109 110  12  
  59  58  21    62  59  24    74  71  38    68  70  37    73  76  45    81  84  57    93  96  72    99 104  75    90  96  61    80  88  47    74  88  38    68  82  37    48  63  25    38  51  20    33  47  14    33  47   8    45  55  11    75  79  23    97 100  23    78  77   2    89  89   7    98 105   6    76  86   2    52  62   1    41  49   1    41  48   6    41  49   4    55  63  16    57  66  12    75  87  16    81  96   4    66  73   1    82  81   8   116 105  25    81  68  13    43  40  12    27  30  11    29  28  12    31  34  12    35  39  10    48  48  18    48  44  16    44  41  18    42  41  17    47  46  18    66  63  15    97  94  17   114 111  23   111 107  17   111 109  10  
  64  63  32    61  60  28    66  66  32    72  74  40    74  77  46    86  89  60    86  90  62    88  94  62    83  89  52    90  98  56    80  91  50    67  81  33    61  78  29    49  63  25    46  59  28    44  55  21    52  61  16    74  79   8    96 101   5   101 103   2   116 121   8   117 129   1   106 121   2    89 106   1    89 105  11    91 103  22    77  90   9    72  84   6    64  77   2    73  88   1    91 108   1   108 121   4   128 134   5   140 135  17    92  82   7    52  50   8    37  44   8    34  38   5    35  39   6    39  44  11    46  47  17    41  40  13    39  37  13    39  40  16    50  50  22    71  70  22    96  95  19   109 107  20   111 108  18   118 118  19  
  53  54  30    60  60  31    64  65  32    65  68  32    69  73  37    83  87  54    83  86  55    83  89  54    80  87  47    89  98  53    77  87  49    69  82  28    66  83  21    55  73  16    52  67  10    54  69   1    67  79   5    91  97   8   109 117   1   126 133   4   129 141   2   125 142   1   122 140   3   127 149  13   128 149  27   128 148  34   122 142  29   105 125  14    90 110   2    98 120   1   119 141   1   150 171   7   168 178  11   163 159  18   113 104   7    78  79   5    66  77   7    55  63   8    58  62  14    55  57  17    46  49  17    43  45  19    41  41  17    36  37  13    46  46  20    70  70  21    99  99  22   112 111  24   108 107  18   112 112  15  
  39  42  23    53  55  31    61  65  34    61  66  28    68  72  35    78  81  46    84  88  52    87  94  54    89  95  52    86  95  48    84  95  43    77  90  36    59  76  19    56  72  13    56  72   2    78  93   1    88  98   1    96 103   1   116 126   1   133 142   2   135 147   1   145 162  11   154 172  36   158 176  57   157 174  67   153 170  66   153 172  59   129 148  31   113 134   8   122 145   3   144 168   2   171 190  26   186 194  42   171 165  34   125 117   7   101 105   1    92 106   5    78  89  14    92  96  30    73  75  24    47  51  17    49  52  26    45  46  21    40  43  18    47  50  23    64  65  19    94  96  18   112 111  25   111 110  21   117 117  20  
  40  43  26    44  47  25    54  59  29    65  70  33    69  74  34    73  77  40    81  86  47    84  91  49    85  92  49    84  93  46    86  95  41    76  88  34    58  75  11    70  92   1    99 122   1   135 155   3   140 155   4   129 137   2   140 150   4   138 150   2   131 145   2   151 165  30   165 179  62   170 184  87   180 194 108   182 196 108   172 189  87   147 165  55   141 160  39   147 169  31   157 176  27   183 195  65   199 198  84   175 165  48   133 124   3   106 111   1    91 104   2    82  94  10   111 114  37    91  89  31    51  53  15    46  50  24    43  45  18    38  39  14    48  48  20    65  64  16    91  91  14   107 106  18   108 107  16   120 119  20  
  47  49  28    38  42  20    51  55  31    73  77  44    70  74  37    80  85  45    82  88  47    80  87  45    76  83  40    82  91  46    84  91  41    67  77  28    64  80  14    80 102   1   120 141   5   144 160  10   147 159   7   150 160   4   147 159   1   140 153   2   129 143   4   148 163  38   164 178  67   177 189  92   184 194 108   186 196 109   181 192  96   168 180  80   174 187  81   182 197  77   176 187  82   192 197 100   201 196  99   183 171  54   151 142  10   108 107   1    77  83   6    78  86   6   121 118  39   107 102  36    56  58  15    42  47  16    41  42  14    40  40  13    50  49  19    68  66  16    97  95  16   114 112  21   112 109  16   120 118  18  
  51  53  29    41  42  21    49  51  30    71  74  42    73  77  40    86  90  53    85  90  50    84  91  49    81  88  45    82  90  46    82  86  38    68  77  25    73  90  18    90 113   5   123 145   1   140 156   1   147 158   1   146 153   2   134 143   1   130 141   2   129 142  11   148 162  41   159 173  60   175 187  82   175 185  92   177 186  97   178 188  92   175 185  90   181 191  95   184 196  89   184 193  99   188 192  93   191 184  83   190 174  65   167 155  37   109 103  10    73  77   9    81  84  13   131 123  45   117 107  37    64  63  15    44  49  17    44  42  16    42  40  11    50  47  14    62  59   6    91  88   6   112 107  16   111 106  12   120 117  14  
  58  58  30    48  48  25    42  43  26    55  58  29    70  74  39    74  79  41    72  78  37    80  87  45    89  96  54    77  86  43    79  85  31    70  81  26    67  82  17    83 102  13   106 122   1   130 143   1   149 156   3   139 142   6   123 129   1   122 130   5   128 139  19   145 158  43   147 162  46   160 169  67   175 181  92   191 197 110   185 193  99   183 190  99   187 194 102   176 185  81   172 181  71   175 181  66   181 175  70   192 173  80   169 150  55   104  99   6    81  85   9    87  89  25   141 128  54   118 106  33    63  62  10    50  52  20    48  45  18    46  42  12    63  59  24    85  79  24   112 106  24   125 120  27   122 116  20   134 129  26  
  48  48  22    49  48  28    44  42  26    43  41  19    73  74  40    76  79  36    77  82  43    82  87  52    78  85  46    67  77  28    70  78  27    70  79  26    67  78  18    68  80   9    79  91   6    96 108   9   107 117  12   104 115   4   107 121   8   107 122  18   115 130  26   127 143  28   129 142  29   149 162  48   168 180  69   176 185  89   186 194 106   193 199 112   183 190  96   177 185  85   173 181  72   161 164  57   165 159  57   180 168  73   147 133  45   122 110  28   100  90  14   107 100  32   136 128  60   125 116  51    97  87  25    98  86  25   106  94  34   124 107  47   141 123  60   158 141  71   154 141  62   147 136  48   139 130  34   139 132  31  
  60  59  31    70  68  44    64  62  39    50  48  24    67  67  37    89  90  56    86  90  55    73  78  42    77  83  46    76  85  43    58  64  25    62  70  31    58  68  25    58  68  17    61  72   7    70  78   5    85  92  12    91  98  11    95 105  14    94 106  19   106 118  24   108 121  13   113 124  13   141 150  38   163 172  67   179 186  92   191 196 111   195 199 113   178 184  90   163 170  68   149 153  51   142 141  40   148 139  41   161 146  55   136 119  37   124 108  31   115 103  29   123 113  44   150 140  71   146 132  67   133 118  54   138 124  61   140 124  63   147 128  67   150 131  65   148 132  61   143 128  49   140 127  41   134 124  29   135 125  27  
  80  76  47    90  86  57    88  85  54    60  58  33    56  54  33    72  71  50    72  73  47    68  72  39    77  83  47    73  79  45    57  65  26    52  62  26    43  53  15    46  57  15    52  61  10    59  66   7    79  83  25    86  88  34    85  90  27    82  88  24    90  96  20    99 106   8   117 123  19   149 154  49   171 176  77   184 187  99   191 192 112   191 193 110   173 175  81   151 154  51   148 147  49   153 147  52   153 140  50   155 138  53   147 128  49   143 124  49   137 120  48   145 128  59   169 152  83   158 141  72   139 120  54   140 121  55   133 113  49   132 111  47   133 112  45   138 120  48   144 127  47   148 132  47   141 128  35   140 127  31  
  80  75  46    71  66  37    80  75  46    74  71  46    60  57  41    52  50  38    61  61  42    76  79  48    72  78  43    60  64  36    60  69  32    52  61  28    42  51  20    43  52  21    47  55  18    53  58  18    68  69  29    66  65  27    65  67  21    67  69  20    74  75  13   105 108  20   142 143  46   173 173  75   191 190  97   198 196 111   198 195 114   199 195 111   181 177  84   155 153  52   150 140  51   160 147  60   156 139  56   153 132  54   154 130  56   150 128  55   146 123  53   156 133  63   185 162  92   176 153  84   153 130  62   156 133  65   155 132  65   156 135  67   158 138  67   163 143  70   166 148  69   166 150  65   161 146  56   164 151  57  
  67  61  35    60  53  30    69  63  40    67  63  41    53  50  35    41  38  29    58  57  41    81  84  56    77  81  51    73  77  52    58  63  40    43  49  30    33  39  24    28  33  19    32  34  20    45  46  28    59  57  34    64  61  26    67  65  25    71  69  28    81  80  24   122 119  38   162 158  66   184 179  87   198 191 101   203 196 108   201 195 106   202 195 104   186 180  86   164 156  58   158 142  60   163 145  66   165 144  68   163 140  67   158 134  62   157 133  63   167 143  73   174 150  79   195 171 101   186 162  92   169 145  75   172 148  78   172 148  78   166 145  75   162 142  71   165 146  70   167 148  68   164 148  61   159 143  53   166 153  59  
  63  59  34    62  57  35    59  54  34    61  58  35    60  58  37    47  44  29    47  46  29    66  68  46    79  83  57    75  80  53    75  79  52    50  54  32    34  38  20    29  32  17    37  38  20    51  50  30    58  56  30    72  69  32    70  68  27    68  64  26    86  80  28   122 115  38   158 149  61   186 174  89   197 186  98   197 188  90   194 185  84   196 186  84   188 175  79   168 155  62   168 149  70   173 154  77   173 151  77   167 144  73   164 140  70   164 140  70   175 151  80   177 153  83   178 154  84   168 144  74   157 134  64   156 133  63   149 126  56   142 122  51   138 118  47   145 127  50   155 139  57   156 141  54   148 135  42   153 140  44  
  67  65  42    70  68  43    66  64  39    68  65  38    72  70  42    59  57  32    48  47  27    57  57  39    78  80  58    77  81  50    72  76  41    58  62  31    52  56  28    58  62  34    72  72  44    79  77  45    77  74  41    76  72  40    67  63  27    68  62  27    90  82  33   126 117  40   163 150  61   187 171  88   196 180  90   195 183  77   191 180  64   189 178  66   179 165  66   161 143  58   153 131  55   156 134  60   150 128  56   148 125  55   155 132  62   151 127  54   150 126  53   149 126  56   144 121  51   140 120  49   141 121  50   143 123  52   141 122  50   146 127  57   142 124  52   142 126  48   150 135  52   151 139  49   145 135  39   154 144  46  
  64  64  40    73  74  45    66  67  36    76  73  43    81  80  47    70  69  39    63  62  39    47  46  31    52  54  32    65  71  36    74  74  46    74  74  51    65  67  46    62  61  41    64  62  37    71  67  37    78  73  45    68  63  39    56  51  22    65  58  29    83  74  28   120 109  33   153 140  50   171 154  71   181 164  73   188 175  62   187 176  51   182 170  51   165 150  50   145 124  43   140 118  42   133 111  37   132 111  39   147 125  56   160 137  67   150 128  53   143 120  47   138 118  47   134 114  43   131 113  41   124 107  34   123 105  33   128 111  39   125 108  38   115  98  28   117 101  25   125 113  29   130 119  27   130 121  23   145 137  36  
  63  63  39    64  62  39    62  60  37    62  60  38    66  64  42    78  74  47    84  79  52    66  61  39    43  40  24    49  47  34    84  85  54    80  80  54    60  60  38    51  50  30    59  58  37    76  76  52    78  77  50    73  70  40    60  57  26    64  60  26    83  76  30   106  96  35   130 119  44   157 141  54   179 163  68   177 162  59   172 159  49   165 156  46   146 140  41   117 112  23   116 102  30   103  92  30   100  88  27   135 117  45   157 135  59   124 107  39    99  89  32    93  83  31    94  84  34    88  78  29    87  79  30    84  77  24    86  79  25    89  82  29    88  80  19    87  78  19   106  96  30   115 108  24   114 107  16   135 127  23  
  53  53  29    60  58  35    62  60  37    49  47  24    49  45  20    68  64  34    82  77  49    74  71  46    56  54  35    36  36  22    61  60  33    73  72  47    61  59  37    54  52  31    63  62  41    74  74  49    71  70  44    72  67  38    74  70  41    71  66  35    88  83  40   106  99  41   116 106  38   137 124  43   155 141  48   162 151  44   159 150  38   144 137  35   113 106  27    81  72  11    88  73  31    75  64  27    78  66  26   124 107  52   159 140  75   112  97  37    83  73  20    76  69  16    75  67  17    72  64  17    73  67  19    71  65  14    76  71  17    75  70  20    76  70  13    84  78  20   102  97  29   114 109  24   118 112  24   131 128  27  
  58  56  33    67  65  40    77  75  50    73  72  45    77  74  45    71  68  37    62  57  27    60  58  28    56  55  32    44  46  25    42  40  19    59  57  36    73  71  48    79  77  54    63  61  39    51  49  28    58  55  32    77  72  43    78  74  45    68  65  34    77  73  35    93  89  39   102  97  37   114 105  42   126 116  46   135 124  41   121 111  24   109 101  25   101  94  35    93  86  43    81  74  29    67  62  23    80  71  32   131 116  67   160 144  86   102  89  37    70  61  18    64  58  23    62  56  23    57  50  21    60  53  24    61  55  25    66  61  27    67  62  30    72  68  25    77  73  24    95  91  29   112 110  29   117 115  30   126 126  29  
  66  64  39    67  66  40    73  71  43    76  72  43    88  86  53    86  81  49    72  68  36    69  67  35    62  62  33    50  52  27    42  36  20    55  50  30    70  66  42    80  76  51    63  58  36    50  45  26    63  57  37    75  69  40    66  61  32    62  61  31    65  65  30    81  79  36    94  91  40   101  93  36   109 101  37   120 111  42   103  94  27    96  88  31    99  92  43   100  96  49    94  93  48    92  89  48    96  90  48   115 106  57   130 121  66    99  89  41    78  70  28    73  70  30    68  64  27    58  54  19    57  54  21    59  56  23    57  54  18    55  54  22    70  69  27    77  76  29    93  93  31   112 114  34   115 118  35   128 131  38  
  76  74  47    72  70  43    71  67  39    77  73  41    76  73  40    81  77  42    79  75  41    80  78  46    79  81  50    58  63  33    50  47  30    51  48  30    57  53  33    64  59  38    58  53  33    52  47  28    67  60  41    75  69  40    64  60  32    64  62  34    67  65  34    74  71  34    73  70  27    86  80  29    92  86  26    98  90  28    87  77  27    79  68  33    70  60  32    63  56  28    70  65  37    79  73  44    87  77  45    93  85  44   108 101  54   107 100  54    90  84  41    89  86  44    80  77  38    72  70  34    72  72  38    70  70  36    64  65  30    69  71  33    81  85  36    86  87  43    90  91  42    98  99  40   107 106  49   126 127  62  
  64  63  35    65  62  33    71  67  37    82  78  45    78  74  39    77  73  38    81  77  45    84  82  50    79  82  49    61  67  34    53  52  32    47  45  26    48  46  28    52  49  32    53  50  31    51  46  27    61  56  33    75  68  41    68  64  37    79  75  48    96  92  62    97  92  59    97  92  54    96  88  47   102  95  42   116 108  43   118 108  48   102  90  46    81  68  33    78  67  32    60  56  15    69  58  19    87  73  33    91  82  38    82  78  35    90  84  45    83  76  40    67  63  29    60  55  24    66  62  35    72  70  45    70  69  43    70  70  44    72  74  46    68  72  40    64  62  43    60  57  43    63  58  41    72  66  53    81  77  53  
  59  58  28    65  62  31    74  71  40    83  79  45    78  74  41    74  69  37    76  72  40    80  79  48    78  81  48    75  81  47    49  53  28    41  42  23    35  35  23    34  33  22    51  49  34    61  59  37    64  62  34    61  55  29    52  47  21    61  57  28    72  67  37    74  68  35    85  76  40    98  86  46   135 125  67   175 166  91   194 181 108   182 169 107   161 150  89   161 151  83   159 151  96   159 144  92   158 140  92   125 114  71    75  71  33    76  71  41   102  94  64   106 101  62    98  93  57    94  91  59    89  85  56    81  80  50    78  79  48    67  69  45    65  67  45    49  46  40    37  32  32    41  36  24    40  35  16    42  39   3  
  62  61  31    74  71  40    73  70  38    74  70  37    65  60  28    70  65  33    79  75  45    82  81  49    84  87  54    75  81  47    60  66  39    35  38  20    33  34  25    34  34  26    42  40  28    56  56  32    73  72  43    82  76  50    74  68  42    63  58  29    57  50  21    80  69  36    93  80  45    77  62  31   110  95  56   131 114  66   127 107  69   115  94  67   104  85  54   100  86  40   106  91  54   113  90  54   106  82  48    79  64  34    48  42  17    41  34  15    65  55  34    73  66  39    71  65  42    61  54  35    52  46  30    52  49  34    49  46  31    56  58  31    82  86  52    62  61  40    45  44  18    67  68  19    82  85  14   113 120  24  
  70  68  38    78  74  45    79  75  46    74  72  40    67  68  34    69  73  38    71  75  41    69  72  39    73  73  41    85  82  51    56  61  32    31  33  20    26  28  24    32  34  25    46  48  28    53  51  28    65  60  36    82  77  48    91  87  58    66  62  32    71  64  28   129 115  72   155 135  86   158 138  94   198 179 138   219 197 158   201 179 142   190 167 130   177 154 113   177 154 112   164 142  94   161 137 100   160 138  98   158 140  85   132 119  52    88  76  20    64  52  10    60  50  20    53  45  22    40  38  13    41  43  22    37  37  26    49  51  36    99  96  64   117 113  65    70  66  21    76  73  15   107 106  25   122 123  27   159 164  48  
  66  65  34    79  76  45    87  83  53    80  78  48    77  78  47    83  84  53    75  78  48    69  71  42    72  71  43    79  76  49    66  69  41    45  47  29    34  35  26    46  46  35    62  61  42    72  68  42    62  57  29    58  51  27    61  56  35    67  62  42    80  72  48   106  94  61   143 125  84   195 174 126   203 183 135   220 198 154   227 204 160   228 205 160   221 197 149   222 198 149   230 204 157   236 211 173   239 214 175   226 205 150   197 177 114   186 166 112   168 147 103   144 125  76   112  99  48    72  64  26    62  56  34    53  50  26    84  84  47   124 120  82    82  78  34    65  61  16    82  79  23    98  97  16   115 116  20   169 173  57  
  66  65  34    72  69  36    78  74  39    70  68  38    66  65  37    73  74  48    68  71  44    64  65  40    72  70  47    84  82  59    81  80  52    75  75  51    63  61  43    53  52  38    58  53  35   104  99  69   127 120  84   103  96  62    56  49  22    55  50  28    77  71  44   110  99  61   146 133  85   169 150  99   193 171 122   196 174 125   197 173 127   186 162 113   177 152 101   170 145  92   194 166 119   206 177 136   216 186 145   211 182 130   195 166 106   214 184 130   209 178 128   201 171 105   165 142  75   100  82  40    66  52  26    91  84  48   113 111  60    83  79  42    59  56  16    65  60  19    81  78  22    98  97  16   124 126  30   162 166  50  
  72  71  39    75  72  36    89  86  48    89  85  52    65  64  34    57  58  27    60  63  32    62  64  35    65  65  38    74  72  47    92  88  61    94  90  61    78  76  51    56  54  37    56  51  35   100  93  64   125 119  81   111 104  66    83  78  46    60  54  29    65  59  32   107  99  59   145 136  85   153 134  85   144 122  75   142 119  75   160 136  91   168 144  97   170 145  96   165 140  89   174 147  93   192 163 114   208 176 128   204 172 116   191 160  96   213 178 120   209 172 116   195 159  95   166 137  81    95  74  35    85  71  39   138 131  95   106 103  65    49  45  15    62  58  22    60  55  17    72  69  15    96  96  17   125 126  32   149 154  40  
  71  70  40    87  84  48    98  95  54    98  96  56    80  79  41    74  76  39    72  76  40    68  72  38    69  71  39    79  78  48    94  90  63    93  92  62    70  69  42    53  51  33    59  56  41    76  70  45    72  68  35    69  63  37    66  60  40    66  59  43    75  67  48    72  62  33    97  86  49   141 125  77   143 125  75   147 127  77   170 150 100   172 151  99   167 145  91   178 157 100   172 150  90   173 148  91   176 151  94   187 158  99   197 166 103   207 173 112   199 165 106   174 143  88   132 108  58   101  86  39   120 113  72   104 102  73    55  57  29    46  43  19    57  54  20    59  55  17    71  68  16   100  99  23   121 122  32   135 137  30  
  54  53  23    70  68  33    90  88  47   100  98  56   100  98  59   100 102  62    89  94  55    80  84  48    77  79  44    77  78  46    66  66  40    69  70  46    51  53  33    47  48  33    51  52  38    69  68  48    67  65  40    69  64  41    64  59  37    70  64  40    96  89  61    94  85  53    88  79  40   110  98  48   133 120  67   133 120  67   146 132  79   145 130  74   135 120  60   140 124  62   152 136  78   135 117  62   129 109  55   144 122  66   164 140  83   156 130  71   139 114  57   133 112  59   119 105  47   121 116  55   104 104  62    49  49  29    35  40  12    42  40  16    49  46  14    60  56  20    73  71  19   101 100  26   114 114  30   123 124  24  
  61  60  31    75  73  38    91  88  48    95  91  53    88  85  48    84  85  49    83  87  51    89  93  59    86  88  57    73  74  43    61  64  40    54  57  39    43  48  36    42  48  36    36  41  26    43  45  31    51  51  36    61  61  37    67  66  38    83  80  43    97  91  51   107  97  56   107  95  55    89  79  37    79  70  27   105  96  53   117 108  64   119 108  62   112 100  51   111  99  47   122 112  63   122 111  63   119 106  61   117 103  58   126 109  63   135 118  67   119 102  51   124 109  58   137 128  74   102  99  51    53  52  24    39  39  20    37  39  14    41  40  15    53  50  16    55  52  16    71  69  19    89  87  17   100  97  18   120 120  25  
  70  69  40    84  81  48    95  93  53    92  88  53    81  78  45    77  77  46    72  76  45    72  75  47    70  73  45    69  69  45    56  61  39    42  49  36    34  42  36    33  41  32    39  47  33    41  47  38    60  62  57    68  69  59    75  73  55    82  78  49    95  86  50   100  89  55    95  81  50    91  82  55    71  64  38    66  59  33    82  72  46   101  91  63   111 101  70   114 104  69   116 111  71   117 109  71   103  94  58    84  74  39    97  84  49   143 131  90   140 128  82   141 129  81   113 104  62    56  49  26    44  38  23    41  38  19    42  39  22    43  40  20    51  51  16    55  53  15    67  65  15    87  86  16   103 100  24   113 112  22  
  62  62  38    63  65  42    64  66  45    66  67  45    71  69  49    65  67  45    61  63  42    60  63  43    55  58  39    49  52  35    45  48  32    48  53  41    48  56  52    49  59  59    54  66  64    58  69  61    56  66  57    61  66  57    72  79  61    87  93  67    89  95  67    78  81  60    68  70  54    65  62  42    61  59  36    72  70  45    87  85  57   104  99  70   124 114  86   132 118  89   101  96  74    82  75  50    76  64  36    83  68  37   112  98  61   143 130  88   128 118  78    83  79  48    56  48  29    43  37  25    40  42  25    50  53  29    64  62  34    65  61  22    58  54  21    57  54  20    71  70  24    90  90  35    86  86  18    97  97  11  
  53  55  34    52  54  33    51  54  36    56  58  40    62  64  45    60  64  45    56  59  42    53  57  41    47  51  36    40  44  29    44  46  35    46  49  45    52  58  61    59  68  74    62  73  77    61  71  71    58  68  62    59  67  58    75  83  67    89  97  74    88  93  70    74  79  59    66  69  56    60  59  46    61  59  44    79  77  62    90  87  67    92  86  65    94  83  61    90  75  52    97  79  55   119 101  71   120 103  63   123 107  65   133 119  80   113 100  67    78  70  41    65  61  34    69  61  43    69  63  50    50  52  35    52  54  29    76  72  41    95  92  52    91  87  51    82  79  43    84  84  35    96  96  37    94  94  23   103 106  14  
  47  49  35    47  51  37    49  54  41    52  57  43    57  62  47    56  59  48    49  53  42    44  50  39    36  42  32    31  37  27    37  39  36    46  51  53    53  60  68    59  68  80    68  77  87    63  72  76    50  59  59    48  57  50    58  67  54    74  83  64    79  88  68    71  78  63    58  64  54    52  54  49    50  51  45    52  51  43    48  44  34    48  41  27    65  53  38    81  65  49   116  91  59   152 128  90   143 121  78   121 103  60   103  90  54    80  70  44    76  71  48    83  80  57    78  71  54    76  72  59    66  67  50    69  70  43    92  87  51    96  90  50    83  78  47    86  83  55    94  95  54   102 103  54   105 105  45   123 124  45  
  41  44  33    42  48  39    43  49  42    44  50  43    47  54  47    44  51  44    39  46  39    36  42  37    32  38  34    31  37  33    36  38  35    46  51  53    51  59  66    54  64  74    62  71  80    58  67  71    48  58  58    50  61  55    57  68  58    65  76  61    63  74  59    57  67  54    50  57  51    41  47  44    33  38  35    32  34  29    36  35  26    51  45  33    78  68  54    99  86  71   105  87  50   119 101  66   107  89  57    80  64  37    78  67  42    76  70  46    69  65  45    69  68  51    70  65  50    72  69  56    72  75  57    77  77  50   107 100  59   121 112  73    97  90  65    89  84  64    85  84  59    82  81  52    90  87  50   121 118  64  
  41  46  39    39  44  37    35  42  36    31  39  36    34  41  39    35  41  39    33  39  37    33  39  37    32  38  36    34  40  39    35  40  34    37  43  41    46  55  57    52  63  66    51  61  63    53  63  63    56  65  63    48  59  54    53  65  56    59  70  59    57  67  56    52  62  54    45  54  50    36  45  40    28  35  29    33  36  29    51  49  39    67  62  49    70  63  48    65  57  40    84  82  57    82  77  53    68  61  40    71  63  44    72  65  46    58  53  34    64  62  45    69  69  56    83  81  66    87  87  73    89  92  77    94  94  66   137 127  84   151 141  93   115 106  74    88  83  61    67  66  45    59  57  37    63  59  33    83  78  37  
  48  51  44    40  46  39    35  42  36    30  38  37    32  42  40    33  42  41    35  41  41    35  41  41    32  38  38    31  37  37    30  35  29    33  40  36    41  51  49    47  58  58    50  60  59    58  69  65    64  73  70    58  67  61    57  67  59    59  69  60    54  64  57    47  56  51    34  43  41    27  38  32    28  35  27    34  40  30    51  52  41    61  58  46    57  53  39    51  48  31    40  46  41    34  39  27    60  63  43    72  72  49    59  56  37    40  38  25    43  42  34    64  66  55    75  76  59    70  72  55    68  71  56    74  71  45   120 107  62   137 125  68   111 104  58    96  93  60    87  90  58    99 100  73   107 105  73   111 109  61  
  49  52  43    41  44  36    38  44  37    37  45  41    39  46  44    39  45  43    38  44  42    37  42  41    33  37  36    31  35  34    30  36  32    39  47  45    45  56  55    50  62  62    60  70  71    67  77  76    66  74  71    59  66  59    66  73  66    67  74  67    55  62  56    49  58  54    46  55  54    34  44  38    32  39  32    37  39  34    41  42  35    41  41  33    37  37  28    39  40  29    40  46  46    39  43  35    50  52  36    55  57  37    61  62  46    46  46  36    35  37  31    43  47  36    64  67  48    70  74  56    73  76  62    90  85  60   139 123  77   153 139  84   131 121  79   114 111  80   105 110  76   117 122  88   125 128  84   133 133  73  
  55  57  46    44  47  39    44  48  41    41  47  43    39  45  43    36  42  39    36  41  37    37  42  38    36  39  36    37  39  36    43  48  51    48  57  58    57  67  69    64  75  78    70  80  83    73  83  85    71  78  79    60  66  59    60  67  59    61  68  61    53  60  53    53  59  58    50  56  56    43  51  49    37  44  42    33  35  32    38  37  35    41  41  39    38  39  36    36  41  35    40  42  31    42  42  30    44  43  31    53  51  39    71  71  57    64  66  53    65  70  58    67  72  61    77  81  61    83  87  67    87  91  76   107 103  78   146 129  85   154 137  91   130 119  89   114 110  87   106 109  81   110 115  81   117 119  75   140 142  77  
  78  83  79    66  71  67    54  59  55    48  53  51    48  54  52    41  47  45    40  46  44    41  47  45    34  40  38    38  44  42    40  47  45    48  57  57    54  65  68    60  73  77    67  80  84    69  80  84    56  70  70    47  64  61    53  64  61    62  68  64    63  66  63    57  62  61    49  59  58    49  57  53    42  48  44    39  45  43    39  45  43    40  44  43    36  40  39    35  39  38    38  44  40    43  47  43    54  55  47    74  73  56    99  98  77    87  85  71    88  86  77    85  86  74    85  87  68    82  87  64   100 105  76   115 111  72   169 150 100   188 170 112   142 130  88   114 110  81   109 110  73   117 118  75   122 125  77   140 150  91  
  85  90  86    69  74  70    55  60  56    51  57  54    50  56  54    45  51  49    44  50  48    45  51  49    42  48  46    44  51  49    43  49  47    45  55  55    49  60  63    54  66  72    57  70  76    60  71  75    52  64  66    42  57  54    47  58  55    57  62  59    57  63  59    52  59  57    45  55  54    45  53  51    35  41  39    40  46  44    41  46  44    37  41  40    39  43  42    37  41  40    39  45  41    42  46  42    55  56  47    81  80  63   106 105  84    94  93  78    94  95  84    98  99  87    93  96  78    88  93  71   100 106  79   123 119  82   175 156 108   185 164 108   143 130  88   115 114  84   111 116  79   125 129  87   123 126  78   139 147  88  
