P3
50 50
255
 166 160 146   159 154 135   171 169 146   149 149 121   106 106  78    93  96  70    73  77  53    56  60  38    74  76  51    80  83  52    88  93  55    91  95  62   103 106  81   139 143 122   104 108  83    67  73  41    61  64  36    76  80  49   109 112  78   141 145 107   142 147 108   142 147 109   151 157 121   146 151 120   144 151 121    83  90  68    36  44  28    41  48  38    48  55  43    32  40  20    53  62  30   112 120  81   150 159 116   159 170 131   153 170 132   181 202 164   165 188 150   146 168 124   129 146  98   114 129  78   146 161 118   177 193 154   173 192 154   128 149 106    76  95  47    65  78  33    51  57  23    88  88  66   126 127 102    79  83  59  
 162 156 139   162 157 138   182 180 158   156 154 131    84  84  61    51  52  33    30  30  18    30  31  20    34  31  21    36  33  20    31  31  14    32  32  19    31  30  25    25  25  23    14  15   9    10  11   1    11  10   7    14  14   8    17  17   6    27  27  13    30  31  14    29  30  14    34  35  21    29  29  18    39  39  24    26  27  14    33  35  27    30  31  27    21  23  19    30  32  24    37  38  26    45  45  31    54  56  25    86  87  57    93  96  63   151 156 121   146 150 113   145 148 107   159 162 119   165 169 124   130 138  84   122 132  83   119 132  87    92 108  58    91 106  54   113 125  73   127 131  87   148 149 112   134 137 109   114 119  92  
 163 157 140   157 152 133   174 172 150   137 135 111    80  79  56    57  57  39    40  40  26    34  34  23    40  35  24    39  35  22    38  35  22    33  30  20    30  29  24    21  21  19    10  10   7    10  12   6    11  10  11    11  10   8    17  18  11    24  24  12    28  29  15    29  30  16    26  26  14    24  24  14    36  35  22    35  35  22    34  36  22    28  32  19    22  25  15    29  30  23    36  34  31    26  23  22    35  35  16    58  55  32    66  58  30   138 128  93   165 154 116   165 154 115   158 151 111   165 161 122   105 101  65    63  61  30    68  68  42    49  52  27    46  50  24    55  58  31    65  65  41    68  66  44    42  45  28    38  44  27  
 150 144 130   138 134 115   137 135 111    97  95  66    92  92  61    76  76  46    63  64  35    64  65  38    74  69  45    70  69  46    49  46  25    42  42  23    41  43  24    56  60  43    52  58  41    34  40  25    30  33  20    36  39  23    51  56  33    43  47  20    56  61  32    76  80  51    50  54  27    35  39  13    40  47  31    52  59  40    61  71  48    81  94  68    76  88  65    42  52  35    31  36  28    27  30  29    30  37  20    55  57  35    93  86  57   150 139 103   154 141 101   146 135  95   162 156 118   146 144 107    94  84  59    52  46  21    55  49  29    36  33  16    27  26  12    32  30  17    33  30  18    44  42  28    51  57  37    60  68  47  
 156 151 139   139 136 117   111 109  84    83  83  49   116 117  77    75  76  34    56  58  16    84  86  47   127 128  80   125 127  82    96  99  56    79  87  42    79  89  39   129 142  91   139 155 106   123 138  94   100 112  69    93 106  58   131 145  92   124 138  81   108 121  63   116 129  73    93 104  50    80  89  38    99 115  80   134 150 110   127 145 101   149 171 121   151 172 126   102 120  78    94 109  73   104 119  86   123 137 112   149 157 129   180 183 150   172 171 133   131 128  89    95  95  55   127 131  93   140 146 112    78  74  45    57  54  22    86  86  51    89  90  59    57  58  35    50  52  34    52  55  36    89  91  71    98 107  88   131 140 118  
 167 164 149   152 149 130   114 113  88   113 112  81   146 146 110   102 102  65    68  68  33    80  80  47   110 113  67   117 120  80   145 149 112   155 163 122   144 159 107   143 161 106   136 154 103   157 177 130   168 187 146   139 157 115   160 177 132   160 178 128   133 149 100   134 148 104   141 154 111   149 162 124   137 148 111   133 147 107   123 140  94   107 126  76    92 112  59    95 114  61   124 140  90   157 170 123   149 163 127   157 169 133   174 183 145   154 160 122   154 160 123   166 172 136   183 190 156   195 202 169   145 151 120   137 143 104   164 172 124   156 163 118   117 125  89    78  86  61    32  40  18    43  52  30    44  55  39    45  56  38  
 178 176 159   160 159 139   107 106  85    88  87  62    82  81  57    66  66  42    58  58  35    64  63  42    76  79  37    63  66  31    73  78  45    99 108  70   123 138  88   115 133  79   104 124  76   114 134  94   137 154 121   111 129  90   104 118  80   111 126  84   101 115  72    69  82  46    48  61  29    69  82  46    78  85  67    47  56  33    46  56  32    81  93  67    90 103  72    68  80  43    65  76  37    84  92  58   102 115  72   115 128  86   119 130  90   129 137  99   166 172 137   177 182 148   174 179 146   180 185 152   155 163 122   124 134  84   136 147  88   143 155  96   134 147  95   127 139  98   105 120  86   118 133 100   128 140 113    95 107  76  
 173 176 152   137 140 117    83  85  66    60  61  44    39  40  25    27  28  14    25  27  12    31  32  18    37  34  19    34  30  18    33  32  19    34  34  18    34  38  16    28  34  14    19  24  13    20  25  22    27  34  25    27  33  18    30  32  18    39  40  30    30  32  19    18  21  11    23  29  14   107 118  85   152 168 141   118 136  98   107 125  85   144 160 129   162 176 145   153 169 124   128 145  95   112 128  84   133 149 102   149 163 117   131 141  96   120 124  82   147 147 108   144 143 105   144 143 104   146 146 107   119 122  79   101 104  60   107 111  67   124 132  86   119 129  86   129 141 101   103 119  81    99 117  82   116 125  93   110 119  85  
 150 154 126   101 106  76    62  66  36    77  80  50    66  68  42    33  33  11    36  36  18    30  29  14    41  34  21    39  33  17    45  40  21    40  38  17    44  44  21    57  57  37    33  35  18    38  40  26    23  27  18    20  23  15    25  26  21    20  19  25    21  20  26    23  24  17    37  41  27    58  63  51    77  89  63    71  84  52    63  75  45    77  88  65    73  81  59    86  97  63    87  98  57    81  91  52    83  92  54    74  81  44    64  68  33    69  69  35    97  94  61   108 104  72   105 102  69    97  93  61    57  56  27    56  58  27   110 116  83   115 125  91    90 102  71   104 114  85    69  77  52    33  39  18    61  67  43    70  76  55  
 106 112  77    62  68  33    59  65  29    77  81  44    78  82  45    67  69  33    77  79  43    66  67  35    52  51  17    53  51  22    68  68  38    63  65  26   105 112  58   141 148  91   121 130  80   120 127  87    94 102  58    64  69  41    42  45  25    44  45  31    45  46  34    68  71  42    95 100  62    68  72  47    56  58  28    51  52  28    36  35  19    36  35  19    35  35  10    47  49  13    89  93  50   120 122  83   112 120  75   123 132  86   116 123  78   101 106  62   116 118  75   141 144 100   140 142  99   107 110  66    55  54  21    77  81  47   174 186 149   181 196 158   181 197 159   191 201 167   127 131 100    68  67  38   111 119  80   129 134  99  
 109 113  80    98 101  69    85  87  61    52  55  30    39  43  14    70  72  36   114 117  74   106 111  61   117 125  84   124 132  94    97 105  70    88  98  54   162 174 121   165 179 121    82  95  48    45  55  21    59  61  30    50  50  40    36  36  26    48  49  30    39  40  23    35  36  16    44  43  21    34  32  17    27  29  20    24  26  14    48  51  36    55  59  41    42  46  28    44  48  29    85  91  60   153 161 120   157 168 120   167 179 131   148 160 112   150 162 114   181 193 147   179 191 145   160 169 124   168 177 133   153 155 115   142 149 108   148 160 117   144 160 116   122 138  93   112 123  80    96  98  58    93  91  52   128 136  90   135 141  94  
  87  88  49    96  97  55   117 119  72   105 110  58    85  92  38    84  91  38    92 100  49   108 117  69   169 182 135   191 204 155   177 191 141   111 124  71   109 121  72   147 159 114   104 115  76    82  93  57    82  84  47    67  69  39    70  74  39    86  91  46    94 100  54    80  82  42    67  67  30    80  78  36    66  66  26    51  50  17    64  63  28    87  88  44    86  87  42    80  82  45    55  57  23    82  84  47    98 103  57    96 103  57    81  91  47    93 105  60   123 134  92   116 127  87    90  99  61   116 124  88   114 120  79   130 137  96   102 112  72   108 118  79    96 107  64    83  91  48   119 126  81   130 133  89   115 121  85    97 101  62  
  90  89  33   105 104  50    94  95  42    84  89  35    82  88  38    89  98  51    92 102  58   102 112  70   107 116  75   111 119  79   108 117  75    88  96  46   107 117  59   128 138  78   102 109  55    95 101  53    97  99  52   121 127  68   115 122  69    68  74  31    90  95  49   115 117  66   112 112  53   129 130  57   115 119  51    96  99  38    92  96  34    94 100  29   110 116  49    90  93  49    39  39  10    79  79  51   130 127  79   116 115  68    88  91  45    92  96  53   101 107  66    85  90  53    53  55  23    64  64  33    85  93  49   119 127  83    97 103  62   104 108  68   103 109  66   101 109  61   124 133  82   146 157 103   110 115  74    72  74  34  
  85  90  24    94  98  39   103 105  57    76  80  41    45  47  21    51  53  37    63  68  47    81  88  55    58  61  40    44  48  18    56  60  28    75  79  44    98 104  58    98 107  46   100 106  46   102 105  57   106 114  56   121 130  65   126 136  75    85  94  38   110 117  62   102 106  49    98  99  41   101 101  39    62  64  17    86  91  28   132 142  57   115 123  34   135 142  66   139 142  87    70  71  24    99 101  51   147 149  90   119 121  68   102 104  52   108 113  53   142 150  79   127 135  67    93  99  46    80  83  45   103 110  65   138 143 101   122 129  81   132 140  83   116 126  68   106 117  64   102 116  64   108 122  67   141 150 108   117 124  83  
 113 116  58   146 153  86   141 148  82    98 103  53    67  69  28   102 108  62   124 132  79   109 117  60    86  91  48   102 109  52   126 135  71    98 105  51    76  81  36    71  76  25    75  80  25    85  89  40   110 118  66    92 100  48    79  88  36    71  80  29    80  88  40    91  94  48    98  98  53    82  81  36    85  91  41    76  81  34    83  89  41    84  90  33   120 127  58   155 161  94   105 110  56    99 100  63    81  84  43    59  62  23    77  82  41   115 122  69   105 113  51    81  90  29    87  94  48    75  80  48    59  66  34    72  78  50    87  94  59   100 112  62   104 118  66    99 112  67   111 126  82   134 150 101   160 180 123   171 188 136  
  91  93  56   102 106  60   114 121  68    93  99  51    76  82  37    95 102  52    96 104  50    81  88  36    93 102  53   131 140  88    99 105  58    58  64  23    57  62  23    57  62  23    65  71  38    47  51  31    39  44  11    73  80  46    87  97  62    74  85  49    59  69  34    54  62  30    52  55  25    65  69  39    76  90  43    69  82  44    64  74  44    64  74  40    57  67  25    75  83  36    65  73  29    69  75  36    52  57  17    57  64  20   118 127  75   159 169 112   108 118  60   113 124  69   151 159 112   170 176 135   157 173 116   152 166 118   141 154 108   121 138  86   152 169 117   163 180 138   139 156 117   107 126  78   108 124  79   128 144  99  
  91  98  58    63  69  33   118 124  84   108 118  70    77  86  40    54  61  26    53  59  30    72  78  46   111 125  78    92 104  61    57  66  26    84  94  50   117 128  78   129 142  92   146 160 119   117 129  99    85  98  58   131 144 103   163 179 134   152 170 122   148 164 117   126 141  95   129 142  98   139 150 109   135 149 115   136 150 112   141 155 114    97 108  71    41  51  17    46  55  21    67  75  35    79  88  40    85  89  47    90  98  47   101 112  52   105 116  60    83  91  46    77  84  46    74  79  45    92  97  60   120 134  73   133 146  95   137 149 103   112 126  79   133 146 104   140 154 121   105 118  85    71  86  44    64  67  42    53  56  30  
 123 130  80   127 134  84   132 139  88   119 127  72   126 132  77   109 116  63    89  94  49   101 105  66   137 150 102   145 155 113   133 141  98   135 143  92   105 115  62    92 103  55   133 146 106   152 168 132   130 141 104   129 142 102   137 151 107   117 132  84   111 125  75   112 124  75   118 126  81   106 112  69    74  80  40    88  96  51   101 109  58    92 101  48   106 114  62   100 106  59   100 107  60   111 116  71   115 118  57   117 123  55   121 131  58   111 122  55   100 106  54   101 105  62   108 108  67   107 105  61    82  83  44   106 107  76   138 139 111   121 123  90   141 143 112   133 134 113    95  96  74    68  71  40    56  58  30   112 115  82  
 155 149  97   175 170 116   155 150  96   137 131  79   160 154  96   146 142  72    91  85  21   124 116  64   171 174 111   203 202 159   201 195 160   194 187 139   147 145  85   138 139  87   181 182 148   183 187 164   173 173 133   151 153 107   150 152 102   157 160 104   124 123  66   122 118  62   156 148  96   156 146  95   144 137  87   162 157 100   140 138  75   128 127  62   167 167 106   171 172 116   175 175 124   181 182 132   168 163 107   145 142  82   135 136  74    95  98  39    74  76  23    89  87  39   109 103  56   124 115  66   103  94  44    95  85  42   100  90  45   105  97  44   113 105  56    89  78  41    94  83  51    70  60  22    73  75  31   149 153 110  
 185 170  95   190 171 108   113  93  38   101  82  20   133 114  44   120 101  30   119  99  32   133 114  46   131 124  52   148 134  78   192 175 124   176 159  92   153 138  63   191 178 116   185 176 127   186 180 135   191 182 125   192 183 123   156 147  80   157 146  74   142 130  54   142 124  50   185 162  92   187 161  94   180 166 100   185 170 108   189 175 115   211 200 139   215 207 145   179 173 112   177 173 117   206 203 152   221 209 159   221 214 161   186 183 129   147 147  92   163 162 106   180 176 116   173 163 104   181 167 107   214 195 142   210 190 139   188 170 112   172 157  83   161 145  69   158 141  75   178 160 100   192 174 111   190 184 113   177 175 107  
 182 159  68   211 190 111   175 159  83   171 157  80   233 217 154   213 194 150   210 193 149   203 188 129   164 148  80   161 141  69   173 148  71   130 109  32   168 153  80   217 203 133   212 193 124   203 175 106   194 172  89   203 181  98   207 184 106   203 181 106   189 170  99   181 162  96   210 191 130   219 201 141   184 168  92   168 153  71   196 183 104   235 219 158   218 202 149   220 206 143   180 167  90   187 175  95   215 197 130   192 174 104   231 213 148   249 234 167   226 212 146   236 223 170   247 234 189   234 226 164   236 217 152   234 218 158   248 233 188   232 214 167   194 174 103   188 167  89   206 186 116   227 211 143   213 202 122   169 163  82  
 214 192 114   218 195 126   228 209 142   199 181 108   169 155  78   181 167  89   181 166  89   194 180  97   207 186  92   190 168  71   184 163  66   195 180 100   231 221 164   241 231 181   228 217 153   204 190 111   195 174  96   209 188 111   213 194 118   219 201 128   235 216 148   235 217 152   234 219 155   218 202 140   203 184 103   188 171  84   168 150  67   207 187 115   227 209 136   234 217 133   207 193 101   197 182  94   213 193 112   220 201 114   229 209 133   227 207 143   218 199 137   200 180 121   219 201 146   223 205 149   217 199 139   222 202 138   225 204 133   222 202 135   222 203 152   222 203 153   215 196 135   207 186 118   197 180  96   194 181  97  
 218 197 126   230 207 146   241 218 160   222 202 131   183 168  86   196 181  99   210 192 111   179 158  73   175 152  66   206 184 101   208 191 109   200 190 104   197 192 104   197 190 104   203 190 111   220 199 128   210 189 112   213 192 116   207 188 114   208 189 117   226 208 137   229 212 142   220 203 134   194 177 108   187 164  95   189 166  92   172 148  72   179 155  78   174 153  62   202 184  75   174 158  49   151 134  34   160 134  33   191 164  65   199 171  75   188 157  78   201 167 109   176 144  76   166 135  52   161 130  53   156 138  75   195 173 109   206 181 107   216 194 120   244 226 169   241 225 169   236 219 149   234 214 141   234 219 150   225 210 139  
 211 194 131   199 180 110   172 149  78   190 170 100   205 190 118   179 165  86   191 171  92   178 149  75   171 144  52   195 171  82   212 193 108   211 196 109   173 157  69   183 164  82   218 193 120   227 198 134   208 185 111   213 189 118   218 195 125   217 194 127   212 190 124   204 182 114   205 184 114   184 164  93   171 149  85   181 157  89   202 177 107   203 176 104   189 165  79   184 165  64   163 144  48   158 139  56   160 140  69   175 155  77   184 165  75   176 156  70   192 167 104   195 170 111   174 150  78   163 140  58   168 145  77   186 165 101   219 198 141   233 213 152   207 189 116   216 198 124   220 203 135   210 194 131   209 196 132   223 209 144  
 226 217 152   207 192 122   157 135  59   138 121  38   150 140  56   176 165  81   198 178  92   185 154  63   154 115  29   142 108  18   169 141  50   158 131  48   133 104  32   152 124  58   143 122  51   163 149  69   195 175 106   189 167 102   218 196 135   229 206 148   215 193 135   204 182 123   213 192 128   218 199 133   214 201 129   186 172  94   171 153  76   195 174 102   213 191 115   216 198 113   216 200 118   205 191 119   216 206 138   219 206 148   213 204 128   230 221 138   250 236 181   228 211 162   190 177 102   197 187  97   217 199 109   199 189  95   207 198 120   206 193 119   174 158  71   180 159  79   206 188 124   185 174 110   199 177 109   177 158  89  
  86  85  27   121 109  35   174 154  77   215 198 126   182 173  94   158 153  54   165 147  48   183 150  70   192 158  77   149 120  30   129 101   9   138 106  21   168 131  60   161 130  67   119 101  37   127 122  53   180 172  82   160 151  65   130 120  41   134 123  48   177 169  93   189 180 105   189 181 102   194 187 105   209 202 155   157 148  90   103  90  28   192 176 119   188 169 111   140 127  52   146 138  54   182 177  93   166 154  83   177 168  84   152 141  67   131 120  52   166 155  77   195 184 109   194 182 113   173 164  77   107 102   9   155 150  55   160 155  60   125 118  29   130 119  37   134 117  47   164 146  81   178 160  95   182 158  90   140 121  52  
 107 110  44   122 116  49   150 135  71   154 141  75   133 130  54   130 128  44   127 111  34   144 115  51   158 145  72   127 114  38   112  95  14   164 141  60   212 183 116   182 155 100   151 136  75   152 149  76   125 121  54   130 126  60   118 115  51   107 104  43   131 128  68   136 133  73   115 113  49   131 130  64   143 146  84   126 128  56   118 116  45   179 173 111   155 146  88   140 133  68   136 133  60   139 137  64   110 105  34   101  97  31   147 142  94   178 174 138   162 160 116   135 134  78   174 172 111   173 170 108   131 128  63   168 160  99   169 161  92   102  94  23    94  88  27   151 143  86   148 135  77   121 102  52   148 136  64   142 135  65  
 126 138  73   125 131  68   129 130  70   120 123  63   111 120  58   109 118  57   112 115  55   129 124  67   108 112  47    98  99  49   106 106  57   118 119  53   120 122  56    85  85  39    74  76  33   102 108  50    97 101  44   100 104  50   100 103  54    88  93  43    89  94  43   110 117  63    78  86  29    82  92  34   116 128  67   103 114  54    91 102  43   107 115  58   102 109  53   119 124  68   112 117  60   116 119  63   136 136  79    91  95  42    89  97  47   132 145  98   125 137  91    67  75  25   108 112  57   132 132  75   121 116  73   120 119  75   105 109  66    65  72  29    91  98  53   104 109  62   104 105  57   126 124  75   142 147  89   150 159  95  
 105 127  67   114 131  74    89 100  47    89 100  50    90 106  56    61  78  30    60  72  29    78  85  45    84 100  46    70  83  42    95 108  65   102 116  58   100 114  57    96 109  68    93 108  69    99 117  64    72  87  31    77  92  38    74  90  38    82  98  49    85 102  52    95 114  63    75  93  42    69  88  37    77  94  39    94 110  59   101 117  70    74  88  45    63  77  34    96 111  64   114 129  76   128 144  88   115 131  75    94 110  55    75  93  39    87 105  53   108 126  75    99 116  65    93 109  57    90 106  55    87  96  58    69  81  45   107 121  89   124 141 115   132 148 124   119 133 101    94 108  59   128 141  80   139 153 105   150 164 115  
  98 115  74   103 119  76   109 122  77   110 122  74   112 126  73   103 118  63    86 101  44    75  90  33   109 123  74   103 114  76   108 117  77    93 104  53    84  95  44   109 120  79   126 139  97    80  97  46    57  66  28    51  60  16    59  70  22    96 106  56    94 106  60    80  93  45    83  97  44   106 121  61   131 150  87    96 113  59    71  88  44    57  72  38    39  55  25    59  76  43    88 107  69    87 107  65    70  83  38   102 114  66   102 111  62   101 107  56   117 122  74    90  98  53    58  70  27    64  77  37    81  90  44    97 109  69   114 125  91   114 129  97   112 126  91    93 106  66    86  95  54   106 113  74    92 105  75    88 103  71  
  77  81  39    63  69  24   117 120  70   140 143  88   128 128  71   117 117  59   102 106  47   117 125  65   166 176 131   176 182 144   159 167 126   161 168 122   147 153 106   128 137  90   167 176 129   156 169 113   106 114  62   104 112  59   112 120  66   128 137  75   140 151  81   143 155  86   110 120  60    77  85  36   123 135  66   122 134  73    45  57   5    69  82  39   141 153 116   158 172 132   160 177 130   173 191 140   167 177 129   158 166 115   188 191 138   153 152  98   106 105  51   107 110  59   137 145  98   154 163 120   166 174 131   183 191 149   168 176 135   155 164 120   125 134  86   122 131  82   107 113  70   107 112  75   107 117  75    82  93  50  
 102  99  58    82  83  38   107 108  62   123 120  74   119 111  70   102  93  57    70  67  35    72  75  44    88 100  68    85  96  66    63  72  42    95 103  70   119 127  92    82  93  54    92 106  61   102 118  69   109 124  64   121 136  72   127 142  74   107 122  54   101 116  52   114 127  73   103 115  71    90 101  61   116 125  73   139 148  99    91  98  55   103 111  69   127 135  93   103 114  67    94 106  54    98 111  55   102 115  67    92 101  53    92 101  50    75  81  28    81  87  35   104 112  60   118 128  78   110 123  73    98 112  69    93 107  58    86 100  49    97 110  60    80  92  43    90 100  47   129 141  78   137 151  79   120 128  65   135 144  77  
  36  35  25    34  38  24    43  48  30    46  45  25    49  43  25    47  40  27    30  32  19    27  39  26    27  33  25    30  35  26    23  26  17    27  30  21    43  47  33    35  42  20    42  53  24    53  65  34    64  75  31    54  64  26    47  55  25    36  43  21    35  41  25    36  43  27    39  46  26    50  57  32    56  64  42    62  69  47    56  62  42    50  56  37    44  50  31    30  36  17    35  41  22    32  37  18    41  45  23    51  55  31    42  47  23    49  54  29    55  60  34    55  60  31    48  52  23    40  45  14    51  62  27    60  69  37    52  60  32    46  51  27    37  42  16    51  56  23    90  95  56    98 106  60    91  97  45    93 100  56  
  34  38  38    26  30  23    27  31  14    49  52  27    57  58  33    30  32  15    10  15   9    13  21  22     8   8   9     7   9   8    18  21  19    24  27  25    22  26  20    23  27  19    30  34  23    33  36  23    38  41  23    31  34  19    22  26  14    17  20  12    19  21  13    16  19   9    16  19  10    24  27  17    20  22  17    10  14   8    17  22  16    15  20  15    15  20  15    15  20  16    17  20  18    26  27  26    37  34  25    38  35  26    44  40  31    60  54  46    32  28  18    25  23  13    22  22  13    27  27  17    33  36  20    30  32  19    17  18   7    16  18   8    21  23  11    31  34  21    31  33  20    37  40  27    43  48  31    39  44  31  
  33  39  37    41  46  38    30  34  16    47  51  26    67  70  45    39  43  25    12  15   8     4   8   9     9   9   9     3   5   4    13  18  14    17  22  18    13  18  12    17  22  15    21  24  17    26  27  19    24  26  15    28  30  19    24  27  16    21  24  13    20  23  14    17  20  11    14  17  10    16  19  11    13  13  10     8  10   7    18  23  19    17  22  18    13  18  14    18  23  19    23  25  22    38  38  36    44  44  36    45  41  32    57  50  42    74  65  57    37  28  19    29  25  16    29  29  21    30  31  25    32  33  26    22  24  17     9  10   4    12  15   8    20  24  16    23  26  19    15  18  11    31  34  27    28  34  32    25  31  27  
  39  48  43    44  51  43    22  28  16    26  30  16    31  33  20    13  15   5    12  13   7    11  11   9     7   7   7    12  14  11    19  24  20    19  24  18    16  21  15    19  23  16    21  24  17    26  27  19    22  23  15    26  27  19    23  24  17    18  21  14    16  19  12    14  17  11    11  13   8    10  12   7    12  12  10    13  15  12    22  27  23    17  22  18    11  16  12    17  22  18    27  29  26    39  39  37    41  41  33    40  37  28    66  59  49    75  65  54    42  32  22    41  34  24    35  32  23    32  32  24    33  34  29    23  24  19     7   8   4    11  13   8    21  23  19    22  24  22    12  17  14    33  38  34    28  37  37    20  29  29  
  27  38  30    51  61  54    36  43  38    29  34  30    32  35  30    20  22  16    21  22  17    21  20  15    13  13  12    28  28  25    32  34  30    24  29  23    23  28  21    24  27  20    23  24  18    23  24  18    22  23  17    22  23  17    17  18  12    10  11   6     8   9   5    10  12   9    11  13  10    11  12  10    13  13  10    13  15  12    18  23  18    13  18  14    11  16  12    18  23  19    26  27  25    30  30  28    29  30  25    34  31  24    82  75  65    75  63  50    47  35  22    52  43  32    36  31  22    34  33  25    31  30  26    16  16  11     4   4   2    11  11   8    13  15  13    13  17  16     9  13  12    25  29  29    22  32  33    18  28  27  
  23  31  25    62  71  67    47  56  53    22  30  27    26  31  28    29  33  29    31  32  27    26  26  20    21  21  18    26  27  22    24  26  21    25  30  24    31  36  29    27  30  23    22  23  17    21  21  16    20  21  15    17  18  12    12  13   8     8   9   4     6   7   3     9  10   8    12  14  11    12  14  11    13  13  11    11  13  10    11  16  12    12  17  13    15  20  16    24  29  25    28  30  27    27  27  25    29  33  27    34  34  26    91  83  72    71  58  43    55  40  26    60  49  36    37  30  19    41  38  28    36  35  30    17  16  12     9   9   6    15  15  13     9  11   9    12  16  15    13  18  16    21  26  26    22  32  32    21  31  31  
  21  25  25    34  40  38    38  47  43    27  36  30    11  20  13    16  23  17    30  34  29    32  34  29    19  18  14    21  22  16    20  23  17    31  35  28    40  44  37    36  39  32    30  31  25    23  22  17    18  18  11    12  12   7    11  12   6    12  13   8    11  12   7    11  12   8    13  15  10    13  15  10    16  16  14    13  15  12    11  16  12    14  19  15    17  22  18    23  28  24    29  31  28    27  27  25    31  37  32    31  32  24    74  66  55    63  48  33    66  50  34    58  45  30    35  27  15    39  35  24    47  44  38    27  26  21    18  17  12    19  19  15    10  13   8    16  21  18    18  24  22    24  30  28    22  32  31    19  28  27  
  22  24  27    12  16  15    35  41  37    45  55  46    25  37  25    14  24  15    15  22  15    14  19  14    18  17  12    28  29  23    28  31  24    28  31  24    30  33  26    33  36  29    34  35  29    19  18  13    20  20  12    12  12   4    12  13   5    17  18  12    16  17  11    13  14   8    15  16  11    15  16  11    14  14  12    14  16  13    13  18  14    16  21  17    15  20  16    19  24  20    30  32  29    34  34  32    34  40  36    30  31  25    54  46  35    64  48  32    84  67  49    60  45  29    39  31  18    37  33  21    49  46  39    33  32  25    19  19  11    13  15   9     8  10   5    14  19  15    14  20  17    23  29  25    19  28  25    23  29  28  
  29  30  28    14  16  13    24  30  26    44  54  46    32  42  34    45  55  47    65  75  67    26  33  26    24  26  21    31  32  26    35  37  30    41  42  36    40  41  35    40  43  36    41  44  37    23  26  17    10  11   6    19  20  15    17  18  13    15  16  11    11  12   7    10  11   6    17  18  13    14  15  10    19  21  18    15  17  14    11  13  10    12  14  11    16  18  15    18  19  14    22  27  21    32  37  31    27  25  27    28  27  23    48  44  32    60  44  21    98  68  41    85  55  32    53  35  20    30  27  20    40  37  28    28  27  22     9   9   7    11  13  10    11  16   9    16  21  14    32  34  31    26  27  31    22  26  25    17  23  21  
  35  36  34    22  24  22    18  24  20    31  40  35    28  38  30    31  41  33    47  56  48    34  41  34    20  21  16    22  23  17    28  29  23    35  36  30    34  35  29    29  32  25    26  28  22    20  22  13    13  15  10    17  18  13    15  16  11    17  18  13    13  14   9    10  11   6    17  18  13    20  21  16    11  13  10    12  14  10    10  13   9    12  14  10    14  16  12    16  17  12    20  25  19    31  36  30    33  33  22    33  32  26    43  40  28    46  31   7   111  82  46   110  81  45    58  41  20    34  30  21    37  34  25    28  27  22    13  13  11    13  15  12    12  17  10    17  22  15    32  34  31    26  27  31    18  22  21    17  23  21  
  34  36  35    27  31  30    15  21  18    16  25  20    24  34  27    27  37  29    31  38  31    27  34  27    22  24  19    19  21  15    19  21  15    18  19  13    24  25  19    28  29  23    20  21  15    17  18  10    15  16  11    14  15  10    14  15  10    16  17  12    14  15  10    10  11   6    15  16  11    21  22  17    16  18  13    13  15  10     9  11   6    10  12   7    14  16  11    18  20  15    22  27  22    31  36  31    32  32  19    33  33  24    48  44  33    54  37  12   117  88  49   111  82  41    60  43  17    41  35  26    39  36  27    27  26  21    13  13  11    14  16  13    19  24  17    28  33  26    37  39  36    25  26  30    19  23  22    19  25  23  
  43  46  47    25  30  30    13  19  17    12  21  18    21  30  25    25  35  27    30  37  30    37  42  36    44  46  41    30  32  26    23  26  19    19  21  15    24  25  19    26  27  21    16  17  11    18  19  11    12  13   8    13  14   9    14  15  10    14  15  10    12  13   8    11  12   7    13  14   9    17  18  13    20  23  17    16  19  13    10  12   7     9  10   5    13  15  10    17  19  14    18  23  19    24  29  25    34  31  31    26  26  21    37  32  20    64  46  23   120  90  58   103  71  39    60  40  18    44  37  25    32  29  20    22  21  16    14  14  12    13  15  12    13  18  11    20  25  19    28  29  26    18  19  23    12  16  15    16  22  20  
  52  56  59    25  30  33    19  25  25    16  24  22    15  23  18    27  34  29    37  42  36    42  47  41    30  32  27    26  29  22    26  29  22    24  27  20    25  26  20    23  24  18    18  17  12    17  17   9    12  13   8    13  14   9    17  18  13    14  15  10    12  13   8    14  15  10    13  14   9    15  16  11    17  20  13    20  24  17    19  22  15    16  18  13    15  17  12    13  15  10    14  19  15    19  24  20    28  23  29    29  27  25    30  24  12    67  49  27   110  76  49    91  57  30    56  34  13    50  43  28    40  37  28    27  26  21    19  19  17    15  17  14    11  16   9    14  19  12    19  21  18    14  15  19    10  14  13    18  24  22  
  65  68  73    34  39  42    28  37  37    20  29  28    14  23  20    33  39  35    32  37  31    18  23  17    15  20  13    20  25  18    24  27  19    20  23  16    18  19  13    24  25  19    31  30  25    22  22  14    14  15  10     9  10   5    14  14   9    13  14   9    12  13   8    13  14   9    11  12   7    17  18  13    16  19  10    22  25  17    23  26  19    19  22  15    17  19  14    14  16  11    13  18  14    19  24  19    29  25  23    30  29  24    30  24  14    65  47  23   102  69  33   117  83  47    77  56  28    49  40  23    47  44  34    28  27  22    17  17  15    14  16  13    10  15   8    14  19  12    20  23  20    21  23  26    17  21  20    19  24  22  
  86  84  87    41  43  44    26  33  35    25  34  34    24  32  31    40  44  42    32  36  31    21  23  18    21  26  20    23  27  20    23  26  20    25  28  22    19  20  15    18  20  14    22  21  17    15  16   8    12  13   8     6   7   2    10  11   6    10  11   6    11  12   7    12  13   8    11  13   8    20  21  16    18  20  13    19  21  14    17  19  13    16  18  13    16  17  13    12  14  10    12  16  13    15  20  16    29  27  20    31  30  21    39  32  20    73  53  26   109  77  33   145 113  65   117  97  60    58  48  32    45  41  33    27  25  20    21  21  18    17  20  15    10  15   8    12  17  11    24  27  23    34  35  38    17  20  19    16  21  19  
 131 117 115    76  71  68    33  37  37    28  35  36    26  29  33    36  37  38    33  35  31    25  30  24    28  31  24    28  31  25    26  28  22    26  28  23    17  19  15    21  23  19    17  17  14    12  13   8     8  10   5    10  11   6    14  15  10    12  14   9    14  15  10    17  18  13    15  17  12    18  20  15    19  19  17    15  15  13    10  10   8    16  16  14    17  17  15    11  13  10    14  16  13    16  18  15    23  22  23    38  37  19    48  38  23    82  60  29   123  91  45   144 113  62   157 138  90    73  60  45    48  43  38    29  26  20    18  19  12    16  19  12    12  17  11    10  15  11    18  20  17    22  24  23    15  17  16    21  23  22  
 156 143 137   101  96  91    43  46  42    25  31  28    22  25  23    32  34  30    37  39  33    38  44  35    36  39  30    42  45  37    37  39  30    20  22  12    16  17  10    24  25  18    22  23  16     9  10   4     9  10   5    12  13   8    18  19  14    15  16  11    12  13   8    14  15  10    12  13   8    14  15  10    11  11   9    12  12  10    10  10   8    13  13  11    15  15  13    14  16  13    17  19  16    17  19  16    22  19  20    44  40  24    52  38  25    88  65  33   119  91  44   143 118  69   172 157 110    78  66  47    52  48  38    41  37  29    19  20  12    12  16   8    12  15   9     9  14  10    15  17  14    14  16  14    13  15  14    23  25  24  
 144 133 125   129 125 117    49  52  44    28  34  27    30  31  25    31  30  25    55  57  47    52  58  46    40  43  32    77  81  67    68  70  57    21  22   8    28  28  17    34  34  22    21  23  12    17  18  10    10  11   6    12  13   8    17  18  13    12  13   8     8   9   4    12  13   8    13  14   9    14  15  10     9   9   7    14  14  13    12  12  10    11  11   9    13  13  11    14  16  13    17  19  16    13  15  12    25  21  20    50  43  29    55  40  27    95  72  38   149 126  77   151 130  84   184 171 126    99  88  62    57  51  37    53  49  37    22  22  12    14  15   9    11  13   8     8  13   9    16  18  15    17  19  16    13  15  12    21  23  22  
