P3
50 50
255
  80  72  61    72  65  54    68  61  51    76  67  57    76  66  56    71  61  49    64  55  40    62  53  38    72  62  49    74  64  54    65  57  46    64  55  44    61  53  40    58  50  37    49  41  28    53  45  32    54  47  33    59  53  37    61  55  39    58  52  36    52  47  33    49  46  31    56  53  38    54  50  37    46  43  30    49  47  34    45  43  29    43  41  26    50  48  33    59  57  42    65  64  46    54  53  35    52  51  33    54  52  36    59  57  42    61  59  44    56  55  40    60  59  46    65  63  50    57  55  42    60  58  45    64  62  49    63  61  48    62  61  48    57  55  43    61  59  46    62  61  46    58  57  43    36  36  25    30  30  22  
  60  48  35    58  51  41    60  56  49    76  69  66    90  83  75    72  66  54    58  53  36    58  55  38    52  49  36    54  50  41    57  51  37    55  49  35    53  47  33    50  45  33    38  34  22    47  45  34    53  51  39    56  50  34    55  49  33    50  44  28    52  45  32    58  52  38    61  55  41    54  49  37    53  49  38    57  53  42    45  43  30    55  53  40    53  50  38    53  51  38    50  52  38    46  48  34    48  50  36    48  51  37    43  47  33    38  42  28    47  49  35    48  46  33    41  39  26    31  30  16    38  36  23    41  38  26    38  34  22    36  34  21    41  39  26    47  45  30    42  41  23    45  42  27    39  34  23    30  25  16  
  50  47  34    48  46  33    47  46  33    44  46  33    53  55  42    54  56  43    49  50  37    43  43  31    36  36  24    35  35  23    40  41  27    42  43  29    47  48  35    47  49  36    54  58  44    52  56  42    50  53  41    47  49  39    50  53  42    63  65  54    54  56  45    49  51  40    50  52  40    46  46  34    46  46  34    36  36  24    32  32  20    39  38  26    47  45  32    42  40  27    48  46  33    44  42  29    45  43  30    50  48  36    47  45  33    41  39  27    43  41  29    50  48  35    46  43  31    41  39  26    57  55  42    57  53  41    51  47  35    49  46  32    44  42  27    46  44  29    45  43  28    46  44  29    39  37  22    29  27  12  
  48  46  33    40  41  26    41  42  28    40  42  29    40  42  29    44  46  33    47  49  36    51  51  39    55  55  43    53  53  41    55  56  42    57  57  44    56  57  45    53  55  42    55  59  44    48  52  38    47  50  37    43  45  35    40  42  31    43  44  34    34  37  25    33  35  24    36  38  27    40  41  29    39  39  27    32  32  20    38  38  26    44  44  32    45  44  31    40  38  25    36  34  21    41  39  26    45  43  30    50  48  36    53  51  39    49  47  35    50  48  36    58  56  43    54  52  39    48  45  33    49  47  34    53  50  37    57  53  41    60  57  43    64  62  47    64  62  47    48  46  31    43  41  26    41  39  24    36  35  20  
  47  47  35    46  48  35    49  51  38    54  57  43    47  49  36    53  55  42    59  61  48    53  54  42    52  52  40    51  51  39    52  52  40    50  50  38    39  40  27    31  33  20    32  36  22    29  32  21    32  34  24    29  30  22    27  29  19    29  31  20    27  29  18    28  30  19    31  33  22    38  39  29    39  39  29    33  33  21    41  41  29    45  45  33    43  43  31    35  34  22    29  30  16    32  33  19    35  35  22    39  39  27    38  38  26    35  35  23    39  38  26    46  44  31    46  44  31    43  41  28    33  31  18    37  35  22    43  39  27    40  37  25    36  34  21    38  36  23    36  34  21    33  31  18    28  26  13    26  24  11  
  60  63  49    65  69  55    65  69  55    58  60  47    46  48  35    45  47  34    44  46  33    37  39  26    40  41  29    47  47  35    48  48  36    50  51  38    42  44  31    38  40  28    37  39  28    31  34  23    33  35  25    32  33  25    31  32  24    30  32  21    29  31  20    28  31  20    28  30  19    31  33  22    38  40  29    36  36  25    35  35  23    39  39  27    41  41  29    32  32  20    41  41  29    33  33  21    35  35  23    41  41  29    35  35  23    32  32  20    36  36  23    32  31  18    35  33  20    39  37  24    34  32  19    39  37  24    46  43  30    52  50  37    50  48  35    50  48  35    48  46  33    37  35  22    30  29  15    38  36  23  
  34  37  26    38  41  30    37  40  29    36  40  27    38  42  28    37  39  26    34  36  23    36  38  25    41  43  30    47  49  35    52  54  41    48  50  39    37  39  28    31  33  22    29  31  20    30  32  21    33  35  25    36  37  29    33  34  26    29  30  22    26  27  19    27  29  18    27  29  18    22  25  13    32  34  23    35  37  26    32  32  22    33  33  21    37  37  25    35  35  23    37  37  25    28  28  16    31  31  19    40  40  28    37  37  25    35  35  23    41  41  30    44  44  32    43  43  31    42  40  28    40  38  26    41  39  27    46  44  32    44  42  29    49  47  34    58  56  43    62  60  47    56  54  41    47  45  32    42  40  27  
  30  32  21    31  33  22    37  39  28    36  38  27    28  31  20    26  29  18    35  37  26    36  38  27    28  30  19    30  32  21    28  30  19    31  33  22    33  35  24    35  37  25    31  32  24    29  30  22    24  25  17    25  26  18    28  29  20    29  30  22    25  26  18    26  28  19    28  30  19    25  27  16    33  35  24    37  39  28    36  38  27    31  31  20    33  33  21    38  38  26    32  32  22    30  30  20    32  32  21    38  38  26    40  40  28    36  36  24    33  33  21    34  34  22    39  39  27    38  38  26    42  39  28    39  37  25    46  44  32    45  43  31    43  41  28    45  43  30    55  53  40    56  54  41    50  48  35    45  43  30  
  33  35  24    34  34  24    39  39  29    44  46  36    30  33  21    23  26  15    32  35  23    31  33  22    27  29  18    33  35  24    33  35  24    31  33  22    34  36  26    35  36  28    30  31  23    29  30  22    21  22  14    26  27  19    30  31  23    34  35  27    27  28  20    28  29  21    31  32  23    31  33  22    36  38  27    34  36  25    32  34  23    28  29  18    29  29  17    32  32  20    22  22  12    26  26  16    26  26  16    27  27  15    28  28  16    25  25  13    25  25  13    29  29  19    32  32  22    33  33  23    37  34  24    32  29  20    33  30  21    31  29  17    34  32  19    41  39  26    52  50  37    46  44  31    40  38  25    46  44  31  
  34  34  24    34  34  24    34  34  24    31  33  22    25  28  17    24  28  17    20  23  12    21  23  12    29  31  20    25  27  15    26  28  17    28  30  20    41  42  34    48  49  41    45  46  38    44  45  37    32  33  26    35  36  29    35  36  28    38  39  31    29  30  22    35  36  28    45  47  37    35  37  26    34  36  24    24  26  15    18  20   9    21  22  11    28  28  17    25  25  13    22  22  12    23  23  13    27  27  17    29  29  18    28  28  16    31  31  19    36  36  24    29  29  19    22  22  12    22  22  12    27  27  17    28  25  16    28  25  16    29  27  15    34  32  19    32  30  17    33  31  18    32  30  17    33  31  18    33  31  18  
  25  27  16    29  31  20    25  27  16    27  28  18    31  33  22    32  34  23    30  30  23    29  30  22    27  28  22    26  27  21    29  30  22    27  28  20    28  29  21    32  33  25    35  36  28    31  32  24    28  30  21    27  30  21    26  27  19    28  29  21    27  28  19    24  25  17    26  27  19    27  27  18    26  26  16    24  24  14    23  23  13    24  24  14    24  24  14    23  23  13    19  20  12    26  26  18    24  24  15    25  25  15    29  29  18    31  31  19    34  32  20    32  30  19    28  25  16    27  24  15    25  25  15    23  23  13    22  22  13    24  24  15    24  24  14    23  23  14    19  19  11    19  19  11    20  20  13    18  18  10  
  26  28  17    24  26  15    34  36  25    37  39  28    35  37  26    32  34  24    28  29  21    24  25  17    22  23  16    23  24  18    23  24  16    23  24  16    25  26  18    27  28  20    27  28  20    24  25  17    23  24  16    24  25  17    22  23  15    22  23  15    20  20  12    17  17  10    22  22  14    25  25  16    25  25  15    25  25  15    25  25  15    26  26  16    24  24  14    22  22  12    15  15   8    21  21  13    22  22  13    23  23  13    26  26  16    24  24  12    28  26  15    32  29  20    27  24  15    27  24  15    26  26  16    24  24  14    22  22  13    21  21  11    21  21  11    20  20  12    20  20  12    20  20  12    18  18  11    13  13   5  
  27  28  20    27  28  20    33  34  26    31  33  23    27  29  18    24  24  17    20  21  13    16  17   9    15  16   8    20  21  13    21  22  14    21  22  14    21  22  14    20  21  12    18  19  11    18  19  11    18  19  10    19  19  11    21  21  13    25  23  16    22  19  12    17  14   7    17  14   7    22  21  12    23  23  13    23  23  13    23  23  13    23  23  13    22  22  12    21  21  11    19  19  11    21  21  13    22  22  13    23  23  13    23  23  13    22  19  10    24  21  12    27  24  15    24  21  12    26  23  14    26  26  16    24  24  15    21  21  13    21  21  12    22  22  12    21  21  13    23  23  15    26  26  18    26  26  18    23  23  15  
  20  20  13    26  27  19    23  24  16    22  23  15    20  21  13    19  20  12    19  20  12    15  16   8    15  16   8    22  23  15    25  26  18    22  23  15    20  21  13    17  18  10    17  18  10    17  18  10    18  18  10    20  17  10    22  19  12    27  24  17    25  20  14    21  16  10    18  13   7    19  18   9    20  20  10    19  19   9    18  18   8    19  19   9    19  19   9    19  19   9    21  21  13    17  17   9    17  17   8    18  18   8    18  15   6    17  14   5    20  16   7    21  18   9    20  18   9    24  21  12    23  23  13    20  20  12    19  19  11    20  20  10    20  20  10    18  18  10    18  18  10    21  21  13    23  23  15    24  24  16  
  26  27  19    28  29  20    27  28  20    26  26  18    23  24  16    25  26  18    27  28  20    23  24  16    20  21  13    24  24  17    24  25  17    21  22  14    20  21  13    20  21  13    21  22  14    21  22  14    21  21  13    22  19  12    19  16   9    22  17  11    22  17  11    23  18  12    22  17  11    19  15   7    19  16   7    20  17   8    20  17   8    19  16   7    18  15   6    18  15   6    19  19   9    15  15   5    18  16   8    19  16   9    17  14   7    18  15   8    19  16   9    19  16   7    22  19  10    25  22  14    20  20  12    17  17   9    17  17   9    18  18   8    21  21  11    18  18   9    15  15   7    14  14   6    12  12   4    15  15   7  
  19  19  12    17  17  10    22  22  14    22  22  14    22  22  14    24  24  16    28  28  20    25  25  17    21  21  12    22  22  12    18  18  10    18  18  10    21  21  13    24  24  16    25  25  17    23  23  14    21  20  12    19  16   9    16  13   6    18  15   8    18  15   8    22  17  11    20  15   9    17  13   5    19  16   7    22  19  10    24  20  12    22  19  10    18  16   6    16  13   4    16  16   6    16  16   6    22  19  11    22  20  12    20  17  10    21  18  11    21  18  11    21  18   9    24  21  13    25  22  15    19  19  12    15  15   8    16  16   8    16  16   7    20  20  10    20  20  12    20  20  12    19  19  11    13  13   5    15  15   7  
  17  17   9    19  19  10    19  19  11    15  15   9    15  14   9    17  17   9    20  20  11    21  21  12    20  20  10    19  19   9    15  15   7    16  16   8    19  19  11    20  20  13    21  21  13    20  20  12    18  18  10    14  14   6    15  15   7    19  19  11    18  15   8    19  16   9    17  14   7    18  15   8    22  19  12    23  20  13    23  20  13    21  18  11    19  16   9    19  16   9    13  13   3    17  14   5    21  18  10    19  16   9    16  13   6    18  15  10    18  16   9    20  17   9    20  18  10    23  20  13    21  21  13    18  18  10    18  18  10    14  14   5    17  17   7    16  16   8    21  21  13    24  24  16    18  18  10    19  19  12  
  24  24  16    21  21  13    14  14   6    15  14   8    17  16  11    17  17   9    17  17  10    21  21  12    21  21  11    19  19   9    18  18  10    19  19  11    18  18  10    16  16   7    15  15   7    17  17   9    19  19  11    17  18  10    18  18  10    19  19  11    12  12   4    15  15   7    18  18  10    22  20  12    24  21  14    22  19  12    20  17  10    19  16   9    20  17  10    22  19  12    20  20  10    23  20  11    24  21  13    17  14   7    15  12   7    18  15  10    19  14   9    17  14   6    15  12   5    19  15   9    21  21  13    21  21  13    20  19  13    19  19  10    19  19   9    15  15   7    21  21  13    28  28  20    23  23  15    24  24  16  
  22  22  14    19  19  11    15  15   7    17  17  11    15  14   9    14  14   6    18  18  10    21  21  12    20  20  10    18  18   8    18  18  10    18  18  10    12  12   4    14  13   8    19  18  13    16  15  10    14  13   9    13  12   7    18  18  11    21  21  13    19  17   8    17  14   4    18  16   4    20  17  10    24  21  16    24  21  15    20  17  10    19  16   9    23  20  13    27  24  17    25  24  12    22  21   8    25  23  11    23  21   9    21  18   9    23  20  11    22  19  10    23  20  11    20  17   8    18  15   6    20  17   8    24  22  10    24  22  10    20  17  10    19  16   9    20  16   9    27  24  15    34  32  21    33  31  19    31  29  17  
  25  25  17    21  21  13    14  14   6    14  13   7    12  11   6    13  13   5    18  18  10    21  21  12    20  20  10    19  19   9    26  26  18    20  20  12    14  14   6    13  13   7    15  14   9    15  14   9    15  14   9    13  12   7    16  16   9    19  19  12    23  20  11    22  19   9    22  20   8    22  20  11    22  19  12    20  17  10    18  15   8    21  18  10    23  20  10    22  19  10    24  22  10    23  21   9    26  24  12    24  22  10    21  18   9    22  19  10    23  20  11    29  26  17    26  23  14    23  20  11    24  21  12    27  25  13    27  25  13    24  21  13    22  19  12    19  16   7    22  20  10    31  29  17    34  32  19    36  34  21  
  23  23  15    20  20  12    15  15   7    16  16   8    15  15   7    16  16   8    21  21  12    22  22  14    21  21  12    21  21  11    29  29  21    18  18  10    15  15   8    13  12   7    12  11   6    14  13   8    15  14   9    14  14   7    14  14   6    17  17   9    24  21  12    26  23  14    24  22  11    23  20  10    24  21  12    23  20  11    23  20  11    25  23  12    25  23  11    22  20   8    28  26  14    30  28  16    35  33  21    33  30  21    29  26  17    30  27  18    29  27  18    26  26  16    23  23  13    20  20  10    20  20  10    22  22  10    23  23  11    25  23  13    29  27  15    29  27  15    29  27  15    35  33  20    36  34  21    35  33  18  
  16  16   8    16  16   7    18  18  10    21  21  13    20  20  12    20  20  12    21  21  13    21  21  13    20  20  12    21  21  13    20  20  12    13  13   6    15  14   9    15  13   8    15  14   9    17  16  11    15  14   8    15  15   7    14  14   6    15  15   7    22  19  10    25  23  14    24  21  12    24  21  12    29  26  15    33  31  19    32  30  18    31  29  17    29  27  15    29  27  14    26  24  12    29  27  15    33  31  20    32  30  21    30  27  18    32  29  20    33  31  21    28  28  18    27  27  17    24  24  14    23  23  13    25  25  13    26  26  14    32  31  19    41  39  26    42  40  27    41  38  26    43  41  27    41  39  24    36  34  19  
  16  16   8    16  16   8    20  20  12    22  22  14    20  20  12    18  18  10    17  17   9    16  16   8    16  15   9    18  17  12    13  12   7    11  11   6    14  13   8    14  13   8    18  17  12    21  21  13    17  17   9    18  18  10    17  17   9    17  17   9    21  18   9    23  20  11    22  19  10    23  20  11    27  24  13    28  26  14    25  24  12    26  24  12    27  25  13    28  26  13    22  22  10    25  25  13    26  26  16    25  25  15    23  23  13    25  25  15    29  29  19    27  27  17    27  27  17    25  25  15    25  25  15    27  27  15    28  28  16    30  29  16    34  32  19    30  28  15    25  23  10    28  26  13    29  27  14    28  26  13  
  21  21  13    19  19  11    18  18  10    21  21  13    19  19  11    16  16   8    16  15   8    16  15  10    17  15  10    18  17  12    14  13   8    15  14   9    14  13   8    14  13   8    20  20  12    24  24  15    20  20  11    21  21  11    22  22  12    19  19   9    21  18  11    23  20  13    22  19  12    24  21  13    23  20  11    19  16   7    18  15   6    23  20  10    26  24  12    25  23  11    25  25  15    25  25  15    25  25  15    23  23  13    21  21  11    22  22  13    24  24  16    20  20  10    20  20  10    19  19   9    20  20  10    23  23  11    24  24  12    28  26  14    32  30  17    26  24  12    22  21   8    26  24  12    28  25  14    28  26  14  
  21  21  13    19  19  11    16  16   8    19  19  11    17  17   9    15  15   7    16  16  11    18  17  12    17  16  11    17  16  11    15  14   9    16  15  10    15  14   9    17  17  10    20  20  12    20  20  12    20  20  11    21  21  11    22  22  12    19  19   9    22  19  12    24  20  14    21  18  11    24  22  14    25  22  15    22  19  12    22  19  12    27  24  16    29  26  17    27  24  15    21  21  11    21  21  11    20  20  10    20  20  10    18  18   8    17  17   9    20  20  12    19  19   9    18  18   8    18  18   8    20  20  10    24  24  12    23  23  11    23  22  10    26  24  12    24  22  10    25  22  11    26  23  14    23  20  11    21  18   9  
  16  16   8    14  14   6    16  16   8    18  18  10    14  14   6    12  12   4    15  14   9    17  16  11    14  13   8    12  11   7    13  12   8    15  14   9    17  16  11    21  21  14    18  18  10    14  14   6    18  18   9    19  19   9    19  19   9    18  18   8    22  19  12    24  21  14    20  17  10    15  12   6    17  14   9    21  18  13    22  19  12    22  19  12    22  19  12    20  17  10    17  17   7    19  19   9    19  19   9    21  21  11    19  19  11    17  17   9    20  20  12    20  20  10    18  18   8    18  18   8    21  21  11    24  24  12    23  23  11    24  22  12    25  22  13    24  21  12    26  22  13    26  23  14    21  18  11    19  16   9  
  20  20   8    24  24  12    23  23  14    16  20  13    13  15  10    15  15  10    19  18  15    12  11   9    17  16  14     8  10   7    13  11  15    14  16   8    15  17   4    18  20  12    17  17  15    15  14   9    20  20  11    24  22  18    15  19  13    17  36  24    43  55  43    29  25  18    15  13   4    12  15   4    12  14   3    15  16   8    16  17  12    15  16  11    15  17   9    14  15   7    16  16   8    18  18  10    18  18  10    19  19  11    20  20  12    19  19  11    20  20  12    19  19  11    15  15   7    19  19  11    25  25  17    24  24  17    21  20  15    22  22  12    22  22  10    22  22  10    26  26  13    25  25  13    19  19   7    20  20   8  
  47  51  36    61  65  51    33  36  25     8  15   2    29  36  21    66  68  55    41  41  30    17  17   8    15  15   7    10  11   3    12  12   9    14  15   7    19  21   9    30  31  21    33  34  28    16  15  10    16  16   9    10   9   5    35  42  35   103 122 110    80  91  82    30  27  20    16  15   7    13  14   4    10  10   1    13  13   6    18  17  13    15  14   9    13  12   5    17  17   9    20  20  12    20  20  13    20  20  12    20  20  12    18  18  10    15  15   7    17  17   9    19  19  11    15  15   6    16  16   8    19  19  11    20  19  12    19  18  13    22  22  13    24  24  14    21  21  11    18  18   8    20  20  10    19  19   9    21  21  11  
  77  88  69    58  69  52    21  32  16    27  39  18    72  82  62    81  85  70    31  32  20    15  15   6    19  19  11    31  30  25    41  44  33    22  26  15    18  21  11    35  37  25    40  42  29    10  10   3    12  11   7    14  15  10    83  91  84   122 139 129    36  45  38    16  13   8    15  13   8    16  14   6    18  15   6    19  16   9    20  17  13    16  13   9    12   9   3    17  14   7    13  13   5    16  16   8    17  17   9    19  19  11    19  19  11    18  18  10    19  19  10    17  17   9    13  13   6    14  14   6    15  15   7    15  14   9    15  14   9    17  16  11    21  19  14    17  16  11    12  11   6    16  15  10    19  18  13    20  19  14  
  55  64  45    37  46  28    22  31  14    60  72  55    63  74  58    31  37  25    18  18  13    21  20  17    13  11  11    31  29  32    81  90  70    42  48  36    14  16   8    32  34  22    59  62  45    29  31  21    15  16  13    24  28  22    97 108 100    87 103  93     8  14   7    15  14  10    16  14  10    25  23  15    32  29  19    25  22  15    18  14  10    18  14  10    17  14   8    16  13   6    13  13   5    16  16   8    17  17   9    19  19  11    19  19  11    16  16   8    16  16   8    14  14   6    14  14   6    16  16   8    16  15  10    15  14   9    14  13   8    11  10   6    14  13   9    14  13   9    13  12   8    17  16  12    18  17  13    20  19  15  
  29  33  16    42  46  30    70  74  59    79  90  73    27  38  22     8  14   2    12  14   6    19  19  14    12  12   9    30  30  29    83  97  75    48  58  46    11  14   8    24  25  14    55  56  40    36  38  28    13  14   9    25  31  25    91 106  97    53  66  56     8  13   6    18  19  12    17  17   9    44  41  33    43  40  31    22  19  12    15  12   7    22  18  14    23  21  14    18  15   8    14  14   6    17  17   9    18  18  10    20  20  12    20  20  12    18  18  10    18  18  10    17  17   9    18  18  10    18  17  12    17  16  11    15  15  10    14  13   8    12  11   7    13  12   8    14  13   9    17  16  12    19  18  14    18  17  13    21  19  16  
  42  43  30   123 124 110   159 161 148   133 142 123    93 102  81    67  74  54    40  43  27    20  23   9     8  12   1     9  15   2    51  68  51    73  85  74    36  41  33    16  17   8    35  35  24    46  48  35    22  25  16    34  44  36    97 116 104    40  53  41    14  17   6    17  19   6    31  31  18    64  61  51    42  39  30    13  10   3    13  10   6    23  20  16    25  22  16    20  17  10    15  14   9    18  17  12    19  18  13    21  20  15    21  20  15    19  18  13    21  21  15    22  23  15    20  21  14    16  17  11    15  16  10    16  17  11    16  17  11    18  19  13    16  17  12    14  15  10    18  19  14    19  20  15    17  18  13    20  22  17  
 107 113  99   152 159 145    94 100  87    64  72  56    62  70  52    67  71  54    81  85  68    76  82  64    62  70  51    50  62  42    79  98  87   143 157 147    80  86  78    15  15  10    22  21  16    51  53  40    29  33  20    59  71  64   128 150 137    59  71  57    63  65  52    82  86  68    84  86  66    66  65  52    28  28  18     8   8   1    14  13   8    18  17  12    20  20  13    17  17   9    19  18  13    20  19  14    19  18  13    18  17  12    16  15  10    14  13   8    17  16  11    21  22  16    20  21  15    16  17  11    17  18  12    19  20  14    18  19  14    20  21  15    19  20  14    15  16  10    16  17  11    19  20  14    17  18  12    18  19  13  
 123 135 121    53  66  50     9  21   7     8  15   4     9  12   3    18  21  12    29  32  22    49  54  42    80  90  76    97 110  93   115 133 129   157 172 161    81  88  79    18  18  16    12  11  10    50  53  39    50  55  38    90 104  96   138 161 148    70  83  68    80  81  64    67  72  49    56  59  35    37  38  23    16  19   8    14  15   8    16  17  11    12  13   7    15  16   9    12  13   5    12  11   6    14  13   8    13  12   7    15  14   9    15  14   9    14  13   8    16  16  10    17  18  12    17  18  12    18  19  13    20  21  15    23  24  18    20  21  16    16  17  12    18  19  13    15  16  10    14  15   9    20  21  15    18  19  13    13  14   8  
  39  45  41    14  16  13    13  12  10    13  10   7    14  10   7    15  15  10    11  13   7    18  24  15    40  49  38    27  37  26    53  81  59   119 139 122    48  56  46    18  11   9    18  10   8    27  31  23    74  93  79   129 158 144    92 106  97    30  33  27    18  20  15    11  16  10    11  14   9    12  12   8    14  13   9    14  13   9    13  12   8    12  11   7    10   9   5     9   8   4     8   9   4    10  11   6    12  13   8    12  13   8    11  12   7    10  11   6    11  11   6    12  13   8    11  12   7    13  14   9    16  17  12    18  19  13    17  18  12    17  18  12    16  17  11    15  16  10    14  15   9    14  15   9    15  15  10    16  17  11  
   5  10   6    12  13   8    15  16  11    15  13   9    10   8   5     9  10   4    15  19  11    64  72  60    98 110  96    62  75  58    70  84  69    65  79  66    22  30  22    12  14   9     8  10   5    14  27  18   111 136 122   129 154 141    42  53  45    10  11   6     5   7   2     3   7   1     9  11   6    12  13   8    10  11   6     7   8   3     7   8   3     9  10   5     9  10   5     8   9   4    11  12   7    12  13   8    14  15  10    14  15  10    13  14   9    13  14   9    14  15  10    17  18  13    17  18  13    16  17  12    16  17  12    15  16  10    15  16  10    15  17  10    15  16  10    14  15   9    15  16  10    19  20  14    23  24  18    26  27  21  
  13  18  12    17  20  13     9  12   6     8   9   4     8   9   4    10  13   6    30  38  27    66  78  63    78  93  74   117 134 115   100 111 100    55  69  59    55  69  61    14  24  20     3  12   9    23  38  31   106 129 117    71  92  80     7  13   8    15  15  11    11  10   6    10  12   7    10  10   6     8   8   5     7   7   5     6   6   4     5   5   3     6   6   4     7   7   5     9   9   7     9  10   5    11  12   7    14  15  10    15  15  10    15  16  11    17  18  13    18  19  14    19  20  15    19  20  15    17  18  13    14  14   9    11  12   7    13  14   8     9  10   4     8   9   3    11  12   6    15  16  10    20  21  15    22  23  17    21  22  16  
  67  72  65    86  92  84    38  44  34    11  14   7    11  13   8    16  21  14    42  51  39    71  84  66    80  97  76   115 133 111    91 108  98   118 139 131   149 171 164    98 113 110    15  24  23    23  30  28    97 110 104    49  62  56    13  15  12    14  10   7     2   1   1     7   8   3     7   5   1     4   2   1     4   4   3     8   8   6     7   7   5     5   5   3     5   5   3     8   8   6     6   7   2     8  10   5    11  12   7    11  12   7    12  13   8    14  15  10    15  16  12    14  15  11    15  15  10    14  15  10    12  13   8    11  12   7    12  13   7    11  12   7    11  12   7    13  14   9    18  19  14    21  22  17    20  21  16    16  17  12  
  78  86  77    67  75  64    59  67  56    16  22  14     1   6   1    32  40  29    98 107  95   107 119 103    66  79  61    36  51  32    71  83  77    74  92  86   100 122 117   136 152 151    81  91  90    47  56  53   100 111 106    39  48  42    11  10   8    11   5   5    11  10   6    10  10   6     5   2   1     3   2   1     5   5   3     6   6   4     7   7   5     6   6   4     5   5   3     5   5   3     7   7   5     9   9   7    10  10   8     9   9   7     9   9   7    10  10   8    12  12  10    11  11   9    10  10   8    12  13   8    15  16  11    17  18  13    17  18  13    17  18  13    15  16  11    13  14   9    13  15  10    16  17  12    18  19  14    19  20  15  
  55  67  57    54  64  55   109 117 109    86  95  86    62  72  63   112 122 111   124 132 121    61  69  58    18  26  15     5  13   1    22  18  17     8  12  11    14  25  24    62  72  71   123 133 132   142 158 152   115 132 125    31  37  35    11   9   8    11   5   5     8   8   5     6   7   2     9   7   3     9   8   6     6   6   4     3   3   1     5   5   3     9   9   7     7   7   5     3   3   1     6   8   5    10  11   8    11  13  10    10  12   9    11  13  10    13  15  12    15  17  14    13  15  12    12  14  11    14  17  14    19  21  16    22  24  19    22  24  19    16  17  12    13  14   9    13  14   9    13  14   9    15  16  11    17  18  13    20  21  16  
 121 137 126   113 125 115    92 100  93   140 151 140   162 174 162   122 131 121    43  50  42     8  11   7     6   7   3     3   4   1     4   1   1     7   7   7     8  12  12    16  18  20    55  60  59   101 117 109    58  75  66    11  14  13    14  11  12    15  11  10     7   9   5     5   9   3    12  12   8    11  11   8     8   8   6     8   8   6    10  10   7    12  12  10    11  11   8     8   8   6     8  10   7    13  15  12    16  18  15    15  17  14    15  17  14    18  20  17    19  21  18    18  20  17    18  20  17    18  20  17    19  21  16    19  21  16    19  21  16    14  15  10    14  16  11    18  19  14    19  20  15    19  20  15    19  20  15    20  21  16  
  85 102  91    58  70  63    18  25  21    51  63  51    73  87  74    26  36  27    10  15   8     7   8   4     9   7   7    11   7   8     9  11   8     5  10   7     7   9   9    10   7   8    20  16  17    19  24  18     1  11   5     7  10  10    12   9  10    11  10   8    10  13   9     6  12   5     6   9   3     6   7   4    10  12   9    16  18  15    17  19  16    14  16  13    12  14  11    13  15  12    16  18  15    18  21  17    20  22  19    17  19  16    14  16  13    15  17  14    18  20  17    22  24  21    21  23  20    19  21  18    16  18  14    13  15  10    14  16  11    13  15  10    15  16  11    16  17  12    14  15  10    13  14   9    14  15  10    18  19  14  
  21  26  20    13  14  11     9   9   7    12  13  10    24  26  21    31  33  28    20  22  17     9  11   6     8  10   5     5   8   1     8   7   5     8   6   7     9   9   9    10  11  10     9  13  12     9  13  12     9  13  12    14  16  11    13  15  10    11  13   8    11  13   8    10  12   7     6   8   3     8   9   6    16  18  15    22  24  21    18  20  17    15  17  14    14  16  13    11  16  12    11  13  12    14  16  13    16  18  15    19  21  18    19  21  18    17  19  16    18  19  15    12  12  10     9   9   7    19  19  17    16  17  12    17  19  14    17  20  14    12  13  10    11  13  10    14  16  13    18  23  19    17  23  19    22  28  24    27  33  29  
  14  16  13     9  11   8     9   9   7     5   6   3    13  15  10    32  34  29    38  40  35    27  29  24    15  17  12     8  10   5     7   7   5     5   5   3     5   6   3     8  10   7    13  14  13    12  14  13     9  11   9    12  14   9    14  16  11    15  17  12    15  17  12    12  14   9     7   9   4     8  10   7    15  17  14    21  23  20    18  20  17    17  19  16    18  20  17    15  20  16    14  16  13    16  18  15    18  20  17    20  22  19    22  24  21    21  23  20    19  20  16    13  13  11    16  16  14    20  20  19    17  19  14    15  17  12    15  17  12    14  16  12    21  23  20    26  29  25    40  45  41    43  48  44    39  45  41    49  55  51  
   9  12   9     7   9   6    10  10   8     8  10   7     6   8   5    12  14   9    29  31  26    49  51  46    51  53  48    32  34  29    19  21  16    15  17  12    11  13   8    10  12   7    10  10   8     7   7   5     6   7   5    12  14  11    14  16  13    17  19  16    17  19  16    14  16  13     9  11   8    11  13  10    17  19  16    21  23  20    19  20  18    19  21  18    19  23  20    17  22  18    16  18  15    19  21  18    21  23  20    22  24  21    21  23  20    18  20  15    16  18  14    18  19  16    24  26  23    24  26  23    26  28  23    27  29  24    28  32  26    32  35  31    34  39  35    41  46  42    51  56  52    49  55  51    47  53  49    48  54  50  
  10  12   9    10  12   9    12  12  10     7   8   5     9  11   8    10  12   9     8  10   5    22  24  19    41  43  38    42  44  39    37  42  35    36  41  34    33  36  30    25  26  21    17  18  13    15  14  10    14  14  10    13  15  12    14  15  13    14  16  13    14  16  13    12  14  11    10  12   9     8  10   7    12  14  10    15  17  14    15  17  14    16  20  16    16  21  17    13  18  14    19  21  18    19  21  18    18  20  17    18  20  17    16  18  13    15  17  12    16  18  14    22  24  21    29  31  28    31  33  30    32  37  33    36  41  37    40  45  41    45  49  48    48  52  51    49  54  53    44  50  48    44  50  48    47  53  51    40  49  46  
  12  14  11    12  13  10    12  12  11    13  14  12     8  10   7     6   8   5     6   7   5    10  12   8    15  17  12    13  15  10    20  25  18    22  27  20    22  26  20    17  18  13    10  11   6    10   9   5    11  11   7    12  14  11    12  14  11    13  15  12    11  13  10     9  11   8     8  10   7     6   8   6    10  12   9    15  17  14    16  21  16    19  24  20    19  24  20    16  21  17    16  21  17    14  19  15    10  15  10    11  16  10    16  21  15    21  26  20    28  33  27    31  36  32    37  42  38    42  47  43    38  43  39    39  45  41    45  51  47    46  52  50    53  59  57    50  56  54    46  52  51    54  60  58    55  61  59    54  62  59  
  13  15  12    12  13  11    11  11  11    10  10   8    10  10   8    12  12  10    11  11   9    11  11   9    13  13   9     9  10   5     9  11   6     9  11   6    11  13   8    11  13   8    12  12  10    11  11   9     9  10   7    10  12   9    11  13  10    14  16  13    12  14  11     8  10   7     6   8   5    10  12   9    16  18  15    19  24  20    20  25  21    21  26  22    20  25  21    15  20  16     9  14  10    12  17  13    15  20  14    22  27  20    30  35  29    36  41  35    41  46  41    43  48  44    46  51  47    45  51  47    37  43  39    41  48  44    55  61  59    51  60  57    48  57  54    52  61  58    57  66  63    61  70  67    57  66  63    58  67  64  
  13  15  12    14  15  14    12  12  12    10  10   8    13  13  11    13  13  11     8   8   6    10  10   8    15  15  13    12  13   8    12  12  10    10  10   8     9  10   8    10  12   9    12  14  13    11  13  12    10  12  10    11  13  10    12  14  10    14  16  13    12  14  12     9  10   8     9  11   8    11  13  10    15  20  16    19  24  20    17  22  18    17  22  18    16  21  17    13  18  14    14  19  15    20  25  19    27  32  26    35  40  34    42  47  40    44  49  43    46  51  46    45  51  47    43  49  45    38  44  40    40  46  43    46  53  51    54  63  60    55  64  61    46  55  52    55  63  60    58  67  63    55  64  61    50  59  56    46  55  52  
  14  17  14    12  13  13    13  13  13    13  13  13     9   9   8    12  12  10    17  17  15    15  15  13    14  14  12    17  17  13    16  15  13    15  14  15    13  13  13    10  11  11     7  11  10    10  14  13    12  16  16    13  15  12    12  14  11    13  15  12    11  13  10    11  12  10    14  16  13    13  15  12    15  20  16    20  25  21    19  24  20    22  27  23    24  29  25    22  28  24    31  36  32    33  38  32    33  38  32    37  42  36    42  47  42    46  51  45    48  54  47    48  54  49    46  52  48    42  48  44    54  63  60    57  65  63    49  58  55    48  57  54    49  58  55    49  57  54    45  54  51    49  58  55    42  51  48    41  49  47  
