P3
50 50
255
 148 118  57   128 101  48    80  57  26    76  61  38   121 116  80   103 102  72    42  39  32    22  20  25    87  75  54   195 184 140   165 152 108    62  45  38    90  83  67    86  86  40   102  97  67    86  74  49    37  37  22    38  42  27    48  59  43    51  66  45    76  94  65   137 153 118   178 189 158   104 110  84    47  37  34    64  50  31   106  89  51   155 136  94   104  90  63    33  26  18    17  14  13    15  10   7     9  13  12    15  17  12    17  16  11    12  13   8    19  19  14    31  31  21    89  80  60    91  74  46    94  71  37   109  83  47    91  61  29    71  44  19    59  42  25    54  46  35    43  39  27    40  34  19    55  52  33    33  34  18  
 148 121  61   144 120  67   115  94  61    92  80  59    72  66  41    58  56  29    44  41  30    27  20  29    68  53  38   157 143 106   161 148 104    77  66  52   104 103  85    82  86  53    29  27  12    37  31  16    36  34  21    30  31  21    38  43  34    40  49  34    56  68  44   118 129 101   152 159 134    74  78  58    41  35  28    47  40  26    69  54  24   145 122  83   121 106  74    34  31  17    13  13  10    15   8   8    10  14  13    12  13   8    16  15  11    14  15  11    16  17  12    33  33  23    81  73  54    91  73  46    98  74  35   117  87  48   118  85  47   101  71  42    68  49  31    53  44  33    38  37  26    28  27  17    42  38  24    43  43  28  
 135 108  60   134 111  66   130 114  69   132 124  86    51  47  16    62  61  26    77  74  48    39  29  31    89  72  61   144 128  99   175 163 122    99  91  73    75  78  59    83  91  69    24  26  27    27  25  23    52  49  39    40  38  32    28  30  24    33  38  28    52  58  41    89  93  74    92  93  77    38  36  25    39  38  26    46  42  32    51  37  17   131 108  74   132 116  82    44  43  24    11  13   9    16  11  11     7  11  10    16  17  12    17  16  12    14  14  12    18  18  16    31  31  23    63  54  36    92  75  49   111  88  47   105  76  34   118  83  44   114  82  51    67  46  27    46  38  28    33  34  27    20  22  16    52  45  32    71  69  53  
 130 105  58   114  92  65   125 111  72   135 128  78    57  50  16    77  69  37   111 104  67    64  55  34   110  95  67   129 113  89   172 162 120   130 122  90    51  49  28    73  75  56    44  46  44    27  27  31    87  84  58    85  82  52    32  30  18    32  28  29    46  46  32    44  45  34    34  34  31    20  21   4    40  39  32    34  33  24    46  38  23   118 103  72   146 130  91    61  49  30    17  11  11    12  13   8    14  11  13    13  13   8    18  19  12     9  13   8    21  21  19    36  31  23    64  52  29    98  80  44   128 101  57    97  70  32    87  62  31    80  61  40    45  34  21    35  30  24    21  22  17    15  17  12    50  46  30    77  75  59  
 129 107  58    93  71  47   100  85  53   128 119  75    56  47  18    63  53  26   111 103  65   115 105  73   130 116  79    91  74  58   148 138 102   158 149 116    54  48  28    56  56  37    63  62  57    39  40  36    99  95  63   144 141  98    55  50  30    16  11   9    44  42  29    24  23  18    10  10  12    22  25   6    45  44  39    28  28  18    26  19   9    72  60  34   128 113  72    73  57  34    22  14  12    14  17  11    17  11  11    10   9   5    13  15   9    11  16   9    24  25  20    53  47  34    87  75  49   101  85  50   126 102  65    97  75  44    64  48  25    46  34  20    25  21  12    22  21  16    13  14   9    14  16  11    50  47  28    61  57  41  
 130 108  61   106  85  54    79  62  36   104  93  66    70  62  42    46  38  18    98  87  57   150 138 100   148 133  94    63  45  35   120 108  85   158 151 124    62  55  40    42  38  27    71  68  63    57  58  44    86  77  49   158 151 107   103  98  68    32  26  14    45  40  29    25  24  25    11  10  15    25  29  12    43  44  34    22  22  14    20  15  11    54  43  24   129 116  75   107  93  63    32  24  20    14  14  14    18  15   8    13  12  10    13  13  15    20  22  19    34  34  21    77  72  52    96  86  64    77  61  40    83  67  42    73  58  38    42  31  16    27  21  11    20  17  12    13  13   9     9  10   5    19  20  15    54  57  34    71  74  52  
 103  82  39   115  95  59   109  91  66    65  53  39    53  46  37    41  35  21    84  73  45   169 153 112   144 128  93    49  32  31    85  72  61   111 103  84    51  45  36    33  28  23    53  48  45    60  59  38    80  69  46   138 131  89   126 121  83    67  62  40    61  57  45    24  22  24    11  10  14    32  36  20    39  41  30    18  19  10    18  14  14    44  35  24   141 129  92   147 134 100    47  39  30    13  12  15    15  15   4    14  13  11    15  13  18    24  23  20    48  47  28    92  88  63    75  68  47    38  26  17    32  24  12    39  32  22    26  23  15    22  20  15    19  19  15    11  12   7    19  18  14    33  32  26    50  54  31    85  88  67  
  84  65  25   115  95  59   122 103  75    47  34  23    30  25  24    47  44  31   110  99  69   200 180 141   141 128  98    38  24  28    61  53  43    77  73  58    34  31  26    24  21  18    33  28  25    48  45  28    64  54  40    92  86  55   112 108  74   105 103  75   104 103  86    43  42  38    17  18  16    40  43  31    35  36  29    15  18   7    17  16  14    32  24  19   118 108  77   153 143 109    66  58  46    21  19  20    17  17   7    16  15  13    17  13  18    21  17  12    57  56  35    90  87  61    48  43  28    21  13  13    16  14   9    26  25  20    24  24  19    19  21  15    23  25  19    28  29  22    42  41  34    43  43  34    50  53  32    83  86  66  
  80  63  26   106  86  53   117  98  64    45  33  15    18  16  18    47  47  33   135 124  90   203 178 146   105  96  75    29  18  22    64  60  48    75  76  62    20  21  17    10  11   5    16  14  12    21  17  11    31  27  18    42  39  23    80  79  55    88  89  64   105 106  85    66  69  54    27  28  19    50  51  44    31  31  31     9  13   1    16  17  10    22  16  13    74  63  41   118 106  79    68  60  47    29  27  21    24  25  19    25  24  22    27  22  21    30  23  14    68  64  44    72  70  48    26  23  13    19  14  17    17  16  13    20  21  16    25  27  21    23  26  17    39  42  32    47  49  37    49  50  37    41  42  29    48  50  33    71  73  56  
  85  69  35    94  73  44   103  84  45    50  40  14    21  20  25    43  45  31   161 152 112   153 126  99    39  31  17    32  22  24    83  84  66    85  89  75    19  22  21    10  13   4    13  11  12     9   5   9    14  15   9    22  23  16    62  64  49    61  65  42    65  68  44    80  84  61    74  76  62    63  64  58    27  26  32    14  18   4    14  16   5    28  23  20    79  70  53   100  90  64    44  36  23    24  21  12    26  28  24    33  32  30    41  36  30    48  42  28    83  78  58    58  55  38    18  15   8    19  17  20    24  23  19    17  16  12    24  25  17    29  32  22    52  56  42    47  49  35    34  35  20    34  35  19    35  36  22    44  45  31  
  88  69  38    84  65  36    92  76  43    60  45  26    41  24  16    90  78  52   194 185 144   108  96  73    26  21  24    41  39  24   130 129 106    71  68  56    20  16  13    14  12   7    10   9   4    11   9  10    10  14   1    23  23  15    73  68  45   111 103  79    47  38  28    89  87  60   113 120  79    54  60  50    32  37  33    39  41  28    23  18  12    34  25  16   102  96  70   102  97  77    24  21  16    11  12   6    24  17  12    26  26  19    29  32  21    54  55  41    92  84  73    57  47  38    20  18  13    18  23  19    21  21  19    15  16  11    19  20  14    37  38  29    46  48  36    31  34  25    30  33  24    29  32  26    32  30  20    37  33  22  
  86  69  43    78  62  35    81  67  37    61  46  27    56  41  25   156 146 111   188 178 140    84  72  59    48  39  34   111 106  86   161 156 133    55  50  38    14  11   6    11   8   3    13  12   7    11  10  10    23  24  12    28  24  18    71  65  37   134 128  89    65  55  37    71  65  45    87  89  60    38  41  29    27  32  24    50  53  37    55  52  43    44  37  27    79  73  50    71  66  48    17  13  10    13  14  10    17  13  11    19  19  14    20  22  12    47  47  34    78  72  60    48  41  34    24  23  18    21  26  22    17  18  13    20  21  14    26  28  19    39  41  30    34  36  25    31  34  25    35  38  29    45  47  41    56  54  42    48  46  34  
  73  59  39    74  60  36    72  58  34    56  41  21    92  78  52   203 193 150   140 129  95    54  40  37   104  90  73   192 182 159   158 151 130    35  29  17    12   8   4    13  11   6    13  12   7     9   9   7    26  24  16    43  37  33    77  71  37   147 141  86   101  91  61    61  53  40    59  57  42    52  53  41    30  34  22    36  39  21    59  56  46    56  50  40    77  74  51    56  53  36    17  13  11    14  13  11    15  12  14    15  15  11    19  19  10    46  45  33    57  53  43    27  24  19    21  23  17    25  30  23    27  28  21    29  30  22    44  46  35    54  56  44    45  47  35    40  43  33    35  38  30    36  39  32    50  50  36    50  49  36  
  58  49  33    63  53  36    60  47  29    56  41  19   143 131  93   198 186 143    82  70  44    46  32  29   162 146 116   220 206 181   106  97  81    22  15   5    10   7   2    14  13   9    10   8   5    12  12   8    25  22  17    49  41  38    88  81  45   159 152  90   119 110  71    38  27  20    35  31  26    53  53  41    50  52  39    33  36  17    38  37  26    51  48  38    90  89  67    59  56  41    16  12  11    14  11  10    12  12  14    15  13   8    34  31  20    67  64  52    51  50  42    16  16  11    15  17  12    19  23  14    30  31  23    35  36  28    57  59  48    67  69  56    67  69  56    35  39  26    26  29  19    39  41  33    52  54  36    55  58  42  
  41  38  23    55  48  38    48  35  25    79  65  39   194 183 138   153 140 107    41  28  11    71  59  44   195 180 142   176 164 141    42  33  24    13   9   2    10   9   4    15  15  12    11  10   6    10  10   3    20  18  13    29  21  18    64  57  27   150 143  87   126 117  74    32  22  12    21  15  15    24  24  13    49  51  38    49  52  33    31  31  23    43  42  34    96  95  74    65  64  47    23  19  16    25  22  17    15  14  15    19  15   4    55  48  31    86  81  65    50  47  40    16  16  14    15  16  11    15  15   7    23  24  17    29  30  22    44  46  35    63  65  52    89  91  77    41  45  30    43  47  32    80  84  69    77  82  61    69  72  53  
  27  28  12    44  40  34    45  34  29   122 111  81   188 175 131    86  71  53    51  36  29   135 127  95   177 169 125    98  90  70    23  19  16    10  10   6     7   9   5    13  13  13    26  24  22    20  17   8     8   7   2    14   9   5    47  41  19   124 117  74   115 108  67    62  55  38    22  18  15    19  20  12    33  35  25    58  61  44    36  37  30    44  43  38    75  77  57    62  61  43    42  39  32    34  31  22    28  25  19    38  31  14    86  75  50    98  90  69    37  34  25    13  13  13    17  16  14    19  16   9    22  22  20    23  24  19    31  32  24    59  61  47    89  92  74    63  68  48    72  77  57    81  86  66    76  81  58    62  67  46  
  30  31  15    33  29  20    61  52  39   158 148 116   130 117  84    43  27  21   103  89  84   187 181 140   123 116  78    56  49  33    46  42  41    14  14  14     6   8   6     7   8   6    39  38  33    49  46  34    30  32  20    18  14   8    47  40  22   104  97  63    88  82  50   102  97  73    41  41  27    20  22  18    38  40  31    54  56  44    41  42  35    46  45  38    52  52  35    46  47  29    50  48  41    30  29  18    31  28  22    53  44  23   118 102  72   109  97  71    33  28  19    12  12  13    18  18  17    25  18  12    19  20  20    23  24  19    42  44  34    72  74  59    79  82  63    78  83  62    91  96  76    65  70  50    60  66  47    58  63  41  
  39  33  25    50  45  23   113 108  74   158 150 120    62  49  39    60  46  45   155 145 132   151 146 114    49  43  26    52  47  34    72  69  62    18  18  14    14  14  12    18  19  13    36  36  25    68  66  52    74  76  51    46  43  31    58  53  28    92  85  55    50  42  24   112 109  75    82  84  46    32  32  31    32  34  28    32  34  26    39  39  30    51  49  38    42  40  29    33  31  21    40  41  32    33  33  25    33  34  25    55  45  21   122 104  70    96  80  51    31  25  15    12  15  17    21  22  22    26  22  16    19  21  18    25  28  21    66  70  56    79  83  66    54  59  38    59  63  45    68  72  56    47  51  37    38  41  33    62  67  46  
  45  33  25    75  64  39   161 153 117   118 107  80    67  55  39   143 133 119   137 129 113    60  53  40    20  16   5    38  35  25    81  78  69    32  33  24    20  22  12    39  40  31    25  25  17    37  36  27    71  74  47    66  65  44    92  89  56    86  81  50    44  36  23    92  90  63   105 107  68    45  48  29    29  30  22    21  22  12    42  40  29    69  67  54    37  35  22    26  26  13    28  31  18    43  47  37    77  81  62    67  62  39    94  78  54    67  54  35    24  23  14    18  23  20    22  26  21    22  21  13    17  20  12    34  37  27    88  92  77    79  83  66    40  45  25    47  51  34    48  52  38    36  39  27    41  45  32    75  80  58  
  63  47  32    90  76  50   137 123  93    82  68  41   142 132 106   195 187 166    81  74  63     8   3   3    11   8   4    27  24  17    70  70  58    48  49  36    28  29  16    46  46  34    15  15   8    11  11   5    25  24   5    59  59  35    97  97  63    69  64  41    38  30  29    59  55  42    94  98  65    82  87  58    52  49  40    32  30  18    56  53  41    88  86  71    38  39  23    24  26  12    36  41  28    60  68  55   110 116  88    81  80  58    65  56  45    37  30  21    18  19  13    24  31  24    24  30  21    18  19  11    19  23   9    49  53  39    84  88  71    60  64  47    41  45  27    49  53  37    37  40  29    36  39  29    63  67  52    69  74  52  
  92  78  52   100  83  63    92  77  55    83  70  38   166 157 127   120 113  96    33  28  24    13  11  13     6   5   4    18  17  12    48  48  36    60  61  45    37  38  22    45  46  32    30  30  22    16  17  11    25  22  16    41  40  23    55  54  27    31  27  16    28  21  29    29  26  25    55  57  36    89  90  67    68  65  56    36  34  23    52  50  37    83  81  66    64  65  49    60  62  48    84  89  76    85  93  80    75  80  53    70  71  54    52  47  41    31  27  24    22  23  17    28  34  24    29  35  23    26  29  20    26  30  15    62  66  49    68  73  56    46  50  33    47  51  36    52  56  42    47  50  39    56  60  48    65  69  52    58  63  41  
 107  96  70   116 104  84    97  85  65   118 110  83    94  87  64    29  23  14    13  10   8    11  10   8    10  11   8    11  12   6    40  40  30    82  79  68    42  41  28    42  42  29    63  63  52    32  33  23    32  28  28    39  37  23    43  42  21    28  25  18    28  24  28    26  25  24    35  36  22    45  46  30    41  42  33    33  34  22    53  52  39    69  67  54    74  72  59    56  56  45    52  54  44    35  39  31    54  56  38    66  68  54    42  42  32    28  29  22    27  28  22    31  33  25    32  34  26    32  33  25    49  53  38    62  66  49    53  57  40    48  52  37    56  60  45    61  65  50    66  71  55    71  75  60    60  64  48    52  56  40  
 132 124 104   125 118  94   123 116  92   102  94  77    34  26  18    16  11   5    10   9   3    12  13   8     9  12   4    10  11   5    32  31  25    86  83  76    50  47  38    32  32  20    67  69  55    50  53  38    38  34  33    47  46  29    47  48  27    36  37  25    27  27  21    21  21  12    43  44  31    41  41  29    24  27  18    43  45  35    63  63  52    58  56  45    74  71  61    52  51  42    22  22  16    21  21  16    51  51  44    66  68  57    33  36  22    24  26  13    26  26  19    26  25  21    31  31  26    40  41  33    59  63  48    51  55  40    39  43  29    48  52  37    62  66  51    65  69  53    69  73  56    74  79  60    52  56  42    43  47  34  
 121 115  93   147 142 120   101  98  81    48  45  36    25  24  19    18  15  11    21  20  14    23  23  17    14  14  13    11  11   8    20  22  16    56  57  48    65  67  55    29  30  17    36  37  25    51  50  37    44  44  33    39  39  25    34  34  21    31  31  20    22  22  12    22  22  10    44  45  31    45  45  30    32  34  22    53  55  45    49  49  42    39  38  29    65  64  53    70  67  57    34  32  25    30  27  25    58  58  48    52  52  44    28  30  22    23  23  17    26  26  22    24  24  19    32  33  24    50  51  39    59  63  48    49  53  37    48  53  35    57  62  42    72  77  57    70  75  56    78  83  64    86  90  72    50  51  37    51  52  40  
 115 109  87   121 116  96    58  54  42    22  22  14    33  32  27    30  28  25    31  30  25    32  32  24    18  17  15    10   9   5    20  21  15    49  52  41    71  75  61    25  27  14    18  18   8    40  37  28    48  49  35    32  32  20    25  25  15    29  29  19    25  25  15    30  30  18    45  46  32    45  46  30    31  33  19    46  47  39    34  33  28    30  29  24    58  58  46    74  72  60    50  47  40    46  42  40    58  58  46    36  36  28    19  20  15    18  18  15    30  30  29    36  37  31    35  37  26    51  53  39    58  62  48    51  55  40    76  80  63    78  83  63    64  69  49    65  70  50    80  84  67    70  74  59    52  53  39    55  55  43  
 120 112  91    84  77  59    26  22  10    12   9   2    23  22  18    21  20  16    25  24  19    38  35  28    26  23  19    12  11   6    18  19  11    43  46  36    64  67  56    22  24  14    11  11   1    30  27  20    36  37  23    34  34  22    31  31  21    29  29  19    29  29  19    48  48  38    61  61  49    46  47  33    47  48  34    49  49  41    24  23  19    24  23  18    47  47  35    67  67  54    60  58  48    60  57  52    45  47  36    27  28  20    23  24  18    23  23  18    34  35  30    41  43  37    36  39  28    51  55  41    42  45  34    29  33  19    60  64  49    76  80  63    64  68  51    59  64  47    67  71  56    62  67  52    48  50  37    41  43  30  
  99  90  71    54  46  29    20  14   2    11   7   1    14  12   9    15  13  10    20  19  14    34  33  25    30  27  20    23  23  15    22  23  15    28  29  21    38  40  31    20  21  13    23  23  15    43  43  35    37  38  24    46  46  33    48  48  38    37  37  27    27  27  18    42  42  32    54  54  43    36  37  24    71  72  57    65  65  56    22  21  17    19  18  14    36  36  26    63  64  50    66  66  53    56  56  48    30  32  22    27  28  20    28  29  23    28  30  24    28  30  24    26  29  22    33  36  25    49  53  40    40  44  33    29  33  21    28  32  17    54  59  44    81  85  68    78  82  67    62  66  52    52  57  43    34  37  24    39  42  29  
  78  66  49    44  33  19    24  16   7    16  11   6    13   9   6    14  13   9    16  15  10    24  21  14    28  23  17    27  24  17    22  21  15    18  19  12    31  32  25    36  37  29    39  39  30    49  49  39    36  38  22    45  46  32    49  50  40    38  38  29    20  21  13    26  27  18    41  42  32    34  35  23    84  84  65    81  80  69    23  22  18    18  17  13    30  30  21    60  60  49    64  64  53    42  42  35    23  24  17    28  29  22    26  27  21    35  37  30    33  36  28    27  30  21    37  40  30    41  44  33    42  48  36    46  52  39    46  53  37    61  68  51    75  82  64    81  88  71    67  73  58    41  47  33    34  37  26    52  55  44  
  61  48  32    42  30  17    29  20  12    19  14  10    12   8   5    11  10   6    15  14   9    25  22  15    25  18  14    18  14   9    13  12   8    20  21  16    44  45  39    55  56  46    44  44  31    40  41  26    41  44  27    42  44  30    38  41  30    25  26  18    11  12   4    22  23  15    40  42  31    35  37  25    92  92  66    94  93  76    26  24  17    17  16  12    24  23  17    51  51  43    55  56  47    28  29  24    28  28  23    31  32  26    29  31  23    40  43  35    44  47  38    38  41  32    41  44  35    37  40  30    41  47  34    53  59  44    81  88  70    83  91  71    60  68  48    72  79  59    77  83  66    69  75  60    47  52  41    44  49  37  
  52  37  22    38  24  13    28  17  11    28  20  17    24  20  17    16  13   9    11  10   5    20  18  10    24  16  13    15  10   7    14  11   8    24  25  20    40  41  35    47  49  38    42  43  29    53  54  36    64  67  50    43  45  31    26  28  17    20  21  13    13  14   6    22  23  15    42  43  34    42  44  33    97  98  68   100  99  80    25  22  13    15  14  10    18  17  12    43  43  35    53  54  48    31  31  29    38  39  33    33  34  28    30  33  24    28  31  22    27  30  21    29  32  23    35  39  30    41  44  35    50  57  41    52  59  41    80  88  67    70  78  55    50  59  36    75  83  62    74  82  62    87  94  76    52  58  48    24  31  19  
  36  23  14    30  20  10    38  28  16    31  23  10    25  19   7    24  20  11    18  15  10    24  23  19    21  23  21    11  12   7    28  28  20    42  41  28    55  51  39    59  57  42    55  53  38    77  78  62    74  77  56    29  31  18    14  14  12    14  14  14     7   8   3    26  28  20    52  53  47    43  44  39   109 110  96    77  77  65    21  21  12    14  15   7    16  17  11    43  44  36    58  59  51    29  31  20    29  32  21    57  61  51    42  45  38    14  15  10    18  19  14    27  28  22    49  49  41    50  50  40    57  60  41    57  66  45    76  88  68    62  77  56    57  71  53    92 103  86    50  56  42    66  68  56    68  75  57    50  54  37  
  30  20  10    35  25  15    37  29  18    29  22  11    24  20   9    32  29  21    23  20  15    29  28  24    32  34  28    24  25  17    45  45  34    54  53  39    74  71  55    85  84  66    57  57  39    59  60  42    47  47  29    19  18   7    14  12  10    13  12  12    14  15  10    42  43  34    49  50  42    48  49  44    95  95  85    53  53  45    15  15   8    14  15  10    21  22  16    41  42  36    55  57  49    32  33  25    42  45  34    70  73  64    58  60  53    17  19  13    15  16  10    30  31  24    46  47  38    42  42  32    60  65  45    79  88  67    93 106  86    59  71  54    78  90  74    78  88  74    27  33  22    27  30  20    43  46  34    41  44  31  
  34  24  14    37  28  17    35  27  17    31  24  14    26  22  12    38  35  28    24  23  17    19  18  14    35  40  30    41  44  32    56  58  43    44  43  26    84  83  64   108 107  88    54  55  37    61  63  44    42  40  23    23  20  11    20  16  15    18  16  14    21  20  15    45  46  35    43  45  35    68  69  62    91  90  84    35  34  30    12  11   8    13  14  10    22  23  19    39  40  35    58  59  53    43  44  36    46  49  39    56  59  50    45  48  41    11  14   7    13  15   8    31  33  25    45  47  36    42  44  32    51  58  37    66  73  54    84  95  77    76  88  71    87  98  85    44  54  44    15  20  13    16  20  15    20  21  14    33  34  27  
  29  21   8    31  23  12    31  24  13    35  30  19    36  32  23    44  43  34    32  32  22    26  27  18    40  46  32    66  71  56    75  78  60    56  56  38    89  88  68    88  88  70    36  37  20    63  66  49    53  51  34    18  15   6    14  12  11    17  16  14    32  32  24    55  55  44    47  49  37    91  93  83    71  69  65    19  18  15    12  10   9    16  16  14    26  26  24    43  44  39    61  62  55    44  46  36    27  30  21    31  33  24    32  35  28    14  17  10    16  19  12    28  31  22    44  47  34    47  50  36    55  63  44    60  68  49    60  70  53    89 100  86    77  87  76    29  37  28    16  22  15    15  20  16    20  22  17    33  34  28  
  37  30  14    43  35  20    40  34  20    39  35  24    50  48  36    47  48  34    42  44  30    50  52  38    70  77  61   106 113  96   105 108  89    85  86  68    73  74  55    45  46  30    36  38  24    58  60  46    65  68  51    38  41  30    11  13  10    13  13  11    34  35  27    59  61  47    91  92  78   114 115 101    44  43  39    12  11   7    14  13  11    18  18  16    25  26  21    52  53  45    64  66  56    38  40  28    23  24  16    25  28  19    29  32  25    18  21  14    19  23  14    34  37  26    49  55  41    42  48  32    53  62  45    55  65  47    46  54  39    82  90  75    57  65  52    61  69  59    58  65  58    26  33  26    24  29  22    31  34  25  
  70  63  44    58  53  34    54  48  32    45  42  27    55  53  38    54  55  39    68  71  52    70  74  52    79  88  71    85  91  73    81  85  68    88  91  72    67  68  52    39  39  26    42  44  33    31  34  24    53  65  45    71  82  71    41  47  43    26  31  27    44  47  36    79  82  65   142 143 127   103 103  89    24  22  18    16  15  11    16  15  11    18  19  13    27  28  21    74  76  64    89  91  77    54  57  40    49  50  42    46  47  41    37  40  33    27  30  23    33  36  27    49  55  43    66  73  57    42  49  31    47  56  39    43  52  35    51  59  44    57  65  49    22  30  15    61  69  54    81  90  74    69  77  64    38  47  32    39  47  32  
  76  70  50    48  42  23    41  38  20    41  38  23    47  48  32    52  54  37    78  81  62    73  78  57    63  72  55    45  52  34    55  59  42    85  89  72    66  68  53    36  38  25    41  42  33    44  46  38    44  57  38    74  87  73    77  85  77    53  60  51    69  73  61   117 122 105   134 136 118    55  56  40    22  23  19    28  28  22    27  26  22    28  27  22    36  36  26    90  91  75   101 102  86    53  55  42    43  44  37    41  42  35    38  40  32    37  40  31    43  46  36    57  62  49    77  83  68    57  63  47    42  50  35    44  53  38    74  83  67    57  68  49    19  30  11    32  42  24    47  56  39    76  84  68    74  85  68    82  94  74  
  56  48  34    44  36  22    36  30  15    55  52  36    67  68  52    58  60  46    57  61  47    61  65  51    56  63  47    50  55  39    58  62  46    74  78  63    56  58  45    36  38  26    41  42  30    51  51  41    38  46  33    43  51  38    60  68  53    73  80  66   109 116 100   148 155 139    96 103  85    42  49  31    38  42  39    39  43  35    36  37  31    33  31  28    44  42  31    92  93  70    80  80  64    29  28  29    36  37  31    35  36  28    37  40  29    50  53  39    51  54  40    54  58  43    66  70  56    59  62  51    50  58  44    46  57  41    82  95  76    74  88  66    41  54  33    39  51  32    40  48  34    71  77  65    73  83  66    78  88  67  
  46  39  27    37  30  18    46  42  29    62  60  47    91  92  78    96  98  82    65  69  52    65  69  53    72  77  61    60  64  49    66  70  55    54  56  44    46  48  37    32  34  25    30  31  22    47  47  39    44  52  39    39  47  34    40  46  32    77  83  69   124 130 116   119 126 110    71  78  61    65  72  55    56  63  53    41  47  35    30  32  25    29  29  27    52  51  43    92  95  76    58  61  44    27  29  22    41  42  37    36  39  31    36  39  28    59  63  49    56  60  45    56  60  46    60  63  52    51  54  43    48  58  45    66  77  62    79  92  75    73  86  68    44  55  38    40  49  35    50  56  45    63  69  58    38  45  33    35  42  28  
  41  34  24    36  32  20    47  43  32    52  50  38    64  64  52    67  70  53    60  63  44    82  85  66    76  78  64    66  68  54    60  62  50    34  36  27    35  36  30    31  32  26    23  24  18    43  44  38    53  59  47    46  52  40    64  70  58    91  97  83    81  87  73    54  60  45    53  59  45    71  75  60    76  84  69    36  44  31    25  28  21    32  33  29    60  61  55    90  94  80    64  68  53    36  43  27    41  42  37    35  38  31    36  39  30    55  58  47    50  54  40    66  72  58    65  71  59    59  64  54    60  72  60   118 130 116    98 109  95    39  49  38    26  36  24    38  46  35    45  50  43    25  30  22    16  19  15    22  25  18  
  42  38  27    39  37  25    44  41  32    43  40  32    38  38  28    36  37  24    42  45  28    60  63  42    56  54  39    66  66  52    52  52  42    29  28  23    23  24  18    32  33  27    27  28  22    39  40  32    52  58  46    73  79  67   105 112  99    71  77  65    35  41  29    45  49  35    46  49  36    44  48  34    66  74  59    41  47  35    30  33  23    46  48  39    81  82  74    75  78  71    58  63  52    41  48  32    33  36  29    32  35  26    50  53  42    66  70  56    57  64  48    74  81  66    66  75  59    78  87  73    86  98  83   110 122 108    93 103  92    21  28  20    31  38  30    48  53  46    30  35  28    15  20  13    19  19  19    17  17  15  
  50  50  34    45  44  31    41  41  31    37  37  29    36  36  29    36  36  26    36  37  22    38  40  22    69  66  47    71  69  52    49  47  35    34  33  25    33  32  27    46  47  41    42  43  35    37  40  28    76  82  70   114 120 108    92  98  86    32  38  26    52  55  44    66  69  58    40  43  33    31  34  24    36  41  30    45  47  39    41  43  29    71  74  53    89  91  76    52  52  48    40  42  37    54  60  45    37  39  29    33  36  24    61  65  50    78  85  68    73  81  62    93 102  84    86  97  79    76  87  70    73  89  70    93 106  89    75  85  73    30  36  29    34  38  31    43  47  40    39  44  36    21  26  18    16  17  14    16  17  14  
  51  52  33    51  52  37    42  42  32    35  34  28    31  30  25    25  25  17    34  34  23    54  55  40    88  85  62    56  53  34    37  34  22    39  36  28    53  52  47    61  62  55    68  71  60    73  77  63   105 111  99    86  92  80    59  65  53    56  61  49    80  83  72    57  60  50    33  36  27    27  30  21    34  35  31    46  46  41    67  67  50   117 119  90    79  79  59    25  24  22    21  22  23    51  54  44    63  67  52    61  65  51    65  70  51    81  89  67    97 107  84   102 112  90    97 109  88    88 101  80    95 113  90   116 131 112    64  75  61    38  43  35    26  29  22    34  37  30    55  58  50    51  57  46    24  28  22    17  21  15  
  52  54  36    47  47  34    38  40  29    30  30  25    26  26  19    24  24  13    41  40  25    83  82  63    74  74  50    32  33  12    32  32  18    37  37  28    46  45  40    63  62  56    94  95  85   111 112  99    85  93  78    54  58  48    43  45  38    62  63  54    74  74  60    50  51  37    29  31  22    26  27  26    33  33  25    43  36  29   112 105  75   154 151 108    63  63  40    20  23  19    18  19  18    41  42  38    90 102  79   103 115  88    78  89  60    85  94  68    95 103  81    70  76  59    82  91  70    95 104  81   116 132 109   122 136 116    65  74  59    45  51  39    24  27  18    25  29  17    47  51  38    87  92  75    68  72  58    25  29  20  
  46  47  33    34  34  22    26  27  19    20  21  15    20  20  13    28  28  16    49  47  32    76  74  54    55  52  39    33  30  18    39  37  27    39  36  29    50  50  42    89  89  81   113 113 103    88  88  78    56  66  49    65  70  58    52  53  45    46  46  34    58  59  43    49  50  34    35  37  26    25  27  24    39  37  27    85  78  63   165 156 123   127 122  84    39  38  18    26  29  24    40  42  38    67  68  62    93 109  82   121 136 105    92 103  71    68  77  50    66  72  52    69  73  58    92 100  79    85  93  69   108 124  98   115 128 106    80  88  73    88  94  83    56  59  50    30  33  22    35  39  25    54  58  43    70  74  57    46  49  38  
  40  40  28    32  32  22    33  34  26    26  27  21    17  18  12    30  29  20    46  42  30    51  48  33    41  32  25    45  35  26    43  37  24    81  78  62   133 131 115   119 117 101    77  78  63    47  48  34    46  53  35    60  66  52    49  52  41    46  48  35    61  64  48    34  37  21    25  28  17    27  30  23    50  46  37   131 127 102   158 151 123    66  59  41    23  24  10    34  37  29    43  45  38    56  58  45    49  63  37   116 129  99   120 131  99    79  87  59    60  64  44    69  73  57    79  84  64    64  72  49   108 122  96    95 107  85    39  47  32    50  53  44    47  50  43    40  43  36    29  32  24    18  21  11    36  40  23    47  50  36  
  44  42  30    46  46  36    55  55  47    43  45  37    26  26  18    29  26  17    38  34  23    46  40  28    54  44  31    50  42  25    49  42  21   118 114  90   154 152 128    86  84  66    39  39  26    43  43  34    34  39  27    42  45  34    46  49  39    50  53  43    59  61  52    30  33  25    27  29  24    46  47  42    85  81  69   136 133 104    84  80  59    23  19  17    22  21  15    33  34  23    32  33  24    35  38  20    60  71  48   115 126  97   129 137 106    93  98  71    66  69  50    41  44  30    37  41  24    60  67  47    99 112  87    70  82  61    14  21   7    11  14   7    17  18  14    28  28  24    25  26  22    24  27  20    34  39  22    56  60  45  
  49  47  35    46  47  35    46  46  35    36  38  26    29  29  18    30  27  17    34  30  18    47  41  29    57  48  35    54  47  32    49  42  27    91  85  69    89  85  73    47  44  36    43  39  38    46  43  45    32  31  22    41  41  30    68  70  59    71  73  66    53  55  50    29  30  28    33  33  30    67  68  61   123 116 104   101 100  76    36  36  22    12  12  12    16  15  11    27  27  18    50  52  39    57  62  41    72  80  61    80  88  65    96 101  73    83  87  63    75  77  61    28  30  19    13  16   6    46  49  37    79  92  70    63  75  57    15  20  11    11  13   9    11  11  10    10  10   9    17  17  15    18  20  15    35  41  27    61  67  52  
  62  60  46    51  50  35    41  42  27    37  38  23    41  41  27    45  43  29    46  42  30    57  51  39    66  62  50    70  67  54    45  40  31    60  55  46    64  60  52    57  53  46    66  62  55    66  62  55    62  58  42    63  61  42    87  88  67   100 101  86    62  62  53    33  33  27    45  43  34    99  97  82   119 111  96    52  49  38    18  22  14    10  15   8    14  13   9    30  28  22    67  68  54    70  76  57    54  60  47    49  54  36    73  77  54    70  73  51    87  87  74    33  34  28    10  11   7    22  24  19    39  52  34    72  82  69    29  34  28    10  12  10    16  16  18    10  10  10    13  14  10    14  16  10    29  35  26    58  64  50  
  64  63  45    57  55  38    54  55  37    54  55  38    57  58  40    62  61  43    63  59  45    70  64  50    83  86  64    77  78  58    76  76  61   116 113  99   120 119 100   131 128 105   152 152 120   145 143 108   160 153 127   163 158 129   153 152 122   147 147 122   104 105  90    97  95  83   110 107  89   149 145 119    91  82  66    25  22  23    11  17  13    12  19   5    18  18  13    34  32  27    63  65  50    66  73  57    50  53  46    50  53  38    66  70  48    49  50  32    87  87  77    37  36  34    10  10  10    11  13  12    19  31  18    65  75  66    41  46  42    11  12  14    13  13  15    14  14  14    16  17  12    27  28  22    38  45  38    53  59  47  
