P3
50 50
255
  58  68  62    67  77  69    69  77  69    85  92  84    92 100  90    88  96  85    79  91  81    75  94  85    81  95  90    62  72  71    91 100  97    89 100  93    89 102  93    86  90  83    60  61  48    69  64  42   128 119  97   160 150 131   168 162 144   166 164 143   163 162 144   161 160 142   166 165 147   177 175 159   175 173 158   173 171 156   167 167 150   159 159 139   156 147 129   160 149 131   162 160 141   154 157 137   158 158 137   162 159 141   155 153 135   145 144 124   144 143 123   143 140 119   147 141 121   149 141 122   165 158 135   172 165 147   172 167 153   159 156 144   133 133 121   115 115 103   115 114 103   124 116 108   130 122 113   129 119 109  
  75  84  79    73  82  76    64  73  65    77  84  77    83  90  82   104 111 101    90  98  89    94 105  99   103 114 109    97 106 105    95 104 101    76  85  80    63  73  65    36  40  32    32  30  15    93  88  65   147 140 115   167 158 139   174 167 148   176 174 151   168 165 146   161 158 139   159 156 137   160 158 139   164 162 144   169 166 149   158 156 138   153 152 131   159 150 131   151 140 122   143 139 119   149 148 127   157 153 131   161 155 135   157 151 131   146 145 123   153 151 130   153 149 129   154 148 128   164 156 137   165 160 138   163 158 140   137 132 118   114 111  99   106 104  92   114 115 101   107 107  94   115 113 102   126 124 112   138 136 124  
  72  81  76    75  84  79    85  91  86    96 103  96    86  91  84   104 109 102    87  92  83    94  97  92    85  93  89    78  90  86    89 101  97    87  97  91    65  71  64    35  37  28    74  73  56   141 136 111   161 154 129   173 165 146   180 174 155   162 160 137   164 159 137   157 152 131   151 146 126   147 142 122   154 149 129   165 158 138   150 145 124   148 143 122   158 148 130   160 147 128   150 142 119   149 142 117   151 142 119   152 141 119   148 139 116   161 155 133   175 170 149   164 159 139   153 146 127   139 132 114   125 122 103   114 110  94    97  94  80    92  90  77    85  84  70    72  70  57    66  65  50    68  70  57    62  64  51    52  55  43  
  58  66  61    67  75  70    83  90  84    86  92  85    85  90  83    93  96  87    78  79  72    63  65  60    68  77  72    99 116 108    95 115 106    91 105  95    73  81  73    45  44  31    99  94  75   149 143 117   141 133 109   150 142 122   159 153 132   149 145 120   140 135 110   146 141 116   147 140 117   142 134 111   148 138 114   161 151 126   156 147 121   152 143 120   152 140 122   153 140 121   154 142 116   152 142 114   158 145 120   153 140 116   141 130 106   131 124 101   121 115  94   106 101  81   106 101  81    98  91  73    74  72  57    73  71  56    76  74  61    80  78  65    68  64  52    56  53  38    67  65  51    58  58  46    34  35  22    24  27  16  
  70  79  74    72  81  73    86  92  85    88  93  86    84  87  79    61  64  55    54  56  46    61  66  57    80  93  83   112 132 121   106 127 115    90 106  94    80  89  77    54  50  34    83  75  52   170 160 133   158 148 123   138 127 108   153 144 124   153 145 120   155 147 124   151 141 118   143 132 108   147 134 108   143 130 103   134 118  92   130 115  89   145 132 108   145 133 114   130 117  99   132 120  92   121 107  79    99  86  63   102  89  67    96  85  63    65  58  35    69  64  43    89  84  65    84  79  59    71  64  48    56  54  41    55  53  39    52  50  35    55  54  39    50  48  33    54  50  38    54  50  38    67  63  52    56  53  44    37  37  29  
  68  78  69    81  88  80    76  83  72    65  68  58    64  66  55    55  56  43    63  66  53    89  96  82   106 117 102   105 119 106   109 122 107    79  89  75    50  56  40    55  47  29   129 115  90   181 167 138   152 138 113   140 124 106   139 124 105   144 132 107   159 148 126   142 129 106   128 113  89   139 121  97   135 115  90   111  91  64   108  87  59   126 107  81   106  94  74    85  74  54   108  97  69   106  93  63    78  66  46    91  82  62    90  83  64    60  55  35    56  53  33    61  58  39    54  48  32    52  45  29    52  50  36    39  37  22    37  35  20    36  34  19    47  45  31    63  61  50    51  47  38    59  54  45    65  61  52    40  37  28  
  71  81  70    84  92  79    69  76  62    68  72  58    92  94  80    82  83  69    71  73  56    76  80  63    81  84  69    72  73  59    67  67  53    57  55  39    37  34  17    61  48  27   137 120  94   138 121  93   104  87  63   110  92  74   114  96  77   108  90  65   104  91  72   102  86  65   101  84  63   112  93  70   113  91  67   111  87  61   119  93  64   126 105  76    88  75  56    70  61  43    95  84  56    88  75  49    66  58  42    74  68  53    68  65  48    50  49  31    44  43  25    42  40  23    49  44  28    53  46  30    46  43  28    32  29  13    38  36  18    42  43  26    48  48  36    36  38  28    23  23  16    39  39  29    42  42  32    46  48  37  
  98 109  94    99 107  92    96 104  88    90  95  79    81  84  67    58  59  43    70  72  53    81  82  62    80  76  60    56  47  35    59  47  35    78  65  51    62  50  33    76  57  36   104  82  56   116  97  68   112  92  69   115  94  76   107  86  66    91  70  46    81  66  47    74  59  39    77  58  38    91  69  47    97  74  50    97  71  46    92  64  35    86  61  32    61  46  28    56  47  29    72  61  34    64  54  29    57  51  37    49  46  34    55  53  40    50  51  35    45  45  29    47  45  28    55  50  34    60  53  37    47  41  25    58  53  36    52  50  33    48  48  32    37  39  25    36  37  29    31  34  28    29  35  24    28  34  22    32  38  24  
  72  74  61    69  71  57    69  70  55    50  48  33    52  44  29    62  48  35    81  65  49   103  87  62   100  84  60    87  71  48    63  47  24    77  62  41    89  74  53    86  70  50    98  81  61    98  81  61    87  71  51    94  77  57    95  78  60    85  68  50    64  57  38    53  46  27    53  46  26    71  63  42    85  77  56    75  64  44    57  49  31    48  45  30    41  38  23    41  38  23    51  48  31    61  58  41    64  61  44    59  53  39    54  48  34    48  42  28    50  44  30    50  44  30    59  52  39    56  50  36    51  43  24    75  66  44    78  70  44    61  54  30    45  40  20    40  39  24    40  42  31    26  32  22    21  27  16    32  35  24  
  72  63  45    77  69  51    73  67  49    69  64  45    73  67  47    77  69  50    63  52  33    86  74  52    82  69  48    63  51  29    69  56  37    72  60  41    66  55  35    65  56  36    58  50  30    62  54  33    68  60  39    68  60  40    67  59  40    61  53  35    66  61  42    62  57  38    58  52  33    56  49  30    55  48  29    49  41  22    44  38  20    45  42  27    41  37  22    43  39  24    50  47  30    55  52  35    56  53  36    66  61  45    56  51  34    43  37  21    47  41  25    51  45  29    53  47  31    42  36  20    48  41  23    64  57  36    66  59  34    60  54  29    57  52  32    50  48  31    50  49  37    60  62  50    68  70  57    84  86  73  
  89  68  47    76  61  40    69  59  37    70  63  41    58  53  31    66  61  41    62  56  37    75  68  49    60  54  35    44  37  18    57  50  32    64  58  39    59  54  35    58  55  36    48  47  27    51  50  30    53  52  32    53  52  32    61  60  41    55  54  36    43  40  23    48  46  28    47  44  27    38  35  18    35  29  13    39  33  17    41  37  21    37  35  20    35  34  19    40  38  23    45  44  26    42  41  23    41  40  22    49  47  30    44  41  24    45  42  25    50  47  30    50  47  30    43  40  23    34  31  14    49  45  30    56  52  33    61  55  33    69  63  39    76  71  49    66  63  44    55  53  37    53  51  38    52  50  36    66  67  53  
  73  57  34    78  64  43    72  64  42    60  57  36    62  61  41    62  61  43    53  51  34    55  52  37    49  47  32    57  55  40    57  55  40    55  53  38    50  48  33    47  48  30    45  48  29    46  49  32    33  36  19    28  31  14    38  41  24    30  33  16    28  26  13    31  30  16    32  30  17    29  27  14    28  26  13    32  30  17    35  33  20    33  31  16    32  30  15    37  35  20    37  35  20    32  30  15    31  29  14    35  32  17    32  29  14    42  39  24    43  40  25    40  37  22    37  34  19    41  38  23    43  45  31    47  47  30    54  50  32    65  60  40    70  65  45    60  55  36    49  45  27    55  49  33    53  49  33    35  33  17  
  50  47  28    46  44  25    50  50  33    47  49  34    50  51  39    40  37  28    37  34  24    30  30  18    25  26  13    31  32  18    29  31  17    27  29  15    30  32  18    36  35  22    36  34  21    37  34  22    32  30  17    25  23  10    24  22   9    24  22  10    25  25  13    24  24  12    24  24  12    25  25  13    25  25  15    24  24  14    26  26  15    32  30  17    30  28  15    32  30  18    30  28  16    25  24  12    27  25  13    29  27  15    23  21  10    31  29  17    32  30  18    31  29  17    27  25  13    31  29  17    28  31  19    30  31  18    40  38  24    48  43  27    49  43  27    45  42  25    41  37  21    43  37  22    59  55  40    56  54  39  
  34  36  22    29  33  18    24  28  15    21  24  13    24  25  17    22  19  14    18  16  10    20  20  10    21  21  11    23  23  11    24  24  12    24  25  13    23  25  12    29  27  15    28  24  12    22  18   6    24  20   9    25  21  10    21  17   6    24  19   9    23  21   9    21  21   9    23  23  12    25  25  15    23  23  13    22  22  14    21  22  13    24  24  14    21  21  11    20  20  10    18  18   9    15  15   7    17  17   9    16  16   8    14  14   6    20  20  12    22  22  14    21  21  13    16  16   8    17  17   9    16  19  10    17  18  10    25  23  14    28  24  14    28  24  13    33  31  19    34  33  21    29  25  13    33  30  17    43  44  30  
  26  24  12    31  30  18    26  27  15    22  24  13    22  22  14    24  21  14    19  16   9    19  16   7    20  17   8    24  21  12    23  21   9    25  25  12    25  25  13    35  32  20    40  36  24    28  24  12    21  17   5    25  21  10    26  21  11    24  20   9    26  24  11    26  25  12    27  26  14    23  23  12    16  16   6    15  15   7    15  15   8    12  11   6    10   9   4     9   8   3     8   7   3     8   7   3     7   6   2     9   8   4    12  11   7     9   8   4     8   7   3     7   6   2    10   9   5    14  14   9    12  13   7    12  12   6    14  12   7    12   9   4    11  10   5    16  15  10    15  16   9    22  22  13    28  28  18    27  29  18  
  30  17   8    30  21  10    26  21   9    25  22  10    22  22  10    22  19   7    19  16   5    20  16   7    20  16   7    23  19  11    26  24  12    24  22  10    31  29  16    31  31  17    31  32  18    26  27  13    20  21   7    23  24  11    26  26  14    25  25  13    29  25  13    29  26  13    29  27  15    23  20  10    13  13   3    10  10   2    10   9   3     6   5   1     6   5   1     5   4   2     5   4   2     4   3   2     2   1   1     4   3   1     9   7   5     3   2   1     6   5   2     6   5   3     6   5   3     3   2   1     2   3   1     6   5   1     8   5   3     9   5   4    15  14  12    16  16  14     7   9   5     9  12   5    11  14   5    19  20  12  
  24  26  13    23  25  12    25  26  14    26  26  14    20  20   8    25  25  13    24  24  13    22  22  12    19  19   9    20  20  10    21  21  11    22  22  12    28  28  18    26  26  18    20  20  11    22  22  14    22  22  15    18  17  12    20  19  14    20  19  15    18  19  12    13  14   8    13  14   8     9  10   5     5   5   3     4   4   3     2   1   1     4   3   2     7   6   4     3   3   1     5   5   3     7   7   4     4   5   1     6   6   7     7   7   7     5   5   5     3   3   3     4   4   4     4   4   4     3   3   1     6   5   1     8   7   3     8   7   2     8   7   2    12  11   6     9   9   4     6   6   1     9   9   4    12  13   8    14  15  10  
  15  17   6    17  19   8    19  20  10    21  21  11    22  22  12    27  27  17    22  22  12    21  21  11    19  19   9    20  20  10    25  25  15    27  27  17    23  23  13    23  23  15    24  24  16    19  19  11    14  14   7    11  10   5     9   8   4    12  12   7    10  12   4     7   8   2    10  11   5    10  11   6     7   7   5     7   7   4     4   4   2     7   6   4     8   7   5     4   4   2     5   5   3     5   6   1     3   4   1     5   5   3     4   3   1     3   2   1     7   6   2    12  11   7    12  11   7     9   8   4    13  12   8    12  10   7    11  10   5    11  10   5    14  13   8    14  13   8    12  11   6    10  10   6    10  11   6    14  14   9  
  21  22  14    22  23  15    22  22  14    22  22  14    24  24  17    28  28  20    22  22  15    26  26  18    26  26  18    20  20  13    20  20  13    26  26  18    25  25  17    19  19  11    21  21  13    17  17   9    13  13   6    15  14   9    15  14   9    20  19  15    13  14   8     9  10   4     9  10   4     9  10   5     8   9   4     7   7   4     3   3   1     4   4   2     5   5   3     5   6   1     7   8   3     4   5   1     4   5   1    10   8   2    15  12   5    19  16   9    25  21  15    25  22  14    25  22  13    29  26  17    22  22  17    18  17  12    17  16  11    18  17  12    21  20  15    22  21  16    24  23  18    19  19  15    15  17  12    19  19  14  
  27  28  22    26  27  21    23  23  17    19  18  13    19  18  13    24  22  17    20  19  14    23  22  17    25  25  20    21  20  15    18  17  12    20  19  14    20  19  14    17  16   9    21  21  13    21  21  13    15  15   8    15  14   9    14  13   9    16  15  11    17  19  12    13  14   8    10  11   5     9  10   5    10  11   6     9   9   4     6   7   2    10  11   6    12  13   8    16  15  11    17  15  11    12  11   6    11  10   5    19  15   6    24  21   9    33  28  17    38  34  22    37  33  21    35  32  20    39  35  24    25  24  19    17  16  11    15  14   9    17  15  10    17  16  12    18  17  13    20  20  15    16  16  11    12  13   8    16  17  12  
  29  31  24    25  26  20    22  22  16    17  16  11    13  12   7    21  20  15    23  22  17    19  18  13    13  12   7    13  12   7    17  16  11    18  17  12    17  16  11    17  16   9    19  19  12    24  24  17    20  19  12    16  15  10    19  18  14    19  18  14    14  15   9    13  14   8    12  13   7    14  15   9    16  17  11    14  15  10    14  15  10    18  19  14    19  20  14    21  20  15    21  19  14    18  17  12    19  17  12    32  28  18    34  30  18    35  30  18    41  38  23    45  42  27    40  37  22    34  31  16    24  23  18    15  14   9    12  11   6    14  13   8    11  10   6    11  10   6    13  12   8    11  11   6     9  10   5    12  13   8  
  31  32  26    25  26  20    21  21  15    17  16  11    12  11   6    20  19  14    24  23  17    20  20  12    18  18  10    24  24  16    27  27  19    22  22  14    23  23  15    28  28  20    27  28  20    29  30  22    21  22  15    13  14   8    16  17  12    16  17  12    14  15   9    18  20  13    21  22  16    24  25  19    25  26  20    21  22  16    20  21  15    22  23  17    22  23  17    22  21  16    24  24  16    29  26  19    34  31  24    41  37  27    40  36  24    38  34  22    38  34  22    37  33  20    31  28  13    23  20   5    20  20  12    12  11   4    11  10   5    13  12   8    14  13   9    14  13   9    16  15  11    18  18  14    18  19  14    16  17  12  
  26  27  19    21  22  14    18  19  11    18  18  10    19  19  11    26  26  18    24  24  15    24  24  14    29  29  19    40  40  30    38  38  28    28  28  18    27  27  17    24  25  16    23  24  16    24  26  18    20  21  13    14  15   9    15  16  10    20  21  16    18  20  13    24  25  19    25  26  20    26  27  21    27  28  22    25  26  20    24  25  19    25  26  19    28  29  21    27  27  19    30  29  21    37  34  27    43  39  32    38  35  25    39  37  24    38  36  24    32  30  18    28  26  14    26  23  11    23  21   8    20  20  12    12  12   5     9   8   3    11  10   6    14  13   9    14  13  11    17  16  13    21  21  17    19  20  15    14  15  10  
  23  24  16    21  22  14    21  21  13    26  26  18    35  35  27    41  41  33    37  37  28    36  36  26    26  26  16    25  25  15    26  26  16    26  26  16    31  31  21    27  28  19    29  30  22    29  31  23    25  26  19    18  19  13    11  12   7    19  20  15    18  18  13    23  24  18    21  22  16    21  22  16    24  25  19    25  26  18    26  27  19    22  23  15    27  28  20    24  24  16    27  24  17    31  27  20    32  28  19    35  31  22    39  37  27    40  37  28    38  36  26    43  40  31    45  43  32    41  39  27    34  34  26    24  24  17    17  16  11    15  14  10    15  14  10    14  13  11    14  13  10    17  17  13    14  15  10    10  11   6  
  34  34  24    30  30  20    30  30  21    26  26  18    31  31  23    27  27  19    18  18  10    23  23  13    19  19   9    22  22  12    28  28  18    32  34  23    33  35  24    31  33  22    32  34  23    29  32  21    24  25  17    17  18  10    20  21  13    16  18  10    23  26  15    28  30  19    21  24  14    20  22  14    26  27  19    22  23  15    25  26  18    25  27  18    31  34  23    33  39  27    38  44  32    39  42  31    39  40  31    40  43  31    49  51  38    57  59  45    50  52  39    46  46  34    48  48  36    43  43  30    28  29  23    21  22  16    15  16  11    13  14   9    13  14   9    13  13  11    13  13  11    13  13  11    11  11   9    11  11   9  
  33  35  24    42  44  34    20  21  13    20  21  13    23  24  16    13  14   6    23  24  16    25  25  17    27  28  20    31  32  24    24  25  17    38  40  32    37  38  30    24  25  17    23  24  16    20  22  14    19  20  12    25  26  18    26  26  20    29  29  24    37  40  31    32  35  26    34  37  28    31  33  25    31  32  24    30  31  23    33  34  26    40  41  33    41  43  35    36  42  32    33  39  29    32  34  25    33  33  25    29  31  21    33  35  24    41  43  32    42  43  32    38  38  28    35  35  25    29  29  19    24  25  19    21  22  16    18  19  13    14  15  10    12  13   8    16  16  14    18  18  16    12  12  10    13  13  11    16  16  14  
  29  32  21    43  46  37    23  26  17    22  24  15    18  21  13    16  19  10    25  27  19    30  31  25    37  38  32    42  45  38    52  55  48    56  59  52    40  43  36    26  29  22    23  26  19    24  27  20    22  25  18    28  31  24    24  27  20    28  31  24    27  30  23    27  30  23    34  36  30    31  32  26    27  28  22    26  27  21    28  28  22    32  30  23    32  32  24    30  33  26    29  32  25    35  37  30    40  40  35    36  36  29    39  40  32    44  45  37    42  43  35    35  36  28    25  25  17    22  22  14    24  25  19    23  24  18    21  22  16    16  17  12    13  14   9    16  16  15    19  19  17    12  12  10    13  13  10    14  14  12  
  26  29  20    34  38  28    28  31  22    23  26  17    13  16   7    20  23  16    22  25  18    33  35  30    33  35  30    33  35  30    51  54  49    39  44  39    22  27  21    27  32  26    25  30  24    27  32  25    26  31  24    25  30  23    33  38  31    41  46  39    25  28  23    31  33  28    29  31  26    26  27  21    30  31  25    33  32  27    43  41  34    53  49  41    54  52  47    47  48  43    34  36  31    37  38  33    45  46  40    41  42  36    42  43  37    36  37  31    25  26  20    20  21  15    17  16  11    22  21  16    22  24  18    18  21  14    16  19  13    15  16  11    13  15  10    12  14  11    16  17  15    20  20  18    16  16  14    13  13  11  
  19  21  12    31  34  25    25  28  19    22  26  16    16  20  12    25  28  21    26  28  22    29  31  26    29  31  26    23  25  20    26  28  23    25  27  22    24  28  22    23  26  21    25  28  21    26  29  22    36  39  32    36  39  31    47  50  41    52  55  46    42  44  39    38  40  35    34  36  30    36  37  31    47  46  41    50  49  44    55  53  46    55  50  40    45  42  36    38  39  34    43  43  40    47  48  43    40  41  35    31  31  26    35  34  29    31  32  26    26  27  21    29  30  24    28  29  23    25  26  20    25  28  21    22  25  18    21  24  18    20  22  17    18  20  15    16  18  15    17  19  16    20  20  18    16  16  14    13  13  11  
  15  16   8    32  33  25    30  31  23    23  24  18    22  23  17    25  26  20    20  20  15    23  24  18    29  30  24    26  27  21    24  25  19    30  31  25    29  32  25    20  23  16    31  33  26    30  33  24    49  52  43    56  59  49    61  64  53    61  64  53    39  41  36    31  34  27    49  51  45    62  62  55    64  64  57    57  54  47    50  45  35    50  43  31    33  28  21    31  29  25    53  54  49    59  60  55    42  43  36    36  36  30    42  40  35    41  40  35    42  43  37    51  52  46    48  48  43    33  34  28    31  34  27    28  31  24    26  28  22    20  22  17    13  15  10    12  14  11    13  15  12    13  15  12    13  15  12    13  15  12  
  28  28  20    36  36  28    42  42  35    30  29  24    20  19  14    22  22  17    21  21  15    30  30  22    31  31  23    26  26  18    26  26  18    25  25  17    22  23  15    29  30  22    50  50  42    58  58  48    72  72  61    67  67  55    50  51  38    33  34  20    32  35  28    32  35  26    57  59  50    68  68  59    65  62  53    51  49  38    44  40  27    58  49  35    50  45  34    39  35  30    42  43  38    39  40  33    28  30  19    40  41  31    41  41  33    35  35  27    34  35  27    43  44  36    50  51  43    45  45  38    44  49  42    38  43  36    32  37  31    26  31  25    20  25  19    19  24  20    18  23  19    16  18  15    16  18  15    16  18  15  
  43  39  33    43  40  33    53  50  44    46  44  39    34  31  26    41  37  32    55  52  46    52  49  40    42  38  30    32  29  20    24  21  12    24  24  14    42  42  32    41  41  31    39  39  29    43  43  33    41  41  29    38  39  25    43  44  28    40  41  25    41  44  35    44  47  37    46  49  38    44  44  33    44  43  31    42  40  27    47  40  27    53  43  27    46  39  27    36  32  27    44  45  39    42  44  35    33  35  23    33  34  24    29  29  21    30  30  22    33  34  26    40  41  33    51  52  44    54  57  48    38  43  36    27  32  25    20  25  19    20  25  19    21  26  20    20  25  21    19  23  20    19  21  18    15  17  14    11  13  10  
  27  24  17    38  34  26    68  63  52    90  82  71    93  83  73   112  99  91   109  97  88    95  86  72    87  78  62    68  60  41    57  49  30    56  47  26    58  47  27    44  35  20    34  25  13    47  37  22    45  32  16    51  38  21    63  47  33    81  65  52    81  68  49    72  62  44    61  53  40    57  49  36    62  53  39    84  71  51    74  60  39    55  44  28    46  37  22    57  47  35    64  54  42    61  51  41    59  50  41    61  48  38    59  45  34    54  43  31    57  48  37    54  46  36    55  47  38    46  39  31    29  29  21    25  24  19    22  21  16    25  24  19    25  24  20    22  23  18    24  26  20    22  25  19    19  19  15    22  18  17  
  25  13   2    51  39  22    61  48  26    73  60  32    80  67  36    96  81  50   105  93  63   103  96  68    92  85  57    80  74  45    91  83  56    77  70  42    68  61  33    70  60  33    67  58  29    90  79  49   101  90  58   102  88  56    89  74  45   103  88  59   113  99  66    97  85  52    92  81  49   107  95  63   109  94  61   121 104  68   106  87  57    69  51  37    69  53  37    67  52  33    61  46  24    61  46  23    68  54  28    67  52  28    75  59  36    81  66  43    82  67  44    81  67  45    89  77  55    86  75  53    82  73  56    67  58  41    62  53  36    63  54  38    54  47  31    50  42  27    51  44  31    43  37  25    43  35  24    46  38  25  
  78  57  26    93  73  38    77  57  18   103  85  40   155 137  91   141 123  77   146 131  88   159 150 116   136 127  95   131 122  91   142 135 106   133 126  98   133 126  98   142 134 102   131 121  89   136 126  90   159 147 109   162 149 111   164 150 115   139 123  89    88  68  57    77  58  42    70  52  32    85  66  42    82  58  34    81  55  32    79  53  32    74  51  34    71  48  30    66  45  24    80  60  36   100  80  54   125 105  78   130 113  82   120 104  71   119 103  69   127 108  74   115  97  61   104  86  50    99  81  45    98  79  47    93  74  42    86  68  37    81  65  35    75  58  28    70  53  25    69  52  29    63  45  33    56  38  26    59  42  29  
 130 108  59   144 122  72   121 100  50   136 115  67   156 137  91   159 140  99   161 144 106   137 127  93   136 126  96   163 154 128   147 139 118   152 144 126   162 154 136   164 157 138   176 168 147   162 154 130   147 137 111   160 149 123   168 155 131   178 166 142   175 161 135   156 142 109   145 130  90   130 113  67   115  94  49   151 128  86   165 143 100   153 135  87   153 135  88   163 146 102   175 158 115   178 160 121   188 170 132   191 175 141   181 166 133   182 166 132   182 165 129   158 140 101   142 123  83   152 130  89   140 118  77   144 122  81   138 116  75   130 110  70   126 107  67   124 105  65   123 104  65   121 104  62   125 106  66   121 102  64  
 156 135  92   170 149 106   168 149 106   164 147 104   167 151 112   172 156 123   161 146 111   117 106  68   121 110  78   153 143 117   167 159 140   173 165 148   168 161 143   172 167 155   169 165 154   169 166 151   161 157 139   166 161 142   166 161 144   170 164 148   166 156 143   160 150 131   170 157 131   169 154 122   141 122  89   164 143 112   187 168 137   175 159 126   175 160 128   185 170 141   174 158 132   174 158 135   179 163 141   182 170 145   182 172 145   183 171 143   178 164 134   175 159 127   173 157 123   174 156 120   169 150 107   163 144 101   158 141  98   160 143 100   161 143 103   165 147 107   167 150 107   158 144  95   167 151 102   181 160 113  
 179 159 134   179 160 132   177 161 129   180 164 128   177 163 126   165 151 116   117 104  65   127 116  69   145 133  95   168 157 126   165 155 131   170 163 140   164 159 134   145 143 125   142 141 123   154 153 133   164 162 139   160 158 135   152 150 127   148 146 123   149 144 124   151 144 121   157 147 120   168 156 125   156 141 108   167 152 119   181 166 135   180 166 140   181 167 140   182 168 139   175 161 132   170 158 125   161 150 118   163 155 127   172 165 139   178 168 141   172 161 133   178 165 137   179 165 134   168 153 122   162 147 104   156 141 100   151 137  95   156 143 102   163 149 110   162 147 109   158 144 107   164 151 118   162 148 112   153 136  96  
 163 145 123   136 119  91   125 109  77   114  98  63   121 105  69   116 100  64   102  87  47   159 146 101   169 156 120   166 155 126   163 153 131   168 163 140   171 167 142   161 155 133   152 146 123   157 151 124   157 152 122   160 155 123   160 155 122   169 164 132   160 154 122   174 163 135   178 164 136   180 165 134   181 167 132   185 173 133   172 159 122   176 159 133   168 153 124   170 155 126   178 163 133   180 165 134   167 152 121   173 161 130   172 160 129   173 160 128   178 166 132   186 173 139   174 161 126   157 143 108   152 137  95   158 143 103   159 145 106   167 152 114   179 165 128   173 158 122   161 147 110   168 153 114   167 154 113   173 162 117  
 105  86  53    97  79  43   104  86  48   103  84  47   116  96  61   107  87  54    85  66  33   135 119  85   156 142 114   156 143 125   160 148 135   159 151 138   164 158 142   176 166 146   176 164 140   158 147 119   164 153 121   162 152 117   164 154 119   177 166 133   180 169 134   175 161 130   138 120  93   159 139 113   182 165 132   172 159 117   163 151 102   150 135  77   139 124  68   159 143  90   158 142  94   172 156 110   165 150 106   166 151 109   165 150 109   169 154 113   167 152 111   163 148 107   153 138  98   154 139  99   152 134  94   153 138  97   152 137  97   151 136  97   145 130  93   135 119  83   135 119  81   143 124  85   125 110  74   120 109  78  
 118  79  45   128  94  53   137 106  58   136 107  59   141 114  71   127 101  68   112  88  61   108  88  63   119 101  77   115  98  74   117 103  77   110  98  74   106  96  71   120 108  85   120 108  86   125 113  89   125 115  88   120 111  81   123 114  82   127 118  85   155 139 114   151 135 111    90  71  47   114  93  65   142 122  89   131 109  70   118  98  54   125 107  60   120 103  58   109  91  50   101  83  47   108  89  57   105  86  55    97  81  54   103  89  62   104  89  62    98  82  56    94  77  51   100  81  56   103  83  58    95  77  53    90  73  50    84  70  48    74  63  42    70  62  41    61  54  35    65  59  37    71  64  39    71  65  44    64  58  40  
 142 108  73   139 107  69   137 108  67   136 110  69   134 110  73   125 102  71   127 105  79   123 108  85   122 107  84   111  99  77   107  95  73   109  98  76   105  96  74   102  87  65   103  87  64    92  76  53    91  75  50    97  81  56    91  75  48    84  69  40    96  81  52    97  81  55    83  65  41    96  77  53   103  83  58   101  82  52    92  73  41    85  67  35    90  73  42    96  79  51    88  69  46    84  66  44    83  65  45    76  62  39    79  67  43    84  72  48    85  70  47    80  65  42    83  68  45    82  67  44    81  67  45    77  64  43    81  69  49    70  61  42    61  54  36    63  58  40    70  65  48    76  71  51    68  62  45    60  56  41  
 114  99  77    85  70  50    69  57  38    74  64  47    78  70  52    81  76  59    99  93  76   103  96  77    83  76  57    67  60  41    68  60  42    75  66  49    75  66  49    84  66  46    98  77  56    98  77  56    97  76  55   100  79  58    93  72  51    90  72  50   102  87  57    94  79  51    90  73  51    72  57  37    62  46  30    64  48  32    62  46  28    64  48  27    63  48  28    68  53  34    59  44  27    55  40  24    59  45  29    66  55  36    65  54  34    71  60  40    79  71  50    78  70  49    72  64  43    53  46  25    66  59  41    63  56  38    72  66  49    64  58  44    54  48  34    63  59  47    65  61  49    56  54  41    35  33  21    25  23  10  
  59  57  42    46  44  33    44  43  37    45  44  42    37  38  34    36  40  32    43  47  36    49  48  33    54  53  38    58  55  40    57  54  39    48  42  28    53  47  33    64  49  31    58  40  20    64  47  27    70  54  35    70  53  36    70  53  37    66  49  33    86  74  50    71  59  38    59  47  29    46  34  19    44  33  20    44  34  22    48  38  25    55  44  26    55  43  26    57  49  30    63  55  36    76  68  49    80  72  53    76  68  53    54  46  33    36  30  16    39  34  20    43  41  26    53  50  35    44  42  27    39  40  26    38  39  25    46  45  32    45  43  31    39  36  27    53  50  41    47  46  37    35  36  28    23  24  16    16  17  11  
  79  73  54    69  63  49    53  46  38    50  44  40    46  42  34    37  35  22    38  37  24    41  44  33    41  43  32    47  49  37    50  50  38    39  37  25    44  41  30    55  49  32    46  39  20    56  49  31    66  59  43    65  57  43    69  61  48    61  55  43    42  32  22    34  25  15    32  24  13    40  32  21    42  36  24    40  34  22    43  37  25    40  33  23    37  31  20    40  34  22    50  46  34    69  66  51    72  69  54    67  63  51    51  49  37    42  40  28    39  39  27    36  37  25    43  44  32    39  40  28    23  26  15    27  30  21    25  27  19    22  23  15    19  20  14    28  29  23    21  21  17     9  11   7    11  13   8    12  14   9  
  65  63  48    74  71  61    49  47  41    40  38  34    37  36  31    33  33  23    35  37  26    31  36  26    30  33  24    31  34  25    27  28  20    35  36  27    54  54  44    47  48  35    39  40  26    38  38  26    38  39  27    44  46  35    51  53  42    48  50  39    45  40  37    48  43  38    47  42  34    45  43  31    44  42  29    44  43  31    37  36  27    26  25  23    21  20  18    22  22  19    22  22  18    27  28  23    29  30  25    26  27  20    21  22  14    23  24  16    26  27  19    24  26  18    28  31  22    23  26  17    19  22  15    24  27  20    19  22  16    12  14   9     9  11   6    13  15  10    13  16  11    14  19  15    12  17  13     9  14  10  
  39  46  39    40  49  44    26  32  28    24  30  27    28  34  32    28  34  32    25  30  26    27  30  23    31  34  27    34  38  31    39  42  33    46  50  41    41  44  35    33  36  29    39  42  35    45  48  41    59  63  56    73  78  71    64  69  62    49  54  47    33  35  29    40  41  34    39  40  31    32  33  22    32  32  22    38  35  28    30  28  24    28  30  27    29  31  28    40  42  39    36  39  35    29  34  30    25  30  26    28  33  27    31  36  29    31  34  27    29  32  25    26  29  22    25  27  21    18  19  13    17  19  14    16  18  13    19  21  16    14  18  12    14  19  13    15  20  16    12  18  13    10  15   9    10  15  10    14  17  14  
  36  39  32    32  35  28    33  36  26    27  30  19    27  29  20    35  38  31    24  25  20    29  31  26    33  35  29    26  29  22    34  37  30    47  50  41    41  47  37    43  46  43    45  47  46    44  46  43    47  50  46    43  47  43    30  35  31    27  32  26    37  43  33    38  43  31    50  53  41    55  57  45    48  48  42    45  41  40    43  42  39    41  47  35    38  44  32    40  47  34    36  44  31    33  41  30    29  37  26    32  40  31    42  49  41    41  46  39    36  40  33    35  37  31    44  45  39    49  51  44    36  36  34    24  24  22    29  31  28    25  29  25    25  31  27    18  24  20    14  20  15    18  22  16    17  19  14    20  22  17  
  32  39  37    29  35  32    29  35  31    38  44  40    44  49  43    24  29  24    21  27  21    24  31  24    30  36  30    36  38  33    25  27  22    18  24  18    21  28  21    27  34  27    31  38  30    28  35  27    29  36  29    29  36  29    23  31  26    31  40  35    48  51  44    37  40  33    36  37  32    32  33  28    28  28  23    21  22  17    28  29  24    28  29  24    29  30  25    25  30  24    33  37  31    33  35  30    42  43  38    40  44  38    39  44  37    38  43  36    47  52  45    55  60  53    54  59  52    52  57  50    53  54  48    68  69  63    64  66  59    53  56  49    45  48  41    43  48  42    27  31  26    21  23  20    17  19  16    14  16  13  
  18  25  23    26  32  30    33  39  35    37  43  39    37  42  36    23  28  22    22  29  22    26  34  27    33  39  33    40  43  38    33  35  30    26  31  25    30  38  31    31  38  31    39  46  39    35  42  35    32  39  32    33  40  33    27  34  27    32  37  31    39  41  36    39  41  36    36  38  33    36  38  33    44  46  43    41  43  40    38  39  36    38  39  36    37  41  36    40  45  39    41  46  40    50  54  48    55  57  52    55  58  52    45  50  43    49  54  47    46  51  44    49  54  47    55  60  54    47  52  45    69  70  64    66  67  61    65  68  61    64  67  60    54  56  51    53  58  52    42  46  41    30  32  29    23  25  22    19  21  18  
