P3
50 50
255
  48  58  57    46  56  55    39  49  46    32  38  34    28  30  25    27  28  23    26  26  24    26  26  24    32  33  28    33  34  29    28  30  25    30  32  27    35  37  32    35  37  32    32  35  28    34  37  30    34  37  30    38  41  34    39  42  35    41  44  37    42  45  39    36  39  32    29  32  24    28  31  24    27  30  23    26  27  21    23  24  18    21  22  17    22  23  18    24  25  20    19  22  13    25  27  16    33  33  24    41  41  33    53  52  47    68  67  63    83  83  83    91  92  94    95 107 110    93 103 104    93  99  94    79  82  73    69  70  62    65  66  61    53  53  53    48  47  52    47  52  56    48  53  57    42  47  50    34  39  42  
  41  51  51    40  50  49    37  46  43    32  38  34    28  31  27    26  27  22    22  22  20    25  25  23    29  30  25    29  31  26    29  31  26    30  32  27    33  35  30    35  37  32    31  33  26    32  35  28    33  35  29    36  39  32    36  39  32    37  40  33    38  41  34    30  33  26    25  29  22    27  30  23    26  29  22    23  24  18    21  22  16    22  23  18    23  24  19    24  25  20    21  24  17    23  24  17    29  28  21    39  39  31    54  53  47    68  69  63    81  83  79    89  92  90    92 103 108    93 103 104    88  94  90    80  83  74    75  76  68    66  66  61    51  51  51    46  45  50    51  56  61    50  55  59    41  46  49    31  36  39  
  45  55  56    41  51  50    37  46  43    31  37  33    29  31  28    28  28  25    21  21  19    24  24  22    25  26  21    25  27  22    30  32  27    32  34  29    32  34  29    35  37  32    35  38  31    35  38  31    32  35  28    34  37  30    34  37  30    33  36  29    35  38  31    29  32  25    25  28  21    27  30  23    26  29  22    22  23  17    19  20  14    21  22  17    22  23  18    22  23  18    22  24  20    24  24  21    30  29  24    40  39  33    51  51  43    62  63  57    77  79  74    88  93  88    93 104 110    90 100 102    81  87  83    87  90  82    89  90  82    67  68  62    52  52  51    52  52  55    55  61  65    52  58  62    38  44  48    28  34  37  
  47  57  58    45  55  54    38  48  45    31  37  34    26  30  27    26  27  24    20  20  18    24  24  22    23  24  19    23  25  20    30  33  28    32  34  29    31  33  28    35  37  32    39  42  35    36  39  32    32  35  28    34  37  30    34  37  30    33  35  29    34  37  30    29  32  25    24  27  20    26  29  22    25  28  21    21  22  16    19  20  14    20  21  16    21  22  17    21  22  17    22  22  22    22  22  21    30  28  25    38  37  32    46  47  40    56  58  51    71  75  70    86  92  86    90 101 107    94 104 107    83  89  85    85  88  81    88  89  81    70  71  65    53  53  51    46  46  48    60  68  71    55  63  66    38  46  49    27  35  38  
  44  56  56    47  59  57    44  54  53    39  45  43    30  35  31    27  29  26    21  21  19    23  23  21    24  25  20    25  27  22    29  31  26    31  33  28    32  34  29    34  36  31    33  36  30    32  35  28    31  34  27    37  40  34    37  40  34    35  38  31    33  36  29    25  28  21    22  25  18    23  26  19    23  26  19    23  24  18    21  22  16    20  21  16    22  23  18    24  24  19    23  23  21    20  21  16    23  23  18    33  32  27    45  46  40    58  60  54    69  74  70    79  85  82    87  97 106    93 103 105    88  94  92    87  89  83    87  88  80    73  74  68    56  56  54    47  47  47    62  69  75    59  67  70    40  48  51    30  38  41  
  38  50  50    41  53  53    39  49  49    35  42  39    29  34  30    26  28  25    22  22  20    22  22  20    24  25  20    26  28  23    26  28  23    29  31  26    32  34  29    32  34  29    30  33  26    29  32  25    30  33  26    39  42  35    41  44  37    36  39  32    33  36  29    25  28  21    22  25  18    21  24  17    22  25  18    25  26  20    24  25  19    21  22  17    22  23  18    26  27  22    24  25  20    21  22  16    23  22  17    30  29  24    42  44  38    56  59  55    64  70  69    69  78  78    77  87  97    76  85  90    81  88  85    87  90  83    84  84  77    68  69  63    51  51  49    51  51  51    63  70  76    63  70  75    43  51  55    34  42  45  
  42  53  53    40  51  52    36  46  45    33  41  38    30  35  34    29  32  29    22  22  19    20  20  18    24  25  20    26  28  23    25  27  22    29  31  26    33  35  30    29  31  26    30  33  25    29  32  25    31  34  27    38  41  34    40  43  36    37  40  33    35  39  32    28  31  25    24  27  20    22  25  18    24  27  20    27  28  22    24  26  20    20  22  16    21  22  16    24  25  20    24  25  19    23  24  18    25  25  18    29  29  24    36  38  34    49  54  51    62  67  69    68  75  78    73  82  90    76  85  90    84  93  92    83  88  82    83  85  77    71  72  64    53  54  48    49  50  50    67  72  79    69  75  81    48  56  60    38  46  49  
  45  55  56    41  50  52    37  46  45    39  45  43    34  40  37    25  31  27    21  23  18    19  21  16    22  24  19    29  31  26    30  32  27    34  36  31    36  38  33    27  29  24    30  33  26    28  31  24    32  35  28    35  38  31    34  37  30    34  37  30    34  37  30    29  32  25    27  30  21    27  30  23    28  31  24    27  30  23    23  26  19    21  24  17    21  24  17    21  23  18    25  24  20    20  21  15    22  23  17    26  28  23    31  36  32    47  51  52    63  68  71    71  76  81    72  80  83    77  88  93    78  92  95    73  83  83    89  91  85    74  74  66    54  55  49    49  53  52    59  62  70    69  74  80    47  54  60    40  49  53  
  45  55  57    43  51  51    37  46  45    37  43  41    34  40  36    26  32  28    19  21  16    20  22  17    24  26  21    29  31  26    33  35  30    36  38  33    35  37  32    31  33  28    30  33  26    27  30  23    28  31  24    29  32  25    28  31  24    29  32  25    30  33  26    26  30  22    29  32  23    29  32  25    30  33  25    27  30  23    23  26  19    20  24  17    20  23  16    20  22  17    23  22  18    20  22  15    23  24  18    26  29  22    32  35  31    45  48  48    60  64  67    66  71  75    78  85  90    75  87  93    72  87  91    67  79  79    79  83  78    69  70  63    54  56  52    51  56  56    61  64  75    64  71  78    47  55  62    40  50  54  
  46  56  57    44  53  52    37  46  43    37  43  41    33  39  35    28  33  29    21  23  18    22  24  19    25  27  22    30  32  27    37  39  34    40  42  37    35  37  32    34  36  31    30  33  26    27  30  23    26  29  22    27  30  23    27  30  23    28  31  24    28  31  24    26  29  22    28  31  22    31  34  27    30  33  26    26  29  22    24  27  20    22  25  18    21  24  17    22  24  19    22  23  18    22  23  17    23  24  18    25  28  21    31  33  28    41  45  44    55  59  60    64  68  71    78  85  93    77  87  96    70  85  92    66  79  80    75  84  80    66  68  63    47  50  49    49  54  58    77  83  95    63  70  80    51  60  67    45  56  60  
  45  54  56    43  52  51    39  45  43    37  43  39    35  40  36    29  34  30    24  26  21    21  23  18    25  27  22    30  32  27    40  42  37    45  47  42    36  38  33    34  36  31    30  33  26    29  32  25    28  31  24    28  31  24    31  34  27    31  34  27    29  32  25    28  31  24    28  31  22    33  36  29    30  33  26    25  28  21    24  27  20    23  26  19    21  24  17    23  25  20    23  24  19    23  24  18    22  23  17    23  24  18    28  30  24    39  41  38    52  54  53    61  64  65    77  84  94    81  94 103    68  85  94    63  78  83    72  83  82    65  72  70    48  53  55    58  65  73    82  88 102    66  74  85    54  64  73    47  60  67  
  43  51  52    42  50  50    40  46  44    38  44  40    36  41  37    30  35  29    26  28  23    19  20  15    26  28  23    31  33  28    38  40  35    44  46  41    37  39  34    36  37  32    33  36  29    33  36  29    29  32  25    30  33  25    33  36  29    33  36  29    30  33  25    29  32  25    29  32  23    35  38  31    30  34  27    23  26  19    23  26  19    22  25  18    20  23  16    23  25  20    26  26  21    26  27  21    23  24  18    22  23  15    26  28  22    34  36  31    45  47  45    56  57  58    71  77  87    76  88 100    64  82  93    55  74  80    57  71  71    60  69  69    53  58  64    67  74  85    81  89 105    79  89 102    56  69  78    45  58  66  
  40  49  48    41  50  49    41  47  45    41  46  42    37  42  37    31  36  30    26  28  23    18  20  15    30  32  27    34  36  31    35  37  32    42  44  39    37  39  34    38  40  35    36  39  32    36  39  32    30  33  26    29  32  25    33  36  29    32  35  28    28  31  24    28  31  24    27  30  21    34  37  30    30  33  26    22  25  18    23  26  19    24  27  20    22  25  18    25  27  22    27  28  23    29  30  24    25  26  18    23  24  16    26  27  21    31  32  27    39  39  37    49  50  50    63  67  79    67  79  92    65  85  96    59  79  86    48  63  65    56  66  68    56  63  71    63  71  83    76  85 102    84  95 109    62  74  86    50  64  71  
  39  48  46    39  46  44    35  41  38    37  41  39    40  45  40    32  35  31    24  26  21    23  24  19    28  30  25    33  36  31    37  39  34    39  41  36    37  39  34    39  41  36    43  45  39    33  35  30    30  33  27    31  33  27    32  35  28    32  35  28    27  30  23    26  29  22    26  29  21    29  32  25    27  31  23    24  27  20    23  26  19    22  24  18    23  24  18    24  25  19    28  27  22    31  31  25    29  30  23    26  27  20    25  28  21    29  32  25    37  39  33    46  48  43    61  65  76    64  75  87    64  82  96    60  80  90    44  59  63    51  61  63    60  70  74    67  78  86    73  89 106    75  92 107    61  77  89    46  63  70  
  38  47  44    42  48  46    34  41  39    33  37  36    37  42  38    31  33  30    20  22  17    22  24  19    26  28  23    34  36  31    42  44  39    42  44  39    39  43  37    40  44  39    40  42  37    31  33  28    34  36  31    37  39  34    37  39  34    35  39  32    29  32  25    26  29  22    28  31  24    29  32  25    29  32  25    27  30  23    25  28  21    24  25  19    25  26  20    27  27  22    29  28  23    33  32  27    32  33  27    29  30  24    28  31  24    30  33  26    36  39  32    45  48  41    50  53  61    55  65  75    59  77  90    64  83  93    54  69  74    59  70  72    64  75  79    70  83  91    77  96 113    76  93 109    64  82  92    50  65  72  
  38  47  46    44  50  48    38  44  42    31  36  32    32  37  33    28  29  27    23  25  20    25  27  22    28  30  25    36  38  33    45  47  42    43  48  42    40  45  39    39  44  38    38  40  35    32  34  29    37  39  34    42  44  39    44  46  41    42  44  39    33  36  29    29  32  25    28  31  24    30  33  26    31  34  27    29  32  25    26  29  22    25  26  20    27  28  22    29  30  24    30  29  24    34  33  28    34  35  29    32  33  27    30  33  26    31  34  27    36  39  32    44  47  40    49  53  53    52  63  69    54  72  82    62  80  90    58  73  80    65  75  80    65  77  82    68  81  90    70  87 105    71  87 103    62  79  89    51  65  70  
  40  49  48    43  49  47    36  42  40    30  35  31    29  34  30    24  26  22    25  27  22    27  29  24    31  33  28    39  41  36    45  50  44    45  50  44    41  46  40    39  44  38    41  44  41    35  38  33    37  40  36    42  45  40    47  50  45    47  50  45    35  38  33    30  33  28    28  31  25    31  34  27    32  36  28    31  33  26    26  30  22    25  26  20    25  27  20    27  28  22    31  30  25    35  34  29    35  36  30    35  36  30    33  36  30    32  35  28    35  39  32    42  45  38    48  50  46    55  64  65    59  75  83    69  87  96    71  84  92    71  80  87    62  73  79    61  75  83    77  92 108    78  94 108    66  80  89    47  59  64  
  43  52  51    42  48  46    36  42  40    32  37  33    29  34  29    22  24  19    25  27  22    27  29  24    32  34  29    38  42  36    45  50  44    45  50  44    41  46  40    41  46  40    41  46  42    36  41  37    36  41  37    41  46  41    50  55  49    50  55  49    35  40  34    27  32  26    32  35  28    33  36  29    34  37  30    33  36  29    29  32  25    27  28  22    26  27  21    27  28  22    32  31  26    34  33  28    35  36  30    36  37  31    35  38  31    33  36  29    35  38  31    41  44  37    49  50  43    57  66  64    60  75  82    71  88  97    76  89  97    75  84  90    62  71  77    62  75  82    81  94 106    84  97 107    67  79  85    40  52  53  
  44  53  52    44  50  48    38  44  42    31  36  32    27  32  26    22  24  19    25  27  22    29  30  25    31  35  30    36  41  35    42  47  41    42  47  41    39  44  38    41  46  40    39  44  40    36  41  37    37  42  38    39  44  40    47  52  46    47  52  46    33  38  32    27  32  26    34  37  30    34  37  30    32  35  28    30  33  26    28  31  24    28  29  23    28  29  23    28  29  23    30  28  23    31  31  26    32  33  27    35  36  30    35  38  31    32  35  28    33  36  29    39  42  35    49  50  41    58  65  62    59  72  80    74  89  99    82  95 103    77  86  91    56  65  68    52  65  68    77  89  94    81  93  97    62  74  75    34  44  44  
  44  53  52    48  54  53    42  49  45    30  35  31    24  29  23    23  26  19    20  24  18    24  29  23    29  34  28    35  40  34    40  45  39    41  46  40    41  46  40    44  50  44    39  44  40    37  42  38    36  41  37    35  40  36    41  46  42    42  47  41    33  38  32    32  37  31    35  38  31    32  35  28    28  31  24    25  28  21    25  28  21    27  28  22    29  30  24    30  31  25    28  27  22    30  29  24    31  32  26    34  35  29    34  37  30    31  34  27    32  35  28    39  42  35    53  53  45    60  66  65    58  71  79    76  90 101    90 101 109    83  93  95    58  68  69    52  66  67    72  84  85    75  87  88    58  68  68    30  40  39  
  41  50  49    46  52  50    41  47  45    27  33  29    24  29  23    23  28  22    20  22  17    30  32  27    30  35  29    33  38  32    41  46  40    41  46  42    36  41  37    38  43  39    37  42  38    35  40  36    33  38  34    34  39  36    38  43  37    40  45  39    38  39  34    31  33  28    35  38  31    31  34  27    33  36  29    33  36  29    27  30  23    27  30  23    31  34  27    32  35  28    32  31  26    34  33  28    31  30  25    28  29  24    32  33  28    35  36  31    31  33  28    27  29  24    37  42  38    47  54  52    63  71  73    77  88  92    85  96 102    91 102 108    66  77  83    59  68  75    69  77  80    72  80  83    61  69  71    42  50  52  
  41  50  49    44  53  50    38  44  42    26  32  28    23  28  22    19  24  18    20  22  17    30  32  27    31  36  31    36  41  35    43  48  45    45  50  46    41  46  41    41  46  42    36  41  37    40  45  41    33  38  35    32  37  33    41  46  40    40  45  40    34  36  31    33  35  30    36  39  32    32  36  28    32  35  28    32  35  28    27  30  23    27  30  23    31  34  27    33  36  29    40  39  34    38  37  32    34  33  28    35  36  31    37  38  33    34  36  31    31  33  28    31  33  28    37  42  38    42  48  46    55  63  65    75  86  90    86  97 103    95 106 112    79  90  96    64  73  80    72  81  83    74  82  84    60  69  70    40  49  50  
  41  50  50    43  52  50    35  41  39    27  33  29    27  32  26    19  24  18    22  24  19    31  33  28    34  39  33    39  44  39    46  51  47    46  51  47    42  47  43    42  47  43    39  44  40    44  49  45    37  42  38    34  39  35    43  48  42    41  46  40    33  35  30    33  35  30    38  41  34    35  38  31    33  36  29    31  34  27    27  30  23    27  30  23    32  35  28    35  38  31    43  42  37    39  38  33    35  36  30    37  38  33    39  40  35    33  35  30    29  31  26    30  32  27    34  39  35    40  46  44    47  55  57    69  80  83    84  95 100    91 102 107    86  97 102    67  76  81    71  81  82    71  81  82    60  69  70    39  48  48  
  40  50  51    42  51  50    33  39  37    29  35  30    28  33  27    20  25  19    24  26  21    32  34  30    36  41  37    42  47  43    47  52  48    48  53  49    45  50  46    42  47  43    40  45  41    42  47  43    39  44  40    38  43  39    44  49  43    43  48  42    39  41  36    36  38  33    40  43  35    37  40  33    34  37  30    30  33  26    28  30  24    27  30  23    30  33  26    35  39  32    40  39  34    39  39  34    36  37  31    35  36  31    36  38  33    33  35  30    29  30  25    27  31  25    32  37  33    44  50  48    43  51  53    61  72  74    82  93  97    84  95  99    84  95  99    72  81  84    65  75  76    65  75  76    57  67  68    37  46  45  
  39  51  51    41  51  50    33  42  39    29  35  31    24  29  23    19  22  15    25  27  24    32  34  31    38  43  39    45  50  46    50  55  51    52  57  53    49  54  52    47  52  50    44  49  45    44  49  44    44  49  44    44  49  44    44  49  43    43  48  42    40  42  37    33  35  30    38  41  34    37  40  33    34  37  30    31  34  27    30  33  26    29  32  25    31  34  27    37  40  33    36  37  31    38  39  33    36  37  31    35  36  31    35  37  32    33  35  30    27  32  26    25  30  24    26  30  29    43  49  49    41  49  51    52  63  65    77  88  92    77  88  92    79  90  93    75  85  87    61  73  73    59  69  70    54  64  63    35  44  43  
  40  51  53    39  49  48    33  42  39    28  34  30    20  25  19    21  24  17    25  27  24    30  32  29    37  42  38    44  49  45    48  52  49    51  54  54    49  54  53    47  51  49    45  50  46    49  54  50    46  51  47    44  49  44    46  51  45    41  46  40    34  36  31    30  32  27    34  37  29    35  38  31    33  36  29    31  34  27    32  35  28    31  34  27    33  36  29    39  42  35    40  40  35    38  39  33    37  38  32    38  40  35    38  40  35    32  34  29    25  30  24    27  32  26    31  35  34    41  47  47    44  52  54    52  63  65    77  87  91    79  90  92    83  94  96    79  89  89    67  79  79    57  69  69    51  61  59    33  42  41  
  39  50  53    36  45  47    32  41  38    27  33  29    21  27  21    22  27  20    25  26  23    30  32  29    37  41  37    41  46  42    46  51  49    46  51  49    47  51  50    45  49  47    41  47  43    47  52  48    44  49  45    42  47  42    47  53  46    41  47  40    33  36  30    32  35  29    31  34  27    33  36  29    32  35  28    32  36  28    35  37  31    34  37  30    35  39  32    41  45  37    45  46  40    41  42  37    40  41  35    43  45  40    42  44  39    34  35  31    28  32  27    32  36  31    33  37  36    37  43  43    43  52  53    51  62  63    73  84  85    79  91  91    83  94  95    79  89  89    77  88  88    60  71  70    49  60  59    32  43  42  
  41  52  56    37  45  48    35  41  41    28  34  30    23  33  25    17  27  18    26  28  23    33  35  30    39  42  39    40  45  41    50  55  51    44  49  45    49  54  50    48  53  49    43  49  45    42  48  44    43  48  44    44  50  43    42  48  42    37  43  36    31  37  30    29  35  27    32  35  28    31  34  27    32  35  28    35  38  31    37  40  33    38  41  34    39  44  37    42  47  40    45  47  42    42  44  39    42  44  39    44  46  41    42  44  41    37  39  36    34  36  33    35  37  34    34  38  38    38  43  43    40  49  47    49  61  58    68  80  77    81  92  89    83  93  91    85  94  92    86  94  96    66  76  77    53  65  65    36  50  50  
  47  58  62    38  46  48    34  40  40    27  33  29    25  33  26    21  29  21    25  27  22    30  34  28    35  40  36    39  44  40    49  54  50    45  50  46    50  55  50    48  53  49    44  49  45    43  48  44    42  47  43    42  47  41    40  45  39    35  40  33    29  34  27    26  31  25    30  32  26    30  34  27    33  36  29    37  40  33    39  42  35    41  44  37    42  47  40    45  50  43    49  53  47    43  47  42    40  44  39    43  47  42    45  49  45    42  46  42    38  42  38    36  40  36    34  36  34    36  41  37    36  43  39    42  52  47    61  71  66    77  87  82    83  90  88    83  90  88    86  94  96    72  82  83    59  71  71    41  54  54  
  50  60  62    35  43  45    31  40  37    31  37  33    28  35  28    22  29  21    25  29  24    30  35  29    34  39  35    41  46  42    48  53  49    47  52  48    49  55  51    46  52  48    47  52  48    45  50  46    43  48  44    42  47  41    39  44  38    33  38  32    29  34  27    27  32  25    29  32  25    31  34  27    35  38  31    39  42  35    41  44  37    43  46  39    44  49  42    47  52  45    49  54  48    44  49  43    40  45  39    42  47  41    45  50  46    43  48  44    38  43  39    35  40  36    34  36  31    36  38  33    38  43  37    48  54  48    64  70  66    78  84  80    86  92  88    88  94  91    81  89  91    81  91  92    73  83  84    46  58  58  
  55  65  67    32  42  43    27  35  32    26  32  28    24  30  24    20  25  19    24  29  23    30  35  29    32  37  33    42  47  43    44  49  45    44  50  46    46  52  48    42  49  44    47  49  47    44  47  44    42  44  41    41  43  38    39  40  35    34  36  31    30  33  26    28  31  24    27  30  23    30  33  26    34  37  29    35  38  31    36  39  32    38  41  34    39  44  37    41  46  39    41  46  39    39  44  38    38  43  37    39  44  38    41  46  42    41  46  42    39  44  40    38  43  39    35  39  32    35  39  32    44  46  41    57  59  54    64  69  65    73  78  74    80  86  83    86  92  90    81  90  91    79  89  90    70  80  81    50  60  61  
  60  68  70    30  40  40    23  32  29    20  27  23    22  27  20    24  28  22    22  27  20    28  33  27    31  36  32    42  48  44    40  45  42    42  48  44    43  49  45    39  45  41    43  45  42    40  42  39    37  39  36    36  38  33    34  36  31    30  32  27    27  30  23    27  30  23    26  29  22    29  32  25    30  34  27    30  33  26    29  32  25    32  35  28    34  39  32    37  42  35    38  43  37    37  42  36    37  42  36    38  43  37    38  43  39    38  43  39    38  43  39    38  43  39    30  36  30    30  35  30    39  42  37    50  52  50    58  62  59    67  72  71    75  81  82    77  86  85    84  94  95    76  84  86    63  71  73    51  59  61  
  60  68  70    29  39  38    22  32  29    20  26  22    20  25  19    25  27  22    21  26  20    29  34  28    33  38  34    46  52  48    40  46  42    43  49  45    43  49  45    41  47  43    40  41  38    37  38  35    34  35  32    33  34  29    31  33  28    28  30  25    27  29  22    27  29  22    27  30  23    30  33  26    31  34  27    28  31  24    27  30  23    31  34  27    34  39  32    37  42  35    39  44  38    38  43  37    37  42  36    37  42  36    39  44  40    40  45  41    40  45  41    39  44  40    33  41  35    33  39  35    36  40  38    40  43  42    49  53  53    64  71  72    71  80  81    66  77  78    70  80  81    73  81  83    63  71  73    49  56  58  
  57  62  63    29  36  36    23  28  23    18  21  14    21  24  18    21  25  20    24  29  23    25  30  24    32  37  33    41  47  45    43  49  46    49  55  52    47  53  49    37  43  39    37  38  34    36  37  33    32  34  30    31  33  26    30  32  26    26  27  22    25  26  20    27  28  22    29  32  25    32  35  28    32  35  28    30  33  26    29  32  25    31  34  27    33  37  30    36  39  32    38  42  35    37  41  34    33  38  32    36  41  35    45  50  44    49  54  50    48  53  48    48  53  49    42  48  42    35  41  36    35  39  36    39  43  42    48  53  52    60  66  67    67  76  76    67  75  77    66  79  81    71  83  84    56  66  68    43  51  53  
  54  58  59    33  39  37    27  29  24    20  21  14    22  24  19    19  24  20    23  28  22    24  29  23    32  37  33    39  45  43    42  48  46    49  55  53    49  55  51    39  44  40    33  35  30    30  33  28    31  33  28    31  34  27    26  29  22    26  27  21    28  29  23    29  30  24    31  34  27    31  34  27    32  35  28    32  35  28    31  34  27    32  35  28    35  38  31    38  41  34    34  37  30    38  41  34    35  40  34    36  41  35    44  49  43    53  58  54    54  59  55    54  59  55    48  53  47    40  45  41    37  42  38    42  46  45    50  56  54    60  66  66    66  75  74    68  76  78    67  81  84    69  83  84    51  62  64    39  49  50  
  56  58  57    34  38  37    29  31  26    20  21  15    18  20  15    16  21  17    21  26  20    25  30  24    34  39  35    40  44  43    40  46  44    46  52  50    49  54  50    43  49  44    37  39  34    31  33  28    34  36  31    36  39  32    26  29  22    27  28  22    32  33  27    29  30  24    31  34  27    30  33  26    30  33  26    32  35  28    32  35  28    32  35  28    36  39  32    41  44  37    36  39  32    39  42  35    38  43  37    36  41  35    41  46  40    54  59  55    60  65  61    55  60  56    54  59  53    50  55  51    43  48  44    43  47  46    52  58  56    63  69  69    67  76  75    70  78  80    66  80  81    71  82  84    52  64  64    39  49  48  
  60  58  56    31  34  33    26  28  23    20  21  15    17  20  15    18  23  19    21  26  21    27  32  26    36  41  37    41  45  44    41  45  44    44  49  48    44  50  46    38  44  40    34  36  31    31  33  28    33  35  30    33  36  29    27  30  23    27  28  22    31  32  26    31  32  26    31  34  27    29  32  25    29  32  25    30  33  26    30  33  25    30  33  25    34  37  30    40  43  35    41  44  37    38  40  34    35  40  34    35  40  34    38  43  37    51  56  52    60  65  62    58  63  59    57  62  55    55  60  56    48  53  49    46  51  50    55  61  59    66  72  72    69  78  77    70  79  80    69  80  82    75  86  86    58  68  68    42  52  51  
  67  61  58    34  35  34    27  29  26    23  24  18    18  20  15    19  24  20    25  28  23    30  35  29    37  42  38    41  45  44    43  47  46    44  48  47    40  45  41    33  39  35    29  31  26    30  32  27    29  31  26    29  32  25    29  32  25    28  29  23    29  30  24    33  34  28    33  36  29    32  35  28    31  34  27    30  33  26    29  32  25    30  33  26    35  38  31    39  42  35    39  42  35    37  40  33    35  40  34    36  41  35    36  41  35    45  50  46    59  64  60    65  70  66    56  61  55    54  59  55    50  55  51    50  54  53    55  61  59    65  71  71    68  77  76    68  76  78    69  79  79    75  85  85    60  69  68    46  55  54  
  73  63  61    38  38  38    28  30  27    23  24  19    16  17  12    16  21  17    25  26  21    30  33  28    35  40  36    38  42  41    41  46  45    42  46  45    38  43  39    33  38  34    32  34  29    31  33  28    29  31  26    29  32  25    29  32  25    29  30  24    29  30  24    31  32  26    31  35  27    34  37  30    33  35  29    29  32  25    28  31  24    32  35  28    36  39  32    38  41  34    37  40  33    40  43  36    37  42  36    35  40  34    37  42  36    44  49  45    55  60  56    63  68  64    59  64  58    52  57  53    53  58  54    57  61  60    56  62  60    62  68  68    65  74  73    61  69  71    69  78  77    70  79  78    55  64  63    45  54  52  
  73  62  58    39  39  37    27  29  26    24  25  20    18  19  14    20  25  21    21  23  18    30  32  27    37  39  36    37  41  40    39  43  42    40  44  43    39  44  40    37  42  38    33  35  30    25  27  22    27  29  24    30  33  26    27  30  23    30  31  25    34  34  29    29  30  24    28  31  24    33  36  29    32  35  28    27  30  23    27  30  23    33  36  29    37  40  33    36  39  32    41  44  37    45  48  41    38  43  37    33  38  32    42  47  40    51  56  52    52  57  53    51  56  52    65  70  64    54  59  55    58  63  59    65  69  68    59  66  64    62  68  68    64  73  72    58  66  68    70  79  78    66  75  74    49  58  57    44  53  50  
  70  59  54    48  47  42    27  32  26    25  32  25    14  20  14    13  19  12    22  27  21    30  35  29    33  38  32    33  38  35    38  44  40    40  46  42    36  42  40    36  42  40    31  33  28    30  33  26    28  31  24    28  31  24    29  32  25    31  32  26    31  32  26    29  30  22    32  33  27    33  34  28    33  34  28    34  35  29    32  33  27    28  29  23    32  35  28    43  46  39    46  45  40    45  44  39    42  43  37    46  49  42    46  51  44    50  55  48    57  64  57    57  64  57    62  67  63    64  69  65    66  70  69    64  68  67    70  76  76    73  78  80    67  72  75    78  83  86    71  80  79    65  73  73    54  60  60    40  46  44  
  70  63  57    50  49  44    35  39  33    27  33  27    12  16  11    18  22  17    25  30  24    31  36  30    37  42  36    38  45  41    41  47  43    42  48  45    38  45  42    34  40  38    37  40  35    35  37  31    31  34  27    29  32  25    29  32  25    30  30  25    30  31  25    30  31  23    33  34  28    36  36  31    35  36  30    34  35  29    33  35  28    32  33  27    36  36  31    43  44  37    44  43  38    46  45  40    41  42  36    42  45  38    46  51  45    55  60  54    60  67  60    53  60  53    61  67  62    62  67  62    64  70  66    61  67  65    64  70  70    69  75  75    68  74  76    73  79  81    80  88  87    68  76  75    54  60  60    41  47  45  
  87  83  77    65  66  61    38  40  36    26  29  25    14  16  11    21  22  17    25  30  24    29  34  28    36  41  36    39  45  41    39  45  41    43  49  47    43  49  47    37  43  41    38  40  35    34  37  30    30  33  26    28  31  24    28  31  24    29  30  24    31  32  26    32  33  25    34  35  29    37  38  32    37  38  32    35  36  30    36  37  31    37  38  31    40  40  33    45  45  37    46  46  38    47  46  40    43  44  38    46  49  42    47  52  46    51  56  50    57  63  58    53  60  54    54  61  54    56  63  56    62  69  65    61  68  64    59  66  64    65  74  73    69  78  77    64  73  72    64  70  70    59  65  65    46  52  52    32  38  36  
  91  90  85    83  84  79    53  55  52    32  34  31    15  17  12    20  21  16    25  30  24    28  33  27    36  41  37    40  46  42    41  47  45    47  53  51    49  55  53    43  49  47    35  37  32    31  34  27    27  31  23    28  30  24    29  32  25    30  31  25    32  33  27    33  34  26    32  33  28    36  37  32    37  38  32    35  36  30    38  38  31    41  41  33    45  45  37    49  49  39    48  48  40    47  47  39    45  45  38    49  52  45    48  53  47    49  54  48    55  60  57    55  62  58    52  60  55    53  62  56    62  71  66    62  71  68    55  65  63    64  73  72    71  80  81    60  70  71    51  57  57    51  57  57    42  48  48    26  32  31  
  96  95  91    88  88  85    69  71  68    45  49  46    16  21  15    15  20  14    23  28  22    30  35  30    39  44  41    44  50  47    47  53  51    51  57  54    49  55  53    43  49  49    39  40  35    32  35  28    27  30  23    29  32  25    31  34  27    32  33  27    32  33  27    32  33  25    33  34  29    36  37  32    37  38  32    38  39  33    41  41  33    44  44  34    49  47  38    57  54  45    54  54  44    54  54  46    49  49  42    47  50  43    47  52  46    52  57  53    56  62  58    48  54  50    45  54  50    50  61  57    63  73  71    69  79  78    61  71  72    63  73  74    67  77  79    51  62  64    47  53  53    43  49  49    34  40  40    25  29  28  
  97  96  92    97  97  95    83  85  84    57  62  58    22  29  22    17  27  19    24  29  25    34  39  35    42  47  43    47  53  49    52  58  56    53  59  57    48  54  54    45  50  50    42  44  39    32  35  28    24  27  20    26  29  22    30  33  26    32  33  27    31  32  26    32  33  25    35  37  32    38  39  34    39  40  34    42  41  36    43  43  35    46  43  34    52  49  40    63  61  49    59  59  49    59  59  49    52  53  45    49  52  45    48  53  47    53  58  54    55  61  57    47  53  51    48  58  57    52  62  63    59  69  70    64  74  76    56  67  70    59  70  75    70  81  86    61  72  76    47  54  54    41  47  47    33  37  38    24  28  27  
  97  94  92    96  95  93    89  90  89    79  84  81    44  53  47    15  25  19    27  33  28    38  44  40    45  50  46    48  54  52    55  60  59    57  63  61    53  59  58    50  57  57    42  44  39    31  34  27    22  25  18    23  25  18    27  29  23    31  32  26    32  33  27    34  35  27    37  40  34    40  41  35    41  42  35    45  45  36    45  45  37    45  42  33    51  49  37    63  61  49    57  57  47    56  56  46    53  54  45    53  56  49    51  55  49    49  54  49    54  60  57    57  63  60    53  63  64    55  65  66    59  69  71    65  76  79    61  72  75    63  74  78    72  84  89    69  80  85    44  50  51    44  50  50    37  41  42    23  27  26  
  99  96  91    99  95  92    95  95  93    92  94  93    62  68  68    28  37  36    26  32  27    37  43  39    47  53  49    51  57  53    55  61  59    57  63  61    54  60  58    49  55  55    43  45  40    35  37  32    25  27  22    22  23  17    25  26  20    31  32  26    35  36  28    37  38  30    40  43  34    41  42  34    43  44  36    47  47  38    46  46  36    43  40  31    46  44  32    56  54  42    57  57  46    58  58  48    55  57  47    53  55  46    51  54  47    47  52  46    49  55  50    56  62  58    53  63  64    55  65  66    61  71  72    68  79  81    63  74  76    59  70  72    64  76  78    62  76  77    48  53  56    48  53  56    37  43  43    22  26  25  
  94  93  88   102 100  98    99  99  98   100 103 102    76  82  82    47  56  55    28  34  30    36  42  38    44  50  46    48  54  51    51  57  55    53  59  57    54  60  59    53  59  59    45  47  43    35  37  32    23  25  20    20  21  16    24  25  19    30  31  25    32  33  27    32  33  25    40  42  35    44  45  38    47  48  40    48  49  40    45  45  35    40  39  30    43  41  31    53  50  40    50  50  40    50  52  41    47  48  40    43  47  39    43  48  42    45  50  44    44  50  46    48  53  50    49  59  60    54  64  65    62  72  73    68  78  80    61  72  74    56  67  70    61  71  73    56  68  70    54  59  62    52  58  59    38  44  44    23  27  25  
  96  94  92   104 104 102   101 101 101   106 110 111    83  91  90    52  62  61    29  35  31    32  38  34    40  46  42    48  54  52    51  57  55    52  58  56    50  56  56    48  54  54    41  43  40    32  34  31    22  24  19    18  20  15    22  24  19    28  29  23    31  32  26    31  32  26    42  43  37    46  47  41    49  50  44    47  48  40    43  43  35    37  37  27    40  40  30    49  49  39    50  51  42    49  50  42    43  44  38    38  41  34    41  46  40    45  51  47    45  51  49    42  51  48    43  53  55    49  59  60    58  68  69    68  78  79    63  73  74    59  69  71    64  74  76    61  72  74    55  61  61    50  56  56    35  41  41    21  25  24  
