P3
50 50
255
  81  63  25    81  63  23    85  68  25    93  74  31    86  67  34    72  55  24    65  50  27    52  44  26    41  34  20    36  33  18    37  35  20    45  44  26    34  35  19    37  38  22    36  37  21    32  33  19    30  31  17    32  33  19    33  34  20    33  34  20    29  30  16    35  33  18    38  37  19    39  36  19    42  37  18    48  41  22    55  49  27    59  53  31    71  56  23    87  71  37    88  70  34    99  79  44   102  82  45   107  87  50   101  83  47   106  88  52   107  89  49    97  79  43    79  62  32    65  49  24    53  42  24    44  38  26    33  33  25    25  26  20    22  24  13    26  28  17    29  31  18    29  31  18    31  33  20    30  32  19  
  85  68  32    87  69  30    91  73  31    99  80  39    85  67  30    75  60  26    67  55  29    51  43  23    39  34  17    38  35  20    37  35  20    40  39  21    34  35  19    34  35  20    34  35  21    32  33  19    30  31  17    30  30  17    30  31  17    32  33  19    33  34  20    37  36  21    41  39  24    41  38  21    43  38  20    48  43  23    54  48  27    57  51  30    72  58  26    82  67  35    89  71  36   100  80  43    98  78  40    96  75  38    92  73  35   100  81  45    99  79  42    95  76  41    84  65  35    66  51  26    52  41  23    44  38  24    35  35  24    28  30  22    27  29  18    30  32  20    29  30  20    27  29  17    29  31  18    29  31  18  
  81  65  32    88  70  35    96  77  40   105  85  47    96  80  41    88  74  39    77  66  37    57  50  27    44  39  20    44  41  26    43  40  25    41  38  25    35  36  21    33  34  20    31  32  18    31  32  18    30  31  17    29  30  16    29  29  16    31  31  18    29  30  16    33  34  20    38  37  23    40  39  22    43  41  23    49  45  27    54  50  30    56  52  33    69  56  28    72  57  27    81  65  31    97  77  40   101  79  39   103  81  41   100  79  39   104  83  45    98  77  40   101  79  45    92  72  41    71  54  29    53  41  21    44  38  23    35  34  22    26  28  17    25  27  16    28  30  19    28  30  19    27  29  18    27  29  17    27  29  17  
  74  57  26    78  59  27    82  61  29    86  66  31    84  68  33    73  60  27    65  55  26    51  45  21    41  36  17    39  36  21    38  35  22    38  34  22    35  36  22    31  32  18    29  30  16    30  31  17    30  32  18    29  29  16    28  28  16    30  30  18    23  23  11    28  28  16    32  33  19    35  35  21    39  37  21    44  42  26    49  47  29    50  48  30    60  49  26    68  56  28    89  74  41    99  81  42   105  84  42   110  87  44   108  85  43   108  85  45   103  81  41   107  84  48    98  77  45    75  58  32    57  45  24    48  41  25    37  35  22    24  26  15    25  26  17    28  29  20    28  29  20    26  28  17    27  29  18    26  28  17  
  68  51  25    71  51  24    72  51  22    73  53  23    63  46  20    51  38  11    49  39  14    45  39  17    39  36  17    35  32  17    31  27  15    33  29  17    33  34  20    30  31  17    28  29  15    28  29  15    30  30  18    30  30  18    30  30  18    29  29  17    24  24  12    28  28  16    30  30  18    31  31  19    33  33  19    35  35  21    37  38  22    37  38  22    48  40  18    59  49  22    83  70  36    89  71  31   103  82  37   114  92  45   114  90  47   114  89  49   115  91  47   117  94  53   106  83  49    82  62  36    62  49  28    51  44  28    36  34  22    21  22  14    24  25  17    26  27  19    24  25  17    21  23  14    22  23  15    22  24  13  
  67  49  25    73  53  28    77  56  29    79  57  30    62  45  25    49  36  17    47  37  17    46  39  20    40  37  20    38  35  20    33  29  17    34  30  18    31  32  18    29  30  16    26  27  13    26  26  14    29  29  17    31  31  19    30  30  18    28  28  16    25  27  16    27  29  16    28  30  17    29  29  17    30  30  18    31  32  18    32  33  19    32  33  19    49  43  25    55  48  22    78  65  31    85  69  25   110  89  42   121  97  49   119  93  47   123  96  53   125 101  53   126 102  57   113  91  52    88  69  39    65  50  29    48  40  27    33  30  21    19  20  14    21  22  16    23  24  16    20  21  13    18  19  11    19  20  12    20  21  13  
  67  50  25    72  53  28    74  54  29    73  53  26    57  43  26    47  34  17    43  35  17    42  35  17    37  34  16    36  33  18    34  31  18    36  32  19    30  30  17    28  29  15    26  27  13    25  25  13    27  28  16    31  32  20    30  30  18    25  26  14    22  24  13    26  28  16    28  30  18    27  29  16    27  29  16    31  32  20    32  34  21    32  34  20    35  31  16    49  42  20    79  67  34    92  74  33   113  91  45   118  94  45   121  95  47   127 102  55   126 103  52   127 103  56   116  94  53    91  71  40    66  50  30    49  40  26    35  31  23    23  24  18    19  20  14    22  23  17    21  22  15    20  20  13    21  22  15    22  23  16  
  62  48  21    69  53  27    71  55  29    66  49  23    52  41  21    47  36  17    44  36  17    43  36  18    39  34  16    36  33  16    36  34  19    35  33  18    33  33  21    30  30  18    28  28  16    27  29  16    29  31  18    30  32  19    29  31  18    26  28  15    24  26  15    28  30  17    30  32  19    28  30  17    27  29  16    30  30  18    32  32  20    32  33  19    34  35  19    46  41  21    75  64  35    89  71  34   106  83  39   115  92  43   126 103  53   126 105  53   126 104  54   130 106  60   122  98  59    96  72  43    68  50  29    53  41  26    37  33  21    24  24  15    21  22  15    22  23  17    22  23  18    19  20  15    19  20  15    22  23  17  
  63  49  22    66  51  25    66  50  25    63  47  22    55  44  25    47  38  19    43  35  16    41  34  16    38  32  15    35  32  15    34  32  17    32  30  15    33  33  21    30  30  18    27  27  15    26  28  15    27  30  16    27  29  16    25  27  14    23  25  12    27  29  18    26  28  16    27  29  16    28  30  17    28  30  17    29  29  17    30  30  18    33  34  20    35  36  20    43  38  18    68  58  31    79  62  28   100  78  36   113  91  43   115  93  44   120  98  49   124 102  52   129 107  59   124 101  60   101  78  45    74  54  30    58  45  27    43  38  23    27  26  14    25  26  18    21  22  15    18  20  14    19  20  15    19  20  14    18  20  13  
  62  50  26    64  49  26    61  46  23    62  47  25    54  46  27    48  39  22    43  36  18    43  36  18    42  35  19    41  35  19    39  35  20    36  34  19    30  30  18    29  29  17    27  27  15    26  28  15    27  29  16    28  30  17    26  28  15    24  27  14    27  29  18    26  28  15    25  27  14    27  29  16    28  30  17    31  31  19    33  33  21    34  35  21    33  31  16    47  42  22    60  50  24    72  57  24    91  72  34   101  80  37   112  89  44   121  99  52   123 101  51   130 108  59   126 103  59   108  84  49    83  64  34    69  54  32    54  47  28    32  29  13    22  24  13    21  22  14    20  21  15    20  21  15    20  21  15    20  21  13  
  57  47  23    58  46  24    55  44  22    58  45  27    49  40  23    45  36  19    41  34  16    42  35  19    43  37  21    42  36  20    37  34  17    36  33  18    31  31  19    29  29  17    28  28  16    27  29  16    28  30  17    28  30  17    27  29  16    26  28  15    25  27  16    27  29  16    27  29  16    25  27  14    27  29  16    33  33  21    35  35  23    33  34  20    35  33  18    48  43  24    56  48  25    71  57  29    84  68  34    96  77  37   104  84  41   116  95  52   117  96  47   120  98  52   116  93  49   107  83  45    87  67  34    72  58  31    59  50  29    35  30  10    22  22  10    26  26  16    26  27  19    23  24  18    21  22  16    23  24  16  
  53  43  21    52  42  21    51  40  23    51  40  23    47  40  23    46  38  22    42  36  20    42  35  19    44  38  22    41  35  19    37  31  15    38  32  16    31  31  19    31  31  19    29  29  17    29  30  18    28  30  17    28  30  17    26  28  15    25  27  14    25  27  16    29  30  18    30  32  19    26  28  15    26  28  15    32  32  20    34  34  22    31  32  18    39  36  19    41  36  17    53  47  25    65  53  28    74  59  29    91  74  38    90  71  32   103  81  41   113  91  48   115  92  49   111  88  46   109  86  45    92  71  36    76  60  32    68  57  35    45  37  20    30  30  17    32  32  20    32  32  22    26  27  19    23  25  18    24  27  18  
  50  42  21    49  41  21    49  40  23    45  36  20    48  41  25    47  40  24    44  37  21    43  36  20    44  38  22    41  35  19    39  33  17    42  36  20    29  29  17    29  29  17    29  29  17    28  30  17    29  31  18    29  31  18    28  30  17    28  30  17    25  27  16    27  29  16    29  31  18    29  31  18    28  30  17    31  31  19    33  33  21    34  35  21    41  38  21    43  38  19    51  44  24    63  54  30    64  51  23    81  65  32    90  71  35   104  82  43   107  85  45   109  85  46   108  85  43   110  86  48    93  70  36    74  57  29    72  60  38    53  44  27    39  40  26    34  34  22    29  29  19    27  28  20    27  28  20    26  29  20  
  51  43  24    49  41  22    49  40  22    49  41  23    50  44  28    43  36  20    41  34  18    43  36  20    42  36  20    41  34  18    42  36  20    45  38  22    35  34  21    32  31  18    29  30  17    26  30  16    25  28  15    26  30  16    27  29  15    25  26  13    27  28  18    27  28  17    29  29  17    30  31  19    30  30  18    30  30  17    33  34  20    39  40  26    40  36  18    47  42  21    55  48  25    64  53  29    64  49  27    77  60  34    92  72  41    97  76  39    97  75  37   105  83  46   105  83  47    96  75  39    85  65  32    76  59  31    69  56  30    58  47  24    42  39  27    37  34  22    30  30  20    27  29  19    26  28  20    25  28  18  
  49  42  23    49  41  22    49  41  22    51  43  24    46  40  25    42  36  20    43  36  19    42  35  19    40  33  17    43  36  20    45  38  22    40  33  18    37  35  22    33  31  18    28  30  16    26  30  16    25  29  15    26  30  16    28  30  17    25  27  14    28  28  18    28  28  18    29  29  17    31  31  19    30  30  18    31  32  18    33  34  20    36  37  23    41  38  20    48  43  21    58  52  26    65  54  30    69  53  31    77  59  35    85  66  35    88  68  29    94  72  33   100  78  40   100  78  42    91  68  34    85  65  32    82  65  37    76  62  36    66  54  30    44  42  27    42  38  26    34  34  23    30  32  21    27  30  21    27  30  19  
  46  39  21    46  39  21    46  39  20    48  41  22    43  37  21    42  36  20    43  36  20    42  35  19    41  34  18    44  37  21    43  36  19    38  31  15    37  33  21    32  30  17    28  29  15    27  29  16    25  29  15    26  30  16    28  30  17    27  27  15    27  27  17    29  29  19    30  30  18    29  29  17    29  30  18    31  31  19    32  32  20    30  31  19    39  37  22    44  41  21    49  45  20    55  48  22    63  51  27    71  55  29    79  64  29    91  74  31   100  79  38   103  81  40   107  84  43   101  79  40    88  68  32    83  64  34    74  58  33    60  48  24    44  41  26    41  37  25    34  34  22    30  32  21    27  30  21    26  29  18  
  43  36  18    44  37  20    44  37  19    45  38  20    46  40  24    41  36  20    41  34  18    44  37  21    45  38  22    42  35  19    41  33  17    42  35  19    37  33  21    31  29  16    28  29  15    27  29  16    26  30  16    27  29  16    28  30  17    28  28  16    26  28  15    28  30  17    28  30  17    25  27  14    26  28  16    29  31  19    30  32  19    27  29  16    35  33  20    39  37  18    40  39  16    45  42  17    52  45  22    58  47  22    73  59  25    92  77  35   105  86  43   105  84  41   110  87  44   105  81  39    91  68  30    83  64  32    77  61  36    66  51  30    44  41  25    39  36  23    32  32  20    29  31  20    27  30  21    25  28  19  
  42  36  21    45  38  22    45  38  21    47  40  23    47  41  24    46  40  23    44  37  20    41  34  17    44  37  20    45  38  21    44  37  20    44  37  20    39  35  23    31  29  16    27  28  14    28  30  17    27  30  16    27  29  16    28  29  17    28  28  16    27  29  16    28  30  17    27  29  16    25  27  15    25  27  16    27  29  18    29  31  20    28  30  19    32  30  19    35  35  18    38  38  17    39  40  18    43  40  20    48  40  19    64  53  23    85  72  35   105  87  44   107  86  41   112  88  42   110  85  40   102  76  35    94  73  38    81  64  36    64  49  24    46  43  26    40  37  22    32  32  20    30  32  21    28  31  22    26  29  20  
  38  35  20    42  36  21    43  37  21    48  41  25    45  40  21    49  44  25    45  38  20    38  31  13    42  35  17    47  40  22    47  40  22    45  38  20    40  35  24    32  29  17    28  29  15    29  30  18    27  29  16    25  27  14    26  26  15    26  26  14    26  27  15    26  28  15    26  28  15    26  28  17    25  27  16    25  27  16    26  28  19    28  29  20    33  30  20    31  32  17    31  34  15    31  34  16    31  31  16    38  34  18    56  47  25    73  60  32    95  78  37   105  84  40   112  88  42   113  85  39   110  83  39   104  81  41    87  70  38    69  55  25    48  45  28    40  37  22    31  32  18    29  31  20    27  30  21    24  27  18  
  33  29  17    37  31  17    41  35  19    48  41  25    47  42  23    46  41  22    42  35  17    41  34  16    44  38  19    45  38  20    44  37  19    47  40  22    41  37  25    34  30  18    28  29  15    29  31  18    27  29  16    24  26  13    26  26  14    26  26  14    24  26  13    24  26  13    27  29  16    29  31  20    27  29  18    24  26  15    25  26  18    29  30  22    32  29  20    28  29  15    29  33  16    30  34  19    26  28  15    32  28  17    45  36  20    51  39  16    79  64  25   102  80  39   114  91  44   115  87  39   113  85  38   107  84  42    95  77  42    83  70  36    52  49  32    44  40  25    34  34  21    31  33  22    29  32  23    26  29  20  
  30  28  13    31  29  14    36  35  17    41  39  22    49  43  27    47  41  25    42  36  20    40  34  18    42  36  20    43  37  23    41  35  21    41  35  21    36  32  20    33  31  18    29  30  16    27  29  16    27  31  17    27  29  16    25  27  14    23  23  11    27  29  18    25  27  16    25  27  16    27  29  18    28  30  19    27  29  18    26  28  17    26  28  17    27  29  16    30  32  19    31  31  19    29  30  16    29  30  16    26  27  13    28  29  13    37  35  20    73  58  28    97  80  44   101  80  36   112  89  37   121  95  44   111  87  41   104  81  47    90  68  39    60  54  35    44  41  22    38  36  21    33  35  22    31  34  23    30  33  22  
  30  28  16    31  29  15    35  33  18    38  36  22    46  40  24    45  40  24    41  35  19    39  33  17    40  34  19    40  34  20    40  34  20    42  36  22    35  32  20    33  30  18    29  30  15    27  29  16    26  30  16    27  29  16    25  27  14    24  24  12    24  26  15    23  25  14    23  25  14    25  28  17    27  29  18    25  28  17    25  27  15    25  27  15    26  28  15    28  30  17    29  29  17    30  30  17    32  33  18    29  29  13    29  27  11    33  31  15    59  45  17    76  60  27    97  77  34   114  91  41   113  90  39   107  84  38   105  83  45    96  76  44    68  61  42    50  46  27    40  37  22    31  33  20    29  31  20    29  32  20  
  32  30  18    32  30  18    34  32  19    35  33  21    45  39  23    45  39  23    41  35  19    38  32  17    38  32  18    38  32  18    38  32  18    41  35  21    35  31  19    32  30  17    28  29  15    27  29  16    26  30  16    27  29  16    26  28  15    26  26  14    23  25  13    22  24  12    23  25  13    26  28  16    27  29  17    26  28  16    25  27  15    25  27  15    28  30  17    27  29  16    28  28  15    28  29  15    31  30  15    31  30  13    31  29  12    33  31  12    51  38  14    72  55  27    93  74  34   103  81  34   110  87  38   111  88  43   102  80  41    93  73  39    73  66  47    55  50  31    42  40  25    33  33  21    29  31  20    28  31  21  
  33  29  18    33  30  19    33  31  19    33  31  19    42  38  21    42  39  22    38  35  19    36  32  17    36  32  17    34  30  16    34  30  16    37  33  18    34  30  18    32  30  17    28  29  15    26  28  15    25  29  15    26  28  15    26  28  15    26  26  14    23  25  12    23  25  12    24  26  13    27  29  16    28  30  17    27  29  15    26  28  15    27  29  16    27  29  16    28  30  17    30  31  17    30  31  15    31  30  13    34  31  14    36  33  15    38  35  16    48  37  17    70  55  29    83  66  31    90  68  26   104  81  36   110  88  45    95  75  35    85  65  30    70  62  42    54  48  30    44  40  25    35  35  23    30  32  21    29  32  23  
  34  30  18    34  30  18    34  32  20    34  32  20    40  37  22    41  38  23    38  35  20    35  32  17    36  33  18    34  31  16    33  30  15    34  30  18    34  30  18    32  30  17    29  30  16    26  28  15    25  29  15    25  27  14    25  27  14    26  26  14    26  26  14    26  26  14    27  27  15    29  29  17    29  29  17    28  28  16    29  29  17    31  31  19    26  28  15    29  31  18    34  35  22    36  37  21    36  35  17    39  36  18    44  39  19    44  39  20    54  45  24    63  50  25    76  60  27    90  70  30    97  75  33    96  74  32    88  69  31    80  61  28    67  56  36    51  44  25    44  41  24    37  37  25    33  35  24    30  33  24  
  36  33  18    35  32  17    35  33  20    36  34  21    39  36  21    39  36  21    36  33  18    35  32  17    38  35  20    37  34  19    34  30  18    34  30  18    35  31  19    33  31  18    29  30  16    27  29  16    24  28  14    24  26  13    24  26  13    26  26  14    26  26  14    25  25  13    26  26  14    28  28  16    27  27  15    26  26  14    28  28  16    30  30  18    26  28  15    27  29  16    33  34  20    37  37  21    39  37  19    44  41  22    49  44  24    46  41  19    53  47  23    62  52  25    71  56  23    90  70  33    95  73  35    88  66  30    87  67  34    79  60  28    67  56  36    52  44  25    46  40  24    39  37  25    32  34  23    29  32  23  
  37  34  17    35  32  18    35  33  19    37  36  22    37  35  21    38  35  21    34  31  17    34  31  17    37  34  20    36  34  21    35  33  20    35  32  20    34  31  19    32  30  18    30  30  17    27  29  16    24  27  14    25  26  13    25  26  13    24  24  12    25  25  13    24  24  12    25  25  13    25  25  14    26  26  13    26  26  14    26  26  15    29  29  17    26  28  16    26  28  15    28  30  16    33  32  17    36  35  17    43  41  22    47  43  24    45  40  20    47  40  17    62  52  26    64  51  20    79  63  29    90  71  35    90  69  36    87  68  36    81  63  32    71  59  37    57  47  27    48  41  25    41  38  24    34  34  24    30  32  23  
  37  35  21    36  34  21    36  34  21    37  35  22    39  35  23    40  36  24    34  30  18    33  29  17    35  31  19    34  30  18    36  32  21    36  32  21    31  31  19    30  30  18    31  31  19    29  29  17    25  25  13    27  27  15    27  27  15    24  24  12    25  25  13    25  25  13    26  26  14    26  26  14    27  27  15    28  28  16    28  28  16    29  29  17    28  30  19    29  31  18    30  32  19    33  34  20    34  35  21    37  35  20    38  36  21    39  36  21    47  38  21    53  44  23    58  48  22    67  56  27    65  52  19    77  62  29    78  62  29    78  62  29    79  63  36    66  53  28    54  46  26    49  43  28    42  40  29    34  34  26  
  36  34  21    36  33  21    35  32  20    33  30  18    36  32  21    39  35  23    35  30  19    35  31  19    37  33  21    35  30  19    35  31  20    33  30  18    29  29  17    29  29  17    31  31  19    30  30  18    25  25  14    26  26  14    27  27  15    24  24  12    24  24  12    25  25  13    26  26  14    27  27  15    27  27  15    27  27  15    27  27  15    27  27  16    26  28  16    27  29  16    28  29  17    30  30  17    31  32  18    34  32  19    35  33  18    35  33  18    40  33  16    49  42  22    53  45  21    60  50  22    61  47  17    70  55  22    74  58  25    78  62  29    85  69  39    73  59  31    59  50  26    50  44  26    42  40  27    34  34  25  
  34  32  19    31  29  16    31  29  16    33  29  17    35  33  20    37  35  22    33  31  18    34  32  19    36  34  22    33  31  19    33  31  19    31  29  17    29  29  17    29  29  17    31  31  19    30  30  18    26  26  14    25  25  13    26  26  14    25  25  13    26  26  14    24  24  12    22  22  10    25  25  13    29  29  17    29  29  18    27  27  15    22  22  10    23  25  12    24  24  12    25  25  13    27  27  15    28  29  15    32  30  17    33  31  18    33  31  18    38  32  18    44  37  19    47  39  20    57  47  22    65  54  26    72  57  26    76  60  27    84  68  34    89  73  39    79  64  33    63  53  26    51  44  25    42  40  25    33  33  21  
  32  30  17    30  28  16    32  28  16    33  29  17    34  32  19    36  34  21    31  29  16    31  29  17    33  31  19    30  28  16    31  29  17    31  29  17    29  29  17    28  28  16    29  29  17    30  30  18    26  26  14    25  25  13    25  25  13    25  25  13    24  24  13    23  23  11    22  22  10    25  25  13    29  29  17    29  29  17    26  26  14    22  22  10    26  26  14    26  26  14    26  26  14    26  26  14    26  26  14    26  26  14    26  27  13    26  27  13    33  30  15    37  34  19    40  33  15    45  37  16    64  52  27    75  60  31    76  60  26    76  58  22    86  68  32    78  62  29    63  52  24    51  45  23    45  42  25    36  36  24  
  30  28  16    32  30  18    34  30  18    34  30  18    34  32  19    36  34  21    29  27  15    29  27  15    31  29  17    29  27  15    30  28  17    30  28  16    30  30  17    25  25  14    26  26  14    27  27  15    25  25  13    24  24  12    25  25  13    24  24  12    22  22  10    23  23  11    25  25  13    26  26  14    25  25  14    25  25  14    25  25  13    25  25  13    25  25  13    25  25  13    25  25  13    25  25  13    25  25  13    26  26  14    26  26  15    26  26  15    25  24  11    32  30  18    38  32  18    37  30  11    58  46  23    77  62  34    84  67  33    74  56  20    88  68  33    83  66  34    68  55  28    54  46  26    47  44  29    37  36  25  
  33  31  19    33  31  19    33  29  17    33  29  17    34  32  20    36  34  22    30  28  16    30  28  16    32  30  18    30  28  16    30  27  18    30  27  18    31  31  19    25  25  13    24  24  12    26  26  14    25  25  13    24  24  12    24  24  12    23  23  11    22  22  10    23  23  11    25  25  13    25  25  13    26  26  14    26  26  14    26  26  14    26  26  14    27  26  14    26  26  14    25  25  13    26  26  14    26  26  14    26  26  14    27  27  16    27  27  16    29  30  17    30  29  17    39  35  23    42  35  18    57  45  24    70  54  28    86  67  34    84  65  28    90  69  36    86  67  37    69  55  29    53  45  26    46  43  29    38  35  26  
  40  35  18    40  35  21    34  31  17    35  31  19    34  31  17    35  31  19    30  30  18    31  30  20    31  31  20    30  29  19    31  29  18    30  28  16    29  29  17    24  24  12    25  25  13    28  29  16    27  28  16    24  25  13    23  25  12    22  24  11    23  23  11    22  22  10    22  22  10    24  24  12    25  25  13    26  26  14    26  25  12    25  23  11    25  25  13    24  24  12    25  25  13    26  26  14    25  25  13    25  25  13    25  25  13    24  24  12    31  32  19    36  35  22    41  38  24    44  37  20    53  41  20    70  54  28    87  70  37    84  66  30    83  66  33    78  63  34    60  48  23    55  46  28    48  43  31    34  31  22  
  48  41  22    48  43  24    39  34  19    36  32  20    38  33  19    35  31  19    33  31  19    30  30  20    28  30  19    30  30  20    31  29  17    31  29  16    29  29  17    25  25  13    25  25  13    26  28  15    24  26  13    24  26  13    25  27  14    24  26  13    24  24  12    24  24  13    24  24  13    25  25  13    25  25  13    25  25  13    28  26  14    29  27  14    23  23  11    22  22  10    24  24  12    25  25  13    24  24  12    24  24  12    25  25  13    23  23  11    28  29  15    36  34  21    39  36  21    44  37  19    51  40  18    65  51  25    83  66  33    85  69  32    75  60  27    70  55  27    54  42  18    50  41  25    44  38  25    29  26  17  
  60  52  28    57  50  30    47  40  23    41  34  20    40  34  18    35  32  17    31  29  16    28  28  16    28  28  18    30  30  20    32  30  18    32  30  17    29  29  17    27  27  15    26  26  14    24  26  13    23  25  12    25  27  14    26  28  15    23  25  12    24  24  12    26  26  14    26  26  14    25  25  13    24  24  12    24  24  12    29  27  15    31  29  17    23  23  11    22  22  10    24  24  12    25  25  13    24  24  12    24  24  12    26  26  14    24  24  12    27  28  14    34  32  19    36  33  18    44  37  19    51  40  20    54  43  17    71  56  25    82  68  34    77  62  31    69  54  27    60  48  24    53  45  25    45  39  24    34  32  20  
  69  58  31    65  56  33    57  48  29    50  40  23    46  39  22    42  36  21    35  31  19    32  31  18    31  31  21    31  31  21    33  31  19    32  30  18    26  26  14    27  27  15    28  28  16    25  27  14    24  26  13    27  29  16    27  29  16    21  23  10    23  23  11    23  23  10    23  23  11    24  24  12    25  25  12    25  25  13    27  25  13    27  25  13    24  24  12    23  23  11    25  25  13    25  25  14    23  23  11    24  24  12    25  25  13    25  25  13    25  26  12    35  33  20    35  32  17    41  35  19    48  40  20    50  41  17    61  49  20    72  59  28    73  59  31    65  51  25    62  50  26    52  44  23    44  38  21    39  35  22  
  70  57  29    68  55  30    63  50  29    55  44  24    48  39  22    43  36  20    36  31  18    33  31  19    34  32  23    34  33  23    34  32  20    31  29  17    29  29  17    29  29  17    29  29  17    25  27  14    24  26  13    28  30  17    29  31  18    23  25  12    24  24  12    23  23  11    22  22  10    25  25  13    28  28  16    28  28  16    27  25  13    24  22  10    25  25  13    24  24  12    25  25  13    25  25  13    22  22  10    22  22  10    24  24  12    24  24  12    23  24  10    34  32  19    35  32  17    39  34  19    46  39  20    50  43  20    58  49  23    63  53  23    71  57  30    64  50  24    63  51  27    53  45  23    48  41  23    43  40  24  
  68  53  24    67  51  25    68  52  28    62  47  25    49  39  21    42  34  17    34  28  14    31  27  16    33  31  20    35  32  23    33  31  19    31  29  17    31  31  19    30  30  18    29  29  17    25  27  14    24  25  13    27  29  16    28  30  17    25  27  14    25  25  14    24  24  12    23  23  11    25  25  14    29  29  17    29  29  17    29  27  15    26  24  12    24  24  12    23  23  11    25  25  13    25  25  13    22  22  10    22  22  10    24  24  12    25  25  13    25  24   9    31  30  16    33  31  17    37  34  19    40  34  15    45  38  18    56  49  25    58  51  23    69  55  31    65  51  25    63  51  25    56  49  24    53  47  25    48  44  26  
  72  57  28    73  58  29    79  63  37    76  60  35    65  54  36    56  46  29    44  36  23    36  32  20    35  33  21    35  32  23    31  29  17    28  26  14    31  31  19    29  29  17    31  31  19    29  32  19    27  29  17    28  30  17    27  29  16    23  25  12    25  25  13    25  25  13    25  25  13    26  26  14    26  26  14    27  27  15    29  27  15    29  27  15    25  25  13    25  25  13    27  27  15    27  27  15    24  24  12    24  24  13    29  29  17    29  29  17    29  27  12    31  29  16    34  32  19    37  34  19    34  28  12    37  31  11    53  47  23    58  52  26    66  51  28    65  50  27    60  48  22    57  50  24    55  49  25    50  45  26  
  94  76  35   107  86  41   122  98  51   134 108  59   125 103  54   115  93  50   109  86  49    98  78  43    87  66  32    81  61  32    74  52  33    58  39  27    47  35  17    49  40  24    41  35  20    33  31  17    34  34  23    32  32  22    27  26  19    29  28  22    31  29  16    30  28  15    29  27  14    29  27  14    30  28  15    31  29  16    32  30  17    31  29  16    27  28  14    27  28  14    28  29  15    28  29  15    29  30  16    29  30  16    29  30  16    29  30  16    32  29  12    34  31  14    36  33  16    35  32  15    33  30  13    34  31  12    37  34  15    41  38  19    50  40  18    59  49  25    60  50  23    59  52  24    55  48  22    47  41  19  
 109  93  36   131 112  52   140 119  58   144 120  57   141 122  55   133 114  50   133 114  52   136 119  55   135 120  52   133 121  51   125 112  50   110  97  41    89  78  43    86  77  44    72  67  34    56  54  24    50  50  21    42  43  17    36  37  14    39  38  16    33  31  17    31  29  15    30  28  14    30  28  14    30  28  15    31  29  15    31  30  16    31  30  16    28  30  16    28  29  15    28  29  15    28  29  15    28  29  15    29  30  16    29  30  16    29  30  16    32  29  12    35  31  15    37  34  17    37  34  17    35  32  15    34  31  12    37  34  15    39  36  17    45  37  15    56  45  23    57  47  22    58  48  21    53  45  19    45  39  17  
 113  96  34   134 116  50   137 117  48   141 118  49   141 121  57   130 110  50   125 105  48   124 105  48   118 101  42   112  97  40   102  89  39    92  77  35    78  65  28    78  67  32    69  62  28    58  54  22    52  50  21    45  44  17    39  38  13    40  36  14    33  31  16    32  30  15    30  28  13    30  28  13    31  29  14    33  31  16    34  32  17    34  32  17    30  31  17    30  31  17    29  30  16    28  29  15    28  29  15    29  30  16    30  31  17    31  32  18    35  32  15    36  33  16    37  34  17    35  32  15    33  30  13    33  30  11    35  32  13    38  35  16    42  34  15    53  44  22    57  46  22    57  46  20    55  44  18    46  39  17  
 118  99  36   140 120  53   143 120  52   146 123  54   146 127  54   134 114  47   124 104  42   121 103  40   118 103  39   113  98  38   101  88  36    89  74  31    76  61  31    76  62  33    68  58  30    56  51  25    50  45  24    44  39  21    40  36  19    40  34  20    34  32  17    33  30  15    30  29  14    30  29  14    31  29  14    32  30  15    33  31  16    33  31  16    30  30  16    30  30  16    30  28  15    29  28  15    30  29  15    31  30  17    32  31  18    33  32  19    35  32  15    35  32  15    34  31  14    33  30  13    32  29  12    33  30  11    37  34  15    40  37  18    42  35  16    53  45  24    61  49  23    61  48  20    61  47  21    52  42  19  
 129 105  42   142 119  50   143 121  48   148 126  51   149 129  46   142 123  47   133 113  44   122 105  36   115 100  33   108  93  33    97  83  33    89  74  33    77  62  29    73  62  30    66  57  26    53  48  20    44  40  16    39  37  16    37  34  17    36  33  18    37  35  20    35  33  18    33  31  16    32  30  15    31  29  14    31  29  14    31  29  14    30  28  13    31  29  16    31  29  16    30  28  15    30  28  15    31  29  16    32  30  17    33  31  18    33  31  18    36  33  16    36  33  16    37  34  17    37  34  17    35  32  15    35  32  13    36  33  14    37  34  15    42  37  17    55  47  24    65  52  23    67  52  19    69  54  24    60  48  22  
 116  90  34   128 102  42   138 115  49   146 123  56   148 126  47   142 119  47   127 106  40   116  96  35   112  96  35   108  93  39    93  78  35    78  62  29    75  62  29    72  61  30    65  59  28    55  51  23    43  41  17    37  36  16    36  34  17    33  31  16    34  33  18    34  32  17    33  31  16    32  30  15    32  30  15    31  29  14    31  29  14    30  28  13    31  29  14    31  29  14    31  29  14    31  29  14    31  29  14    31  29  14    31  29  14    31  29  14    35  32  15    35  32  15    36  33  16    35  32  15    34  32  14    34  31  12    33  30  11    33  30  11    41  36  14    53  46  19    66  53  21    69  53  17    76  60  26    68  54  25  
  97  71  30   105  79  36   108  86  40   107  85  38   105  81  41   107  84  46   103  81  46    96  76  40    90  74  35    86  71  33    75  62  28    66  53  23    64  54  27    61  54  28    54  49  25    44  42  20    36  35  15    33  31  16    33  32  18    31  30  18    32  30  15    30  29  14    30  28  13    31  29  14    33  30  15    33  31  16    32  30  15    31  29  14    32  30  15    32  30  15    32  30  15    31  29  14    31  29  14    30  28  13    31  28  13    30  28  13    31  28  11    31  28  12    31  28  12    31  28  11    32  29  12    33  30  11    35  33  13    36  34  14    38  34  12    48  42  14    65  52  18    72  56  17    78  63  22    71  58  23  
  75  58  24    76  59  26    71  55  28    66  50  25    62  49  25    59  46  23    56  43  23    54  42  22    51  41  22    49  41  19    50  43  19    52  45  22    47  42  22    45  40  21    41  38  19    37  34  15    34  33  15    33  31  15    30  31  15    30  31  15    32  30  15    31  29  14    29  27  12    30  28  13    32  30  15    33  31  16    31  29  14    30  28  13    31  29  14    32  30  15    32  30  15    32  30  15    31  29  14    30  28  13    31  29  14    31  29  14    31  29  14    32  30  15    32  30  15    31  30  12    31  30  12    33  32  13    34  33  13    33  32  12    38  36  13    43  37  12    64  51  20    78  60  21    82  65  20    75  60  19  
  66  51  16    67  52  20    63  48  19    57  42  15    45  35  17    42  32  15    40  31  18    39  29  18    37  29  17    33  28  15    33  28  13    34  30  13    36  31  11    37  32  13    36  33  14    37  34  15    35  34  16    34  33  15    32  32  14    30  29  14    32  30  13    31  30  12    30  28  11    30  29  12    32  30  13    33  32  15    32  30  13    30  29  11    32  30  15    32  30  15    32  30  15    31  29  14    29  27  12    28  26  11    28  26  11    28  26  11    29  27  12    31  29  14    30  29  12    30  29  11    30  29  11    33  32  12    34  33  13    33  32  12    37  35  12    43  37  13    60  48  20    73  57  20    83  66  22    81  66  25  
  62  47  14    63  50  18    62  48  19    54  43  15    38  33  14    36  30  14    35  29  15    34  30  19    33  31  19    32  29  18    29  29  16    30  30  16    37  34  14    37  34  14    37  34  15    37  34  15    35  34  14    35  34  16    34  33  15    34  32  15    33  32  14    32  31  13    32  31  13    32  31  13    33  32  14    33  32  14    32  31  13    30  29  11    31  30  12    32  31  13    32  31  13    31  30  12    29  28  10    29  28  10    29  28  10    29  28  10    31  29  14    32  30  15    31  30  12    29  28  10    30  29  11    31  30  10    32  31  11    32  31  11    34  32   9    41  35  13    53  41  15    66  51  18    79  64  23    84  69  28  
