P3
50 50
255
  78  91  84    60  73  66    85 101  94   109 126 118    96 116 106    59  80  71    80 101  92    75  95  88    75  92  88    68  81  78    39  54  51    42  63  58    86 113 106    77  97  93    35  54  50    45  66  61    88 109 104   149 169 166    90 105 105    17  29  29    24  25  30    22  27  30    38  46  48    70  83  81    62  81  77   121 143 137   116 138 130   110 128 122    77  91  85    36  47  41    21  33  29    14  32  31    49  73  74    95 124 118    93 119 112    43  61  57    23  33  31    19  23  21    15  15  15    20  19  19    16  23  23    36  45  44    91 105 101    98 113 108    39  51  47    10  21  15     9  17  11    10  15   9    15  20  14    13  18  12  
  98 110 106    95 108 103   106 121 116   111 127 121   107 126 120    93 112 106    89 109 103    91 109 103   114 127 124   108 119 117    87 100  98    90 109 104   128 152 146   137 157 151   128 146 140   120 141 134   129 151 144   126 146 142    54  70  67    22  34  32    44  50  50    35  42  41    60  70  69    54  68  65     9  28  24    48  69  64    69  88  84    97 111 107   150 167 161   133 153 145   103 124 117    85 106 102    76  96  96    56  75  72    25  41  38    10  21  19    10  18  15    17  22  20    15  20  18    14  20  18    15  19  20    12  19  18    19  30  27    62  74  70    81  92  88    52  61  56    22  30  25    11  16  10     8  13   7    14  19  15  
  37  49  45    35  47  43    46  59  55    49  64  59    58  75  69    82 101  95    70  88  82    35  51  45    42  54  50    44  53  52    40  51  49    43  57  54    91 110 106   140 160 152   146 166 157   147 167 158   143 164 155   127 146 137    99 114 107    98 113 106    98 109 105    35  46  42    48  61  58    45  60  57    21  37  36    34  53  51    66  82  81    43  54  55    80  99  95   133 158 150   135 162 153    83 105  99    29  46  44    15  26  23    14  20  18    14  20  18    18  22  21    20  28  25    17  27  24    14  26  22    14  18  17    13  17  16    12  20  17    17  26  23    45  54  51    78  84  79    68  73  69    44  49  45    28  33  29    18  23  19  
  42  53  50    20  31  27    30  42  38    33  47  43    30  45  40    70  85  80    78  93  88    31  43  39    20  29  26    18  24  22    26  35  34    23  34  33    38  52  49    71  88  81    75  92  84   106 123 115    91 108 100    73  89  80    94 110 100   133 147 138   122 135 127    62  77  71    39  54  48    25  40  37    10  25  22    38  52  52    76  89  90    33  46  47    16  33  32    62  84  79   106 129 123   107 127 121    61  79  73    25  34  31    23  29  27    24  28  27    26  30  29    23  28  26    17  25  22    16  27  23    22  24  22    18  20  19    21  25  24    20  24  23    15  19  18    27  30  30    39  43  41    53  59  55    44  49  45    26  31  27  
  58  70  65    37  48  44    46  57  53    41  52  48    27  39  35    46  58  54    76  88  84    66  77  73    31  41  37    20  27  25    27  33  31    28  35  35    33  42  41    52  66  60    36  51  44    49  62  55    37  49  42    32  43  35    42  53  44    69  80  72    92 105  96   105 118 109    87 100  93    49  61  56    24  36  33    28  40  38    62  76  76    55  72  72    21  36  36    18  30  30    41  56  53    87 105  99   115 137 127    88 104  96    37  48  42    19  28  25    22  26  25    24  26  25    17  21  20    19  23  24    16  18  15    15  17  14    10  12   9    16  18  16    11  15  13    13  17  16    23  29  26    32  38  34    40  46  44    36  42  40  
  44  53  50    51  61  57    61  72  68    48  59  55    45  56  52    40  50  47    57  68  64    78  89  85    60  69  66    40  49  46    25  31  29    27  33  31    36  42  42    47  57  55    40  51  47    34  43  38    29  35  31    33  40  34    38  45  38    41  50  42    47  58  50    55  66  58    76  87  80    81  92  86    68  77  74    34  43  40    48  60  57    54  71  69    28  40  40    24  32  34    29  38  39    33  47  44    79  99  92   136 156 147   113 130 122    50  61  55    25  30  28    25  28  27    23  24  25    23  24  26    22  27  23    25  29  25    29  31  28    28  31  27    27  31  29    32  38  36    31  37  35    32  38  36    30  36  34    30  36  34  
  35  44  41    49  58  55    60  69  66    42  51  48    39  49  45    32  42  39    40  50  46    73  84  78    80  90  86    91 100  97    70  79  76    41  46  44    30  34  33    29  36  35    31  37  37    30  34  33    32  32  31    41  41  39    50  52  49    39  44  38    29  34  30    29  35  31    33  39  35    60  66  62    89  95  91    71  77  73    36  46  41    42  53  50    37  47  47    34  44  46    47  57  58    36  47  46    38  50  46    78  93  85   116 132 122    59  71  64    21  29  25    24  30  28    31  37  36    31  37  37    33  40  33    40  46  40    46  49  46    50  53  50    43  47  45    40  49  46    42  50  48    40  46  44    44  50  48    54  60  58  
  29  38  37    29  38  37    41  50  49    28  37  37    20  29  28    27  36  35    38  48  45    54  67  60    48  59  54    53  65  61    70  78  75    72  77  76    54  58  57    32  36  38    30  34  38    38  37  40    45  43  45    48  46  45    44  44  42    37  38  35    42  44  43    40  42  39    36  40  36    45  50  45    81  87  80    61  68  61    48  55  48    56  61  58    47  56  54    26  40  41    26  40  41    29  38  39    34  39  38    34  44  38    87 100  91    80  91  85    47  55  51    40  50  47    40  52  49    35  48  45    53  62  54    57  64  58    58  62  58    58  62  58    45  51  49    38  47  44    40  49  46    40  46  44    34  40  38    32  38  38  
  25  30  30    35  42  41    47  57  57    46  58  58    45  59  59    44  58  58    39  53  52    48  57  56    50  59  58    52  61  60    50  59  58    79  88  86    95 104 101    72  82  78    58  69  65    44  55  51    46  57  53    50  60  56    53  62  57    44  53  48    46  55  54    50  61  57    57  68  63    66  77  69    64  70  64    29  30  24    36  36  32    56  60  56    66  74  69    57  69  65    43  54  51    30  42  40    39  48  48    41  48  45    60  66  62    77  86  81    65  74  69    62  72  67    55  66  62    45  56  52    50  56  54    56  62  60    50  56  54    43  50  48    35  40  37    53  58  55    55  61  57    46  52  48    43  49  45    41  47  45  
  44  50  50    46  55  54    49  58  57    46  56  55    54  66  66    60  72  72    56  67  67    59  68  67    63  72  71    67  76  75    68  77  74    70  79  76    75  84  81    81  92  88    87  98  94    88  99  95    84  93  89    68  77  72    60  68  63    54  63  58    53  62  59    53  62  59    53  62  58    55  62  56    55  60  54    40  41  35    34  35  29    32  36  29    49  55  48    75  85  77    76  87  81    67  77  73    55  63  60    49  57  53    48  57  52    66  75  70    62  71  66    59  68  63    56  65  61    55  64  61    53  59  55    52  58  54    51  57  53    51  57  53    44  49  45    57  62  56    66  71  65    66  71  65    58  63  57    56  61  57  
  56  65  62    47  56  54    43  52  51    43  52  50    51  60  59    57  66  65    53  62  61    57  66  65    58  67  65    68  77  74    71  79  76    58  67  64    60  69  66    65  74  71    76  85  80    95 104  99   111 120 115   105 114 109    87  94  89    66  73  66    61  67  64    55  62  59    51  60  55    46  54  48    48  54  47    53  56  49    47  48  41    39  41  30    35  40  29    39  45  35    58  66  56    96 103  95    95 100  93    63  72  64    44  54  46    56  66  58    61  69  64    60  66  62    51  57  53    60  66  62    53  59  53    52  57  51    55  60  54    56  61  55    52  57  50    52  57  50    58  62  55    62  65  58    54  57  50    50  53  46  
  42  53  49    37  48  44    40  49  46    42  49  46    42  48  46    46  50  49    48  52  52    49  55  53    47  53  51    55  61  59    55  61  57    52  58  54    56  62  58    55  63  58    61  67  63    70  76  72    79  85  80    86  93  86    92  99  92    89  96  89    90  95  91    83  88  84    78  84  79    66  73  66    63  68  61    64  67  60    62  62  55    58  58  46    52  53  41    42  44  31    43  46  33    65  68  57    91  94  83    92 100  91    72  82  74    49  59  51    51  57  51    66  72  65    58  63  58    67  72  68    63  68  61    60  66  58    56  62  52    50  53  44    56  59  50    56  59  50    54  57  48    51  52  44    50  51  42    47  48  40  
  45  54  49    35  44  39    35  43  38    44  49  45    49  54  50    41  43  42    30  33  31    32  37  33    34  39  35    36  41  37    40  45  42    47  52  48    51  56  51    55  61  55    57  64  57    56  61  55    44  49  43    45  50  44    52  57  50    53  58  51    72  74  69    83  86  81    93  99  92    93 100  92    97 102  94    75  78  71    69  70  62    70  71  57    59  60  46    54  54  42    53  53  41    51  51  39    69  70  58   115 121 112   120 127 119    77  83  75    57  63  56    65  70  64    56  61  55    54  56  51    58  61  52    59  62  53    60  63  54    53  56  46    60  63  52    61  63  52    60  61  50    55  55  45    52  52  42    48  48  38  
  33  40  33    42  49  42    41  47  40    33  38  33    35  38  34    37  39  35    30  33  30    28  33  29    29  34  30    32  37  31    39  44  39    35  40  35    40  45  39    42  47  41    37  42  36    34  39  33    32  36  29    43  46  39    47  51  43    40  43  36    41  42  37    44  46  40    51  55  48    76  83  75   109 115 107    72  75  68    45  48  39    48  49  36    58  56  44    59  57  45    58  56  44    62  61  48    60  61  48    74  76  66    76  79  70    57  62  55    73  78  71    99 104  97    81  86  79    36  41  34    37  40  31    37  40  31    51  53  45    55  56  48    56  58  47    54  56  45    60  62  52    67  67  58    57  57  47    54  54  44  
  25  28  21    33  36  29    34  36  31    30  32  27    31  33  28    32  34  29    32  34  29    37  39  34    34  36  31    37  39  34    37  39  34    25  27  22    30  33  26    34  37  30    32  35  28    37  40  33    38  41  35    42  45  38    41  43  35    36  37  29    38  37  32    38  39  33    29  33  26    33  38  31    52  57  50    44  47  40    40  43  35    39  41  32    37  37  29    40  38  31    47  44  37    55  53  46    47  48  40    37  37  29    30  31  23    24  25  17    43  46  38    72  77  70    81  87  80    68  75  67    46  47  41    30  31  25    32  33  25    38  39  31    43  44  36    49  49  41    51  51  43    50  51  43    43  44  36    41  43  32  
  36  37  31    30  32  25    32  35  28    35  38  32    27  29  24    18  20  15    17  22  16    18  20  15    20  22  17    24  26  21    18  20  15    22  25  18    26  29  22    30  33  26    23  26  19    24  27  20    24  26  19    25  26  18    23  25  16    27  28  20    31  28  23    29  29  23    26  30  23    25  30  23    25  30  23    25  29  22    31  34  27    34  36  29    34  33  28    35  32  27    31  28  23    32  30  25    33  34  28    33  31  24    35  32  25    28  29  20    27  29  21    33  40  30    43  52  43    67  77  68    67  67  62    41  42  36    30  31  25    32  33  25    42  42  34    46  46  38    38  38  30    37  38  32    37  38  30    30  30  23  
  29  30  24    27  28  22    24  25  19    26  27  21    22  23  17    16  17  11    16  18  12     9  14   8    10  15   9    16  21  15    17  22  14    15  20  12    19  24  17    22  26  18    18  21  14    14  17  10    11  13   8     8  10   6     7   9   6    12  14  12    11  13   8    18  20  15    19  21  16    19  20  15    22  24  19    24  26  21    26  28  23    30  31  26    33  34  29    35  36  30    30  31  25    29  30  24    28  29  23    28  29  23    30  31  25    28  29  21    30  31  22    33  35  24    36  38  25    44  46  33    71  75  58    78  83  64    52  56  39    27  31  16    31  34  25    24  26  21    25  27  23    30  32  22    30  31  23    26  27  19  
  24  25  19    25  25  20    24  25  19    24  25  19    24  25  19    28  29  23    31  32  26    20  23  16    17  20  13    17  20  13    16  19  12    22  25  17    27  30  21    28  30  23    22  25  18    12  15   9     8  10   5    10  12   8    12  14  11    14  16  13    12  15   8    16  19  12    19  22  15    20  24  17    22  25  18    26  29  22    28  31  24    25  26  21    28  29  23    30  31  25    26  27  21    24  25  19    21  22  16    15  16  10    17  18  12    20  21  15    21  22  14    23  25  15    29  31  20    39  41  30    45  47  33    79  82  65    95  98  82    49  51  37    17  19   7    23  24  18    23  24  17    20  22  12    23  24  17    31  32  24  
  21  22  14    23  24  16    28  29  21    28  29  21    29  30  22    32  33  25    30  31  23    24  25  17    23  25  16    19  20  12    20  22  13    29  31  20    37  39  28    41  44  36    39  42  35    29  32  25    16  19  12    13  15  10    14  16  11    14  16  13    20  21  15    18  19  13    20  21  15    20  21  15    17  18  12    20  22  15    26  27  21    21  22  16    16  17  11    13  14   8    12  13   7    16  17  11    19  20  12    15  16  11    14  15   9    17  18  12    19  20  13    19  20  12    24  25  17    29  31  21    33  35  24    49  51  37    94  96  82    91  93  79    39  41  28    20  21  13    20  22  13    20  22  11    22  23  14    24  25  17  
  29  30  19    26  28  17    33  35  24    35  37  26    37  39  28    37  39  28    30  32  21    33  33  23    32  32  22    26  26  16    30  30  20    28  28  17    29  29  17    32  34  24    34  38  30    31  34  27    23  26  19    23  25  19    25  27  22    23  25  20    19  21  14    17  18  12    19  20  14    18  19  13    19  20  14    24  25  19    26  27  21    19  20  14    14  15   9    14  15   9    16  17  11    17  18  10    17  18  10    18  19  13    14  15  10    14  15   9    16  17  11    18  19  12    20  20  13    17  18  10    26  27  19    29  31  20    54  56  43    88  89  76    70  72  59    36  38  26    22  24  13    22  24  13    20  22  11    16  17   9  
  37  39  28    33  35  24    38  40  29    38  40  29    40  42  32    44  46  35    39  41  30    43  43  33    43  43  33    43  43  33    41  41  31    35  35  23    33  33  21    31  34  24    32  35  28    29  32  25    25  29  22    25  28  21    23  26  19    17  20  13    16  17  11    16  16  11    18  19  13    17  18  12    20  22  15    24  24  19    21  22  16    21  22  16    16  17  11    17  18  12    20  21  13    18  19  11    16  17   9    18  19  12    17  18  12    17  18  12    20  21  12    22  23  15    22  23  15    18  19  11    20  21  15    31  32  23    35  37  25    47  49  36    54  56  42    51  53  40    37  39  26    24  26  15    19  20  10    22  24  14  
  34  35  27    36  37  29    42  43  35    39  40  32    39  40  32    41  42  34    40  41  33    40  40  32    35  35  25    47  47  37    50  50  40    54  54  44    46  46  36    42  44  35    47  49  41    46  49  40    38  41  32    26  29  20    20  23  14    24  27  17    23  26  19    21  24  17    22  25  18    21  24  17    25  28  21    25  28  21    20  22  16    25  26  20    19  20  14    21  22  14    26  27  19    25  26  18    25  26  18    22  24  14    25  27  16    28  30  19    27  29  18    28  30  19    26  28  17    28  30  19    25  26  20    29  30  21    31  33  20    34  36  22    35  37  23    41  43  30    47  49  37    41  43  32    29  31  20    29  32  21  
  26  27  21    33  33  28    41  42  36    41  42  36    41  42  36    40  42  35    35  36  29    35  36  28    46  47  39    50  51  43    39  40  32    40  42  33    48  50  39    45  47  38    46  49  39    54  57  48    54  58  48    44  47  38    41  44  35    55  58  48    40  45  38    30  35  28    28  33  26    30  35  28    39  44  37    44  49  42    37  41  34    31  32  26    31  32  25    36  37  29    42  44  35    37  38  30    32  33  25    28  29  18    36  38  25    37  39  26    35  37  24    37  39  26    31  33  20    34  35  22    33  34  26    33  35  23    34  36  22    43  45  31    47  49  36    36  38  25    41  44  33    53  55  44    44  46  35    35  37  25  
  24  25  19    28  29  23    35  36  30    42  43  37    50  51  45    52  52  47    46  47  41    48  51  44    52  55  48    46  49  42    53  56  47    50  53  44    46  49  40    50  53  44    45  48  39    49  52  43    62  65  56    60  63  54    53  56  47    57  60  51    58  64  54    36  42  32    28  34  24    29  35  25    39  45  35    51  57  47    47  52  43    39  40  34    35  36  29    36  37  29    39  40  32    33  34  26    29  30  22    34  36  24    46  48  34    44  46  32    45  47  33    51  53  40    44  46  33    45  47  34    43  43  33    42  42  31    48  48  35    49  50  36    50  50  38    40  40  30    40  40  31    46  48  36    51  53  42    43  45  34  
  17  20  13    24  27  20    30  33  26    39  42  35    45  49  42    48  51  44    51  54  47    53  56  49    54  57  50    48  51  44    57  60  53    58  61  54    58  61  54    56  60  54    39  44  38    41  46  40    46  51  45    55  60  54    46  51  45    49  54  48    50  55  49    35  40  34    25  30  24    29  34  27    34  39  32    35  40  33    39  43  36    36  37  32    27  28  22    29  32  25    31  34  25    27  30  20    30  33  22    38  45  32    53  61  48    74  82  69    76  84  71    77  84  71    71  77  63    70  77  62    83  85  72    90  92  79    86  88  75    90  92  79    83  87  72    65  69  54    48  51  37    39  41  28    49  52  40    59  62  51  
  18  21  14    22  26  18    25  28  21    28  31  24    31  34  27    32  35  28    39  42  35    48  51  44    47  50  43    40  43  35    35  38  31    38  41  34    39  42  35    37  41  35    26  31  25    19  24  18    22  27  21    26  31  25    25  30  23    31  36  30    29  34  28    26  31  26    32  37  30    39  44  37    42  47  40    39  44  38    35  39  32    28  29  24    27  28  23    36  39  32    44  47  38    47  50  40    57  60  49    57  63  52    63  69  57    67  73  61    74  80  68    75  81  69    81  87  75    87  91  77   100 102  89   105 107  94   102 104  91   104 106  93    99 102  88    86  90  75    79  82  68    65  67  54    47  49  37    54  57  46  
  27  30  23    30  33  26    30  33  26    30  33  25    31  34  27    33  36  29    39  42  35    36  39  32    28  31  24    28  31  24    30  33  26    37  41  33    33  36  29    21  23  18    15  17  12     9  11   6    19  21  16    20  22  17    16  18  13    16  18  13    15  17  12    17  19  14    25  28  22    28  31  24    29  32  25    30  33  26    27  30  23    24  25  20    21  22  16    26  29  22    39  41  34    61  64  55    89  92  83   114 120 110    82  85  76    57  60  51    68  70  60    65  68  57    58  61  50    69  71  61    81  83  72    84  86  75    99 101  89    95  97  84    92  94  81    91  93  80    80  82  70    67  69  58    56  58  47    40  43  32  
  25  28  21    28  31  25    30  33  26    27  31  23    28  31  24    31  34  27    36  39  32    33  36  29    33  36  29    37  40  34    34  37  30    36  40  32    34  37  30    24  26  21    19  21  16    16  18  13    28  30  25    31  33  28    21  23  18    12  14   9    11  13   8    16  19  14    28  31  25    27  30  23    24  27  20    28  31  24    25  27  21    25  26  20    23  24  18    20  23  16    20  24  17    32  35  27    52  55  46    69  72  63    59  62  53    50  53  44    44  45  38    44  46  36    46  48  37    47  49  38    63  66  54    63  66  55    68  71  60    56  59  48    51  53  42    54  55  43    55  57  45    44  47  36    47  50  39    41  44  33  
  18  21  14    22  25  18    26  29  22    25  28  21    26  29  22    30  33  26    32  35  28    30  33  26    32  35  28    35  38  31    33  36  29    29  32  25    28  31  24    29  31  26    24  25  20    20  22  17    27  28  23    35  37  32    30  32  27    28  30  25    28  30  25    30  32  27    35  38  32    28  31  24    23  26  19    28  31  24    21  24  17    17  18  12    25  26  20    26  29  22    22  25  18    23  26  19    30  33  26    43  46  39    54  57  50    59  62  53    63  64  56    47  48  40    51  52  44    64  65  57    53  58  48    45  48  39    58  61  52    49  52  41    51  53  42    59  62  50    52  54  43    38  41  30    35  38  27    44  47  36  
  16  18  13    17  20  15    19  21  16    15  17  12    13  15  10    14  16  11    17  19  14    25  28  21    22  25  18    23  26  19    29  32  25    26  29  22    26  29  22    31  34  27    27  30  23    24  27  19    22  25  18    28  31  24    30  33  26    35  38  31    33  35  30    31  33  28    29  32  26    19  22  15    15  18  11    17  20  13    14  16   9    15  16  10    22  23  17    22  25  18    19  22  15    20  23  16    23  26  19    20  25  18    26  29  22    27  30  23    34  37  29    30  33  24    33  36  27    43  44  36    36  42  34    33  39  29    39  43  34    45  48  39    47  48  40    37  39  30    36  38  28    42  45  36    41  44  33    43  46  34  
   8  10   5    10  12   7    17  19  14    19  21  16    22  24  19    28  30  25    27  30  24    27  30  23    26  29  22    25  28  21    24  27  19    21  24  17    29  32  25    32  36  28    34  37  30    28  31  24    25  29  22    24  27  20    24  27  20    24  27  20    16  18  13    21  23  18    24  27  21    23  26  19    21  24  17    17  20  14    14  16  10    18  19  13    24  25  19    24  27  20    24  27  20    27  29  24    26  28  23    23  29  22    29  34  27    28  33  26    29  34  27    30  35  27    27  33  23    33  36  27    28  35  27    22  27  20    22  26  19    27  30  22    30  31  23    29  30  22    24  27  18    34  39  29    37  40  31    31  34  23  
  10  12   7    10  12   7    15  17  12    16  18  13    19  22  17    25  27  22    24  26  20    20  23  16    16  18  11    18  21  14    20  23  16    20  22  16    23  26  19    23  26  19    29  32  25    20  23  16    27  30  23    29  32  25    29  32  25    24  27  20    18  20  15    20  23  18    20  23  17    23  26  19    26  29  22    23  26  19    20  23  16    21  22  16    21  21  16    15  18  11    16  18  13    21  23  18    21  23  18    29  34  27    40  47  39    16  23  14    13  20  12    15  21  13    15  21  12    16  22  12    13  20  12    19  26  18    15  20  13    22  25  18    21  22  15    23  24  16    24  27  18    23  29  19    25  29  20    28  31  20  
  24  29  25    21  26  22    24  29  25    27  30  26    19  21  18    12  14  11    11  13  10    13  15  10    11  13   8    14  16  11    27  29  24    33  34  29    27  29  24    21  30  24    22  34  27    23  32  26    22  28  21    27  32  26    30  32  27    26  28  23    18  20  15    14  16  11    10  12   7    16  18  13    22  24  19    17  19  14    14  16  11    13  15  10    10  12   7     9  11   6    15  17  12    16  21  16    21  26  20    30  33  27    37  39  32    25  28  21     8  11   4     9  11   4    15  16  10    17  18  12    17  21  12    14  20  10    19  25  16    16  21  14    19  24  17    18  23  16    22  27  20    27  29  24    25  26  21    26  28  23  
  13  18  14    13  18  15    17  22  18    24  27  23    28  30  27    29  31  28    27  28  25    21  23  18    23  25  20    33  35  30    55  57  52    56  57  52    51  53  48    41  48  43    43  52  47    44  50  46    33  38  34    28  31  26    22  24  19    14  15  10     7   9   4    11  13   8    12  14   9    11  13   8     8  10   5     7   9   4     7   9   4     7   8   3     8   9   4     6   8   3     9  11   6    10  12   7    13  15  10    21  24  18    24  27  20    16  19  12    11  15   7    16  18  12    22  23  17    27  29  22    28  31  22    24  27  19    23  26  19    24  28  21    30  35  28    32  37  30    25  29  22    28  31  24    30  33  25    32  35  28  
   9  14  10     8  13   9     7  12   8     9  12   9    15  17  14    17  19  16    15  18  15    14  19  15    16  21  17    24  29  25    35  40  36    32  37  33    36  41  37    37  42  38    38  44  39    37  42  37    35  39  35    42  44  39    38  39  34    20  21  16    18  19  14    14  16  11    13  15  10    11  13   8    14  16  11    19  21  16    19  21  16    17  18  13    16  17  12    14  15  10    17  18  13    20  20  15    18  20  15    14  17  10    12  15   8    13  16  10    21  24  17    27  30  23    28  29  23    33  34  28    25  26  20    29  31  25    29  32  25    37  40  33    44  47  40    47  49  44    30  32  26    25  28  21    33  36  29    33  36  29  
  21  26  22    17  22  18    14  19  15    14  17  14    16  18  15    15  17  14    14  17  14    13  18  14     9  14  10    14  19  15     8  13   9     9  14  10    15  20  16    23  28  23    29  34  29    34  39  35    39  41  38    43  44  40    38  39  34    25  26  21    33  35  30    27  29  24    28  30  25    27  29  24    26  28  23    25  27  22    22  23  18    24  23  19    20  19  15    16  17  12    21  22  17    25  26  21    22  23  18    13  16  11    12  14   9    16  18  13    25  27  22    28  30  25    26  28  23    31  32  27    25  26  20    28  29  23    24  25  19    22  24  19    25  27  22    34  36  31    30  33  27    33  36  29    36  39  32    32  35  28  
  20  25  21    16  21  17    19  24  20    25  28  25    29  31  28    32  34  31    33  36  33    25  30  26    18  23  19    19  24  20    14  19  15    19  24  20    25  30  26    23  28  26    16  20  17    13  18  14    18  20  17    20  22  19    20  21  18    17  18  13    19  21  18    20  22  19    26  28  25    21  23  20    14  16  13    12  14  12    10  11   9    13  13  11    12  12  10    11  11   9    13  13  11    16  17  15    13  15  12    10  15  10    13  18  12    14  19  13    17  19  14    18  20  15    19  20  15    23  25  20    25  26  20    26  28  23    29  31  26    26  27  22    29  30  25    33  35  30    39  42  37    31  36  29    23  28  21    19  24  17  
  21  26  22    14  19  15    17  22  18    25  28  24    29  31  28    35  38  35    38  41  39    35  39  38    31  35  33    24  28  27    23  27  26    25  28  28    37  41  40    38  43  42    21  25  24    12  17  13    15  20  16    14  19  15    12  17  13     8  13   9     9  11   8     7  10   6    11  13  10    11  13  11     8  10   7     7   9   6     6   8   5     5   7   4     8  10   7    10  12   9     7   9   6     5  10   6     6  11   7     5  10   5    11  16  10    14  19  13    12  16  10    13  15  10    11  13   8    14  16  11    19  22  17    19  24  18    25  30  24    23  28  22    20  25  21    15  20  16    23  29  25    26  32  28    22  28  25    24  31  27  
  31  36  32    26  31  27    23  28  24    26  29  25    27  29  26    28  30  27    30  33  31    33  37  36    32  36  35    34  38  37    37  41  40    28  32  31    37  41  40    30  36  34    24  30  28    38  44  42    46  52  48    40  46  42    35  41  36    31  37  33    22  27  22    17  22  18    17  22  18    20  25  21    19  24  20    18  23  19    20  25  21    14  19  15    12  17  13    14  19  16    12  18  14    12  18  14    14  20  16    14  19  15    16  21  17    15  20  16    13  17  14    13  15  12    10  11   8    11  13  10    19  26  19    20  27  20    18  25  19    19  25  21    21  29  24    26  35  30    35  44  40    41  50  47    46  55  52    47  56  53  
  23  28  24    22  27  23    19  24  20    19  22  19    21  23  20    19  21  18    17  20  17    20  24  23    21  25  24    45  49  48    60  63  63    44  48  47    32  36  35    25  33  30    22  31  28    33  42  38    39  48  43    35  44  39    31  40  35    22  31  26    30  35  31    25  30  27    17  22  18    15  20  15    19  24  19    36  41  37    52  57  53    38  44  40    25  31  27    27  32  29    30  36  32    31  40  35    32  41  36    32  38  34    27  32  28    15  20  16    10  15  11    10  14  10    11  13  10    17  19  16    28  38  30    35  45  38    30  39  34    30  39  34    33  42  37    44  53  48    49  60  55    53  63  62    53  63  62    49  59  58  
  23  28  31    29  34  36    30  36  36    22  28  27    25  31  28    21  27  23    21  25  21    24  23  21    23  24  22    30  36  32    34  40  37    29  34  30    22  25  22    19  23  19    13  18  15    14  19  15    16  21  17    21  26  22    27  32  28    21  26  22    30  35  31    15  21  16    18  24  20    20  26  22    27  33  29    33  40  38    42  51  48    46  53  51    35  41  38    26  33  28    30  36  31    37  45  37    38  44  37    35  40  35    29  34  30    16  21  15    17  19  14    17  18  13    18  19  13    21  20  15    26  31  25    40  45  39    42  47  41    31  36  30    27  32  26    29  34  28    32  36  31    41  42  37    41  42  37    34  36  33  
  42  46  45    41  45  44    30  34  33    23  27  25    33  38  34    30  35  31    31  34  31    36  37  37    35  39  38    33  39  37    20  26  24    11  16  15    13  16  15    10  14  11    10  15  11    14  19  15    12  17  13    17  22  18    25  30  26    17  22  18     7  12   8    11  18  14    24  30  26    30  36  32    25  31  28    26  32  30    49  58  55    59  67  64    37  43  39    22  28  24    21  27  23    23  30  23    21  27  21    18  23  19    17  22  18    10  15   9    13  15  10    14  16  11    19  20  15    25  27  20    32  37  31    27  32  26    22  27  21    17  22  16    17  22  16    14  19  14    12  16  10    14  15  10    14  16  11    12  17  13  
  28  33  27    23  28  22    16  21  16    12  17  13    14  19  15    16  21  17    24  27  26    24  25  25    29  33  32    32  38  36    23  29  27    16  21  20    18  21  20    17  21  18    15  20  16    19  24  20    19  24  20    18  23  19    22  27  23    23  28  24    22  27  23    20  26  22    24  30  26    25  31  27    16  22  20    16  23  21    36  46  42    46  54  49    35  41  37    26  33  28    23  29  25    25  31  26    34  40  33    36  41  37    33  38  34    24  29  24    22  24  19    18  20  15    20  21  16    24  25  20    21  23  20    14  16  13    10  12   9     7   9   6     4   6   3     6   8   5    11  12   9    10  12   7    11  13   9    14  18  14  
  33  37  30    20  23  16    19  21  15    27  28  25    32  34  32    34  36  35    31  33  32    24  27  26    24  30  28    25  34  31    20  28  25    18  24  22    21  24  23    18  22  19    16  21  17    19  24  20    18  23  19    19  24  20    24  29  25    27  32  28    18  23  19    11  17  13    15  21  17    14  20  17    14  20  18    26  32  30    30  39  36    24  31  27    20  26  22    21  27  23    24  30  26    25  31  27    26  32  28    30  35  31    26  31  27    19  24  20    14  18  14    12  14  11    12  14  11    14  16  11    13  15  12    14  16  13    14  16  13    11  13  10     9  11   8    15  18  15    22  24  21    20  24  20    17  22  18    20  25  22  
  25  30  23    23  28  22    27  32  26    31  36  32    48  53  49    57  61  60    40  45  44    30  35  34    39  45  43    43  52  49    35  44  41    29  35  33    28  31  30    28  32  29    36  41  37    33  38  34    20  25  21    23  28  24    27  32  28    14  19  15    15  20  16    19  25  21    24  30  27    18  23  22    15  21  19    24  30  28    23  32  29    24  31  27    24  30  26    22  28  24    21  27  23    20  26  23    17  22  20    14  19  16    15  20  16    19  24  20    14  19  15    10  13  10    12  14  11    13  15  12    18  20  17    17  19  16    16  18  15    17  19  16    22  24  21    25  27  24    23  26  22    20  25  21    27  31  29    39  43  42  
  16  23  18    25  31  27    33  39  35    28  33  31    25  31  29    30  36  34    21  27  25    20  26  24    20  29  26    22  31  28    17  26  23    18  24  22    20  24  23    19  24  21    26  31  27    26  31  27    21  26  21    27  32  28    30  35  31    18  23  19    21  26  22    26  32  29    21  27  25    19  25  23    21  27  25    24  30  28    22  31  28    27  35  30    31  37  33    25  30  27    19  25  23    21  27  25    24  29  28    21  25  22    25  30  26    39  44  41    33  37  34    21  25  24    19  23  22    20  24  23    20  25  21    19  24  20    17  22  18    18  23  19    25  30  26    30  35  31    31  36  32    28  34  32    21  27  25    22  28  26  
  33  42  41    36  45  44    46  55  54    55  64  62    43  52  49    33  42  39    29  37  34    32  39  37    35  44  41    36  47  43    27  38  34    22  27  25    17  21  20    13  18  15    12  17  13    11  16  12    14  19  15    16  21  17    15  20  16    14  19  15    28  32  31    24  30  28    12  18  16    13  19  17    18  24  22    21  27  27    19  28  26    22  30  25    17  23  19    14  20  18    14  20  18    14  20  18    13  18  16    16  21  18    22  27  22    37  42  38    31  35  34    22  26  25    20  24  23    20  24  25    21  27  23    23  29  25    23  29  25    21  26  22    22  28  24    31  37  33    39  45  41    36  42  40    28  34  32    26  32  30  
  34  44  45    38  48  49    36  46  47    42  52  52    29  39  36    12  24  19    10  20  17    19  27  26    33  43  42    36  46  45    20  30  29    14  22  21    20  24  25    22  26  24    22  27  23    19  24  19    17  22  18    21  26  22    24  29  25    27  32  28    23  27  26    23  29  27    24  30  28    21  27  25    18  24  22    26  33  33    21  30  28    20  28  23    20  26  22    20  26  24    14  20  18     7  13  12     7  12  12    15  20  17    14  19  15    24  29  25    19  23  22    19  23  22    20  23  24    15  19  20    17  26  21    16  26  21    19  28  23    16  25  20    10  19  14    18  27  22    26  34  31    30  36  36    30  36  35    32  39  37  
  18  20  18    22  27  26    18  24  24    12  18  18    10  16  14    17  22  16    29  33  29    39  46  44    44  53  50    36  47  43    28  37  34    29  34  33    27  30  29    23  30  30    37  47  46    38  48  47    30  40  39    23  33  32    33  43  42    49  59  59    40  50  51    28  38  37    19  28  27    11  18  18    13  19  19    17  21  22    13  17  16    14  20  18    11  17  15    13  19  17    10  14  13     6  10   9     9  13  12     9  13  12    14  18  17    20  24  23    10  15  14    15  19  18    17  21  20    13  17  16    20  22  21    20  23  22    17  21  20    17  23  22    26  32  32    34  40  40    36  42  42    41  47  46    33  38  37    29  33  32  
  41  59  58    33  46  48    33  40  45    36  41  47    45  55  57    33  48  47    33  49  47    58  69  71    78  91  92    70  84  85    68  82  83    69  80  82    55  64  67    51  62  61    46  58  58    59  71  71    38  50  50    19  31  31    21  33  33    38  50  50    44  54  55    39  48  47    29  38  37    15  22  21    16  22  22    27  33  33    26  30  31    21  27  25    13  18  17    11  15  14    10  14  13    10  14  13    17  21  20    15  20  20     9  15  15    14  18  19    14  18  17    13  17  16    10  12  11    12  14  13     8  10   9    17  19  18    21  24  23    27  30  29    32  38  36    32  38  38    33  39  39    32  38  38    32  38  38    34  40  38  
