P3
50 50
255
  65  59  23    74  69  30    76  70  29    80  75  31    80  77  35    77  78  40    56  59  30    34  38  19    16  19  10     7  10   6     9  11   1    26  30  15    43  45  24    61  62  35    77  77  43    86  83  48    73  73  38    60  63  37    43  45  23    36  38  24    29  31  18    29  31  20    35  37  26    37  39  23    34  36  22    42  42  30    49  46  29    60  56  21    76  72  13    91  85  10   116 104  13   134 122  18   141 129  25   131 120  26   117 111  20   106 106  25    86  87  24    53  54  21    30  29  21    22  23  15    18  19  14    20  21  14    21  21  13    19  18  11    22  19  12    24  21  12    25  22  12    25  21  10    25  22  10    27  23  11  
  62  56  20    73  68  30    78  73  32    79  74  32    77  74  33    71  71  36    50  52  26    30  34  16    15  19   9     8  10   7     9  15   5    24  27  15    46  48  28    71  72  43    87  87  53    88  86  48    75  73  39    60  62  37    46  47  27    35  37  22    29  31  18    33  35  24    35  37  26    37  40  25    36  38  25    42  42  30    48  45  26    65  61  21    89  86  20   109 104  22   129 117  16   147 135  22   154 142  32   148 136  35   133 128  28   119 118  28    93  95  24    53  55  17    27  26  17    19  21  10    16  17  11    18  19  12    19  19  12    20  19  12    21  21  13    25  22  13    25  22  12    27  23  12    28  24  12    29  25  13  
  65  60  25    70  65  27    73  68  28    78  73  33    76  72  34    66  66  33    44  47  22    27  30  14    13  16   7     7   9   4     9  14   7    24  29  15    45  48  28    66  67  39    87  85  50    87  83  46    78  76  42    60  62  38    46  47  28    37  38  23    29  31  20    30  32  22    29  30  22    29  31  20    32  34  23    41  41  28    47  49  22    71  70  21   102 100  22   124 120  22   146 135  20   164 152  30   173 158  41   167 154  43   151 143  32   132 129  27   100 101  17    58  61  16    29  29  15    20  22   9    17  18  12    19  20  13    20  20  13    20  20  13    20  20  12    23  20  13    23  20  11    25  22  12    27  23  12    29  25  13  
  61  57  22    66  61  24    71  66  28    74  70  32    70  67  32    58  59  29    38  40  19    23  26  12    11  14   6     8   9   4    12  19  11    25  31  18    44  48  26    65  67  36    92  89  54    88  84  47    79  76  43    61  63  39    46  47  28    40  41  27    30  30  20    23  24  16    24  25  17    29  29  21    34  35  27    44  46  32    53  55  25    81  81  23   116 114  22   138 135  22   164 151  28   182 167  46   191 173  59   183 166  57   164 153  39   136 132  26   104 104  15    64  68  17    31  32  13    20  22   9    17  18  12    19  20  13    20  19  12    19  18  13    19  18  13    20  20  12    23  20  12    24  21  11    25  21  10    26  22  11  
  63  58  26    66  62  26    70  66  28    67  63  26    62  59  26    51  51  26    32  35  17    21  24  13    11  13   6    10  11   6    11  16   9    28  31  18    48  51  28    68  70  37    86  86  50    82  79  44    77  75  44    58  60  37    46  47  28    41  42  28    30  30  20    24  25  16    26  27  19    31  31  23    37  37  29    43  45  30    50  55  19    80  83  17   118 117  18   147 144  21   176 160  39   196 178  63   206 184  80   194 174  73   171 158  47   142 135  30   106 105  17    63  67  14    28  29  10    16  18   5    13  14   9    13  14   8    14  14   8    16  15  10    18  17  12    19  18  13    23  20  13    24  21  12    24  20  10    24  20   9  
  66  63  30    68  64  29    69  65  29    67  63  28    63  62  30    52  52  29    31  34  19    20  23  14    10  11   5    10  12   5    24  25  19    29  31  16    49  52  27    79  80  48    91  92  58    81  79  49    72  71  42    52  53  30    43  44  25    35  35  21    25  25  15    27  27  19    30  30  22    29  29  21    33  35  24    40  45  26    49  55  15    79  83  13   116 115  12   147 142  15   178 161  43   199 181  71   210 187  93   198 176  84   174 161  53   144 137  33   106 105  19    60  65  12    26  27   8    15  16   5    10  10   8    10  10   5    11  10   4    12  10   7    12  11   6    14  13   8    17  16   8    21  18  10    21  18   9    21  17   8  
  58  55  23    63  61  27    69  65  30    68  65  31    65  64  34    51  53  32    29  32  19    17  20  13     8   9   4    11  12   6    22  19  11    32  31  15    65  65  39   120 123  89   139 143 110   101 104  74    65  67  42    54  54  31    40  41  22    30  31  18    24  24  14    27  27  19    29  29  21    29  29  18    35  37  24    45  50  28    56  63  22    86  91  20   121 120  17   153 148  22   180 165  44   201 181  75   210 186  98   199 178  88   178 165  57   147 140  34   106 105  18    58  62  12    25  26   9    15  16   8    10  10   9     9   9   5    11  11   4     9  10   5     9   8   4    10   9   4    15  13   7    21  18  11    23  20  11    24  21  12  
  54  51  20    59  55  22    60  57  22    58  57  23    57  57  28    44  46  26    24  26  15    14  17  11     8   9   4    14  15   9    24  21  11    40  38  20    58  59  31   108 111  77   151 155 121   145 150 121   107 110  85    64  63  41    44  42  25    35  35  23    29  29  20    26  26  18    28  28  20    32  33  20    37  39  24    43  48  24    54  61  20    85  90  19   124 122  20   163 155  32   186 171  47   204 185  78   212 188 101   204 183  92   183 172  62   151 145  36   106 105  17    55  59  11    24  24  10    14  15   9    10  10   9     9   9   5    11  11   3    12  12   7    11  12   7    12  11   6    17  15  10    24  21  14    29  26  17    32  29  20  
  42  44  17    51  51  24    59  56  29    60  58  29    50  50  23    36  35  18    23  22  14    12  12   6     7   8   2    13  14   6    21  25  19    41  42  27    62  59  36    74  70  41    95  92  67   147 149 129   156 162 145   116 125 106    70  79  61    53  60  44    46  50  35    37  40  26    34  36  23    34  33  26    36  37  31    40  43  28    52  55  20    84  83  16   124 119  17   162 154  29   191 179  62   207 188  93   213 192 110   202 184  93   181 171  67   141 139  36    97  98  15    57  58  15    24  23   6    12  13   5    12  14   9     8  10  11    10  13   9    11  13   5     8   9   1    12  11   6    17  15   9    28  25  16    35  33  19    41  38  22  
  42  45  18    46  45  20    54  51  26    52  51  24    42  42  18    29  27  13    18  18  10    10  10   5     7   8   3    13  14   8    26  29  17    45  46  27    63  61  32    81  77  43    79  77  46    93  96  70   131 136 116   144 153 134   112 121 104    82  89  73    85  92  76    89  94  81    56  62  48    33  37  23    34  37  18    40  46  19    50  56  17    82  84  21   124 124  24   157 155  23   182 169  53   209 190  91   212 191  99   201 182  82   182 169  60   139 132  27    96  93   7    57  57  12    28  27   7    11  13   1    12  13   5    11  12   9    10  11   3    11  12   5     8   9   3    12  11   7    14  13   8    21  18  11    21  18   7    23  19   7  
  42  46  19    40  42  16    47  46  21    45  43  21    32  33  15    20  20   9    13  13   8     7   8   4     7   8   4    14  15  10    26  29  12    46  47  23    71  69  35    89  86  48    92  89  54    70  71  40    73  78  53   122 129 111   144 153 135   114 123 106    89  98  81    92 101  86    79  90  74    58  62  50    45  50  30    41  47  21    49  56  23    75  80  33   114 118  34   158 162  42   185 174  57   201 186  79   210 192  90   203 184  80   177 163  58   136 126  32    98  90  17    56  54  12    30  27   7    17  16   4    14  14   4    13  12   7    12  11   3    10  10   5    11  10   8    16  14  13    13  11   9    15  11   7    17  14   7    22  18   9  
  42  46  21    39  40  17    43  42  21    38  38  22    27  27  15    16  16   9     9   9   5     6   6   4     8   8   6    14  16  11    32  33  18    47  46  24    75  73  43    85  83  48    86  86  52    76  76  48    56  58  35    69  76  58   106 115  98   129 138 121   126 137 120   106 117 101    88 101  84    81  87  74    72  76  59    53  61  38    45  52  31    51  55  30    63  65  21    96  98  31   139 133  34   155 146  48   189 177  76   200 187  79   181 172  65   144 137  45   101  95  24    54  51  14    31  27  11    30  27  17    20  20  11    18  16  12    22  18  10    14  13   8    14  13  11    20  19  17    19  17  15    21  17  14    20  16  12    21  18  13  
  37  42  20    37  39  20    37  36  20    30  30  20    20  21  13    10  12   6     7   7   3     7   7   5    10  10   8    16  18  14    25  25  14    44  44  28    58  56  34    68  67  40    68  66  41    67  66  45    54  55  36    52  59  41    58  65  48    69  78  61   108 119 102   134 146 130   126 139 122   120 128 107   119 124 102   106 111  90    77  81  62    58  60  43    49  48  31    50  45  26    58  48  21    71  59  23   100  88  35   123 114  42   138 131  51   128 125  51    93  92  33    54  49  21    36  31  21    33  30  23    28  27  20    25  21  18    26  22  16    27  25  19    22  21  16    21  20  14    19  18  10    23  20  13    21  18  12    17  14   9  
  29  33  16    29  32  18    26  27  15    17  19  12    11  13   8     7   9   4     6   8   3     9  11   6    13  15  10    19  20  15    26  27  20    43  45  33    49  50  33    62  64  42    62  64  43    64  65  47    55  58  41    47  54  36    38  45  28    30  36  20    39  47  31    59  67  52    75  83  68    94  99  84   103 107  92   124 127 108   120 122  97   109 110  75   111 110  70   105 102  61   109 102  58   120 111  64   111 100  51    84  71  26    57  46  13    47  40  21    54  49  29    53  50  22    47  44  33    40  39  30    52  52  40    57  56  49    60  57  47    55  52  39    53  51  38    56  54  39    49  48  32    44  45  30    40  40  27    37  37  27  
  21  24  11    19  21  13    15  16  10     9  11   7     6   8   5     7   9   4    11  13   8    16  19  12    18  21  14    21  24  17    25  28  19    29  32  19    40  45  25    48  53  30    47  51  28    64  67  46    69  73  54    55  62  44    48  55  38    38  42  27    28  32  17    26  30  16    25  29  15    33  36  27    33  35  25    54  54  38    70  67  43    87  83  41   122 119  52   152 152  66   170 164  78   183 176  86   185 176  87   172 163  82   136 129  60    99  98  39    99 100  48   105 106  70   103 104  84    95  98  78   103 107  84   113 115  97   115 115  94   103 103  81   108 107  86   124 124 100   121 122  96   112 114  91   100 102  83    92  93  75  
  14  19   8    12  14   8     9  10   6     6   7   5     6   8   5    10  13   7    17  20  12    21  24  15    22  25  16    22  25  16    24  30  18    31  38  21    40  48  25    49  57  32    67  73  47    74  79  56    75  80  59    68  75  57    52  57  41    44  48  33    35  37  24    31  33  20    33  33  21    35  37  22    43  45  24    50  49  28    53  47  28    68  59  30    91  84  21   123 121  22   157 149  35   178 167  53   185 173  64   177 166  68   160 152  70   139 135  63   127 128  64   113 117  74   113 117  89   119 125  95   118 125  91   135 139 110   140 144 112   129 130 101   125 125  97   129 130  99   129 131 100   131 134 105   122 124  99   109 111  89  
  11  10   6     9   8   6     9   8   6     8  12   8     9  14   8    13  17  11    20  22  16    23  26  19    27  30  22    33  36  27    39  41  27    52  55  35    62  65  37    72  76  42    78  82  47    90  94  61    81  86  54    67  72  44    52  57  34    33  39  21    30  37  21    31  34  19    30  32  15    40  41  25    47  48  30    48  50  28    57  55  27    72  67  22    96  89  16   127 119  20   151 141  11   171 155  36   183 162  47   174 153  46   154 140  29   132 124  26    91  85  23    56  53  16    41  37  22    43  41  29    49  47  34    59  57  44    75  71  52    83  80  61    84  81  66    81  79  64    91  89  76   100  98  85    91  92  78    83  83  70  
   8   8   6    10  10   8    12  12  10    10  13  10    12  17  11    19  23  16    27  30  20    32  34  22    39  41  27    45  48  32    60  63  35    69  72  40    79  81  44    85  88  46    94  97  54    92  94  54    82  84  48    65  68  39    47  52  28    30  34  17    27  31  16    29  33  17    32  34  17    37  38  21    44  46  26    54  56  31    61  59  28    80  75  26   103  97  19   130 123  19   164 153  26   179 161  44   187 165  51   178 156  48   159 146  32   137 129  29    96  90  25    60  57  18    36  32  15    30  28  16    31  29  16    33  30  18    37  32  16    32  29  11    32  29  12    32  29  14    33  31  17    36  34  21    31  31  17    30  31  17  
   6   8   5    10  12   9    14  16  12    15  17  12    19  22  16    28  31  19    36  40  23    45  48  25    56  59  31    66  69  38    70  71  31    88  89  44   103 105  54   110 111  59   112 112  62    98  97  49    83  83  43    64  66  36    46  50  25    32  36  18    26  30  15    30  32  17    34  36  19    38  39  23    46  48  27    59  59  33    62  60  25    84  80  24   112 106  22   138 132  22   171 157  33   186 167  54   195 172  61   190 167  60   171 155  43   141 132  30    97  89  23    64  62  21    36  33  13    29  27  14    31  29  16    34  31  21    37  32  17    38  35  17    41  38  21    38  35  18    32  30  13    28  26  11    25  23  10    27  25  12  
   7  12   8    11  16  10    16  20  14    24  26  19    29  32  21    35  39  23    44  49  24    58  63  29    73  76  37    85  88  45    91  91  41   107 107  54   114 113  56   115 114  57   102 101  47    99  97  48    86  84  42    66  67  34    51  53  27    42  45  25    32  36  21    32  34  19    33  35  19    39  40  24    48  50  29    59  59  30    67  66  26    89  85  25   117 112  22   147 142  26   170 156  35   187 168  56   199 176  65   194 171  65   175 158  46   143 134  32    94  87  21    57  55  14    31  28   8    25  23   8    25  25  10    32  29  19    39  36  22    42  39  22    42  39  22    39  37  18    36  34  15    35  34  17    33  31  18    31  29  16  
  15  20  14    18  22  15    23  26  16    35  34  23    41  41  26    45  49  25    55  60  28    71  77  35    84  87  39    95  95  44   106 104  53   112 111  56   113 111  55   113 110  55    98  95  44    97  93  48    92  87  47    74  70  35    59  58  29    49  50  29    37  39  23    32  34  20    31  33  18    36  37  23    48  50  29    59  59  30    78  77  35    96  91  30   120 114  23   153 146  32   177 165  46   193 174  64   199 176  69   189 166  63   171 157  46   147 138  40    99  93  28    55  55  14    32  31   9    28  29  11    29  30  13    35  32  20    40  37  23    42  39  22    42  39  20    42  40  19    42  40  19    42  40  21    39  36  21    33  29  16  
  20  23  14    24  27  15    31  34  18    44  43  24    53  53  29    55  61  30    66  72  34    81  86  39    89  90  39    96  95  40   108 106  54   106 105  50   108 107  50   112 109  54   106 103  51    95  91  46    94  89  48    79  75  37    64  62  30    47  49  26    34  37  21    30  32  18    30  31  17    36  36  23    49  48  30    55  55  26    80  77  36    96  90  31   120 113  26   157 149  40   184 173  56   201 183  77   204 183  79   189 169  69   169 156  51   145 139  46    98  92  33    51  50  13    31  29  10    31  31  14    33  34  14    34  32  19    33  31  15    39  37  19    44  44  24    50  48  27    47  45  22    43  41  20    40  37  20    33  29  16  
  26  28  17    31  33  17    41  43  23    56  53  28    67  66  36    67  71  36    71  78  35    81  87  39    88  90  38    97  94  42   111 110  56   108 108  50   104 104  43   106 105  45   106 103  48    97  93  45    94  89  43    82  76  36    66  63  29    46  44  23    34  36  20    30  32  18    29  31  17    35  36  24    47  45  30    51  51  25    69  66  29    87  81  25   113 106  25   151 142  38   177 167  52   196 182  77   204 186  83   190 171  75   166 153  54   134 129  41    86  82  28    54  52  18    37  35  17    37  37  20    36  37  16    33  34  15    34  33  13    35  33  14    39  38  19    47  45  22    45  43  18    44  40  18    44  38  23    39  33  21  
  33  35  22    39  41  21    52  54  31    66  63  35    76  76  42    74  79  39    71  78  35    78  84  35    88  88  37   103  97  47    95  94  36   108 108  47   106 106  42   110 110  46   106 106  46   102 101  45    91  87  38    81  75  34    67  64  30    46  46  21    37  38  20    31  33  19    29  31  17    32  31  22    43  41  28    52  52  27    64  61  24    81  75  21   104  96  20   135 126  27   161 154  37   183 170  65   192 176  74   180 163  68   155 144  47   118 114  30    69  66  16    46  44  13    35  33  17    36  36  19    33  35  13    35  35  17    44  43  22    43  41  22    43  42  22    48  46  22    46  44  17    45  42  19    47  41  24    40  34  21  
  42  46  19    48  50  18    63  64  30    78  77  38    77  78  36    72  79  34    67  76  31    72  80  31    87  91  41    97  96  45    97  95  47   104 102  50   108 107  50   108 107  48   107 106  49    95  94  40    90  87  37    81  75  30    62  60  24    43  44  19    38  41  24    32  36  22    30  32  19    38  37  24    42  41  23    52  51  29    65  61  30    78  72  25    97  89  16   125 117  21   149 135  33   166 152  45   170 154  50   153 139  39   133 124  26   102  97  18    74  70  19    49  45  14    40  36  14    38  35  19    36  35  15    41  42  18    42  44  23    45  47  25    43  45  23    41  43  21    40  42  21    39  40  23    38  37  21    36  34  21  
  46  50  23    51  53  22    65  66  33    68  67  30    67  68  28    68  73  33    68  77  33    71  78  33    80  83  35    84  84  34    91  89  43    97  95  45    97  96  40    99  98  41    97  96  40    87  85  34    81  78  31    73  68  29    55  53  21    39  41  18    35  38  22    31  33  19    30  32  18    33  32  18    43  42  24    55  54  32    61  56  27    84  78  33   109 100  30   127 118  25   155 142  40   170 155  47   166 150  45   152 137  37   141 132  34   112 107  28    79  75  23    54  51  18    42  38  16    42  39  22    41  40  19    41  42  18    39  41  19    41  43  22    41  43  21    39  41  20    37  39  18    37  38  21    36  35  20    33  31  18  
  51  55  28    56  60  28    66  68  35    66  66  31    63  65  28    63  67  32    62  70  31    67  74  34    76  79  37    80  81  37    87  86  42    93  92  45    89  89  37    92  92  38    88  88  38    81  80  33    73  71  30    64  61  28    48  46  19    38  39  18    34  36  22    30  32  18    32  34  20    35  36  22    37  36  18    52  50  29    63  60  32    86  80  37   104  96  28   127 119  29   161 148  44   180 166  57   190 175  69   182 168  66   154 145  46   107 102  23    72  69  14    55  55  20    42  41  17    44  43  23    46  45  24    43  45  21    40  42  21    38  40  19    39  41  20    36  37  17    33  34  16    34  35  19    34  33  19    30  28  15  
  51  54  25    55  58  27    58  62  29    61  63  30    59  60  28    52  57  25    51  57  24    56  63  28    67  70  32    74  75  36    79  80  40    88  89  45    84  86  38    88  90  41    80  82  35    74  75  35    66  65  30    57  54  29    46  43  23    40  38  23    37  38  24    35  37  23    34  37  21    37  38  23    36  37  20    53  51  30    62  59  32    82  76  35    98  90  24   122 113  25   156 143  39   171 158  48   177 164  55   169 157  52   145 140  37   114 112  29    81  82  24    55  57  18    42  42  15    45  44  24    44  47  24    42  44  21    42  44  22    36  38  19    36  37  19    33  34  16    30  31  15    31  32  17    33  31  18    29  27  14  
  52  55  26    55  59  27    55  59  26    54  57  25    52  55  24    48  53  23    48  53  23    52  58  26    57  61  27    61  64  28    66  68  31    79  81  40    78  81  37    81  84  41    70  72  33    64  65  31    56  56  27    47  46  25    44  43  24    41  39  24    40  41  25    42  43  27    38  41  24    37  39  24    36  37  19    51  50  29    61  58  30    79  73  30    95  87  21   120 112  23   148 135  30   168 156  43   165 152  42   156 144  37   148 143  39   128 126  41    87  88  29    52  57  18    40  43  15    40  42  21    37  39  17    35  37  15    36  39  20    33  35  18    33  34  18    31  32  16    29  30  15    31  32  18    33  31  18    29  27  14  
  53  56  25    55  58  27    53  56  25    51  56  24    51  56  26    48  52  25    48  52  26    50  55  25    51  57  24    55  62  26    56  62  26    65  71  33    69  76  34    70  77  36    60  66  30    53  58  29    46  49  25    39  41  20    43  43  24    45  44  26    45  44  28    46  48  31    40  43  26    37  39  24    37  38  20    48  47  25    59  57  27    73  69  23    91  85  14   117 111  16   150 139  32   173 161  48   179 166  55   174 162  54   153 148  41   115 114  26    69  71  11    46  53  14    34  39  13    34  37  17    30  33  14    29  32  12    31  34  18    30  32  18    30  31  17    29  30  16    30  31  16    32  33  19    32  31  17    31  29  17  
  51  54  23    51  54  23    52  55  24    51  55  23    50  55  25    47  51  24    46  50  22    47  51  23    47  52  21    54  60  26    57  62  30    58  64  29    63  69  32    63  70  33    59  64  34    52  56  31    44  47  26    41  44  23    47  47  27    52  51  31    50  49  31    48  48  30    39  41  24    33  34  21    41  42  26    45  46  24    56  54  23    76  72  24   102  96  20   119 114  15   158 147  40   167 155  40   169 156  44   163 152  43   135 130  22   103 102  12    70  72  11    44  51  13    33  37  12    32  35  17    29  32  15    30  32  16    29  31  18    29  30  17    26  27  13    26  27  13    31  31  18    32  32  20    32  30  18    33  31  19  
  56  59  28    55  58  27    59  62  31    53  59  26    53  58  27    53  57  30    53  57  30    53  57  29    51  56  25    56  63  29    58  65  32    51  58  25    57  64  29    57  65  30    58  64  35    51  56  34    43  48  28    46  51  28    50  53  31    58  56  36    54  51  32    46  46  28    36  38  22    35  36  23    38  39  23    38  40  17    67  65  32    86  83  31   111 105  26   137 132  29   160 149  42   169 157  42   165 152  40   154 143  33   129 125  16   111 110  20    82  84  21    48  56  18    35  41  15    32  36  20    31  33  19    30  32  18    25  26  16    27  27  16    23  23  11    25  25  13    31  31  19    32  32  20    30  29  17    34  32  19  
  57  61  28    50  54  21    56  60  25    57  63  26    62  68  30    66  72  33    64  69  29    65  69  29    66  68  28    64  66  26    66  70  29    65  67  27    71  73  33    71  72  33    65  68  31    55  64  27    52  59  26    54  56  29    56  60  34    56  62  36    48  53  30    38  41  20    37  39  20    36  38  24    40  42  22    52  55  25    63  64  23    87  85  28   108 104  22   139 134  31   165 157  46   174 161  50   180 165  57   165 153  40   142 136  19   108 108  15    82  84  22    47  53  13    37  42  17    34  38  22    28  32  17    27  29  12    27  27  13    26  28  16    25  27  14    27  29  15    29  32  15    30  32  16    32  33  20    31  31  21  
  57  61  26    55  59  24    58  62  27    61  67  30    63  69  31    62  69  28    67  72  32    74  79  39    78  81  41    77  79  39    82  87  46    76  81  39    81  83  41    87  88  46    88  90  49    78  83  43    68  72  37    61  63  34    58  61  34    53  59  33    48  53  30    42  47  25    36  38  20    35  37  23    40  43  23    56  59  29    73  72  30   101  97  38   121 116  31   150 144  36   176 165  50   184 170  58   181 164  58   170 156  46   154 148  34   117 117  22    77  80  13    51  57  17    38  43  17    33  37  22    27  31  16    27  30  13    29  29  15    25  26  13    23  25  12    27  29  15    30  33  15    29  31  16    28  28  16    25  25  13  
  57  61  26    61  65  28    60  64  27    58  65  25    59  66  25    63  70  28    71  78  36    79  84  43    80  86  43    77  83  39    82  89  46    80  85  40    86  89  43    97  97  50   100 102  55    89  91  47    72  75  35    59  64  31    54  60  29    47  53  25    45  50  27    44  48  27    39  41  24    36  38  23    40  43  23    55  58  26    76  76  32   107 103  39   129 121  30   157 147  34   179 167  49   202 185  72   200 179  75   178 161  56   152 145  34   124 126  29    83  86  19    50  55  16    36  39  15    29  33  18    25  29  14    25  27  10    26  26  12    23  25  12    23  25  12    28  30  16    30  33  16    29  31  15    26  27  14    21  21   9  
  57  63  25    59  66  27    56  63  22    56  63  22    59  66  25    66  73  32    71  78  36    71  78  36    71  78  35    73  80  36    72  81  38    74  80  35    83  85  37    93  94  44    98  98  48    92  91  43    74  75  30    58  64  29    53  59  26    44  53  23    39  48  21    41  45  24    41  43  25    39  42  25    43  47  25    54  57  25    71  71  27   101  96  33   128 119  27   160 149  33   182 167  49   199 181  68   208 186  85   197 177  77   164 157  47   121 124  28    79  83  15    48  51  12    34  37  12    29  33  17    25  29  14    24  27  10    22  24   9    25  26  13    26  28  14    29  31  17    30  34  17    30  32  16    28  29  15    25  25  13  
  56  62  24    54  60  22    52  58  19    58  64  26    61  67  29    65  72  31    63  70  29    61  68  26    66  73  31    72  79  37    67  78  35    71  79  33    78  82  35    91  92  42    97  97  47    97  96  47    79  81  36    62  70  34    52  61  27    45  54  23    42  50  24    40  44  22    41  43  24    43  46  27    47  52  29    52  54  23    66  65  23    94  89  28   127 119  29   166 157  43   189 174  57   190 171  60   196 174  74   187 169  70   161 154  48   112 111  21    75  76  14    48  50  11    34  36  12    29  33  17    26  30  15    26  29  12    25  26  12    25  27  14    27  29  15    31  34  17    33  35  19    32  34  18    31  31  17    27  27  15  
  50  56  20    50  55  19    52  58  20    57  63  26    55  61  25    58  64  28    58  65  26    58  66  26    64  72  31    64  72  31    61  72  30    64  73  29    74  79  33    90  92  46    95  97  50    89  92  45    72  76  33    59  67  33    46  56  22    43  54  22    46  54  26    44  50  25    43  46  24    43  46  24    47  51  25    48  51  20    60  60  23    85  82  28   119 114  31   158 154  47   188 176  64   195 181  71   195 177  76   173 157  57   148 140  36   104 102  20    73  74  18    49  50  12    34  36  12    29  31  17    24  28  13    26  29  12    27  29  14    26  27  15    26  28  14    32  35  18    35  38  19    34  36  18    31  32  17    26  26  14  
  48  54  20    50  56  21    53  59  24    52  58  23    49  55  21    53  59  25    55  62  27    58  66  29    61  70  33    54  65  25    55  67  27    58  68  26    68  75  32    81  87  43    79  85  41    74  81  39    59  67  28    51  61  27    44  54  20    43  54  22    47  58  26    50  56  28    49  53  26    44  48  21    48  53  24    47  52  22    55  58  24    74  73  26    98  97  24   130 127  32   167 159  53   187 175  68   192 178  75   175 161  58   147 139  37   103  99  24    68  66  19    50  51  13    37  38  14    31  33  19    25  29  14    26  29  12    28  29  15    27  29  16    28  30  16    33  36  19    35  38  19    34  36  18    31  32  18    27  27  15  
  50  55  23    52  57  24    52  58  24    53  59  26    52  57  25    54  59  27    52  59  26    54  63  28    60  70  33    55  65  28    61  73  33    61  71  30    63  71  29    68  75  33    63  70  28    67  75  37    58  67  32    51  61  30    50  61  29    47  58  26    48  58  26    53  60  29    53  57  28    49  53  24    53  58  28    50  55  25    57  59  29    67  68  26    78  80  12   100 100  12   132 128  27   156 148  42   166 154  49   155 143  38   129 121  21   101  97  27    71  67  25    53  52  15    42  43  19    38  40  25    31  35  19    29  32  15    29  30  16    32  33  20    32  34  20    33  36  19    33  36  17    33  35  17    33  34  19    31  31  19  
  50  55  25    51  57  26    48  54  25    53  57  28    55  60  28    52  58  24    54  61  22    58  66  25    58  66  25    61  71  29    67  76  31    67  74  30    67  74  32    62  68  30    65  75  38    60  72  36    50  64  31    44  60  32    39  55  23    48  62  27    55  67  31    51  60  26    55  61  29    47  50  19    50  55  25    53  58  28    53  59  24    60  66  20    71  75  17    91  94  28   113 112  14   135 128  23   147 131  26   142 122  29   123 106  32    93  86  23    77  73  20    61  54  20    54  49  21    42  41  20    38  39  23    35  36  19    31  32  14    35  36  18    35  36  18    34  36  15    35  37  16    34  35  18    31  32  18    30  30  18  
  43  48  16    44  49  19    48  53  23    51  55  23    53  59  25    57  63  25    59  66  25    61  69  28    64  72  30    60  68  29    67  76  33    59  67  25    57  63  24    58  66  29    58  68  32    49  61  25    45  60  26    42  58  28    45  60  28    48  62  26    52  64  28    57  66  32    57  64  30    55  59  27    51  56  26    46  51  21    49  55  22    54  60  17    63  67  13    87  90  27   108 107  21   139 134  40   148 138  40   136 122  35   122 109  38    99  91  30    78  72  22    62  55  20    52  47  18    44  41  20    42  41  24    38  36  20    40  39  21    40  39  20    41  40  20    44  43  22    45  44  24    41  40  21    35  33  19    34  32  20  
  49  50  18    47  51  18    49  53  21    53  56  21    57  62  23    66  73  31    66  73  31    65  74  32    68  75  36    58  66  29    60  68  29    57  64  26    56  62  27    60  67  33    55  65  31    41  52  20    39  54  21    37  54  21    41  57  22    50  65  26    51  63  25    52  62  25    56  64  28    50  56  23    51  56  25    46  52  24    48  54  24    54  59  22    57  61  13    66  69  13    91  90  22   111 109  29   123 120  33   115 110  31   104  96  32    93  84  29    83  75  27    75  66  29    60  54  23    52  47  25    48  45  26    43  39  22    50  44  27    48  45  25    47  45  22    48  46  23    49  47  24    43  40  20    37  35  18    39  37  23  
  54  55  21    57  58  24    58  59  25    60  64  23    65  71  27    70  77  33    68  75  32    65  73  31    62  70  32    55  63  28    49  59  24    58  65  31    57  64  31    56  63  31    53  62  31    41  54  24    38  54  22    40  56  21    42  58  21    83  98  59    80  92  52    51  61  22    59  67  30    50  56  23    48  54  24    43  49  22    40  48  20    48  54  20    55  59  16    60  63  14    75  75  22    77  79  12    87  90  14    86  87  15    81  77  19    81  73  24    81  72  29    80  72  34    66  59  28    57  51  29    54  47  29    49  42  24    56  48  30    57  49  27    55  49  25    54  48  22    53  48  22    47  43  20    40  37  19    42  39  23  
  54  54  20    53  55  21    57  58  24    61  65  24    69  75  29    71  77  31    69  76  32    65  71  31    53  60  24    52  59  26    51  61  27    52  61  27    53  60  28    47  55  24    45  56  26    43  56  27    37  52  21    41  57  21    47  63  25    76  91  52    72  83  44    53  63  26    55  64  28    47  54  20    39  47  16    35  44  17    39  48  20    43  51  19    50  56  17    65  68  21    68  70  22    72  76  15    80  85  13    78  80  13    75  72  18    76  69  24    70  63  23    67  60  26    58  52  25    51  45  23    52  44  26    53  44  25    61  49  31    62  49  26    62  50  24    62  53  24    60  53  25    54  48  24    45  40  19    40  35  16  
  55  56  22    55  57  23    55  56  22    58  62  23    70  76  32    72  78  34    71  77  34    66  72  33    50  56  21    52  59  26    55  65  31    47  56  23    52  59  28    50  58  27    43  54  24    40  55  24    34  50  18    39  54  20    44  58  22    39  54  15    38  50  12    47  59  22    47  57  22    38  48  14    36  45  14    34  44  17    36  46  20    43  51  19    54  59  20    64  70  23    66  68  18    81  82  21    94  94  23    90  90  23    79  76  22    71  67  23    63  60  22    55  49  21    52  46  23    45  40  21    49  42  24    55  46  26    63  49  27    66  51  24    70  55  26    67  54  24    61  51  21    55  47  20    48  41  18    43  36  17  
  57  61  28    60  64  31    58  62  29    57  62  24    67  72  32    71  76  35    68  73  33    63  69  31    53  59  24    53  59  27    50  61  27    48  58  25    53  62  31    55  64  33    44  58  25    39  54  24    37  53  21    41  55  22    39  53  18    42  56  20    44  56  20    43  54  20    44  53  21    41  51  18    39  50  19    34  44  17    30  40  12    41  50  17    59  66  24    67  74  23    70  72  15    90  89  21   106 100  26   105  96  29    89  82  29    72  69  25    62  61  25    51  46  25    49  45  26    44  39  22    49  42  26    56  46  26    64  51  26    72  55  25    79  62  29    78  62  29    64  52  20    57  46  18    55  46  22    52  44  23  
  52  56  23    51  56  22    53  58  25    56  58  25    63  67  30    65  69  32    58  63  24    54  60  23    52  58  24    49  56  23    45  55  22    53  63  29    51  61  27    50  59  28    44  57  25    42  57  24    40  56  23    39  53  21    36  50  15    39  53  18    45  56  22    41  51  18    40  49  19    39  48  18    35  46  16    34  44  17    39  49  21    45  56  20    54  63  18    61  69  17    79  83  18   106 104  30   111 102  24   106  93  24   103  93  38    79  78  33    56  59  23    46  43  25    45  42  26    42  39  24    48  42  26    55  46  25    66  53  27    77  58  28    89  70  38    90  74  41    76  61  29    66  54  26    61  53  29    58  50  29  
  62  62  27    59  60  23    59  61  22    54  58  24    54  59  27    53  58  26    55  60  30    52  57  27    51  56  26    52  57  27    51  55  28    50  56  28    50  60  31    40  54  25    33  49  20    34  53  23    33  52  21    42  57  25    40  56  20    41  56  15    45  59  19    42  54  19    41  51  21    37  45  20    31  40  12    37  47  13    42  49  18    47  53  21    57  59  21    67  69  21    79  88  20   107 108  27   125 117  33   125 111  34   109  99  31    85  81  35    53  51  24    40  39  18    38  37  18    37  34  19    44  39  20    58  50  27    67  55  27    86  66  32    89  69  32    92  74  38    85  70  37    75  61  31    71  60  31    67  56  28  
  58  59  28    56  58  25    54  58  22    53  59  24    57  62  29    57  62  30    58  63  32    53  58  28    50  55  25    51  56  26    47  53  25    47  53  25    45  54  26    37  51  22    32  48  19    32  51  21    35  53  22    43  59  26    43  59  23    47  62  24    46  60  22    42  54  19    39  49  19    35  45  20    29  40  10    31  42   8    42  51  18    57  63  28    65  68  24    73  74  18    92  92  30   105 102  26   116 108  32   115 104  36    96  88  25    71  67  22    47  43  16    40  38  16    35  34  15    34  31  14    39  33  16    50  42  21    58  47  21    69  54  23    82  66  32    86  70  36    82  67  34    76  61  28    68  54  22    69  57  24  
