P3
50 50
255
   8   7   5     9   8   5     8   7   3    10   8   2    14  11   4    20  17   8    25  22  13    25  22  13    24  22  11    20  18   6    21  17   8    23  20  10    24  20   9    21  17   6    22  18   7    24  20   8    25  21   8    27  23  11    28  24  12    30  26  14    31  27  15    30  27  15    30  26  14    32  28  16    34  30  19    29  26  14    28  24  13    30  28  16    29  27  15    30  28  16    29  29  19    27  27  17    27  27  17    23  25  14    31  33  22    33  34  24    31  32  22    28  29  21    22  23  15    25  27  19    26  27  19    25  27  19    23  24  15    25  27  18    27  28  20    26  28  20    33  36  28    36  39  32    33  36  29    30  33  26  
   6   5   3     5   3   1     7   6   2     9   7   2    10   7   2    15  12   7    19  16   9    22  19  11    24  20  12    23  20  11    15  12   5    18  15   8    19  16   8    19  15   7    22  18   7    24  20   9    26  22  11    29  27  15    29  27  15    29  27  15    31  29  17    30  28  16    30  28  16    28  24  13    30  27  15    26  24  12    25  23  11    28  26  14    25  23  11    27  24  13    21  21  11    22  22  12    24  24  14    20  20  10    27  27  17    26  26  16    20  21  11    23  24  16    20  22  14    28  30  19    34  36  25    34  36  25    28  30  19    26  28  19    29  31  23    29  30  22    32  33  25    29  32  23    26  29  20    23  26  19  
   7   6   2     5   4   1     8   7   3    12   9   7    12   8   5    13   9   6    15  12   7    15  12   6    18  15   8    18  15   8    10   9   4    11  10   5    13  13   6    18  16   9    23  19  11    22  19  10    20  18   9    25  25  15    31  31  21    34  34  24    36  36  26    29  29  19    23  23  13    28  25  16    32  29  20    33  30  21    33  31  21    31  31  21    29  29  19    30  30  20    38  36  24    39  37  25    38  37  25    32  32  21    36  36  24    34  34  22    31  32  21    29  30  22    27  29  19    29  32  21    37  39  28    38  40  29    37  39  26    35  37  25    39  41  30    40  42  31    36  37  29    29  31  22    28  31  22    29  32  23  
  10   9   5     9   8   4     8   7   2    10   7   6     9   5   4    10   6   5    10   6   3    10   7   3    12   9   4    12   9   4    13  14   9     9  10   5     8   8   3    13  12   7    19  19  12    20  17  10    17  15   6    19  19  11    18  18  11    17  17   9    19  19  11    16  16   8    15  15   7    19  17   8    17  17   7    24  24  14    27  27  17    26  26  16    29  29  19    26  28  17    38  36  24    38  36  24    32  30  18    26  26  14    27  27  15    26  26  14    33  33  22    30  30  22    23  23  14    18  18   8    23  23  13    26  26  14    31  31  19    37  38  27    40  42  31    36  38  27    34  36  26    32  34  25    32  35  26    31  34  25  
   9  10   5     9  10   5     8   9   4     8   9   4     7   8   3     5   6   1     5   6   1     6   7   2     7   8   3     7   8   3    13  14   8    10  12   5    12  12   5    16  16   8    19  19   9    17  17   7    15  15   5    13  14   9     9  10   5     8   9   4    11  10   6    13  12   8    13  10   7     9   7   3    12  10   5    12  11   6    10   9   5    13  12   8    15  14  10    12  11   7    17  16  11    17  16  11    17  16  11    16  15  10    17  16  11    19  18  13    21  21  15    22  22  14    21  21  13    22  22  12    23  23  13    24  24  14    24  24  14    21  21  13    21  22  14    22  23  15    22  23  15    25  25  17    28  28  20    31  31  23  
   7   8   3     6   7   2     8   9   4     8   9   4     7   8   3     6   7   2     6   7   2     8   9   4     9  10   5     8   9   4     8   9   4     7   8   3    11  11   5    16  16   9    22  22  14    22  22  12    18  19  10    13  14   9    11  12   7    12  11   7    13  12   8    13  12   8    13  12   8    10   9   4    11  10   5    11   9   5     8   7   3     9   8   4     9   8   4     7   6   2     9   8   3     9   8   3     9   8   3     9   8   3     9   8   3    11  10   5    12  11   6    13  12   7    13  13   6    15  15   7    17  17   9    19  19  11    20  20  12    17  18  10    18  19  11    20  21  13    20  21  13    23  23  15    27  27  19    32  32  24  
   9  10   5     7   8   3    11  12   7    11  11   6     9  10   5     9  10   5     9  10   5    10  11   6     9  10   5     8   9   4     9   9   7     9   9   6    11  11   6    13  12   8    16  15  10    17  17   9    16  16   9    13  14   9    13  12   8    13  12   8    13  12   8    13  12   8    14  13   9    15  14   9    16  15  10    14  14   9    10   9   5    10   9   5    10   9   5     8   7   3     3   2   1     4   3   1     4   3   1     4   3   1     4   3   1     5   4   1     6   5   1     7   6   2     7   6   1     8   7   2     9   8   3    10   9   4    10   9   4    10  11   4    14  15   7    19  20  12    22  23  15    23  23  15    24  24  16    27  27  19  
  13  14   9    10  11   6    11  12   7    11  12   7    11  12   7    11  12   7    11  12   7    11  12   7    10  11   6     8   9   4     8   8   8     8   8   6    10  10   7    12  10   7    14  13   8    16  15  10    17  16  11    16  15  10    12  11   6    11  10   5    13  12   7    15  14   9    16  15  10    15  14   9    15  14   9    14  12   8    10   9   5    10   9   5    11  10   6    10   9   5     6   5   1     6   5   1     7   6   1     6   5   1     6   5   1     7   6   1     8   7   3     9   8   5     8   7   3     7   6   2     7   6   2     7   6   2     7   6   2     8   8   1     8   9   1    10  11   3    13  14   6    13  14   6    13  13   5    13  13   5  
  14  16  11    11  12   7     9  10   5    10  11   6    11  12   7    11  12   7    12  13   8    12  13   8    11  12   7    10  11   6     9   9   9    10  10   8    12  11   8    13  12   8    14  13   8    16  15  10    17  16  11    16  15  10    13  12   7    13  12   7    16  15  10    17  15  10    15  14   9    13  12   7    13  12   7    13  12   7    11  10   6    12  11   7    14  13   9    14  13   9    10   9   4    11  10   5    11  10   5    10   9   4    10   9   4    11  10   5    12  10   6    11  10   8    11  10   8    11  10   6    11  10   6    11  10   6    13  12   8    13  13   8     8   9   3     4   5   1     6   7   1     9   9   3     9   8   3    10   9   4  
  16  17  12    13  14   9    10  11   6    11  12   6    11  12   6    11  12   6    11  12   6    14  15   9    14  15   9    13  14   8     9   9   7    10  10   7    11  11   7    12  11   6    13  12   7    14  14   6    16  15   8    19  16  11    18  15  10    21  18  13    21  20  15    18  17  12    13  12   7    13  12   7    14  13   8    14  13   8    13  12   8    15  14  10    15  15  10    17  16  12    12  11   7    12  11   7    12  11   7    11  10   6    11  10   6    12  11   7    13  13   9    12  13   8    12  13   8    11  12   7    10  11   6    10  11   5    12  13   7    14  15   9    10  11   5     9  10   4    13  14   8    15  15  10    13  12   7    11  10   5  
  13  14   9    13  14   9    14  15  10    15  16  10    14  15   9    13  14   8    12  13   7    14  15   9    15  15  10    15  16  10     6   7   2     7   8   3    11  11   6    15  15   8    19  19  11    21  21  11    20  20  11    21  18  13    23  20  15    24  21  16    21  20  15    18  17  12    16  15  10    14  13   8    14  13   8    13  12   7    13  12   8    13  12   8    12  11   7    13  12   8    13  12   8    13  12   8    12  11   7    10   9   5    11  10   6    13  12   8    15  14  10    14  15   9    13  14   8    12  13   7    11  12   6    10  11   5    12  13   6    12  13   7     9  10   5    10  11   6    14  15  10    14  14  10    11  11   6    12  11   7  
   8   9   4    10  11   6    15  16  11    20  21  15    18  19  13    15  16  10    13  14   8    13  14   8    14  15   9    14  15   9    15  16  10    15  16  10    18  19  12    21  21  13    24  24  14    24  24  14    24  23  13    26  22  17    27  24  19    25  22  17    18  17  12    17  16  11    21  20  15    21  20  15    20  19  14    19  18  13    17  16  12    15  14  10    13  12   8    13  12   8    14  13   9    14  13   9    12  11   7    11  10   6    12  11   7    14  13   9    15  15  10    15  16  10    15  17  10    16  17   9    16  17   9    18  19  11    21  22  14    20  21  15    15  16  11    12  13   8    10  11   6     9   9   5    12  11   7    20  19  15  
  20  17  12    21  18  13    24  21  14    23  24  14    21  23  12    20  22  11    19  21  10    16  19   8    16  19   8    22  25  14    22  24  13    17  19   8    19  21  10    20  23  12    23  25  14    26  28  17    25  25  16    24  21  16    24  21  15    22  19  12    22  19  12    21  21  11    25  25  15    22  22  13    21  21  13    21  21  13    18  17  12    14  13   8    11  10   6    11  10   8    13  12  10    16  15  11    13  12   8    13  12   7     9   8   3    14  13   8    15  14   9    13  12   8    12  10   7    16  15  10    19  18  13    17  15  10    17  16  11    22  22  15    25  24  19    21  20  15    15  14   9    13  12   8    15  14  10    17  16  12  
  22  21  16    20  19  14    18  17  11    18  16   9    19  16   9    20  17  10    19  19  10    18  18  10    18  18  10    21  21  13    21  19  16    18  17  13    22  21  17    23  22  18    23  22  18    24  23  19    23  22  17    23  20  15    21  19  14    20  20  12    20  20  12    20  20  12    22  22  13    22  22  14    23  22  17    24  23  18    21  20  15    17  16  11    12  11   7     9   8   4     8   7   3    11  11   6    14  13   9    18  17  13    19  18  13    13  12   7    11  11   6    11  12   7    11  12   7    16  17  12    19  19  14    15  17  10    16  17  11    18  18  12    20  19  14    19  17  12    14  13   9    14  13   9    15  14  10    17  16  12  
  24  24  19    20  21  14    17  18  10    17  13   8    19  14  10    21  16  12    21  18  13    23  20  15    23  20  15    22  19  14    26  23  18    27  24  19    30  27  22    27  24  19    23  20  15    23  20  15    21  18  13    18  17  12    19  18  13    21  20  15    22  23  17    23  24  17    23  24  16    25  24  19    26  25  20    25  24  19    24  23  18    22  21  16    18  17  10    14  14   6    15  14  10    15  14  10    19  18  14    25  24  19    33  32  27    19  19  14    15  15  10    11  12   7    10  12   7    14  15  10    17  18  12    15  15  10    15  16  10    18  17  12    19  18  13    17  16  11    13  12   7    12  11   7    12  11   7    12  11   7  
  18  19  11    17  18  10    19  20  12    19  17  11    21  18  13    19  17  12    16  15  10    18  17  12    19  18  13    16  15  10    13  15   4    18  20   9    25  27  16    23  25  14    22  24  13    26  28  17    24  26  16    18  17  12    17  17  12    20  22  15    23  24  18    23  24  18    21  22  16    22  22  17    21  20  16    19  18  14    20  20  14    22  22  14    22  22  12    21  21  11    21  19  14    18  17  12    16  15  10    20  19  14    30  29  24    24  22  17    18  17  12    12  13   8    11  12   7    14  14   9    16  17  12    15  16  10    16  17  11    18  19  13    18  19  13    14  15   9    10  12   5    11  12   6    11  12   7    10  11   6  
  19  16   7    20  17   7    26  24  12    23  22  13    22  22  14    19  20  12    17  18  10    21  22  14    24  25  17    24  25  17    17  20  11    21  24  15    24  27  18    21  24  15    20  23  14    24  27  18    25  27  19    23  22  17    21  20  15    26  25  20    27  28  22    25  27  20    23  24  18    22  21  17    20  19  15    19  18  13    21  20  14    25  25  17    27  27  18    28  28  18    25  25  17    24  24  17    19  19  11    22  22  14    24  23  18    24  23  18    19  18  13    15  16  11    13  14   9    14  15  10    15  16  11    16  17  12    18  19  13    17  18  12    16  17  12    13  14   8    11  12   6    14  15   9    15  17  10    16  17  11  
  32  24  13    33  25  13    37  29  16    33  29  16    30  28  15    27  24  12    24  22   9    24  22   9    24  24  10    25  26  12    16  16  14    19  19  17    21  21  19    20  20  18    23  23  21    28  28  26    26  25  21    20  17   8    20  17   8    27  24  17    28  25  18    27  27  19    27  27  19    23  22  16    22  21  16    22  21  16    24  24  16    26  26  18    27  27  19    27  27  19    30  30  20    34  34  26    32  32  24    34  34  26    27  27  19    25  24  19    19  18  14    13  14  10    11  11   6    11  12   7    12  13   8    15  16  11    17  18  13    16  17  12    17  18  13    16  17  12    13  14   8    15  16  10    18  19  13    19  20  14  
  60  46  33    61  47  33    62  49  33    61  48  32    59  47  31    58  46  29    53  42  26    47  38  21    44  35  18    45  36  19    37  28  19    35  26  17    34  25  16    31  22  13    34  24  16    36  27  18    30  23  13    22  18   7    21  17   6    27  23  12    26  22  13    26  22  13    26  23  14    21  21  12    21  21  13    21  21  13    20  20  12    20  20  13    20  20  15    22  21  16    29  29  19    32  32  22    34  34  25    33  33  26    25  25  17    19  19  11    17  16  12    11  11   9    10  10   6    10  11   6    12  13   8    14  15  10    15  16  11    15  16  11    18  19  14    19  20  15    17  18  12    17  18  12    18  19  13    19  20  14  
  53  36  20    54  37  21    53  36  20    53  35  18    56  37  20    62  43  26    67  48  31    67  48  31    66  48  30    69  52  34    62  47  24    60  45  22    59  44  21    58  43  20    62  47  24    62  47  24    55  43  23    45  39  27    41  35  23    44  37  27    36  29  19    31  27  17    31  27  18    27  26  17    27  27  17    24  24  15    21  21  13    21  20  14    23  22  17    27  26  22    30  30  20    27  27  17    29  29  19    27  27  19    22  22  14    15  15   7    18  18  13    11  13  10    12  14  10    13  15  10    15  17  12    17  19  14    17  19  14    12  13   8    14  15  10    19  20  15    19  20  15    20  21  15    21  22  16    22  23  15  
  23  13   4    27  17   8    36  24  16    37  21  12    43  26  16    41  27  16    32  20   6    37  24  10    49  33  19    54  36  22    52  37  16    49  33  12    50  33  13    55  38  18    57  39  17    59  41  19    63  42  23    62  37  25    61  41  28    57  39  25    52  36  20    51  33  15    54  37  16    57  41  19    57  42  23    49  34  16    44  31  15    43  29  15    40  27  14    49  37  23    54  40  27    47  35  21    55  44  32    39  30  19    24  17   7    23  19  10    25  23  14    15  18  11    15  18  11    12  13   7    16  17  11    18  19  11    17  18  10    16  16  10    18  17  12    19  18  13    18  17  12    19  18  13    20  21  16    23  24  19  
  36  24  12    31  19   7    27  15   3    28  15   6    32  22  12    38  28  18    40  30  15    48  33  17    52  34  17    52  29  13    55  33  19    57  36  22    58  39  25    52  33  19    50  32  20    52  36  23    52  34  19    54  34  16    52  35  19    46  33  17    41  27  14    44  30  16    48  32  17    50  33  16    56  39  21    58  41  25    57  41  26    54  38  24    45  29  16    47  29  19    55  39  23    55  40  23    51  38  22    43  33  17    40  30  18    31  23  11    27  21  10    29  25  16    30  25  17    28  24  15    32  28  19    33  29  20    28  24  15    24  20  11    23  20  11    25  22  13    27  24  15    26  25  15    23  23  15    21  21  13  
  53  38  19    49  35  16    39  26   7    31  22  10    28  20   9    28  20   6    41  29  14    56  40  24    62  40  22    58  33  15    56  33  19    59  37  23    56  35  21    54  36  22    57  40  26    54  41  25    55  41  22    61  45  19    57  44  21    51  40  22    39  27  11    42  29  15    56  42  29    63  45  27    68  49  29    66  47  29    63  44  27    61  42  27    53  34  20    50  32  18    49  30  16    51  32  18    47  30  15    51  35  22    46  31  18    44  30  19    49  35  23    43  29  16    43  29  17    40  28  16    45  32  23    45  35  25    40  30  21    37  30  17    37  31  17    38  34  22    38  34  22    35  31  19    31  27  16    29  25  13  
  81  63  39    82  64  40    68  52  27    51  38  18    48  37  19    44  31  14    36  22   6    37  21   4    44  26   9    52  32  14    52  34  14    58  40  19    67  49  27    64  46  23    61  44  18    68  51  23    71  54  25    72  54  25    63  47  21    58  43  20    55  40  18    63  47  26    68  52  29    68  47  24    74  53  26    77  56  29    76  56  28    76  55  29    65  44  20    53  32  10    54  30  18    61  39  26    56  34  21    58  36  24    50  30  19    49  29  18    53  33  21    53  35  21    49  31  17    43  26  13    42  28  17    44  31  20    42  29  20    42  32  19    43  34  19    45  36  21    44  34  22    41  32  19    40  32  19    43  34  22  
 101  80  53   106  85  56   100  80  50    96  76  48    98  78  51    88  68  43    65  47  26    53  37  19    47  33  17    40  27  11    37  24   8    35  22   5    64  48  26    73  55  28    77  57  26    90  68  33    86  64  29    87  65  37    91  71  44    85  67  40    81  64  34    96  76  44   100  80  46    96  76  41    97  77  40    93  71  32    90  67  28    92  70  32    88  65  32    78  55  24    78  53  31    74  49  27    77  53  30    83  59  35    69  44  19    64  40  14    65  42  19    64  46  28    59  42  26    49  33  17    47  31  16    46  33  17    46  32  18    48  32  17    47  30  14    46  29  13    47  31  16    49  33  18    50  34  19    53  37  22  
  83  59  31    91  65  37    99  74  44   109  83  51   113  86  56   107  80  52   100  77  51    97  79  55    80  66  46    52  41  23    49  36  27    43  28  16    53  36  20    71  51  31    80  59  35    82  58  32    85  60  34    85  62  38    76  56  31    80  60  34    89  70  40    94  75  38   102  81  41   102  82  42   104  84  43   105  84  39   105  84  37   110  89  44   111  90  48   106  84  47    97  74  35   103  80  41   104  81  39   100  77  35   104  81  37   111  87  41    95  73  33    72  55  29    71  54  28    66  49  23    67  50  24    67  50  24    65  48  22    71  49  25    68  44  20    60  38  14    65  43  20    69  47  24    65  43  20    60  38  15  
  78  52  25    82  55  28    88  60  32    83  55  26    86  59  29    95  66  36    96  69  40    97  74  45    91  73  45    80  65  36    76  58  38    87  69  49    76  58  38    73  55  35    76  58  36    76  58  36    81  64  40    73  57  31    64  49  23    67  53  27    68  54  28    63  47  20    81  63  32   102  82  47   107  88  48   106  86  43   101  80  33    99  78  33   102  80  40   106  82  45   102  80  39   102  79  37   102  79  36    97  73  28   102  79  29   115  89  39   115  91  45   103  84  45   106  85  45   107  85  44   114  91  50   116  91  50   110  85  44   107  80  40   100  72  33    95  67  28    99  71  32    99  72  35    92  66  29    88  62  25  
  69  42  17    77  47  21    80  49  24    79  52  25    81  55  28    82  55  26    83  55  24    88  60  27    95  70  34    99  77  39   122  96  61   134 110  75   120  99  68    88  71  42    82  67  41    79  67  45    65  54  30    69  58  31    65  56  32    58  50  28    55  47  28    49  38  19    54  40  21    72  54  25    90  70  35   106  87  45   109  89  46   104  83  42   103  80  44   104  81  49   107  84  52   102  78  46   104  80  45   106  82  43   114  89  48   115  88  45   120  94  50   116  92  45   115  89  42   118  90  42   129  99  49   131  99  47   123  91  38   122  91  40   120  90  40   120  90  40   123  93  43   121  91  44   119  90  43   122  94  46  
  55  32  14    54  33  15    54  33  16    55  34  14    61  39  17    70  45  21    77  49  24    84  57  29    85  59  28    80  57  23    80  54  29    83  58  32    96  70  43   106  80  51   112  87  57   111  86  55   110  83  48   116  85  45   104  76  38    92  67  35    78  57  30    75  57  37    68  54  38    61  48  32    55  41  25    61  49  27    75  60  37    71  55  32    67  50  31    73  56  38    83  62  35    78  59  32    86  70  43   102  86  54   111  90  50   110  82  35   122  94  44   114  94  43   117  97  47   124 102  55   116  92  48   103  78  37   111  85  45   116  88  43   119  91  43   121  93  45   117  91  42   114  88  39   111  85  36   114  87  39  
  73  53  26    59  39  14    48  30   4    40  23   2    43  24   7    50  27   9    50  26   7    54  30  10    63  42  19    72  54  30    75  51  27    75  50  26    78  52  28    76  51  24    80  54  25    89  62  33    95  69  39   102  78  47   103  80  48   105  84  52    96  78  44    90  74  41    90  75  42    84  69  39    72  58  29    66  52  23    64  50  24    62  47  26    59  43  28    53  36  26    56  40  25    46  33  18    46  35  21    58  47  30    65  51  28    78  58  31    99  77  42   109  88  42   122 100  53   117  95  46   111  88  38   114  88  36   121  95  41   122  90  40   113  80  32   122  90  41   134 102  53   125  93  43   117  85  34   119  87  36  
  83  62  33    83  63  34    76  56  29    62  44  25    53  34  19    49  30  15    49  28  14    42  23   9    36  18   4    39  22   7    53  30  12    62  39  21    75  51  30    79  53  31    78  52  29    81  53  29    79  53  29    71  51  26    66  45  20    69  47  23    75  51  25    84  58  33    93  67  42   106  83  59   101  81  54    91  72  44    87  70  43    90  75  49    92  79  55    87  75  53    57  47  35    50  43  33    46  43  34    48  45  36    40  33  23    41  31  18    56  42  23    78  58  30    91  72  39    97  76  37   105  82  40   114  89  40   127 102  49   134 103  53   130  96  48   131  98  47   131  98  47   125  94  40   126  95  40   129  98  43  
  82  55  28    91  64  38   100  75  51    94  72  48    83  61  38    71  49  26    62  41  20    57  37  19    51  32  17    42  25   9    38  20   7    36  18   4    40  21   6    45  24  10    54  31  15    62  38  20    69  45  27    76  55  34    82  58  37    78  51  30    77  46  25    82  47  25    86  50  28    84  51  30    81  51  27    83  55  31    87  63  37    86  65  38    85  67  41    84  68  42    87  76  55    74  67  48    57  53  36    52  50  37    45  42  30    50  44  30    54  45  34    60  45  37    56  41  29    59  42  24    72  52  28    76  55  26    91  68  37   108  84  45   113  89  45   110  86  42   118  94  48   125 103  53   120  98  46   120  99  46  
  91  57  25    88  55  25    94  64  35   101  73  40   110  84  51   106  82  48    86  62  31    81  57  28    84  60  32    72  48  20    48  34  21    42  27  14    39  23  10    39  21   9    38  20   8    38  20   8    39  21   8    39  23   7    48  30  13    59  39  16    78  54  26    89  61  30    86  57  22    87  55  22    85  51  23    83  49  23    76  45  22    67  39  19    68  41  24    73  47  29    69  52  26    76  60  36    80  67  46    88  76  59    80  71  54    66  54  40    51  40  29    60  51  45    61  50  44    55  45  37    59  45  36    53  38  27    49  33  19    53  38  17    78  63  40    89  75  49    85  72  46    87  76  47    86  75  45    86  75  43  
  93  59  22    79  46  10    78  48  13    75  46  12    80  54  19    95  69  34    94  69  33    90  64  27    91  64  27    87  58  21    72  54  32    67  48  28    58  40  21    49  32  15    40  24   8    37  19   5    39  23  10    34  21  12    32  19   8    31  17   4    33  19   3    40  24   7    47  32  13    65  39  18    76  45  24    83  52  32    83  52  34    82  52  34    82  54  33    77  49  28    71  44  23    71  45  26    69  44  28    75  53  38    86  64  51    87  65  52    70  55  39    56  49  31    56  48  31    49  40  25    46  37  22    48  38  26    51  40  28    55  43  35    70  57  51    68  58  51    57  47  38    68  58  49    70  60  51    45  35  25  
  79  50  18    73  45  16    79  54  28    78  54  30    69  45  19    75  54  25    86  65  33    86  63  30    89  62  28    94  64  28    89  59  23    89  60  27    86  58  28    79  53  25    66  42  18    59  37  15    63  42  21    60  39  21    50  31  15    43  25  13    37  20  12    34  19  13    30  16  13    32  17   6    39  22   7    50  30  16    60  38  23    73  49  30    87  61  37    91  66  36    87  57  39    83  52  34    77  47  29    70  41  23    71  44  24    71  44  27    68  45  26    60  44  21    59  44  22    64  49  29    60  47  30    59  46  29    64  51  35    67  50  36    71  52  38    71  52  38    68  51  38    69  51  40    59  41  31    43  25  15  
  62  36  19    58  36  20    52  33  20    54  35  22    53  34  19    56  40  21    63  46  22    75  53  27    92  66  37    97  68  38   104  66  19   105  68  23   103  68  25    99  66  29    88  57  25    81  51  23    85  55  27    90  54  24    94  62  32    89  59  30    69  46  18    63  43  16    50  34   8    37  31   7    30  25   5    33  25   7    40  26  10    43  26  10    53  32  14    66  44  23    77  47  23    83  53  29    94  64  38    91  61  33    85  55  27    78  51  23    80  53  28    67  41  24    63  39  22    68  47  30    65  46  29    63  46  31    64  48  32    88  65  37   111  86  53   109  82  52   103  76  47   101  74  47    85  59  34    80  54  29  
  28  24  13    28  24  12    30  26  14    31  29  17    31  27  16    31  25  12    33  26  10    43  32  14    61  47  27    78  63  43    89  60  25    96  67  28    97  64  24    97  60  24   109  69  34   108  69  25   102  69  20    92  67  21   100  64  27   105  66  32    96  62  27    95  64  26    99  65  25    93  59  22    76  44  13    72  45  19    63  39  18    51  32  16    43  28  13    42  30  14    42  26  23    52  35  26    64  43  26    72  45  22    86  54  29    95  59  37    92  57  34    90  60  32    78  46  21    73  41  20    70  42  26    63  37  28    58  35  33    65  44  36    74  55  40    77  57  32    88  67  37    98  74  45   103  76  53   105  76  58  
  23  19  10    24  20   9    27  23  12    24  20  11    21  19   7    23  19   8    27  20   8    32  23   9    41  30  14    50  38  22    65  48  29    72  53  29    72  49  22    76  50  21    98  69  37   107  78  35   110  80  29   110  76  23   114  72  23   113  70  25    95  61  15    88  57  14    95  62  24    95  61  31    89  56  26    92  62  26    88  59  19    86  58  19    80  54  20    72  45  15    57  39  15    51  34   8    49  31   6    52  34  12    53  34  17    53  35  22    67  46  27    87  61  26    89  61  26    85  56  24    80  54  25    73  50  25    70  49  28    68  43  26    72  46  29    73  47  32    72  45  30    69  43  27    72  47  28    82  57  37  
  17  14   7    18  15   7    22  18   9    19  16   8    19  16   9    20  17  10    23  19  10    23  19  10    26  20  10    29  22  12    46  42  33    59  53  39    57  48  30    50  37  20    60  44  22    71  52  19    85  61  20   105  70  24   124  83  34   135  94  42   120  85  31   103  68  19   110  70  28   105  67  30    95  58  23    96  60  27    91  56  24    94  59  28    92  58  26    85  53  20    81  51  13    79  49  15    76  48  19    74  49  24    68  46  23    60  40  17    59  37  15    71  44  24    81  53  31    84  57  30    88  61  32    89  64  34    87  65  34    83  58  33    80  54  31    81  54  33    83  58  36    80  57  34    73  51  28    72  51  24  
  10   7   2     8   6   1    12   9   3    13  10   4    13  10   5    12  11   6    13  12   7    13  12   8    13  12   8    13  12   8    14  17   6    32  34  19    44  44  27    44  39  27    42  32  23    44  30  14    53  35  17    61  37  22    75  43  20    96  62  28   110  78  30   111  77  18   129  87  26   138  96  37   121  81  26   108  71  24    94  59  21    86  54  20    75  48  15    72  46  11    79  47  12    78  45  15    87  53  27    83  50  25    82  51  22    82  52  17    70  41   8    67  40  21    69  42  21    66  38  16    67  40  17    72  46  21    79  53  28    79  55  29    82  57  27    90  66  31    91  69  27    93  70  28    89  65  27    90  64  29  
  11  10   6     9   8   3     9   8   3     8   7   3     8   7   3     8   7   3     7   7   5     9   9   7     8   8   6     7   9   8     9  11   1    14  17   3    30  32  17    43  41  31    45  37  29    40  27  15    48  34  14    56  43  15    62  41  21    68  43  27    67  44  26    64  38  13    84  51  21   126  87  34   135  96  31   142 105  35   141 108  36   139 108  37   126  95  29   118  87  23    98  71  24    81  53  13    80  51  20    78  48  22    78  48  22    86  57  27    86  57  23    84  57  19    81  56  20    77  50  20    70  43  15    65  37  13    68  39  17    67  44  20    77  56  27    97  74  39   103  79  37   111  83  39   113  83  38   111  80  36  
  18  17  12    14  13   8    10  11   5     9  10   5    10  11   6    10  11   6    10  10   8    11  11   9    11  11   9     9   9   7    14  10  11     6   6   1    13  15   5    27  27  17    43  37  25    58  50  28    79  66  39    70  53  32    52  32  22    44  26  24    50  39  34    48  41  26    53  42  18    73  48  14    92  61  17   116  84  32   133  98  32   159 119  42   169 128  40   171 128  34   158 122  41   139 103  30   116  81  18   102  68  17    90  57  15    77  45   7    79  47  12    85  51  18    79  47  16    82  53  23    89  60  32    85  56  26    81  51  22    69  45  16    68  47  20    69  45  21    69  41  19    86  55  27   108  74  39   119  86  46  
  16  17  11    13  14   8     9  10   4     9  11   6    11  13   8    11  12   7     9  10   5    11  11   5    13  12   7    13  12   7    20  14  20    14  11   9    11  13   5    10  13   4    21  21  11    49  46  26    83  74  46    89  72  43    62  45  25    32  20   7    19  16   7    20  21  12    32  28  18    46  34  20    55  39  24    68  46  27    74  47  19   100  69  25   126  89  30   142 104  34   161 118  39   170 127  49   162 119  42   159 116  45   155 111  46   140  95  37   129  86  36   105  67  29    86  51  15    76  43  10    81  50  20    87  57  25    92  60  27    88  59  23    89  61  28    81  51  26    67  36  16    62  31  10    67  37  13    77  48  19  
  17  18  10    17  18  11    17  18  12    15  16  11    14  16  11    12  14   8     9  10   3    12  12   4    19  17   8    23  20  11    17  11  11    17  18  11    15  20  12     8  14   9    10  13  10    22  21  13    48  44  24    76  65  30    77  63  33    55  46  23    28  27   7    15  15   2    19  12   6    21  15  11    24  21  13    39  33  18    42  33  13    51  37  15    57  37  16    68  46  25    82  50   8   105  72  22   127  90  30   141 102  32   151 106  31   159 110  37   166 120  45   163 126  48   144 111  41   111  80  24    85  56  13    79  48  16    85  51  25    96  59  23    97  62  20    89  55  18    90  61  26    87  59  32    74  51  27    65  43  21  
  19  20  12    17  18  10    16  17   9    15  16   8    19  20  12    17  18  10    15  16   8    16  17   9    19  19  11    16  16   8    22  22  14    22  22  14    21  21  13    17  17  10    17  17   9    16  15  10    18  16  12    34  28  22    54  46  30    72  62  37    60  49  28    29  22  12    14  12  13    16  15  13    18  17  12    20  20  12    24  21  12    26  23  13    30  28  16    37  35  22    43  30  10    52  36  16    61  43  19    71  50  23    83  58  27    93  67  31   113  83  37   142 108  39   153 117  41   161 123  44   153 115  41   132  94  33   106  69  20    92  57  17    90  57  16    90  57  14    90  60  17    90  60  21    88  59  27    89  59  32  
  18  19  11    15  16   8    14  15   7    12  13   5    15  17   9    17  18  10    22  23  15    22  22  14    19  19  11    15  15   7    18  18  10    21  21  13    22  21  15    20  18  13    18  17  12    14  14   9    11  10   5    14  11   5    26  21   7    43  36  17    43  36  18    24  20  10    10  10   8    14  14   9    18  18  10    20  20  12    22  21  11    21  18   8    20  18   5    22  20   8    25  18   4    31  23   7    37  27   9    43  31  10    49  34  11    52  36  10    64  45  19    84  59  27    91  64  20   110  80  20   131  98  27   142 110  34   149 117  40   141 105  29   134  97  28   122  85  34   100  63  28    78  45  15    74  45  14    84  58  21  
  20  21  13    18  19  11    18  19  11    19  20  13    15  16  10    10   9   4    16  15  10    17  16  11    15  15  10    15  14   9    13  12   7    18  17  12    22  21  16    22  21  16    19  18  14    13  12   8    11  10   6    15  15   8    15  12   4    21  14   5    24  21  10    19  17   8    14  16   8    14  15   5    16  16   6    19  19   9    21  20  10    20  17   8    17  14   5    18  15   6    17  18  10    20  21  12    22  22  11    25  24  11    28  24  12    28  25  10    34  30  14    45  38  18    55  43  18    68  49  20    78  54  17    81  53  13    95  65  22   120  86  25   130  97  27   142 110  37   147 115  44   134 102  38   109  78  22    91  59  12  
  17  18  12    17  18  12    19  20  14    19  20  14    23  24  18    23  22  17    23  22  17    17  16  11    15  14   9    18  17  12    13  14   8    14  15   9    15  16  11    15  16  11    15  16  11    13  14   9    12  13   8    16  18  12    14  13   9    14  10   7    14  13   8    15  16   8    17  21   9    22  24  11    23  23  11    23  23  13    22  22  12    21  19  12    19  16   9    20  17  10    18  21  14    17  20  13    14  17  10    15  18  11    17  20  13    18  21  14    20  23  15    24  25  16    33  31  22    40  32  23    47  34  22    47  31  14    58  40  19    67  50  25    66  47  16    75  54  10   106  80  20   136 108  35   152 120  37   155 121  32  
  14  15   9    16  18  12    18  21  14    19  22  15    24  25  19    22  23  17    22  23  17    20  21  15    16  17  11    10  10   5    14  17  10    11  14   7     8  11   4     7  10   3    10  14   7    13  15  10    11  14   9    11  14   8    14  15  12    14  14  14    16  16  14    14  16   8    14  18   5    22  25  13    24  24  14    22  22  12    23  23  13    23  23  15    22  21  15    25  23  18    21  21  11    18  18   8    13  14   5    12  13   5    11  14   7    11  14   7    14  17   9    17  19   8    16  18   7    17  19   8    29  30  16    32  32  10    31  30   2    37  33   9    40  33  14    45  33  15    53  35  18    67  44  19    85  58  22   102  73  29  
  24  25  19    22  25  18    20  23  16    14  19  10    17  23  13    19  25  15    26  31  22    34  37  28    37  40  31    32  35  25    40  43  34    38  41  32    34  37  28    28  31  22    23  26  17    16  19  12    10  14   7     9  13   7     8  11   7    10  12   9    16  18  15    17  20  11    17  21   8    19  21  11    17  18  10    19  19  11    22  22  15    25  25  17    25  25  17    26  26  18    25  23  10    25  23  11    23  21   9    21  20  10    19  19   9    18  18  10    19  18   9    19  18   6    17  18   7    16  19   9    22  28  18    22  28  15    17  21   7    20  15  12    27  19  17    34  27  17    35  29  14    33  26  10    35  27  13    40  32  21  
