P3
50 50
255
  61  67  33    57  59  29    66  66  38    68  67  39    68  67  39    63  63  35    63  64  33    64  67  35    76  80  47    75  78  45    61  63  41    40  43  24    28  30  17    24  26  17    22  24  13    24  26  13    30  33  17    37  39  20    45  49  27    46  52  26    41  47  22    48  56  32    65  73  49    63  69  47    51  56  34    44  50  28    54  63  37    60  70  39    44  55  19    72  87  44   101 111  70    80  89  49    66  75  27    87  95  44    70  75  36    40  41   8    53  53  16    78  77  23    87  89  24    85  86  27   129 132  76   142 148  79   128 136  58   106 115  43    79  87  18    89  92  18   119 120  48   109 107  44    93  94  20   115 121  21  
  59  66  34    56  60  31    59  58  32    56  55  28    61  61  33    61  62  33    67  70  39    67  71  39    73  78  44    64  70  36    61  63  41    40  43  24    28  30  18    25  26  17    21  23  12    23  25  12    29  32  16    42  43  24    63  67  44    75  79  54    68  74  46    54  63  36    38  47  21    25  29  14    20  22   9    31  35  17    52  59  33    70  79  45    75  87  45    56  69  25    25  33   3    46  55  24   109 122  72   118 129  78    56  61  35    51  53  26    93  94  46   126 125  68   101 101  37    80  81  23   107 109  44   121 126  42   120 126  38    88  97  10    78  87   1   124 131  26   171 176  70   142 142  52   117 117  27   121 124  15  
  66  70  35    64  66  35    61  61  34    61  61  32    64  63  33    66  67  36    62  64  33    64  68  38    66  71  41    69  74  44    53  57  34    34  37  19    25  26  15    23  24  17    26  27  19    21  23  12    34  36  21    43  46  24    61  65  42    69  72  51    45  48  30    28  30  17    21  24  14    19  21  13    24  24  18    35  38  23    67  75  38    94 105  55    74  85  46    33  40  24    17  21   6    33  36  30   107 114  75   126 137  73    50  55  17    52  55  26   110 112  64   132 128  79   102 102  54    64  65  20    54  51  12    99  92  35   142 136  32   106 107   4    83  99   1   114 127  16   153 151  39   137 136  21   116 121  13   120 129  13  
  85  91  45    79  82  40    72  74  37    67  66  35    64  63  33    67  66  36    67  68  38    72  74  45    71  74  45    68  71  42    52  56  33    35  38  21    25  27  15    20  22  14    24  24  17    26  28  16    50  52  36    66  69  48    64  68  45    58  62  40    40  43  24    29  31  18    22  25  15    19  22  11    22  23  14    45  48  32    84  91  56    93 102  55    60  69  32    29  36  19    16  20   6    22  25  17    86  92  59   106 114  61    69  74  39    93  96  68   149 152 105   140 138  85   116 118  68    55  57  10    76  74  30    97  92  35   133 129  31   118 118  25    75  88   2    89  99   2   130 128  20   133 130  17   116 121  16   104 110   2  
  89  93  43    75  78  34    69  70  34    70  68  37    69  65  36    67  66  36    65  65  35    68  69  39    66  66  38    63  63  35    48  53  30    35  38  19    26  28  15    20  21  12    22  23  14    27  29  17    59  61  45    88  91  70    69  72  51    49  51  31    32  34  16    28  30  17    26  28  18    19  22  10    29  31  19    55  58  40    85  91  58    91 100  56    64  71  36    37  41  25    32  35  21    34  38  27    61  65  42    78  84  49    93  96  68    91  94  66   107 109  70   104 104  61   105 106  66    60  62  23    49  48  14    63  58  17   100  95  22    98  97  20    65  73   2    82  88   9   128 124  21   135 133  18   119 122  17   103 108   5  
  84  86  38    73  74  34    63  64  31    64  63  32    67  64  33    71  67  38    68  67  37    69  68  39    67  66  38    66  66  38    47  51  26    36  38  20    30  32  20    24  25  16    23  24  16    26  28  17    38  40  25    43  45  26    49  52  33    49  52  33    38  41  24    29  31  18    22  24  14    19  21   9    33  35  22    55  58  40    76  81  51    92  98  60    77  82  52    49  52  34    48  52  38    45  48  37    46  48  36    57  60  42    70  73  52    57  59  34    87  90  57    96  98  60    97 100  57    70  72  29    44  40  12    48  43  15    85  81  25    89  88  21    64  69  10    72  78   8   127 123  23   144 140  22   117 119   9   109 112   7  
  93  93  37    78  78  32    70  71  34    64  64  32    63  62  31    69  68  37    69  68  38    68  67  38    62  61  33    59  58  30    49  53  28    38  41  22    34  36  23    31  32  23    29  30  22    31  33  20    38  40  26    46  48  31    54  57  38    50  53  35    36  39  22    30  32  18    29  31  21    27  30  18    33  35  21    50  53  36    74  78  53    84  89  59    69  74  49    51  54  37    47  49  38    45  47  37    43  44  37    49  50  43    45  48  34    40  43  22    91  95  67   130 134  89   114 119  59    84  86  21    55  52   8    52  48  12    85  85  24    92  92  25    72  77  18    77  81  12   144 138  39   161 158  39   114 118   6   115 118   8  
 125 125  53    98  99  38    85  89  36    76  78  39    67  68  34    62  63  31    59  60  28    60  61  31    56  56  28    52  52  24    51  55  30    38  41  21    32  35  21    30  31  23    31  33  22    35  37  24    39  41  26    45  47  32    52  55  38    49  52  35    37  40  24    32  34  21    30  33  23    33  35  24    37  39  26    46  48  34    62  64  45    64  66  45    51  52  35    41  43  28    34  36  25    39  40  33    39  40  35    39  40  35    42  44  33    37  39  25    58  61  40   123 125  90   121 122  69   107 106  42    70  67  18    45  40   4    62  62  10    79  79  16    69  74  12    86  91  16   171 163  73   187 180  70   126 129  12   127 128  13  
 151 149  73   125 127  60    98 102  44    79  84  42    66  70  35    59  62  28    56  60  27    60  63  33    61  64  35    64  67  38    50  54  29    38  40  21    31  34  20    28  29  20    29  31  20    35  37  24    38  40  26    44  45  31    50  52  36    45  48  31    37  39  25    31  33  20    27  29  19    30  32  22    35  37  27    37  39  26    41  42  29    45  45  33    40  39  27    34  32  20    29  30  22    29  30  24    31  32  25    27  28  20    29  30  24    30  31  23    32  34  20    44  44  23    67  64  33    88  82  34    92  85  35    54  47  11    49  46  10    74  72  19    64  70   3    95 100  22   187 177 101   196 187  91   136 137  16   125 126  11  
 142 140  67   122 122  59    99 102  48    75  80  38    63  69  32    61  67  31    59  65  31    59  64  33    58  62  32    62  64  35    52  56  31    41  44  24    35  38  24    30  31  22    28  30  19    35  37  24    37  38  25    44  45  32    48  50  34    41  44  27    31  33  19    26  28  15    23  26  16    23  25  17    25  27  16    25  27  15    34  34  25    42  40  33    39  36  29    32  29  20    31  32  24    25  26  21    27  29  19    28  30  17    30  31  25    23  24  19    30  32  17    38  38  14    59  53  29    80  73  26    93  85  22    71  66  15    48  46   9    70  68  20    70  76   8   129 134  56   214 202 136   196 183 100   132 132  17   116 116   4  
 135 135  46   111 112  40    92  92  35    72  76  37    57  62  30    55  60  28    61  66  34    63  68  36    61  66  35    59  64  34    53  55  34    42  45  27    30  32  17    25  27  14    26  28  17    27  29  16    32  35  22    38  40  28    38  40  26    36  38  24    28  30  17    21  23  13    20  21  14    18  20  11    20  21  12    23  24  18    37  39  27    47  49  35    42  42  31    39  38  34    29  29  22    25  27  21    26  27  22    25  26  21    20  22  17    21  24  17    25  28  16    30  34  17    43  42  24    66  63  20   100  95  38    80  74  22    72  66  16    69  71  12    84  87   8   145 140  54   216 203 130   190 179  95   132 130  17   123 125   1  
 121 125  27    95  98  23    77  78  24    65  69  31    59  65  31    57  62  30    58  63  31    61  66  34    63  68  37    58  63  33    48  50  29    38  41  23    26  29  14    22  24  11    23  25  14    25  27  14    28  32  19    31  33  21    32  34  20    31  33  19    25  27  14    20  22  12    19  20  13    19  20  11    20  21  13    23  24  18    39  41  29    53  54  39    45  46  34    36  35  31    29  31  23    26  27  22    25  26  21    22  23  18    16  19  12    16  19  10    20  24  13    26  29  18    36  34  20    66  63  22   102  97  39    94  89  32    94  89  32    74  74  30    69  70   5   126 122  35   206 195 113   185 174  84   131 126  21   117 114   7  
 119 128  21    96 103  26    78  82  31    62  68  31    60  66  32    59  64  31    55  60  28    58  63  32    62  67  37    57  62  32    51  53  32    40  43  25    27  30  15    21  23  10    22  24  13    23  25  12    26  29  16    29  31  18    30  32  18    31  33  19    27  29  14    22  24  12    21  22  14    20  21  11    20  21  13    23  24  18    42  44  32    60  61  46    50  50  39    33  32  28    26  27  19    23  24  18    22  23  18    21  21  16    17  18  12    18  19  11    20  23  12    26  27  20    37  34  22    57  53  17    87  85  28   104 100  38   100  94  31    68  70  22    84  87  21   133 129  51   213 198 135   207 191 114   144 135  33   125 121  14  
 114 126  19    95 104  29    77  84  35    61  67  31    59  65  31    57  63  29    53  58  26    57  62  31    62  67  37    55  60  30    51  53  32    41  44  26    28  30  15    22  24  11    22  24  13    23  25  12    27  30  16    31  33  20    32  34  20    33  35  21    29  31  17    24  26  13    21  22  13    19  21  11    22  23  16    25  26  20    46  48  35    64  66  49    53  53  40    31  30  24    23  26  17    20  22  16    20  22  17    21  22  17    19  20  14    21  22  14    26  28  17    29  30  20    35  35  19    54  51  18    77  74  22    94  90  28    90  84  22    59  63   5   100 105  31   149 143  73   220 203 151   215 198 127   147 138  31   130 125   8  
  99 109  15    84  92  24    69  75  30    62  68  32    58  64  30    57  63  29    56  61  29    60  65  34    61  66  36    55  60  32    48  50  29    38  41  23    26  29  14    21  23  10    23  25  14    25  27  14    28  31  17    31  33  20    33  35  21    35  37  23    30  32  18    22  24  12    19  20  11    18  20  10    22  24  17    28  29  23    47  49  37    64  66  48    51  52  38    31  31  22    26  29  22    23  25  19    23  25  20    23  24  18    21  22  14    23  25  14    30  32  17    34  35  16    40  41  18    50  49  19    72  69  20    90  85  27    90  82  25    65  67  14    91  94  25   141 137  59   205 191 119   188 174  85   136 127  19   122 118   9  
  91  98  23    75  81  23    63  70  25    63  71  33    59  67  30    57  64  30    60  66  33    62  69  37    61  67  38    56  62  34    52  54  34    42  45  27    29  32  17    23  25  12    24  26  14    25  27  14    28  32  18    32  34  21    37  39  25    40  43  26    34  36  22    25  27  15    22  23  14    19  21  10    22  24  17    29  30  24    47  50  37    61  63  45    48  49  34    31  31  23    24  28  21    22  25  18    23  25  20    25  26  20    25  26  18    30  30  20    36  36  21    37  39  16    45  46  20    47  46  17    66  64  22    91  88  30    96  87  31    75  73  23    86  86  24   121 116  34   168 157  65   155 143  41   130 122  15   117 113  10  
  83  87  30    69  73  25    61  65  24    61  68  30    59  67  30    58  65  31    60  67  34    59  66  34    58  65  35    55  61  33    54  56  35    44  47  29    31  34  19    26  28  15    27  29  18    28  30  17    31  35  21    36  38  25    44  47  30    47  50  33    39  41  27    29  31  19    25  26  17    22  23  13    23  24  17    28  29  23    46  48  35    58  60  42    45  46  31    30  30  21    21  26  19    19  23  16    23  25  20    25  27  21    27  28  20    33  34  21    41  41  26    41  40  22    42  42  18    51  51  27    69  67  26    89  85  23    99  90  29    74  70  17    87  82  26   104  95  21   138 127  34   137 127  24   127 121  18   116 113  10  
  69  72  23    67  68  27    66  69  31    59  66  28    58  66  29    59  66  32    57  64  31    56  63  31    56  62  33    52  58  32    46  48  27    37  40  22    27  30  15    25  27  14    29  31  19    33  35  22    36  39  25    39  41  28    48  50  34    51  54  37    41  43  29    29  31  19    25  27  17    23  25  15    23  24  17    26  27  21    45  47  34    56  59  39    43  44  28    30  30  20    23  28  21    21  25  18    23  25  20    25  26  20    26  28  17    31  31  19    37  37  24    41  39  25    44  43  24    53  52  31    70  68  26    95  92  25   101  93  25    73  68  17    83  76  30    99  88  21   139 128  28   137 128  24   127 121  25   120 120  22  
  74  71  33    68  68  29    65  68  30    61  66  34    61  66  36    60  65  33    58  64  31    62  67  36    62  66  40    55  59  35    46  49  28    40  43  25    33  35  19    28  28  16    27  27  15    36  34  20    43  42  26    48  50  29    60  62  39    63  67  42    48  52  30    33  37  22    27  30  21    23  25  18    17  18  12    27  28  19    49  50  34    59  61  40    43  44  27    26  26  15    20  23  16    20  23  14    22  26  13    26  28  15    29  32  20    31  33  22    30  31  21    35  37  21    43  44  23    52  50  26    74  70  25    93  89  24    99  92  28    71  66  20    67  64  22    83  82  18   120 120  29   128 126  28   114 108  12   122 117  16  
  67  64  27    64  64  29    64  68  33    60  66  34    59  64  34    58  63  31    59  64  32    64  69  38    65  70  43    61  65  42    48  52  29    39  43  22    33  35  18    33  34  19    33  34  20    40  38  23    49  48  31    57  59  37    64  66  43    67  71  46    49  53  31    29  33  18    23  26  17    20  21  15    23  24  18    32  33  25    52  54  38    71  74  52    56  58  40    28  28  18    23  25  20    23  26  18    29  32  22    33  35  25    31  33  22    28  29  21    30  31  23    34  36  20    42  42  21    51  49  24    75  71  27    94  90  26    98  91  29    69  64  18    67  64  21    83  82  18   120 120  28   127 125  27   114 108  12   122 117  16  
  61  59  28    55  57  25    54  58  27    57  62  31    57  62  32    55  60  28    57  62  31    60  65  34    61  65  37    60  64  39    60  64  39    48  52  29    36  39  19    33  35  18    35  36  20    46  45  27    54  54  35    53  55  34    62  63  40    67  71  46    52  56  33    32  36  21    28  31  22    21  24  17    24  27  20    34  37  28    57  61  44    80  85  62    61  65  46    29  32  20    25  28  22    23  26  18    29  31  23    33  35  25    26  27  18    24  25  19    29  31  22    33  35  19    40  40  20    50  49  22    74  71  27    92  89  28    94  88  28    68  63  20    68  65  22    88  87  21   124 122  31   130 127  28   117 111  15   124 119  20  
  52  51  21    52  53  26    55  60  32    57  63  33    54  59  29    53  58  28    56  61  31    58  63  33    59  63  35    61  65  38    65  72  41    63  67  41    52  55  33    42  43  24    38  39  21    42  43  23    50  50  30    55  57  36    64  67  43    69  72  48    52  56  33    32  35  20    25  28  19    21  25  19    21  26  19    29  35  24    57  64  46    77  82  60    52  56  37    28  31  20    24  25  22    21  22  17    26  27  20    27  28  21    20  22  14    20  20  15    26  27  19    31  33  18    40  40  18    51  50  22    73  70  26    90  87  26    90  84  27    65  62  20    68  65  22    93  89  24   125 123  30   130 126  28   116 112  17   123 119  20  
  51  50  22    51  52  24    54  57  30    58  62  32    53  58  28    50  55  25    54  59  29    58  63  33    64  69  39    71  76  46    74  81  48    72  78  49    57  60  37    42  45  23    40  41  23    41  43  22    44  46  25    57  59  37    69  71  48    70  74  49    52  56  34    33  37  22    22  25  16    19  24  17    18  23  16    24  30  19    51  58  40    68  73  51    44  48  29    27  30  18    20  21  16    21  22  15    25  26  17    25  26  16    20  21  13    20  20  12    23  23  16    30  32  17    42  42  20    52  51  24    71  70  24    85  82  23    85  80  25    61  58  17    63  60  18    92  88  22   124 120  26   129 124  24   115 110  15   120 116  17  
  54  53  23    57  58  28    61  62  34    61  65  34    55  60  30    49  53  26    49  53  26    54  59  30    64  69  39    75  80  48    83  90  57    71  78  48    48  52  29    35  38  18    39  40  22    42  43  25    41  43  24    51  53  32    67  69  45    68  72  47    53  56  34    38  41  26    26  29  20    19  22  15    20  23  16    26  29  20    45  49  32    62  67  45    46  50  31    26  28  17    20  21  14    19  20  11    20  22  10    21  23  10    20  20  10    20  20  10    23  23  15    29  30  16    42  42  20    53  52  23    70  69  23    81  80  21    80  75  24    57  55  16    61  58  18    94  88  23   125 120  25   130 124  23   115 110  15   117 113  16  
  56  53  20    56  55  24    59  59  28    59  63  31    56  61  31    52  56  29    49  53  28    53  57  30    62  67  36    71  77  43    75  82  51    61  66  40    44  48  26    36  40  21    37  38  22    35  36  20    36  38  20    49  51  30    63  65  42    65  69  44    49  53  31    33  37  21    23  26  17    17  19  12    20  22  15    28  29  20    43  46  29    62  66  44    51  53  35    26  26  16    21  22  13    18  21   9    24  26  12    28  30  15    23  25  10    20  20   8    22  22  12    27  29  14    40  40  18    52  51  22    70  69  24    80  79  22    76  72  23    55  53  16    60  57  17    96  90  25   128 121  26   132 126  25   116 111  16   114 111  15  
  77  73  38    73  71  38    68  67  35    57  60  28    54  59  29    55  59  32    56  60  35    60  64  38    66  71  40    72  77  44    70  77  46    55  61  34    40  44  23    33  36  18    28  30  16    30  31  15    37  38  21    45  47  26    56  58  35    61  64  39    46  50  28    28  32  17    22  25  16    19  21  14    19  20  14    28  29  20    46  47  31    65  67  45    53  54  36    24  24  14    17  19   8    20  22   9    37  39  24    46  48  32    33  34  20    19  20   6    19  19   8    26  27  14    37  38  16    51  50  20    71  70  24    82  80  24    74  70  22    53  51  13    58  55  15    94  89  22   127 120  26   133 125  24   116 110  15   111 108  11  
  96  82  38    80  72  36    70  69  40    58  65  33    53  63  28    55  67  31    59  71  35    58  69  34    63  71  36    70  77  43    75  80  51    56  60  37    39  41  25    29  31  20    26  28  17    28  30  17    33  36  19    41  45  21    56  60  33    66  67  41    51  51  28    31  32  16    22  24  12    14  17   6    17  20  13    24  26  20    38  41  30    52  56  40    41  45  30    22  26  18    19  18  13    28  27  16    70  60  33    92  78  43    51  48  24    21  24  11    21  23  13    26  29  17    36  37  15    52  48  19    67  64  20    79  78  22    68  66  19    53  50  13    62  57  16   107  97  33   132 123  30   127 121  22   110 110  15   108 113  16  
 114 101  50    88  82  38    71  70  35    64  71  37    63  75  39    59  73  37    62  76  40    64  77  41    65  75  40    74  81  47    71  75  46    53  56  33    36  39  22    27  29  17    23  25  14    24  26  13    29  32  16    42  45  23    57  60  36    70  70  46    55  54  33    30  32  15    22  23  13    16  17   7    19  20  14    22  23  16    34  36  24    48  51  34    38  41  26    20  21  13    17  18   9    31  31  16    71  62  33    89  75  38    47  44  18    21  25  11    23  25  13    26  29  15    37  38  15    51  47  19    65  62  18    75  74  19    65  63  18    48  48  11    56  53  12   101  93  28   131 122  29   130 125  23   115 114  17   107 112  12  
 109  98  41    92  86  37    74  73  32    66  75  37    66  81  42    60  76  37    62  78  39    66  82  43    64  77  39    73  83  46    71  75  46    53  56  33    36  39  22    28  30  18    24  26  15    25  27  14    29  31  16    41  44  24    57  59  37    73  73  49    56  55  35    29  31  14    21  22  12    15  17   9    19  19  13    20  22  15    32  34  21    46  49  31    37  39  24    18  19  11    18  18   7    31  32  15    70  62  31    87  73  35    47  45  16    23  25  11    24  25  12    25  28  12    37  38  13    50  46  18    61  58  16    71  70  17    62  59  17    46  46  11    55  53  14    93  88  23   130 125  30   133 129  27   112 109  11   105 107   6  
 104  92  37    87  80  33    75  74  34    65  74  36    62  77  38    59  77  37    59  80  39    63  81  41    63  78  39    71  82  44    72  77  48    54  57  34    36  39  22    29  31  19    27  29  18    29  31  18    32  35  20    38  41  23    52  55  33    66  65  44    52  51  31    28  29  15    20  22  12    14  15   7    17  17  11    20  21  14    36  38  23    50  53  33    39  41  25    19  21  12    19  21  10    30  32  15    67  59  27    86  72  33    52  47  19    24  27  10    22  23  10    25  29  10    37  38  12    50  47  17    60  57  15    69  67  18    60  57  19    47  49  16    54  54  17    80  77  13   120 116  21   129 125  23   110 106   9   116 116  15  
 102  88  40    82  74  33    71  68  34    62  70  34    57  72  33    61  80  39    61  84  42    60  81  40    67  80  42    70  80  43    69  74  45    50  54  31    35  38  21    29  31  19    27  29  18    28  30  17    30  32  18    33  36  20    45  47  29    54  54  34    42  42  24    26  28  14    20  21  13    15  16  10    16  17  11    19  20  12    37  39  23    53  57  34    41  44  27    21  23  14    19  21  10    30  32  15    65  57  25    84  70  31    51  47  18    24  26   9    20  22   8    23  27   9    35  36  10    49  45  16    60  57  15    70  68  18    60  57  19    40  42  11    47  49  12    80  80  17   119 118  25   128 125  26   116 114  20   115 114  17  
  93  81  36    77  69  30    66  63  33    61  67  33    53  68  29    59  78  37    59  82  40    59  80  39    68  82  43    69  78  40    66  71  42    49  53  30    36  38  22    30  32  20    27  29  18    25  27  14    26  28  14    29  31  18    37  39  22    44  43  25    35  34  17    23  24  12    19  20  13    16  17  11    16  17  11    18  19  10    36  39  20    52  56  31    40  44  24    21  23  14    16  19   7    29  31  14    63  55  24    78  65  26    47  42  14    24  24  11    22  21   8    22  25   8    32  33   9    48  44  15    62  58  19    72  69  20    60  57  19    46  47  17    47  49  13    71  72  11    92  95   5    99 100   5   110 110  20   101 102  10  
  94  82  35    72  64  25    63  60  28    60  65  31    53  65  27    53  71  31    56  77  36    62  81  41    71  83  45    72  78  42    69  74  45    51  55  31    35  38  21    29  31  19    25  27  16    24  26  13    25  27  14    28  30  18    32  33  18    40  39  22    34  32  17    22  22  11    17  18  11    14  15  10    15  16  11    18  20  10    38  42  21    54  58  33    41  44  25    20  21  12    16  19  10    24  28  12    56  48  19    72  58  21    44  39  13    23  23  11    21  21   9    21  24  10    30  30   8    46  42  13    63  60  18    73  71  21    57  55  14    41  40  10    42  42   8    64  65   6    83  87   2    88  91   2    94  98  12    81  85   2  
  92  81  31    73  66  23    61  59  23    60  64  28    55  65  28    49  66  26    55  76  35    69  87  47    77  87  50    79  83  48    74  79  49    51  54  31    32  34  18    23  25  13    21  23  12    22  24  11    24  26  13    28  30  18    29  31  17    40  38  23    35  33  19    21  21  10    16  17  11    12  11   7    14  14   9    21  22  11    43  45  24    59  62  35    43  44  25    20  20  11    19  22  14    20  24  11    48  40  12    67  53  18    45  39  15    22  22  10    19  18   9    21  24  11    28  29   7    44  41  14    63  61  18    73  72  20    55  53  11    39  38   8    46  43  11    66  67  10   100 105  18   109 113  24   103 108  26    96 101  20  
  88  74  35    74  62  28    67  60  27    60  63  28    58  66  29    55  70  31    58  74  35    64  80  40    73  83  44    77  83  45    72  78  43    51  55  28    32  34  18    23  24  17    19  20  12    19  21   8    21  23  10    24  26  14    27  29  16    32  34  19    30  32  19    23  24  14    16  17  10    11  13   7    15  17  10    18  18   7    44  43  23    67  66  40    45  44  22    19  19   6    16  21  16    21  22   8    60  47  13    94  76  31    62  56  22    17  22   2    16  21   7    21  24   8    27  29   8    41  41  11    63  63  18    65  64  19    50  51  12    38  41  10    44  45  12    68  67  10   101  99  14   118 115  24   114 111  23   113 113  21  
  78  66  29    70  61  26    66  61  28    62  66  30    61  69  32    54  67  29    53  69  30    62  76  37    73  82  42    77  83  45    69  75  40    50  54  27    33  36  19    25  26  17    20  21  13    18  20   7    19  21   8    24  26  14    28  30  16    32  34  19    29  31  18    21  23  12    15  16   9    11  14   7    14  16   9    22  21  11    54  53  32    76  75  48    51  50  28    26  25  13    15  17  12    29  28  12    78  66  27   119 100  51    75  68  32    26  29  11    19  23   9    22  25   9    30  32  12    43  42  12    60  60  15    64  63  18    51  51  13    38  41  10    41  43   9    66  64   8   105 103  18   122 119  28   112 110  22   114 115  22  
  64  55  22    62  57  24    61  59  28    61  65  30    63  70  34    57  69  31    57  72  33    67  81  42    73  82  43    76  82  44    72  78  43    51  55  28    31  34  16    22  24  12    19  21  10    20  22   9    22  24  10    23  25  12    27  29  15    31  33  19    28  30  16    21  23  11    15  16   8    10  13   6    15  16  10    27  27  16    57  57  36    72  72  45    46  48  25    26  26  13    15  15  10    31  29  11    87  74  31   131 112  57    76  69  29    31  33  13    22  23  10    23  27  11    35  35  15    44  43  13    58  56  14    64  63  19    53  52  15    38  41  10    43  44  11    70  69  12   115 112  27   127 123  31   104 102  12   104 105  11  
  54  49  19    57  55  23    59  59  28    57  61  28    57  65  28    52  62  25    57  69  31    65  76  39    67  75  38    71  78  40    73  79  43    52  57  27    33  36  16    23  26  11    20  22  11    21  23  10    23  25  11    22  24  11    26  28  15    32  34  19    30  32  18    23  25  13    18  20  10    14  16   9    17  19  12    26  26  15    53  53  32    70  70  43    47  49  25    25  25  13    22  19  14    32  31  10    82  69  23   122 104  46    63  57  15    30  32  12    24  24  11    24  27  11    35  35  16    46  45  15    58  56  15    66  65  23    53  51  17    37  40  10    45  46  14    68  66  10   108 105  20   121 118  24   105 103  11   113 113  18  
  48  47  19    53  53  22    61  62  31    63  67  34    57  63  30    49  59  24    56  66  29    60  70  33    62  70  33    73  79  43    70  76  40    53  58  28    39  43  21    31  33  17    24  26  13    21  23  10    21  23  10    24  26  13    29  31  17    34  37  22    32  34  20    24  26  14    19  21  11    16  20  13    19  22  15    22  22  11    48  47  27    73  73  46    55  57  34    27  27  14    26  23  16    34  33  13    80  69  25   115  98  44    58  51  12    31  32  12    26  25  12    24  26  12    34  34  16    47  46  17    62  60  20    69  68  26    53  50  17    36  36   9    46  47  15    69  68  11   102  99  13   117 114  19   107 104  11   116 115  18  
  46  46  18    50  51  20    62  63  31    68  74  40    60  67  33    58  65  30    63  71  36    64  72  35    64  72  35    71  79  42    72  78  42    55  60  30    41  44  21    32  35  16    25  28  14    22  24  11    24  26  13    28  30  17    34  36  22    39  42  25    34  36  22    25  27  14    19  20  11    13  16   9    17  20  13    22  24  13    43  43  23    65  65  38    51  53  30    26  28  14    24  22  12    36  35  16    79  69  32   107  93  48    58  53  21    30  31  14    25  24  11    24  26  12    34  33  15    49  46  18    65  63  24    70  67  28    52  49  18    32  33   6    46  45  15    75  72  16   107 104  17   121 117  21   109 105  11   110 110  10  
  51  51  25    55  55  24    63  62  30    64  69  35    57  64  30    60  67  33    65  71  36    62  69  33    65  73  36    67  75  38    74  80  46    56  61  30    40  43  19    30  33  15    24  26  12    23  25  12    26  28  16    30  32  19    37  39  23    42  44  28    36  38  24    24  27  14    18  19  10    10  13   6    15  18  11    26  28  16    49  49  29    65  66  39    49  51  28    26  28  14    21  21   9    31  31  15    67  57  29    87  73  38    52  46  23    25  27  13    23  24  10    25  27  13    35  35  17    50  46  18    66  62  24    67  63  27    51  48  18    34  35   8    43  42  11    71  68  12   106 104  16   125 121  24   119 116  19   120 121  19  
  61  61  35    65  66  34    66  66  31    62  67  32    59  66  32    64  70  36    61  67  33    62  68  33    73  80  44    73  81  44    73  78  45    56  61  31    41  45  20    32  35  15    25  27  12    22  24  11    24  26  13    30  32  18    37  39  23    42  45  29    37  39  25    25  28  15    18  20  10    15  19  12    15  18  11    25  27  15    59  60  40    83  85  57    61  64  40    28  30  16    24  26  12    26  28  15    52  43  21    65  51  24    41  36  17    20  24  10    24  25  10    27  28  14    37  36  18    50  46  18    65  61  24    63  60  23    51  47  17    38  38  13    43  42  12    73  70  14   112 110  22   130 126  28   121 118  21   117 117  14  
  54  53  25    60  58  28    66  65  33    63  68  34    62  68  34    61  67  33    65  71  37    71  77  41    74  80  44    77  82  47    76  82  46    62  67  37    44  48  27    29  33  18    26  30  16    26  29  15    25  28  14    34  34  21    41  42  26    43  44  26    35  36  20    24  26  14    20  21  14    17  20  10    17  20  11    28  31  19    62  67  47    83  89  63    59  64  41    28  32  17    24  20  11    22  29  14    40  42  17    61  52  26    42  36  21    25  25  12    25  25   9    27  29  12    37  36  19    48  46  22    57  55  19    60  58  22    49  49  18    34  36   5    44  44  13    79  76  22   111 107  19   124 121  17   115 113  11   114 114  11  
  55  55  27    60  59  29    65  64  33    63  67  34    63  69  35    65  71  37    68  74  39    68  74  38    68  75  38    74  80  44    76  82  46    63  68  38    45  49  28    30  34  19    26  30  16    25  29  15    26  28  14    33  34  21    41  42  25    43  44  26    36  37  19    25  27  15    20  21  14    15  17   8    17  19  10    29  32  20    58  62  42    76  80  55    54  57  36    26  28  14    21  19  10    21  26  13    48  45  20    84  71  39    64  55  31    33  31  16    24  26   9    27  29  12    36  35  18    46  44  20    55  53  17    58  56  20    48  47  16    35  37   7    44  44  13    77  73  21   108 104  15   120 117  13   110 108   5   107 107   6  
  50  50  24    54  54  26    59  58  28    61  65  32    62  68  34    65  71  37    69  75  40    68  74  38    67  73  37    72  78  42    72  78  42    61  65  36    41  45  24    29  33  18    25  29  15    22  26  12    26  29  15    33  34  19    42  43  25    44  46  25    36  37  19    25  27  15    20  21  14    15  16   8    18  19  11    27  29  17    48  51  33    63  67  43    44  48  27    21  24  10    17  17   5    19  23  11    54  46  22    98  79  39    72  61  25    31  30  10    24  26  12    27  29  12    35  35  17    43  41  17    53  50  14    56  55  18    46  46  15    37  39  10    46  45  15    75  71  19   106 102  15   119 116  13   109 106   5   106 107   4  
  50  50  24    56  56  27    61  62  30    64  67  34    62  66  33    62  66  33    66  70  37    72  76  41    74  78  43    75  79  44    71  77  42    60  64  35    38  42  21    27  31  17    24  28  14    21  25  11    28  31  16    35  36  21    44  46  27    46  48  27    36  37  19    25  27  14    19  20  13    16  16   9    19  20  14    23  24  15    38  41  24    53  57  33    38  42  21    18  20   9    22  24  12    21  22  13    58  46  21   113  91  46    88  74  30    33  34   9    22  25  10    27  29  12    34  33  16    41  39  15    50  47  13    54  52  16    45  43  15    36  38  10    44  43  13    72  68  18   105 100  15   120 116  15   110 108   7   108 108   8  
  50  52  25    56  56  29    63  64  33    65  68  36    64  68  35    61  65  32    61  66  32    72  76  41    78  82  47    79  83  48    77  83  47    63  68  38    39  43  22    28  32  17    23  27  13    23  27  13    30  33  18    38  39  22    48  49  29    47  49  27    36  37  19    24  25  13    18  19  12    15  16   9    19  19  13    22  23  15    37  40  23    53  57  34    39  43  24    18  21   9    15  16   3    25  25  16    69  55  30   119  94  49    86  71  27    36  34  11    27  29  15    26  28  11    33  32  15    39  37  12    48  45  11    53  51  17    44  43  16    34  36  10    40  39  12    68  64  14   103  97  13   119 115  15   109 106   8   109 108   9  
  44  46  22    48  51  23    57  60  30    63  67  35    66  70  37    64  68  34    60  65  31    68  72  37    75  80  45    79  84  49    79  85  49    63  67  37    39  43  22    26  30  16    20  24  10    20  25  10    28  32  16    40  42  22    50  52  30    47  49  27    35  37  17    24  25  13    17  18  11    13  14   8    15  17  10    21  23  16    42  44  28    57  61  39    42  45  26    20  22  11    20  19   7    21  21  11    55  44  19   101  79  40    76  62  26    32  30  10    23  24   9    25  27  11    33  32  15    38  36  11    47  44  10    53  51  17    44  42  16    35  35  12    41  39  14    68  64  16   103  98  15   118 114  14   109 105   7   109 108  10  
  42  44  20    44  47  20    56  59  29    65  68  36    65  69  36    63  67  34    64  68  35    67  71  36    70  74  39    75  79  44    74  80  44    57  62  32    38  42  21    25  29  14    19  23   9    20  24  10    27  30  13    41  43  22    51  53  31    48  50  28    35  37  17    24  26  13    18  20  11    13  14   8    14  16  10    21  23  16    42  44  28    55  58  36    38  42  23    20  21  12    25  19   9    23  26  12    47  41  15    77  60  27    55  42  17    30  27  10    26  25   9    25  27  10    33  32  15    38  36  11    47  44  11    54  51  19    45  43  18    36  37  14    43  42  17    70  66  18   104  98  16   117 113  15   107 104   8   107 107   9  
  40  42  17    41  44  17    56  59  30    67  70  39    61  65  32    59  63  30    67  71  38    70  74  39    67  71  36    70  74  39    70  76  40    54  59  29    40  44  23    28  32  17    23  27  13    25  29  15    28  32  15    41  43  22    51  53  29    48  50  25    35  37  17    24  26  13    19  21  12    16  15  10    16  15  11    21  21  15    39  39  24    49  51  30    34  35  19    20  20  11    21  13   4    17  19   4    36  34   9    64  51  25    48  39  23    31  25  13    24  21   4    25  27   9    33  32  15    38  36  11    47  44  13    54  52  21    45  43  19    34  35  12    40  39  14    68  63  17   102  97  14   114 110  12   104 101   5   105 105   7  
