P3
50 50
255
  23  31  28    20  30  27    29  41  37    84  99  94   104 117 112    28  38  34     2   6   5     9   9   9    14  15  10    16  17  12     1   1   1     1   1   1    11  11   9    10   9   5    14  14   6    23  23  14    24  24  16    19  19  11    16  16   8    19  19  11    24  24  16    24  23  18    20  19  14    22  21  16    23  26  19    32  34  29    33  35  30    29  31  26    32  34  32    34  39  34    34  39  35    36  40  39    62  72  71    43  50  50    36  42  42    19  33  34    74  97 105   117 145 157   109 137 151    80 107 120    38  58  65    26  43  51    44  63  69    45  69  79    53  86 103    62  99 118    74 109 128   114 146 161    38  68  86    50  84 103  
  31  32  31    30  35  33     8  19  15    31  45  40   124 139 134    82  93  89    14  18  17    12  12  12    18  20  15    14  15  10     4   4   2     3   3   1    11  11   9    13  12   8    14  14   6    20  20  12    22  22  14    19  19  11    19  19  11    20  20  12    23  23  15    23  22  17    18  17  12    21  20  15    23  26  20    38  40  35    39  41  36    29  30  25    26  31  27    30  35  31    30  35  31    30  34  33    47  57  56    44  53  52    34  42  44    21  35  38    50  74  79   111 140 150   124 152 166    87 112 130    47  68  77    17  36  44    39  58  64    89 113 123    48  80  95    63 100 118    49  85 103   109 142 157    75 109 128    60  98 117  
  31  25  27    32  32  32    14  22  19    21  33  29   112 127 122   120 131 127    19  23  22    11  12  12    18  19  14     9  10   5     5   5   3     4   4   2    10  10   8    15  14  10    14  14   6    19  19  11    21  21  13    23  23  15    25  25  17    18  18  10    20  20  12    24  23  18    18  17  12    19  18  13    25  28  21    42  44  39    42  44  39    28  31  26    25  30  26    31  36  32    31  36  32    27  31  30    24  34  33    38  47  47    40  48  50    32  46  49    28  52  55    86 115 122   125 153 167    91 113 135    54  76  88    24  42  52    45  62  70   101 123 134    65  96 111    77 114 132    48  85 101    78 111 126    87 126 145    73 115 134  
  34  32  36    37  39  40    15  22  16    23  33  24   119 131 120   117 126 115    17  20  15    11  12   9    18  18  15     8   8   5     2   2   1     4   4   1    11  10   7    13  12   8    14  13   7    21  19  13    21  20  15    22  22  16    23  22  16    16  16  10    21  21  13    20  20  13    19  18  11    20  19  12    29  31  24    41  43  38    38  42  38    27  33  29    25  31  28    35  40  36    41  43  39    29  31  27    33  39  38    42  51  52    37  52  56    43  61  64    23  43  47    47  70  77   117 143 158    94 122 144    49  69  77    22  41  49    48  70  77    94 116 127    73  99 112    87 118 133    50  85 103    70 107 126    84 115 135    68 110 132  
  34  38  41    27  31  30    23  30  23    57  67  56   102 111  98    69  75  65    14  16  11    14  14  12    13  13  10     9   9   7     4   4   2     4   5   1    10   9   5    13  12   8    17  14   9    21  18  13    19  18  13    21  20  15    22  21  16    18  17  12    25  25  17    20  20  12    20  20  12    22  22  14    25  25  20    38  40  35    33  38  34    22  28  26    21  27  25    30  35  30    37  39  34    26  28  23    32  36  33    45  55  56    44  59  64    50  69  73    40  58  62    35  54  61   107 130 144    84 112 133    45  64  71    21  41  48    36  56  65    78 101 110    69  96 107   108 137 151    58  91 108    90 127 146    97 124 145    61 104 123  
  44  48  47    54  60  56    41  48  40    68  76  65    48  56  46    14  19  12     9  11   8    14  14  14     7   7   5    10  10   8     7   7   4     4   3   1     7   6   2    12  11   6    17  14   9    19  16  11    18  17  12    22  21  16    24  23  18    20  19  14    27  26  21    20  20  12    20  20  12    22  22  14    21  22  16    31  33  28    27  32  28    19  25  23    22  28  26    33  38  34    38  40  35    28  30  25    25  30  26    41  51  52    42  57  60    35  52  56    37  52  55    28  45  52   105 127 141    78 106 127    57  77  84    26  45  52    29  48  54    73  93 102    64  90 102   107 136 150    57  89 107    93 128 146   125 153 174    74 112 130  
 110 118 110    80  88  80    32  39  31    50  56  49    26  31  24     6  10   6     8  10   9     9  10  12    10  10   8    10  10   8     5   6   1     5   3   1     8   7   2    13  10   5    15  12   7    17  15  10    18  17  11    23  22  16    25  25  20    22  20  15    27  26  21    20  19  14    19  19  12    21  21  14    22  23  17    21  23  18    20  25  21    18  24  22    23  29  27    39  44  40    44  46  41    29  31  26    27  32  28    42  52  52    42  55  57    32  45  48    27  39  42    29  43  50   107 129 141    87 114 132    50  71  80    30  48  55    27  44  47    70  90  97    64  91 102    84 116 132    56  89 106    61  94 108   101 133 152    82 116 132  
  64  75  67    37  47  38    39  46  39    52  57  50    18  22  17     9  11   8    11  13  12     8  10  10    13  13  11    10  10   7     6   5   1     7   6   2    13  11   6    15  12   7    16  13   8    21  18  12    17  17   9    21  21  13    23  23  16    20  19  14    27  26  21    22  21  16    21  20  15    23  22  17    25  26  20    21  23  18    26  31  27    23  29  27    20  26  24    34  39  35    40  42  37    26  28  23    28  33  29    42  51  50    31  41  43    26  36  39    22  31  34    28  40  45    92 111 122   109 135 151    51  74  85    38  55  62    23  36  38    57  76  81    80 108 119    74 109 125    65  98 113    42  73  83    97 130 149    84 113 127  
  56  68  61    22  32  26    48  54  49    38  41  37    19  20  18    16  16  14    11  13  11     6   8   6    13  12   9    14  13   9    13  12   8    11  10   6    15  13   8    17  14   9    17  14   7    21  16  10    19  19  11    20  20  12    20  20  11    16  16   8    25  23  18    21  20  15    21  20  15    23  22  17    29  30  24    31  33  28    37  42  38    32  38  36    26  32  30    33  38  34    32  34  29    25  28  23    29  34  28    47  56  55    36  46  48    31  39  42    29  35  38    24  34  37    62  81  89   105 131 144    69  94 107    42  59  66    17  27  28    35  51  54    81 110 122    74 110 128    64  97 110    33  63  70   103 138 157    89 114 126  
  78  91  84    27  38  32    60  66  64    35  37  35    21  21  19    14  14  12    14  16  11     9  11   7    13  12   8    21  20  16    22  21  17    16  14  10    16  13   8    17  14   9    17  12   6    16  11   5    24  24  15    22  22  14    19  19  11    13  13   5    22  21  16    19  18  13    19  18  13    20  19  15    28  29  23    37  39  34    41  46  42    34  40  38    37  43  41    38  43  39    27  29  24    26  28  23    24  31  24    46  55  54    46  54  57    34  39  43    29  33  36    25  34  37    56  73  81    98 124 137    69  95 108    43  58  63    32  41  40    24  39  42    73 103 114    97 135 152    76 110 122    25  53  60    94 129 148    85 108 119  
  87 104  96    37  52  47    57  66  65    27  31  32    17  18  20    14  16  15    12  17  13     7  12   6    19  18  13    22  21  16    22  21  16    18  17  12    15  14   9    11  11   3    11  11   3    16  16   8    22  22  14    25  24  19    17  16  11    17  16  11    21  20  15    19  18  13    20  19  14    22  21  17    25  27  22    44  46  41    30  32  27    36  38  33    42  44  41    32  37  33    23  27  26    23  27  26    28  30  29    36  44  46    42  53  56    43  55  55    27  36  35    25  34  36    60  76  89   117 139 160    76 105 121    39  59  68    29  43  46    35  54  61    75 106 123    90 128 149    89 121 138    29  53  63    80 104 118   109 128 145  
  82  98  90    65  79  74    39  48  47    23  28  28    20  20  23    17  17  17    10  11   8    10  11   6    21  21  16    23  22  17    19  18  13    16  15  10    15  14   9    13  12   7    13  13   6    16  15   8    18  18  10    23  22  17    18  17  12    19  18  13    22  21  16    18  17  12    18  17  12    19  18  14    27  30  24    44  46  41    33  35  30    35  37  32    37  39  36    34  36  33    25  29  25    17  22  20    21  24  23    27  34  37    39  50  52    39  50  50    26  35  34    23  33  36    37  55  65    94 117 134   105 133 150    45  65  74    26  40  43    33  50  57    62  91 105   102 136 156   103 134 148    33  57  67    38  62  73    85 104 118  
  58  72  66    93 105 101    39  49  48    15  22  23    19  21  23    18  18  18    16  13  12    18  15  13    23  22  18    21  20  16    13  12   7     8   7   3     9   8   3    12  11   6    14  13   8    16  15  10    17  17   9    24  23  18    19  18  13    18  17  12    20  19  14    16  15  10    17  16  11    19  18  14    31  33  27    53  55  49    34  36  31    27  29  24    35  37  33    36  38  35    25  27  24    24  27  24    22  26  26    21  26  29    36  45  47    45  55  56    37  47  49    34  47  52    26  44  54    61  84  98   116 143 160    69  90 100    19  33  37    34  52  56    47  72  81    84 114 129    88 116 130    39  63  74    31  57  64    80  98 109  
  38  49  45    89 101  97    65  76  74    15  24  26    16  23  24    16  17  18    13  11  11    19  13  13    20  19  15    16  15  11     7   6   2     1   1   1     4   3   1     9   8   4    12  11   7    13  12   7    17  17   9    24  23  18    18  17  12    16  15  10    17  16  11    15  14   9    17  16  11    18  17  13    25  26  20    51  52  46    32  33  27    21  23  18    35  37  32    39  40  38    25  27  24    32  34  31    30  34  37    19  25  26    25  32  32    41  49  51    34  47  50    43  60  66    34  53  62    44  67  76    99 126 146    85 108 121    22  39  45    32  50  54    31  53  58    66  93 105    63  91 105    59  85  99    27  55  59    60  78  86  
  28  34  32    62  72  71   104 119 116    57  73  72    28  42  42    18  26  25     8  10   9    12  10   8    13  13  10    12  12  10     6   6   4     1   2   1     5   5   1    10  11   6    11  12   7    11  12   7    15  15   7    23  22  17    19  18  13    17  16  11    19  19  14    17  16  11    17  16  11    16  15  11    24  25  19    37  38  32    25  25  20    18  19  14    24  26  21    33  35  31    31  33  30    40  42  39    30  38  41    22  27  28    21  23  24    33  38  41    25  40  45    50  70  79    43  66  72    41  65  69    90 122 145    98 124 141    32  54  62    30  51  54    30  51  56    71  95 106    79 107 121    72 103 122    19  47  51    35  52  60  
  32  36  35    30  39  38    83  98  97   117 137 135    90 109 107    91 106 103    69  78  75    15  18  15     9   9   7    12  12  10     7   7   5     2   2   1     4   4   2     9  10   5    12  13   8    13  14   9    16  16   8    24  23  18    18  17  12    16  15  10    20  19  14    19  18  13    18  17  12    16  15  11    27  28  22    31  32  26    21  22  16    18  19  13    19  20  15    25  27  22    26  28  24    41  43  40    31  41  44    32  35  37    28  30  29    28  33  36    30  45  52    65  88  96    40  63  69    34  55  56    80 114 142   109 141 161    72  99 110    47  71  75    32  53  56    48  73  81   102 131 147    90 126 148    35  62  69    38  55  65  
  39  43  40    36  43  42    41  53  53    58  74  73    31  49  48    99 116 112   115 124 121    17  21  18    10  10   7    11  11   9     7   7   6     2   2   2     1   1   1     6   7   2    12  12   7    16  17  11    20  20  12    24  24  18    18  17  11    13  12   6    18  17  12    18  18  13    19  19  14    18  18  13    26  27  21    35  36  30    26  27  21    22  24  18    26  28  23    25  27  22    15  18  13    33  35  32    37  46  52    41  47  48    38  41  40    22  29  30    36  53  61    73  98 110    33  59  65    28  47  46    72 103 130   103 135 157   105 134 150    62  87  94    36  60  63    34  57  65    99 128 147   110 143 169    49  77  90    40  58  68  
  34  43  38    57  62  60    58  61  62    31  38  39    67  78  78   138 150 148    86  93  93    11  12  11     8   9   4     9   9   7     8   8   8     5   5   5     3   3   1     6   5   1    11  10   5    16  16   8    19  19  11    22  22  14    21  21  13    11  11   3    19  19  12    17  18  12    18  19  13    17  18  12    28  29  23    41  42  36    29  30  25    20  22  17    26  28  23    28  30  27    16  21  17    31  36  32    40  47  53    46  57  59    53  65  61    24  35  30    54  71  78    80 107 124    33  60  70    33  49  46    54  77  98    93 120 141   118 148 166    81 109 121    44  67  74    28  48  58    82 104 123   122 148 173    61  91 111    35  54  65  
  56  66  59    73  81  77    49  54  53    64  73  72   141 154 154   121 135 132    26  36  35     6   9   8     6   7   2     6   6   3     5   5   5     3   3   3     3   3   1     7   6   2    13  12   7    17  17   9    18  18  10    21  21  13    20  20  12    12  12   4    20  20  12    17  18  10    17  18  12    16  17  11    27  28  22    48  48  43    29  30  24    20  22  17    28  30  25    27  29  26    17  22  18    28  33  29    45  53  54    49  60  61    69  81  75    37  46  41    67  83  90   101 128 145    40  66  78    41  58  59    42  64  77    82 108 123   123 152 169   102 129 144    48  72  82    25  46  57    42  65  79    88 116 134    82 110 128    54  74  85  
  85  97  87    65  75  67    55  63  61    79  89  88    87 103 100    73  88  85    16  26  25     5   9   8     9   9   4     6   6   4     3   3   3     2   2   2     2   2   1     6   5   1    11  10   5    15  15   7    19  19   9    21  21  13    21  21  13    15  15   7    24  24  16    19  21  13    19  20  12    18  19  11    39  38  33    59  60  54    27  28  22    20  21  16    32  34  29    29  32  27    22  24  21    21  26  23    37  46  43    52  64  62    74  85  79    41  47  43    62  76  79   101 128 143    50  76  91    48  67  74    39  60  64    50  77  86   119 148 164   124 151 170    62  85 101    37  59  70    27  54  63    60  90 101    71  99 113    64  86  97  
  51  64  53    64  74  65    75  83  78    57  67  64    27  43  40    90 106 103    30  42  37     5   9   8    10  11   6     6   6   4     2   2   2     1   1   1     2   2   1     4   3   1     9   8   3    15  15   7    19  19   9    21  21  11    21  21  11    16  16   8    25  25  17    21  22  14    19  20  12    18  19  11    43  42  37    61  60  55    24  25  19    18  19  13    30  31  26    29  30  25    24  26  23    23  25  22    29  38  33    52  63  62    82  90  88    50  54  49    47  61  61    91 117 130    61  89 103    60  79  91    43  64  65    31  56  63    99 127 143   115 142 161    79 102 118    45  67  80    33  62  70    79 112 121    80 106 121    69  93 107  
  39  51  38    76  85  76    49  55  49    47  56  53    28  42  39    85 100  97    63  73  69     8  11  10     9  10   5     5   5   3     2   2   2     1   1   1     1   1   1     4   3   1    10   9   4    17  17  10    19  19   9    19  19   9    19  19   9    15  15   5    25  25  17    19  20  12    17  18  10    16  17   9    38  38  30    52  51  45    21  22  16    17  18  12    25  26  21    25  27  22    26  28  23    29  31  27    28  38  33    41  51  51    78  83  84    53  55  51    28  39  37    71  98 105    64  92 106    66  86 100    52  71  74    27  51  59    87 116 130   107 134 150    87 111 126    51  75  87    41  69  82    70 104 118   117 142 158    90 117 135  
  60  71  57    86  93  83    51  54  49    29  36  32    16  28  24    65  77  74    85  92  90    19  20  19     9  10   5     5   5   3     3   3   3     2   2   2     1   1   1     3   2   1    10   9   4    19  19  11    20  20  10    20  20  10    19  19   9    16  16   6    26  26  17    20  21  13    17  18  10    17  18  10    37  37  29    42  42  34    19  18  13    17  18  12    24  25  20    29  30  25    28  30  25    31  33  28    34  43  39    37  47  49    66  71  75    67  68  66    27  38  33    55  83  86    71 100 111    63  85  96    58  75  84    26  48  60    89 116 130   127 155 168    94 118 131    46  69  83    53  82  99    93 126 149   115 137 157    75 101 123  
  43  52  45    60  69  58    72  80  67    37  46  35    10  20  15    37  46  46    89  98  96    28  36  33     9   9   9     7   7   6     4   4   4     2   2   1     1   1   1     1   1   1     8   7   3    18  17  12    20  20  12    21  21  13    17  17   8    15  14   7    23  22  16    20  22  15    17  18  11    19  20  13    44  45  38    42  43  37    21  22  16    16  17  11    24  25  19    25  26  21    25  27  22    31  33  28    33  40  36    35  43  42    55  59  60    64  69  68    25  36  35    42  61  64    69  93  99    51  75  82    56  73  81    24  45  51    63  88  97   138 165 182   118 144 161    60  87  99    53  82  95    75 107 125   104 138 163    67  93 105  
  30  39  34    41  51  40    60  71  55    51  61  50    14  22  17    17  25  27    83  93  92    42  53  48     9   9   9     7   7   7     6   6   6     4   4   3     2   2   1     3   2   1    10   9   5    18  17  12    18  18  10    20  20  12    14  14   6    13  12   7    22  21  16    22  23  17    16  17  11    18  19  13    51  52  46    48  49  43    23  24  18    13  14   8    23  24  18    24  26  21    25  27  22    32  34  29    29  35  33    30  36  35    40  44  43    53  59  59    24  34  35    43  58  61    60  81  86    35  60  65    58  75  82    34  55  58    35  60  67   117 143 160   133 161 180    66  95 103    28  57  63    48  76  90   109 141 169    98 120 134  
  30  39  36    44  54  45    57  68  54    68  78  67    14  23  18     9  17  19    66  75  74    53  61  59    12  12  12     9   9   9     7   7   7     7   7   5     6   7   2     6   5   1    10   9   4    16  15  10    19  19  11    20  20  12    14  14   6    15  14   9    26  25  20    25  26  20    18  19  13    19  20  14    37  38  32    44  44  39    25  26  20    15  16  10    24  25  19    24  25  20    23  25  20    30  32  27    32  38  36    29  35  33    27  30  29    40  46  46    27  37  38    48  63  67    70  90  97    41  66  73    44  63  73    48  69  72    27  50  56    80 103 119   122 148 165    59  86  95    11  36  41    38  60  70    96 121 146   135 154 176  
  30  35  34    39  48  39    50  61  47    75  86  75    23  32  27     9  16  18    42  47  48    58  61  60    15  15  15    10  10  10     7   7   5     7   7   5     7   8   3     7   6   2     9   8   3    15  13   8    19  19  10    18  18  10    13  13   5    15  14   9    26  25  20    24  25  19    16  17  11    17  18  12    28  29  23    42  43  37    31  31  26    18  19  13    21  22  16    20  22  17    22  24  19    30  33  28    31  37  35    30  36  34    23  27  25    34  40  38    30  40  40    39  54  59    89 109 118    65  89 100    46  67  79    45  64  68    22  41  47    61  82  97   123 149 167    78 105 115    24  49  53    32  51  56    82 110 125   104 126 145  
  31  35  36    41  48  41    34  44  32    68  80  69    37  47  42     7  12  15    19  21  23    34  35  34    14  14  14     9   9   9     5   5   3     6   6   4     6   7   2     7   6   2    11  10   5    18  17  12    19  19  11    18  18  10    12  12   4    14  13   8    25  24  19    21  22  16    13  14   8    15  16  10    34  35  29    41  42  36    29  30  24    18  19  13    20  21  15    21  23  18    24  26  21    26  28  23    25  31  31    28  34  32    23  28  24    28  34  31    28  38  37    25  40  45    97 117 127    99 122 137    64  86 100    46  65  69    28  45  48    48  67  82   109 138 158    85 118 130    43  70  75    40  60  65    99 133 142    91 118 133  
  27  28  32    50  57  52    31  41  30    51  63  53    50  61  56    15  20  22    16  16  18    12  11   9    12  12  12     8   8   6     5   5   3     5   6   2     5   6   1     7   6   1    12  11   6    18  17  12    20  20  12    19  19  10    13  13   5    15  14   9    24  23  18    20  22  15    14  15   9    19  20  14    34  35  29    33  34  28    23  24  18    19  20  14    22  23  17    24  26  21    25  28  23    18  20  15    22  27  30    29  35  33    23  28  24    23  29  25    25  35  33    20  35  40    78  97 110   120 143 160    72  95 110    47  65  69    49  63  65    44  65  79    92 125 149    92 131 148    60  92 100    39  63  69   130 160 178   113 143 160  
  28  29  33    56  61  57    43  53  42    45  57  47    58  69  65    19  24  27     9   9  11    12   9   8    13  13  13    10  10   8     8   8   6     8   9   4     6   7   2     5   4   1     9   8   3    16  16   8    19  19  11    18  18  10    12  12   4    14  13   8    22  21  16    19  20  14    15  16  10    22  23  17    42  43  37    34  35  29    24  26  19    21  22  16    18  19  13    21  23  18    27  29  24    19  21  16    18  23  26    30  36  34    23  28  24    24  30  26    24  34  33    15  30  35    32  51  65   100 123 141    70  93 109    26  44  46    49  63  64    43  64  81    77 113 139    87 131 150    65 102 113    32  59  68   128 149 180   141 170 193  
  39  50  46    70  82  72    73  83  70    67  75  64    52  57  53    20  22  24    13  13  15    10  10   8    12  13  15    12  12  14     7   7   7     6   6   6     4   4   2     3   3   1    12  13   8    16  14  11    17  16  11    19  18  13    12  11   6    13  12   7    25  24  19    22  21  16    15  14   9    19  18  13    43  44  38    35  36  30    26  27  21    20  22  17    19  22  17    24  25  20    24  26  23    21  23  20    26  32  32    29  35  35    27  33  33    25  34  33    43  53  54    32  46  49    19  35  43    78  97 104    71  97 109    23  43  52    26  33  43    43  70  77    60  96 108    94 120 139    91 125 137    24  54  61    86 114 128   158 184 199  
  56  67  63    73  85  75    76  87  73    88  99  88    45  53  48    14  20  20    11  17  17     9  16  11     8  14  14    18  23  22    15  18  17    12  15  13     5   7   3     1   1   1    11  11   7    13  12   8    20  19  14    23  22  17    16  15  10    15  13   8    24  23  18    21  20  15    14  13   8    20  18  13    32  33  27    29  30  24    24  25  19    18  20  15    17  19  14    19  21  16    21  23  20    20  22  19    25  31  31    35  40  40    29  35  35    30  38  37    44  54  55    30  43  46    26  42  49    69  88  95    57  81  92    35  54  61    28  36  46    34  62  65    45  79  88    67  90 107    94 125 136    43  72  78    72  98 115   148 173 192  
  54  66  62    62  74  64    76  89  74    91 104  91    68  80  73    28  40  38    32  44  42    40  53  47    28  41  36    38  49  45    48  56  52    46  51  47    20  22  19     3   3   2    10   9   5    12  11   7    20  20  13    25  25  18    20  19  13    18  17  11    26  26  19    22  22  15    16  16   9    22  21  15    28  29  23    29  30  24    25  26  20    19  21  16    17  19  14    18  20  15    19  21  18    20  22  19    26  32  32    31  37  37    29  35  35    26  32  32    39  48  49    33  44  47    28  43  48    50  67  74    51  72  79    41  60  66    31  39  48    40  68  72    51  83  90    43  63  76    76 105 114    43  72  79    60  86 103   145 167 190  
  39  53  48    67  82  71    89 105  90    79  94  81    76  91  83    85 101  98    72  88  85    98 114 107    61  78  71    18  32  26    18  27  22    35  40  36    24  25  22     9   8   6     8   7   3    13  12   8    17  17  10    25  25  17    22  22  14    20  20  12    28  28  20    24  24  15    16  16   8    21  21  13    31  32  26    31  32  26    26  27  21    18  20  15    18  20  15    19  21  16    20  22  19    23  25  22    28  34  34    27  33  33    32  36  37    24  30  30    34  42  42    34  44  46    32  46  50    36  52  57    54  73  79    40  59  66    26  37  48    45  74  79    66  96 102    42  59  70    54  83  91    33  63  73    44  72  87   130 153 178  
  21  38  32    71  89  77    86 104  88    53  69  56    43  58  51    98 113 110    83  98  95    55  70  63    90 106  98    21  34  28     1   3   1     8   8   6     9   8   6     9   8   6     8   7   5    10  10   8    18  18  10    26  26  18    24  24  16    21  21  13    28  28  20    23  23  15    14  14   6    17  17   9    32  33  27    33  34  28    25  26  20    17  19  14    18  20  15    20  22  17    22  24  21    27  29  26    25  30  33    29  36  36    31  35  36    27  32  33    31  37  37    27  37  38    45  56  60    30  43  49    61  80  86    51  74  82    28  44  59    41  71  81    61  90  96    47  62  73    47  75  86    34  65  78    35  68  78   111 138 165  
  36  55  49    97 116 104    98 116 100    43  59  46    55  70  63    76  88  86    70  80  79    33  44  38    91 104  95    52  62  54    10  12   7     3   2   1     6   2   1     5   1   1    10   9   7    10  10   8    18  18  10    26  26  18    22  22  14    19  19  11    26  26  18    23  23  15    14  14   6    17  17   9    32  33  27    35  36  30    28  29  23    17  19  14    17  19  14    17  19  14    20  22  19    29  31  28    28  33  35    25  31  31    25  29  30    23  27  26    27  33  33    27  35  37    51  62  64    23  37  39    57  78  83    70  97 106    48  68  85    51  85  95    51  81  89    47  61  72    55  85  96    53  89 105    19  58  63    84 117 142  
  58  77  68   118 137 124   105 122 106    40  56  43    94 107  99    81  91  89    25  33  32    30  38  35    90 100  93    62  69  63     5   7   2     6   3   2    17  14  10     6   3   1     7   6   4    10  12   8    16  16   8    23  23  14    20  20  11    16  16   8    24  24  15    23  23  15    16  16   8    18  18   9    29  30  24    38  39  33    32  33  27    20  21  16    16  18  12    15  17  12    19  21  17    27  28  25    35  39  41    23  28  28    24  27  28    19  23  22    26  33  33    36  45  48    51  62  65    22  35  40    34  54  58    69  94 104    56  79  95    60  92 103    42  69  77    37  52  63    53  82  94    66 101 119    21  59  62    81 115 137  
  64  84  67   113 131 115    99 116 100    54  68  55    57  69  59    87  96  91    22  28  28    17  22  25    74  82  79    68  74  70     8  12   8     8   8   6    10  11   6     7   8   3     4   6   2    12  14   7    14  14   4    22  22  12    24  24  14    18  18   8    20  20  10    23  23  13    17  17   7    19  19   9    22  23  17    34  35  29    29  30  24    20  21  15    18  19  13    17  19  14    21  23  18    23  25  20    37  40  39    32  34  33    27  30  29    21  25  24    26  34  36    40  51  55    50  65  70    28  45  53    25  41  42    57  76  83    55  80  88    60  85  93    33  53  61    30  50  58    50  76  88    81 112 129    32  58  66    77 110 126  
  76  94  77   116 134 118    70  87  71    88 102  89    45  57  47    83  92  87    57  63  63    17  22  25    65  76  72    75  84  79     8  13   9    11  12   9    10  10   5     5   4   1    10  10   6    14  13   8    14  14   5    24  24  15    25  25  16    17  17   9    20  20  12    22  22  13    14  14   5    19  19  10    20  21  15    27  28  22    23  24  18    23  24  18    23  24  18    17  19  14    20  22  17    27  29  24    38  42  40    31  35  34    29  33  32    26  30  29    26  34  36    37  48  52    52  67  72    39  56  64    22  33  34    39  57  61    41  65  73    56  81  88    35  58  64    22  44  51    44  72  81    89 122 135    46  73  83    64  98 117  
  82  99  85   108 126 110    33  51  35    99 115 102    81  94  84    39  49  42    66  72  70    40  44  45    60  72  68    83  94  88    11  17  12    11  13  10    12  11   7     6   2   1    14  11   8    10   8   3    17  17   9    25  25  17    23  23  15    17  17   9    26  26  18    28  28  20    16  16   8    17  17   9    19  20  14    24  25  19    22  23  17    27  28  22    28  29  23    19  22  17    23  24  19    30  32  27    36  40  39    30  34  33    30  34  33    24  30  28    24  32  34    34  45  49    52  67  72    43  60  68    22  28  27    39  54  57    42  63  70    48  73  80    46  70  74    28  53  57    32  61  67    65  98 108    51  79  91    62  97 117  
  80  96  83    97 115 101    31  50  36    70  88  74    89 105  94    19  31  23    28  34  32    32  36  37    36  48  44    87  97  92    29  35  31     3   5   2    11  10   6     9   5   2    11   8   4    10   7   2    14  14   7    22  22  14    21  21  13    18  18  10    29  29  20    31  31  23    18  18  10    16  16   8    17  18  12    25  26  20    23  24  18    26  27  21    29  30  24    23  25  20    24  26  21    27  29  24    33  37  36    29  33  32    30  34  33    23  29  27    26  35  36    41  52  56    58  73  78    43  60  68    24  29  25    43  54  56    48  68  75    32  57  64    35  58  64    40  64  68    46  73  78    53  86  93    56  86  98    36  73  92  
  87 103  91   102 120 106    54  76  61    63  84  69    77  95  83    40  53  44    13  19  16    20  24  24    14  25  21    77  85  80    60  65  61     9  10   7    10  10   5     9   8   4     5   5   1     9   9   4    11  11   3    17  17   9    20  20  13    19  19  10    24  24  16    28  28  20    18  18  11    15  15   7    15  16  10    24  25  19    22  23  17    24  25  19    27  28  22    23  25  20    23  25  20    23  25  20    30  35  34    27  31  30    30  34  33    27  33  31    33  41  43    47  59  63    62  77  82    45  64  70    28  33  30    40  54  56    60  81  91    37  62  72    37  59  68    46  68  75    58  81  89    56  84  93    59  92 102    29  67  84  
  71  85  75    84 102  88    80 101  86    77  99  83    84 103  91    62  75  66    19  25  21    16  18  17     9  16  14    39  44  40    73  76  73    27  27  25     8   9   4     4   5   1     5   6   1     7   9   2    17  17   9    15  15   7    19  19  11    18  18  10    21  21  13    29  29  21    22  22  14    13  13   5    16  17  11    23  24  18    21  22  16    25  26  20    29  30  24    24  26  21    23  25  20    24  26  21    29  34  33    24  28  27    28  32  31    31  37  35    35  45  46    43  57  60    57  73  78    42  61  68    26  34  31    39  53  56    66  88  99    52  78  90    61  83  95    45  64  74    39  58  68    50  71  84    64  99 107    27  66  82  
  60  73  64    69  90  77    90 110  98    53  68  57    55  68  58    75  90  80    33  44  38    10  14  11     6  11  10    10  15  13    48  52  48    46  49  46     8  10   6     1   2   1     8   9   4     5   7   2    15  13   7    19  17  11    20  18  12    17  16  10    20  20  14    29  28  23    25  26  19    15  16   9    18  18  11    24  24  17    22  23  15    32  34  27    35  37  30    22  25  20    23  25  20    25  28  23    33  39  35    30  34  31    28  32  31    26  32  30    35  43  45    47  59  63    53  70  76    40  59  68    23  35  30    34  46  46    63  88 103    54  78  92    61  84  93    40  63  71    22  33  38    43  55  66    57  88 101    28  66  76  
  64  77  67    60  82  70    79  99  88    40  51  43    22  32  24    61  77  69    51  64  57    12  17  12     8  12  11     6  10   9    24  26  24    54  56  53    30  32  30     7   8   4     4   5   1     5   6   1    13  10   5    19  16  11    22  19  14    17  16  11    18  17  12    26  25  20    26  27  21    16  17  11    17  17   9    24  24  16    21  22  14    28  29  23    30  34  27    22  24  19    21  23  18    27  29  24    37  41  39    38  43  39    31  35  34    23  29  27    42  50  52    52  63  67    61  76  83    53  72  80    24  35  29    29  39  38    67  94 110    59  82  97    50  74  84    48  75  83    18  30  30    25  37  46    31  60  76    29  66  74  
  77  90  80    74  96  83    66  86  75    28  39  31    18  28  20    62  77  70    60  73  66    13  18  14    12  14  13     9  11  10     7   9   6    39  39  37    39  39  37    13  12   8     4   3   1    11  10   6    14  11   6    16  13   7    21  18  13    17  16  11    14  13   7    23  22  16    26  27  21    16  17  11    19  19  11    23  23  15    20  21  13    18  19  13    25  28  21    25  27  22    19  21  16    28  30  25    32  36  35    41  45  44    32  36  35    23  28  27    48  56  58    44  55  59    61  75  82    58  75  83    27  38  34    27  36  35    59  85 100    64  90 103    60  89  97    64  95 105    19  35  35    34  51  58    29  58  74    40  77  85  
  66  79  68    73  95  82   108 128 116    88  99  91    28  38  30    43  58  52    56  68  62    23  27  26    13  15  14    10  10  10     7   7   5    15  15  13    18  17  15    10  10   5     8   7   3    12   8   5    14  11   4    14  10   4    20  17  10    17  17   9    11  11   3    19  19  11    25  27  19    17  18  10    22  22  14    21  21  13    22  23  15    18  19  13    27  30  23    30  32  27    18  20  15    28  30  25    33  37  35    43  47  46    40  43  42    31  35  34    52  60  59    37  48  50    57  70  76    50  67  73    30  38  38    25  34  33    52  78  90    76 103 114    79 108 120    65  99 113    21  41  43    29  51  56    58  87 104    54  91  99  
  69  83  70    75  97  83   107 127 115   106 117 109    59  69  62    41  56  49    32  44  40    50  54  53    27  30  29    10  12  11    11  12  10     5   6   4     8   8   6    12  12   7     7   7   2     6   6   1    15  12   5    14  11   4    21  18  11    19  19  11    12  12   4    17  17   9    24  25  17    20  21  13    22  22  14    19  19  11    23  24  16    21  22  16    30  33  26    35  37  32    21  23  18    26  28  23    30  34  33    39  43  42    39  43  42    32  36  35    47  53  53    35  45  47    54  66  71    45  60  66    34  42  45    28  36  35    44  68  79    84 110 121    95 123 139    64  96 115    32  50  55    22  44  48    66  95 113    75 112 120  
  65  79  66   102 124 109   118 138 126    93 104  96    60  69  64    52  67  60    21  33  29    32  36  36    38  44  42    15  20  18     8  12   8     6  10   6    25  27  24    18  20  15     3   5   1     6   8   3    15  12   5    17  14   7    22  19  12    20  20  12    14  14   6    17  17   9    22  23  15    23  24  16    19  19  11    19  19  10    23  24  15    20  21  15    27  30  23    39  41  36    30  32  27    23  25  20    27  33  31    39  43  42    36  40  39    27  31  30    41  47  47    38  48  50    49  60  64    45  59  65    36  43  48    38  43  43    36  61  69   101 125 136   126 151 171    79 107 130    30  44  53    21  37  42    69  98 116    71 108 116  
  65  79  66    85 108  92   137 157 145   123 134 126    40  49  44    43  58  53    44  56  52    15  19  20    29  35  33    21  27  25     7  13   9    16  22  18    52  57  53    28  33  27     1   3   1     6   8   3    15  12   5    20  17  10    23  20  13    20  20  12    17  17   9    17  17   9    21  22  14    26  27  19    17  17   9    22  22  14    23  24  16    16  17  11    23  26  19    44  47  42    42  44  39    23  25  20    23  29  27    41  45  44    32  36  35    20  25  23    37  43  43    40  48  50    36  47  51    39  52  58    35  42  48    36  42  42    26  49  57    99 121 132   125 147 168    98 122 148    45  55  65    26  39  45    57  86 104    37  74  82  
