P3
50 50
255
  23  23  15    22  22  14    21  21  13    23  23  15    23  23  15    22  22  14    26  26  18    30  30  21    30  30  20    29  29  19    33  30  21    35  32  23    34  31  22    31  28  19    31  28  19    32  29  20    30  28  19    27  27  19    28  26  17    29  26  17    29  27  15    32  30  18    37  33  22    39  35  24    39  35  24    38  34  23    36  34  22    36  34  22    34  32  20    32  30  18    37  34  25    40  37  27    43  41  29    43  40  26    44  41  24    60  58  39    71  67  48    84  77  59    80  73  55    64  57  39    63  56  40    69  62  45    66  59  43    54  50  33    53  50  33    49  46  29    41  39  24    38  36  21    38  36  21    41  39  24  
  19  19  11    18  18  11    21  21  13    23  23  15    23  23  15    22  22  14    25  25  17    29  29  21    26  26  17    24  24  14    27  24  15    29  26  17    31  28  19    32  29  20    34  31  22    32  29  19    27  25  16    26  26  18    27  25  17    26  23  14    27  25  13    31  27  16    36  32  20    35  29  18    31  27  16    29  25  14    30  26  15    35  33  21    36  34  22    31  31  19    34  32  22    31  29  19    38  36  24    43  40  26    38  35  20    48  43  26    57  51  34    66  61  42    64  58  41    53  47  31    49  43  27    45  40  25    48  42  28    50  45  31    49  46  31    41  38  23    37  35  20    43  41  27    41  39  26    34  32  19  
  21  21  13    19  19  11    22  22  14    21  21  13    24  24  16    22  22  14    21  21  12    22  22  14    20  20  12    22  22  12    18  15   6    21  18   9    24  21  12    25  22  13    28  25  16    27  24  14    24  22  14    26  25  19    27  25  17    26  23  14    27  23  12    31  27  16    38  33  21    37  31  20    33  26  16    29  25  14    31  28  17    34  32  20    35  33  21    33  33  21    29  29  18    28  27  15    35  33  20    42  38  26    40  37  22    47  41  27    49  44  29    48  45  28    47  45  27    43  40  25    39  36  21    37  33  21    40  36  24    40  36  24    47  43  31    44  40  28    33  30  18    35  33  21    37  35  23    34  32  20  
  24  22  13    19  19  10    19  19  11    20  19  13    23  22  15    20  20  12    17  17   9    15  15   7    15  15   7    20  20  10    15  12   3    21  18   9    23  20  11    20  17   8    20  17   8    24  21  12    26  23  16    23  23  16    24  22  15    24  21  12    25  21  10    29  25  13    37  31  19    41  34  24    37  30  20    36  29  19    38  34  23    36  33  21    31  30  17    32  32  19    33  34  20    35  35  21    33  31  18    32  28  16    34  31  19    44  38  26    42  37  23    44  41  25    43  40  25    38  34  21    31  27  15    37  33  22    37  33  22    36  32  21    38  34  23    31  28  17    27  25  13    28  26  14    29  27  15    35  32  23  
  27  24  15    29  26  17    29  26  17    25  22  13    24  21  12    20  20  10    19  19   9    19  19  10    17  17   9    19  19  11    19  19   9    16  16   6    20  20  10    22  22  12    24  24  14    22  22  12    21  19  10    25  20  14    24  20  12    25  21  12    26  22  11    27  23  12    28  24  12    27  23  12    29  27  15    33  31  19    30  29  17    31  29  17    34  32  20    33  33  21    30  30  18    28  28  16    30  29  17    26  24  12    26  24  12    34  32  20    37  34  23    37  33  24    38  34  25    38  35  26    35  32  24    31  28  19    31  28  19    34  34  16    27  28  10    30  28  16    27  24  16    29  24  18    32  28  20    35  31  20  
  23  20  11    24  21  12    24  21  12    23  20  11    25  22  13    21  21  13    20  20  12    21  21  13    19  19  11    22  22  14    22  22  12    19  19   9    21  21  11    21  21  11    22  22  12    20  20  10    18  17   8    21  18  11    21  18  11    22  19  10    24  21  12    25  23  11    25  23  11    25  23  11    28  26  14    28  26  14    25  23  10    25  23  11    27  25  13    27  27  15    27  27  17    24  24  14    24  24  14    22  20  11    24  21  12    29  26  17    30  26  17    31  27  18    31  27  18    31  28  19    29  26  17    27  24  15    27  24  15    28  28  15    30  30  18    37  35  23    30  27  18    27  24  15    28  25  14    29  27  15  
  18  15   8    18  15   8    18  15   8    18  15   8    22  19  12    19  19  11    18  17  12    19  18  13    18  17  12    21  19  14    19  19  12    17  17   9    17  17   9    16  16   8    17  17   9    17  17   9    15  14   7    16  15  10    16  15  10    18  18  10    20  20  12    21  21  11    22  22  12    23  21  12    25  22  13    24  21  12    23  20  10    23  20  11    21  20  10    19  19   9    22  22  12    19  19   9    20  20  10    21  19  10    24  21  12    24  22  13    23  20  11    26  22  13    23  20  11    23  20  11    23  20  11    22  19  10    25  22  13    25  21  15    23  20  15    23  23  14    22  22  12    23  23  11    20  20   8    22  22  10  
  20  17  12    18  15  10    17  14   9    17  14   9    19  16  11    16  15  10    15  14   9    15  14   9    14  13   9    17  16  12    16  14   9    13  12   7    12  11   6    12  11   6    14  13   8    16  15  10    14  13   8    14  15   9    14  15   9    16  17  11    17  18  12    18  19  11    18  19  11    20  18  10    22  19  10    24  21  12    26  23  14    25  24  14    20  20  10    15  15   5    19  19   9    18  18   8    19  19   9    20  20  10    24  21  12    23  20  11    22  19  10    24  20  11    21  17   8    20  17   8    21  18   9    22  19  10    25  23  14    26  24  18    20  18  11    16  16   6    21  23  10    24  25  12    23  23  12    29  27  17  
  23  20  15    20  17  12    18  15  10    18  15   8    20  17  10    18  17  12    15  14   9    14  13   8    13  12   7    16  14   9    16  14   9    13  12   7    13  12   7    12  11   6    14  13   8    17  16  11    15  15  10    14  15   9    13  14   8    14  15   9    15  16  10    15  16   8    15  16   8    17  15   6    19  16   7    22  19  10    23  23  13    24  24  14    20  20  10    16  16   6    15  16   8    18  18  10    20  20  12    20  20  13    21  21  13    20  20  12    23  21  13    24  21  12    21  17   8    20  17   8    21  18   9    21  21  11    25  25  15    26  25  13    25  23  11    21  21   9    23  24  12    25  24  12    27  23  12    30  23  13  
  21  18  11    18  15   8    17  14   7    17  14   7    21  18  11    18  18  10    15  15   7    13  13   5    12  12   4    14  14   8    18  18  10    15  15   8    15  15   7    12  12   5    14  14   6    16  16   8    15  15   7    15  15   7    15  15   7    16  16   8    16  16   8    15  15   7    14  14   6    16  14   6    16  13   6    15  15   7    18  18  11    20  20  12    18  18  11    17  17   9    12  13   5    17  18  10    19  19  11    19  19  11    17  17   9    17  17   9    21  20  12    22  19  10    20  16   7    20  17   8    19  19   9    21  21  11    23  23  13    23  22   7    24  24   8    21  23  10    21  21  10    31  27  12    44  37  16    43  32   6  
  21  18   9    21  18   9    21  18   9    20  18   7    23  20  10    19  19   9    17  17   7    15  15   5    14  14   4    17  17   7    21  21  11    19  19   9    19  19   9    16  16   6    15  15   5    16  16   6    16  15   5    21  18   9    21  18   9    22  19  10    22  19  10    20  17   8    19  16   7    19  15   8    15  15   7    16  16   8    19  19  11    18  18  10    17  17   9    17  17   9    14  15   7    18  19  11    18  18  10    17  17   9    15  15   7    14  14   6    18  17  10    21  18  11    18  15   8    20  17  10    19  19  11    19  19  11    21  21  13    24  23  10    24  24  12    21  22  14    23  22  12    42  37  15    92  81  43   125 109  59  
  26  24  12    28  26  15    31  29  17    26  23  12    27  24  12    24  24  13    21  21   9    19  19   7    19  19   8    22  22  12    24  24  14    22  22  12    23  23  13    21  21  11    19  19   9    20  20  10    20  19   9    26  22  11    26  22  11    27  23  12    28  24  13    26  22  13    25  21  12    22  18  11    19  19  11    20  20  12    23  23  15    21  21  13    17  17   9    15  16   8    17  18  12    19  20  14    17  17  11    17  15  10    15  14   9    12  11   6    17  15  10    20  17  10    19  16   9    19  19  11    20  20  12    19  19  11    19  19  11    20  20   9    19  19  11    22  22  20    23  21  13    44  36  10   133 119  68   219 200 132  
  29  25  13    31  27  15    34  30  18    35  30  18    35  29  17    32  28  16    30  26  15    27  24  13    26  23  13    27  24  15    27  26   8    28  25  10    27  25  11    27  25  12    27  25  13    23  21   9    24  21  10    28  24  13    29  25  14    26  22  11    26  22  11    29  25  14    27  23  12    23  20   8    22  20   8    22  20   8    23  21  10    23  22  12    20  20  11    17  17   9    22  19  10    20  17   8    21  18   9    23  20  10    21  18   9    21  18   9    21  19   9    20  21   7    18  19   5    20  18   6    21  19   7    23  21  10    26  24  12    22  22   9    23  23  11    20  18   6    26  21   7    34  27   5    54  46  13   104  97  56  
  32  28  16    33  29  17    33  29  17    35  29  16    36  30  16    34  30  18    31  27  15    29  26  14    29  27  15    30  28  16    28  26   9    34  32  17    33  31  16    32  30  17    33  31  18    29  27  14    26  23  12    29  25  14    27  23  12    27  23  12    26  22  11    25  21  10    26  22  11    27  24  12    25  23  11    23  21   9    22  19   8    21  18   9    19  18   8    18  18  10    20  18   6    21  18   6    23  21   9    23  21   9    22  20   8    23  21   9    24  23  10    23  24  10    24  23  10    26  24  12    27  25  13    25  24  12    25  23  11    25  25  11    28  26  14    26  24  12    31  27  13    39  33  13    41  35   5    42  36   1  
  39  35  23    39  35  23    37  33  21    40  34  20    43  37  21    39  37  22    35  32  17    32  29  14    31  28  13    33  30  15    33  30  13    41  38  22    40  37  22    38  35  20    40  36  24    34  30  18    30  26  15    32  28  17    28  25  13    30  26  15    29  24  14    26  22  11    28  24  13    28  25  13    28  26  13    26  24  12    23  21   9    21  19   8    20  17   8    19  19   9    21  19   7    23  21   9    26  24  12    25  22  11    22  20   8    24  22  10    27  25  14    26  25  13    27  25  13    29  27  15    29  27  15    28  26  14    26  24  12    29  26  14    30  26  14    36  32  21    34  30  18    32  26  10    37  33   9    41  36   7  
  40  37  22    41  37  25    39  35  23    42  39  23    45  42  25    43  40  23    38  35  18    35  32  15    35  32  15    35  32  15    37  34  17    42  39  22    39  36  20    37  34  19    38  35  20    36  33  18    33  30  16    34  30  18    33  29  17    35  31  19    35  31  19    33  29  17    34  30  18    31  27  15    30  26  14    30  28  15    28  26  14    25  23  11    22  20  10    22  19  10    26  24  12    26  24  12    27  25  13    25  23  11    22  20   8    23  21   9    26  24  12    27  25  13    25  22  11    24  22   9    26  24  11    30  27  14    32  28  16    34  29  15    30  23  11    32  25  15    32  26  15    28  24  11    33  30  13    37  34  15  
  34  31  16    35  32  17    36  32  19    39  35  20    41  38  21    39  37  19    37  34  15    39  34  15    40  35  17    41  36  17    44  38  22    41  35  19    37  31  15    37  30  15    36  30  14    36  30  14    37  31  16    33  29  17    35  31  19    35  31  19    36  32  20    38  34  22    37  33  21    33  30  16    34  30  18    34  30  18    31  29  16    28  26  14    25  23  11    25  23  11    30  28  16    28  25  14    27  25  13    26  24  12    24  22  10    23  21   9    25  23  11    27  25  13    23  21   9    22  20   7    25  23  10    31  27  16    34  30  17    35  30  16    33  27  13    25  20   8    23  19   8    29  25  13    31  27  15    28  25  10  
  34  31  16    33  30  15    34  31  16    38  35  18    39  36  19    37  34  17    36  30  14    38  33  15    40  35  17    39  34  15    44  38  20    39  33  17    37  32  14    41  36  17    39  34  15    37  32  13    36  32  14    29  27  14    32  30  17    31  29  16    32  30  17    35  34  20    34  32  19    38  35  20    39  36  21    36  32  18    32  28  16    29  27  14    28  26  14    28  26  14    30  28  16    28  25  14    28  26  14    29  27  15    28  26  14    27  25  13    27  26  13    28  26  14    26  23  11    26  24  11    30  26  14    33  30  15    34  31  16    36  33  18    36  33  18    27  24   9    25  21   9    27  23  11    27  23  11    38  34  22  
  43  40  25    40  38  23    40  37  22    41  38  23    41  38  23    37  33  18    36  30  13    39  33  17    42  35  19    38  31  15    39  34  15    40  35  16    43  38  19    51  46  27    51  46  27    44  39  19    37  33  15    31  29  16    31  29  16    31  29  16    31  29  16    32  30  17    32  30  17    39  36  22    39  36  21    36  32  18    33  29  17    31  28  16    29  27  15    29  27  15    30  28  16    29  27  15    30  28  16    30  28  16    30  28  16    30  28  16    32  30  18    30  28  16    28  26  14    30  26  14    34  30  18    35  33  18    34  31  15    37  35  19    34  32  17    28  26  11    31  28  13    29  26  11    24  19   6    35  29  17  
  51  48  33    49  46  31    46  43  28    43  40  27    41  37  25    37  34  19    37  31  17    43  37  22    46  39  23    42  35  19    35  30  11    42  37  18    50  45  26    60  55  36    62  57  38    49  44  24    39  35  17    36  34  21    32  31  17    33  31  18    33  31  18    30  28  15    33  31  18    37  34  20    37  34  19    36  33  18    35  32  17    34  31  19    31  29  16    28  26  14    30  28  15    31  30  16    33  31  18    31  30  16    29  27  14    32  30  17    35  33  20    31  29  17    28  26  14    30  26  14    34  31  16    37  34  18    36  33  16    31  31  14    34  35  19    36  34  19    29  27  10    29  25   9    35  29  15    44  36  23  
  55  50  31    59  52  33    59  51  32    56  48  27    54  46  25    47  40  22    44  37  18    43  37  18    42  37  18    45  40  22    37  36  18    36  33  16    41  37  19    51  46  26    66  60  41    72  66  44    65  57  38    48  42  26    43  39  23    45  42  25    40  37  22    37  34  19    31  28  13    29  27  13    32  29  17    34  32  19    32  30  17    31  29  16    32  30  17    32  30  17    31  27  15    35  30  19    33  30  17    32  30  17    34  32  19    29  30  16    29  30  16    31  29  17    28  26  14    32  29  17    36  34  21    37  35  22    35  33  19    37  35  20    43  40  25    45  42  27    40  37  22    32  29  14    32  29  14    43  40  25  
  53  47  28    61  54  36    67  60  41    63  55  36    66  59  40    60  53  33    46  39  20    42  36  17    40  35  16    37  32  13    37  34  17    39  35  18    46  41  22    46  41  21    46  41  22    49  44  24    50  43  25    44  38  22    41  38  21    41  38  23    38  35  20    40  37  22    34  31  16    32  28  15    35  32  19    37  33  21    35  31  19    34  30  18    34  30  18    34  30  18    42  39  24    38  35  20    31  29  15    31  29  16    33  31  18    28  29  15    27  27  13    30  28  16    31  29  17    33  31  18    32  30  17    32  30  17    36  34  21    39  37  22    39  36  21    35  32  17    34  31  16    34  31  16    33  30  15    37  34  19  
  39  33  17    43  38  19    48  42  24    47  41  22    51  44  26    52  46  27    47  42  23    43  38  20    44  38  22    50  44  28    51  46  27    45  40  22    45  40  21    40  36  19    34  31  14    35  32  15    38  35  18    38  35  18    38  35  19    36  33  18    36  33  18    41  39  24    37  35  20    35  32  17    39  35  20    40  37  22    39  36  21    39  36  21    40  37  22    40  37  22    47  44  27    42  39  22    36  34  18    35  33  19    32  30  17    28  26  14    28  26  14    28  26  14    31  29  16    32  30  17    30  28  15    29  27  14    35  33  20    35  32  18    36  33  18    35  32  17    33  30  15    31  28  13    32  29  14    38  35  20  
  37  34  19    38  32  16    38  32  16    37  31  15    39  34  18    41  35  19    43  37  21    42  36  20    43  37  21    51  48  31    55  48  29    49  43  24    47  41  24    41  37  20    36  34  19    38  36  21    39  37  23    35  32  17    35  32  17    35  32  17    35  32  18    37  35  22    36  34  21    38  33  18    42  36  19    44  38  22    44  38  22    45  39  23    47  40  25    46  40  24    43  40  21    44  41  22    44  41  25    40  38  23    33  30  17    29  27  15    32  30  18    30  28  15    28  26  13    29  27  14    30  28  15    31  29  16    33  31  18    31  28  16    36  32  20    39  34  23    35  31  19    32  28  16    33  29  17    40  36  24  
  38  35  20    39  36  21    37  34  19    36  33  18    39  37  22    37  34  19    32  29  14    35  32  17    37  34  19    40  37  22    38  33  13    45  39  21    47  42  26    37  35  19    34  32  19    36  37  23    38  38  23    35  32  17    33  30  15    37  33  20    34  32  19    32  30  17    32  30  17    37  32  17    42  36  19    44  38  22    43  37  21    44  38  22    44  38  22    43  37  21    36  33  14    40  36  17    42  39  21    42  39  24    36  33  20    33  29  17    36  32  20    31  29  16    27  25  12    28  26  13    31  29  16    32  30  17    31  29  16    33  29  17    34  30  18    32  28  16    34  30  18    38  34  22    35  31  19    32  28  16  
  30  28  15    34  32  19    32  30  17    32  30  17    32  30  17    28  26  13    28  26  12    31  28  13    33  30  15    36  33  18    31  28  13    36  33  18    37  34  19    31  28  13    32  30  17    37  35  22    36  33  21    37  33  21    34  30  18    35  33  20    32  30  17    28  25  13    29  27  15    34  31  16    37  34  17    38  35  18    37  34  17    36  33  16    35  32  15    33  30  13    32  31  13    32  30  12    33  30  13    37  34  17    39  36  19    36  33  18    36  33  18    32  29  14    30  27  12    31  28  13    31  27  15    30  26  14    31  27  15    32  29  17    30  28  15    26  24  11    30  28  15    37  35  22    33  31  18    25  23  10  
  30  28  15    35  33  20    35  33  20    33  32  20    26  26  15    25  23  11    28  26  13    28  25  13    25  22   8    32  29  14    31  31  17    28  26  13    27  25  12    28  26  13    33  31  17    38  35  20    37  33  19    38  34  22    34  31  19    32  30  17    29  27  14    26  24  12    29  27  15    31  29  15    33  30  15    34  31  16    33  30  15    33  30  15    31  28  13    28  25  10    31  29  14    30  28  12    29  26   9    33  30  13    40  35  17    40  35  16    37  33  15    33  30  15    33  30  15    33  30  15    31  27  14    28  24  12    30  26  14    28  26  13    30  29  17    30  28  16    30  28  16    33  31  19    32  30  18    31  29  17  
  30  28  16    35  33  21    35  33  21    31  30  18    32  32  19    30  29  18    29  27  15    30  28  15    29  26  13    31  27  15    23  24  14    23  23  11    30  29  16    32  30  17    33  30  15    36  33  18    40  35  20    39  35  23    35  32  20    28  26  13    26  24  12    27  25  13    30  28  16    28  26  12    29  27  12    30  28  13    30  28  13    32  30  15    31  29  14    28  26  11    30  28  15    33  30  15    32  29  13    33  30  11    38  34  14    40  35  15    38  34  15    34  31  15    33  30  15    33  30  15    32  28  16    30  25  14    30  26  14    29  27  15    32  30  19    33  31  19    31  29  17    34  32  20    35  34  22    37  35  23  
  39  36  21    36  34  19    37  37  22    39  38  26    39  37  25    35  33  21    37  35  23    38  36  24    31  30  18    29  29  17    28  29  15    28  29  15    30  31  17    34  35  21    32  30  17    30  28  16    35  34  22    36  34  22    35  33  21    28  25  13    25  23  10    30  28  15    28  26  13    27  26  14    33  33  21    35  34  22    30  28  16    28  25  12    31  27  15    33  30  15    34  32  19    31  29  16    32  30  17    32  30  17    32  30  17    32  30  17    31  30  17    34  32  20    33  31  18    30  28  15    32  30  16    39  37  22    36  34  19    31  31  17    28  29  15    32  33  19    28  29  15    29  30  16    31  32  18    30  31  17  
  40  37  22    37  35  20    37  37  23    36  35  23    40  39  27    39  37  24    36  34  22    43  41  29    45  42  31    40  38  26    35  33  20    35  34  20    36  34  21    38  36  23    37  35  22    36  34  22    41  38  26    44  40  28    42  38  26    38  36  23    35  33  20    33  31  18    31  29  16    30  29  17    29  29  17    31  29  17    34  32  19    35  32  19    35  30  19    36  32  20    33  31  18    33  30  18    32  30  17    31  29  16    31  29  16    32  30  17    35  33  20    37  35  23    36  34  22    39  38  24    40  38  25    42  40  25    46  44  29    42  40  26    39  37  24    37  34  22    34  32  19    40  38  25    35  33  20    29  27  14  
  61  58  43    47  45  31    47  47  33    46  45  33    41  39  27    37  35  23    42  40  28    43  41  29    42  40  28    48  46  34    43  39  27    36  32  20    42  38  26    49  45  33    41  37  26    40  36  25    53  49  37    55  51  39    50  46  34    48  44  32    44  42  29    40  39  27    40  40  28    44  43  31    40  38  25    33  31  18    35  33  20    40  37  25    42  38  26    41  37  25    37  35  20    40  39  24    40  38  23    42  40  25    44  42  27    44  42  27    48  46  31    46  44  31    44  42  29    49  47  34    47  44  32    45  43  29    49  47  32    52  49  36    53  49  37    45  41  29    41  37  25    48  44  32    41  37  25    39  35  23  
  78  76  61    58  57  44    45  46  32    38  37  24    38  36  24    35  33  21    35  33  21    40  38  26    43  41  29    47  45  34    54  49  38    50  46  34    48  44  32    46  42  31    41  37  26    38  34  23    41  36  24    43  39  24    41  37  24    43  39  27    44  42  29    45  45  32    48  48  36    58  57  44    60  58  45    52  50  37    41  38  25    45  41  29    48  44  32    43  38  26    54  51  36    57  54  39    52  49  34    53  50  35    54  51  36    48  45  30    45  43  28    41  39  26    41  39  26    44  42  29    44  42  29    48  46  33    50  48  35    51  48  35    54  51  39    57  53  41    57  53  41    58  54  42    48  44  32    49  44  32  
  71  70  55    56  57  43    52  53  39    45  46  33    43  43  31    40  40  28    42  40  28    45  43  31    47  45  33    51  48  37    53  49  37    51  47  35    46  42  30    42  40  28    45  44  32    48  46  34    44  41  29    42  38  26    41  37  25    40  38  25    43  41  28    45  43  30    43  41  28    40  36  24    44  40  28    49  45  33    40  36  24    45  41  29    50  46  34    48  44  32    52  49  34    53  50  35    49  46  31    53  50  35    59  57  42    55  52  37    50  47  33    45  43  30    46  44  31    48  46  33    47  45  32    51  49  36    54  52  39    55  51  39    49  45  33    49  45  33    49  45  33    50  46  34    52  48  36    58  54  42  
  71  72  58    57  58  44    56  57  43    59  60  46    54  55  40    50  51  37    56  55  41    55  53  40    50  47  35    56  52  40    63  61  48    55  53  40    49  47  35    44  43  31    46  46  34    50  52  39    48  49  37    41  41  31    39  38  26    39  37  25    48  46  33    58  55  40    61  58  43    56  53  38    57  54  39    62  59  44    50  47  33    48  44  32    48  46  33    52  50  37    60  57  42    57  54  39    52  49  34    53  50  35    61  58  43    59  56  41    53  50  35    54  52  37    54  52  38    57  55  42    53  51  38    51  49  36    58  56  43    60  57  45    54  50  39    56  52  41    56  52  41    60  56  45    62  58  47    61  57  46  
  85  86  72    85  86  72    76  76  63    64  65  51    64  65  51    63  64  50    66  64  51    70  67  55    68  64  52    65  61  49    62  62  50    61  61  49    55  56  44    51  53  40    59  63  49    63  66  55    55  58  49    49  51  43    41  42  32    44  43  31    57  53  40    68  62  46    73  66  48    72  66  51    70  64  50    70  64  50    53  50  36    52  48  36    53  50  37    56  54  41    56  53  38    56  53  38    58  55  40    58  55  40    67  64  49    70  67  52    59  56  41    53  51  36    50  48  33    53  51  37    54  52  39    57  55  43    62  60  48    62  60  48    65  64  52    63  61  49    53  50  39    57  55  43    60  57  46    56  54  42  
  70  72  58    80  81  68    91  91  79    86  87  73    80  81  67    80  80  67    89  87  74    89  86  74    82  78  66    81  77  65    72  72  60    67  67  55    68  70  57    66  70  56    61  67  53    59  65  54    55  61  51    51  55  49    48  50  42    60  60  48    75  72  57    80  73  56    80  72  53    77  71  54    79  73  58    78  72  58    57  53  39    60  56  44    60  57  44    52  50  37    51  48  33    57  53  38    63  60  45    59  56  41    64  61  46    67  63  48    58  55  40    62  60  45    55  53  38    51  49  36    58  56  43    68  66  54    61  59  47    61  61  49    84  84  72    86  86  74    67  67  55    68  68  56    64  64  52    55  55  43  
  70  70  57    81  79  66    90  88  75    92  92  82    87  87  79    98  98  88   100 100  90    99  99  89    76  76  66    73  73  63    82  81  76    84  83  77    79  79  71    85  85  75    78  78  68    71  71  59    71  71  58    66  67  53    68  69  55    83  82  69    87  85  70    90  87  72    88  85  69    80  77  60    81  78  61    88  85  70    78  76  61    78  76  63    73  71  58    61  59  47    63  63  50    70  68  56    68  66  54    72  70  57    67  65  50    59  57  42    69  66  49    72  70  52    65  63  48    59  60  44    72  73  59    86  88  75    89  91  79    91  93  82    91  93  82    98 101  90    80  84  72    80  86  74    70  77  65    58  65  53  
  87  89  76    91  92  79    91  91  79    86  87  77    91  92  84    87  88  80    88  90  79    85  87  76    75  77  66    74  76  64    76  77  71    71  72  66    72  73  66    90  90  82    99 100  90    93  95  83    79  81  67    70  72  59    73  74  61    79  79  65    76  77  63    79  77  62    82  80  65    82  80  65    84  82  69    80  81  67    79  80  66    79  79  67    70  70  60    75  75  65    82  82  72    82  82  70    79  79  67    84  83  70    84  82  69    77  75  60    83  80  65    90  87  71    89  87  72    90  88  74    93  93  81   101 102  90   110 112 101   102 103  94    84  87  78    85  88  79    75  79  70    76  82  72    72  80  69    67  75  64  
  71  77  67    70  73  64    80  83  74    91  92  84   105 106  98    91  92  84    99 100  92    88  89  80    81  83  72    84  85  74    80  85  78    80  85  78    77  83  74    71  77  67    73  79  67    82  87  75    72  77  64    57  61  47    60  63  50    68  70  57    81  83  70    88  89  75    87  88  74    87  89  75    83  85  72    72  74  63    76  78  67    79  82  72    76  79  70    82  85  76    94  96  85    98 100  89   103 104  92   108 108  96   105 105  92    88  89  75    81  81  67    88  85  73    90  88  75    89  87  75    87  87  75    91  91  81    88  88  79    73  76  67    81  83  75    95 101  91    88  94  84    85  92  82    85  93  82    76  84  73  
  85  92  84    72  79  71    58  65  57    69  73  66    92  95  86    92  95  86   101 104  95    91  94  85    78  81  72    66  69  60    75  82  74    75  83  75    72  79  71    65  73  63    67  75  64    79  87  76    81  88  77    81  87  75    92  98  85   102 105  94   111 114 103   113 116 105   111 113 102   110 115 104   101 107  97    79  86  76    78  84  75    85  90  83    94 101  93    90  98  90    87  90  81    81  84  75    76  79  68    75  77  66    76  78  67    70  72  59    67  68  55    75  73  61    72  72  61    81  81  71    83  83  74    80  81  72    82  83  75    83  87  79    89  94  87    93  99  92   102 108 101   107 114 106   100 107  98    90  97  89  
  92 103  95    98 108 100    84  94  86    83  89  82    79  84  77    79  84  77    79  84  76    69  75  65    54  60  50    50  56  46    56  66  57    55  65  56    58  68  59    65  75  66    70  80  72    73  83  74    78  88  77    79  88  77    83  90  80    85  93  82    91  97  87    87  93  83    77  83  73    74  80  72    80  87  79    79  86  78    84  91  83    91  98  91    93 102  95    79  89  81    93  99  89    83  89  79    74  80  70    69  75  65    80  83  74    90  93  84    92  95  86    97  98  90    99 100  92    93  94  85    85  86  80    89  91  85    94  97  90    89  95  87    94 101  93    88  95  86    98 105  97   109 116 108   102 111 102   100 110 101  
  89 100  92    86  97  89    82  93  85    83  92  84    71  78  70    70  77  68    61  69  60    69  76  68    73  80  70    78  86  74    71  81  72    71  81  72    73  83  74    74  84  75    74  84  75    74  84  75    83  93  84    87  99  89    94 106  96    91 101  92    81  90  82    79  86  79    84  91  84    81  88  81    89  96  89    87  94  87    84  91  84    80  90  82    73  83  74    73  83  75    80  87  79    83  90  82    85  92  84    83  91  82    85  92  84    89  94  87    88  93  86    88  93  86    88  93  86    92  97  90    94  99  92    90  95  89    92  97  91    90  98  91    97 107  99    89  99  91    91 101  93   104 114 106    98 108 100    92 102  94  
  88  99  91    83  94  86    81  92  84    73  81  74    74  80  74    79  86  78    68  75  67    80  87  79    85  93  85    74  81  73    74  84  74    71  81  72    73  83  74    71  81  73    74  84  77    76  86  78    81  92  83    83  96  86    84  97  87    87  98  90    81  92  84    83  92  87    87  96  91    83  91  84    87  94  86    87  94  87    84  91  83    82  90  82    72  82  73    77  87  78    85  95  86    87  97  89    89  99  91    86  96  88    82  90  82    81  88  81    84  92  84    91 101  93    94 104  96    93 103  95   105 114 109   105 114 109    94 103  98   101 111 104   105 116 108   102 112 104    96 106  98    89  99  91    84  94  86    96 106  98  
  85  95  88    90 101  93    91 102  94    78  89  81    68  78  70    71  81  73    78  88  79    75  85  76    67  77  68    67  77  68    67  74  66    71  78  70    80  87  80    69  76  69    70  77  70    74  81  74    70  80  72    64  78  69    68  81  72    81  94  85    82  93  87    85  96  90    87  97  93    87  93  88    81  88  80    83  90  82    79  86  78    85  92  84    88  96  86    90  98  87    83  94  86    81  92  84    79  90  82    80  90  82    81  91  83    87  97  89    96 106 101   102 113 107   103 114 108    97 108 102   106 117 111   101 112 106    95 106 100    98 109 103    93 104  98    92 102  97    88  98  92    89  98  93    88  97  92    83  92  87  
  87  97  88    87  97  89    80  90  82    75  83  75    68  75  67    67  74  65    73  80  72    71  78  70    67  74  66    72  79  71    80  88  77    71  78  70    73  81  73    74  84  75    77  87  78    76  86  77    71  81  75    74  87  81    73  86  80    78  91  84    91 104  97    87  98  92    84  95  88    84  95  86    78  88  80    73  83  75    79  89  82    85  94  89    85  94  90    89  97  94    84  90  86    94 100  96    89  95  91    82  88  82    85  92  85   104 110 104   101 107 101    99 106  99    92  99  92    86  93  86    87  94  87    90  97  90    93 100  93    94 100  93    91  98  90    80  87  79    83  90  82    72  79  71    65  72  64    62  69  61  
  79  89  80    75  85  77    74  84  76    75  81  74    72  77  70    73  78  71    80  85  77    80  85  78    77  82  75    79  84  77    76  83  75    72  79  71    74  81  73    73  83  75    80  90  82    90 100  92    86  97  89    75  88  81    75  86  80    78  89  83    79  90  84    74  85  79    73  84  77    74  85  76    77  87  78    78  88  80    84  94  87    92 101  96    91 101  97    89  98  95    85  92  85    85  92  85    74  81  74    73  80  73    72  79  72    80  87  79    78  85  78    75  82  75    76  83  76    78  85  78    74  80  74    69  76  69    69  76  69    69  76  68    62  69  61    48  55  47    55  62  54    48  55  47    40  47  39    36  43  35  
  70  77  69    82  90  83    83  93  85    78  85  78    73  78  71    68  73  66    66  71  65    70  75  68    74  79  72    78  83  76    73  80  73    76  83  76    78  84  79    72  78  74    73  79  74    77  86  81    74  84  78    71  82  76    71  82  76    74  86  79    71  80  75    70  79  73    72  82  74    73  81  73    79  86  79    80  87  80    80  87  81    90  96  92    95 100  97    92  98  94    89  94  87    80  85  78    66  71  64    70  75  68    65  70  63    63  69  59    64  69  60    59  64  58    56  61  55    54  59  53    48  53  47    42  47  40    43  48  42    41  46  40    39  44  38    33  38  31    38  43  37    37  42  36    35  40  34    32  37  31  
  59  66  58    61  68  61    57  64  57    57  63  56    56  61  55    56  61  55    59  64  58    64  69  63    67  72  66    70  75  69    58  63  59    66  72  68    72  78  74    67  73  69    67  73  70    69  75  74    64  71  68    61  70  65    61  70  65    64  73  68    65  71  67    66  73  66    71  78  71    68  75  68    69  77  69    65  72  65    61  68  61    68  75  69    75  81  77    76  82  78    66  71  64    57  62  55    48  53  45    51  57  47    47  53  43    43  49  39    44  50  41    42  47  40    42  47  40    50  55  48    50  55  48    39  44  37    32  37  30    30  35  28    37  42  36    38  43  37    35  40  34    30  35  29    30  35  29    25  30  25  
  52  57  50    57  62  56    54  59  53    52  55  50    47  49  44    45  47  42    48  50  45    46  48  43    43  45  40    47  49  44    51  56  52    55  60  56    54  59  55    46  52  48    45  51  49    46  52  49    44  50  48    49  55  51    47  53  49    45  52  45    51  56  50    49  54  48    51  56  50    48  53  47    47  52  46    45  50  44    43  48  42    45  50  44    44  49  43    46  51  45    47  50  43    45  48  41    44  47  39    42  46  36    39  42  33    40  43  34    37  40  31    33  36  29    37  40  33    49  52  45    51  54  47    37  41  34    28  31  24    26  29  22    30  33  26    31  34  27    32  35  28    32  35  28    33  36  29    30  33  26  
  33  36  29    39  44  38    37  42  36    38  41  36    33  35  30    29  31  26    32  34  29    30  32  27    29  30  25    33  35  30    31  36  30    33  38  32    31  36  31    28  33  29    30  35  31    31  36  32    30  36  32    35  40  36    31  36  31    26  31  25    36  38  33    33  35  30    33  35  30    33  35  30    30  32  27    29  31  26    31  33  28    30  32  27    26  27  22    28  29  24    26  29  22    29  32  25    32  35  28    27  30  23    26  29  22    29  32  23    29  32  23    31  34  27    29  32  25    32  34  28    29  32  25    24  27  20    25  28  21    32  33  25    27  28  20    22  23  15    28  29  21    32  33  25    30  31  22    28  29  21  
