P3
50 50
255
 152 158 144    46  57  40    23  36  25    29  40  44    29  39  45    41  52  48   106 118 114   129 140 138    77  87  86   114 123 124   166 175 176   122 134 134    31  45  45    35  50  47   151 161 171   136 150 161   106 124 134    76  91  96    14  23  20    12  17  12    15  20  16    49  57  59    86 105 111    96 111 112    44  55  49    36  44  29   116 123 105   138 147 128    62  73  57    28  41  27    44  59  52   100 124 116   137 157 155   178 189 193   174 182 189   148 166 168    99 117 117    30  40  41    48  50  45    60  61  65    63  72  82    50  74  85    68  90 100    73  82  84   117 117 107   159 161 139    67  72  59    87  95  84    90  99  93    80  90  92  
 194 197 182    67  75  54    23  35  22    29  39  41    28  37  42    31  42  38   120 130 124   137 145 142   104 108 106   119 122 123   158 163 162   137 146 145    42  54  53    25  41  40   136 145 154   128 142 153    95 113 123   103 118 123    29  38  37    10  15   9    26  31  26    63  69  69   103 121 132   149 164 167   136 146 141    74  80  68    88  91  77   128 132 120    68  77  68    26  36  31    38  58  55    98 124 120   112 132 131   132 141 146   141 147 154   102 115 118    51  65  66    25  33  35    46  52  46    69  71  74   107 116 124    64  84  92    49  68  73    69  75  72    73  74  58   103 105  80    63  64  50   104 109  96    75  85  77    44  55  56  
 225 228 212    95 103  80    33  42  28    24  33  35    30  39  44    29  40  36   124 129 125   142 144 141   129 128 126   138 136 136   172 173 173   139 145 144    50  62  60    21  39  37   125 134 143   143 157 167    94 112 122   138 154 160    73  83  82    15  20  14    22  26  20    64  69  66    88 107 118   120 135 141   162 169 168   137 139 132   148 148 137   139 140 133    54  59  57    31  40  41    53  74  75    95 121 121    78  98 100    58  66  73    77  81  90    78  89  93    38  49  51    29  33  37    60  68  62    86  90  91   136 145 152    67  86  92    30  48  49    71  77  70    61  63  42    66  71  40    51  52  38    89  93  78   100 110 100    33  45  42  
 239 240 229   115 120 105    41  51  25    38  49  33    44  54  53    40  51  52    82  93  85   149 151 145   146 140 136   135 129 123   184 185 177   138 147 139    45  55  51    25  35  33   104 114 119   145 158 165    88 104 109   147 164 173   143 155 166    31  43  39    17  25  13    56  61  60    73  78  87    98 104 106   158 161 155   142 143 130   156 158 143   162 167 158    68  76  75    36  47  50    78 102 104   137 155 159   107 127 131    88 105 109   158 166 172   159 169 171    52  68  64    33  38  36    59  62  63    93  93  90   133 136 133    51  63  64    18  29  29    58  60  50    96  95  75    92  96  70    63  73  49    46  51  38   111 118 114    55  70  65  
 241 241 233   131 134 123    58  69  39    47  59  35    45  56  52    49  59  62    74  86  82   149 154 148   157 152 148   120 116 107   166 168 157   136 146 137    47  58  52    23  31  28    71  85  92   108 122 131    86 101 104   126 140 149   164 177 193    54  66  64    12  23   9    53  61  63    47  53  61    78  82  82   136 137 129   115 113 100   146 148 133   139 142 133    54  64  63    50  63  66   100 126 127   153 168 173   111 130 134    94 114 115   187 195 199   172 182 181    53  66  59    46  51  45    97  98  96   151 147 137   122 120 109    34  40  37     8  17  16    34  34  26   109 108  89   163 168 148    91 105  79    39  46  31    86  93  83   104 120 113  
 241 241 233   145 147 136    59  68  39    27  39  15    23  35  31    26  40  41    56  71  68   144 151 149   174 174 170   115 112 105   116 117 109   108 115 107    56  67  61    22  33  29    61  84  92   100 120 132    68  86  90    95 108 114   146 156 166    62  72  72     8  20  10    43  54  56    74  89  97    61  71  74    53  54  49    69  65  54   159 155 143   143 144 136    43  54  50    81  96  99   120 144 146   159 177 181   125 143 147   104 121 123   188 196 198   176 182 180    74  81  73    53  54  45   159 156 146   194 186 168    82  76  57    24  28  21    15  21  19    17  18  12    66  68  56   146 158 142    83  95  76    66  74  49    56  66  42    98 116 103  
 245 245 238   165 167 157    65  73  45    31  43  19    36  48  45    40  54  57    35  49  50   126 136 137   166 169 167   124 125 120   122 122 116   121 127 119    57  68  61    15  27  23    52  79  89    97 120 136    67  86  93    72  87  90   127 138 147    70  81  84    10  24  18    29  43  44   107 131 142   116 133 138    55  58  56    60  54  47   141 133 124   127 127 118    42  53  49    94 112 112   128 149 153   161 180 184   124 138 141   107 117 119   183 188 187   157 158 152    75  74  63    62  58  44   146 139 120   187 176 150    78  70  45    22  24  10    16  21  16    16  19  13    52  59  49   157 171 162    97 109  96    48  57  29    68  79  47    84 103  85  
 243 242 237   178 178 170    72  78  50    41  52  28    37  49  47    52  66  69    26  39  43    99 110 111   148 156 153   121 123 117   130 128 121   151 152 145    69  77  68    18  31  22    31  56  60    82 104 121    83 104 115    60  81  84   107 124 134    80  96 104    10  26  24    24  38  39    95 123 138   132 153 163    78  86  87    41  40  34   103  98  89   122 123 116    57  65  62   113 126 126   115 135 141   135 155 158   111 123 127   138 144 145   195 198 194   149 144 135   101  91  77   106  97  79   132 122 104   160 145 119    92  81  55    28  26  13    15  18  13    15  16  11    29  36  28   121 138 131   123 135 125    35  43  20    69  79  50    87 106  86  
 242 241 236   192 192 184    79  83  57    46  55  34    25  37  35    49  64  67    26  35  41    65  77  78   128 137 133   121 123 115   141 135 126   167 163 153    93  97  86    14  26  14    27  46  40    87 105 120    84 106 120    53  81  86    73  98 111    80 100 115    12  29  32    17  31  31    80 109 129   128 150 164   103 117 121    43  48  44    71  72  63   113 114 108    73  76  73   162 168 170   118 136 143   136 159 162   112 123 125   167 168 168   205 207 200   150 143 131   134 117 101   154 140 118   167 157 143   135 118  97    87  73  49    40  36  24    18  19  14    17  16  12    20  25  19    69  86  80   138 150 140    47  53  43    52  61  44   109 127 107  
 242 241 236   206 206 198    81  85  60    49  58  37    21  33  31    47  62  65    30  38  44    41  52  53    89  98  93   122 123 115   170 162 152   149 141 130    91  93  80    19  32  15    19  33  21    75  91 105    75 101 116    45  77  86    66  96 114    89 113 133    26  44  50    13  28  25    80 107 131   115 138 154    96 114 118    78  91  84   113 121 110    84  87  80    81  81  79   180 179 184   147 164 171   146 170 172   109 119 121   183 181 182   212 213 205   157 148 134   152 129 111   155 139 114   124 114 105    98  81  62    71  56  34    42  35  25    16  15  11    15  14   9    16  21  15    36  53  47   159 171 161    83  87  85    23  30  25    71  90  70  
 236 237 225   209 209 202    99 103  89    51  59  36    19  30  13    36  47  43    34  38  41    38  44  43    80  85  81   121 120 115   166 159 151   161 154 146    89  90  82    34  44  33    19  30  25    53  65  55    95 106 108    68  85  99    68  94 104    89 116 127    28  48  55    12  27  20    58  81  95    82 101 107    79  92  88    55  61  57    80  82  81    48  52  51   107 112 105   180 186 173   140 151 159   140 160 161   103 124 119   185 191 189   214 213 209   149 147 136   145 142 117   155 142 110    81  67  45    92  74  60    63  43  32    50  33  14    43  31  14    26  22  15    19  24  20    29  41  31   156 156 148   150 147 137    46  48  35    77  90  70  
 218 220 208   205 206 200    97 102  88    54  64  42    21  34  17    22  34  32    28  33  33    45  52  49    87  95  88   138 140 132   127 124 115   136 132 123   110 112 101    44  55  43    17  28  22    50  61  49   119 130 130    86 102 114    66  92 101   105 133 144    46  69  78    12  30  25    47  73  89    72  93 101   105 121 118    85  95  90    74  79  75    44  45  45   143 147 143   193 199 191   134 147 155   122 142 142   117 135 132   191 196 195   212 213 209   137 139 128   113 111  88   145 131 103   134 126 101   132 118 102    58  39  24    60  40  19    61  44  27    41  32  24    18  20  15    40  53  40   135 137 131   173 170 162    57  58  46    82  93  74  
 193 196 185   207 209 203    96 102  90    53  65  44    27  40  24    13  26  25    29  35  33    42  52  47    68  79  71   124 129 120   170 169 161   134 133 124   117 121 110    63  75  61    20  30  22    51  60  46   120 130 128    96 112 121    72  97 104   117 145 157    70  93 106     9  30  28    41  68  87    55  81  91    99 122 120   121 136 129   126 133 129    68  70  69   161 162 164   188 192 194   135 148 155   123 142 142   135 151 148   196 202 200   202 205 203   117 125 114    85  86  66   108  97  71   135 136 111   195 186 169   106  87  71    78  52  29    62  39  19    36  23  14    23  23  18    27  39  27    91  99  91   173 171 165    68  67  56    46  55  39  
 163 166 155   211 214 207    98 104  92    50  60  39    32  45  29    18  30  29    24  32  28    29  41  35    44  58  50   113 123 115   187 191 184   168 170 163   116 123 112    82  95  82    40  51  42    30  40  24    99 108 104    99 114 121    74  98 104   115 141 154    74  97 111    14  36  36    24  48  64    30  59  68    83 111 112   110 129 126   111 120 117    60  61  61   154 155 159   182 189 194   141 154 160   137 153 153   140 153 150   192 198 198   181 189 188    87 101  92    86  93  74   148 141 118   137 142 119   199 193 175   147 130 111   119  93  66    79  55  31    39  25  15    18  17  12    19  30  20    68  80  73   195 196 191   100  97  89    25  32  18  
 141 142 130   210 211 203   109 113  99    54  62  39    31  42  25    18  29  25    27  38  34    28  42  37    55  72  66   130 142 138   176 182 179   179 184 180   135 145 136    87 100  89    68  83  73    31  44  27    94 105  99   109 122 130    66  87  92   101 125 137    85 108 122    14  35  36    24  43  50    24  50  55    71  99 103   128 147 150   110 116 118    57  57  57   157 157 160   172 182 184   134 149 152   149 165 164   146 156 155   185 190 190   164 176 174    64  84  75    55  68  51   155 150 130   171 174 155   208 205 190   130 116  97   128 109  79    89  71  43    32  21  10    19  20  15    30  39  33    56  73  67   197 197 195   147 142 138    24  30  17  
 135 133 118   207 204 195   132 134 120    79  84  61    36  45  25    15  24  19    24  34  33    25  40  38    67  87  85   106 122 121   164 174 175   175 181 181   163 174 168   108 124 114    63  83  75    42  59  43   114 125 119   129 142 148    57  78  83    80 102 113    95 114 127    31  49  49    19  31  29    23  43  46    60  87  96   129 147 158    90  95 101    65  63  64   167 171 170   167 179 175   129 144 147   157 171 171   141 149 149   166 170 172   150 164 164    83 110 100    64  81  65   147 144 125   185 184 172   221 216 206   142 132 112   101  90  58    64  56  25    27  24  10    19  21  18    35  43  41    63  84  79   187 189 188   189 181 178    42  45  34  
 129 127 110   202 200 188   160 159 142   114 114  88    52  57  35    23  28  22    11  21  18    18  33  30    46  64  62   107 122 124   168 180 182   151 162 163   156 168 165   121 136 131    63  84  78    54  71  55    76  87  80   122 134 137    60  79  80    62  84  92   114 133 146    49  66  68    24  33  25    14  31  31    71  94 104   130 150 162    72  80  90    73  75  77   159 165 160   148 160 152   129 145 148   155 169 169   140 148 148   155 162 167   136 152 152    81 106  95    71  87  69   129 128 111   193 192 181   226 221 214   174 168 153   118 113  83    71  68  37    30  28  15    21  24  22    23  30  30    65  85  81   165 170 170   208 206 205    66  70  62  
 110 111  92   201 199 186   190 183 165   155 148 120    78  76  53    35  36  28    13  26  16    16  29  21    48  62  61    99 115 116   164 179 183   138 153 156   146 162 162   136 151 149    49  70  66    55  71  53    58  67  54    98 109 103    55  74  68    53  73  79   112 130 145    58  73  79    27  36  27    19  35  34    54  77  85    99 122 133    57  74  81    64  75  76   154 163 160   143 150 146   124 141 144   140 154 154   133 146 147   121 134 143   106 124 126    62  80  65    71  82  60   151 153 136   176 181 167   209 210 204   144 141 134    93  88  67    76  73  47    29  28  12    16  18  13    23  27  25    56  72  70   151 164 163   207 217 216    91  98  89  
  98  99  81   204 202 187   190 183 165   184 177 151   106 104  81    45  47  34    18  32  24    11  25  21    53  68  68   104 121 125   131 147 154   117 132 139   146 160 164   162 176 178    69  88  89    45  61  48    60  72  62    81  92  86    53  70  61    43  63  64    85 103 114    58  75  78    26  36  26    20  36  35    49  72  79    85 107 118    44  61  68    67  77  78   157 166 163   144 153 149   138 154 155   138 150 149   132 144 145   123 136 143    90 107 107    64  82  65    72  81  60   163 165 148   175 178 166   197 198 193   139 136 128    79  76  51    91  90  60    59  58  38    52  53  43    44  47  37    57  68  63   140 147 144   202 206 203   107 109  99  
  90  91  75   202 201 183   183 176 158   203 196 172   145 143 120    54  57  37    23  34  28     9  21  19    57  72  72   131 148 155   127 144 152   119 133 142   153 166 174   185 195 201    99 112 118    38  52  43    62  73  67   105 115 110    70  84  72    44  62  56    73  90  98    80  98  98    31  41  33    11  25  25    75  95 102   109 129 138    44  59  64    83  93  94   171 181 179   154 164 163   121 137 137   124 136 132   148 159 158   158 171 177    95 111 111    72  88  75    98 107  86   158 156 141   171 174 163   208 210 205   186 183 174   153 152 124   134 134 100    88  86  61   106 105  88   110 111  95   116 119 113   148 150 145   157 154 151   111 105  97  
  93  95  78   197 196 175   188 181 162   215 206 190   188 185 166    78  82  57    22  32  23    13  23  19    53  67  66   131 149 153   149 166 173   113 126 133   134 143 150   189 194 200   130 136 142    37  47  39    47  56  51    90 100  92    65  75  58    41  53  42    68  81  82   102 118 117    38  48  40     9  23  23    67  86  92   102 121 128    39  51  57    85  95  96   170 180 179   161 173 173    99 115 114   101 116 111   158 170 170   153 166 174    78  96  99    39  57  45    72  81  64   153 153 142   147 150 139   188 189 184   205 205 195   155 154 126    64  64  27    49  45  18    45  41  22    44  40  23    85  85  74   115 110 103   151 142 137   124 110 102  
 100 102  83   172 172 146   184 177 158   207 196 188   202 199 185   117 121  94    46  51  39    22  31  21    45  57  51    92 107 106   155 170 172   137 147 150   126 130 133   140 140 143   130 129 132    60  66  56    39  45  38    85  91  79    97 101  77    96 102  84    76  83  82   106 120 117    52  62  54     9  23  23    46  64  71    99 116 124    45  56  60    73  82  84   160 170 171   161 175 177   102 121 122   106 123 119   158 173 173   147 164 172    91 111 116    30  50  40    65  76  61   173 176 168   172 173 162   178 179 174   172 172 162   149 149 121    66  66  30    45  41  14    47  39  23    53  45  30   105 103  79   135 130 109   164 154 137   126 113  92  
 105 107  86   144 144 116   180 173 154   200 189 185   201 197 187   163 167 142    92  94  78    30  35  20    56  67  57    85  99  93   121 133 131   163 170 170   154 153 155   119 114 115   108 102 100    91  93  81    40  44  34    74  77  63   120 121  92   112 112  91    72  75  73    98 109 107    73  83  75    20  33  33    32  50  55    76  92  99    39  50  54    82  90  92   155 165 167   151 165 168    99 122 122   125 145 142   151 170 171   128 147 157    86 110 116    27  49  42    62  77  65   177 182 177   183 185 174   195 196 191   173 173 163   128 128 101    89  89  55    58  53  29    38  28  17    48  37  27   117 115  74   150 146 108   195 187 152   151 139 102  
 115 119  97   115 118  94   191 187 167   201 193 181   204 197 186   188 184 171   105 111  92    26  32  16    74  81  70   123 131 122    96 103  98   156 162 158   148 151 148   148 149 148   141 134 126   102  96  84    53  49  33    58  55  35    99  95  72    67  65  49    56  57  50    68  74  71    84  96  90    41  52  50    28  37  36    38  46  45    27  34  32    90  96  94   154 161 159   127 137 136    91 111 114   133 153 154   141 161 160   109 130 130    81 102 101    24  42  36    52  66  56   177 187 177   173 178 166   183 187 182   198 199 194   109 111  91    93  93  58   139 135  99    85  75  47    47  33  15    99  98  53   152 149 104   187 182 138   164 156 114  
 128 131 110    97 101  78   207 204 184   196 189 175   205 198 188   186 183 176   115 122 105    24  31  15    82  88  76   166 173 163   130 135 128   140 145 141   160 164 162   168 173 171   179 175 166    98  92  80    44  38  22    55  50  30    96  91  71   102 101  83    65  65  55    38  40  34    68  79  73    53  62  58    20  26  22     9  14  10    16  21  17    83  88  84   161 167 163   126 135 132    95 111 114   136 154 154   128 147 145   112 131 127   129 146 140    50  63  57    45  57  49   181 192 182   181 183 179   181 183 184   197 199 198   121 123 109    52  54  17   155 153 106   157 150 107    84  71  38    80  76  40   140 137  94   174 170 125   187 180 137  
 131 132 110    87  89  67   203 200 181   198 192 180   205 201 195   177 176 172   138 145 130    28  34  20    56  62  50   154 161 150   150 155 148   121 126 122   149 153 152   194 198 199   209 208 203   132 129 120    59  56  42    46  43  24    56  54  33    69  66  47    59  56  41    55  52  40    53  60  49    42  47  39    21  25  18     6   8   2    10  12   9    78  83  79   174 180 176   141 147 143    96 108 108   132 145 145   141 155 155   172 186 181   144 157 150    37  48  38    54  61  53   176 181 174   185 186 190   194 195 200   210 211 213   146 148 134    99 100  66   153 152 104   145 141  94    97  90  48    69  62  36    86  78  38   122 115  68   185 176 133  
 113 113  89    82  81  60   184 182 165   187 183 172   215 214 209   174 176 173   142 148 134    47  53  40    39  45  32   134 140 128   159 164 156   150 155 151   138 142 142   177 181 183   201 203 201   170 172 166    66  67  55    61  60  43    70  69  48    56  51  31    58  53  34    70  64  47    58  59  43    44  44  30    32  32  23    30  31  24    16  18  13    56  60  57   167 172 168   141 147 143   112 120 116   157 166 165   169 179 180   147 157 154    60  71  60    24  32  18    68  73  63   177 180 173   187 188 185   176 177 177   206 208 204   152 155 140   104 107  78   137 139 100   141 139  99    93  89  51   100  91  58    96  89  41   123 116  61   145 137  91  
  90  88  65    77  76  56   170 166 153   185 181 172   201 200 195   161 163 159   149 156 145    63  70  58    23  30  16    97 104  91   138 145 134   174 180 175   162 167 167   179 183 187   188 192 191   187 191 185    71  74  63    49  51  34    73  74  53    82  79  58    83  77  56    84  76  56    81  75  54    70  65  47    40  38  24    53  54  45    47  49  44    30  32  29   119 123 119   156 160 155   139 146 136   169 177 173   153 161 163   111 120 116    61  72  57    43  52  33    70  73  61   180 181 176   184 185 176   181 183 174   215 218 209   177 181 167    62  66  45    69  72  46    93  92  65    62  60  33   100  95  48   123 120  63   152 146  89   153 142  96  
  73  71  49    62  61  42   142 138 126   188 182 174   199 196 190   156 158 152   148 156 145    85  93  80    21  29  14    65  73  58   118 126 115   177 184 177   167 173 175   174 179 184   186 188 186   196 199 194   128 130 119    48  52  36    63  66  45    82  81  60    86  80  58    79  71  50    96  86  60    82  72  51    48  43  28    59  56  47    80  81  75    38  40  37    62  64  60   160 162 157   162 169 155   145 151 145   129 137 139   109 118 113    91 102  85    57  66  43    62  68  53   181 183 178   198 198 191   195 196 187   219 222 212   187 190 180    75  78  65    50  54  37    43  45  25    58  60  37   121 121  65   125 124  67   113 107  55   159 147 105  
 110 108  88    53  52  34   131 125 113   207 200 190   210 206 197   172 172 165   129 136 128   121 129 117    23  31  16    49  57  42    97 105  94   177 184 177   182 187 190   146 151 157   158 158 156   177 180 173   151 154 143    55  59  44    47  50  31    63  61  41    53  48  26    58  52  30    79  65  37    80  68  45    50  43  25    39  37  25    75  76  70    60  62  59    37  39  34   108 110 105   169 175 160   149 156 149   124 132 134   118 127 122    99 111  92    55  65  40    59  66  50   189 191 186   198 196 197   199 199 196   216 218 213   179 183 176    89  95  84    87  91  77    45  48  27    40  44  19   100 103  48   131 130  78   103  96  53   171 158 123  
 161 156 134    83  81  58    98  94  83   199 196 186   211 209 197   196 192 193   116 124 116   111 119 108    55  63  50    49  57  42    81  88  75   164 169 162   186 190 189   180 184 187   160 160 162   178 182 181   143 153 148    52  64  52    31  44  24    69  73  80   106 109  95   127 130 114   116 103  85   124 113  83    92  81  48    71  61  35    59  52  32   110 107  88    75  76  67    38  38  43   157 161 155   171 182 166   118 130 115    96 101  94   124 122 109   110 108  81    92  95  68   173 182 165   202 205 196   193 193 194   221 216 219   170 168 155   119 118  97    98 101  83    33  38  28    67  76  65   133 143 109    99 103  54   106 101  60   166 160 111  
 166 159 137   115 110  87    61  57  46   155 152 142   213 212 200   209 208 208   106 116 107    70  79  68   101 110  97    93 101  87    79  87  74   162 168 162   183 187 186   176 180 183   182 186 184   186 190 186   184 189 185    69  81  71    24  41  23    60  72  82   111 119 108   187 188 178   142 134 119   148 141 113   153 147 109   126 121  85   105 101  68   153 152 122   141 141 126    46  45  48    87  88  87   160 167 158   133 142 129    77  80  69   122 120 102   162 158 130   152 154 128   169 174 160   206 207 193   199 198 188   208 205 197   193 189 174   125 122 101    96  94  71    50  51  33    46  45  32    77  87  58    53  57  27   120 120  69   168 168 105  
 143 133 112    98  91  68    54  49  38   101  99  87   193 194 181   216 217 214   122 133 124    54  65  56    78  89  76   113 122 110    66  75  65   153 160 153   180 185 184   175 179 181   171 180 172   175 177 172   189 189 185    82  92  84    19  41  26    57  77  90    86 101  96   189 192 190   160 156 149   141 139 115   135 132  98    96  94  58   109 108  73   165 165 132   187 186 164   135 134 128    43  43  46    71  73  69   137 140 129   102 102  85   135 133 107   146 144 114   120 120  97   151 152 139   183 182 169   177 175 159   183 181 164   177 172 158   107 101  82   112 107  74   139 133  99    57  50  23    49  55  38    47  50  36   127 127  96   164 164 105  
 102  90  67    72  61  38    65  57  45   114 110  98   193 194 181   216 218 214   144 156 148    61  74  64    84  96  85    94 106  96    69  79  71   132 139 134   176 182 180   178 184 184   166 177 169   163 165 160   182 181 178    83  93  85    25  51  36    51  76  90    66  84  82   185 190 192   160 161 156   138 139 123   124 125 105    62  61  43    88  86  66   167 167 141   186 188 164   185 186 171    86  87  86    31  30  28    97  95  86   131 130 109   126 125  95   140 141 110   101  99  79   159 158 146   178 174 169   156 154 140   157 156 140   172 169 156   103  97  78   105  99  61   155 145  97    97  86  39    41  43  17    39  39  23    97  94  81   161 157 119  
  79  64  41    42  28   3    55  43  31   151 146 134   206 204 189   208 209 204   161 176 166    68  84  74    79  92  83    79  90  82    86  97  91   107 116 111   165 171 169   162 168 166   165 174 171   165 169 168   193 195 192   100 111 103    38  61  45    60  82  95    49  66  61   164 170 167   174 179 175   142 144 135   101 102  93    58  57  52    72  72  63   156 158 136   174 178 151   152 156 134   127 132 121    66  65  60    67  62  56   140 138 117   146 149 118   128 131 104    70  70  52   171 169 154   183 179 178   188 188 180   182 184 172   203 205 194   140 140 124    93  90  56   142 134  85   133 123  65   124 120  66    77  73  40    86  83  54   173 165 141  
 140 127 100    59  45  19    48  34  21   130 120 108   198 195 180   211 209 204   158 175 165    69  86  76    85 100  93    88 101  94   122 132 127    99 108 105   167 173 171   176 182 180   173 177 178   174 178 179   194 203 200   128 142 133    43  60  44    51  65  76    38  51  41   146 156 145   182 186 185   145 150 140   136 140 125    89  90  81    43  46  31   140 147 120   177 187 155   123 131 107   124 134 109   130 132 120    56  51  45    74  71  52   159 163 136   155 163 140   103 107  90   174 173 155   190 187 177   188 190 181   179 186 176   197 205 194   121 128 118    53  54  37   141 137 102   161 154 101   137 123  61   117 107  55   119 114  74   135 123  99  
 203 192 168   105  90  67    47  30  13    90  77  61   166 159 144   209 206 201   183 196 186    76  90  80    76  91  83    67  81  74   109 122 118   121 131 129   153 162 158   185 190 187   174 175 180   163 168 170   182 193 191   150 165 157    55  69  55    22  32  36    30  41  29   147 157 143   186 190 191   154 160 152   146 151 135   131 134 114    77  82  57   123 132 101   168 177 147   158 166 141   131 143 109   143 145 130   113 110 103    63  61  44   134 139 115   156 165 142   105 110  95   151 155 140   179 178 164   177 179 170   175 182 175   195 207 196   109 119 107    38  41  32    73  69  50   110 105  64   124 108  51   107  97  37   105  95  60   153 140 114  
 228 219 202   133 118  98    62  45  18    69  53  26   113 102  86   194 189 183   209 212 201   105 113 102    44  56  47    49  66  60    79  95  92   132 144 142   153 162 161   181 185 184   169 173 176   159 164 167   173 182 181   172 183 179    73  85  79    25  36  28    27  37  28   139 147 136   178 184 184   159 164 167   134 139 135   130 136 117   131 138 112   145 150 129   151 156 134   182 187 158   170 176 141   124 128 104   140 141 126   102 103  86    66  69  48    95 101  81    92  99  87   151 159 153   186 184 179   182 184 175   179 182 179   190 198 188   120 127 106    60  63  49    35  34  19    65  63  28   126 122  52   125 120  59   115 107  67   154 144 115  
 215 207 190   135 122 100   100  81  51    82  63  32    91  76  54   154 145 134   217 219 208   128 135 124    41  52  44    39  56  50    58  74  71   142 154 152   151 160 159   172 176 175   170 174 177   159 163 165   173 180 180   179 189 186    88  99  93    22  33  25    27  37  28   131 141 131   141 153 153   137 146 151   137 145 148   103 112 101   114 122 105   148 153 136   145 149 127   164 169 137   164 170 136   138 143 112   120 123  91   139 143 107    61  63  40    34  35  29    79  82  79   154 161 146   173 170 162   154 155 142   145 147 138   153 156 143   110 111  89    64  61  43    53  45  21   110 105  52   144 141  69    97  91  34   104  99  47   127 121  79  
 185 178 160   108  96  72    85  66  33    92  73  38   126 109  83   146 133 117   216 216 206   154 157 148    54  66  58    37  54  48    45  64  60   148 162 159   156 165 164   176 179 177   178 182 183   164 167 169   171 177 175   193 203 198   109 118 113    23  33  25    22  34  24   123 134 125   113 130 130   115 128 137   150 162 170   111 121 120    87  94  85   119 125 114   149 153 133   136 142 108   150 157 125   170 174 146   127 131  94   124 128  79   120 121  88    47  46  42    61  60  56   148 152 128   169 167 156   158 157 140   101  99  85   107 106  87    92  89  62    54  43  22    58  45  11   124 114  46   107  93  33    66  54   2   117 108  50   134 128  70  
 157 154 135   127 120  94    96  82  46    86  68  30   134 117  89   144 129 110   204 200 191   178 181 172    68  79  70    30  49  43    33  52  48   122 137 134   166 173 173   180 181 180   183 187 188   159 163 162   155 159 158   191 197 193   125 132 125    29  39  31    23  34  24   124 136 126   102 122 123    92 109 119   144 157 166   123 135 134    72  82  73   102 107 100   157 161 145   155 160 129   158 164 138   139 142 123   131 134 104   121 125  75   127 128  83    79  76  54    43  40  27   131 130 105   159 160 146   163 164 144   116 115  97    87  85  62    90  86  48    89  79  46   100  88  45   127 117  47   106  85  27   140 121  61   180 165 110   143 131  73  
 159 159 139   164 159 133   100  89  54    99  86  47   119 106  78    95  85  67   176 168 161   194 195 187    78  89  81    28  47  41    30  51  46   103 118 115   186 192 192   189 189 189   180 184 183   153 156 155   149 153 150   187 191 187   152 159 152    44  54  46    17  29  19    96 110 100   100 116 121   107 121 131   129 141 149   125 136 130    76  86  76    77  82  75   111 115 103   154 157 137   165 173 151   118 121 105   123 125  99   130 132  85    76  76  24    84  80  46    57  51  32    73  67  52   161 163 149   179 180 163   150 148 134   110 110  81   113 113  62   131 126  79    89  81  39   119 113  53   141 123  58   158 143  75   194 179 121   148 138  78  
 147 149 128   144 143 116    80  75  38   106  97  59   118 110  83    87  79  63   174 165 158   212 212 204    98 109 101    28  47  41    26  47  42   102 118 115   196 202 202   199 199 199   181 185 183   155 157 155   162 164 161   189 191 188   189 194 188    64  74  66    13  26  16    59  75  64   124 136 142   141 151 161   146 156 160   141 151 142   107 115 101    84  89  82    45  47  41   111 114 101   131 138 119   118 123  98   118 122  87   105 106  58    83  81  34    87  82  47    60  51  36    52  42  39   106 111  96   198 200 188   197 197 187   150 152 120   133 138  75   134 136  78    72  71  28   106 105  58   119 109  47   108 100  36   140 137  62   149 149  67  
 152 149 129   103 100  72    83  80  40    88  83  42   104  97  71   125 116 104   188 183 173   214 214 205   124 131 122    33  45  37    24  39  33    75  88  84   189 197 197   190 197 196   184 189 185   160 164 160   160 164 160   181 185 183   202 208 205    87  98  93    14  30  23    46  64  56   154 166 168   160 167 174   157 162 169   152 154 154   137 140 131    89  94  81    40  46  30   105 112  96   106 114  94    94 100  74   126 129  89   129 128  74   122 117  59    81  72  24    64  50  25   109  91  83    64  57  43   145 144 134   208 213 203   168 176 150   161 167 119   156 156 104   107 108  66    75  75  41   108 109  50   133 134  65   116 119  33   146 149  49  
 168 161 143   115 110  81   112 108  70    96  91  51   113 106  80   179 169 159   193 189 179   208 208 198   153 159 149    41  51  42    18  31  22    56  67  63   175 184 183   191 198 197   177 182 178   168 173 169   160 165 162   172 176 175   206 212 210   137 148 144    19  34  29    37  56  50   148 166 170   153 167 174   155 162 172   158 159 164   146 146 138   104 105  87    75  78  56   122 126 104   101 107  94   118 121 106   169 168 139   179 177 120   152 148  75    99  90  26    72  56  20   104  85  70   117 105  91   102  99  90   172 174 169   197 201 188   169 172 144   145 146 110    72  75  44    37  42  19    72  76  45   117 119  75   100 103  32   150 154  52  
 105  97  78   130 123  95   144 138 102    99  93  57   102  94  71   196 186 176   193 190 182   196 196 186   174 180 170    57  67  58    16  28  20    41  52  46   161 170 167   201 207 204   194 198 197   169 173 172   150 154 153   151 157 155   196 205 202   164 175 171    42  57  52    30  47  40   111 136 139   138 157 164   164 174 184   161 165 168   155 155 146   140 137 117   136 134 112   145 143 120   154 156 142   152 152 139   110 104  89    97  91  58   106 100  41   138 130  62   116 105  52    86  72  39   165 153 133   150 141 131    92  88  86   184 183 181   175 175 166    97  98  83    31  38  25    14  24  16    25  30  29    43  47  34    71  75  33   144 150  66  
  92  81  61   123 112  85   131 121  89    86  77  47   115 106  87   223 213 204   201 198 191   185 185 177   179 184 175    81  91  82    23  34  26    28  39  33   151 157 152   207 212 208   197 201 200   176 180 179   156 163 161   136 142 140   167 176 173   177 187 181    66  78  71    30  42  35   107 126 119   158 173 172   175 181 184   162 162 163   173 173 162   167 167 147   166 167 147   123 124 105   102 103  81    92  91  70    75  69  51   120 111  97    74  65  35   109 103  52   151 146  89   112 105  58   107 100  68   136 128 108    66  56  49    87  80  79    93  89  86    70  73  68    29  40  35    11  26  23    17  29  25    35  45  38    85  93  62   159 165 104  
 137 126 105   140 128 102    91  80  53    85  76  52   126 119 102   223 216 206   212 209 203   184 185 178   188 193 186   109 119 110    27  39  30    24  34  26   129 135 128   203 207 201   198 202 202   182 188 187   171 179 176   139 148 145   147 156 151   188 197 192    88  98  92    29  37  32    86  95  77   117 123 112   149 149 144   152 149 143   159 158 144   166 168 150   125 131 111    55  64  48    65  63  48   101  98  83    95  90  66   168 164 126   108 104  66    59  54  25    91  87  58   129 128  92   101 104  68    84  80  52    91  79  63    55  42  34    67  61  54    87  91  84    33  45  40    13  28  24    20  36  26    44  56  46    86  96  63   148 155 102  
 150 141 118   114 104  77    73  63  37   128 121 101   139 135 119   209 208 196   219 216 211   185 186 180   187 192 185   142 152 142    38  48  39    24  31  23   107 112 105   198 201 194   196 200 201   173 179 179   171 180 176   133 144 140   128 138 132   194 203 198   159 166 160    59  65  59    76  79  57    67  66  51   116 110 101   105  99  88   106 102  85   145 146 123   117 122  98    83  89  68    63  60  52    80  77  68    54  51  27   121 121  79   105 106  64    50  50  28    54  55  40   107 111  89   116 129 101   114 116  91   169 158 138   111  96  80   117 110  96   101 104  93    26  36  28    17  29  25    22  36  30    27  37  34    78  84  59   137 141  96  
 133 126 103    82  72  46   128 120  96   168 163 144   149 146 133   200 202 189   221 218 213   180 181 175   167 172 165   168 178 169    57  67  58    22  29  21    99 104  97   199 203 194   196 200 201   170 176 176   174 183 180   140 151 147   111 122 116   194 203 198   202 208 202   128 130 125   113 116  95   109 109  95   161 154 144   132 124 111   103  97  75   101  98  69   138 138 107   119 122  92    50  50  34    69  68  46    50  48  32    57  54  49    37  36  28    51  56  26    85  94  60   118 128 103   110 130 112   129 136 118   147 136 118    77  61  43   108  99  84    94  96  85    28  34  29    16  25  24    20  31  25    29  34  42    70  73  64   145 146 114  
