P3
50 50
255
  97 114  68    96 112  61    76  85  42    82  85  46   115 115  64   143 143  84   141 137  85   129 120  70   163 148  83   201 178 108   215 186 122   201 174 112   143 123  64   196 176 116   206 185 129   192 169 123   229 205 158   238 216 162   236 214 157   232 208 153   202 185 115   188 169  97   180 158  89   148 126  61   113  92  33    97  81  29    89  76  25    99  88  31   114 104  41   137 127  58   158 145  74   172 154  84   178 159  91   193 172 111   204 182 124   194 172 111   197 176 111   171 150  81   151 131  59   175 156  80   190 175 109   191 176 108   197 181 112   192 174 103   160 142  70   134 115  46   160 144  72   192 178  95   168 147  72    96  74  31  
 113 132  85   108 125  76    68  77  36    76  78  42   116 114  66   139 137  80   130 128  81    97  95  50   136 124  62   201 178 115   202 174 115   194 170 109   141 123  68   168 152  88   196 177 118   184 163 116   225 202 159   241 220 170   238 216 162   239 217 164   230 205 148   233 208 150   221 194 132   199 173 108   189 166  99   170 151  83   134 117  54   109  94  36   101  89  28   127 116  50   154 141  71   161 146  75   174 157  86   191 170 106   204 182 122   199 178 117   201 180 115   176 156  87   146 127  52   161 142  65   180 165  96   184 170  99   186 171  97   182 166  91   141 124  51   117 100  28   154 140  65   185 171  83   148 129  52    86  67  24  
 127 146 100   110 126  78    74  80  43    73  71  40   113 111  65   142 139  84   120 118  69    85  82  35   133 122  58   195 172 110   206 180 121   196 174 109   139 123  60   135 122  52   172 158  94   164 147  96   212 194 145   232 211 158   232 210 153   238 216 159   230 201 161   230 198 155   219 189 138   221 192 135   222 197 133   212 189 121   200 178 113   168 150  91   133 118  57   137 126  62   149 135  70   142 126  57   150 132  61   177 157  90   195 174 111   196 175 112   201 180 116   183 162  93   145 126  51   151 132  55   175 158  86   181 165  92   176 161  85   167 154  78   128 113  38   112  98  25   150 138  61   171 158  68   128 109  32    76  58  13  
 111 129  83    81  95  49    58  60  27    66  62  34   115 110  69   134 133  79   127 123  72   132 121  67   177 161  97   204 183 118   206 182 120   202 180 115   161 143  74   121 110  40   146 138  74   144 133  79   204 187 134   224 205 145   222 201 141   233 208 151   234 208 149   224 198 136   216 191 126   220 195 128   209 185 115   193 169  97   193 171 101   151 131  68   121 104  42   124 113  51   136 124  60   135 120  54   142 125  54   172 153  83   183 164  95   187 168 102   198 178 115   185 166  99   144 126  53   145 127  51   159 142  70   157 141  66   151 137  60   151 137  61   119 107  33   102  90  18   130 118  42   157 145  58   124 105  31    88  72  21  
 112 129  83    83  93  50    53  52  23    62  56  33    96  93  54    96  96  45   104 100  49   117 105  53   150 137  85   183 170 116   187 174 122   193 178 125   171 156  92   115 109  47   127 122  67   138 130  78   197 183 128   219 201 139   216 193 132   225 198 143   231 206 144   214 190 128   207 183 122   213 189 129   217 193 133   197 173 113   201 176 114   179 156  89   146 128  65   143 131  69   149 138  76   146 131  67   151 134  66   173 154  80   178 160  88   182 163  95   193 174 108   191 171 106   157 139  68   151 133  59   160 143  71   150 134  59   145 130  55   148 136  60   126 114  41   110 100  29   129 119  45   154 142  60   135 115  44   122 107  50  
 111 127  82    96 105  62    67  65  37    67  60  37    84  80  44    88  88  38   107 106  57   108 102  60   100  95  57   137 138  96   163 162 125   166 161 125   142 137  85   104 102  49   115 114  65   139 133  84   191 178 123   216 197 136   214 190 131   222 192 142   224 199 142   213 191 133   209 187 130   207 185 127   215 193 135   201 178 118   209 185 122   192 169  99   147 127  62   136 123  63   141 129  69   137 123  61   149 132  65   169 151  76   176 158  82   180 161  93   188 169 104   200 180 116   176 157  89   164 146  74   159 142  70   148 131  58   142 127  52   135 123  48   112 101  29   116 106  37   138 128  58   148 136  59   133 113  45   138 122  61  
 106 122  72   103 114  65    77  81  47    61  61  35    79  85  46    95 108  58    85  98  51    77  81  42    67  68  36    73  74  45    92  91  61   109 106  70    98  96  51   103 108  59   119 127  76   132 134  81   167 164 105   197 186 122   206 187 122   220 195 129   210 189 132   209 185 127   211 183 124   212 182 121   216 186 124   212 182 122   205 181 118   182 167 100   154 139  73   146 131  66   142 127  62   140 125  60   146 131  66   156 138  65   166 146  75   171 150  84   180 161  98   196 178 115   193 177 109   169 155  82   166 148  84   160 143  76   142 128  61   133 121  58   112 102  40   134 127  56   152 142  68   148 130  65   137 120  51   139 122  48  
 128 141  95   114 124  78    91  95  61    64  66  38    89  95  55    84  98  47    72  85  40    58  63  27    53  56  27    51  50  29    54  54  30    71  70  38    82  81  44    93  98  53   107 114  71   124 129  89   146 149 113   167 166 127   179 176 130   179 173 124   190 183 127   192 182 124   198 185 124   200 185 125   200 184 124   192 176 116   191 175 116   186 170 110   165 149  89   150 134  74   138 122  62   137 121  61   151 135  75   156 138  72   164 143  78   170 149  87   180 155  99   192 166 110   188 162 106   177 151  94   164 148  95   161 148  84   148 136  65   131 118  49   107  96  29   136 125  58   157 145  77   146 127  60   145 126  57   162 144  72  
 120 131  90   112 120  78    98 102  69    61  64  34    94 103  59    87 101  49    79  93  43    93 101  52    79  86  42    77  81  44    66  70  33    66  68  26    90  93  44    94 101  52   100 109  65   114 126  94   131 143 120   137 151 128   137 152 121   125 140 102   129 134  98   128 131  93   137 136  97   148 145 103   156 153 110   153 150 109   157 153 110   171 164 118   159 153 106   143 135  86   140 132  83   140 132  81   145 138  85   150 141  89   156 144  92   167 153 100   174 158 103   180 161 106   179 156 103   167 144  92   153 141  98   139 129  76   130 121  61   124 113  54   115 102  46   137 122  63   154 140  76   137 125  54   137 125  52   155 143  67  
  79  90  55   102 112  73   106 112  79    74  79  48    85  93  50    98 111  59   108 120  72   115 122  79    85  91  53    68  73  40    55  60  27    59  65  28    69  76  35    81  90  41    94 106  59   105 121  85   115 135 106   104 127  99    99 121  89   112 133  96   128 141 105   135 147 106   140 149 106   141 148 102   146 152 106   145 153 106   144 152 108   147 155 118   152 160 121   145 154 113   144 151 109   145 152 108   144 151 106   146 152 112   148 153 112   154 158 107   151 154  96   148 149  89   141 141  83   119 118  61   101 104  49    97 100  43   102 101  45   108 103  50   111 102  47   134 125  57   158 150  74   139 129  58   137 128  54   152 143  66  
  39  52  23    92 103  65   122 130  95   107 113  80    80  89  43   103 112  63   131 139  97   106 113  74    84  90  55    80  85  53    72  77  45    75  80  45    64  71  32    54  62  22    63  74  35    93 110  71   123 144 105   105 124  86    71  86  49    62  74  38    81  96  57   103 115  71   121 129  83   128 136  86   139 146  94   133 140  88   126 135  86   121 134  91   110 123  80   114 126  81   120 132  84   127 137  87   128 138  87   129 136  89   131 137  91   132 141  88   134 145  86   138 151  91   135 150  94   126 140  87   113 125  61   116 127  61   120 128  64   121 126  64   113 116  49   119 122  42   142 141  55   131 123  42   138 130  46   161 154  66  
  40  56  28    85 100  63   133 145 109   116 124  88    85  92  49    88  93  48    89  92  55    60  64  28    60  65  31    83  87  54    79  85  49    72  79  40    59  68  24    58  64  31    53  61  30    68  83  48   107 123  85   115 128  90   102 108  72    87  86  55    64  74  37    79  86  46    86  90  47    87  89  41   101 103  53   106 108  58   106 110  58   109 112  57   117 120  63   145 147  90   142 143  85   122 122  62   115 114  54   122 118  58   125 121  60   104 103  44    90  92  35    83  88  35    68  74  28    68  75  33    71  80  34    72  81  28    78  86  28    87  92  35    77  82  24    63  68   3    69  75   7    65  71   8    69  76   9    80  87  17  
  79  99  70   102 122  82   130 144 105    93 102  65    85  91  50    80  81  42    51  47  23    33  30  15    34  31  16    44  45  27    46  48  27    48  52  28    55  59  31    75  77  44    79  85  51    88 100  65   110 125  90   113 124  88   104 108  69    98  97  58    99 107  56   114 120  67   124 127  69   119 120  58   119 122  56   122 125  58   125 127  62   122 120  59   127 123  62   149 143  83   152 146  86   132 123  64   116 106  47   131 122  55   138 129  64   117 107  46    96  87  31    93  84  33    85  77  28    77  70  20    71  67  29    72  71  25    76  76  26    72  71  24    62  63  15    65  69  13    67  72  18    50  58  19    48  57  13    50  60  10  
 108 131 101   122 143 103   117 133  94    71  81  44    87  89  50   102  97  61    85  79  56    63  58  43    46  43  26    53  52  32    55  57  33    53  56  26    75  81  46   120 122  76   131 137  90   121 133  93   125 141 105   115 129  91    96 104  59   104 106  57   100 107  64    91  96  49    96  98  46   113 112  56   129 128  69   124 124  64   122 122  63   123 122  65   115 112  57   109 104  49   117 112  57   118 110  57   112 102  49   115 107  47   119 110  50   113 104  48   102  90  36   118 106  48   137 123  60   114 101  31   122 114  51   114 107  45   103  97  39    77  73  19    72  71  12   108 111  36   116 119  36    95  91  18   109 106  28   138 136  51  
 118 139 101   126 142 103   116 126  86    77  83  43    93  98  58   111 118  78   100 106  66    89  93  54    70  76  41    89  96  58    96 104  68    65  71  43    74  80  48   133 136  97   126 133  83   116 126  78   119 129  97   124 134 103    85  93  56    90  94  57   108 105  62   103 100  55    92  90  44    92  93  44    98 104  56   101 110  63    94 105  58    94 102  55    84  92  45    84  90  44    94  95  46   106 101  50   116 106  52   116 106  51   116 105  51   123 111  58   110  97  45   125 111  59   144 128  77   121 103  53   134 118  67   125 111  63   118 106  61   106  96  48    95  85  29   117 108  41   125 117  46   110 104  35   118 110  39   140 132  57  
 106 131  92   122 141 101   125 137  96    95 100  59   104 109  68   102 109  68    91 101  59    96 110  70    89 106  73   101 121  85   102 119  86    76  86  65    78  82  58    97 100  70    83  89  48    93 104  63   101 114  88   129 141 115   104 113  80    70  77  42    81  79  38    91  90  45    91  89  44    85  86  39    81  84  39    84  92  48    85  93  51    88  95  53    80  87  45    80  87  45    91  93  48   100  98  52   107 101  52   105  98  51   104  97  51   112 105  59   107 100  54   106  98  52   119 109  64   109  98  53    99  95  50   107 104  55   110 110  54   107 111  49   109 111  48   113 115  52   101 103  42    88  93  34    92  94  34    97  96  35  
 113 138  98   120 139  98   114 126  84    90  98  54   105 111  67    94 102  58    84  98  53    93 118  75    91 120  87    94 125  92    96 121  94    62  75  61    68  71  58    69  73  54    64  74  44    80  94  60    70  85  63   117 131 109   122 134 104    79  88  57    71  72  31    81  78  37    83  81  39    82  80  38    77  78  38    79  82  43    78  83  45    81  87  50    82  90  53    87  95  58    93  99  61    95  99  57    99 101  55    91  93  51    87  89  50    88  90  51    85  87  48    75  75  37    86  86  48    85  85  48    72  82  32    81  95  41    79  94  37    70  86  25    72  88  25    79  93  31    73  87  25    68  84  25    69  84  25    73  83  23  
 131 155 115   125 144 103    99 111  68    90  97  53   113 119  75   100 107  63    91 102  57    92 112  68    98 125  90   104 137 102    84 113  89    52  69  58    58  64  54    58  66  51    74  88  61    72  89  58    50  65  44   110 125 101   129 142 108    83  94  59    74  76  37    76  76  36    81  79  40    87  84  45    89  87  49    86  86  52    81  83  49    70  75  43    53  59  26    54  61  28    73  80  47    79  90  52    75  86  45    76  88  48    78  90  52    76  88  50    67  79  41    58  70  32    65  77  39    60  72  34    57  75  23    57  78  24    54  77  21    52  76  18    56  78  21    59  77  22    56  75  20    54  77  23    52  70  17    60  72  22  
 135 156 115   138 154 111   104 113  71    97 101  60   111 116  75   103 110  69   103 111  67    98 108  63    97 113  79    85 110  78    58  83  60    41  59  48    43  53  40    42  54  36    78  93  63    68  84  49    35  50  24    76  90  60   109 121  83    90 101  61    86  91  51    92  94  55    98  97  58    98  96  58    96  93  58    89  88  57    83  85  54    64  69  39    38  44  15    36  42  14    56  65  34    66  78  44    58  73  36    58  74  35    60  78  38    67  85  43    60  78  36    57  76  34    56  78  33    50  72  25    44  65  25    47  70  22    54  79  21    59  84  25    62  82  30    59  75  36    56  71  38    49  65  31    48  60  27    56  62  31  
 121 133  93   118 127  87    94  97  58    96  97  59    99 101  64    71  77  41    73  79  40    85  90  46    64  73  42    46  61  34    35  52  34    33  48  38    38  49  37    43  55  38    72  87  55    64  78  42    35  47  18    51  61  30    94 102  63   104 112  71    99 106  65   102 106  65   101 102  62    91  91  52    82  83  46    70  74  42    65  70  38    56  61  30    43  48  18    43  49  20    50  60  30    51  66  32    49  66  29    54  72  31    54  72  30    62  83  39    57  79  33    53  76  30    49  75  27    52  78  30    57  78  37    63  84  41    63  85  41    56  77  36    55  71  35    49  62  32    52  62  34    59  69  40    67  73  45    67  68  41  
 139 144 104    96  97  59    72  71  34    84  81  48    94  95  64    63  68  38    62  70  38    72  84  45    49  58  34    43  54  36    41  51  41    46  55  53    47  59  51    40  51  36    61  71  45    78  87  54    60  65  40    47  51  24    75  78  45   103 104  72   101 108  66   101 108  64    97 103  59    85  91  49    80  86  48    67  75  39    62  71  37    62  69  35    52  57  24    51  56  25    57  65  33    60  72  37    59  76  39    55  72  34    53  69  30    57  75  35    61  82  39    63  86  41    67  93  46    78 104  57    80 104  54    65  90  48    53  76  45    58  78  54    81  96  73    89 101  75    98 108  80   110 118  87   114 118  87   103 102  72  
 102 102  64    71  68  30    77  72  37    78  72  41    73  72  43    45  50  25    61  74  45    90 113  77    66  81  61    42  51  39    42  48  45    42  48  53    36  46  43    34  43  33    42  50  27    60  67  37    60  62  42    48  48  26    50  50  21    67  66  38    66  73  29    78  84  40    84  90  46    77  83  41    75  83  44    62  74  37    57  69  33    58  66  29    62  68  34    65  70  38    64  71  38    63  75  40    67  83  45    65  80  44    67  81  46    62  79  42    67  86  47    66  88  47    67  92  50    68  94  49    70  97  54    75 101  63    88 114  82   105 128 103   116 134 114   107 120 102   105 115  97    97 103  82    91  94  73    81  80  59  
  88  84  46    92  91  52    95  97  58    86  86  49    62  65  32    55  67  35    77  97  61    93 114  75    63  78  57    38  45  36    33  38  31    31  36  29    31  37  30    26  41  26    42  60  37    53  70  38    43  54  26    37  43  21    35  37  17    46  46  22    59  59  21    80  81  42    83  88  47    79  87  45    64  75  33    52  65  25    49  63  24    52  60  27    58  60  28    65  63  30    73  69  33    80  79  40    87  91  49    87  93  49    80  86  43    86  92  46    84  90  47    84  93  52    81  94  57    84  99  63    95 115  76   104 125  83   116 137  94   110 129  91    94 110  83    86  99  85    72  83  73    73  80  62    64  69  52    52  55  36  
 112 109  71   103 105  65   101 106  65   102 103  66    71  75  39    66  77  43    99 117  79    86 103  64    48  60  36    39  47  35    39  47  36    36  45  31    37  48  35    41  57  43    65  82  63    72  87  62    48  59  37    43  48  31    49  52  32    62  62  36    73  78  38    79  84  42    77  83  40    69  77  36    58  69  28    59  71  35    60  70  36    63  69  31    77  79  38    89  86  42    91  87  40    90  89  40    90  93  43    97  99  53    92  94  47    99 100  54   105 108  62   107 114  71   105 115  77   107 120  84    91 104  76    76  88  66    64  75  59    61  71  59    55  65  56    66  74  63    74  81  68    73  78  64    64  68  53    54  57  40  
 126 127  87   118 124  82    98 106  63    86  90  49    79  81  44    80  90  53   100 115  75    80  93  52    44  53  26    45  52  36    42  52  34    38  51  30    46  62  42    54  73  48    64  83  53    60  77  45    48  60  33    65  73  48    91  97  64   109 116  72   108 117  70    97 106  59    86  95  51    71  81  40    56  66  30    58  67  38    58  65  39    65  66  40    82  80  47    94  89  48    95  89  44    89  85  41    88  85  43    93  89  43    96  92  44    97  93  46    90  89  42    91  95  51    86  93  51    68  78  38    49  54  39    45  48  40    46  48  47    53  54  56    50  52  50    50  53  42    54  58  44    63  66  55    63  66  53    55  57  43  
 112 115  75   111 121  77   103 115  69    90  97  55    89  94  54    93 102  63    96 109  68    76  85  43    46  53  23    44  49  26    41  51  26    41  57  29    50  69  43    61  81  51    59  76  42    51  65  33    51  63  36    67  76  48    80  88  49    94 103  51   103 117  66    90 104  54    75  87  41    62  71  31    49  56  24    44  50  25    42  45  25    52  51  30    69  65  36    82  77  38    88  81  37    87  80  40    84  80  43    86  80  35    88  80  33    90  82  35    90  84  38    89  88  43    78  83  38    58  65  22    49  53  37    42  46  32    38  41  32    36  39  32    39  42  33    45  49  35    38  41  28    42  44  34    50  52  40    49  50  36  
  84  88  51   106 119  76   122 137  91   105 115  70    96 103  61    85  93  53    90 101  58    89  96  53    61  66  34    57  63  37    64  73  42    62  77  43    62  81  49    59  75  51    48  62  39    40  52  32    37  45  29    38  44  27    48  53  25    72  78  38    92 106  53    92 106  54    77  89  41    65  74  33    54  59  26    49  53  28    51  52  29    59  58  30    75  74  37    85  83  36    86  82  34    85  80  34    84  80  37    91  85  41    95  88  42    96  87  44    96  90  46    97  93  50    89  89  45    71  73  29    54  61  31    43  52  26    35  42  24    32  38  27    34  42  32    37  45  34    33  39  27    43  44  33    43  44  31    41  42  26  
  87  92  57   127 138  99   128 144 100    93 106  62    97 106  63    79  90  48    92 106  62   105 115  72    68  75  42    58  65  34    62  72  37    65  77  40    75  89  55    62  74  47    54  64  38    56  65  39    51  58  35    52  57  33    63  67  36    82  87  47    86  99  49   100 111  61    93 102  55    82  90  47    69  73  38    63  66  35    64  67  39    66  69  39    75  77  44    75  75  40    68  68  30    70  68  30    76  74  37    74  72  33    78  75  34    79  74  36    79  74  36    88  84  44    93  92  49    80  82  35    74  83  40    56  63  30    35  41  22    36  41  32    34  41  33    32  40  27    35  41  26    38  39  23    40  40  23    41  40  22  
  96  97  66   110 119  84    98 115  73    64  78  35    85  96  54    77  92  49   101 118  73   102 116  72    76  86  51    81  88  55    82  90  53    78  86  48    79  89  54    76  84  50    80  88  48    95 104  59    94 100  58    86  91  51    75  79  37    71  75  26    67  75  28    76  84  37    77  84  37    76  81  37    70  72  31    66  68  31    61  63  30    53  59  30    52  58  31    46  50  27    44  47  24    53  55  29    63  63  35    61  63  31    58  59  27    59  58  27    70  66  33    72  68  31    77  75  32    82  82  34    77  80  33    71  74  33    58  62  29    60  64  38    57  61  38    56  60  37    57  60  38    51  50  29    53  52  31    52  51  30  
 109 109  80    98 108  74    90 107  68    62  78  35   100 113  70    97 113  70   113 131  88    96 114  71    68  80  45    78  86  53    88  93  57    93  99  61    89  95  61    82  87  55    79  86  46    82  88  42    76  81  36    70  72  33    70  72  33    79  80  38    72  78  34    65  68  24    64  67  21    69  72  26    70  73  28    72  74  34    64  69  28    54  65  24    47  57  21    40  49  19    45  50  24    51  57  25    51  56  20    46  54  21    49  56  25    53  55  26    61  60  29    62  59  24    69  67  25    73  72  24    82  80  34   100  99  48   110 110  56   104 106  53    92  93  48    81  83  46    70  70  41    64  64  39    63  63  39    62  62  38  
  76  90  64   101 115  78   109 120  84    85  95  58   117 130  79   121 139  81   118 135  84   103 118  68    73  84  46    69  79  44    70  80  43    74  88  45    66  81  41    58  71  34    65  75  39    63  71  32    52  57  25    48  52  24    59  66  30    80  92  46    76  83  35    63  67  30    66  64  34    72  69  33    83  84  36    82  87  29    76  86  27    57  76  20    48  68  12    49  69  15    54  74  21    52  69  20    49  64  17    53  60  23    57  60  29    52  55  24    51  53  22    50  54  23    48  53  23    61  66  36    81  81  45    93  91  47   118 114  60   126 119  63   107 101  50    85  80  41    73  68  37    67  64  33    63  61  30    65  64  34  
  93 110  82   108 124  85   109 122  85    82  92  56   100 113  63   106 123  70    93 108  62    80  92  53    46  55  28    45  53  30    50  59  32    45  57  27    39  53  23    37  52  18    37  48  14    34  42  14    33  39  12    35  42  12    41  49  18    48  59  25    44  52  15    37  41  13    43  44  21    54  54  23    63  66  24    62  66  20    54  63  17    42  58  13    33  50   5    33  52   7    40  57  13    44  58  16    48  59  19    50  58  23    49  56  23    49  56  23    54  60  28    48  55  23    42  49  18    53  61  30    61  61  25    68  68  25    88  85  36   102  99  48   109 104  57   109 104  67   103  99  66    92  89  60    78  77  47    74  74  46  
 106 125  92   110 128  88    95 110  72    77  90  53    85  98  53    93 107  59    74  88  46    43  55  21    23  31   8    22  29  10    30  38  17    35  46  21    38  51  26    41  57  22    45  60  28    34  46  22    31  41  16    45  56  27    45  58  31    30  42  22    34  42  22    31  37  21    35  39  21    44  47  20    49  54  21    53  58  26    47  54  24    36  48  18    27  40  10    25  40   9    27  41   8    30  41   9    37  45  14    39  48  17    43  52  21    47  56  25    48  55  24    51  58  25    55  60  28    58  63  31    58  59  25    72  71  35    86  83  47    90  88  50    95  92  57    97  97  61    94  94  61    89  88  63    79  79  53    82  84  57  
 109 129  91   112 132  93   102 119  79   107 122  83    97 111  68    76  89  46    72  85  43    49  59  24    32  40  15    32  39  18    40  49  24    55  67  37    64  79  49    72  90  53    83 100  64    68  85  53    55  70  39    58  73  43    47  62  37    32  45  27    19  27  15    23  31  19    31  39  21    43  51  25    47  54  23    52  57  32    44  49  33    32  40  24    27  36  20    28  39  20    31  40  19    38  45  23    48  52  30    50  55  29    56  60  33    59  64  36    58  61  31    66  67  36    72  71  40    63  62  31    65  64  36    64  62  38    59  57  37    55  54  35    64  63  42    73  75  51    74  77  50    66  68  47    59  61  39    62  64  43  
 113 129  92   102 118  82   114 130  92   130 145 105   102 117  78    64  76  36    73  85  43    62  72  39    34  42  19    38  43  23    35  44  19    45  58  28    56  71  41    63  82  46    67  88  45    64  86  40    61  82  41    61  79  48    53  69  43    40  56  30    35  45  34    32  42  30    34  45  25    47  59  29    50  61  29    49  57  34    40  47  33    31  38  29    23  31  20    24  32  19    28  36  20    40  46  30    55  58  41    55  55  35    56  55  32    66  64  39    81  77  49    93  86  57    96  86  57    90  79  49    74  69  49    59  56  40    47  43  35    44  43  38    49  49  42    44  46  33    41  43  27    46  48  34    43  46  30    42  46  29  
 107 117  82    73  84  52   108 121  84   121 136  95    94 108  72    74  86  48    78  90  50    59  67  40    36  41  24    36  40  26    26  33  15    38  51  26    51  66  42    45  61  31    68  89  47   104 127  75    81 105  58    50  71  37    54  70  44    52  67  41    60  71  55    65  76  61    81  94  74   107 120  92   112 123  91    92 100  77    68  76  60    43  51  40    25  35  22    18  29  13    20  31  15    35  41  26    49  52  36    56  56  37    61  59  39    69  67  44    85  78  53   101  91  63   108  95  66   105  90  60    80  72  51    64  58  42    43  40  32    35  35  32    39  40  36    37  39  32    32  35  26    33  36  26    38  43  31    40  46  32  
  85  86  56    54  59  33   102 111  77   120 134  91    92 106  70    84  96  57    86  98  55    50  58  29    32  37  19    32  36  21    31  40  18    49  62  34    57  74  45    51  68  40    55  72  37    98 119  78   120 143 100    76  97  62    32  48  24    19  33  15    28  36  21    30  40  29    48  60  46    79  92  71   103 113  89   102 109  87   102 108  91    92 102  85    69  80  63    58  70  51    53  65  45    55  63  45    53  59  41    44  48  29    46  51  29    49  51  29    58  55  28    76  70  41    88  78  47    95  83  51    82  73  43    78  72  45    55  52  32    34  36  21    31  34  24    31  34  25    30  34  26    32  37  30    34  39  32    34  42  31  
  66  62  34    52  53  30    92 100  67   118 131  88    86 100  63    76  88  49    94 107  60    59  68  29    28  34   6    36  42  16    53  62  30    60  76  37    56  76  36    51  67  37    47  63  36    43  62  31    73  95  58   111 132  96    97 112  90    54  63  57    26  32  19    18  25  18    17  27  21    32  43  29    60  70  49    81  86  66    93  98  81    74  86  62    62  76  52    68  82  59    73  87  64    74  85  63    67  75  54    60  72  50    61  73  49    59  67  43    65  68  40    70  69  37    71  66  32    85  79  43    99  87  49   101  94  58    78  76  46    54  57  32    50  54  36    45  49  35    39  42  33    32  38  34    29  36  30    29  36  28  
  85  80  41    56  54  28    80  84  53   111 122  79    90 105  61    67  82  38    93 107  58    75  86  38    31  44   8    39  55  25    60  81  45    58  81  36    57  80  34    48  68  37    33  49  29    22  32  19    23  30  22    55  64  54    96 109  94   100 117  98    63  78  58    28  41  26    20  31  21    27  35  28    48  51  43    65  69  55    97 100  80    88  90  65    42  44  29    27  29  24    37  42  38    48  55  46    46  55  40    51  60  38    58  66  42    59  68  41    60  68  39    61  64  32    68  67  30    83  80  42   101 100  54   113 108  61   111 102  56    89  77  37    82  73  43    72  67  48    52  50  38    41  43  36    34  37  35    29  35  31  
  96  95  55    53  55  26    71  78  47   112 125  81   101 116  73    68  83  40    90 104  56    76  87  41    43  56  19    51  68  34    68  89  48    69  92  46    65  86  42    39  56  30    23  36  19    22  32  23    22  32  25    21  30  24    37  49  38    62  76  61    93 107  91    83  96  82    51  62  53    26  34  27    40  46  36    67  71  56    90  94  74   117 121  96    88  92  73    38  42  28    35  38  26    49  53  41    44  50  34    33  39  25    31  37  25    33  39  27    39  42  28    44  45  26    55  51  30    72  66  43    94  89  48   108 100  58   123 111  69   110  98  59    91  80  50    70  64  41    60  56  38    44  46  32    37  41  35    35  41  37  
  94 101  58    66  73  41    76  86  52   111 126  81    97 113  68    61  76  32    85  99  52    69  79  38    53  66  29    64  81  42    65  87  41    60  82  36    56  77  36    38  54  33    25  38  28    22  31  27    27  36  33    24  33  31    20  30  25    28  41  32    47  63  50    80  93  83    83  95  87    66  76  68    51  59  46    64  73  56    75  82  62   120 125 101   134 138 114    72  76  53    40  43  22    58  60  42    62  63  46    48  49  39    40  43  36    38  41  34    40  42  33    43  43  31    51  46  31    65  58  40    84  75  39   101  89  50   118 104  61   122 108  66   105  92  54   104  95  64    95  92  63    72  73  50    50  52  42    43  49  46  
 112 125  78   104 115  82   100 113  78   120 136  91    89 105  60    54  70  25    81  96  49    63  74  35    62  77  39    72  91  47    53  75  26    38  59  15    41  58  25    34  46  32    30  41  35    30  39  38    29  37  39    31  39  41    29  38  38    27  38  34    29  42  35    35  48  41    55  67  61    79  90  83    74  84  73    75  87  70    68  79  59    83  90  68   128 133 107   117 122  92    75  78  49    72  71  49    78  76  57    67  67  49    58  58  40    50  53  36    49  52  33    49  49  30    52  48  27    64  58  34    79  66  31   100  88  48   116 103  56   128 116  66   124 113  66   130 121  78   125 119  81    99  99  69    62  63  50    49  53  53  
 129 145  97   110 124  88   101 115  78   120 136  89    86 102  57    69  85  39    89 105  58    71  84  47    72  88  50    70  88  44    43  64  17    30  48   6    33  48  20    34  44  35    28  37  34    31  41  40    30  40  41    26  36  38    29  38  40    33  41  43    31  42  38    29  40  36    36  47  42    46  57  49    51  61  50    63  74  60    71  82  65    70  78  59    91  98  73   122 127  97   102 104  76    82  81  57    88  85  66    86  84  61    76  75  50    64  64  41    60  61  37    58  57  33    59  56  30    72  67  38    82  72  35   100  88  46   119 109  58   127 117  63   133 126  72   124 118  69   123 119  76    94  93  63    58  59  46    45  49  49  
 127 144  93    86  98  63    84  96  58   103 117  70    72  88  41    80  98  50   103 120  71    79  94  53    68  84  46    52  69  31    35  53  14    30  47  14    29  43  22    38  46  39    31  40  37    29  39  38    31  41  40    28  38  38    31  39  41    31  36  39    29  38  37    30  39  38    33  42  39    32  41  37    38  48  40    38  48  39    45  54  43    55  63  51    64  71  55    94  99  78    97 101  78    77  79  57    69  68  49    76  73  50    73  68  45    59  58  37    55  54  34    50  48  28    52  48  26    66  61  38    97  88  55   107 100  59   127 120  72   127 123  71   121 118  69   106 103  58   102  99  62    73  72  49    44  45  35    37  41  39  
 103 115  66    65  74  41    75  82  46    91 101  55    72  87  40    92 111  62   123 141  90    82  98  54    52  69  33    37  54  22    35  52  21    30  45  21    26  38  24    28  35  29    29  38  33    29  39  34    24  35  30    24  35  31    25  35  33    28  34  34    32  37  37    29  33  32    29  35  33    31  37  34    36  42  38    34  40  36    35  42  38    35  43  37    40  47  39    44  50  39    55  59  45    54  57  42    51  54  36    68  65  42    72  66  44    67  62  42    62  59  41    55  51  33    52  47  28    66  59  40    69  63  37    88  84  51   113 111  72   120 120  80   104 104  68   100  99  70    87  85  63    57  56  44    33  35  30    32  36  32  
 107 117  68    81  88  53    82  88  53    85  95  47    67  79  33    70  88  39   111 132  79    83 100  52    44  61  24    38  54  26    44  60  35    30  44  25    28  38  27    25  32  25    26  32  26    19  30  22    17  30  21    20  32  25    18  26  22    24  28  27    26  28  27    28  31  30    31  35  34    30  34  33    24  30  28    24  30  28    27  34  31    27  36  33    26  32  30    28  34  30    36  41  34    39  44  31    49  53  37    80  76  51    89  84  55    87  84  59    81  79  56    65  61  39    52  47  25    59  53  29    54  49  30    65  63  39    80  80  50    74  76  45    64  66  41    69  70  52    64  64  52    47  47  41    33  35  33    33  37  34  
 101 114  71    98 112  69   100 116  73    98 116  72    68  85  40    59  75  30   103 121  70    87 109  52    44  61  26    28  41  25    32  44  34    31  41  33    21  30  26    20  27  24    22  28  24    22  28  24    23  29  25    23  29  25    22  28  24    22  28  24    27  32  28    24  29  25    28  33  29    30  35  31    26  31  27    25  30  26    26  31  27    28  33  28    30  35  33    26  32  32    33  37  35    46  48  40    61  62  48    84  81  61    94  90  66    90  86  59   101  98  69    80  79  50    57  56  30    63  61  38    65  70  47    64  69  48    60  64  50    47  50  42    35  37  32    29  34  30    27  32  28    34  39  35    35  40  37    34  39  35  
 103 114  74   107 120  80   123 139  96   123 140  96    95 111  66    77  92  47   122 137  90   102 120  70    38  53  22    17  29  16    24  34  25    19  28  21    20  26  23    22  28  24    22  28  24    23  29  25    24  30  26    24  30  26    24  30  26    24  30  26    25  30  26    23  28  24    26  31  27    29  34  30    29  34  30    29  34  30    30  35  30    31  36  31    32  38  35    31  37  37    37  42  37    48  50  42    61  60  47    79  75  55    89  84  62    85  84  58    88  87  59    67  65  39    52  50  26    62  60  37    57  62  41    53  57  39    48  51  39    41  43  37    37  42  38    41  46  42    38  43  39    35  41  37    34  40  36    42  48  44  
  88  95  61    91 102  66   122 134  95   120 134  92    87 101  57    85  97  51   112 125  78    81  96  55    34  44  22    21  28  20    21  27  23    21  28  21    24  30  27    25  31  27    24  30  26    25  31  27    25  30  27    24  30  26    23  29  25    23  29  25    30  35  31    28  33  29    27  32  28    28  33  29    28  33  29    28  33  29    28  32  28    30  34  29    32  36  34    31  37  35    38  43  38    47  49  41    57  56  43    70  68  50    80  78  57    81  79  56    79  77  52    59  58  33    48  47  25    50  49  28    49  53  37    42  46  32    36  40  31    32  37  32    34  39  37    36  39  39    33  38  36    36  42  38    43  48  44    51  57  53  
  60  65  35    87  95  62   119 130  94   130 142 103    97 108  66    71  83  37    96 106  64    60  69  40    33  40  26    33  37  35    27  32  28    33  38  32    32  37  34    30  36  33    32  38  34    32  38  34    32  38  34    31  37  33    30  36  32    30  36  32    30  35  31    30  35  32    30  35  31    30  35  32    33  38  34    33  38  34    31  35  31    29  33  27    30  35  31    32  37  33    37  41  35    47  47  39    54  53  41    63  60  44    69  66  47    70  69  48    73  72  51    67  66  45    65  64  43    59  58  39    52  58  44    45  51  40    39  44  38    33  38  36    36  39  40    32  37  37    28  34  33    36  42  38    48  53  49    46  52  48  
