P3
50 50
255
  52  46  14    53  47  12    54  49  12    55  50  13    56  47  14    55  45  10    63  52  10    72  61  14    70  59  13    65  53  13    66  53  11    71  60  11    78  68  18    79  67  18    72  54  17   102  83  16   155 142  25   172 162  45   169 160  52   193 185  86   221 215 121   208 202 105   192 185  83   171 160  57   146 133  36   117 106  28    75  62  13    47  36   6    40  32   6    44  39   9    47  36   8    54  44   7    65  56  12    61  52   8    51  42   1    57  46   1    67  56   2    75  65   1    83  75   4    80  70   9    77  67   3    97  86   2    99  86   2    91  76   1    96  81   1   102  88   1   108  96   2   104  93   2    98  86   2    92  80   1  
  56  47  14    57  49  12    59  51  13    59  51  14    60  50  14    60  50   9    68  57  11    78  66  18    76  64  18    70  57  15    78  66   8    87  76  16    88  78  19    83  71  16    75  56  19    95  77  16   157 143  36   178 168  55   164 155  48   176 168  68   194 189  90   188 182  82   172 164  61   152 142  34   130 120  21   117 106  30    75  62  17    47  34   9    41  33   6    44  39   5    48  39   9    55  45   8    63  54  12    59  50   9    50  42   1    57  49   1    65  55   2    64  53   1    64  56   1    67  57   4    69  58   1    83  73   1    93  80   3    88  74   1    94  81   3    98  86   2    99  87   1   101  89   4    96  85   3    87  75   1  
  58  50  14    57  49  11    59  51  12    64  52  16    66  54  14    66  55  10    72  61  12    80  67  19    81  66  17    80  64  13   100  87  10   103  91  17   101  88  19    91  78  14    77  59  17    87  67  13   154 141  44   172 163  53   161 154  46   171 166  61   177 172  68   181 175  70   173 166  59   157 147  41   127 117  19   108  96  22    71  56  14    48  35   9    43  35   8    44  39   3    49  40  10    53  45   7    59  51  10    56  47   7    51  42   1    59  51   3    67  59   5    64  54   3    57  48   1    59  51   1    66  57   1    76  67   1    84  73   1    85  74   1    91  79   4    92  82   3    90  78   1    91  80   1    86  74   1    78  68   1  
  60  52  15    57  49  12    59  52  11    70  58  18    73  60  16    70  59  13    74  63  14    80  68  18    85  71  14    93  78  12   124 110  22   112 100  16   113 100  22   106  92  20    86  68  20    85  68  12   158 147  51   171 162  52   159 153  43   177 173  63   180 176  66   181 176  66   175 168  58   156 147  43   127 117  24   106  94  22    71  59  13    48  35   7    47  37   9    52  46   9    49  40  10    51  43   6    56  48   9    53  44   7    50  41   2    60  52   4    68  60   6    68  58   4    61  53   1    59  52   1    65  58   2    75  66   2    73  63   1    77  66   1    82  70   1    81  72   1    81  72   1    82  72   1    76  66   1    79  69   1  
  63  54  15    62  53  13    66  57  15    79  66  22    80  68  20    77  65  17    78  67  21    85  72  23    97  83  19   118 103  22   129 115  27   113  97  15   115 100  19   113  98  18    96  80  19    92  77   9   160 151  48   160 152  42   144 137  26   169 166  51   172 168  53   160 157  40   153 147  30   123 113  14   107  96   6   100  88  16    77  66  17    52  40   8    47  37   7    52  46  11    47  38   7    49  41   4    53  45   7    51  42   6    49  40   1    58  50   2    65  57   2    66  56   4    60  52   2    56  50   1    60  54   1    68  60   4    68  59   1    74  64   1    79  69   1    81  71   1    80  70   1    79  69   1    72  63   1    80  70   8  
  65  56  17    66  57  18    72  63  21    81  68  21    79  66  15    74  62  13    77  64  20    85  71  21   104  89  20   132 117  26   122 105  23   106  89   9   107  91   9   107  92   5   100  85  15    98  85   6   158 151  40   154 147  36   138 134  20   167 164  47   166 164  45   145 142  23   146 140  22   119 110  12   104  94   8    91  79   7    72  60  10    51  39   5    47  38   7    52  44   9    46  37   6    48  40   4    52  44   7    49  41   5    48  39   1    55  48   1    61  54   1    59  50   1    51  42   1    50  43   1    52  45   1    60  51   3    71  61   7    80  70   3    89  79   7    91  81  10    80  72   1    77  68   2    71  61   1    75  65   4  
  64  56  16    63  54  13    73  64  20    83  72  23    81  68  26    73  63  11    81  68  19    85  70  20   117 102  30   122 106  21   112 100  25   102  90   9   103  88  10   102  86  10   101  82  15   117  99  20   142 132  19   144 135  21   137 125  21   166 154  41   175 167  34   150 144  11   135 128  16   112 106  12    92  86   5    81  72   8    68  58  11    52  43   6    49  40   6    50  44  10    47  36   6    45  34   4    49  38   7    49  39   5    48  38   2    49  40   1    54  46   5    51  43   4    45  38   3    47  41   7    45  40   1    61  53   1    75  66   1    90  80   1    97  89   1    88  81   2    80  74   1    83  75   8    71  60   4    82  71   1  
  66  57  17    64  55  13    72  63  20    77  66  18    79  66  21    75  65  14    76  65  15    81  67  18   115  99  29   107  90   9   104  92  19   103  91  12   103  89  15   104  87  15    96  78  15   106  90  15   134 123  16   126 118   8   120 109   7   151 141  29   165 158  26   135 130   3   115 108   4    93  86   1    79  71   1    74  65   5    65  55  12    51  41   7    48  39   6    49  43   9    44  34   4    42  33   2    44  35   4    44  35   2    44  36   1    44  35   1    51  44   2    52  46   1    46  40   1    47  42   3    51  44   1    67  60   1    76  69   1    90  81   1    92  85   1    81  74   1    76  70   1    77  69   4    74  63   2    93  83   1  
  65  56  19    62  53  14    68  59  17    75  64  16    76  65  19    74  64  14    70  59  10    75  62  12   110  96  29   103  87  10    91  79  10    96  84  11    93  79  11    93  78   9    81  65   5    90  76   8   125 116  19   111 103   3    98  89   1   121 113   4   139 133  10   113 108   1    93  86   1    77  70   1    68  60   1    65  57   7    59  50  11    47  38   5    44  37   6    48  42   8    41  36   4    38  32   1    40  33   5    40  33   4    41  35   3    40  35   1    50  44   2    55  49   1    48  43   1    48  44   1    56  50   1    75  68   6    78  71   1    90  81   1    90  82   1    78  70   1    76  69   1    74  66   1    77  67   3   103  93   7  
  62  52  16    58  49  10    62  53  13    72  62  15    71  61  12    70  60   9    67  57   9    69  57   9    98  84  23   105  91  17    88  75  11    92  79  13    89  75  14    86  72  10    72  56   3    79  64   7   113 104  19   103  97   7    94  85   1   110 102   3   127 121  10   102  97   1    79  72   2    70  63   6    63  56   4    58  51   8    51  42   8    41  33   3    41  34   3    45  39   6    39  36   4    35  32   1    36  31   4    37  31   3    39  34   5    43  37   2    52  47   4    59  52   1    55  49   1    50  46   1    58  52   1    78  72   9    79  72   1    90  82   2    94  86   3    81  73   1    81  74   4    76  69   1    80  71   3   101  95   3  
  59  50  14    55  47   9    57  49  10    63  53  10    67  57   8    66  58  11    65  55  10    65  54   7    79  67  14    97  84  17    86  71  14    83  71  13    85  72  19    80  67  11    64  51   3    65  52   5    90  82  11    94  88  13    88  82   5    93  85   1   104  99   7    89  83   3    70  63   7    65  58  12    60  53  10    50  44   9    43  37   6    39  33   4    39  34   5    41  36   4    35  32   2    32  28   1    33  28   4    34  28   3    39  34   5    45  39   2    55  49   4    62  54   1    58  51   4    54  47   1    56  50   1    75  69   8    77  71   1    89  81   1    94  88   4    83  75   3    80  73   5    76  68   1    79  70   3    95  89   1  
  59  51  14    56  48  12    56  48  11    62  51  13    67  59  13    66  58  13    58  50  10    60  50   8    70  57  13    86  73  15    77  64  11    71  58   8    73  59  15    69  58   7    59  47   4    57  49   8    73  67  10    78  73  12    73  66   4    70  63   1    76  69   1    70  65   3    61  55  10    53  48  10    49  43   7    44  39   7    39  34   5    39  34   5    39  34   5    37  32   2    34  30   1    32  28   2    34  29   5    35  28   3    42  36   3    51  44   1    61  53   4    65  56   1    61  53   4    56  49   3    55  49   1    71  65   4    78  71   1    87  80   1    91  84   1    79  72   1    74  67   1    73  65   1    75  66   1    94  87   1  
  59  51  15    57  49  13    57  49  12    63  51  17    65  57  12    65  56  15    54  46   9    58  49  12    66  53  16    75  64  12    74  60  11    67  53   8    65  52  14    62  52   6    58  48  11    58  49  17    65  60  11    64  59  10    62  55   7    64  57   8    65  58   7    58  53   5    50  46   7    42  38   2    43  39   4    40  35   4    37  31   3    36  31   5    36  32   3    35  31   2    33  29   2    33  28   4    36  29   7    35  28   2    45  37   1    55  47   1    66  58   2    71  62   1    64  56   1    61  55   3    57  52   1    72  66   1    83  76   1    90  83   1    91  85   1    80  74   1    74  67   1    71  64   1    72  63   1   100  94   1  
  58  50  14    57  49  13    57  49  12    59  47  14    55  46   2    59  50  12    57  48  15    60  50  16    60  48  16    64  52   5    68  54   7    65  50   8    63  50  13    60  50   6    53  45   8    47  38   9    55  50   6    60  55  11    53  46   6    56  47   8    54  45   6    48  41   3    45  40   6    40  36   2    42  39   4    40  37   6    34  30   2    32  28   1    33  29   2    34  30   3    31  25   1    33  27   3    34  27   6    34  25   1    44  35   1    54  46   1    69  60   1    76  68   1    66  60   1    65  59   2    62  58   1    74  70   1    87  83   2    94  88   1    93  87   1    86  80   7    76  71   3    72  66   1    70  61   1   106 100   9  
  52  45  14    48  42  10    52  46  12    57  50  14    55  47  10    59  51  16    53  44  11    53  45  10    58  50  14    61  53  14    61  51  14    58  48  12    57  48  12    55  46  12    54  45  12    52  42  12    50  41   8    55  47   8    53  48   9    51  45   9    47  41   7    44  38   4    43  37   5    41  36   6    39  34   5    38  33   4    38  33   4    37  32   4    36  32   5    34  30   3    31  25   3    34  30   5    32  28   4    32  28   4    38  32   1    52  46   1    71  63   1    75  66   1    70  62   1    65  55   8    61  50   2    81  72   1    94  85   1   100  88   3    98  89   1    95  89   3    81  74   1    75  65   3    69  54   2   112 102   9  
  54  47  15    50  44  12    52  46  12    55  48  11    54  46  10    56  47  14    51  42   9    53  44  10    55  48  11    59  51  12    57  47  11    54  44   8    53  45   9    51  42   8    50  41   8    50  41  10    48  40   7    51  43   6    50  43   7    47  41   7    43  37   3    41  35   3    41  34   5    41  35   6    38  33   4    38  33   4    37  32   3    36  31   3    36  31   5    34  30   3    32  26   2    33  29   4    32  27   4    32  27   5    37  32   1    52  46   1    69  62   3    71  62   1    67  58   1    60  52   4    64  54   1    86  79   2    96  88   1   101  92   2    98  92   1    95  89   4    85  77   1    81  72   4    73  62   2   101  91   2  
  53  46  17    49  42  12    50  44  12    52  45  10    53  44  11    52  44  11    49  40   9    52  43  11    52  44   9    55  47  11    54  44   8    51  43   6    51  43   7    48  39   5    47  38   7    49  40   9    47  39   7    45  39   5    45  39   6    43  37   5    40  33   4    39  32   3    39  34   5    40  35   6    38  33   4    37  32   3    36  31   2    36  30   3    36  31   5    34  30   3    34  28   4    32  28   3    31  27   3    32  27   5    36  29   1    52  46   1    67  60   3    68  59   4    64  57   1    56  48   1    67  61   1    91  86   4    96  90   1    98  89   1    95  88   1    89  82   3    83  77   1    84  77   2    79  71   1    86  78   1  
  49  42  14    46  39  10    47  40  11    48  42  10    50  44  12    47  41   9    46  39  10    50  43  13    48  42   9    52  45  10    52  44   8    52  44   8    53  44  10    48  39   6    46  37   6    45  39   7    45  38   8    45  38   8    44  37   8    42  35   6    39  32   4    37  32   4    39  33   7    40  35   7    37  32   3    36  31   2    35  30   1    35  29   2    35  30   4    34  30   3    34  29   4    30  27   1    30  26   2    30  25   4    36  29   1    52  46   1    66  60   2    68  60   4    63  56   1    55  48   1    74  68   4    93  88   5    93  86   2    91  83   1    90  82   1    82  74   1    80  72   1    82  76   1    81  74   1    75  68   1  
  47  39  12    43  36   8    44  39  10    46  40   9    49  42  12    45  38   9    45  38  10    48  41  13    47  40  10    49  44  10    51  43   7    53  45   9    55  46  13    50  41   9    43  37   5    43  36   7    43  36   7    45  38  10    44  37   9    42  35   7    38  32   6    37  31   5    39  33   7    40  35   7    37  32   3    37  32   3    35  30   2    36  30   3    36  31   5    34  30   3    34  29   4    30  26   1    29  25   1    30  25   3    37  30   2    54  47   2    66  58   1    69  62   1    61  55   1    55  48   1    76  71   6    91  83   3    91  81   3    94  84   1    94  83   3    85  74   2    79  70   1    79  72   1    80  73   2    68  62   3  
  45  39  13    42  36  10    44  38  11    45  39  10    48  41  13    43  36   8    45  38  12    45  38  11    46  39  10    49  43  11    50  42   6    52  43  10    54  45  13    48  41  10    42  35   6    41  34   5    39  32   4    44  37   9    43  36   8    40  35   6    37  32   3    36  30   4    38  32   6    40  35   7    38  33   4    38  33   4    37  32   3    37  31   4    37  32   5    34  30   3    34  29   4    32  28   1    30  25   2    29  24   2    39  32   4    55  48   5    64  57   1    70  63   1    62  53   1    57  47   1    77  70   3    92  84   1    95  85   2   104  94   2   106  94   7    99  87   5    90  77   1    83  73   1    78  71   1    68  61   5  
  47  40  15    43  37  12    43  37  11    44  38  10    45  38  10    42  35   9    44  37  13    42  35   9    45  38  10    47  40  11    50  41   8    51  41   8    51  44  11    46  40  10    42  35   6    41  34   6    39  32   4    43  36   8    42  37   8    41  36   7    38  33   4    37  32   3    40  35   6    40  35   7    38  33   4    39  34   5    39  34   5    38  33   5    37  33   6    35  31   4    35  29   4    33  29   2    30  26   2    28  23   2    41  35   7    57  50   7    63  56   1    73  63   1    65  53   1    57  45   1    80  69   1   103  93   1   112  99   2   117 105   2   118 104   4   115 102   1   105  90   2    94  84   3    82  76   1    73  68   6  
  47  40  15    42  36  12    41  35  11    43  36  10    43  36  10    41  33  10    43  35  12    39  32   7    45  38  10    46  39  10    51  42   9    51  41   9    51  43  12    46  39  10    43  36   7    43  36   8    41  33   5    43  36   7    43  37   8    42  37   7    40  35   5    40  35   5    42  37   7    41  36   7    39  34   5    40  35   6    40  35   6    39  34   6    38  34   7    35  31   4    34  28   4    34  30   3    30  26   2    27  22   1    42  35   8    58  51   8    62  54   1    75  63   6    68  56  10    60  45   5    84  70   2   114 104   1   126 114   2   123 111   1   121 108   1   123 111   1   115 102   2   105  93   4    88  82   1    80  75   6  
  46  39  13    44  38  14    42  36  14    41  36   9    43  37  11    43  37  11    40  34  10    41  33   9    44  37   9    49  42  13    48  39  10    51  41  10    53  44  11    53  44  11    48  38   9    43  33   6    43  34   8    46  40  10    48  42   7    45  39   7    42  35   9    42  35  10    43  37   8    44  37   7    41  34   5    43  36   7    42  35   7    40  33   5    41  35   6    42  35   7    40  33   4    37  32   4    32  26   3    30  25   1    45  39   4    59  50   6    62  51   1    72  62   1    64  58   1    61  55   1    90  76   1   127 109  12   136 120   8   137 124   7   127 114   1   131 115   2   130 116   2   118 106   1    99  88   1    88  78   1  
  44  37   9    42  36  12    40  34  11    40  35   8    42  36   9    43  37  11    40  34  10    41  34   8    45  38  10    49  42  14    49  40  11    50  41  10    52  43  10    51  42  10    47  38   7    44  35   6    46  36   9    50  40  11    52  43   9    49  40   7    46  36   9    46  36  10    48  38   9    46  40   8    43  37   5    46  39  10    47  40  11    47  40  11    47  40  11    44  37   8    41  34   5    40  33   6    36  30   6    35  30   2    49  43   8    63  54  10    66  55   5    75  65   3    66  60   4    69  60   4   102  89   4   141 122  21   147 130  18   143 129  13   140 124  11   142 126  12   136 121   6   128 116   4   111 100   3    93  82   1  
  44  38  10    41  35  10    40  34  11    40  35   8    42  36   9    42  36  10    42  34  10    42  35   8    46  39  10    50  44  13    49  40  11    50  41   9    52  43  10    51  42   9    48  39   8    47  38   9    48  38  11    52  43  12    55  47  11    53  45   9    49  40  11    48  39  10    51  43   9    51  42   9    49  40   7    53  44  11    54  45  12    54  45  12    53  44  11    46  37   4    43  34   3    41  34   7    38  31   6    38  31   4    52  43  11    65  56  14    68  58   7    73  64   2    64  56   4    73  62   7   115 100   9   150 132  24   148 132  20   139 126  11   139 123  10   142 127  13   136 122   7   131 119   7   117 107   8    96  85   1  
  46  39  11    43  36  11    41  35  11    41  36   8    43  37  11    44  37  11    43  35  10    43  36   9    46  40   9    50  44  11    48  39  10    49  40   8    53  44  10    52  45   8    49  40   7    50  41  10    51  41  12    55  45  12    60  51  13    58  48  12    54  43  11    53  42  11    56  46  11    55  46  10    53  45   9    56  48  12    57  48  13    55  47  11    53  45   8    46  38   1    47  36   4    43  35   6    38  31   4    37  30   2    49  42   6    62  53  12    68  57   6    73  63   2    64  54   4    73  61   4   128 114  15   151 133  21   138 121  10   134 118   5   133 117   6   140 122  12   137 122   7   134 120   8   120 108   7   102  90   3  
  47  39  11    43  36   9    42  35  10    43  36  10    45  38  10    45  38  12    44  37  10    45  38   9    48  40   8    53  44  11    47  38   9    49  40   9    55  47  12    55  47  11    51  42   9    52  43  10    51  42  10    57  47  10    63  54  12    62  53  12    57  47  12    56  46  11    59  50  10    57  47   9    57  48   9    60  51  12    58  49  10    57  48   8    58  49   8    53  44   3    57  44   9    50  41   7    45  35   7    41  31   1    49  39   4    63  51   9    70  59   6    77  67   4    68  58   6    78  65   5   144 126  24   154 135  21   134 117   6   132 116   4   135 117   7   141 123  12   137 120   7   134 120   6   121 108   5   102  91   1  
  47  40  12    43  36   9    43  36  10    44  37  10    45  38  10    45  38  12    45  38  12    48  40  11    52  43  10    55  47  11    49  40   9    51  42  10    58  50  15    56  48  12    52  44   8    54  45  12    54  43  10    61  49  11    67  55  12    67  55  13    63  51  13    62  50  13    65  53  10    62  50   9    61  49   9    64  52  12    63  51   9    65  53  10    68  57  12    65  54   9    67  54  13    61  49  12    53  44  10    48  39   6    53  44   6    68  56  10    75  64  10    82  71   9    76  65   8    85  70   4   150 130  30   157 135  25   140 122  13   142 124  13   148 130  20   152 134  25   139 122   9   134 120   7   123 112   5   102  92   1  
  52  43  14    45  38  10    44  37  11    44  37  10    44  37   9    45  38  12    47  40  11    51  42  12    55  46  12    58  50  13    53  42  12    53  42  11    60  50  16    57  47  11    54  44   9    57  47  12    57  45  12    64  52  12    69  57  13    70  59  13    68  56  16    67  55  14    68  57  10    67  55  11    64  51   9    66  53  11    67  54  10    73  60  16    77  64  19    70  58  11    72  59  14    67  54  12    61  50  13    55  45   9    57  48   6    72  61  12    79  67  13    84  73  10    83  72   7    91  74   3   147 125  25   157 133  27   151 132  26   159 142  30   166 148  38   169 148  41   152 133  22   142 127  13   131 118  10   112 100   2  
  55  46  16    48  41  13    45  38  11    43  36   9    43  36   8    45  38  10    47  40  11    53  44  14    57  48  14    60  52  15    55  44  14    55  44  12    61  51  15    57  47  11    53  43   7    58  48  13    59  47  14    66  54  13    71  60  13    72  61  15    70  58  16    70  58  17    70  59  11    70  58  13    66  53  10    65  52   8    69  56  11    78  65  19    81  69  21    70  58  10    70  57   8    66  53   9    62  52  11    57  48   9    59  51   6    73  63  11    81  70  14    87  77  11    88  79   8    97  80   4   141 118  21   155 131  28   161 142  36   169 152  40   171 153  43   173 152  45   158 139  28   143 128  14   129 115   8   117 105   4  
  58  47  15    54  43  13    51  40  11    41  35   6    40  35   5    46  40   8    50  43  10    53  45  10    58  49  13    61  51  15    52  44   8    54  46   9    60  52  12    57  48   6    58  49   6    58  49   8    60  50   8    68  56   9    73  60  13    72  60  12    73  61  11    72  60  10    72  60  10    71  60  13    66  55  10    66  55  10    72  62   9    77  66  10    77  66  12    68  55   9    70  58   8    66  57   9    63  55   9    65  55   9    70  59   9    75  62   9    83  68  10    93  79  12   103  86  11   100  79   1   141 121  21   161 139  37   175 154  46   179 160  54   179 158  51   177 157  44   162 142  27   146 128  13   131 115   3   125 112   1  
  58  48  16    53  44  13    50  41  12    47  40  11    47  40  11    49  43  11    50  40   9    51  42   8    57  47  11    59  49  13    56  47  14    58  48  12    63  54  14    58  49   8    59  50   9    59  50   9    63  51  11    68  55  10    72  59  14    70  58  10    71  59  11    70  58  10    71  59  10    71  60  11    65  55   9    66  55   9    75  63  13    78  67  11    75  63  10    68  55   9    70  58   8    70  60  12    66  55  10    66  55   9    72  60  11    78  64   9    86  72  13    99  85  16   104  87  11   105  84   2   151 131  29   167 146  42   176 155  48   179 160  51   180 159  50   176 156  42   161 141  26   147 129  14   133 117   5   129 115   6  
  59  49  17    54  45  14    52  43  13    51  44  15    54  45  14    56  47  15    54  45  11    56  46  11    61  51  15    65  52  17    59  49  16    59  49  13    63  54  14    64  52  11    67  54  13    65  53  13    67  56  14    75  64  18    75  63  17    70  59  13    69  58  12    69  59  10    70  60  11    71  61  12    67  56  10    68  55  10    78  66  16    82  71  16    74  63   9    70  58  10    72  59   7    72  60  10    67  57   9    68  56   9    76  63  12    83  68  11    89  73  13   103  88  16   110  93  13   117  97  12   159 140  38   166 145  41   179 158  50   180 161  50   178 158  45   173 152  36   159 138  21   145 127  11   130 114   2   124 110   3  
  62  54  17    57  49  14    56  47  14    55  45  12    58  47  13    61  51  16    61  50  14    63  51  14    67  55  15    66  54  14    63  50  15    60  48  10    65  53  12    70  59  15    75  63  19    70  57  15    70  58  14    75  65  16    73  63  15    69  59  10    68  58   9    69  59  10    70  60  11    70  58   7    67  55   7    66  53   8    74  62  12    81  70  13    74  61   7    72  58   9    79  67  12    75  62  10    71  59   8    76  64  12    83  70  16    91  75  15    96  80  16   106  91  15   116  99  16   132 111  25   172 150  48   168 146  41   180 159  51   181 161  47   178 158  43   174 153  36   163 142  24   153 132  17   133 115   6   125 111   4  
  67  58  17    61  53  12    59  51  12    61  50  11    64  53  13    68  56  14    65  53  10    66  53   9    69  56  11    67  54   9    65  52   9    66  53   8    73  60  14    78  66  17    80  68  18    74  60  13    75  61  13    77  65  13    75  62  11    72  60   8    72  60   8    76  64  12    78  66  14    73  62   7    72  60   8    73  61  12    75  61  10    84  72  13    81  69  11    79  66  12    93  79  18    82  68   9    79  66  10    88  76  18    96  82  22   100  85  18   107  91  20   116 100  19   120 101  15   142 121  33   186 165  60   171 150  43   175 155  46   172 152  40   173 154  36   172 151  32   167 146  27   157 137  21   135 116   6   127 110   4  
  76  66  17    71  61  13    70  59  13    73  61  12    77  63  14    77  64  14    72  60   8    74  62  10    80  68  15    79  68  14    71  59   9    78  65  13    86  73  19    87  75  17    83  71  13    78  65  10    83  71  14    84  72  12    81  69   9    79  67   9    78  66   8    81  69  11    80  68  10    78  67   6    79  66  10    82  69  17    78  66  10    87  75  13    89  76  12    88  73  14   100  85  18    88  73   9    84  72   8    94  81  18   102  87  21   106  89  17   112  95  18   121 104  20   124 105  16   151 128  35   189 168  61   166 145  38   170 150  41   171 151  38   174 154  39   174 154  34   169 148  28   157 137  19   132 113   3   123 107   1  
  88  77  21    85  74  19    85  74  20    85  74  17    89  77  19    90  79  19    86  74  14    89  77  17    95  84  23    95  84  22    85  73  15    89  77  16    95  84  21    98  85  20    95  81  16    90  75  13    95  81  17    93  79  14    90  76  11    89  75  10    87  73  10    88  74  11    85  71   8    82  70   5    79  67   7    85  72  17    81  69   9    86  74   8    89  76   8    90  76  10   102  89  16    97  83  12    91  78   8    97  83  13   107  90  19   110  93  15   114  96  14   122 106  17   128 108  16   156 133  39   191 169  60   165 144  36   173 153  44   180 160  48   184 164  49   182 161  42   175 154  34   163 143  23   137 119   4   131 116   1  
  99  88  28    97  85  25    96  84  24    97  83  21   100  87  24   102  89  25    98  84  20    97  85  19   100  89  23    96  85  19    96  84  22    94  82  18    99  86  18   106  93  23   107  94  24    98  85  15   102  89  20   104  90  19   103  88  18   104  89  20   103  88  19   105  90  24   102  87  20    93  82  12    85  74   9    94  83  24    91  79  17    93  79  12    93  81  11    97  84  15   108  92  15   107  93  19   100  87  14    99  86  13   111  95  18   115  98  16   118 100  16   127 111  21   127 108  14   156 134  40   199 177  68   176 154  46   181 160  50   182 162  50   184 163  51   182 161  44   177 155  35   166 146  26   144 126   7   142 126   9  
 109  94  25   111  93  27   107  89  23   107  89  18   120 102  28   120 102  28   118 100  24   117  99  23   114  97  19   112  95  17   107  86  21   110  90  21   114  96  22   118 100  24   118 102  25   111  95  18   112  97  20   113 100  20   111  98  20   108  93  17   106  89  17   107  91  15   108  92  14    99  88  14    90  80   8   104  90  19   103  86  13   102  85  10   103  89  14   101  87  12   112  97  16   112  96  15   107  90  10   105  88   6   118 102  18   123 107  19   127 110  18   143 122  29   138 116  24   165 145  51   197 177  80   180 161  59   179 161  55   180 162  54   187 169  61   183 165  55   176 157  42   166 147  28   149 130   9   147 129   5  
 121 107  36   119 102  32   114  97  28   115  97  25   124 106  32   123 105  29   121 104  27   122 105  27   118 101  23   113  96  18   112  92  21   113  94  20   117 100  22   119 102  22   120 105  24   115  99  21   118 102  24   120 104  26   117 100  22   110  93  16   108  90  14   109  91  15   108  90  14   104  91  18    98  87  13   114  97  25   114  96  21   110  92  16   110  93  16   111  95  17   118 102  17   118 101  19   114  97  15   113  96  12   127 108  23   131 114  24   134 116  23   148 128  32   142 122  27   171 151  56   202 182  85   185 165  65   184 165  61   188 169  64   194 175  70   189 171  63   184 164  51   175 155  40   159 140  20   155 136  15  
 128 112  37   123 107  32   119 103  29   121 103  28   127 109  33   125 107  31   124 107  29   126 109  30   122 105  25   117 100  20   117  99  21   115  97  17   119 102  20   120 104  20   121 104  22   119 102  20   121 104  25   125 106  27   121 103  20   118  98  13   119  99  13   121 100  18   118  96  19   112  94  19   107  90  14   120 102  26   120 101  23   118 100  19   118 101  18   116 100  15   123 106  18   124 105  19   123 103  17   121 101  14   131 111  22   135 116  22   139 120  24   151 131  32   145 125  28   174 154  59   203 183  86   185 165  67   185 166  65   188 169  67   192 172  69   187 167  62   186 165  56   183 163  50   170 150  36   167 148  30  
 127 111  33   123 107  29   120 104  26   120 103  25   125 108  30   125 108  30   125 108  28   126 109  28   124 107  25   122 105  23   122 103  24   116  97  17   121 103  21   122 104  22   122 105  24   119 102  22   121 103  21   130 108  20   136 116  20   142 123  22   149 127  26   145 122  28   133 108  22   121  99  19   115  94  15   124 103  24   120 100  20   125 104  22   127 107  21   119 101  12   129 110  18   128 108  19   126 105  16   124 103  13   135 112  19   138 115  19   144 123  23   153 134  32   148 129  29   177 157  60   201 181  86   183 163  66   184 164  66   185 165  66   187 168  66   182 163  60   184 163  58   186 165  57   178 158  47   175 155  42  
 129 112  30   127 110  29   121 104  24   118 100  20   124 107  27   126 109  29   126 109  27   123 106  23   123 107  22   123 107  22   123 104  27   116  97  21   120 101  24   123 104  27   124 105  28   119 100  23   127 107  22   150 128  24   156 136  25   163 142  26   169 148  31   165 143  34   154 131  30   140 116  26   124  99  15   123 101  18   122 101  17   127 106  22   126 106  18   122 103  11   134 114  20   130 110  17   128 107  16   129 107  15   139 116  20   145 121  23   152 130  29   159 140  37   156 136  35   183 163  66   201 181  84   183 163  66   184 164  66   187 167  69   187 167  68   183 164  62   185 163  61   187 166  60   181 160  51   178 157  48  
 134 118  33   131 115  31   121 104  22   119 102  20   126 109  27   130 113  31   129 113  28   124 108  22   124 108  21   125 109  22   122 102  24   118  99  22   120 101  24   124 105  26   126 105  24   120 100  16   136 115  21   163 142  26   168 147  28   171 151  28   174 154  31   176 154  36   171 148  35   157 132  34   129 104  14   119  97  11   121 101  17   123 103  18   119  99  12   121 101  13   132 113  19   128 108  15   127 106  13   131 108  15   144 120  24   149 125  25   156 134  32   159 140  38   160 140  40   185 165  68   196 176  79   181 161  64   183 163  63   183 164  65   184 164  65   182 163  61   183 162  59   185 164  58   182 161  54   181 160  51  
 139 122  38   134 118  33   126 110  26   126 110  26   132 115  30   135 119  34   135 119  34   131 115  28   131 115  27   130 114  26   125 107  23   127 109  25   128 110  26   133 113  28   132 112  23   129 110  16   148 129  26   165 145  24   175 155  34   180 160  39   179 158  39   175 154  35   169 147  28   160 135  31   136 111  18   123 103  14   118 100  17   120 102  19   116  98  13   123 103  16   130 114  18   125 106  12   125 105  12   131 110  16   143 120  24   148 124  24   153 131  29   156 137  36   160 140  41   182 162  65   190 170  72   178 158  58   180 161  59   181 161  60   182 162  63   182 163  61   183 161  58   182 161  55   181 160  53   182 161  52  
 144 126  42   140 122  38   135 118  35   133 117  33   135 119  34   138 122  35   141 125  38   138 122  35   139 123  35   136 120  32   135 118  28   141 124  34   142 124  34   145 125  33   142 124  27   145 126  23   168 149  39   178 158  38   182 161  44   178 157  42   172 151  36   170 150  33   170 149  30   160 136  30   144 120  24   132 112  21   118 100  16   122 105  23   125 107  23   125 107  21   132 116  20   125 108  13   126 107  13   132 113  18   143 120  24   145 123  22   150 128  27   154 134  35   161 141  44   183 163  66   187 167  68   177 158  56   180 161  57   183 163  63   186 167  65   187 167  65   185 163  60   181 160  54   179 158  51   181 160  51  
 149 130  50   145 127  44   136 118  33   135 118  33   146 130  45   148 132  47   146 129  44   146 128  42   150 132  46   148 130  44   145 124  41   151 130  46   152 131  45   153 132  44   148 128  33   145 125  26   175 156  50   187 167  53   182 164  50   168 150  38   173 155  43   170 150  36   171 149  33   164 142  35   146 123  26   135 112  24   130 108  25   128 107  22   127 108  16   131 113  16   135 116  21   137 118  23   135 115  19   138 118  21   146 126  27   150 130  31   151 130  30   156 134  34   164 143  41   176 155  50   183 162  57   180 158  54   179 155  54   182 160  58   181 159  57   185 163  61   184 163  58   179 159  54   179 161  54   179 161  53  
 155 137  57   148 130  47   137 119  34   138 120  35   149 131  47   152 134  50   150 133  47   149 131  45   156 137  51   155 135  48   159 139  52   160 140  53   157 136  49   155 134  45   149 128  35   149 129  32   183 162  64   201 180  85   201 181  87   196 177  83   204 185  91   198 177  82   191 168  71   177 154  56   154 131  36   138 114  27   131 109  26   134 113  28   136 117  25   137 119  21   141 121  26   141 121  26   138 118  22   143 121  23   149 127  28   152 130  29   154 132  32   159 137  37   163 141  40   170 149  44   173 152  45   173 152  47   178 155  52   184 163  59   181 160  55   182 161  56   184 163  56   182 163  54   181 163  53   178 160  50  
 164 147  64   155 137  54   140 122  38   143 125  41   155 137  51   159 139  53   158 138  51   156 136  49   162 142  55   161 141  54   169 150  58   167 147  58   161 141  52   159 139  50   153 132  39   159 139  43   191 171  78   208 187 105   212 193 113   212 193 114   218 199 119   214 193 109   206 183  97   189 165  74   162 139  46   138 115  29   127 105  20   134 113  26   140 120  28   138 120  22   148 125  31   147 124  29   145 122  26   147 125  27   152 129  31   153 129  29   151 128  28   148 126  25   159 137  33   168 147  40   167 146  37   166 144  36   173 150  44   177 155  47   174 153  44   175 154  45   178 157  48   179 160  48   179 161  48   177 160  46  
 167 149  67   159 141  59   142 124  41   145 125  42   160 138  56   160 140  54   159 139  52   155 134  47   161 140  52   161 140  51   166 147  53   165 146  53   160 141  50   160 140  50   153 132  43   163 142  51   192 171  80   206 186 104   214 197 115   215 198 116   213 195 113   209 190 105   205 185  97   194 172  80   172 148  58   146 122  34   127 105  19   131 110  23   138 119  26   137 118  23   150 127  33   148 125  31   147 124  29   150 127  29   153 129  31   152 128  28   150 127  27   147 125  25   160 138  35   168 147  41   162 141  32   155 134  25   161 139  30   166 145  34   168 148  36   171 151  38   173 153  40   171 153  38   171 154  38   174 158  42  
