P3
50 50
255
 151 142  81   163 153  96   172 162 110   168 160 110   147 141  89   147 142  86   156 152  91   138 130  70   160 150  93   178 165 112   191 179 127   200 188 136   136 124  72   122 110  57   167 156  98   171 161 100   150 139  78   166 154  94   175 163 103   151 139  81   124 113  55   134 124  67   122 113  56   102  94  43    84  76  30    79  73  31    75  70  31    73  67  30    63  54  22    51  41  13    50  43  15    51  44  19    42  35  12    50  39  14    71  55  23    90  67  25    97  72  25    99  79  29   118  99  49   117 101  50   130 118  66   149 137  85   111 100  46   117 107  54   132 123  68   122 112  53   141 129  70   132 120  65    98  87  40    81  70  29  
 144 134  73   170 159 104   164 153 105   164 155 109   149 142  91   128 121  63   145 139  76   158 150  85   132 122  59   113 101  40   148 136  84   179 168 115   160 149  95   156 145  88   157 147  86   162 153  90   167 156  93   162 147  88   155 143  83   130 118  58   107  96  34   121 110  48   130 120  58   135 125  71   120 112  59   111 104  52    81  74  29    80  72  37    71  64  35    53  46  18    61  52  23    54  47  22    43  36  13    54  42  16    75  56  22    98  69  26   113  80  31   123  94  43   137 112  61   135 117  65   148 132  80   155 143  89   128 117  61   139 130  75   137 126  70   140 127  69   158 143  85   141 127  73   104  91  44    96  84  42  
 176 166 110   193 182 135   179 167 129   171 162 119   158 150 101   173 166 110   174 166 103   168 159  94   156 147  82   146 137  74   160 148  96   179 167 115   182 172 115   167 157  97   140 130  68   141 132  67   157 147  83   152 138  76   151 137  74   137 123  60   123 109  45   128 117  50   125 114  48   118 108  49   134 125  68   150 141  85   116 108  59    84  75  38    66  59  29    67  60  34    52  45  17    49  43  18    47  40  18    61  48  21    91  68  31   114  82  32   138 101  46   181 148  93   170 143  89   167 147  93   171 155 103   170 159 104   170 159 102   157 146  89   132 120  62   138 123  64   138 123  65   128 113  59   107  93  45    97  84  40  
 160 154  97   166 160 109   186 180 134   172 165 122   158 150 105   169 159 105   175 165 105   181 170 108   196 185 123   186 176 115   181 167 118   192 179 126   169 157  99   158 147  84   123 112  48   134 122  57   147 135  68   128 115  47   156 143  75   166 153  85   150 137  69   137 124  56   118 105  37   106  95  32   118 108  49   116 105  50   116 106  55    87  79  36    57  51  19    56  50  25    48  42  16    52  48  24    59  54  31    70  60  30    99  77  34   122  89  31   132  94  31   173 139  79   197 168 112   189 169 115   172 159 106   184 173 118   179 168 111   149 137  77   153 138  79   153 137  78   137 120  62   129 112  58   121 105  55   119 104  59  
 131 129  80   106 104  56   123 121  73   182 176 135   168 160 117   123 111  62   160 147  93   173 160 102   180 168 112   180 169 113   191 177 128   170 157 103   168 157  97   160 149  84   119 108  42   132 120  55   154 143  75   155 143  71   166 153  82   173 159  89   165 150  82   156 141  74   134 119  52   117 106  39   117 106  47    92  79  27    98  86  34    91  83  33    58  53  14    49  44  23    39  34  12    39  38  17    54  52  29    70  62  30    94  73  25   139 105  41   150 111  42   159 125  65   185 158 101   160 142  87   145 132  80   156 144  91   147 135  80   132 120  61   155 141  82   147 131  72   153 133  77   151 133  80   121 104  54   107  93  46  
  62  59  29    72  71  42    51  50  22    89  83  48   190 181 141   183 170 124   164 150  98   163 147  95   167 153 101   190 177 125   185 171 122   167 154 100   160 148  87   147 136  70   149 139  70   175 165  96   168 157  89   170 158  84   167 153  81   160 146  75   158 143  74   161 146  77   135 120  53   117 107  38   125 113  54   101  87  38    93  80  29   104  97  41    65  61  18    41  38  17    35  30  10    32  31  11    59  57  35    80  74  40    88  68  19   144 110  42   161 121  47   159 126  63   173 149  90   154 137  84   117 105  53    97  85  32   131 119  64   159 145  86   140 126  65   142 126  67   164 145  89   142 123  71   118 102  52    93  77  28  
  95  91  55    64  66  35    40  46  21    59  53  17   138 128  91   201 192 151   174 161 106   143 128  68   127 116  58   118 117  54   133 126  71   161 157  88   151 146  74   121 112  53   122 110  60   142 133  72   157 148  79   147 135  75   132 120  65   170 158 105   188 175 119   162 152  88   125 115  43   102  96  32    91  85  29   100  93  38   101  90  41   101  91  47    85  77  37    51  45   7    32  31  11    30  31  17    49  49  29    78  76  37    96  86  27   142 123  57   166 143  76   158 138  79   170 149 103   150 133  78   104  89  34    95  81  37   135 124  67   142 130  73   129 115  60   168 148  90   160 139  80   144 122  65   140 117  62   138 117  64  
 128 122  73    95  93  55    51  52  26    89  86  37   130 126  65   104 100  46   148 138  91   135 122  70   113 104  52    93  90  48    91  82  45   119 112  57   128 122  55   130 122  61   145 133  82   154 143  86   172 162  99   162 153  88   169 159  99   201 188 133   175 162 107   138 127  66   117 105  39   124 114  52    97  88  29    86  75  19    97  86  34    95  86  38    93  84  43    76  71  33    53  52  22    45  45  21    58  58  30    69  66  25   109  99  45   162 143  87   182 161 104   166 147  88   162 144  95   149 133  79   117 101  50   106  92  46   137 126  70   123 112  57   137 124  71   154 138  81   161 141  83   141 120  64   150 130  76   151 134  82  
 139 130  69   115 109  53    86  81  31   106 102  37   150 150  80   112 112  55   108 103  57   154 145  99   105  99  52    54  52  13    70  58  34    83  75  30   105  98  38   115 106  47   152 140  88   153 141  89   136 126  67   161 153  87   143 134  72   140 128  72   141 128  73   148 133  75   133 118  58   129 114  52   133 119  58   113  98  40    96  83  30    92  82  34    79  73  31    69  65  27    68  66  27    66  63  28    85  81  45    92  88  45   142 132  84   175 158 112   176 157 109   167 153  95   152 136  84   137 124  72   118 105  53   131 118  70   140 129  74   131 120  65   135 124  70   124 108  53   148 131  75   153 136  80   152 135  81   127 110  56  
 175 162 100   168 158  93   157 148  80   130 125  54    93  92  34   129 131  84   151 151 102   150 145  96   138 134  84    83  84  27    68  57  26    93  84  37   120 111  54   126 117  61   159 150  98   135 123  71   120 109  54   121 112  53   109  99  40   119 109  50   138 125  67   144 128  69   146 130  70   132 114  52   137 119  55   125 107  45   108  93  35    86  74  25    75  68  28    60  56  21    68  63  25    85  80  41   118 112  70   141 133  87   175 164 118   171 158 114   158 144 100   161 150  97   145 133  83   126 114  66   116 104  56   142 130  80   134 122  70   130 116  61   148 131  75   118 101  42   137 118  60   145 124  67   150 129  72   148 127  70  
 130 114  56   175 159 103   191 177 120   142 133  72    83  79  29    77  79  39   114 115  67   137 133  82   157 154  99   113 114  49   119 110  55   145 136  79   152 143  87   164 155 102   157 147  96   124 115  59   117 108  52   125 115  65   142 131  78   148 138  79   161 150  88   127 113  50   123 108  43   139 121  57   130 110  47   121 103  39   124 109  51    94  82  33    73  66  25    59  54  21    61  54  25    85  77  39   114 105  59   147 138  87   181 171 122   177 166 120   165 155 111   131 124  80   110 101  58    95  86  43    94  83  37   117 105  57   133 121  70   139 120  62   147 124  64   141 119  59   143 120  60   135 111  51   146 120  59   153 127  66  
 134 119  55   124 109  52   174 159 109   170 155 102   126 118  63    74  76  26    69  69  24   120 115  64   174 167 112   176 169 121   160 153  86   170 162 100   175 166 110   181 171 119   117 107  56   100  91  34   124 115  58   158 146  98   165 152 100   185 173 113   174 163  99   149 138  74   155 143  80   139 121  62   137 119  57   122 104  42   114  99  41   105  93  42    74  65  25    62  56  26    53  47  22    70  61  24    96  86  36   137 124  71   177 165 115   167 157 108   132 125  82    58  54  21    59  53  20    90  82  44    94  85  40   111  98  55   129 116  67   153 131  74   145 120  63   152 127  70   154 132  75   161 138  80   162 137  78   156 128  68  
 170 156  95   118 107  47   132 122  64   194 176 124   189 177 123   145 144  91   120 119  70   160 153 100   191 178 128   225 209 172   200 191 134   152 143  87   139 130  76   157 148  93   131 122  67   119 110  53   171 160 105   199 183 131   171 158 101   163 152  90   157 146  84   131 121  62   110  98  44   107  93  38   135 120  61   119 103  43    97  83  26    91  79  30    69  60  20    47  40  10    46  40  17    70  62  21   106  95  39   147 133  77   172 158 109   145 135  89    78  73  33    30  28   7    31  27   6    74  69  33    90  80  38    91  79  40   100  87  38   146 126  73   163 141  91   137 117  67   133 115  65   141 122  72   139 118  66   162 139  85  
 221 207 160   176 167 114   114 109  51   160 140  90   213 195 154   203 200 153   186 184 126   197 188 132   198 181 135   218 199 156   209 196 154   164 153 107   133 124  72   152 143  86   185 176 117   181 172 115   178 166 112   183 166 108   176 162 100   149 138  74   128 118  56    80  69  17    66  55   9    78  65  14    98  86  28   112  97  38   107  95  37   103  92  42    77  68  28    49  42  12    45  43  14    78  72  27   117 106  46   150 134  76   168 152 105   158 145 103    70  65  29    35  34  19    28  26  12    64  60  24   117 109  64   102  89  53   115 102  53   128 112  61   111  94  47    90  76  31    80  67  23    84  70  26    92  77  29   132 114  64  
 189 170 117   206 191 143   140 131  74   139 130  68   191 171 119   187 168 118   213 199 160   202 186 132   180 161 101   184 173 113   180 165 103   181 167 109   168 157 100   175 165 104   182 171 107   183 167 109   190 172 123   197 184 136   187 175 117   174 159 102   140 124  72   108  91  39   106  90  30   114  99  41   112  97  38   109  98  32   120 109  44   112 101  44    93  81  33    76  64  21    60  51  21    79  69  23   124 112  50   172 158  96   180 169 114   158 151 104   105  97  54    82  67  33    64  50  20    99  82  56   160 138  97   117 100  59   106  99  57    92  82  39    82  70  28    83  75  32    73  63  21    85  72  29   106  90  46   121 103  57  
 181 161 102   189 171 114   147 134  72   127 115  55   156 137  81   177 160  97   208 197 149   197 183 131   185 166 114   203 189 137   176 161  96   184 171 111   213 201 142   200 189 124   163 150  82   151 134  73   199 181 128   197 182 138   188 173 123   213 197 145   193 176 121   155 139  75   148 135  56   150 138  61   130 116  51   123 111  51   135 123  65   108  98  41    73  62  16    82  71  38    73  68  26    83  73  24   144 127  75   194 172 124   217 194 150   175 154 107   118 106  52   104 100  40   122 113  50   150 135  75   143 125  76   109  93  49   115 101  56    99  85  50    93  80  46   106  94  55   114 100  60   110  94  49   110  90  38   141 119  59  
 154 131  77   147 128  74   172 156 101   180 166 113   166 148  92   158 146  76   150 143  91   141 129  80   183 163 118   187 172 124   197 179 130   206 189 143   212 195 150   179 162 112   181 163 108   165 145  95   173 153 108   165 148 102   154 139  79   163 149  79   185 170 100   176 157  92   141 121  58   114  98  29   121 108  37   129 116  49   108  96  42    77  66  28    59  49  13    80  72  31    78  70  23    85  73  22   153 136  86   208 188 143   197 175 134   135 119  69    89  78  31    57  53  22   102  87  41   152 133  78   100  80  47    97  77  46   119  98  59   127 110  73   126 112  77   143 128  97   152 135 100   140 120  77   134 113  62   144 122  65  
 156 141  76   157 144  77   167 157  93   203 191 136   157 141  89    96  86  26    63  58  13   107  98  49   201 183 132   176 160 104   174 158  98   186 169 114   212 195 141   171 155  95   164 149  82   159 141  79   167 148  93   175 158 107   165 151  92   154 139  75   164 148  79   138 120  49   134 114  42   124 109  37   117 101  38    95  79  31    68  53  13    62  51  13    63  53  16    67  59  22    74  61  15    83  70  16   149 137  80   183 173 120   110 105  57    71  72  21    39  40   4    50  40  16   106  90  45   155 136  78   145 126  83   142 124  82   162 146  98   167 154 102   154 141  98   131 116  87   106  90  62    98  83  47   102  87  50    85  69  36  
  74  68  15    80  76  21    80  77  23   166 156 104   170 154 110    83  73  32    44  43  12   118 113  64   179 165 105   124 110  43   119 105  41   167 153  92   174 158  98   135 119  54   123 109  38   118 103  37   136 120  59   157 141  82   135 120  61   153 142  80   160 146  81   146 127  61   135 112  48   109  91  30    96  79  29    77  59  22    71  56  22    68  54  17    72  60  17    68  58  12   101  85  33    94  80  22   140 128  67   177 169 112   103 100  48    87  87  35    89  86  34   102  88  37   120 109  48   165 150  91   162 146  88   106  91  48    87  80  44   105  95  52    94  80  41    62  49  15    50  40  12    47  38  12    44  38  12    48  42  16  
  24  21   2    26  24   2    37  36  11   120 110  68   204 188 153    92  83  54    31  33  13    87  84  40   156 142  81   136 122  52   146 135  73   155 142  86   130 113  60   127 110  52   108  92  30   121 106  47   139 125  67   154 141  79   124 113  54   136 126  65   148 136  74   159 140  84   118  93  45    77  57  11    81  63  15    85  67  20    91  74  32    80  62  23    90  74  26    99  84  24   154 138  76   128 113  48   136 119  58   187 167 115   187 166 120   173 153 103   182 162 110   163 146  95   116 103  57   109  93  56   148 131  88    80  66  40    31  27  19    41  32  18    83  72  45   112 100  62    84  73  40    57  47  22    58  53  22    72  71  26  
  23  23   6    21  19   4    26  26   1    93  83  47   223 208 174    90  86  53    21  25   6    44  42   6   121 107  54   142 126  65   173 166  95   173 163 100   167 153  94   154 138  77   132 118  54   132 121  59    96  84  28    98  85  35    66  53  18    48  36   6   124 110  67   177 161  99   146 125  53   120 102  36   106  89  33    93  75  25   105  86  33   108  89  27   121 101  37   137 117  57   175 159  97   163 146  76   146 129  60   157 137  76   199 176 127   213 189 141   158 137  88   145 135  88   116 102  68    87  72  41   105  92  55    85  77  44    41  36  17    37  29  20    36  28  10    80  70  34   125 110  67   121 104  61   119 102  57   154 138  87  
  36  34  23    30  27  18    33  31  10    96  85  55   212 197 164    72  70  27    22  30   3    50  49  16   102  87  45   132 115  62   144 138  78   106  96  43    92  77  30    73  57   8    94  81  29    84  71  26    56  44   2    59  47   4    49  38   6    49  40  11    79  67  24   115 101  41   156 137  71   114  99  30   112  98  27   120 105  33   127 109  40   133 113  45   139 117  49   153 129  60   158 137  81   169 153  83   157 145  64   132 123  46   137 126  64   187 175 128   114 106  61    88  87  46    73  60  33    87  70  43    55  45  16    64  58  23    52  43  18    55  51  31    55  50  30    61  48  20    97  77  29   137 114  52   138 108  54   133  99  60  
 119 109  48    92  83  28    43  39  15    89  81  40   162 153 104    48  42  21    23  20   1    45  40  13   106  97  48   158 144  84    93  87  34    36  36   3    25  28   8    32  32   5    73  65  30    51  41  14    57  43  20    64  47  14    39  27   2    77  72  37    68  64  21    69  58  14   131 113  54   151 129  66   137 116  51   141 124  52   139 122  51   147 130  60   145 126  52   153 132  54   164 144  76   154 136  69   127 114  48   101  93  30   101  92  33   114 105  48   136 126  74   101  91  51    85  81  34    74  72  24    45  33  14    53  43  24    44  44  16    36  39  13    62  56  31    83  62  28   120  89  40   141 113  56   110  93  43    69  60  23  
  81  83  36   115 117  47    83  83  26    65  52  11    99  86  45    37  30  12    23  19   8    33  27  11    86  75  34   162 145  94    66  57  30    23  21   2    47  46  18    61  51  17    76  62  25    46  37   9    47  40  15    63  46  12    55  44   7    68  60  19    53  44  12    52  37  13    90  75  33   173 154  93   163 142  75   114  97  23   127 110  38   149 131  62   138 118  48   166 147  70   169 150  83   160 143  78   109  96  31   110  99  37   149 139  80   150 140  81   152 141  86   128 118  69   101  97  48    77  74  29    48  37  18    52  43  27    47  45  28    30  31  13    36  29  15    56  37  22   101  77  43   114  92  44    75  59  16    48  35  10  
  22  24   3    42  42   5    90  83  25   109  90  38   129 117  56    52  47  12    25  23   7    26  23   3    82  74  19   135 119  49    44  33   7    29  24   4    52  45  20    99  81  42   112  90  43    48  40   1    42  39  10    68  52  21    88  74  27    90  78  26    45  30   1    47  31  11    77  65  24   147 129  67   157 138  67   114  96  22   117  99  28   148 130  63   149 130  62   159 139  66   175 157  94   175 158  96   121 109  46   132 121  59   182 170 110   187 171 115   188 173 115   157 148  93    81  76  36    66  61  30    67  55  39    57  48  28    48  45  23    30  28  12    25  21   9    64  53  42    73  59  37    98  83  49   111  97  62    72  56  29  
  37  26   6    65  55  29   152 134  89   206 181 132   167 151  86    61  55  14    27  25  13    28  23   8   100  91  34   133 116  40    72  57   2    53  45  15    37  28   8    72  53  13   119  95  35    84  73  17    44  38   3    59  44  10    99  83  27   122 104  40    83  66  19    57  43   3    75  69  11   117 103  34   150 132  58   141 123  47   126 108  38   157 138  75   162 142  78   134 115  46   181 162 103   183 165 105   138 123  60   127 113  50   168 152  92   194 175 117   169 150  96    96  82  42    46  39  13    49  43  17    83  74  48    76  69  33    59  56  25    39  36  17    40  38  18    51  51  25    36  35  12    56  50  28    99  88  57   130 117  73  
  77  61  14   140 129  76   175 161 108   159 137  88   164 148  78    88  82  24    51  48  14    50  44  10   132 124  59   188 173  98   139 119  40    85  75  24    44  38   5    78  65  18   151 131  64   161 146  80    97  87  34    86  74  21    89  76   7    92  75   1   114  95  27    87  75   7   110 103  33   160 147  77   150 133  59   139 121  45   160 142  72   184 165 101   157 138  75   148 131  62   176 156  97   146 128  65   123 106  42   128 113  48   159 141  79   193 172 115   151 130  80    61  48  16    32  25   3    56  53  23   109 101  64    93  85  40    72  65  33    52  45  22    55  51  24    28  31   5    26  29  11    36  35  20    49  42  17   103  89  51  
 161 150  90   144 139  82    72  69  21    51  38   2   120 110  38   115 109  36    96  91  25   113 105  44   135 124  51   173 156  88   172 150  80   146 133  67   127 120  57   119 111  47   168 155  90   180 162  98   179 163 101   153 144  71   149 137  58   143 128  50   122 105  27   128 115  39   163 151  87   184 170 105   160 143  71   141 123  49   168 150  80   201 181 120   172 153  91   144 129  60   198 177 114   136 116  50   119 101  32   148 131  61   165 145  82   196 173 116   159 138  83    77  69  23    44  40  15    35  30  10    70  58  35   111  97  58   104  91  51    96  84  47    56  49  21    26  22  12    22  22  15    33  34  19    39  34  16    44  32  16  
 217 205 155   107  98  50    67  63  16    83  75  28    95  86  26   143 132  78   166 153  96   198 183 130   157 141  84   148 131  80   181 168 112   149 132  68   153 139  66   156 147  73   137 128  60   131 117  56   150 134  75   166 155  90   177 165  96   202 188 122   195 178 108   200 183 109   214 194 136   194 177 115   178 162  92   162 143  70   174 153  86   191 171 109   163 145  82   123 107  39   189 165  98   150 128  59   123 104  30   141 124  51   166 147  80   196 174 116   146 128  72    87  82  35    57  55  31    45  42  24    47  34  16   105  89  47   157 142  86   126 113  58    63  50  13    41  32  18    38  35  24    43  41  23    42  37  21    44  36  30  
 226 211 169   143 129  58   131 122  45   154 152  83   180 175 109   202 188 140   209 190 140   197 176 126   161 145  84   143 129  68   201 196 143   182 164 108   160 137  73   137 122  50   143 135  63   162 151  90   194 179 127   204 190 144   191 178 126   205 189 138   189 173 113   185 165  96   217 193 134   205 186 125   200 186 116   181 163  91   180 160  93   180 160  98   145 128  64   118 104  34   149 122  53   147 124  51   130 109  34   132 114  39   143 124  58   157 135  78    91  72  26    48  41  17    38  38  16    52  52  19    81  72  35   125 108  53   174 156  95   174 158  93   161 148  94    94  83  52    57  51  28    48  45  22    41  37  17    36  30  16  
 208 196 141   153 131  61   131 108  35   163 141  78   198 177 111   192 175 103   133 120  50   101  89  22   137 128  58   118 111  36   172 151  96   197 180 125   192 179 127   184 173 114   191 178 109   207 185 134   209 184 149   182 170 120   190 178 125   224 210 148   158 142  81   151 135  63   165 148  73   187 169  99   209 190 121   193 174 106   193 172 105   198 176 108   166 143  73   128 105  35   105  90  27   128 106  28   113  92  25   109  91  29   133 108  44   143 117  69    72  58  20    40  34   9    37  31  15    52  46  23    81  73  36   104  89  41   139 119  59   156 134  84   186 162 114   166 142  95   134 111  77    91  75  49    47  41  16    33  35   8  
  99  95  38   140 126  55   131 113  48   156 140  77   143 126  69   154 137  82   168 152  88   148 134  68   180 166 107   169 154  99   157 148  74   172 160  96   215 198 152   238 222 175   203 189 127   194 182 120   194 182 127   132 122  59   130 119  55   180 167 102   149 134  64   145 128  58   131 113  42   141 123  48   173 155  83   198 179 111   204 182 120   193 172 107   184 162  91   127 105  29    94  76  26   122 101  35   110  89  28   101  79  29   129 108  46   117  98  42    85  69  35    56  44  21    53  41  25    54  45  28    40  29   9    50  38  11    78  65  30    95  78  38   103  82  36   123 101  55   163 141  98   153 137  95    74  64  31    41  33  18  
  36  35   8    85  76  20   104  91  26   110 100  33   119 108  51   134 121  67   178 164 102   209 194 133   233 214 162   228 207 160   139 129  58   129 118  48   165 151  91   156 141  86   155 144  81   169 159  98   171 161 101   172 163  87   113 103  28    90  78   9   128 115  38   123 108  37   132 115  46   154 136  63   178 159  90   199 180 111   171 151  82   164 144  74   166 146  74   133 111  36    88  67  10   104  85  25   118  97  37   101  78  32   116  97  52    80  65  20    66  49  22    71  57  28    59  44  20    71  58  41    49  37  23    40  33  15    41  36  21    62  51  24    88  74  30   106  89  37   116  96  42   135 118  62    98  82  40    55  40  24  
  25  26  10    73  62  24   148 133  83   162 150  94   136 127  61   144 135  68   167 154  98   139 126  74   147 134  80   186 171 116   170 147  79   125 109  36    88  76  14    75  65  13   128 116  57   160 144  79   155 138  72   169 158  86   133 120  49   101  89  20   125 111  38   159 144  74   187 172 103   203 186 123   188 170 105   142 124  49   129 112  31   135 117  37   150 130  59   143 122  56   105  85  16   101  85  29   125 106  43   114  91  35    81  65  29    60  46  14    88  72  38    75  65  30    45  32   6    59  44  25    71  62  36    55  52  21    41  41  22    48  40  24    76  67  29   134 124  65   131 113  58   139 120  64   139 119  67   126 106  68  
  26  26  10    89  74  35   200 182 136   196 180 133   130 119  56   113 103  46    67  55  22    53  44   6    76  72  19    66  64  10   135 108  57   175 156  92   139 125  64   136 123  67   184 169 107   202 181 118   175 154  96   181 167 109   180 166 107   172 158  94   186 172 111   171 157  91   160 146  79   191 174 114   165 147  83   113  96  23   136 119  39   149 131  53   136 117  45   112  91  28   110  89  27    90  73  18   106  86  25   126 105  37    85  71  20    75  61  20   121 110  57    69  64  34    37  27  10    39  28  13    82  74  39    84  78  34    58  53  26    50  43  25    45  39   8    96  87  41   130 114  69   156 137  85   164 145  86   164 144  85  
  52  47  20   162 148  97   161 146  98    99  85  47    81  67  28    56  42  17    44  33  20    63  58  32    64  64  25    33  33   4    78  62  27   164 147  99   160 142  87   142 124  63   174 157  89   170 151  91   165 145  95   196 179 128   198 181 128   173 157  97   165 150  94   143 129  66   127 113  48   136 121  56   116  98  32   121 103  37   155 136  70   193 174 106   167 148  77   100  82   9   103  83  24   119 102  34   107  86  23   119  98  29   118 100  37    91  73  23   101  89  36    57  51  23    43  35  23    40  31  21    64  57  27   112 103  62    93  80  48    71  65  34    42  36  11    37  26   3    70  56  21   131 115  68   158 140  85   160 141  83  
 127 119  64   154 142  88    65  56  27    36  30   7    34  27   9    34  27  13    41  37  16    58  56  32    37  36  15    31  29  14    69  66  25    60  53  15    51  40   9    72  59  19   122 111  47   122 112  41   155 143  81   166 150  90   172 156  97   181 165 106   147 132  74   152 138  80   174 162 103   167 153  89   122 107  42   122 102  44   175 157  98   193 174 112   177 159  89   151 133  57   146 129  69   169 150  83   129 108  42   120 100  33   155 131  69   128 103  48   113  94  42    99  86  43    53  45  14    34  29   6    42  38  13   112 104  72   116 101  63    83  76  36    48  43  17    40  31  13    75  65  32    91  79  43    87  71  37   106  89  45  
 163 153  95    68  56  16    32  30  10    26  27  14    25  25  14    34  36  12    68  70  28    52  51  24    31  25  15    45  40  19    63  61  28    28  29   1    25  27   3    75  78  35   134 134  64   165 156  84   166 149  88   135 118  49   146 131  63   192 176 116   204 190 127   198 183 128   200 187 135   189 174 115   197 181 121   164 148  88   169 151  89   167 149  85   165 146  79   193 174 105   223 209 157   212 186 143   185 162 101   132 112  44   134 105  44   147 118  52   145 125  58   172 155  88   108 100  44    65  65  22    35  34   7    72  64  37   129 116  69    94  87  43    63  57  30    44  39   9   110 103  66    79  67  45    46  31  17    59  44  10  
 153 144 102    49  43  14    31  28   8    27  30   7    41  29  11    93  68  39   103  86  41    43  39   9    38  37  12    82  81  27    89  78  28    50  48   2    50  51   6   126 117  70   192 174 117   199 180 110   161 145  73   146 137  74   169 156  99   214 197 145   223 203 152   181 162 105   164 148  86   174 159  92   199 182 126   219 200 158   175 155 102   140 123  51   170 152  76   151 132  63   178 159  97   217 197 146   185 165 109   147 128  62   110  89  23   125 104  39   138 114  46   174 145  89   200 173 124   162 147  93    91  88  34    59  55  11   113 100  48   123 117  59    65  62  18    99  91  55   158 151 115    58  52  28    28  25  11    27  28   7  
 161 151  99   109  98  55    61  51  19    78  71  28   124 109  60   159 135  78   140 126  65    95  90  42    83  77  29   129 115  45   146 128  67   136 129  49   152 147  67   204 187 132   236 211 175   221 197 147   181 167 102   174 167 104   150 140  78   160 144  84   198 182 120   166 151  84   142 129  58   169 157  83   167 152  93   227 208 165   187 170 118   134 119  44   152 137  56   132 116  40   161 144  76   181 162 104   146 127  65   158 139  66   148 129  55   127 107  36   114  95  22   129 107  49   192 169 118   216 194 143   168 153  94   106  98  39    68  58  15   125 113  51   120 105  46   192 174 131   135 118  82    41  27   6    27  17   5    26  20   2  
  86  74  32   147 134  85   148 135  83   119 109  49   107  91  38    80  60  14   111 100  46   147 144  83   162 152  95   179 154 103   174 155  97   195 180 126   215 198 148   226 207 156   201 183 128   151 140  78   105  99  37    84  77  18    92  83  22    99  86  23   137 123  58   184 170 105   166 152  87   172 161  91   178 166 107   217 200 156   214 199 144   163 149  75   120 107  24   133 120  42   178 160  97   182 162 109   160 141  82   147 129  57   143 123  52   144 124  55   112  95  26    84  72  12   153 136  74   223 198 147   207 179 136   179 161 113   104  99  47   107 100  26   186 172 109   195 181 137    73  60  29    42  34  12    32  29   8    50  51  21  
  29  23   1    66  57  20   116 107  57   117 112  54    96  90  32    62  51   1    81  77  18   148 150  74   201 197 126   234 217 167   227 216 163   154 144  83   132 121  54   123 113  49    73  66  13    44  46   2    44  45   1    73  65   8    97  89  19   100  90  18   144 134  63   186 175 108   183 168 107   192 178 124   193 180 130   192 179 127   213 198 139   189 176 107   165 152  79   162 148  75   169 151  88   182 163 108   188 169 107   156 139  64   131 113  39   145 127  55   132 117  46    98  88  26   138 128  60   197 178 117   210 178 140   209 183 147   171 165 106   145 139  73   199 190 133   138 131  78   102  97  48    93  90  43    96  93  48   126 124  76  
  20  22  10    19  20   2    29  28   5    57  54  22    99  94  41   113 103  35   150 139  76   181 174 109   194 188 120   190 180 120   156 146  92   142 130  62   119 106  32   110  99  37    79  74  18    84  87  19   117 121  42   144 136  59   148 141  61   159 151  71   154 145  68   171 159  91   206 192 133   236 220 182   237 223 180   208 196 136   201 187 123   197 182 121   203 187 127   191 175 111   198 181 113   174 155  97   168 150  85   168 151  73   154 136  62   147 128  58   137 119  50   117 103  46   111 101  42    86  75  13   135 115  54   182 161 104   196 180 133   198 182 137   177 164 112   142 133  67   162 154  82   160 149  80   159 140  84   136 114  71  
  14  18  16    20  22  10    26  26   4    54  43  12    98  83  28   156 138  69   208 187 129   216 198 142   163 148  88    93  80  22   106  91  30   156 137  72   180 159  91   186 170 102   174 162 101   199 185 137   229 212 164   221 206 145   202 190 127   198 187 124   190 177 118   203 187 132   228 210 159   246 227 190   236 219 175   218 204 141   204 189 123   201 184 125   192 173 116   180 162 100   222 202 150   203 182 138   184 164 113   188 170 107   201 182 125   208 188 138   195 175 122   135 118  61    70  60   7    48  40   1    90  80  17   174 160  85   201 180 130   198 181 136   125 116  62    79  73  22    47  42   1    58  48   6    79  61  23    80  55  24  
  24  23  17    36  34   9    61  56  11   121 106  38   176 159  79   190 177 100   186 171 106   174 158  97   166 151  85   151 136  70   181 169 107   198 181 120   199 179 123   205 188 138   212 194 150   224 197 151   228 199 151   208 188 136   213 195 143   218 202 149   220 205 150   222 205 145   206 187 125   182 165 104   189 173 113   199 183 123   201 183 120   199 180 115   181 161  94   167 148  80   184 164 114   225 203 162   212 191 144   202 183 126   210 189 141   231 209 170   230 208 166   168 150  97   102  87  23    72  60  10    95  85  32   152 141  69   170 149  86   177 162 102   103  94  37    46  43   7    31  29  15    38  34  19    60  52  26    70  57  29  
  46  41  13    79  70  26   117 103  42   144 125  48   160 147  63   114 111  35    64  62  11    52  45   8    87  76  31   168 157  97   150 146  91   111 101  41   105  95  31   133 127  63   192 183 118   206 182 113   168 140  69   142 122  56   123 107  41   126 111  42   126 112  36   173 158  70   157 141  46   145 130  39   192 175 104   230 211 155   220 200 143   168 150  78   173 155  78   178 158  85   148 131  59   170 152  90   153 136  69   163 146  71   179 161  94   198 179 123   200 182 133   198 180 138   183 164 102   143 128  65   125 117  53   133 123  55   161 141  79   162 135  75   154 131  71   106  93  46    47  41  13    42  38   8    60  53  15    65  52  20  
  70  53  17   124 105  39   139 126  47   121 111  39    83  76  15    47  46   6    32  33  11    34  30   6    80  69  22   151 135  61   154 145  73   112 104  41    76  74   8    90  80  11   142 118  39   128 112  43    83  81  27   109  99  29    95  85  22    86  76  17    98  89  12   145 134  35   155 139  42   200 180 105   221 202 142   231 214 158   222 208 144   188 174 111   174 160  94   157 144  67   165 147  81   139 126  52   108  97  23   110 101  33    87  77  15   119 109  39   139 126  52   154 132  65   157 138  65   138 122  42   188 173 109   214 199 144   189 175 132   169 148 100   160 140  81   152 133  75    94  79  31    57  45  12    58  50  21    74  68  37  
 142 129  78   109 100  33    82  71  19    74  62  10    75  67  15    70  67  18    61  60  10    81  76  23   106  93  36   104  85  27   191 168 103   183 167 118    94  93  42    59  55   4    84  63   4    93  78  18    61  53   5    86  72  17    80  67  13    99  87  24   118 110  24   124 113  19   128 111  29   185 166  96   190 170 106   155 140  73   172 159  89   202 188 124   187 171 112   134 115  56   151 133  61   137 122  46   111  99  25   118 107  43    87  74  18    90  75  16   114  98  33   130 109  44   135 116  51   106  87  23   135 117  67   199 183 132   205 190 143   186 172 124   171 159 102   151 139  73   134 123  58   102  90  32    74  60  10    96  82  35  
 197 182 146    60  57   8    39  28   7    67  55  26    70  59  27    60  51  11   115 105  50   138 128  57   110  97  25    90  73   6   130 110  52   189 173 127   197 188 129   149 137  72   134 116  48   142 135  65   100  99  33   120 107  28   126 115  35   135 124  45   167 155  84   190 175 114   160 143  80   162 143  75   148 130  57   138 121  49   152 137  71   153 137  76   181 163 106   194 172 121   141 121  47   150 133  57   139 126  53   147 133  66   130 116  53    95  80  12   103  88  15   120 100  30   121 101  39   108  89  30    80  59  14   101  85  30   150 136  75   208 198 150   210 204 156   153 144  86   127 115  47   146 131  58   131 111  45   147 125  68  
 229 215 174   128 123  62    75  66  20    79  69  30    66  54  14    71  57   9   151 135  73   144 127  54   162 145  72   167 150  80    95  83  27   109  97  52   137 127  65   156 140  76   202 181 128   213 202 149   205 198 147   216 196 147   219 201 150   208 191 136   223 206 161   241 223 186   203 187 138   166 147  79   152 134  58   172 155  87   183 163 112   191 171 117   180 160  98   197 175 116   202 180 123   196 176 119   203 186 127   168 152  91   162 147  80   143 126  51   162 145  66   151 133  57   125 106  37   116  98  30   107  89  30   112  97  27   158 144  67   213 203 155   244 236 200   216 204 165   147 133  80   139 122  57   175 152  88   198 172 118  
