P3
50 50
255
  24  24  16    23  24  16    24  25  17    24  24  18    26  25  20    26  25  20    24  23  18    23  22  17    22  21  17    21  20  16    19  20  15    20  21  16    22  23  18    24  25  20    24  25  20    24  25  20    25  26  21    27  28  22    26  27  21    28  29  23    27  28  22    25  25  18    25  26  18    25  26  19    24  25  19    22  23  17    22  23  17    26  27  21    26  27  21    24  25  19    23  24  18    22  23  17    22  23  17    25  26  20    26  27  21    24  24  19    21  23  16    23  26  19    25  28  21    26  29  22    26  29  22    24  27  20    23  26  19    23  26  19    24  27  20    23  26  19    24  27  20    23  26  19    24  27  20    29  32  24  
  26  26  18    26  26  18    25  26  18    24  23  17    25  24  19    26  25  20    25  24  19    24  23  18    22  21  17    20  19  15    19  20  14    21  22  16    24  25  19    25  27  20    26  27  21    26  27  21    26  26  21    27  28  22    26  27  21    28  29  23    28  29  22    26  27  19    27  28  20    25  26  19    24  25  19    23  24  18    22  23  17    26  27  21    26  27  21    24  25  19    22  23  17    23  24  18    23  24  18    22  23  17    22  23  17    22  23  17    23  24  18    23  24  18    24  25  19    24  25  19    25  26  20    25  26  20    25  26  20    25  25  20    25  26  20    25  26  20    26  27  21    26  27  21    25  27  20    28  29  23  
  29  29  21    28  28  20    27  28  20    23  24  16    25  25  17    27  26  21    26  25  20    26  25  20    23  22  17    20  19  14    22  23  17    25  26  20    27  28  22    29  30  24    28  29  23    26  27  21    26  26  21    27  28  22    26  27  21    28  29  23    28  29  23    27  28  20    27  28  20    24  25  18    24  25  19    23  24  18    23  25  18    26  27  21    26  27  21    23  24  18    22  23  17    22  23  17    21  22  16    19  20  14    19  20  14    21  22  16    22  23  17    22  23  17    20  21  15    21  22  16    23  24  18    25  26  20    25  26  20    22  23  17    21  22  16    22  23  17    23  24  18    22  23  17    21  22  16    23  24  18  
  29  29  21    29  29  20    27  27  19    25  25  16    26  26  18    27  27  19    26  25  20    26  25  20    24  23  18    21  20  15    26  27  21    27  28  22    30  31  25    29  30  24    27  28  22    24  25  19    24  25  19    26  27  21    25  26  20    26  27  21    26  27  21    25  26  18    26  27  19    23  24  16    23  24  16    23  24  16    23  24  16    25  26  18    25  26  18    22  23  15    24  24  19    19  20  14    16  17  11    16  17  11    19  20  14    18  19  13    18  19  13    20  21  15    18  19  13    19  20  14    21  22  16    23  24  18    23  24  18    19  20  14    17  18  12    17  18  12    18  19  13    18  19  13    17  18  12    18  19  13  
  28  28  20    25  25  18    25  25  17    25  25  17    26  26  18    26  26  18    25  24  17    25  24  19    24  23  18    22  21  16    26  27  21    27  28  22    28  29  23    27  28  22    25  26  20    22  23  17    22  23  17    23  24  18    22  23  17    23  24  18    22  23  17    21  22  14    22  23  15    21  22  14    22  23  15    22  23  15    22  23  15    23  24  16    23  24  16    20  21  13    22  22  17    17  18  12    14  15   9    14  15   9    16  17  11    16  17  11    16  17  11    19  20  14    18  19  13    19  20  14    20  21  15    20  22  15    20  21  15    19  20  14    16  17  11    15  16  10    15  16  10    15  16  10    15  17  10    18  19  13  
  24  24  16    22  22  14    22  22  14    24  24  15    25  25  17    24  24  16    22  22  14    22  22  15    22  21  16    21  20  15    22  23  17    22  23  17    23  24  18    22  23  17    22  23  17    21  22  16    21  21  15    21  20  15    19  18  13    20  19  14    20  19  14    18  18  10    20  20  12    20  20  13    22  22  14    22  22  14    21  21  13    22  22  14    21  21  13    20  20  12    18  17  12    18  17  12    17  16  11    15  13   8    14  13   8    15  14   9    16  16  11    18  19  13    19  20  14    19  20  14    19  20  14    18  19  13    17  18  12    18  19  13    14  15   9    12  13   7    12  13   7    13  14   8    14  15   9    17  18  12  
  21  21  13    19  19  10    20  20  12    21  21  13    22  22  14    22  22  14    20  20  12    20  20  12    19  18  13    17  16  11    18  19  13    18  19  13    17  18  12    17  18  12    17  18  12    18  19  13    18  19  13    18  17  12    16  15  10    17  16  11    17  16  11    17  17   9    19  19  11    20  20  12    21  21  13    21  21  13    19  19  10    19  19  11    19  19  11    18  18  10    16  15  10    17  16  11    18  17  12    17  16  11    16  15  10    16  15  10    15  15  10    16  17  11    18  19  13    19  20  14    17  18  12    16  17  11    17  18  12    16  17  11    13  14   8    11  12   6    12  13   7    13  14   8    14  15   9    15  16  10  
  19  19  11    16  16   8    19  19  11    19  19  11    20  20  12    20  20  12    19  19  10    18  18  10    16  16  10    13  12   7    18  19  11    15  17   9    14  15   7    13  14   6    13  14   6    14  15   7    15  15   8    16  15  10    14  13   8    16  15  10    17  16  11    16  16   8    19  19  11    20  20  12    21  21  13    20  20  12    18  18  10    17  17   9    17  17   9    17  17   9    18  17  12    17  15  10    17  16  11    20  19  14    21  20  15    17  16  11    15  13   8    17  16  11    19  18  13    19  18  13    17  16  11    16  15  10    19  18  13    19  18  13    16  15  10    15  14   9    17  16  11    18  17  12    17  16  11    18  17  12  
  16  15  10    18  16  10    20  17  10    16  13   7    15  12   7    17  14   9    20  17  12    19  16  11    16  12   7    15  12   7    15  14  10    13  12   8    13  12   8    14  13   9    16  15  11    15  14  10    14  13   9    13  12   7    12  11   6    16  14   9    15  14   9    16  17  11    15  16  10    16  16   9    17  17   9    18  18  10    20  20  12    18  18  10    16  16   6    19  19   9    18  18  10    15  15   7    18  19  11    18  19  11    18  19  11    18  19  11    16  17   9    18  19  11    17  18  10    15  16   8    16  16   8    18  18  10    19  19  11    19  19  13    18  17  12    16  15  10    17  17   9    19  19  10    20  20  10    21  21  11  
  16  15  10    18  16  10    20  17  10    18  15  10    16  13   8    15  12   7    15  12   7    15  12   7    15  13   8    18  15  10    18  17  13    15  14  10    14  13   9    14  13   9    14  13   9    14  13   9    13  12   7    12  11   6    13  12   7    15  14   9    14  13   8    15  15  10    16  17  11    17  17  10    18  18  10    19  19  11    19  19  11    19  19  11    19  19  10    21  21  13    21  21  13    18  18  11    21  21  13    20  21  12    18  19  11    19  20  12    17  18  11    19  20  14    20  21  15    20  19  14    20  19  14    22  20  15    21  20  15    20  19  14    19  18  13    18  17  12    18  18  11    20  21  13    22  24  14    25  27  16  
  15  14   9    18  16  11    20  17  12    18  15  10    15  12   7    13  10   5    13  10   5    13  10   5    14  11   6    18  14   9    17  16  12    15  15  10    15  14  10    13  12   8    14  13   9    14  13   9    13  12   8    14  13   8    17  15  10    16  15  10    17  16  11    16  15  10    19  18  13    20  20  13    22  22  14    23  23  15    20  20  13    20  20  12    20  20  12    19  19  11    21  21  13    22  22  14    25  25  17    25  25  16    23  23  15    25  25  17    26  25  18    27  26  21    29  28  23    28  27  22    27  26  21    25  24  19    23  22  17    21  20  15    22  21  16    23  24  18    24  25  19    26  27  19    27  28  20    28  29  21  
  14  13   8    17  15  10    19  16  11    16  13   8    14  11   6    14  11   6    15  12   7    15  12   7    14  11   6    15  12   7    13  12   8    14  13   8    15  14   9    15  14   9    16  15  10    17  16  11    16  16  10    18  19  11    20  20  12    19  19  11    23  23  15    22  22  14    24  24  16    24  24  16    27  27  19    29  29  21    28  28  20    27  27  19    26  26  17    21  21  13    24  24  16    27  27  19    31  30  22    31  28  21    30  27  20    32  29  22    35  33  26    37  34  29    39  37  32    38  37  32    36  34  29    32  31  26    28  27  22    24  23  18    27  25  20    30  31  25    32  33  27    32  34  27    30  33  26    29  32  25  
  14  13   8    16  14   9    17  14   9    14  12   7    12  11   6    13  12   7    15  14   9    14  13   8    12  11   6    13  12   7    11  10   6    15  14   9    18  17  12    19  18  13    19  19  11    20  20  12    21  21  13    23  24  16    22  23  16    23  23  15    29  29  21    29  29  21    29  29  21    28  28  19    31  31  21    33  33  23    32  32  24    33  33  25    32  32  25    29  28  23    28  28  20    33  30  23    36  33  26    35  32  25    34  29  23    35  30  24    39  35  29    42  39  34    45  42  37    45  42  37    42  40  35    38  37  32    35  34  29    28  27  22    29  29  24    32  33  27    34  36  29    36  39  32    36  40  33    34  39  32  
  13  12   8    16  14   9    17  14   9    17  15  10    15  14   9    14  13   8    15  14   9    15  14   9    15  14   9    17  16  11    14  15   9    18  19  13    22  23  17    22  23  16    22  23  15    23  24  16    25  27  17    28  29  21    28  29  21    30  30  22    35  35  27    37  36  28    37  34  27    38  37  28    37  37  27    34  34  25    32  32  24    32  32  24    31  31  25    30  29  24    27  24  19    31  27  22    35  31  26    40  35  31    40  35  31    42  34  31    46  38  35    48  43  39    50  45  40    45  42  37    40  38  33    35  34  29    33  32  27    30  29  24    30  31  25    31  32  26    32  35  29    39  42  37    44  49  43    43  50  43  
  13  12   8    16  15  10    19  16  11    20  18  13    18  17  12    16  15  10    16  15  10    16  15  10    17  16  11    20  19  14    19  20  14    24  25  19    26  27  20    25  26  18    26  28  17    28  30  19    31  34  23    34  36  25    36  38  27    40  41  31    42  42  32    45  42  33    46  43  34    47  44  35    45  42  33    42  39  30    40  37  30    37  34  28    33  31  26    32  29  24    29  26  21    31  28  23    36  32  27    44  39  35    48  40  37    46  38  35    48  38  36    49  41  38    47  41  37    41  36  32    34  31  26    31  29  24    30  29  24    32  31  26    34  34  29    35  36  30    37  40  35    46  51  45    52  58  53    51  57  53  
  13  12   8    17  16  11    20  17  12    20  18  13    19  18  13    18  17  12    19  18  13    19  18  13    19  18  13    20  19  14    23  24  18    26  27  21    28  29  22    27  28  20    29  31  20    33  35  24    37  40  27    38  41  30    43  45  34    49  50  39    46  46  36    51  48  39    52  49  40    50  47  36    47  44  35    48  45  36    52  49  42    49  46  40    42  39  34    40  37  32    38  35  30    38  34  30    40  35  31    49  42  38    50  42  39    45  35  33    43  33  31    41  33  31    39  33  30    34  29  26    30  26  23    30  27  24    32  31  27    35  34  29    38  39  33    41  42  36    45  48  43    54  59  54    57  63  59    52  58  54  
  20  17  12    23  20  13    24  21  13    23  21  15    25  25  19    24  25  19    20  21  13    21  22  14    23  24  16    24  25  17    29  30  24    31  32  26    33  35  29    34  37  30    39  42  34    40  43  36    40  43  35    45  48  39    51  54  45    57  59  52    58  61  54    57  60  55    60  62  57    59  61  56    56  58  53    55  57  52    55  58  53    53  55  50    49  51  48    51  53  50    41  45  44    47  45  45    52  44  44    48  37  37    40  29  29    35  27  24    35  30  25    33  28  22    34  30  25    35  32  27    35  34  30    35  36  32    37  38  35    43  40  39    47  46  44    54  60  58    51  64  60    57  73  71    58  73  72    57  68  70  
  24  23  18    25  25  17    27  27  19    28  29  22    25  26  20    24  25  19    27  28  22    25  26  19    25  27  19    32  35  26    35  37  32    37  40  35    39  41  36    40  42  37    43  45  40    41  46  40    42  47  40    46  51  44    47  52  46    57  62  56    68  73  69    69  74  70    67  72  68    68  73  69    69  74  70    67  72  68    63  68  65    62  66  65    60  63  62    57  61  60    55  64  59    57  60  57    57  54  52    55  48  45    47  41  38    42  39  34    44  43  38    48  47  43    42  42  39    42  42  40    45  47  45    49  51  50    47  51  50    52  53  52    53  57  56    52  63  62    57  74  73    64  82  81    67  81  82    65  76  78  
  29  32  25    30  33  26    32  35  28    32  34  27    33  34  28    33  34  28    30  33  25    31  34  27    35  38  31    38  41  34    38  40  37    42  45  42    46  51  47    49  54  50    52  57  53    51  56  52    49  55  51    49  58  53    51  60  57    64  73  70    72  81  80    72  80  80    72  81  80    71  81  80    72  81  80    69  77  77    65  73  73    65  73  75    65  72  75    60  68  70    66  80  75    62  71  68    59  63  61    57  58  56    52  54  51    48  53  47    48  54  49    52  56  57    52  58  58    56  61  63    54  62  64    58  66  68    60  68  70    60  68  70    62  72  73    59  73  74    67  85  86    64  80  83    58  72  76    54  65  70  
  34  39  33    37  42  36    37  42  35    35  38  32    39  41  36    39  42  37    37  39  34    38  40  36    40  45  41    40  45  41    46  50  51    50  54  55    51  57  57    50  56  56    50  56  56    48  54  54    46  53  53    48  58  57    51  63  63    63  75  75    67  78  80    63  77  78    68  82  83    63  75  77    61  72  74    61  72  74    63  74  77    70  81  85    74  85  89    74  85  89    73  91  93    67  81  84    66  76  78    64  73  76    63  71  74    62  72  73    61  72  73    63  72  77    66  77  81    71  82  86    67  78  82    69  80  84    71  82  86    66  79  82    66  81  84    66  85  86    70  88  90    62  78  81    55  70  72    55  66  70  
  42  48  44    44  50  45    41  48  42    44  48  44    43  45  42    39  44  40    40  45  42    39  43  42    41  45  44    48  52  51    45  50  53    46  52  55    44  52  54    43  51  53    46  54  56    49  57  59    49  58  60    45  56  58    44  57  58    54  68  71    60  75  78    59  75  78    62  80  84    65  81  84    62  77  80    62  77  82    67  82  87    73  88  93    76  91  96    79  94  99    74  94 101    69  88  95    69  85  93    69  82  91    69  82  91    70  83  92    70  84  92    72  85  91    66  79  85    64  77  83    63  77  80    64  78  80    61  75  78    67  82  85    69  84  87    69  84  87    59  74  76    54  69  69    51  63  64    53  63  65  
  49  54  50    49  54  50    46  51  47    48  53  49    46  51  47    42  45  44    37  41  41    37  42  42    42  48  48    49  55  55    56  64  66    52  61  63    46  56  57    41  51  52    43  53  54    48  58  59    49  60  61    47  61  63    50  64  67    56  71  74    58  73  78    56  74  78    61  80  84    68  86  90    65  83  87    64  82  86    67  85  90    68  85  92    69  86  93    75  92  99    75  93 103    68  85  95    68  86  96    66  83  93    67  81  92    69  83  94    68  82  92    72  87  93    68  82  88    65  79  82    62  75  78    60  71  73    56  67  68    55  66  67    53  65  65    55  67  67    49  60  60    56  66  65    56  66  65    53  62  59  
  48  52  51    47  50  50    46  50  49    45  50  49    48  52  51    42  48  46    33  39  39    36  41  43    43  48  51    46  51  54    51  61  62    53  63  64    51  61  62    47  59  59    49  62  62    53  65  65    54  66  67    52  65  67    57  71  74    62  77  79    58  76  80    57  75  79    62  81  86    63  81  86    63  81  85    62  80  84    62  79  86    64  81  88    68  85  92    74  91  98    76  94  98    65  83  87    64  82  86    63  81  85    64  80  85    64  79  84    56  71  76    53  66  72    55  69  73    54  65  67    54  64  65    47  56  55    46  55  54    48  57  55    52  58  58    53  59  57    51  56  54    54  61  55    52  59  52    43  50  43  
  44  48  47    42  46  45    44  48  47    44  50  48    41  47  45    40  46  46    39  45  46    38  43  46    39  44  48    44  51  54    46  56  57    51  63  63    55  67  67    53  66  66    52  64  64    49  62  62    47  60  61    50  61  63    51  64  67    56  71  74    61  79  83    63  81  85    60  79  83    66  82  87    72  87  92    70  85  90    64  79  85    64  79  86    68  83  90    70  85  92    71  88  87    56  75  73    53  72  70    54  73  71    57  74  73    56  72  71    48  62  63    47  61  64    44  56  58    40  50  51    47  57  55    44  53  50    43  49  46    43  48  46    50  52  49    46  48  45    45  48  42    44  47  40    42  47  38    35  42  32  
  41  47  43    37  43  39    33  39  35    33  41  36    32  38  36    31  35  36    32  36  38    34  40  43    34  44  47    35  49  52    49  59  60    50  60  62    49  59  61    46  56  58    46  56  58    46  56  58    46  55  59    50  58  61    53  63  65    55  66  69    57  68  72    60  74  78    64  79  84    66  81  86    77  92  97    77  92  95    73  88  91    71  86  89    66  80  83    68  82  84    55  70  65    46  58  54    48  59  55    50  61  57    48  57  54    48  57  52    47  55  49    43  48  42    44  49  43    42  47  41    39  44  38    40  45  39    45  50  44    46  50  43    42  45  38    37  40  33    38  41  34    41  43  36    41  42  34    38  39  31  
  33  39  37    32  38  35    32  38  34    30  36  33    26  32  30    25  29  28    26  31  32    29  35  38    32  40  45    37  47  51    46  54  57    47  55  58    46  54  57    43  51  53    45  53  55    46  54  56    45  53  55    45  53  55    45  54  55    47  57  59    49  60  63    55  69  70    64  78  80    74  88  89    82  96  97    79  93  94    74  87  89    71  82  84    58  70  70    52  64  64    44  55  51    39  50  46    38  48  45    38  47  43    41  47  43    41  47  43    37  43  38    35  40  34    33  38  32    31  36  30    30  35  29    31  36  30    33  38  32    32  36  29    30  33  26    29  32  25    31  34  27    34  37  29    34  36  27    32  33  25  
  22  28  28    22  28  28    25  31  29    24  30  28    21  27  25    20  24  23    22  27  28    27  32  35    33  40  43    39  49  51    49  56  62    48  56  59    45  53  56    41  50  50    41  50  49    41  50  47    41  49  46    41  49  46    38  47  45    39  49  48    40  50  49    44  56  54    53  65  63    59  70  68    65  75  74    66  76  75    64  74  73    62  71  69    51  60  57    44  53  50    42  51  46    42  48  44    38  44  40    34  40  36    38  43  39    37  42  36    31  36  30    32  37  31    27  32  26    25  30  24    27  32  26    28  33  27    26  31  25    24  28  21    25  28  21    26  29  22    28  31  25    31  34  27    31  34  27    30  33  26  
  17  23  23    18  24  24    19  25  25    22  27  26    22  26  25    21  25  24    23  28  29    28  34  34    33  42  41    40  48  50    48  53  59    48  53  57    45  51  52    41  47  45    38  44  40    37  43  39    36  43  37    38  44  40    36  42  38    37  45  41    37  46  41    36  47  41    41  52  46    48  56  51    57  63  59    60  66  62    57  63  58    53  58  52    45  50  44    45  50  44    42  47  43    39  44  39    34  37  32    29  31  26    32  34  29    30  32  27    26  28  22    29  32  25    25  28  21    24  27  20    26  29  22    27  30  23    25  28  21    26  28  20    29  30  22    31  34  25    33  36  29    33  36  29    34  37  30    35  38  31  
  18  24  24    19  25  25    20  24  25    20  25  24    21  25  24    21  25  24    23  30  27    26  32  30    31  37  35    37  42  40    35  39  42    38  42  45    39  43  43    37  42  39    37  42  36    36  41  34    34  39  32    34  39  33    34  39  33    37  44  37    40  47  40    38  46  38    40  50  42    48  54  47    52  57  50    54  57  49    50  53  46    45  48  41    41  44  35    42  45  36    37  39  34    32  34  29    28  29  24    25  26  20    25  26  20    26  27  21    25  26  20    27  30  23    26  29  22    26  29  22    27  30  23    28  31  24    29  32  25    30  31  23    33  34  26    36  37  29    36  39  31    37  40  33    38  41  34    41  44  37  
  16  22  22    18  22  22    18  22  21    19  21  20    17  21  20    19  23  22    21  26  24    23  29  25    27  32  28    33  36  32    32  33  35    36  37  36    37  39  37    37  39  36    38  40  35    38  41  34    37  40  34    38  40  35    36  40  34    37  42  35    39  44  37    40  45  37    43  48  41    44  48  41    41  44  35    38  41  32    38  41  32    39  40  32    36  37  30    35  36  28    34  35  29    28  29  23    28  29  23    27  28  21    27  28  20    30  31  23    30  32  24    30  33  24    32  35  25    32  35  26    32  35  26    33  36  27    36  39  30    36  38  30    39  39  32    43  44  36    44  47  38    45  48  41    45  50  44    48  53  47  
  14  18  17    14  18  16    13  18  14    15  18  16    17  19  18    17  21  20    19  25  21    21  27  22    26  29  24    33  34  29    35  37  34    37  39  34    38  40  35    36  38  33    36  38  33    37  39  34    37  39  34    40  42  37    37  40  35    36  38  33    36  39  32    37  40  33    39  42  35    40  43  35    37  40  31    35  38  29    38  39  30    36  37  29    33  35  24    30  32  21    30  32  25    27  28  20    30  32  23    31  34  25    32  35  26    35  38  29    35  37  27    35  36  28    37  38  30    38  39  31    38  39  31    40  41  32    42  43  35    45  45  35    49  50  39    53  54  46    55  58  50    55  59  52    54  59  53    55  60  54  
  14  19  15    12  17  13    10  15  11    14  16  15    17  19  18    16  22  20    20  26  21    23  28  23    28  31  26    36  37  31    35  38  31    35  39  32    34  37  31    32  34  29    34  36  31    36  38  33    36  38  33    36  38  34    35  37  32    33  35  30    33  36  29    34  37  30    34  37  30    30  33  25    29  32  23    34  37  28    36  39  30    34  35  27    31  33  23    31  33  22    32  35  26    33  36  27    37  40  31    39  42  33    41  44  33    42  45  34    41  43  33    44  45  37    45  45  38    46  47  39    48  49  41    49  50  42    50  51  43    52  52  43    57  57  47    60  61  53    63  65  57    61  65  58    57  62  56    56  61  55  
  12  17  11    12  17  11    13  18  12    16  19  13    20  22  17    25  27  22    27  29  24    26  28  22    25  28  21    26  29  22    34  34  27    30  30  22    30  30  22    30  29  23    30  31  25    33  34  28    35  37  30    35  36  30    35  36  30    35  36  30    34  35  29    34  35  29    34  35  29    35  36  25    37  39  26    42  44  33    40  40  30    39  39  30    38  38  30    38  38  30    47  46  41    42  44  37    41  45  38    42  48  38    45  49  40    53  54  46    52  52  45    56  55  51    57  54  51    59  56  51    61  56  52    63  55  52    65  57  54    64  61  57    73  72  68    75  74  70    73  73  71    68  68  66    65  65  64    66  66  64  
  17  19  14    16  18  13    17  19  14    19  20  15    23  24  19    25  26  20    25  27  20    25  26  20    24  25  19    24  25  19    23  23  15    22  22  15    25  26  18    28  29  20    28  29  23    29  30  24    31  32  26    34  35  29    34  35  29    34  35  29    35  36  30    36  37  31    39  40  34    46  48  38    45  47  36    45  47  37    42  43  35    45  46  38    46  47  40    47  48  42    48  49  43    47  49  42    47  50  43    52  55  48    57  59  52    67  66  61    68  65  60    68  64  58    71  66  60    73  66  60    74  67  61    79  70  65    81  72  67    78  72  68    79  74  71    79  74  71    83  80  77    78  78  77    72  72  72    69  69  69  
  20  21  16    19  20  15    19  20  15    20  21  15    21  22  16    22  23  15    22  23  15    22  23  15    23  24  15    23  24  16    20  21  13    21  22  15    25  26  18    29  30  22    31  32  24    32  33  25    34  35  27    39  40  32    39  40  32    38  39  31    38  39  31    41  42  34    44  45  37    45  48  39    40  43  35    43  46  37    48  51  44    55  58  51    55  58  52    55  57  52    54  55  50    61  62  57    64  66  61    67  69  64    70  67  62    79  71  68    82  73  69    83  74  67    81  71  64    72  61  55    71  60  54    78  67  61    84  72  66    88  74  70    86  75  71    85  75  73    94  87  86    92  89  91    86  85  90    86  87  91  
  20  19  15    19  18  14    19  18  13    20  19  12    20  20  12    21  21  13    22  22  14    24  24  14    24  24  14    24  24  14    26  29  20    27  30  21    29  30  22    32  33  25    37  38  29    39  41  30    43  45  34    42  44  33    41  43  32    42  44  33    43  45  34    45  47  36    46  48  37    50  53  43    46  50  42    49  52  45    56  60  53    59  64  58    57  62  56    56  61  55    61  66  62    71  75  70    74  75  70    75  73  69    76  68  65    84  70  69    91  75  72    92  75  67    87  72  64    80  67  58    79  65  56    81  67  59    81  66  59    84  67  62    88  72  67    89  76  75    94  85  85    93  89  92    93  93  98    97 100 107  
  20  19  15    20  19  14    20  19  14    20  20  13    21  21  13    22  22  14    25  25  16    26  26  16    26  26  16    25  25  15    30  31  23    33  34  25    33  34  25    37  39  28    44  44  34    48  48  38    53  52  42    52  50  38    51  49  37    54  52  40    60  58  46    62  60  48    60  58  46    60  62  52    56  59  52    59  62  55    62  66  59    64  69  63    65  70  64    69  74  69    75  80  76    76  80  75    74  74  70    78  74  70    86  76  74    99  81  81    97  77  73    83  63  54    72  52  43    67  49  39    67  48  41    64  48  40    63  49  40    68  52  44    77  62  57    83  70  69    88  81  80    91  88  91    95  97 103   100 105 111  
  23  22  17    23  22  17    25  24  19    25  25  20    26  27  21    28  29  21    29  30  22    29  30  22    28  29  21    28  29  21    34  35  26    41  41  32    43  43  34    52  50  41    60  58  47    63  60  48    68  63  53    68  61  51    66  59  49    69  62  52    74  67  57    75  68  58    70  63  53    62  61  52    58  59  51    64  65  57    67  70  63    72  75  68    74  78  72    79  84  77    84  86  81    77  78  73    74  73  67    83  76  71    96  81  78   101  82  78    93  69  65    83  59  49    68  44  36    61  41  32    64  45  38    65  49  40    70  56  47    72  59  52    78  67  63    81  72  70    86  83  82    91  93  95    92  99 102    90  99 104  
  26  27  21    26  27  21    28  29  23    31  32  26    33  34  29    34  35  29    34  35  29    34  35  29    35  36  30    37  38  32    47  44  37    56  53  45    60  57  48    70  66  55    78  72  62    80  74  62    82  75  64    78  70  59    76  68  57    77  69  58    78  70  59    76  68  57    73  65  54    69  67  56    67  67  57    72  72  62    73  74  66    79  81  72    82  85  78    85  88  81    89  89  83    84  83  77    85  82  75    87  79  72    92  78  71    95  74  69    82  58  51    85  58  50    81  55  48    84  61  53    86  67  60    86  70  62    88  74  66    89  80  74    88  83  79    80  76  73    80  81  80    79  85  85    73  84  85    68  79  81  
  26  29  22    27  31  23    30  33  26    33  35  29    36  38  33    37  39  34    36  38  33    37  39  33    40  43  36    44  47  40    58  55  48    67  62  55    71  65  57    80  73  63    88  79  70    89  81  70    92  82  72    89  76  67    89  76  67    89  76  67    87  74  65    87  74  65    88  75  66    83  78  67    78  76  64    79  76  67    79  79  69    90  91  82   101 102  94   106 109  99   105 104  97   104 101  94   106 101  94    99  89  81    97  83  74   105  84  77    97  72  65   110  82  76   109  83  76   107  84  77   102  83  76   100  83  76    98  84  78    88  82  77    79  78  73    66  67  62    65  71  67    61  71  69    56  69  69    58  72  72  
  27  28  23    32  31  27    40  39  35    44  43  33    40  40  30    42  43  35    40  41  35    44  44  39    49  47  40    56  53  44    62  59  52    76  70  61    89  77  67    96  80  68   104  83  70   111  89  78   116  91  81   116  89  81   106  85  77   103  83  72   104  82  68   105  87  74   103  92  85    93  88  82    82  79  72    72  72  64    78  80  73    94  98  91   102 109 102   109 119 111   123 124 119   122 120 116   119 114 109   121 110 104   113  96  89   104  85  78   111  89  80   119  93  81   122  98  89   116  98  90    97  84  78    82  75  72    74  71  71    67  74  71    59  70  66    55  67  65    55  67  66    56  69  70    59  73  74    60  74  75  
  31  32  27    38  37  33    47  46  42    52  50  43    45  45  37    51  50  45    52  50  45    56  53  48    64  58  50    68  59  50    84  71  63    90  75  66    99  79  69   105  81  70   112  85  74   120  93  83   125  98  89   122  97  88   113  93  86   105  85  76   106  84  70   113  96  83   109  99  91    84  80  73    78  75  68    83  82  77    95  97  91   105 111 106   114 122 118   128 138 134   129 134 130   129 131 127   129 127 123   128 121 118   117 108 103   105  94  88   104  90  83   103  89  80    94  83  74    83  75  69    68  66  61    64  66  64    67  71  70    68  77  74    58  68  67    53  65  64    58  70  70    54  67  67    50  65  65    56  70  71  
  34  34  30    42  41  37    51  50  46    51  50  45    58  57  53    60  59  54    62  58  53    72  64  58    72  60  52    85  69  59    99  72  63   107  79  68   117  88  77   121  91  80   115  87  76   113  86  77   112  88  79    98  80  68    80  64  57    76  59  51    85  66  52    96  80  67    97  87  80    86  84  77    87  87  79    97 100  93   111 117 111   121 128 125   122 131 130   127 137 136   122 131 130   118 126 125   115 120 120   108 111 110    97  97  95    84  83  79    71  71  66    66  67  62    65  69  63    63  69  65    59  68  65    58  69  66    53  65  63    53  64  63    48  58  57    50  62  60    60  72  72    59  70  71    57  68  70    60  72  74  
  36  38  33    44  44  40    52  51  47    55  54  51    63  62  60    70  66  64    70  64  60    76  64  58    82  64  54    93  71  58   100  68  55   104  72  59   111  80  67   106  77  65    87  62  50    72  52  43    70  51  43    62  47  36    49  37  31    52  39  32    64  47  37    75  59  51    80  73  68    89  90  84    99 104  97   105 111 105   114 121 118   119 128 128   119 129 130   118 128 130   127 138 140   115 126 128   108 118 120    95 105 106    87  97  98    81  90  89    71  80  80    67  77  78    59  71  71    50  62  62    50  62  62    54  68  68    51  65  65    45  58  57    43  55  55    43  55  55    41  53  53    41  52  53    40  51  52    33  45  46  
  39  40  35    46  47  42    53  53  49    59  58  55    67  66  64    71  67  66    77  67  65    87  70  65    94  72  62   102  74  63   115  86  71   101  73  56    92  66  50    83  60  45    67  47  36    55  41  30    53  40  31    54  44  34    64  56  51    70  61  59    75  63  57    84  75  69    89  86  83    83  89  85   101 110 107   113 122 119   115 125 125   115 126 127   115 125 128   110 120 124   107 121 122    93 107 108    84  98  99    73  87  88    70  84  85    70  84  85    62  75  77    57  68  72    50  61  65    46  57  60    45  56  58    46  57  59    41  52  54    37  48  49    38  50  50    37  49  49    32  44  44    37  47  49    42  52  54    35  45  47  
  42  43  38    47  48  43    54  55  49    59  59  56    70  69  67    67  62  59    81  71  67   101  85  78   107  85  75   112  84  72   100  74  59    81  55  40    70  45  30    70  48  33    69  51  39    67  53  44    70  58  50    77  68  62    83  77  77    94  88  90   103  94  93   108 102 100   105 108 107   100 110 110   115 127 127   117 129 129   113 124 126   110 121 123   106 119 121    95 109 110    79  93  93    66  80  80    60  74  74    51  65  66    50  61  63    51  62  64    43  54  57    37  46  51    32  42  45    37  47  49    39  49  51    38  48  50    40  50  52    36  46  48    35  46  48    39  50  52    42  52  54    41  51  53    37  47  49    30  40  42  
  46  48  43    50  51  46    57  58  52    66  66  61    70  66  63    72  68  65    84  75  71    96  80  73   107  84  75   100  73  62    81  57  44    79  55  41    85  59  46    92  67  55    94  72  60    91  72  65    96  78  72    96  85  82    89  83  87   100  95 102   109 103 107   108 108 109   107 115 118   105 117 122   115 128 134   111 124 130   109 123 126    97 111 113    75  89  90    50  64  65    54  66  64    45  57  55    42  53  52    38  48  48    33  43  44    36  44  47    35  43  46    37  47  48    37  47  48    40  50  52    39  49  51    38  48  50    39  49  51    39  49  51    39  50  52    48  59  61    58  68  70    54  64  65    45  53  55    38  45  48  
  53  55  50    56  57  52    63  64  58    72  72  66    82  79  74    80  77  72    82  73  69    82  68  61    84  63  55    79  55  43    86  62  52   104  77  67   121  93  82   122  94  83   114  85  78   108  80  76   104  83  79    96  84  84    97  90  98    98  94 105    99  95 101   101 103 107   101 112 116   104 119 127   107 121 130    87 102 109    74  89  93    55  70  72    42  57  57    33  47  47    36  49  42    30  41  36    31  41  37    31  40  39    31  37  37    35  39  42    38  45  46    40  52  49    44  56  54    38  50  48    31  43  43    35  49  49    34  48  49    37  49  50    38  49  51    45  55  58    52  62  64    51  61  63    46  55  56    40  48  50  
  67  68  63    70  69  63    76  73  66    79  75  70    82  79  72    83  78  72    84  79  70    78  66  58    81  62  55    89  65  59   116  78  59   137 101  84   148 117 104   137 113 102   113  96  88   100  89  83   100  94  92    84  88  93    77  84  90    79  87  93    79  90  96    82  97 104    88 105 112    87 102 107    73  87  90    54  68  71    44  55  58    37  47  49    33  43  44    37  46  45    34  44  46    33  43  44    33  43  44    34  44  43    36  46  45    37  47  46    38  48  47    40  50  51    40  50  52    40  50  52    40  50  52    38  49  50    37  48  50    38  48  50    39  49  51    44  54  56    46  56  58    51  60  62    50  58  60    49  57  59  
  87  88  83    85  84  79    89  86  80    89  86  81    94  90  85    96  93  88    89  84  77    91  82  75    87  71  65    86  67  61   105  77  66   116  91  80   118  98  90   110  96  90    97  89  85    92  88  85    95  94  94    89  94  98    84  91  95    79  88  93    72  83  87    68  82  87    64  79  85    56  70  74    47  61  64    39  49  52    35  45  47    36  46  47    39  48  48    44  52  52    42  50  52    43  51  53    42  51  51    38  47  46    36  45  44    37  46  45    38  48  47    38  48  49    40  50  51    43  53  54    43  53  55    42  53  55    41  52  54    39  50  52    38  48  50    44  54  56    46  56  58    47  57  58    46  56  56    49  59  59  
