P3
50 50
255
  44  52  41    40  48  37    39  47  36    39  47  36    37  45  34    38  46  35    40  48  37    35  43  32    34  42  31    36  44  33    37  45  34    39  45  35    36  42  32    35  40  29    39  44  34    39  44  34    36  39  31    41  44  34    44  47  34    49  53  38    57  59  44    52  55  38    51  53  38    48  50  39    48  50  37    60  64  40   115 125  87   145 161 116   152 169 122   159 172 126   158 167 120   148 156 108   124 131  83    96 101  61    74  78  50    43  43  30    30  31  22    30  32  20    29  31  18    25  27  16    27  27  17    28  30  18    31  34  20    32  35  20    32  33  17    37  35  20    42  38  21    40  38  18    33  31  16    53  35  24  
  37  45  34    36  44  33    37  45  34    38  46  35    36  44  33    34  42  31    34  42  30    33  41  30    31  39  28    34  42  31    32  40  29    34  40  30    37  43  33    34  40  29    36  42  30    40  43  34    40  43  34    40  43  33    41  45  32    50  54  39    55  57  43    57  59  43    52  54  41    48  49  41    47  49  35    79  83  55   131 140  99   146 162 113   152 166 117   164 176 126   163 173 123   144 152 102   125 132  81    99 105  59    79  82  50    51  52  35    37  37  25    32  33  20    30  32  19    29  31  20    30  30  20    30  32  19    33  36  22    34  37  21    33  34  16    36  35  17    42  38  20    41  37  16    33  31  13    57  39  27  
  36  44  33    40  48  37    42  50  39    41  48  37    38  46  35    36  44  33    35  43  31    38  46  33    34  42  29    37  44  32    38  45  32    36  42  30    40  46  34    40  46  34    41  44  33    40  43  34    44  47  38    43  46  35    42  46  31    49  53  36    51  54  37    55  58  42    49  51  39    41  42  33    50  53  37    94  99  66   128 137  90   139 152  99   148 160 108   161 174 121   165 175 122   147 156 104   130 139  86   109 116  66    91  95  57    59  61  40    39  40  27    32  33  19    30  32  19    32  33  24    33  33  22    30  32  19    32  35  21    34  37  21    33  34  16    38  36  16    45  40  20    44  39  17    34  32  14    58  40  28  
  42  52  41    45  55  44    41  51  40    34  44  33    35  45  34    39  49  38    41  51  39    44  52  39    37  45  32    38  46  33    46  54  41    40  47  35    42  48  36    44  50  36    41  45  33    36  39  30    40  43  33    41  45  32    40  44  29    41  44  27    43  46  29    42  45  29    45  47  34    36  38  29    48  50  34    98 104  69   127 136  87   143 156 102   154 165 111   157 167 114   160 170 117   151 162 106   134 145  89   118 127  73    98 103  61    57  60  34    34  35  20    28  29  15    27  29  16    28  29  20    32  32  21    28  30  17    29  32  18    31  35  18    33  34  16    38  37  17    45  40  21    45  39  17    37  35  17    57  39  28  
  48  52  38    47  51  37    48  52  38    48  52  38    44  48  34    40  44  30    47  51  37    46  50  36    47  51  37    43  45  32    41  43  30    48  50  37    48  50  37    41  42  28    42  44  29    44  46  32    42  43  29    42  43  29    43  44  30    40  41  27    42  48  34    38  42  27    40  43  27    40  41  27    69  68  47   111 113  71   143 149  89   157 164 102   149 158 100   156 168 113   161 173 120   148 157 104   131 140  86   121 127  73   104 107  61    67  71  39    39  41  21    31  32  20    30  33  22    29  31  20    29  31  18    33  35  21    36  37  22    36  36  18    38  35  16    42  39  20    46  44  23    48  44  20    43  29  15    68  47  28  
  47  51  37    48  52  38    47  51  37    50  54  40    46  50  36    53  57  43    52  56  42    47  51  37    51  55  41    52  54  41    50  52  39    53  55  42    53  55  42    50  51  38    50  51  37    50  51  37    50  52  38    49  50  36    49  50  35    50  51  37    45  49  34    43  46  31    41  43  28    50  51  37    77  77  54   113 115  71   142 146  87   155 162 101   152 161 103   159 170 114   163 176 122   149 159 106   133 142  88   124 130  77   109 114  68    77  81  49    45  46  28    31  32  21    31  33  22    33  35  24    31  33  20    34  36  22    37  38  23    38  38  21    41  38  19    45  42  23    46  44  25    47  44  20    47  34  20    69  50  24  
  53  57  43    50  54  40    50  54  40    46  50  36    45  49  35    45  49  35    44  48  34    42  46  32    47  51  37    52  54  41    49  51  38    48  50  37    49  51  38    49  50  37    47  48  34    47  48  34    48  49  35    45  46  32    43  44  30    46  47  33    38  40  27    42  42  29    40  39  26    61  60  44    84  83  56   110 111  66   135 137  81   153 160  99   147 155  97   150 161 105   163 173 120   150 160 107   130 139  86   117 124  73   103 109  65    74  77  47    42  44  26    28  29  17    27  29  18    31  33  22    28  30  17    30  31  18    32  33  18    35  34  18    38  37  19    41  38  19    41  39  20    40  37  15    43  31  18    79  61  26  
  50  54  40    49  53  39    54  58  44    48  52  38    49  54  39    46  50  36    44  48  34    44  48  34    45  49  35    48  50  37    44  46  33    42  44  31    45  47  34    47  48  35    46  46  34    46  46  34    45  45  33    42  42  30    38  38  26    39  39  27    37  36  25    43  41  29    42  40  28    72  70  52    91  90  60   113 112  67   131 133  77   151 158  99   150 158 100   152 160 103   165 174 119   151 160 106   128 137  84   113 120  70    97 102  61    67  70  42    38  39  22    25  25  15    23  23  13    22  22  10    22  24  11    22  24  11    25  26  12    29  28  13    32  31  13    34  31  14    35  32  13    34  31  10    36  24  12    84  67  25  
  44  48  34    45  50  35    48  52  38    48  52  38    45  49  35    49  53  39    42  46  32    43  47  33    42  45  32    44  47  34    39  42  29    37  40  26    41  43  30    42  42  30    44  44  32    45  45  33    43  43  30    42  42  30    39  39  27    34  34  22    38  36  24    39  35  27    41  38  27    74  72  52    95  95  60   113 115  66   131 135  80   150 158  99   156 164 105   159 167 109   168 176 119   151 161 106   128 138  85   112 119  71    97 101  63    69  72  46    40  40  26    24  24  15    20  20  10    18  18   6    22  22  12    21  21   9    22  23  10    26  25  10    29  27  12    29  28  10    30  30  11    34  33  11    37  26  13    78  62  19  
  46  50  36    43  47  33    41  45  31    40  43  30    38  42  28    39  43  29    36  41  26    37  41  27    38  42  28    42  45  32    39  42  29    37  39  26    37  39  26    35  35  23    37  37  25    40  40  28    38  38  26    39  39  27    37  37  26    31  31  20    35  34  23    33  30  23    37  35  24    75  74  50   101 104  63   115 119  69   141 146  92   153 161 104   145 151  93   143 148  90   154 163 106   146 155 100   121 131  78    98 106  61    85  91  54    62  66  42    35  36  22    19  19  10    17  17   7    19  19   7    20  20  10    20  20   9    21  21   8    24  23   9    26  24   9    27  26   8    29  29  10    34  33  10    37  26  12    78  61  24  
  45  49  35    40  43  30    40  44  30    39  43  29    41  45  31    35  40  25    40  44  30    37  41  27    38  42  28    42  45  32    42  44  31    40  42  29    38  40  27    36  36  24    36  36  24    36  36  24    37  37  25    37  37  25    36  36  23    33  33  21    35  35  23    32  32  25    40  40  29    87  89  63   119 125  80   118 125  73   153 160 106   156 164 108   133 139  82   125 130  72   139 144  86   132 141  85   107 118  65    80  89  44    68  75  40    50  54  30    28  28  16    17  17   9    17  17   8    21  19   7    17  17   7    18  18   8    20  20   9    23  22   9    26  24   9    27  25  10    30  30  11    32  33   8    34  23  10    71  52  25  
  39  43  29    38  42  28    36  40  26    41  45  31    35  39  25    33  37  23    35  39  25    33  37  23    33  37  23    36  38  25    36  38  25    35  38  25    33  35  22    35  36  24    33  33  21    32  32  20    34  34  22    32  32  20    29  29  17    30  30  18    27  29  17    29  30  24    41  43  32    97 102  73   132 140  92   115 124  69   155 164 111   159 167 112   141 146  90   132 135  78   131 137  79   120 129  73   100 111  58    77  86  41    63  69  34    43  47  25    26  27  15    20  20  12    21  19  11    20  18   6    17  17   9    20  20  10    22  22  11    25  24  11    28  26  11    30  28  13    32  31  13    33  33   9    33  23   9    52  32  13  
  35  35  23    37  37  25    38  38  26    35  35  23    32  32  20    33  33  21    34  35  22    33  34  20    34  35  20    33  34  20    32  33  19    31  31  19    31  31  19    30  30  19    28  28  16    27  27  15    29  29  17    29  29  17    26  26  13    26  26  14    27  29  17    28  27  16    56  55  36   102 103  68   130 138  87   134 145  88   145 155 100   157 162 107   137 141  84   125 128  72   118 120  71   109 113  66    90  98  51    74  78  42    58  58  32    43  42  23    22  23  10    19  19  10    18  19   9    18  20   9    22  22  10    24  22  10    26  24  11    27  25  11    31  29  12    33  32  14    36  34  15    36  35  14    33  26  16    43  31  15  
  33  33  21    34  34  22    34  34  22    31  31  20    30  30  18    30  30  18    31  31  19    31  32  18    30  31  17    30  31  17    30  31  17    30  30  18    29  29  17    29  29  17    27  27  15    27  27  15    28  28  16    29  29  17    29  29  17    29  29  17    27  27  15    41  39  27    65  63  43   104 105  70   128 134  81   145 154  97   148 157 100   150 155 101   125 128  75   112 114  63   105 107  60    97 101  56    86  94  49    73  77  41    57  57  31    43  42  23    24  24  11    23  23  14    21  23  12    20  22  11    25  25  13    27  25  13    28  26  13    28  26  11    29  28  10    30  29  11    30  29  10    31  30   9    37  30  19    36  25   4  
  32  32  20    32  32  20    31  31  19    29  29  17    28  28  16    28  28  16    27  27  15    28  29  15    26  27  13    26  27  13    27  28  14    27  27  15    26  26  14    25  25  13    26  26  14    26  26  14    25  25  13    26  26  14    27  27  15    27  27  15    26  24  11    41  39  25    72  68  47   112 112  74   142 145  93   142 150  91   135 142  86   138 141  91   113 114  68    91  91  49   105 106  64    94  97  57    92 100  59    85  88  54    66  67  40    46  45  26    22  23  10    20  20  11    21  23  13    22  24  13    22  22  10    24  23  11    27  25  12    29  27  12    30  28  13    30  29  11    32  31  13    33  32  13    35  27  15    39  26   2  
  32  32  20    30  30  18    29  29  17    30  30  18    30  30  18    29  29  17    27  27  15    26  27  13    25  26  12    25  26  12    27  28  14    27  27  15    26  26  14    25  25  14    29  29  17    29  29  17    24  24  12    24  24  12    25  25  13    24  24  12    24  22   9    37  33  20    71  66  46   116 113  76   148 148  95   138 141  84   124 128  73   124 126  80   102 100  63    73  70  37    99  99  63    81  84  45    79  86  49    82  85  53    70  70  44    51  50  31    25  25  13    19  19  10    19  20  10    19  21  10    21  21   9    22  22  10    25  25  11    28  26  13    31  29  14    32  30  15    32  31  15    31  30  13    34  26  14    61  47  11  
  32  32  20    30  30  19    30  30  18    31  31  19    32  32  20    31  31  19    30  30  18    30  31  17    28  29  15    29  30  16    30  31  17    30  30  18    30  30  18    30  30  18    33  33  21    32  32  20    27  27  15    26  26  14    27  27  15    25  25  13    27  25  12    40  35  23    68  62  43   113 110  74   131 131  80   140 143  87   131 134  80   114 114  70    90  87  56    69  66  40    92  92  61    67  70  33    62  68  33    62  65  33    58  58  32    52  51  31    30  30  18    23  23  14    19  20  11    18  20   9    24  24  12    24  24  12    24  25  11    25  26  12    29  27  12    31  29  14    32  31  15    34  33  18    37  29  16    87  75  29  
  32  32  20    30  30  19    31  31  19    32  32  20    33  33  21    32  32  20    31  32  19    33  34  20    33  34  20    33  34  20    33  34  20    33  33  21    33  33  21    31  31  19    32  32  20    31  31  19    29  29  17    28  28  16    28  28  16    27  27  15    28  28  16    35  32  22    60  56  39   107 104  70   123 123  74   131 135  80   133 136  84   113 111  69    83  78  54    69  63  45    96  96  67    62  64  30    56  63  28    54  57  25    50  50  24    47  46  27    26  27  14    21  21  12    20  21  11    20  22  11    24  24  12    24  24  12    24  25  11    25  26  12    28  29  15    33  31  18    34  33  19    37  35  21    37  27  14   104  92  39  
  32  30  18    32  30  18    31  29  17    32  30  18    32  30  18    31  29  17    32  30  17    35  33  20    35  34  20    35  33  20    33  31  18    32  30  18    34  32  20    33  31  19    31  29  17    30  28  16    32  30  18    31  29  17    29  27  15    28  26  14    28  30  19    26  26  17    52  50  33   107 104  73   123 125  77   116 120  69   124 127  76   113 111  67    79  72  51    58  52  38    92  91  64    61  66  28    56  63  27    61  64  32    55  55  28    44  44  24    21  21   9    18  18   9    20  21  11    21  23  12    23  23  11    24  25  11    25  26  12    27  28  14    30  31  17    32  33  19    32  31  18    30  28  16    36  27  12   109  95  35  
  31  29  17    30  29  17    30  28  16    29  27  15    28  26  14    28  26  14    29  27  15    32  30  17    34  32  19    32  30  17    29  27  14    28  26  14    31  29  17    34  32  20    32  30  18    31  29  17    34  32  20    33  31  19    30  27  16    29  27  15    28  29  21    28  27  21    48  45  31   107 106  75   119 120  75   114 118  67   115 120  68   104 102  57    72  66  44    52  44  33    83  82  56    76  81  44    73  80  44    69  72  41    59  59  33    45  45  25    22  23  10    21  21  12    22  23  13    20  22  11    25  27  13    27  28  14    28  29  15    28  29  15    28  29  15    28  29  15    30  29  16    31  30  18    38  29  13   104  91  26  
  28  28  16    28  28  16    29  29  17    25  24  12    27  24  13    33  31  19    29  27  14    31  29  16    31  29  16    30  28  15    33  31  18    32  30  17    33  31  18    35  35  20    30  30  15    29  30  14    29  30  16    28  29  15    32  33  19    32  33  19    34  30  19    31  30  19    38  40  23    86  91  59   125 130  84   117 121  70   104 107  59    93  97  59    70  68  43    44  41  21    72  70  46    88  89  58    81  86  53    75  76  47    56  56  31    32  33  17    21  21  12    16  17  11    16  19  10    19  23  14    23  25  12    24  26  13    25  27  13    25  28  14    27  28  14    28  29  13    28  30  13    31  33  17    38  28  19    79  61  26  
  28  29  17    27  27  16    28  28  16    23  23  11    25  25  14    31  31  19    30  28  15    33  31  18    36  34  21    33  31  18    34  32  19    35  33  20    37  35  22    33  33  19    27  28  14    28  29  15    30  31  18    30  30  18    28  28  16    26  26  14    33  31  19    25  26  17    44  46  30    91  95  64   103 109  62   108 112  61   105 108  58    91  93  54    67  66  39    62  57  38    64  62  38    63  64  35    65  69  39    61  63  36    52  51  29    36  34  19    22  22  12    20  20  13    21  22  15    24  26  15    22  24  11    23  23  11    25  25  13    25  26  13    27  28  14    28  29  13    29  28  12    29  29   9    34  25   8    66  49  15  
  31  33  22    28  30  19    28  30  19    26  26  16    28  28  18    32  32  22    31  30  19    32  30  18    35  33  21    31  30  18    31  29  17    33  31  19    33  31  19    32  31  19    30  30  18    31  31  19    33  33  21    33  33  22    27  27  16    26  26  14    29  26  18    25  25  19    39  41  27    81  85  55   100 106  60   122 127  73   118 123  71   108 109  66    77  74  46    73  68  47    66  61  38    55  54  26    53  54  27    52  51  27    53  50  31    39  36  22    25  22  14    23  21  14    21  21  12    22  22  10    28  26  14    28  26  14    30  28  15    30  29  15    33  31  16    34  31  16    34  33  16    34  33   9    40  31   7    56  40   8  
  29  32  20    26  28  17    26  28  17    25  26  16    27  27  17    30  30  20    30  29  18    34  32  19    33  30  18    30  28  15    30  28  15    31  29  16    30  28  15    32  29  19    33  30  21    30  27  18    31  28  19    32  29  19    27  25  13    29  27  14    30  27  19    36  33  26    42  41  28    78  81  51   116 123  73   122 128  74   108 112  58    98  96  52    80  75  45    77  71  48    66  61  36    52  49  21    51  53  25    52  49  26    52  47  27    37  31  17    26  20  10    27  23  14    27  23  12    29  27  12    30  26  14    31  27  15    33  28  15    35  29  15    36  30  16    37  31  15    37  32  14    38  34  11    44  33  14    54  37  10  
  34  34  24    30  30  20    30  30  20    30  30  20    31  31  21    32  32  22    35  32  21    39  36  21    38  35  20    39  36  21    37  34  19    35  32  17    38  35  20    38  34  22    38  34  23    34  30  19    34  30  19    36  32  20    32  28  16    34  30  19    36  32  21    37  33  23    38  35  19    75  74  43   123 125  77   107 112  56   107 110  55   101  97  49    82  75  42    79  68  46    71  64  38    65  63  32    74  74  43    75  71  44    67  60  36    47  39  22    36  28  15    38  30  19    36  28  16    41  34  19    39  31  18    39  32  16    39  32  16    40  33  15    41  32  15    42  33  16    42  33  14    45  35  17    47  31  23    55  38  14  
  37  35  23    36  34  22    37  35  23    36  34  22    37  33  22    37  33  22    41  36  24    49  42  26    51  44  28    55  48  32    49  42  26    48  41  25    55  48  32    49  42  28    47  39  26    46  38  25    47  41  25    48  41  24    45  38  20    45  38  20    48  41  23    50  41  28    50  41  23    81  76  43   135 135  86   114 117  62   124 125  70   113 107  58    92  83  47    83  71  44    83  75  43    94  90  53    95  94  57    97  92  58    85  78  49    59  51  29    45  36  20    43  34  20    41  32  18    44  35  19    44  36  17    45  35  17    46  35  17    47  35  16    47  36  16    47  36  14    48  37  13    50  38  19    50  33  25    53  36  11  
  35  32  17    36  33  18    38  33  19    39  33  19    36  30  16    36  30  16    40  33  18    44  33  15    44  33  15    49  37  19    46  35  17    45  34  16    48  37  19    50  39  21    49  38  20    51  40  22    54  43  23    53  42  21    51  40  18    50  39  17    46  35  13    56  44  25    59  47  25    87  77  41   131 127  80   111 110  56   109 107  52   100  92  42    96  84  46    85  74  43    93  86  49   103  99  58    97  97  54    96  92  50    87  79  43    65  56  28    48  37  17    47  35  19    50  38  22    51  39  23    50  39  17    51  39  17    51  39  16    51  39  15    52  40  16    52  40  14    55  41  13    56  41  17    57  40  21    54  39   9  
  41  35  19    42  36  21    45  39  23    45  38  22    41  34  18    41  34  18    50  41  25    58  45  26    54  41  22    57  44  25    59  46  27    60  47  28    54  41  22    55  42  23    52  39  20    54  42  20    56  44  22    56  44  19    57  45  19    55  43  17    56  44  18    58  45  22    64  49  25    92  79  44   127 121  72   118 115  62   115 113  58   113 104  54    93  80  42    82  69  37   107  99  59   107 103  57   101 101  54   103  99  53    98  90  48    79  70  38    59  47  25    56  43  26    61  48  32    59  46  29    62  50  26    62  50  26    64  51  26    65  51  25    66  52  25    67  53  26    68  54  25    72  57  26    69  54  22    67  52  19  
  53  42  20    59  48  25    59  47  24    53  41  16    52  40  14    73  59  32    61  47  20    64  50  24    70  55  29    70  55  26    73  56  27    72  54  24    75  56  26    76  55  29    70  49  22    71  50  23    75  54  26    77  58  28    80  60  30    70  51  21    69  51  15    71  54  18    68  54  18    89  79  37   130 124  75   128 127  70   128 126  65   126 118  59   102  88  43    97  84  46   124 121  78   108 107  59   115 111  65   119 110  61   113 103  56    97  83  44    78  61  28    75  58  26    79  64  30    74  60  25    76  59  26    75  59  25    79  63  29    73  57  23    74  59  24    76  60  26    78  62  30    73  57  25    71  57  21    65  50  23  
  67  55  31    66  53  29    68  55  29    67  53  27    67  53  24    73  58  29    75  60  30    74  60  26    85  69  35    88  72  38    86  68  32    91  72  36   101  81  44    94  73  33    92  70  29    94  72  31    97  78  35   103  84  41   103  84  41   100  82  36   108  88  51   100  82  44    93  79  38   106  96  51   140 134  82   140 138  81   134 132  69   136 128  68   122 108  62   116 104  63   146 144  96   137 138  86   138 134  83   140 131  79   136 125  76   115  99  59    91  72  40    83  65  35    81  65  33    74  59  25    85  69  36    80  63  31    79  63  30    74  58  25    77  60  27    76  60  27    77  61  29    74  58  26    71  56  22    66  50  24  
  81  66  37    80  65  36    81  66  36    83  67  36    83  67  34    85  66  34    95  76  40    92  75  32    97  79  36   104  85  43   104  84  41   109  88  43   106  85  40   110  88  40   113  91  42   116  94  45   115  94  45   113  93  42   114  94  43   111  91  40   117  96  53   110  89  46   104  88  43   121 110  60   150 143  88   147 144  82   140 138  73   135 127  67   121 107  61   125 113  70   152 150  99   140 143  85   140 139  82   141 134  78   137 125  75   112  97  55    90  71  39    85  66  37    82  64  36    77  62  31    81  66  35    75  60  29    74  59  28    73  58  27    76  61  29    73  58  27    73  58  27    74  59  27    68  52  24    63  46  26  
  82  66  33    90  71  39    89  70  37    90  71  36    90  70  33    95  75  38   105  83  43   109  88  43   106  85  40   111  88  44   115  93  46   113  91  44   102  79  32   105  80  37   117  92  51   111  86  45   108  83  42   112  89  46   106  83  39   113  90  46   105  82  38   106  85  38   102  85  35   128 115  62   148 141  82   133 129  66   132 130  66   127 119  60   112  99  51   128 117  72   151 150  96   142 146  84   147 147  85   148 141  83   141 130  77   110  95  53    82  63  32    75  55  29    68  50  24    64  48  22    72  57  28    70  55  26    71  56  27    73  58  29    73  58  29    69  54  24    65  51  21    63  50  18    58  43  18    58  41  24  
  83  63  28    90  70  34    95  74  37    93  71  32    94  72  31   100  77  36   106  83  41   112  88  44   111  87  43   108  84  40   111  87  43   110  86  42   109  85  41   110  83  43   109  84  44   108  83  43   107  82  42   110  85  45   109  84  44   107  84  43   106  82  36   107  86  38   106  88  37   131 119  64   147 141  81   131 127  66   133 131  69   132 125  67   118 106  59   133 123  80   149 148  96   146 150  88   148 148  86   144 138  81   136 127  77   104  90  52    77  59  31    72  54  31    70  53  31    70  55  32    70  54  28    71  55  29    71  55  29    71  55  29    68  52  26    65  49  23    63  47  20    62  48  19    57  42  20    58  41  23  
  89  69  32    91  71  31   105  83  43   101  79  38   106  83  41   102  79  37   113  90  45   114  90  46   117  93  49   114  90  46   117  93  49   116  92  48   119  95  51   117  93  46   122  98  50   117  92  45   116  92  46   120  97  50   109  87  40   109  87  40   118  95  51   113  92  44   114  99  47   135 125  69   153 147  89   149 148  91   147 145  87   140 133  77   120 108  63   131 122  81   147 145  95   135 138  81   135 135  77   140 135  83   132 124  78   100  87  53    73  57  33    67  51  31    66  51  32    65  53  31    64  50  24    67  53  27    64  50  24    64  50  24    61  47  21    63  49  23    64  51  24    62  51  24    59  45  24    57  41  18  
  93  74  34    98  79  38   110  88  47   110  89  47   120  97  55   108  85  41   120  97  51   123 100  50   125 102  52   126 103  53   129 106  56   128 104  56   124 100  52   121  97  46   120  99  46   120  99  46   120  98  48   122 100  50   121  99  50   118  96  47   126 103  61   120 100  54   123 109  59   139 131  77   156 152  98   157 156 102   151 149  94   140 133  79   118 105  64   120 110  73   145 143  99   129 130  80   131 130  78   129 126  80   116 111  71    88  79  47    63  51  28    57  44  26    58  46  28    56  45  25    58  43  20    61  46  23    57  42  19    58  43  20    56  41  18    60  45  22    59  46  22    55  44  19    55  41  19    53  38  10  
  90  71  31   104  85  45   106  85  44   113  91  49   126 103  59   114  91  47   118  95  47   123 100  45   122  99  45   123 100  46   120  97  43   122 101  46   120  99  44   117  95  44   120  98  49   117  94  45   113  92  43   116  95  48   118  97  50   122 102  54   116  94  53   119 101  57   125 111  63   145 137  86   159 158 104   157 157 105   152 152 100   146 138  87   123 110  71   105  94  61   136 134  93   128 129  82   127 125  78   120 117  75   104 101  63    79  72  43    59  47  27    53  41  24    54  45  27    50  42  23    59  44  23    62  47  25    57  42  21    58  43  22    54  39  18    55  40  19    54  41  18    56  45  21    57  43  20    53  37   5  
  94  76  38   100  82  41   108  88  46   102  81  35   114  92  43   123 100  48   116  93  42   119  95  49   125 101  55   123  99  55   120  95  54   109  85  44   105  82  41   107  85  43   110  89  47   101  79  39    98  76  38   104  81  46   102  81  48    92  72  39    89  71  35    99  84  48   103  91  53   144 139  97   155 156 108   145 150  98   149 153  99   143 139  85   114 104  67    91  83  59   128 128  90   110 115  72   118 119  75   118 115  71   108 102  67    74  63  42    52  38  27    54  37  28    49  35  20    54  42  19    48  37  17    50  38  15    50  36  14    50  35  13    55  39  15    57  41  16    57  41  16    55  40  23    53  37  24    60  41   9  
  97  79  40    96  76  36   102  82  39   106  84  38   117  95  46   124 101  51   120  97  46   121  98  48   121  98  49   124 100  52   114  90  44   115  91  46   115  92  48   107  85  41   107  86  41   103  82  39   105  83  43   104  82  44    96  75  38    81  61  26    88  69  37    82  66  33    91  79  44   144 137  97   164 162 115   157 162 108   153 156 100   143 139  85   120 111  73   100  90  65   128 130  89   118 123  79   128 127  83   122 120  71   111 106  65    82  70  43    58  43  25    55  39  24    53  38  19    55  42  17    50  37  18    53  41  21    56  43  21    58  43  20    61  45  22    61  44  20    57  41  14    52  39  15    56  40  25    63  42  19  
 101  81  44   102  83  45   111  91  50   119  96  53   125 103  57   137 113  65   137 113  64   128 105  53   126 103  53   125 102  52   121  97  49   118  95  49   116  94  47   112  91  45   109  88  43   109  88  45   112  90  49   107  85  45   102  82  44    95  75  38    88  68  41    84  66  37   104  91  58   155 147 109   165 162 115   151 154  99   148 149  93   148 143  89   130 119  81   109  98  73   132 130  89   123 125  81   127 124  79   119 116  63   110 105  56    86  75  40    63  48  24    59  42  22    60  46  21    61  47  18    53  38  19    57  42  21    60  45  24    60  45  22    61  45  22    62  44  22    60  43  16    56  43  13    52  36  17    58  33  18  
  97  77  40   103  82  45   109  87  47   113  90  49   111  88  45   119  95  51   122  98  52   120  96  49   117  93  47   118  94  50   110  87  43   109  86  44   105  82  40   104  82  42   103  81  42   102  80  41    96  74  38    87  64  30    89  68  35    87  67  34    83  62  39    81  62  38   104  89  59   151 141 103   158 154 107   147 147  90   139 138  81   131 123  72   113 100  61   102  88  62   125 123  79   112 113  67   114 110  65   115 110  57   109 101  53    89  75  41    64  48  23    58  40  20    60  44  22    58  42  16    56  41  20    59  42  22    60  44  21    57  41  18    59  41  19    61  43  19    61  44  18    57  43  12    53  38  12    59  34  17  
  90  67  33    95  73  36    98  75  38   107  83  45   110  87  46   109  86  44   105  80  40   104  79  40   100  74  37    97  73  37    96  72  36    97  73  39    96  72  39    91  68  36    90  67  36    89  66  35    84  60  32    77  53  26    79  57  30    72  51  24    71  49  27    68  49  25    87  71  41   139 126  88   157 149 101   141 136  79   128 124  66   124 115  64   103  86  49    99  83  54   131 127  82   110 107  61   108 102  56   109 101  52   102  90  47    84  69  37    64  45  23    59  38  20    63  44  25    61  43  21    60  44  19    62  44  20    62  44  20    60  41  17    58  40  16    60  43  17    61  45  20    61  45  17    64  47  16    60  35  10  
  85  62  28    91  67  32    91  67  31    92  68  32    95  71  33    92  68  30    87  63  26    93  67  34    91  66  33    87  62  31    94  69  39    88  63  34    87  61  34    87  62  35    86  62  34    83  59  31    82  58  32    83  59  33    84  61  37    74  52  28    70  48  24    70  49  23    85  67  35   130 116  76   151 141  91   136 130  71   123 116  57   117 105  55    93  75  37    92  75  44   130 122  75   107 103  54   105  96  50   108  97  51   100  86  46    83  66  34    67  47  23    62  40  20    65  43  23    66  46  22    61  44  16    62  46  17    64  47  19    63  46  18    60  43  15    60  43  15    61  44  17    63  47  17    66  51  15    61  35   5  
  85  61  27    88  64  30    89  65  31    88  64  30    91  67  32    95  71  35    95  71  35    87  63  27    91  67  32    95  71  37    86  61  30    85  61  30    84  61  30    87  63  32    88  65  33    82  59  27    83  60  29    82  59  28    81  59  28    78  57  26    82  61  32    80  60  30    92  73  39   119 103  62   137 124  75   140 130  73   129 120  62   113  99  50    92  71  34    90  71  39   128 120  71   123 116  68   120 109  64   118 105  59   107  92  51    88  70  35    74  52  24    69  45  19    66  44  16    68  47  16    68  49  17    67  48  16    68  49  17    69  50  18    67  48  16    66  47  15    66  48  16    64  48  15    69  52  16    71  45  17  
  98  74  40    88  64  30    87  63  29    87  63  29    93  69  35    95  71  37    99  75  39    97  74  33    99  75  36    98  74  36    90  66  30    91  67  33    94  71  37    90  67  30    92  69  32    92  70  33    95  74  37    92  70  33    89  69  33    95  75  40    88  67  36    86  66  33   102  83  48   118 102  60   125 112  61   129 119  60   119 108  51   110  94  47    92  71  32    85  65  33   119 109  60   124 117  68   121 110  65   114 102  52   104  90  45    88  69  30    79  56  23    78  55  22    78  55  19    82  62  25    76  57  24    72  53  20    72  53  20    73  54  20    73  54  21    75  56  23    78  60  24    77  62  22    73  56  20    77  48  25  
 104  80  42    98  74  36    96  72  34    99  76  36   100  77  36    97  74  33   103  79  38   107  82  41   107  82  41    99  74  33   106  81  40   104  79  38   105  80  39    97  73  34    97  74  33    97  74  33    99  75  34   106  83  40   102  79  35    99  77  30   117  90  47   107  84  41   111  92  49   110  95  51   112  99  54   109  96  53    96  82  39    90  74  38    67  50  29    73  57  29   126 116  63   122 112  64   116 107  60   111 101  50   102  90  41    82  64  22    76  53  14    81  55  18    80  55  15    87  64  20    87  62  24    82  58  20    81  57  19    80  58  19    80  58  19    81  59  20    85  62  20    85  61  21    80  61  21    73  54  21  
 103  79  41   103  79  40   106  83  42   108  85  44   109  86  45   111  88  47   115  92  50   117  93  49   122  98  54   120  96  52   127 103  59   120  96  52   116  92  48   113  90  48   115  92  51   115  92  51   102  78  37   107  84  42   111  88  46   109  86  44   107  82  41   105  84  41   105  87  44   102  86  43    98  83  40    96  81  38    91  75  33    80  61  27    67  48  27    81  64  37   120 108  56   108  96  48   112 101  54   114 103  50   112  98  49    96  76  34    85  62  25    89  65  30    86  64  27    85  66  26    81  61  26    77  57  22    77  57  22    77  57  22    77  57  22    76  58  22    74  56  20    71  51  19    73  58  22    61  46  16  
 108  85  44   107  84  43   112  89  48   118  95  54   125 102  60   128 105  63   125 101  58   127 103  57   128 104  58   126 102  56   131 107  61   125 101  55   124 100  54   116  93  50   110  87  45   116  93  51   106  83  42   113  90  49   113  90  49   101  78  37    98  75  34   106  85  44   107  89  46   105  88  45    95  78  34    89  70  27    94  74  31    88  65  29    72  49  27    93  74  45   129 116  63   113 100  51   119 106  58   117 105  47   117 102  49    99  81  36    79  59  24    79  58  28    73  54  23    65  48  15    68  51  21    65  49  19    65  50  19    65  50  20    64  49  18    64  49  18    61  46  16    53  39  16    50  39  12    45  34  11  
 119  94  54   115  90  50   120  95  54   128 103  62   138 113  72   142 117  76   131 107  64   131 107  59   131 107  59   132 108  60   132 108  60   122  98  50   118  94  46   120  96  51   111  87  43   111  86  45   108  83  42   107  82  43   103  77  40    92  66  29    93  69  31    91  70  29    90  72  30   103  86  42   105  86  43    97  76  31    99  76  31    93  70  28    76  52  25    98  77  44   135 121  62   121 110  54   121 110  56   120 107  47   120 105  49    95  78  35    68  52  20    64  47  23    57  42  19    50  35  10    52  40  16    51  39  15    52  41  16    52  42  17    50  40  15    49  39  14    47  38  14    42  35  15    38  31  11    30  23  11  
 123  98  57   125 100  59   131 106  65   133 109  66   138 114  70   148 124  80   140 116  71   135 111  63   131 107  59   128 104  56   123  99  51   114  90  42   112  88  40   113  89  43   110  86  42   112  88  44   110  85  44   100  75  35    96  71  31    91  66  26    84  61  19    86  63  21    92  72  29   101  83  37   103  82  37    99  76  32    95  73  27    95  72  26    89  65  31   106  88  46   136 125  59   127 118  55   124 117  56   120 110  48   112 101  46    82  70  31    54  43  17    47  36  17    44  35  16    42  34  15    41  34  15    41  34  15    43  36  17    43  36  17    40  35  15    39  34  14    37  32  12    32  29  10    34  31  16    29  22  15  
 122  97  56   125 101  57   129 105  61   134 110  65   136 112  68   143 119  75   138 114  68   136 112  66   128 104  58   120  95  50   113  89  43   111  86  41   112  88  42   109  85  39   112  88  42   112  88  42   111  87  42   107  83  39   104  80  36    97  73  29    99  72  25   101  78  30   109  87  40   106  87  40   106  85  38   107  85  39   104  83  35   105  85  39    95  76  42   107  93  53   141 133  69   133 130  68   132 132  70   118 113  55    99  93  45    66  60  28    40  34  14    31  25  12    31  25  12    35  29  14    36  30  14    35  31  14    36  33  16    35  32  15    33  30  13    32  29  12    31  29  10    27  25   7    29  25  12    28  21  15  
