P3
50 50
255
 155 119  57   156 119  52   162 121  43   177 129  46   181 135  49   178 132  47   168 123  40   156 113  35   146 103  32   135  90  26   125  80  21   122  77  20   117  79  32   107  67  19   112  68  19   113  67  17   114  69  19   105  58  12   104  60  15    96  54  11    78  40  10    74  41   2   109  82  27   128 108  37   121 105  28   101  86  19    87  68  25    66  44  19   130 105  38   140 122  56   129 119  49   125 117  45   139 122  62   119  96  45   115  90  32   110  90  14   113  83  22    96  66  10    96  64  12   146 116  54   149 126  49   133 116  38   159 145  79   181 168 118   164 150  85   150 134  74   129 112  58   109  88  42    91  72  29   114  97  54  
 143 103  45   147 108  46   169 126  56   193 143  67   194 145  65   182 132  53   170 121  44   158 111  37   144  98  30   139  95  33   135  91  34   125  82  28   107  69  24   102  64  18   104  63  16   100  58  12   107  65  19   105  64  19   101  62  19    89  51   9    86  56  15    88  61  15   125 102  46   144 125  57   134 118  42   108  92  23    97  79  26    82  59  20   148 122  55   145 124  64   147 132  72   155 141  72   159 139  71   146 116  54   145 115  48   131 105  23   118  88  14   114  84  15   118  87  22   145 116  43   163 141  56   151 135  48   169 156  82   184 172 112   169 156  91   150 134  75   124 104  54   111  89  45   101  76  36   109  85  44  
 145 103  47   154 113  56   175 128  66   187 135  67   192 137  64   184 130  57   170 117  43   154 104  34   144  96  30   136  91  31   127  84  30   119  78  27   103  68  23   105  69  25   100  64  19    94  57  14   103  67  23   106  72  29   101  67  27    90  58  18    93  72  20    97  77  25   113  95  38   147 130  66   131 117  44   126 109  36   115  95  31   109  86  30   165 137  73   170 148  94   177 157 107   181 160  96   173 146  72   155 120  45   151 115  36   143 111  23   129  99  11   123  94  12   114  86   7   124  98  14   147 127  36   159 143  54   165 150  73   173 159  93   162 151  87   136 121  62   111  90  39   102  76  32    95  66  23   111  82  35  
 139  95  37   145 101  45   163 113  54   170 116  53   183 124  57   177 119  50   164 106  36   154  98  30   150  98  32   142  94  33   129  85  31   122  81  29   100  66  20   103  70  25    99  65  22    95  64  21   100  71  28   103  74  34    97  70  29    93  67  26   102  87  28   100  84  28   102  86  31   140 124  64   142 126  56   144 124  51   143 120  49   140 114  49   175 148  88   188 164 117   194 171 127   190 164 104   171 138  64   154 116  36   146 108  26   141 106  15   130 101   8   122  94   5   111  87   1   112  90   2   120 101  14   142 127  44   146 131  58   150 136  72   146 135  70   126 112  50   113  93  34   114  88  32   107  77  20   124  92  30  
 147 102  37   141  95  34   153 103  40   166 111  46   176 119  50   179 119  50   168 110  37   171 113  39   183 127  56   164 113  48   132  86  27   122  80  25   106  70  21   107  73  26   104  73  27   104  77  32    99  75  29    96  73  29    90  68  22    92  70  23   103  88  29   103  88  33    99  82  30   143 127  67   154 135  69   155 132  62   158 132  64   155 125  61   179 154  96   192 168 120   183 161 114   174 148  89   163 130  62   149 110  40   133  96  18   131 100   9   132 105   9   117  93   1   115  93   1   104  87   1   104  89   5   112  99  23   124 110  44   121 107  47   135 125  56   141 127  57   137 118  44   141 117  39   146 119  36   160 129  43  
 175 128  58   170 123  54   178 128  58   194 140  69   197 143  71   188 133  57   196 139  62   209 150  72   201 143  69   179 125  54   150 100  36   124  78  19   120  83  28   119  83  31   111  81  28   108  82  33    95  73  24    96  76  26    94  74  23    95  75  23   102  81  29   102  81  31    91  71  20   141 122  66   154 132  69   157 132  66   160 130  68   158 126  70   180 155 101   189 167 117   172 152  99   158 134  74   145 113  55   127  91  34   108  75   9   123  97  12   132 109   5   120 101   1   114  99   1   100  90   1    91  82   1    91  82   9   104  95  28   101  90  28   137 127  58   161 148  69   162 147  55   152 134  30   153 131  21   173 149  40  
 199 154  76   191 146  71   191 142  68   204 151  75   209 159  82   206 156  78   218 164  87   230 173  92   215 156  74   188 130  54   156 105  41   133  87  26   123  84  26   121  84  27   112  79  25   105  78  26    91  71  18    98  80  27   103  83  29   100  78  24    96  75  25    92  70  21    87  64  14   120  97  44   157 131  71   150 124  61   156 126  67   152 122  66   179 157 101   181 160 108   175 154  98   156 133  72   129  99  42   110  76  24   106  77  11   122  99  14   129 108   1   134 117   5   123 111   3   111 103   4    86  80   1    84  75   3    97  88  23   100  90  27   147 135  63   161 149  68   166 151  57   171 154  46   168 149  33   178 156  40  
 204 163  82   205 163  85   208 161  86   209 157  82   209 161  82   217 171  93   222 174 101   227 174  92   209 151  57   186 126  48   153 101  43   134  92  27   131  89  26   132  89  28   126  87  29   116  87  29   100  82  23    99  86  27   107  88  31    95  69  15    85  66  17    93  71  23    99  74  25   107  79  29   154 124  70   157 128  70   146 120  55   146 120  53   172 150  91   176 151  96   174 148  91   150 124  58   132 103  38   114  84  21   120  90  15   128 101   8   131 110   1   140 123   6   127 114   1   113 102   1    94  84   1    85  72   4   100  86  24   105  91  28   148 136  63   176 162  88   180 164  86   189 173  84   181 163  65   163 142  42  
 204 159  81   205 161  85   209 160  85   206 151  77   199 142  74   212 159  80   214 163  81   213 159  70   190 135  43   165 107  38   141  89  37   142  98  35   162 116  44   142  96  27   130  90  23   125  94  29   106  85  24    98  81  25   101  81  30    86  62  16    71  55  11    81  61  18    90  66  23    90  63  17   116  87  37   143 114  58   132 103  40   141 113  46   166 145  82   173 149  90   163 138  75   148 120  49   140 109  38   126  90  21   132  98  14   138 105   3   141 116   4   144 121   4   136 116   1   122 103   1   109  88   1   107  82   2   118  92  18   128 100  28   156 135  72   188 168 107   189 169 105   193 174 102   187 169  88   166 143  62  
 194 143  67   188 136  60   189 135  53   194 137  52   192 129  65   196 140  61   189 135  52   181 130  48   163 111  34   138  85  31   128  77  30   155 111  40   175 125  44   150 103  24   150 109  31   151 119  45   126 101  36   105  84  29    94  73  30    71  48  13    54  39   5    69  53  19    77  56  24    72  48  13    78  50  10   123  92  45   116  85  30   128  96  39   160 137  73   169 143  83   152 125  58   147 115  40   149 114  36   139 100  22   144 104  12   146 107   1   157 126  10   152 122   5   153 121   4   144 112   1   141 105   1   147 108  13   154 111  23   164 120  36   172 140  81   202 175 120   200 181 124   196 179 119   190 170 106   174 150  83  
 171 117  46   163 110  41   157 100  33   151  91  24   158 101  37   152  99  26   137  87  22   129  84  26   116  74  23   102  57  19   112  64  19   166 120  42   170 120  37   169 124  38   183 145  60   177 146  63   135 108  39   101  78  24    82  60  22    64  44  17    50  32  10    61  43  23    56  35  17    58  33  12    54  27   1    90  60  26   104  71  29   122  88  42   152 128  64   166 140  79   149 120  54   143 110  34   149 112  33   157 116  37   175 132  39   184 142  30   171 133  20   162 122   9   163 121   8   161 117   4   166 118   6   175 124  18   174 121  22   183 127  36   184 143  81   216 187 129   217 200 144   205 190 133   189 169 110   170 145  81  
 149 102  38   130  85  30   120  73  29   109  59  21   114  73  18   108  67  11    95  55  11    86  51  16    80  49  13    79  44  16   103  59  18   170 122  46   176 129  48   183 142  57   193 160  70   173 147  59   134 106  33    98  70  17    66  43   9    51  33  10    49  30   8    53  33  14    48  26  10    52  30  12    57  31   9    69  40  12    97  66  27   118  86  42   142 116  56   155 125  69   142 110  48   141 107  36   156 119  43   182 140  66   197 154  66   200 158  51   182 139  32   173 127  22   173 124  18   177 124  15   182 128  14   187 130  21   187 127  27   192 131  41   195 149  85   220 190 128   215 201 145   203 192 137   191 172 115   170 142  80  
 128  93  37   109  79  31   101  73  29    98  67  26    96  68  28    89  60  21    77  48  21    66  43  18    66  47  15    78  51  23   102  61  24   161 111  46   189 144  67   197 161  77   198 170  79   176 151  61   146 118  43   107  77  23    66  42   8    54  37  15    64  41  13    61  40  13    60  39  15    54  34  11    70  48  21    75  50  17   109  81  40   130 101  54   141 111  56   150 119  66   144 111  55   144 109  42   158 120  51   191 149  80   192 150  68   184 143  43   173 127  25   168 119  19   169 115  15   176 118  13   181 122  10   183 123  13   188 126  28   194 132  44   206 158  95   219 189 130   215 203 151   204 195 146   193 173 121   181 150  93  
 120  97  44   108  87  36   114  94  44   108  87  37    93  76  33    84  63  24    73  50  21    67  48  18    75  60  15    77  57  19    87  57  20   135  98  42   188 154  77   203 172  92   193 165  82   172 146  65   140 114  45   102  77  23    70  50  10    78  62  32   126 102  46    99  73  31    74  51  19    76  54  21    77  56  18    72  47  10   115  85  43   155 123  75   151 124  65   166 136  80   160 130  72   148 115  53   157 119  53   179 138  68   183 137  59   175 129  43   159 108  20   152  97  11   151  98   4   147  97   2   154  98   3   162 102   2   169 111  14   186 135  55   203 168  99   221 192 130   221 203 151   206 193 143   193 179 123   194 172 111  
 131 114  56   129 112  56   136 119  63   125 108  53   119 103  55   104  83  36    91  67  30    90  67  27    93  75  25    82  62  19    90  62  22   143 111  51   198 165  92   200 168  90   178 146  68   163 131  54   139 112  40   108  84  21    88  67  15   105  87  40   168 143  77   126 102  49    97  75  27   109  90  36    98  78  21    92  69  17   128  99  50   158 127  73   155 129  69   165 139  82   162 133  77   154 122  65   162 125  63   169 128  59   167 120  48   166 117  39   148  95  23   129  74   8   124  71   3   122  75   1   131  78   2   146  87   1   160 105   5   188 142  60   199 165  94   209 179 117   222 199 147   208 192 141   194 180 123   193 175 113  
 126 113  59   125 112  58   132 119  67   128 116  63   121 103  53   128 107  52   141 115  65   141 118  67   127 106  51    97  74  30   103  75  28   159 129  56   187 158  85   179 151  75   160 132  53   154 128  48   139 116  38   110  91  17    91  75   5   105  89  27   147 126  64   130 109  57    97  77  27   112  97  33   122 105  37   129 107  48   148 121  68   158 128  75   150 125  69   148 123  69   150 123  71   155 125  71   157 123  67   154 115  53   147 105  37   143  97  25   130  81  22   109  56  10    96  48   7    94  52   4   113  66   1   140  83   1   168 113  11   204 154  67   199 162  92   196 164 103   212 186 134   200 180 129   191 174 118   192 172 110  
 122 111  59   115 104  54   113 104  54   110 101  53   111  91  44   124 102  45   142 116  59   144 118  61   131 110  52   108  85  41   111  83  35   157 128  51   162 138  60   160 136  59   144 123  44   125 106  27   113  95  20   103  87  16   100  85  17   106  93  28   130 109  60   172 151 114   117  96  63    92  74  28   107  87  35   117  93  46   129 103  56   142 114  66   151 128  76   142 119  68   148 123  75   154 126  79   150 119  69   147 111  58   140 101  41   127  84  21   115  73  10   115  69  17   103  59  15    97  60   7   122  81   3   148  95   1   171 117  17   208 159  74   204 165  99   195 162 101   199 173 120   194 175 121   198 179 120   200 179 114  
 125 116  58   116 108  52   106  99  44    97  90  36    95  79  34   102  82  29   116  91  39   118  94  41   112  92  35    97  76  32   102  78  33   145 121  50   157 126  53   142 112  41   126  98  31   117  90  27   121  95  38   121  96  42   121  94  46   117  91  44   128 112  65   203 184 152   153 132 106    95  75  39   100  79  35   110  88  42   130 107  58   142 118  61   138 116  66   136 113  64   134 111  64   135 110  66   139 112  65   140 108  59   130  95  41   120  83  26   116  80  12   130  91  21   121  80  16   117  81   8   141 100   5   152 101   1   167 116  23   208 165  89   207 172 107   195 164 105   190 166 111   199 180 123   204 186 121   197 175 103  
 113 104  48   106  99  45   101  94  42    97  89  40    91  81  40    86  70  27    91  69  29    96  73  30    99  82  30    90  76  33    91  73  35   122 104  46   143 111  53   132 101  47   150 121  72   181 154 110   204 178 139   198 169 135   186 158 125   175 145 113   155 142  97   199 184 152   178 160 131   123 104  63   122 102  50   135 114  60   156 134  80   162 140  79   152 132  81   140 119  70   132 111  65   133 112  67   133 109  65   127  99  51   119  88  36   115  82  28   115  84  22   130  94  20   127  84  13   128  85  10   147  99   7   151  97   4   168 119  40   206 173 103   203 174 109   188 164 104   183 163 105   196 181 118   195 178 105   181 159  79  
  83  71  31    85  72  36    87  77  41    88  77  44    76  71  33    78  64  29    83  63  35    84  63  29    89  76  26    88  76  36    81  68  33    97  83  37   107  87  43   147 128  87   204 189 151   230 216 183   236 224 193   236 221 192   242 226 195   232 216 183   213 200 167   215 199 176   216 199 171   160 143  95   144 125  66   144 124  68   162 140  89   181 159 106   171 151 100   133 115  65   130 112  66   143 122  79   126 103  59   113  89  41   115  87  37   109  79  25   104  73  25   124  88  19   132  85  20   137  86  24   149  92  17   154  96  18   169 121  54   189 161  92   193 168 104   184 164 103   186 172 111   197 186 118   190 177  98   178 156  70  
  59  44  23    62  50  27    67  56  29    63  54  23    54  47  23    55  44  22    63  51  29    73  58  37    71  56  34    68  57  29    73  63  33    77  71  38   103  91  60   151 140 108   210 201 168   219 214 180   224 220 186   228 224 189   227 226 190   213 213 175   210 202 165   204 191 155   198 180 142   158 135  91   136 113  59   128 106  49   152 132  79   164 145  97   157 135  78   114  93  41   101  83  36   118 100  54   124 104  54   105  82  31   100  69  22   106  71  29   105  68  26   105  64   8   130  83  17   143  91  33   126  71  18   128  81  17   160 120  51   180 143  74   195 176 117   195 180 123   185 170 111   200 182 109   201 175  89   188 154  65  
  51  41  17    52  43  22    53  45  26    51  43  25    48  43  18    47  40  16    49  38  15    55  41  19    61  46  24    66  50  28    66  52  29    65  51  27    79  59  36   125 106  83   195 177 152   218 204 177   224 211 181   227 216 183   222 213 180   204 196 162   204 193 156   195 182 138   181 163 115   147 125  74   116  90  41   117  92  45   130 107  59   127 106  58   117  93  52    90  67  32    79  58  29    72  52  24    99  79  41    98  74  31    93  65  19    97  65  21   113  77  30   135  97  34   146 104  36   131  82  25   115  66  13   131  87  29   157 120  58   165 131  70   185 163 104   190 173 111   182 167  94   195 177  91   203 177  81   181 148  49  
  63  61  26    59  57  26    57  53  27    57  53  30    48  44  19    54  48  23    58  48  21    60  47  19    66  50  21    69  50  23    69  49  23    70  48  23    72  41  26    90  61  44   144 115  97   179 153 133   190 165 144   192 170 148   192 173 152   188 169 149   172 159 120   174 160 114   166 148  95   131 108  55   103  77  28   103  76  29   116  91  41   108  86  32    97  74  37    74  52  23    62  40  20    52  31  12    74  53  25    94  71  32    94  69  23   109  80  33   143 112  55   150 117  50   147 111  42   139  99  40   145 105  49   160 125  62   165 133  68   158 130  69   159 132  75   192 171  99   189 171  83   197 177  76   204 177  68   176 146  33  
  79  78  33    66  64  24    57  50  20    57  49  23    61  52  25    58  50  17    58  48   8    64  51   6    76  59  10    83  62  12    83  59  11    84  57  11    88  57  21    84  53  17    92  59  24   111  78  46   128  96  68   126  97  72   126 100  81   151 127 108   143 128  89   116  99  57   115  95  50   121  98  48   112  89  30   111  87  24   126 103  38   112  89  25    95  76  18    81  61  14    70  50  14    62  42  10    71  49  13    96  74  28    99  75  27   128 101  52   149 120  60   149 121  54   152 121  53   153 121  59   156 125  59   162 135  59   160 134  55   147 121  50   135 103  43   173 149  66   200 178  77   196 173  64   197 168  54   184 156  34  
  73  69  10    75  65  10    82  67  18    92  73  25    94  77  30    89  73  19    94  79  13   104  89  13   111  95  12   119  99  16   121  99  19   122  97  20   109  85  11   109  82   8   118  90  19   133 103  37   135 106  46   132 106  53   128 105  59   139 119  79   161 148 105   127 111  71   109  92  48   131 113  59   120 101  33   126 107  27   139 121  38   140 119  39   128 112  29   100  84   9    99  80  17    96  76  17    89  69   8    93  72   9   108  87  25   139 117  59   155 131  71   148 124  60   151 127  64   152 128  67   148 123  56   158 133  51   161 135  51   144 116  43   127  90  27   156 126  35   191 165  56   190 162  55   180 148  40   174 145  27  
  93  82  11   107  89  17   125 101  25   130 102  24   125  98  19   128 103  15   139 119  20   144 127  17   139 123  10   141 123  13   144 124  18   137 115  15   119 102  13   112  92   4   131 107  18   148 124  36   131 109  24   135 116  39   135 121  50   131 122  52   178 166 116   168 156 104   128 115  59   126 112  49   127 113  40   143 128  47   149 133  46   154 137  49   140 125  32   140 122  36   129 111  29   119 100  20   126 105  23   126 105  23   127 105  30   152 129  61   158 136  76   143 122  62   140 119  63   143 120  71   145 120  64   152 125  55   144 113  45   120  83  29   121  81  12   156 121  24   174 144  34   177 142  45   160 124  29   150 120   9  
 106  88   9   122  97  16   133 100  16   127  90   2   131 102   1   139 112   1   149 128   8   146 129   2   131 117   1   130 116   1   135 119   6   130 113   5   123 106  21   116  99  14   120 101  16   137 117  31   137 118  32   142 126  44   145 134  56   155 145  72   174 164 109   170 161  99   139 129  61   136 125  52   153 141  67   163 149  73   164 148  65   158 143  54   151 134  45   154 138  50   147 129  40   155 138  46   150 132  38   143 124  34   130 110  28   140 120  45   128 108  45   129 107  50   125 101  53   125 100  55   124  99  47   129 101  40   119  84  31    95  54  15   112  68   1   150 113  19   169 136  30   162 127  32   140 107  19   134 107  10  
 128 107   9   138 111   9   149 115   7   156 117   6   149 121   2   155 130   8   150 129   7   138 124   4   127 116   1   119 109   1   119 111   4   123 114   8   122 107  12   123 108  18   117  99  17   120 102  23   127 110  30   130 112  34   142 125  51   153 136  66   157 148  90   166 156  94   158 147  80   159 147  74   159 146  69   166 151  73   164 148  70   161 145  68   160 144  65   160 145  62   164 150  60   167 155  60   153 140  45   134 120  31   126 111  29   119 103  27   116  98  29   126 101  46   109  79  36   106  78  32   111  88  31   112  89  28   105  73  22    91  50  12   116  72   6   141 101  17   161 126  33   152 121  31   120  95  19    98  79  11  
 144 124   4   149 125   3   155 125   3   161 128   6   146 120   1   148 124   4   133 112   2   127 110   5   120 106   7   113 101   4   123 111  13   125 114  14   122 110   7   123 111  13   121 107  17   112  97  15   109  91  16   113  95  22   127 108  35   145 127  51   165 152  89   165 152  88   151 139  70   144 130  60   136 121  49   149 132  60   155 139  67   153 135  64   148 131  63   158 141  70   158 142  63   158 144  57   153 139  49   133 119  30   120 105  22   118 102  22   102  87  17   124 101  43   121  93  46   102  74  31   112  88  40   108  82  29   101  68  15   106  64  13   136  89  22   138  96  19   152 117  34   146 116  41   118  93  34    86  67  15  
 159 138   1   161 138   1   154 127   1   146 115   1   147 122   4   143 120   7   127 105   5   121 101  13   118 102  16   116 102  13   128 116  17   137 126  20   124 115   5   120 112   5   114 103   6   106  91   7   104  88  11   102  83   7   109  88   7   140 119  34   166 149  77   165 146  78   149 132  63   137 119  53   125 107  40   137 119  54   145 127  60   138 119  53   134 116  54   151 133  67   147 130  57   145 129  51   148 131  50   128 111  32   110  92  15   110  92  18   102  87  19   106  86  23   122  97  42   104  77  32    98  73  32   100  71  26   107  72  15   137  99  29   138  93  11   143 106  19   148 116  29   146 119  43   129 108  48    95  79  27  
 155 130   1   157 133   1   159 135   2   159 134   9   151 128  15   144 121  18   140 119  29   130 112  31   127 110  29   127 114  21   126 115   9   137 126  10   130 122  14   118 109   4   108  97   1   104  91   1   111  95   5   115  95   4   120  94   2   141 114  18   156 133  56   159 136  61   148 128  58   134 117  50   121 103  41   134 116  54   139 119  58   122 101  37   123 105  41   140 122  56   146 129  59   136 118  46   120 102  30   117  98  29   117  98  33   101  81  19    98  83  13   105  84  17   114  88  29   107  80  32    93  68  26   109  82  34   122  91  25   141 104  23   137  98   4   146 111  19   145 118  32   137 115  40   128 112  51    95  85  31  
 162 133   3   162 135   2   159 135  11   160 137  24   156 133  28   150 127  30   150 128  43   138 119  43   134 117  40   135 118  33   124 110  11   131 117  11   121 109   7   110  97   2   104  90   1   108  96   1   129 112   2   151 128  10   161 131  18   161 127  20   167 138  55   155 128  50   143 120  47   137 117  52   120 101  39   129 109  47   135 114  50   122  99  34   108  90  28   117  99  35   125 108  41   125 106  39   113  93  26   109  88  23   118  96  34   116  94  34   108  89  19   125 101  33   112  86  23   110  83  28    97  74  21   105  81  21   131 104  29   150 117  31   140 106  15   133 102  18   138 113  39   128 111  47   131 119  65   100  90  40  
 159 127   3   163 136   5   162 140  17   163 143  30   161 138  37   150 128  35   134 113  31   117  97  25   114  95  26   116  98  25   113  96  16   115  97  13   116 100   6   109  93   8   106  90   6   123 110   8   149 133   2   168 146   5   177 145  16   169 130  17   167 134  47   163 133  52   151 126  52   141 120  54   130 110  48   144 124  61   144 123  57   122  99  30   104  85  30   100  81  25   105  87  27   123 103  40   123 104  37   115  94  27   117  97  29   120  98  31   121 100  28   128 102  35   127  98  35   117  92  30   111  90  26   109  90  17   129 105  24   148 120  33   143 113  22   130 103  21   128 107  38   130 114  55   141 131  77   102  92  41  
 143 109  10   150 127   4   154 138   6   158 143  16   150 134  31   137 121  28   124 106  24   120 102  25   110  93  21   103  85  19   108  93  22   109  95  13   118 104  12   120 103  21   119  99  18   137 116  18   158 138  13   172 146  14   176 144  22   156 120  14   154 117  38   163 130  56   150 125  56   143 122  58   140 122  60   157 137  74   146 124  57   117  93  25   108  88  33   102  83  21   101  84  16   126 107  37   136 117  48   141 117  49   139 114  43   138 111  39   146 119  46   136 107  36   144 115  47   116  90  21   114  91  19   125 105  27   128 109  25   139 119  31   129 109  24   114  96  14   110  96  22   115 103  42   129 118  67   110  96  52  
 130  98  15   140 118   6   150 134  12   150 137  21   144 130  32   129 113  26   126 109  31   130 114  37   123 107  32   109  93  19   100  87   9   101  89   7   121 107  18   124 107  27   117  95  20   133 108  22   157 133  31   165 137  28   163 129  30   154 116  29   136 100  26   154 120  51   150 125  59   159 139  78   162 146  85   159 140  78   146 125  58   124 101  33   102  85  26   101  86  17   108  92  15   126 111  30   148 129  54   153 129  58   152 123  53   156 126  53   153 120  53   148 115  48   151 120  53   119  92  22   113  89  17   124 102  25   120 103  20   117 101  16   123 106  26   111  98  18   110  98  24   105  94  30   102  90  38   105  91  47  
 124  97  23   140 120  25   146 130  29   138 123  30   134 119  29   130 116  28   130 114  36   122 106  27   123 112  22   130 121  20   126 116  19   131 119  32   148 132  45   152 132  55   135 111  43   124  96  28   135 106  31   143 110  33   141 103  30   139  98  32   120  86  15   134 103  36   164 140  76   168 149  90   174 160  99   172 157  95   150 131  63   130 111  42   106  90  28   103  89  15   115 104  17   123 110  20   149 131  47   153 130  53   151 121  49   157 124  53   156 118  54   161 125  61   162 128  64   132 102  38   112  87  20   108  88  19   113  97  23   110  94  19   115 101  26   105  92  14    99  90  15   111 101  36    98  87  33    99  87  37  
 116  92  26   132 112  29   138 121  35   130 112  33   127 110  28   130 116  31   124 112  30   119 108  21   129 121  17   143 137  16   156 146  35   171 158  67   178 159  79   176 153  78   160 135  67   137 107  45   128  97  35   132  97  33   129  91  25   131  93  24   131  96  25   136 105  37   170 145  83   181 165 104   186 171 111   177 163 100   165 147  79   140 121  52   115  99  34   102  91  12   110 101  10   117 107  11   134 118  30   146 123  44   147 115  44   159 122  55   176 136  65   169 130  61   159 124  56   133 102  38   107  81  19    95  75  16    96  80  23   104  89  32    96  82  12   102  89  16   116 105  33   126 114  50   109  97  42    99  87  35  
 108  88  26   117  98  25   123 105  29   121 101  32   120 100  37   119 102  33   108  96  20   121 112  25   143 137  33   154 147  33   174 161  58   190 173  91   194 171  97   179 155  78   165 139  61   148 120  48   134 102  35   131  96  30   134  98  25   136 100  20   147 110  35   146 115  43   171 147  81   186 167 104   195 180 119   182 167 105   163 145  79   153 133  64   132 113  46   114  99  23   112 101  14   120 110  20   117 101  19   125 102  31   129  98  31   153 116  52   179 141  62   160 123  45   148 115  40   138 107  40   115  89  29    96  74  19    80  60  12    83  65  20   109  94  29   133 119  51   135 121  52   123 108  45   107  92  38   104  90  38  
 114  95  36   115  95  30   115  92  29   117  93  38   126 105  50   116  99  37   103  92  14   115 111  14   151 146  40   179 172  67   198 183  91   204 186 104   205 180 105   190 167  81   166 142  50   146 118  31   128  95  22   120  87  18   130  96  21   132  97  15   151 111  31   166 131  55   171 143  74   185 164 100   198 181 120   190 172 110   173 154  88   166 144  77   157 134  67   138 119  47   124 110  32   129 118  42   125 109  43   112  90  30   115  85  25   146 111  50   171 133  55   158 122  44   140 106  31   133 103  32   114  89  24   106  82  24    96  75  22    93  74  25   122 104  45   149 131  69   129 111  47   120 101  41   112  93  41   101  83  36  
 119 100  42   104  82  25   100  74  23   114  85  44   159 139  75   137 122  51   128 122  27   140 140  22   172 172  50   198 191  85   201 187  90   204 186  89   207 181 104   199 175  83   172 149  46   158 131  35   136 104  27   110  76  11   120  85  16   133  99  22   151 111  24   160 123  43   161 133  59   181 161  93   188 170 106   186 167 104   175 154  91   176 152  88   176 149  84   153 130  62   128 111  42   128 115  51   136 121  65    99  77  26    93  63   9   122  90  31   163 125  55   162 126  54   132  99  26   129  99  26   121  94  24   124 101  34   123 102  38   103  83  23   124 105  47   146 126  65   150 128  67   124 102  44   108  87  38    95  75  31  
 128 107  40   121  99  41   107  84  33   127 103  56   174 163  98   154 151  44   182 187  41   191 197  48   204 201  71   216 202  86   209 186  77   208 178  74   209 180  69   204 181  70   184 166  58   167 152  49   153 137  42   131 108  22   120  88  13   123  87  17   146 111  31   148 117  40   155 129  57   169 148  80   181 163  98   176 160  95   165 150  85   161 146  79   164 150  87   150 134  72   127 110  49   116  97  39   126 106  54   104  85  42    76  58  22    81  65  32   133  97  47   141 109  49   128 102  33   110  88  17   111  90  24   106  86  26   110  90  26   100  80  13   130 115  51   161 145  85   159 142  89   139 122  73   110  92  44    94  78  29  
 152 131  64   134 112  50   115  93  35   128 105  50   162 147  82   173 168  60   221 222  73   233 232  76   227 219  75   216 197  66   208 180  59   215 181  67   213 187  65   204 181  65   197 179  71   190 177  77   177 163  74   169 150  70   153 129  55   121  93  21   114  84  15   126  99  28   143 121  47   157 137  63   164 147  75   169 151  84   166 147  83   157 138  77   152 136  74   140 123  62   137 119  57   109  90  31   120 101  48   116  99  53    99  85  46    99  85  51    99  69  30   102  76  32   107  83  34    96  74  24    92  73  22    92  70  21    96  74  26    86  62  14   141 124  68   162 145  85   155 140  78   147 132  74   129 113  61   122 106  60  
 172 152  82   140 120  50   127 108  37   144 125  56   158 142  73   196 187  77   241 236  86   238 230  68   225 211  51   211 189  38   210 180  41   221 185  60   221 198  65   215 194  70   209 194  85   206 194 101   196 185 105   191 180 105   184 170  97   160 142  71   118  96  33   102  82  16   114  96  25   142 124  51   150 134  61   151 133  64   155 136  71   156 135  74   143 124  63   143 123  62   141 121  60   119  99  40   110  93  39   114  98  51   111  98  58   109  98  61   104  83  45    83  63  28    75  56  22    69  51  12    84  66  21    92  73  26    91  69  27    86  62  25   122 104  58   162 146  87   160 148  76   150 137  69   145 131  75   179 164 120  
 180 160  88   164 147  70   163 147  65   176 161  76   181 168  89   193 181  69   227 217  71   233 220  58   220 202  35   208 185  20   217 189  38   229 196  62   228 208  70   223 204  80   209 196  90   206 196 109   204 196 122   195 189 121   188 181 114   181 174 104   156 144  77   128 114  49   108  93  29   117 100  37   135 117  53   145 126  59   147 128  60   151 132  63   147 127  69   152 132  72   142 122  61   132 112  52   113  96  41   117 104  53   113 101  57    98  89  48    87  72  32    75  61  27    66  51  23    49  35   2    67  51  11    85  68  23    82  62  23    73  49  17    91  69  33   148 129  76   152 139  67   140 126  55   160 145  88   194 180 135  
 177 158  83   177 161  79   189 178  87   212 201 105   203 194 104   181 173  60   190 181  43   206 192  40   224 206  44   221 203  35   215 195  40   224 201  64   224 205  76   224 207  90   212 198 100   204 193 113   200 193 125   197 191 128   192 188 125   184 180 116   179 175 104   166 158  92   147 135  74   124 109  52   115  96  37   129 111  48   147 130  61   150 133  61   161 142  83   151 131  72   150 130  69   141 122  63   125 109  50   109  94  41    92  80  35    89  77  35    73  60  26    72  58  29    73  61  35    57  43  16    52  36   9    66  49  19    80  59  31    72  48  24    70  44  13    95  72  28   142 121  63   140 123  60   156 139  85   169 153 107  
 179 160  84   170 156  68   177 167  70   206 199  93   197 193  93   187 182  67   192 183  57   183 170  32   207 194  41   231 220  56   223 212  59   219 208  74   216 199  85   225 208 103   217 202 111   204 193 114   195 188 120   195 189 127   198 193 135   196 191 133   191 187 124   184 179 115   186 176 114   175 161  99   136 120  60   115  99  37   124 109  45   133 120  53   169 153  94   169 153  93   165 147  85   152 134  72   127 108  50    93  77  25    71  57  10    79  66  22    78  64  26    67  55  15    66  55  15    62  49  14    51  37  10    47  31   5    69  50  22    74  53  21    76  46  17    71  43   7    98  73  31   136 114  66   159 139  90   153 133  83  
 181 161  85   176 161  74   169 160  63   180 172  68   173 172  68   179 176  63   214 208  85   193 184  52   171 165  20   197 193  41   222 218  72   217 213  77   212 195  89   219 203 105   213 200 113   204 193 118   197 190 122   192 186 124   191 186 128   197 190 137   203 198 140   202 195 136   199 190 126   197 185 116   176 163  93   131 117  49   101  86  23   103  90  32   143 128  69   177 160 102   155 140  80   140 123  62   118 101  42   104  88  34    87  71  23    78  65  20    80  66  16    76  62  11    76  64  11    78  65  17    73  58  16    63  47   8    72  54  13    76  57  12    96  66  29    95  66  28    96  69  29   131 107  62   167 146  98   152 133  83  
 168 146  70   158 143  59   165 154  62   168 159  62   148 142  47   157 152  47   199 201  69   195 200  48   146 149   9   125 122  10   166 160  47   197 192  59   200 187  75   202 190  87   208 197 109   206 198 122   195 189 119   183 176 109   178 170 105   184 175 112   194 187 128   199 189 131   198 190 126   186 177 105   164 154  76   138 126  49   115 100  33   100  82  25   113  98  35   152 136  78   147 132  75   127 112  53   116 102  39   107  96  34   104  91  37    90  76  29    93  77  24    87  70  21    87  69  20    93  74  22   103  83  25   104  85  24    95  74  20    93  71  23   111  85  30   124  99  44   123 100  47   132 111  59   148 130  80   161 145  95  
 158 136  63   136 121  39   146 136  46   148 141  48   120 112  28   126 120  23   175 177  39   183 190  21   148 150  13    90  81   6    92  78  15   126 116  23   158 143  42   183 169  70   188 177  84   189 179  98   188 179 107   174 165  93   159 151  69   144 137  46   154 144  77   170 160  95   180 168 101   169 158  84   148 135  56   126 113  34   116 100  31   118 100  39   116 102  31   124 109  44   139 125  62   129 115  51   113 100  31   109  96  30   114 101  41    99  84  31    91  78  23    92  78  26    90  74  23    88  73  18   107  91  31   111  93  31    91  72  14    98  76  27   121  98  45   132 108  56   130 108  57   138 117  66   160 143  91   169 153 102  
 155 132  64   139 122  48   122 111  31   119 112  29   111  99  23   124 118  22   178 179  50   169 174  26   142 144  19    99  92  15    79  64  19    72  55  15   100  80  17   130 112  45   148 131  60   155 140  70   160 145  78   153 139  71   142 129  56   132 119  42   107  95  19   121 108  37   144 130  59   155 141  66   140 126  45   116 101  20   106  89  17   108  90  25   116 105  26   120 108  34   119 106  36   134 121  52   121 109  37   121 108  37   130 116  51   106  91  33    92  77  25    83  69  20    86  72  25    79  65  15    85  70  13    95  78  19    91  72  15   107  85  36   134 112  61   146 123  73   128 108  57   149 129  78   175 158 106   165 150  98  
