P3
50 50
255
 130 113  43   140 121  51   144 126  54   144 125  54   145 125  56   141 121  53   148 129  60   148 129  60   143 125  56   147 130  60   142 125  53   146 130  57   154 138  62   152 136  58   148 132  55   147 131  54   149 132  58   147 130  62   151 134  65   154 137  67   147 129  61   144 126  61   146 128  65   142 127  59   143 129  58   147 133  62   146 131  62   145 130  61   147 132  65   147 132  65   150 133  63   146 129  59   139 122  53   137 121  52   134 119  50   133 118  49   145 131  61   141 128  58   132 119  49   134 121  53   148 138  69   127 117  48   110 100  31   113 106  41    98  93  29   100  94  33   104  98  38   106 100  45   113 108  58    92  86  39  
 112  97  32   119 104  37   127 112  45   128 111  45   128 110  44   121 106  40   123 108  43   111  96  32   100  84  22   105  89  29   116  98  35   125 107  43   133 116  48   133 116  47   131 114  44   133 116  46   145 127  60   143 127  61   143 128  61   146 129  60   144 127  58   147 129  63   154 136  73   154 139  69   159 145  72   161 147  74   154 140  67   161 146  74   170 153  83   163 146  76   166 149  77   159 145  72   154 139  66   157 140  69   163 146  76   162 145  75   165 149  79   163 149  78   165 150  80   163 150  80   161 149  81   145 134  68   141 130  64   133 124  56   133 124  55   129 120  51   132 123  54   140 131  66   126 117  57    90  81  24  
  87  75  14    86  75  13    92  80  17    92  80  16    96  85  23    95  84  22    96  84  25    89  77  20    81  68  14    83  69  17    95  78  24   104  87  30   108  93  30   112  97  32   116 101  36   116 101  36   127 112  48   129 116  47   122 108  38   130 116  45   132 118  47   125 110  40   129 114  46   139 125  55   140 126  55   142 128  57   146 132  61   151 136  65   159 142  72   164 147  77   157 145  73   156 144  72   156 143  72   158 144  73   167 152  83   168 153  84   168 153  85   171 156  89   178 163  97   173 159  96   169 155  92   179 168 106   182 170 110   164 151  88   171 158  93   169 155  90   169 155  88   165 151  87   146 132  71   106  91  32  
  92  81  24    88  78  19    91  80  20    92  83  21    98  90  28    91  82  24    88  78  24    91  81  29    90  80  30    87  76  30   106  92  27   115 102  33   120 108  34   119 108  30   123 112  33   124 112  36   125 113  40   128 116  43   135 123  47   136 124  48   137 125  47   132 120  45   129 115  42   129 115  44   127 112  43   130 116  45   135 121  50   137 122  51   144 127  57   151 134  64   147 137  65   156 145  75   163 150  80   160 146  76   167 154  86   172 159  91   173 159  92   171 156  92   170 155  93   177 163 102   180 168 111   197 184 129   197 186 131   200 185 128   208 192 133   196 180 120   193 177 114   180 164 102   165 149  88   133 117  57  
 129 113  36   128 112  35   124 108  33   125 109  34   127 111  36   125 109  37   117 103  32   110  96  26   108  93  25   109  94  27   107  92  25   119 104  35   133 117  48   141 124  53   140 123  51   145 129  54   150 133  58   151 133  59   153 135  61   155 137  63   150 134  59   153 137  62   154 138  63   151 135  58   151 135  58   153 138  66   159 144  77   163 149  84   164 150  87   167 153  90   163 148  81   170 155  87   169 154  87   165 150  82   172 157  90   175 160  93   171 156  89   171 158  90   172 158  92   177 165 101   188 177 115   184 172 113   184 172 115   202 186 133   200 184 125   184 170 107   179 165 103   168 153  95   161 147  86   146 135  67  
 152 134  59   148 130  56   149 131  59   148 131  54   149 132  54   149 132  56   144 127  51   136 120  45   128 111  38   124 107  35   122 105  36   128 111  42   135 118  48   140 123  53   141 124  52   149 132  60   156 138  68   163 144  75   163 144  75   167 149  79   166 149  79   162 145  75   165 148  78   173 155  84   173 159  88   175 160  93   180 165 100   183 168 106   185 171 110   189 175 113   196 180 120   196 180 120   198 182 122   194 178 118   192 176 116   197 181 121   201 185 127   200 185 130   202 186 133   207 191 140   214 200 151   213 199 153   205 191 146   206 191 143   212 196 144   206 191 134   197 183 127   198 185 132   198 186 131   193 181 120  
 166 146  73   165 145  73   165 145  74   168 149  74   170 151  75   172 153  77   171 151  78   169 149  77   166 146  75   164 144  73   162 144  72   161 143  71   160 142  71   162 143  74   165 146  77   174 155  86   180 161  93   183 164  98   180 162  96   181 163  97   184 166 100   180 162  95   184 166 101   191 175 112   194 178 116   196 180 121   196 179 123   194 178 121   193 178 119   195 180 121   199 182 126   192 175 119   193 176 120   195 178 122   193 176 120   197 180 124   201 184 129   202 186 135   202 186 135   206 190 141   199 182 136   196 180 135   204 190 145   197 182 145   200 185 145   213 199 154   218 203 162   226 212 176   222 208 170   226 215 170  
 156 134  59   160 138  63   162 140  65   165 142  72   165 142  74   165 142  74   165 142  74   165 141  74   165 140  73   166 141  74   170 150  77   175 155  82   180 160  89   186 167  98   190 171 103   196 177 109   197 179 113   203 185 121   200 182 118   193 175 113   195 177 115   198 182 120   202 186 126   204 187 131   205 188 134   207 190 138   206 189 137   201 184 131   194 177 122   191 175 116   188 171 115   188 170 115   185 168 112   180 163 107   182 164 109   184 168 112   182 165 107   180 164 102   175 160  99   172 158  97   157 142  83   145 130  71   149 134  77   143 130  74   144 131  72   159 150  85   169 159 100   172 163 109   163 153  99   162 155  96  
 146 127  50   146 124  48   149 127  51   151 130  56   152 130  57   154 132  59   158 136  63   158 135  63   158 134  62   159 135  63   153 134  58   154 134  61   155 136  64   161 142  73   167 147  79   174 155  89   176 158  92   182 164 101   182 164 102   178 162 100   179 163 103   191 175 115   197 181 122   200 183 128   202 185 133   203 186 134   203 185 134   200 183 130   194 177 120   187 171 112   177 162  97   175 160  95   170 155  90   169 154  89   176 161  96   174 159  94   167 152  86   172 157  89   161 146  79   146 131  64   144 131  63   133 119  52   114 100  35   120 109  43   121 111  41   117 107  35   108  99  32   103  94  35    97  90  31    86  81  17  
 136 119  47   140 122  50   143 125  51   149 132  55   151 134  56   153 136  58   159 141  62   164 145  66   170 149  69   177 156  75   176 156  83   173 155  82   169 151  79   170 152  82   173 156  87   179 162  93   178 163  94   179 164  97   177 162  96   179 163 100   174 158  96   176 161 101   180 166 105   184 169 109   187 172 114   186 171 116   185 169 114   185 169 111   183 167 107   179 163 101   174 159  90   169 154  85   165 150  81   163 148  79   167 152  82   167 152  83   162 147  80   161 145  83   159 143  81   148 132  70   145 129  67   133 117  55   120 105  42   125 109  51   116 102  41   107  93  32    96  84  28    88  77  29    92  81  35    90  82  33  
 101  87  26   106  91  29   105  90  26   112  98  29   113 100  30   114 100  29   117 102  30   120 104  30   127 109  35   137 119  45   146 128  56   151 135  62   156 139  68   159 144  73   159 145  74   158 146  74   151 138  67   144 129  60   144 129  60   146 131  64   146 131  66   147 133  69   151 137  74   159 145  80   164 151  87   167 153  90   167 150  90   167 151  90   168 153  89   171 153  87   180 162  96   177 159  93   172 154  88   158 140  74   153 135  69   165 147  81   174 156  93   182 163 105   192 173 114   195 179 119   185 169 109   167 151  90   162 146  84   150 133  66   133 119  48   131 117  46   115 103  38    99  87  32    92  82  29   104  95  39  
  82  70  18    83  70  17    82  69  15    85  72  18    86  73  20    89  76  21    94  79  22    93  77  19    95  79  19   103  84  25   110  93  23   114  98  28   114 100  29   117 104  33   121 109  37   124 114  42   125 113  41   135 121  49   134 120  49   124 109  40   124 111  43   126 113  46   126 112  47   130 118  48   140 127  57   148 135  67   150 135  70   151 136  70   156 140  71   161 144  74   161 143  79   146 128  64   135 117  53   133 115  51   144 126  62   154 136  72   160 142  78   176 158  96   176 157  96   182 164 100   185 170 105   184 169 104   175 160  93   147 130  63   142 124  56   147 133  63   120 104  44   103  88  37    90  78  29   105  93  41  
  95  80  23    98  81  25   103  87  28   105  89  29   100  84  23   104  88  26   107  92  27   107  92  27   110  95  30   122 107  42   126 113  38   135 121  45   143 130  52   136 124  46   131 120  41   137 126  47   141 129  53   142 130  61   134 124  57   121 110  44   121 110  46   129 118  51   124 114  45   135 122  53   144 131  63   150 136  72   142 128  66   135 121  59   144 130  67   147 132  67   125 110  48   130 116  53   128 114  53   123 110  48   122 108  47   128 114  53   138 126  62   143 133  65   147 134  69   147 131  69   149 133  71   149 136  73   142 131  65   133 120  58   120 109  47   112 102  42   100  91  38    77  70  24    61  55  18    72  66  37  
 131 117  44   136 120  44   140 124  46   143 126  54   147 130  60   159 142  72   165 148  76   174 157  85   176 159  87   175 158  86   174 156  90   176 158  92   177 159  92   169 154  85   167 152  83   167 152  85   162 147  79   154 139  69   148 135  66   142 128  62   140 126  61   151 137  71   147 134  66   148 135  65   153 140  69   149 136  69   145 130  65   146 131  65   149 134  65   144 129  60   146 131  64   145 130  63   144 129  62   137 122  53   133 118  49   134 119  50   132 118  48   135 122  52   142 128  58   147 130  63   131 115  53   113  98  41   113 100  47   114  99  42   119 103  44   109  95  38   104  91  39    93  81  35    78  68  30    66  55  23  
 160 142  66   163 146  69   164 147  68   165 146  70   169 149  76   177 157  84   180 160  89   191 171  99   198 178 105   199 179 106   203 183 122   201 181 121   204 184 125   202 182 123   200 179 122   197 177 119   189 171 108   176 159  90   170 152  85   161 145  80   162 147  82   168 153  88   165 150  82   165 150  84   178 163  98   177 161  99   175 159  97   180 164 101   181 166 100   178 161  93   176 158  92   167 149  83   164 146  79   160 143  74   162 144  75   164 147  77   158 141  73   153 134  69   150 131  63   143 125  55   128 110  47   108  94  38    99  85  39    93  77  27   106  89  37   121 106  55   105  92  44    95  82  39    84  72  33    82  69  34  
 157 137  64   159 139  65   158 139  63   158 138  65   157 137  66   160 139  71   159 138  71   166 145  78   177 157  88   190 170 101   197 176 111   196 175 113   202 181 121   202 182 123   194 174 115   189 169 108   190 170 107   185 168  99   170 153  86   153 135  71   159 141  77   163 145  80   165 149  82   178 163 101   194 178 119   193 176 119   190 173 117   190 173 116   194 177 115   190 172 108   184 164 103   174 154  93   169 149  87   169 150  85   174 154  89   177 158  90   175 156  90   169 149  88   162 142  75   151 133  61   144 127  59   123 110  52    91  79  32    73  60  19    80  68  28    86  74  36    85  74  36    77  68  32    72  63  30    72  63  30  
 145 127  51   149 131  55   151 133  57   158 140  64   157 139  65   155 136  67   150 131  64   149 130  63   151 132  64   157 138  69   163 146  76   169 151  83   178 158  94   184 164 101   188 169 103   189 170 102   189 170 102   180 162  96   158 142  77   138 122  60   143 127  65   149 133  70   161 146  81   172 158  94   177 164 100   175 161 100   177 163 102   177 161 100   181 166 102   170 155  89   164 146  82   164 146  82   157 139  74   157 139  73   155 138  69   151 134  65   156 139  71   159 142  74   147 130  58   134 117  45   116 102  38    91  80  30    66  57  20    52  46  19    49  45  20    44  40  15    49  45  20    51  48  23    49  47  22    49  47  22  
 120 102  38   120 105  41   120 104  43   122 108  36   121 107  32   118 103  35   115 100  35   122 107  42   123 108  42   118 103  35   120 107  42   127 113  49   126 112  51   132 117  57   148 133  68   153 138  69   149 135  66   141 129  64   128 117  54   123 111  51   118 106  46   121 109  48   129 119  55   141 132  60   153 143  71   161 151  80   170 160  91   163 153  84   166 154  84   155 143  71   142 129  61   147 134  66   139 126  58   138 125  57   135 122  54   133 120  52   142 130  60   141 131  59   138 128  56   130 120  57   107  97  48    74  64  32    51  43  24    35  34  18    33  34  19    35  36  22    29  30  16    32  33  18    33  34  16    37  38  20  
 105  92  38    99  86  34    93  80  32   101  91  32    98  88  26    89  78  24    85  73  24    92  80  32    92  80  29    87  76  22    78  68  18    83  72  24    83  70  25    89  77  29   104  92  39   114 103  42   118 108  46   114 106  44   110 101  42   115 106  49   105  99  41   100  94  34   105  99  38   108 101  32   120 113  43   124 115  50   130 120  58   116 106  45   111 101  40   105  95  33    95  87  28   101  92  34    97  88  31    95  85  30    93  84  29    97  87  34   103  95  41    92  86  33    86  78  30    78  69  27    65  56  24    47  41  20    33  28  14    26  26  12    30  30  18    25  25  15    25  24  15    28  25  15    30  28  14    28  27  10  
  98  89  24    91  83  22    89  79  24    90  81  33    77  69  27    68  57  23    65  54  26    64  52  25    60  49  19    64  53  22    60  52  16    61  50  19    64  53  23    69  57  24    71  59  19    82  72  22    99  91  35   101  97  35    96  92  33    99  94  38    96  91  35    91  87  28    99  97  37   108 103  42   110 104  46    93  83  30    95  85  37    86  75  29    81  70  25    79  68  22    71  62  20    77  68  27    78  68  31    72  62  27    67  56  24    68  57  25    67  58  29    55  50  24    49  42  18    44  36  15    43  37  15    41  37  15    36  36  12    28  27   9    28  26  13    31  27  16    29  25  16    30  25  15    30  23  10    33  27  12  
  76  65  21    68  59  19    64  56  18    68  58  17    65  56  15    57  47  13    49  41  13    48  41  16    46  39  16    43  37  13    34  32  11    40  37  17    42  40  20    45  41  17    54  47  19    71  61  25    82  71  29    88  79  33    92  88  38    93  92  38    89  89  35    87  86  30   103 100  45   109 107  48   103  99  40   113 108  50   113 108  53   102  96  43    87  81  30    82  74  25    77  69  28    75  66  27    80  70  34    81  73  36    84  77  38    92  85  43    90  82  40    80  72  34    68  62  27    57  52  22    51  45  22    45  40  23    39  35  22    32  29  20    30  27  18    31  28  19    31  29  19    30  30  18    27  27  16    26  27  13  
  78  66  27    70  58  23    64  54  20    68  58  24    65  55  24    55  45  19    49  41  21    50  42  25    45  39  23    39  33  17    36  33  16    36  33  18    39  36  20    40  36  17    49  42  17    61  52  21    67  58  21    75  67  24    84  81  34    94  94  42    92  92  40    82  81  30    88  86  35    90  87  43    77  72  32    72  67  27    70  65  28    69  63  28    64  58  25    62  53  22    68  59  28    62  53  23    61  51  23    58  48  21    58  50  22    63  57  23    69  62  26    74  67  33    67  60  30    58  52  25    48  43  22    41  37  18    36  33  17    31  29  16    29  27  15    29  27  15    28  27  15    27  27  15    26  26  14    25  25  13  
  96  84  34    87  77  29    80  71  25    80  72  31    78  70  33    69  63  29    60  54  25    54  50  23    51  46  21    48  44  19    39  34  16    35  32  15    40  37  20    46  42  23    59  54  26    73  66  32    81  74  37    89  84  45    88  86  42    92  93  44    84  86  37    77  79  30    81  83  36    79  77  43    61  57  30    47  43  18    44  40  16    52  46  25    57  50  31    59  52  33    61  53  31    56  48  27    54  46  26    48  41  22    45  39  17    45  39  17    47  41  16    54  47  19    53  47  20    51  47  22    47  43  21    43  40  21    43  40  22    40  38  22    38  36  21    36  34  19    33  32  17    31  32  18    30  31  18    31  31  19  
 104  93  39   100  89  37    95  85  35    92  84  38    86  79  35    77  72  31    70  66  28    66  62  26    62  58  25    57  54  23    57  51  25    50  45  21    51  47  25    53  52  25    65  62  31    80  76  39    82  78  39    79  75  39    83  80  40    92  94  47    91  94  47    91  94  50    89  94  53    79  81  48    68  67  39    55  53  28    49  47  25    53  51  30    60  58  37    68  64  43    63  56  37    60  55  35    59  54  35    57  52  33    52  47  28    50  45  26    49  43  23    46  41  20    47  42  22    48  43  23    44  41  22    43  40  21    42  41  22    42  41  21    41  40  20    39  38  19    35  34  17    31  32  17    30  30  18    30  30  18  
  78  63  22    79  65  24    75  61  22    71  60  21    71  62  23    74  65  29    69  61  26    62  53  21    60  52  23    60  53  25    61  51  24    52  45  21    51  45  24    48  43  22    52  47  21    62  57  27    65  61  27    68  65  31    78  76  38    89  90  46    87  90  45    84  89  49    72  78  42    66  68  36    61  62  35    48  48  24    40  39  19    37  36  16    41  39  19    46  44  21    56  51  29    54  49  27    53  48  26    51  49  27    49  47  26    49  46  27    50  47  28    47  44  27    45  42  25    45  42  25    43  42  24    42  41  23    41  40  22    38  39  19    37  39  18    37  39  18    35  36  19    34  32  18    32  30  17    32  30  18  
  88  74  27    93  79  32    92  78  32    86  72  25    83  71  23    90  78  30    92  79  32    85  72  28    82  69  27    79  65  26    65  49  24    59  45  23    54  44  26    51  44  28    49  42  24    51  43  24    56  49  26    64  61  28    73  69  32    83  82  38    82  83  41    80  83  46    67  74  41    64  65  42    60  59  39    42  40  26    37  35  23    36  34  22    38  35  20    41  38  21    51  47  20    52  48  21    53  49  22    52  50  24    48  46  23    44  41  22    44  41  25    41  39  26    39  37  24    40  38  25    41  39  26    41  40  25    39  40  24    36  37  19    37  38  20    39  40  22    40  40  24    39  37  23    38  36  23    38  36  23  
 110  98  36   116 105  43   121 110  48   127 112  52   118 102  42   115 100  39   122 106  44   124 108  49   120 103  47   107  90  38    96  79  39    87  72  37    76  64  35    74  62  39    67  58  35    63  52  30    68  60  33    73  69  36    81  77  39    93  90  47    92  90  49    80  83  46    67  72  42    63  65  42    56  55  37    37  34  23    37  33  25    41  36  29    44  40  29    49  46  30    61  55  31    64  60  35    66  62  37    66  61  38    59  54  34    49  43  27    43  40  28    38  39  26    39  39  27    38  38  26    37  37  25    35  35  23    35  35  23    33  34  21    35  36  22    38  39  25    38  38  24    38  36  23    37  35  22    38  36  23  
 109  97  37   114 101  39   117 106  44   121 103  47   117  96  42   120  99  42   117  96  39   111  90  35   115  93  42   119  97  48   114  98  39   102  88  33    86  74  28    85  75  36    81  73  36    75  66  30    81  74  39    85  80  48    87  82  43    98  93  51    95  93  52    79  80  46    71  75  47    66  67  43    57  56  35    39  36  21    40  36  25    43  39  26    47  44  26    56  54  33    68  61  42    70  64  42    68  62  40    65  60  39    56  50  33    47  41  29    44  39  30    39  39  27    42  42  30    43  43  31    39  39  29    37  37  27    38  38  28    36  36  26    37  37  25    38  38  26    37  36  24    36  34  21    35  34  20    37  35  20  
  86  76  28    88  80  33    85  77  32    85  75  29    82  70  28    79  68  30    75  64  33    69  58  27    68  59  24    77  69  30    85  75  40    83  73  39    81  70  39    75  66  35    70  61  30    69  60  27    71  63  29    80  75  44    89  83  48    95  90  52    91  87  49    84  82  45    82  83  50    74  74  50    53  52  34    40  38  25    45  42  33    47  45  34    51  49  35    59  58  40    61  58  39    62  59  40    58  55  37    51  48  33    49  45  33    48  44  32    46  44  32    47  48  34    49  50  36    49  50  36    53  51  38    50  48  35    49  47  34    46  44  31    49  47  34    48  46  33    43  42  29    42  43  29    42  43  29    36  38  24  
  83  72  26    79  70  25    74  66  23    71  62  21    69  59  23    66  55  26    60  50  24    56  46  21    53  45  18    56  49  20    51  41  14    51  40  16    51  40  19    50  40  20    51  43  20    55  48  22    59  53  26    66  61  30    75  69  36    90  84  47    90  86  48    82  80  46    85  86  55    80  79  56    57  56  38    42  40  27    43  40  31    43  41  30    45  43  29    52  51  34    52  49  30    57  54  35    59  56  39    58  55  40    58  54  42    58  54  42    56  53  42    54  56  42    53  54  40    50  51  37    52  53  39    54  52  39    57  55  42    58  56  44    55  53  41    55  53  41    54  54  42    51  51  39    47  47  36    48  49  37  
  85  77  34    79  70  30    73  65  26    76  68  31    72  66  34    63  56  30    52  44  25    46  39  22    45  38  21    43  38  19    45  38  20    44  37  21    44  36  24    44  36  25    49  42  29    55  49  33    62  57  36    70  65  37    75  70  39    89  85  49    88  84  48    74  72  40    76  78  48    68  71  47    47  48  31    34  34  23    40  40  30    43  43  32    46  47  34    53  54  37    52  51  33    56  54  37    57  55  40    54  52  38    52  50  37    51  49  37    51  50  37    54  56  43    55  56  44    56  56  44    59  59  47    60  60  48    64  63  51    66  64  52    66  66  54    64  64  53    62  62  50    61  61  49    59  60  47    55  57  44  
  72  63  27    66  58  22    65  57  21    65  60  25    62  57  27    53  49  24    44  39  20    38  33  20    37  33  21    40  36  24    40  36  24    39  35  24    37  33  23    36  32  23    40  36  26    45  41  29    51  47  30    60  55  31    67  63  33    82  77  45    77  75  42    65  64  34    69  71  43    64  66  45    45  46  29    35  35  24    41  41  33    43  43  34    45  46  33    49  50  35    54  55  39    55  56  41    55  56  42    52  53  40    52  52  40    54  54  42    53  54  41    51  53  40    55  57  44    59  59  47    61  61  49    62  62  50    62  62  50    61  61  48    64  64  52    64  64  53    62  62  50    64  65  52    65  67  54    61  63  50  
  66  57  24    64  55  24    64  57  27    60  56  23    57  54  23    55  54  26    52  49  27    42  39  22    36  33  20    39  37  24    37  35  22    38  36  23    37  35  23    36  34  22    39  37  24    43  41  26    45  42  24    51  46  25    62  57  32    75  70  40    72  69  38    63  64  35    68  71  45    67  70  50    50  52  37    38  40  29    41  42  35    43  44  37    44  46  34    48  49  36    49  51  37    50  52  38    51  53  40    50  52  39    50  52  41    53  55  44    55  57  46    56  58  47    58  60  49    56  58  47    55  57  46    58  61  50    60  62  51    57  59  46    54  56  43    56  58  45    63  65  52    65  67  54    65  67  54    69  71  58  
  63  56  28    65  58  31    68  61  35    66  61  32    61  60  30    62  61  33    58  57  34    47  46  27    40  38  23    44  42  29    35  36  20    38  39  25    39  39  26    40  38  25    44  42  27    46  45  27    48  46  27    59  55  37    69  64  41    76  72  45    72  68  39    64  65  38    65  68  45    65  70  51    50  54  39    37  40  31    40  43  36    44  47  39    48  51  39    52  57  42    57  59  46    58  61  48    61  63  52    60  61  51    56  58  47    56  58  47    57  59  48    58  60  49    61  63  52    61  63  52    60  62  51    62  66  55    63  66  55    62  65  52    61  65  51    62  66  52    66  68  56    68  70  57    68  70  57    70  72  59  
  46  39  13    50  42  19    51  43  21    49  43  21    48  43  23    47  45  24    45  42  23    40  37  22    38  35  23    42  40  28    39  39  27    44  43  32    46  43  34    45  43  32    49  47  34    53  50  34    52  49  32    55  52  36    61  57  38    70  66  42    69  68  41    63  64  39    60  63  41    61  65  48    49  52  38    37  40  31    40  42  37    43  46  40    46  49  39    49  54  40    51  54  43    52  56  45    55  58  47    55  58  47    52  55  46    52  55  46    54  56  47    53  55  44    58  60  49    61  63  52    60  63  52    65  68  57    65  68  57    64  68  55    68  72  58    68  72  58    66  70  56    69  71  58    70  72  59    68  70  57  
  40  34  10    45  39  17    44  38  16    40  34  18    41  35  21    43  37  23    39  35  24    37  34  24    35  31  24    31  28  21    31  31  23    36  35  28    39  36  31    39  36  30    46  42  34    50  46  35    49  45  33    50  46  33    52  48  29    64  60  35    68  67  42    63  63  40    58  60  39    53  57  40    40  44  30    33  36  28    39  41  36    44  46  40    45  48  38    46  50  36    52  55  46    51  54  45    52  55  46    51  53  45    48  51  42    49  52  43    52  54  45    49  51  40    50  52  41    49  51  40    48  51  40    58  61  50    61  66  54    58  64  52    57  60  49    59  62  50    66  68  57    67  69  58    67  69  58    72  74  63  
  67  56  24    69  58  28    67  58  28    61  53  26    57  51  27    56  50  29    48  44  26    41  38  25    37  37  26    35  35  27    37  37  29    37  34  29    40  37  32    42  38  32    44  40  31    50  45  33    56  53  38    56  54  38    55  53  34    64  59  39    67  63  43    62  60  40    63  63  44    56  57  42    42  42  30    40  40  30    44  45  37    43  45  36    43  46  36    43  47  33    50  52  39    53  55  44    53  55  44    51  53  42    50  52  41    49  50  42    47  49  41    48  54  44    49  55  45    51  57  47    54  60  50    56  62  52    56  62  52    57  64  55    56  63  55    64  71  63    60  68  60    59  66  58    63  69  62    64  69  62  
  61  53  22    57  50  21    58  51  23    58  51  25    55  47  24    52  47  25    45  41  23    39  37  23    38  37  26    39  39  29    34  35  19    34  35  20    35  35  21    37  35  21    42  41  24    49  48  28    52  50  31    49  47  31    51  48  30    60  55  36    59  57  37    52  52  33    50  52  35    50  51  36    42  44  30    36  38  27    38  40  32    40  43  35    40  43  32    43  48  36    44  46  35    47  50  38    49  51  40    48  49  40    48  49  41    46  49  40    44  47  39    42  47  40    43  48  40    45  50  43    46  51  44    47  52  45    48  53  46    47  54  46    46  53  45    51  58  49    49  56  48    51  57  50    56  61  54    58  63  56  
  55  49  17    54  47  18    54  49  20    54  48  20    49  42  16    47  41  17    43  36  18    35  30  15    33  30  17    35  33  21    29  29  17    32  32  22    29  29  20    28  28  18    35  33  22    39  37  24    39  37  22    40  37  22    42  39  23    50  45  27    48  46  27    44  43  26    45  47  30    45  47  33    40  42  29    32  33  25    32  35  28    34  38  31    31  37  28    39  45  35    36  39  28    38  41  31    40  43  34    39  42  33    39  42  35    37  42  35    35  40  34    36  41  34    38  43  35    38  43  36    37  42  35    37  42  35    39  44  37    37  44  36    36  43  35    37  44  37    37  43  35    43  48  41    45  50  43    49  54  48  
  68  56  19    73  61  25    68  58  23    63  54  20    59  50  19    57  49  20    51  44  20    41  35  15    35  28  12    35  29  14    32  30  18    33  30  20    32  29  21    30  28  19    34  32  22    37  35  23    39  37  23    45  42  25    50  45  27    56  51  32    54  49  30    48  47  28    49  51  33    50  53  38    44  46  33    34  35  27    34  37  30    37  41  34    33  38  31    37  43  34    38  41  30    40  42  32    41  44  35    38  42  35    36  41  34    36  41  35    35  40  34    37  42  36    39  44  38    39  44  38    36  41  35    34  39  33    36  41  35    35  42  34    35  42  34    34  39  32    33  38  31    39  44  37    39  44  37    42  47  40  
  96  76  26    96  78  30    91  73  27    82  68  26    78  66  28    80  67  32    76  65  35    71  60  34    69  58  35    68  60  39    65  62  33    61  57  30    57  53  29    55  50  28    54  49  27    56  52  27    60  55  30    62  56  35    67  61  39    72  67  43    67  61  39    58  56  34    55  55  35    59  60  43    47  49  35    38  40  30    42  44  36    45  48  41    45  48  40    43  46  37    47  49  36    48  50  39    48  51  41    45  50  41    43  48  41    42  47  41    41  47  40    42  47  41    44  49  43    42  47  41    39  44  38    37  42  36    39  44  38    38  43  36    38  43  36    36  41  34    34  39  32    39  43  36    37  40  33    37  40  33  
 108  84  27   102  80  23    98  76  20    89  71  20    83  69  22    84  70  25    82  67  27    79  65  29    81  66  34    82  67  36    78  67  35    70  59  30    65  55  27    63  53  28    62  52  25    64  55  27    69  60  31    67  57  30    68  58  30    70  61  32    63  55  26    59  55  27    58  55  30    60  59  39    46  44  29    35  36  23    40  40  30    42  43  35    45  47  37    42  44  33    48  49  35    48  49  36    48  50  38    46  49  38    44  47  38    41  46  39    42  47  40    42  47  40    43  48  40    42  47  40    40  45  38    39  44  37    39  44  37    39  44  37    37  42  35    38  42  35    37  40  33    38  41  34    35  38  31    32  35  28  
 119  95  34   112  90  30   111  90  29   107  87  28   105  86  30   103  83  30    93  75  26    88  69  25    87  68  27    83  65  27    65  49  16    63  45  16    63  46  19    65  48  23    67  51  26    68  52  26    70  54  27    69  56  23    67  54  20    70  57  22    63  53  18    62  54  22    61  57  26    58  56  32    45  42  23    34  31  16    34  32  19    37  35  23    38  37  25    41  41  29    47  46  28    46  44  29    46  45  31    43  45  31    37  40  29    37  40  31    38  40  32    38  41  34    38  41  34    38  41  34    37  40  33    37  40  33    36  39  32    36  40  33    35  38  31    38  41  34    36  40  32    36  39  32    35  38  31    33  34  28  
 105  85  22   104  85  24   102  83  23   102  82  21   107  87  25   108  88  29   101  80  27    98  77  28    97  76  30    91  70  27    91  70  25    96  76  33    96  77  37    96  76  39    95  77  39    88  70  32    81  65  27    79  65  28    83  68  29    89  74  35    82  70  33    75  66  30    67  62  26    64  59  33    57  52  32    41  35  19    36  32  18    37  34  22    36  34  22    46  44  31    52  49  30    49  47  30    48  46  31    44  45  30    38  39  26    36  38  27    34  37  27    30  33  24    30  33  24    31  34  25    32  35  26    32  35  25    31  34  25    33  36  29    31  34  27    36  39  32    35  38  31    35  38  31    38  40  33    36  37  31  
 125  98  29   122  95  28   123  96  29   124  97  29   121  94  25   117  90  21   114  87  20   111  85  20   110  85  20   113  87  25   110  84  27   111  85  26   114  88  29   118  92  33   121  95  36   120  94  35   120  95  34   122  98  34   122  98  35   125 103  40   125 103  43   124 103  44   119  99  40   103  88  35    86  74  26    74  61  19    71  58  24    71  59  28    72  60  30    69  60  29    69  64  29    67  61  28    69  62  33    64  57  36    49  43  29    38  35  26    37  37  31    36  37  29    35  35  28    35  37  26    29  32  21    34  37  25    33  37  23    31  34  27    33  35  30    33  35  29    38  39  33    33  34  25    31  31  21    34  34  23  
 154 127  48   152 125  46   153 126  48   152 124  50   147 119  46   144 115  45   139 112  43   137 110  42   138 110  45   142 114  49   142 115  48   140 113  46   138 111  44   136 109  42   137 110  41   139 112  43   141 115  46   144 120  50   145 121  51   145 120  53   143 118  51   143 120  53   137 114  47   129 108  44   119  99  38   110  89  35   105  85  34   101  82  33   101  83  35   102  84  36    97  86  40    88  74  30    81  67  26    78  65  29    71  60  29    55  48  22    46  40  16    49  44  19    49  45  23    44  41  22    43  41  26    40  40  29    39  40  32    35  39  30    36  42  32    34  41  31    32  37  28    34  37  28    34  37  26    30  33  22  
 166 138  55   164 135  53   165 137  54   162 135  56   161 134  57   161 133  59   159 131  58   156 128  56   153 124  54   154 125  55   153 126  49   154 127  50   154 127  50   154 127  50   157 129  53   162 135  58   164 137  60   160 133  56   163 135  59   158 130  55   155 127  53   160 132  59   155 129  55   152 123  50   152 122  49   155 126  56   157 128  61   155 127  60   153 126  59   153 126  59   140 120  61   142 121  63   139 117  60   132 110  55   124 103  52   113  95  47   105  88  42   104  89  42   100  86  45    82  71  38    73  63  39    55  48  32    47  42  32    39  39  26    31  35  21    33  37  23    32  36  25    30  35  27    27  33  26    29  36  29  
 175 147  69   171 142  64   168 139  61   164 135  57   164 135  57   165 136  58   164 135  59   160 131  55   157 126  52   156 124  51   158 129  49   160 131  51   162 133  54   163 134  56   164 135  57   166 137  59   169 139  62   171 139  64   171 138  63   165 133  58   162 130  57   166 136  63   167 137  64   166 134  58   171 137  63   181 147  73   183 151  76   178 146  72   174 142  67   170 138  63   159 130  64   161 132  65   162 131  64   160 128  63   154 124  60   145 117  54   137 111  48   136 110  42   128 105  45   109  89  38    95  78  35    72  59  26    60  50  21    53  46  21    47  41  19    50  45  25    46  44  27    41  39  26    35  35  24    41  41  33  
 194 165  85   189 160  80   182 153  73   179 150  70   179 150  70   177 148  69   174 144  66   173 141  65   172 140  65   173 141  66   180 148  73   179 147  72   181 149  76   183 151  78   182 150  77   180 147  76   182 149  78   186 153  84   185 151  82   179 146  77   176 143  74   176 143  75   180 147  78   177 144  77   177 144  77   182 149  80   179 149  79   175 145  75   171 141  71   168 138  68   175 141  76   173 137  71   172 135  67   170 132  65   163 128  60   160 127  60   160 126  58   158 126  51   153 123  52   145 119  52   133 112  49   121 103  46   111  96  42   107  89  42   107  90  45   103  87  44    89  74  36    81  68  32    73  60  27    62  50  20  
 190 164  77   193 167  80   190 164  77   187 160  79   189 162  84   189 162  85   188 159  83   188 158  82   190 158  83   189 157  82   192 162  92   189 159  89   190 160  91   194 163  96   195 164  97   194 163  98   194 164  99   194 164  98   192 161  96   190 159  94   189 158  93   186 155  90   190 156  92   184 153  91   183 153  91   189 159  95   189 159  95   188 158  94   187 157  94   184 154  92   183 151  89   183 149  85   185 148  84   183 146  78   178 140  75   176 141  77   178 143  76   174 140  67   172 139  66   172 142  69   162 136  65   158 135  65   154 131  63   156 130  63   158 131  64   148 123  57   145 120  57   139 115  54   131 107  47   116  94  36  
