P3
50 50
255
   6   5   3     7   6   4     8   7   3     7   6   2     6   7   2     6   7   2    10  11   6    15  16  11    15  16  11    15  16  11    13  14   9     8   9   4    17  14   9    19  18  13    22  24  17    19  20  12    21  18   9    33  24  14    56  42  29    46  28  14    30  22  13    45  33  19    51  36  17    71  51  27    93  69  43    81  57  29    76  52  26    62  38  12    61  35  15    87  65  38    81  60  29    81  54  27    95  61  31   100  66  29    84  55  25    54  32  16    26  24  12    18  15   7    17  14   7    13  10   5    12  11   7    16  15  10    16  15   9    17  17   9    17  17   9    19  19  11    22  22  14    22  23  17    17  18  12    25  26  20  
   3   3   1     5   5   3     5   5   3     3   4   1     4   5   1     5   6   1    11  12   6    16  16  11    16  17  11    15  16  10    13  15   8    10  11   5    13  10   5    14  13   8    19  20  14    19  20  14    20  18   9    29  21  10    51  37  24    40  23   9    35  28  16    48  36  22    53  38  19    65  44  20    88  64  38    82  58  32    74  50  25    61  39  15    73  45  24    91  67  38    80  57  26    83  55  29    89  56  28    87  59  24    71  47  20    46  28  16    22  19  10    13  10   3    14  11   6    13   9   6     9   8   4    10   9   4    13  13   5    18  18  10    19  19  10    17  17   9    18  18  10    22  23  17    20  20  15    22  23  17  
   4   4   2     3   3   1     4   4   2     5   6   2     7   8   2     7   8   2    13  14   8    18  19  13    20  21  15    20  21  15    17  18  12    12  13   7    11   8   3    13  12   7    19  20  14    20  21  15    20  17   8    26  18   7    49  35  22    41  23   9    27  21   9    40  30  15    55  38  20    67  45  22    89  65  40    83  59  33    70  48  24    66  46  21    86  58  36    83  59  28    73  50  19    81  54  28    81  53  25    79  53  21    57  39  15    44  31  24    22  19  11    11   8   1    13  10   5    14  10   7     7   6   2     6   5   1    13  13   5    24  24  16    37  37  29    27  27  19    17  17   9    21  20  15    19  20  14    18  19  13  
   4   4   2     3   3   1     6   7   3    11  12   7    11  12   6    11  12   6     9  10   5    16  17  12    21  21  16    19  20  15    18  19  14    11  12   7     6   9   5    15  14   9    17  16  12    21  25  20    15  16   4    25  18   2    44  31  14    38  26  15    28  20   7    41  30  14    51  36  17    64  45  22    83  60  36    85  61  35    67  44  17    81  59  30    81  58  38    69  46  21    73  48  21    87  61  34    76  50  23    62  39  14    54  38  17    43  31  17    23  21  10     9   6   1    10   6   4    11   9   5     5   4   1     8   7   4    12  11   5    41  42  28    57  59  45    33  35  23    16  16   8    23  22  17    19  19  16    18  20  15  
   4   4   2     5   5   3     9  10   5    14  15  10    11  12   7    12  13   8     7   8   3    10  11   6    14  15  10    13  13   8    13  14   9     6   7   2     5  10   6    14  13   8    16  12   9    18  20  17    16  16   4    36  25   5    46  31  12    31  21  13    26  17   3    48  36  20    63  48  28    69  51  27    84  64  37    71  50  21    90  69  40   108  87  56    72  51  32    60  38  15    72  46  21    83  56  29    73  46  19    66  44  21    51  34  16    39  26  10    22  20   7    12   8   4    10   8   8    12  11   6     9   7   3     8   7   5    14  13   8    62  63  47    65  69  52    28  30  17    15  15   7    20  19  15    17  18  13    16  18  13  
   4   4   2     6   6   4    10  11   6    16  17  12    11  12   7    12  13   8     8   9   4     7   8   3     7   8   3     8   9   4     8   9   4     3   4   1     6   8   5    13  10   5    21  16  12    18  19  14    22  20   8    56  43  21    56  39  21    40  25  16    40  28  14    47  34  17    62  45  25    77  60  34    88  69  39    76  57  25   120 101  69   100  81  49    62  41  22    60  38  14    80  53  26    80  50  22    67  40  13    74  52  29    47  32  13    44  32  18    19  18   5    14  13   9    11   9  10    12  11   6     9   8   3     3   2   1    12  11   6    74  75  59    86  90  73    35  37  24    23  23  15    20  19  15    20  20  15    13  16   9  
   4   4   2     5   5   3    10  11   6    15  17  11    10  11   6    13  14   9    12  13   8     9  10   5     9  10   5    10  11   6    10  11   6     6   7   2     8  10   5    21  16  10    34  29  24    21  20  16    21  17   6    60  45  24    59  40  22    44  27  19    39  27  13    55  43  25    80  64  41    93  76  48    85  66  35    93  74  42   107  90  60    73  56  27    57  35  15    68  44  20    85  57  28    80  49  20    70  43  13    76  55  31    43  30  14    38  30  17    17  18   5    12  11   8    10   8   9    10   9   4     7   6   1     6   5   3    17  18  12    74  77  60    89  92  77    44  46  33    27  28  20    23  22  18    26  27  22    18  21  14  
   4   4   3     5   5   3    10  11   6    15  16  10     9  10   5    11  12   6    15  16  10    15  16  11    15  16  11    16  17  11    11  12   7     9  10   5    14  18  12    31  27  21    44  39  33    25  25  19    18  14   2    54  39  17    56  35  16    43  24  16    36  26  13    55  44  27   104  90  68   108  92  63    94  75  44   107  88  58    90  71  45    55  36  10    56  35  14    72  48  23    88  57  29    87  55  23    84  55  25    73  53  28    41  31  14    26  21   9    19  19   7    11  10   8    10   8   9     9   8   3     7   7   1    12  12  10    23  24  17    71  74  55    75  79  64    51  54  40    31  32  24    24  24  20    24  25  20    20  23  15  
   4   4   4     5   5   3    10  10   5    15  17  10    11  12   6     9  10   4    15  17  10    19  20  14    20  21  15    18  19  13    10  11   5    10  12   5    17  23  15    30  30  20    40  37  30    27  28  22    23  21   7    59  44  21    58  39  18    43  25  15    28  22  11    50  43  26   106  95  73   109  94  67   108  88  60   100  78  53    73  49  28    54  30  11    59  39  16    73  47  22    95  64  34    95  62  27    92  62  31    65  45  20    40  31  15    27  24  14    18  18   6    12  11   9    10   8  10     8   9   3     7   8   2    11  11   7    21  22  14    74  77  58    69  75  59    58  62  48    36  37  29    23  24  18    22  23  17    33  34  26  
   4   4   4     5   5   3    11  12   7    17  18  12    15  17  10    10  11   5    17  18  12    22  23  17    23  24  18    20  21  15    10  11   5    12  13   7    14  24  15    23  24  13    26  26  18    24  27  20    29  30  14    64  52  28    63  44  23    39  22  12    27  24  14    53  47  33    93  82  62   110  94  69   117  97  70    87  62  40    59  33  16    62  34  22    69  49  25    68  41  15    91  60  30    90  56  21    93  62  31    62  42  17    39  32  16    29  29  19    13  13   1    13  12  10    11   9  12    11  12   6    14  15   9    13  14   9    24  25  17    91  94  73    90  97  82    73  77  63    44  45  37    26  27  21    25  27  20    51  51  43  
   4   4   2     5   5   3     9   9   7    12  12  10    14  14  14     8   8   6    19  20  12    31  33  20    29  31  18    18  19  11    10  11   6    15  15  13    18  23  16    28  28  20    25  21  18    26  22  19    37  28  12    74  52  28    52  34  14    36  25  19    28  21  15    72  63  48   113 101  75   114  99  68   103  83  57    76  53  31    57  32  12    60  35  13    74  46  24    71  43  19    87  59  20    84  57  24    86  64  24    57  42  21    37  32  13    24  23  18    12  13   7     4   5   1     9  10   5    17  18  13    19  20  14    11  12   4    41  43  30   122 123 110    93  96  81    90  92  79    48  50  39    24  25  17    29  30  22    77  80  71  
   5   5   3     6   6   5    11  11   8    15  15  12    13  13  13     9  10   5    20  20  13    31  33  22    30  33  20    20  21  13    12  13   8    17  17  15    20  25  18    29  29  21    26  23  19    25  22  17    35  25   8    73  52  27    56  36  16    35  24  18    32  23  18    74  65  50   111  99  73   116  99  70    88  67  43    65  40  18    53  28   8    62  37  15    77  48  23    78  47  21    93  64  23    83  53  22    85  62  21    63  47  26    40  33  15    23  22  14     4   5   1     6   7   2    15  16  11    19  20  15    19  20  14    12  13   5    32  34  21    95  96  82    77  79  65    69  71  58    42  44  33    22  23  15    42  45  36    87  90  81  
   6   6   4     8   8   6    12  12  10    16  16  14    12  12  11     9  10   5    18  19  12    26  28  18    28  30  19    21  22  14    15  16  10    22  23  19    24  29  22    29  29  21    29  26  21    28  25  19    42  30  13    78  57  29    60  39  19    30  19  13    35  26  17    83  73  56   108  95  69   114  97  69    81  59  35    67  42  21    57  31   9    65  40  16    86  54  24    87  55  25   104  71  30    85  53  21    84  60  19    64  47  26    39  31  12    25  22  13    13  14   8    14  15  10    16  17  12    14  15  10    12  13   7    11  12   4    32  34  21    81  83  69    66  68  54    63  65  52    35  37  26    19  23  14    50  54  47    76  82  72  
   7   7   5     8   8   6    11  11   9    14  14  12    13  13   9    10  11   6    16  17  11    21  22  14    24  26  17    20  22  14    17  18  12    25  26  20    25  29  22    29  29  21    35  33  26    37  34  25    54  42  23    80  60  30    60  38  17    29  18  13    34  25  13   100  89  70   109  95  68   106  87  60    73  50  26    67  40  21    58  31  10    68  42  18    90  57  24    94  59  29   108  75  34    88  55  23    82  56  19    59  41  23    36  29  10    30  27  18    23  24  18    17  18  13    13  14   9    12  13   8    10  10   5    10  11   3    35  37  24    79  81  67    65  67  53    65  67  54    33  38  26    22  29  20    59  65  57    62  67  59  
   8   8   6     8   8   6     9   9   7    12  12  10    13  14   9    14  15  10    19  19  14    22  23  17    27  28  21    24  24  18    19  20  14    27  28  22    21  24  17    31  28  21    42  39  31    47  45  33    64  53  31    76  55  25    54  33  12    34  23  19    58  49  33   118 106  85   102  87  58    90  70  43    69  44  22    66  39  20    58  32   9    68  42  17    87  54  21    95  62  31   104  70  32    84  53  24    79  55  21    54  37  21    39  33  17    35  35  27    24  25  19    11  13   8     6   8   3    12  13   8    11  12   6     9  10   2    36  38  25    78  80  66    64  64  52    60  64  50    37  43  33    34  41  33    78  85  77    62  67  60  
   9   9   7     8   8   6     9   9   7    11  11   9    15  16  10    17  18  12    21  22  16    22  22  17    27  27  22    25  26  20    19  20  12    27  28  20    22  24  19    28  24  18    39  35  26    49  44  32    70  60  35    75  52  21    49  28   7    39  28  24    93  84  67   117 105  81    79  64  36    78  58  31    74  49  27    65  38  19    61  33  11    67  40  13    82  52  18    97  64  33    97  66  28    77  46  21    77  54  22    53  37  24    44  41  26    34  35  30    17  18  12     4   5   1     3   4   1    13  14   9    11  12   6     8   9   1    35  37  24    72  74  60    59  59  47    60  63  52    38  46  34    41  51  42    84  94  86    51  56  49  
  11  11   8     9   9   6     8   8   5    11  10   8    17  18  12    18  19  13    19  20  14    19  20  15    22  23  17    20  22  15    19  20  12    26  27  19    27  27  21    26  24  15    30  28  21    42  38  29    72  61  37    73  52  23    45  26   7    44  31  23   105  97  75   103  91  67    65  49  23    77  56  29    72  46  22    61  34  14    58  30   8    68  43  15    83  55  21    97  65  36    93  61  26    73  43  19    70  51  23    53  42  28    47  45  33    28  30  24     8   9   5     1   2   1     5   6   1    18  19  14    15  16  10    10  10   3    33  35  22    65  66  51    57  58  46    63  66  55    36  42  31    49  57  47    81  89  79    35  40  32  
  16  17  12    11  10   6     9   8   4    14  13   9    14  15  10    14  15   9    15  16  10    20  21  15    18  19  13    17  18  12    24  25  19    26  27  19    28  25  19    26  28  15    28  29  25    31  26  22    56  44  24    60  43  23    44  27  15    66  53  34   110 104  74    84  72  51    60  42  23    78  54  27    68  40  15    65  37  18    57  31   9    69  47  16    86  60  27    90  59  28    93  58  29    76  47  21    66  50  26    54  50  31    45  46  36    20  21  15     5   5   5     2   3   1     9  10   2    18  19  13    12  13   8    10   9   5    39  39  27    74  75  57    58  60  49    58  60  49    40  42  31    71  73  62    79  81  70    35  37  27  
  15  16  11    12  11   7    11  10   6    17  16  12    14  15  10    15  16  10    14  15   9    16  16  11    16  17  11    19  20  14    28  29  23    26  27  19    23  24  20    25  26  15    35  32  23    29  21  13    35  27  11    39  28  12    45  29  15    97  79  59   103  97  72    70  58  42    60  42  27    70  47  23    71  43  19    61  32  14    67  39  18    74  48  18    82  56  23    87  56  25    91  56  28    80  53  26    70  55  32    51  48  30    36  38  27    11  12   7     1   1   1     2   3   1    13  14   6    19  20  14     8   8   5     9   8   4    43  43  31    82  83  65    59  62  51    57  60  49    47  50  39    91  94  83    78  80  69    31  33  22  
  13  14   9    12  11   7    13  12   8    18  17  13    19  19  14    19  19  14    16  17  11    19  19  14    19  20  14    23  24  18    30  31  25    27  28  20    18  22  21    25  22  13    38  30  18    36  26  14    34  29  16    34  28  15    52  39  23   108  89  65   104  98  78    69  58  45    60  42  30    62  40  19    72  46  23    61  30  12    71  40  20    78  48  20    82  55  25    89  58  29    82  50  23    79  55  29    74  62  40    49  48  30    26  27  19     8   8   6     4   4   4     2   3   1    14  15   9    19  20  14     9   9   7    10   9   5    37  37  26    70  71  53    60  66  52    60  64  50    56  59  48    97 100  89    73  75  63    31  33  22  
  14  15  10    14  13   9    16  15  11    19  18  14    19  20  15    16  17  11    15  16  10    24  25  19    26  27  21    25  26  20    29  30  24    28  29  21    17  21  19    23  20  13    27  20   7    36  29  13    35  30  19    37  31  18    64  53  34    94  76  53    97  89  70    74  59  48    58  40  28    61  39  18    72  46  23    62  33  15    64  34  14    78  47  19    80  53  23    87  57  29    73  43  15    79  58  31    77  70  47    45  46  30    17  18  10     7   7   5     6   6   6     3   4   1    15  16  10    19  20  14    10  10   8    10   9   5    30  30  20    65  66  48    58  64  50    44  50  36    52  58  44    79  82  71    48  51  40    29  31  20  
  16  17  12    19  18  14    21  20  16    20  19  15    17  18  13    15  16  10    16  17  11    25  27  20    26  27  21    22  23  17    24  25  19    22  23  15    18  18  11    19  18  15    23  20  10    40  35  19    42  34  24    50  42  25    73  62  39    69  55  37    80  66  46    72  55  42    62  42  28    63  43  19    70  46  21    63  34  17    62  32  14    76  47  20    78  51  22    84  54  27    74  47  20    91  72  47    80  74  52    41  43  27    16  18  11     7   7   7     3   3   5     4   4   2    16  17  11    17  18  13    11  11   8     7   6   4    27  27  17    76  77  61    64  72  57    37  44  29    53  60  46    69  73  59    35  38  26    27  29  18  
  16  17  12    19  18  14    21  20  16    17  16  12    14  15  10    16  17  11    18  19  13    24  25  19    24  25  19    23  24  18    25  26  20    20  21  13    25  22  11    16  15  14    24  25  18    40  37  23    46  37  26    70  57  37    79  69  43    46  39  23    75  56  33    72  52  36    73  51  36    68  48  22    66  43  17    57  31  11    64  36  18    75  49  22    78  51  23    77  48  22    78  52  26   102  85  60    72  67  45    31  34  19    17  20  14     6   6   6     3   3   5     6   6   4    15  16  10    16  17  12    13  13  11     6   5   3    23  23  13    80  81  65    81  89  74    53  61  46    65  71  57    70  76  62    43  47  33    26  28  17  
  15  16  11    16  15  11    17  16  12    15  14  10    13  14   9    16  17  11    19  20  14    19  20  14    19  20  12    23  24  17    28  29  22    27  28  18    26  28  14    18  19  13    25  26  21    38  35  23    45  35  15    80  67  44    66  59  38    31  29  18    68  54  31    74  58  33    76  57  34    62  40  21    60  36  17    54  29   5    65  41  15    73  50  25    69  49  28    63  37  15    74  52  28   101  95  72    55  59  41    23  25  17    20  17  14     6   5   2     2   4   3     5   7   4    17  18  14    19  20  15     9  10   5     7   7   2    16  16   8    68  69  58    91  97  82    70  80  65    84  96  81    75  84  70    45  48  36    28  28  16  
  15  16  11    19  18  14    19  18  14    14  13   9    15  16  11    15  16  10    17  18  12    17  18  12    17  18  10    24  25  17    32  34  25    34  35  27    23  27  13    19  22  15    25  26  21    37  33  22    51  40  20    82  72  47    51  44  28    24  23  18    55  47  27    69  58  31    73  57  32    62  39  25    62  35  21    57  32   7    68  44  16    69  45  24    64  47  29    54  29   9    73  53  29   108 106  83    58  65  49    27  27  22    15  11   8     3   4   1     2   4   3     6   8   5    18  18  16    18  19  14     9  10   4    11  12   6    13  14   6    49  49  41    91  95  80    79  90  74   104 118 103    78  89  75    39  41  30    30  28  16  
  13  14   9    18  17  13    16  15  11    12  11   7    18  19  14    13  14   9    13  14   8    15  16  10    17  18  12    24  24  17    32  33  25    37  38  30    21  23  12    18  20  15    23  23  21    34  30  21    60  49  31    79  68  46    34  28  16    21  20  16    43  37  26    64  56  36    65  50  29    59  36  22    60  32  18    58  30   6    71  45  20    65  40  20    52  36  20    50  27   9    70  52  30   108 107  86    56  62  49    20  22  17     7   6   4     4   5   1     5   5   3    10  10   8    19  19  17    13  14   9     7   8   2    13  14   8    13  13   5    35  35  27    83  87  72    90  98  83   112 124 110    66  76  63    25  27  17    26  24  12  
  16  17  12    20  19  14    15  14   9    15  14   8    20  22  17    13  14   9    10  12   6    14  15   9    16  17  11    19  20  13    26  27  19    30  32  23    21  22  15    15  17  14    21  21  19    32  28  19    60  50  32    71  60  40    27  20  10    21  20  21    24  22  15    57  50  35    57  42  23    56  33  19    60  32  16    61  33  10    72  47  22    64  39  22    41  29  14    49  28  12    55  39  19    92  92  73    54  62  49    16  18  13     7   5   4     3   4   1     2   2   1     8   9   6    19  20  15    12  13   8     8   8   3    13  12   7    12  11   6    25  24  19    69  71  58   107 114 100   113 125 111    53  63  52    24  25  15    26  24  12  
  14  15   9    20  19  14    13  12   6    17  17   9    18  19  14    11  12   7    10  11   6    15  16  10    16  17  11    17  18  12    21  22  14    24  25  17    23  23  16    15  16  12    21  22  18    36  32  20    63  54  34    67  56  36    28  22  14    22  22  25    18  17  14    56  50  36    61  46  26    64  39  24    63  34  16    64  37  11    68  45  21    56  35  20    38  27  16    49  30  16    48  32  15    84  85  67    68  77  65    16  19  17     5   3   4     3   3   1     4   5   2    10  11   6    20  21  16    12  12   7     9   8   4    11  10   5    12  11   6    17  16  11    57  58  45   126 132 119   117 128 114    49  57  46    27  28  20    26  23  14  
  16  17  11    26  26  19    14  14   6    13  13   4    14  15  10    10  11   6    11  12   7    15  17  11    17  18  12    18  19  13    20  22  15    22  23  15    20  20  12    17  18  12    22  21  16    43  40  26    76  69  45    72  61  39    32  28  17    20  19  24    18  17  14    46  40  24    66  50  28    74  49  28    59  31   9    67  42  14    71  52  28    54  37  24    35  26  17    47  31  18    49  35  19    68  70  53    77  87  76    24  28  27     4   3   3     5   6   5    10  11   6    23  24  19    35  35  30    17  16  12     8   7   3     7   6   2    13  12   8    13  12   8    43  43  31   124 128 116   112 122 110    39  47  36    23  25  16    32  30  21  
  37  38  32    59  59  51    32  32  24    10  10   1    13  13  11    12  13   8    14  16  11    18  19  14    18  19  13    20  21  15    23  24  18    23  24  16    16  16   6    21  22  16    23  23  15    50  47  31    93  86  61    78  71  45    34  30  19    16  15  20    22  19  15    38  31  14    74  58  32    88  64  41    55  29   4    66  42  14    68  52  27    41  26  15    39  30  21    45  28  18    40  27  11    36  39  22    76  88  78    47  51  50    10  10  12     1   1   1     5   6   1    38  39  34    63  62  58    36  35  31    14  13   9     7   6   2    13  12   8     8   7   3    26  24  12   104 107  96   105 115 103    38  46  35    31  32  24    53  50  41  
  39  41  20   102 106  48    82  80  29    29  18  14    12  13   7    10  11   4    16  18   8    17  19   6    12  14   4    18  19  13    25  26  20    22  23  15    14  15   9    24  20  17    31  24  16    61  53  32   111 103  80    94  86  73    45  38  30    24  22   9    29  29  21    32  26  14    73  53  29    85  61  35    57  40  22    70  44  21    74  49  24    35  28  17    37  31  15    45  35  23    36  27  17    22  22  12    67  79  69    97 112 107    18  28  27     1   5   8     1   5   2    21  22  17    62  57  45    65  59  43    38  36  19    20  18   5    29  21  17    31  19  20    31  23  19    91  90  85   113 119 109    40  46  36    27  27  18    57  52  45  
  21  18   7    73  71  33   107 102  55    63  53  23    19  18  11    13  10  12    16  16  14    17  18   9    18  19  11    22  23  19    20  21  16    16  18   7    17  18   9    25  21  18    34  27  17    72  64  42   100  92  69    77  69  56    47  40  30    33  30  15    27  26  18    31  23  10    67  46  23    92  68  43    73  54  34    70  46  21    70  46  22    32  25  14    34  28  15    35  27  16    32  23  15    22  22  14    36  45  36    88 102  95    57  67  63    10  15  15     4   6  11    14  11  14    36  30  27    67  63  52    83  83  66    71  70  51    70  62  45    70  55  40    48  38  30    89  85  75    98 100  88    37  40  28    27  23  14    52  48  38  
  16  10  10    42  35  20   101  93  52   108 101  41    55  55  25    26  23  15    15  11  17    21  19  17    22  22  14    23  23  19    24  25  21    22  24  14    19  19   8    24  21  15    36  30  19    83  75  51    90  81  57    58  49  35    44  37  27    34  31  16    29  26  16    35  24  10    59  37  18    85  64  42    85  66  43    75  51  24    61  41  18    33  26  16    31  25  16    28  22  14    27  22  14    19  20  13    12  18  11    50  59  52    81  90  85    24  32  28     8   7  13    16  11  17    24  19  22    40  39  34   104 106  94   111 112  91    99  90  64    96  79  51    81  67  56   109 102  88   105 104  89    53  52  38    37  31  19    49  42  31  
  21  16  20    22  13  13    61  51  22   115 110  41   112 116  46    72  70  36    25  20  17    20  16  17    23  23  15    21  23  12    27  28  21    21  24  17    34  35  21    36  33  24    46  38  26    92  85  58    93  83  57    55  46  31    47  41  30    36  33  17    29  26  14    43  28  12    56  33  17    66  45  27    87  66  40    84  63  32    51  35  14    34  29  20    26  21  14    23  19  12    21  20  14    16  16  11    10  12   7    13  16  11    70  77  73    63  72  67    15  18  15    20  18  18    23  20  22    20  20  18    68  71  62   110 112  96    82  73  52    91  75  50    91  79  65   126 119 103   117 114  97    73  68  52    59  51  36    59  50  36  
  18  17  14    13   6   8    28  22   7    71  69  19   120 121  43   119 118  63    70  66  40    31  27  17    23  20  13    18  18   6    23  25  15    24  27  21    44  45  29    48  44  33    52  44  29    82  75  47    94  85  56    53  44  27    45  39  27    34  31  14    29  25  13    52  32  15    57  34  19    49  30  15    82  61  31    94  74  39    48  37  17    31  26  20    26  21  15    20  20  12    18  19  13    12  13   8     8   7   3     3   3   1    33  39  37    87  97  93    49  61  51    15  22  15    17  16  15    17  17  15    32  35  29    85  86  78    59  54  42    61  50  37    80  72  60   131 127 112   119 117 102    81  74  60    85  76  61    78  66  51  
  11  15   1    17  18  11    14  14  10    28  27   9    76  67  34   124 122  66   127 126  68    69  66  35    25  22  15    15  15   7    14  15   8    21  23  18    44  46  28    60  55  43    63  56  38    75  66  37    98  88  60    55  46  29    43  37  23    35  32  15    34  30  15    57  34  16    58  31  20    42  24  10    75  52  20    95  76  39    56  49  30    28  25  18    26  22  13    22  23  15    19  22  15     8   9   4     8   4   3     7   3   4     6   9  11    51  63  61    74  96  90    33  45  41    18  20  17    12  11   9    23  21  17    60  61  55    64  64  56    37  34  27    52  49  40   120 120 109   108 110  96    74  71  56   100  91  76    91  80  63  
  10  16   3    23  26  15    11  12  14    14  15  15    35  23  24    85  80  39   134 134  69    96  93  50    39  34  24    28  25  23    23  24  16    23  26  17    42  43  26    67  64  49    76  69  50    72  62  36   102  92  66    60  51  33    43  35  20    39  35  17    44  35  20    62  36  17    56  29  17    40  20   8    71  47  16    88  71  37    62  59  40    32  29  20    23  21  13    26  28  18    20  25  16     7   8   3    11   7   7     6   2   5     2   5   7    16  25  24    62  82  78    65  78  76    35  39  36    14  13  10    10  10   4    43  43  38    73  74  67    42  41  35    23  24  16    98 101  92    94  97  87    61  59  48    93  85  72    85  74  59  
  14  15  10    15  16  11    14  15  10    14  16  11    21  17  15    37  33  11    90  86  45   106 100  58    71  64  39    48  41  30    40  38  28    38  41  26    45  46  32    79  76  60    94  87  68    72  61  41    98  85  65    67  56  38    40  32  14    40  34  20    52  36  21    62  36  14    58  33  13    45  20   3    78  50  25    74  58  36    54  55  41    43  42  24    27  28  20    26  27  21    17  18  13     7   7   5     5   5   5     2   2   1     3   3   2    12  13   9    25  30  26    66  72  68    60  66  59    27  33  27    12  15   8    23  23  18    71  69  62    60  56  49    27  28  21    79  83  74    83  89  79    49  50  39    58  51  41    48  39  30  
  12  13   8     9  10   5    10  11   6    14  16  11    20  17  18    16  13   3    41  36  12    91  85  50    99  92  57    66  60  32    50  44  31    42  38  37    48  46  29    85  81  62   106  98  78    72  61  40    88  76  54    69  60  41    36  30  14    37  33  18    55  39  24    60  34  11    55  30   8    52  27   7    78  50  26    60  43  24    46  46  36    58  56  44    37  37  30    20  21  15    10  11   6     8   8   5     5   5   3     2   2   1     5   5   1    11  11   6    11  12  10    30  33  30    70  73  67    70  75  69    29  33  26    11  14   6    52  53  45    74  73  66    45  45  36    73  76  66    79  83  72    48  48  38    41  34  25    40  31  22  
  11  12   7     7   8   3     9  10   5    11  13   8    17  17  15    18  14  13    18  13   6    53  46  26    77  71  38    70  64  32    63  54  39    46  37  36    46  41  23    73  66  47   103  95  73    71  61  36    69  61  38    65  58  39    34  31  14    33  31  16    45  29  14    58  32   9    55  30   8    57  32  12    77  49  25    52  35  19    37  37  29    54  51  42    50  53  44    25  26  20    10  11   6    11  11   9     7   7   5     2   1   1     7   6   2    15  14   9    17  16  14    17  18  14    56  59  54    83  88  81    75  80  73    41  47  37    38  41  32    85  86  78    75  75  63    88  90  78    93  96  83    53  53  43    44  37  29    59  50  43  
   9  10   5    10  11   6    13  14   9    12  14   9    10  11   5    15  14  12    19  15  14    25  19  13    40  33  19    60  53  35    67  60  42    56  48  35    50  43  28    58  51  34    90  82  61    75  67  45    60  54  30    59  52  33    36  30  14    30  27  12    43  27  14    59  32  11    56  31   9    63  38  15    76  49  22    48  31  13    26  26  17    33  30  21    47  50  41    37  40  31    22  23  17     9  10   5     8   7   3     9   7   3    13  11   6    22  19  12    19  15  12    19  18  14    32  34  29    41  46  39    74  79  72    82  88  78    57  60  51    83  85  74    85  86  72    92  96  81    94 100  86    45  48  34    39  35  26    56  49  43  
  10  11   5    14  15   9    18  19  13    15  18  11    12  15   6     9  11   4    16  15  13    19  16  15    24  21  17    35  32  25    40  36  23    41  36  23    43  36  26    44  36  24    66  59  42    78  72  51    66  60  39    58  51  32    41  34  18    33  25  12    48  31  21    60  33  12    56  32   8    71  48  21    83  56  24    54  38  13    29  29  16    29  27  13    29  32  22    36  39  30    30  31  25    13  14   9     8   7   3    16  13   8    20  16  10    18  15   7    16  16  12    19  20  15    33  35  30    24  29  22    24  30  20    50  55  45    55  58  47    79  80  69    88  92  74    95 102  84   100 109  92    45  50  36    30  28  19    34  32  25  
  18  19  13    17  18  12    18  19  13    14  17  10    13  16   7    11  14   8    13  14  12    17  18  14    21  23  15    22  23  16    20  20  15    24  22  21    32  26  21    37  31  23    46  41  28    80  75  57    78  71  53    63  55  38    48  37  23    37  26  14    42  25  17    58  31  10    58  34   9    80  56  27    92  66  30    73  58  28    51  52  33    41  40  21    23  26  17    26  29  20    34  35  29    33  33  28    21  20  16    20  17  12    22  18  12    19  15   6    10  11   6    17  19  14    50  54  47    57  62  55    26  32  22    26  29  20    40  41  30    69  67  58    99 108  87   111 122 101   118 130 112    60  67  52    29  31  21    28  28  22  
  20  21  16    18  19  14    20  21  15    11  12   6    16  19  11    13  15   9    11  13   7    13  15  10    20  22  15    25  26  20    25  26  22    23  23  21    29  27  13    38  35  27    37  34  27    65  59  50    88  82  66    69  61  43    55  43  28    43  29  19    43  26  13    58  32  10    64  37   6    77  52  16    79  60  25    69  59  30    64  63  39    57  56  33    34  38  24    30  34  19    37  40  25    60  63  46    45  47  33    26  26  16    26  25  19    21  20  17     6   8   4     9  11   8    41  43  38    91  94  82    76  81  60    56  59  35    62  64  41    63  63  44    84  90  69   117 123 105   127 133 117    60  65  51    34  37  28    29  30  24  
  20  21  16    16  17  11    23  24  18    18  19  13    13  16   9    15  16  10    14  16   9    16  17  12    22  23  18    26  27  22    26  27  22    26  27  22    28  25  10    43  40  31    32  29  24    45  40  34    85  79  64    81  74  55    63  51  35    47  33  22    49  31  21    60  34  16    69  40  13    75  48  18    61  44  18    47  39  17    46  43  25    44  41  25    40  43  26    34  37  18    33  36  15    67  71  48    67  72  51    48  52  35    36  40  26    28  31  23    19  22  16    13  15  10    23  26  19    71  73  60   107 111  88    88  91  63    65  67  44    48  49  30    43  47  31    79  83  68   113 116 102    57  60  49    34  37  26    40  43  34  
  19  21  14    16  17  11    19  19  14    16  17  12    17  18  13    15  15  11    10  11   5    15  14   9    23  22  17    24  23  17    22  20  15    24  23  18    29  25  13    47  43  34    25  22  17    26  23  16    65  61  49    87  80  62    72  64  45    61  50  33    48  29  22    55  30  14    74  43  22    83  55  33    59  40  23    35  25  15    33  28  22    30  27  20    27  28  12    28  28  11    29  30  10    53  56  34    63  68  46    73  78  56    66  73  55    48  55  39    35  38  26    38  41  31    30  33  26    35  37  27    72  75  59    74  75  58    47  48  34    27  27  20    18  21  11    48  51  40   110 114 103    77  80  69    27  30  19    34  37  27  
  15  19  10    14  15   9    16  17  12    13  14   9    15  14  10    11  10   6    12  10   7    25  23  18    37  36  30    30  28  20    19  17   9    20  18   9    34  27  17    51  46  37    31  27  20    22  19  12    43  39  29    84  78  63    86  79  60    68  61  39    53  35  21    51  29   9    74  46  23    85  59  35    56  39  22    31  22  12    26  22  16    22  18  14    22  18  11    17  15   6    24  24  11    38  40  25    37  41  24    56  63  45    69  76  59    64  73  57    76  79  62    72  75  63    44  45  39    25  26  19    34  35  25    67  69  60    60  59  55    26  24  26    22  24  18    34  36  30   102 105  97   116 120 110    56  59  49    35  39  28  
  20  23  15    11  14   7    15  17  12    17  18  13    12  11   8     9   9   4    13  13   8    26  26  20    34  34  26    29  30  19    24  24  13    28  28  15    44  36  25    46  40  28    29  25  15    24  21  13    31  27  20    76  71  60   104  98  81    86  80  56    64  48  27    56  34   9    75  48  20    85  59  33    58  41  22    35  27  15    29  26  16    25  23  13    22  18  16    16  12  10    21  19  14    30  30  24    24  25  17    29  32  24    38  42  33    59  64  56    95  98  79    73  75  62    37  38  32    18  19  14    26  27  20    58  59  53    74  75  71    47  47  50    24  26  21    22  23  18    84  87  80   147 150 142    94  98  89    45  51  39  
  33  36  29    19  22  15    16  18  13    13  15  10    10  12   9    11  13   8    22  24  19    40  43  34    56  59  48    63  67  54    55  56  43    36  38  24    71  64  49    51  46  28    28  25  10    27  24  15    22  18  15    51  47  41   106 101  88   101  95  73    76  61  40    63  42  17    76  48  23    79  53  29    54  37  20    34  26  15    26  24  12    26  24  12    19  18  12    18  16  12    19  18  13    23  22  17    23  24  18    24  25  20    22  23  17    52  54  48    84  87  70    67  68  57    47  48  43    31  31  29    30  31  25    31  32  24    51  52  47    64  64  61    43  44  39    27  27  22    56  59  52   137 140 133   120 126 118    66  72  61  
  43  45  40    33  36  31    25  27  22    14  16  11     8  13   9     7  12   8    22  27  21    53  59  49    95 101  89   124 128 114    99 103  88    45  49  32    71  64  46    64  59  39    43  39  21    28  25  16    16  12  11    41  37  36   111 107  96   100  98  75    89  73  58    71  48  30    72  44  23    66  39  22    45  27  14    34  25  17    36  33  25    44  41  32    28  30  16    14  16   4    16  18   8    24  26  16    26  26  18    25  25  17    24  24  17    62  62  54    53  56  39    36  37  29    31  31  29    42  42  40    48  49  41    44  46  35    30  32  21    46  47  41    63  64  58    47  48  42    28  31  24    93  96  89   138 143 137   113 118 110  
