P3
50 50
255
  15  15  11    13  10   5    17  12   9    19  15  12    23  24  19    17  19  14     7  12   6    25  30  26    31  36  32    32  37  33    21  25  22    22  28  24    27  38  34    36  52  51    65  85  85    80 101 105    63  84  91    94 114 122    90 109 115    30  41  43    26  32  32    23  33  34    31  54  56    73 101 105   126 145 151   172 177 183    51  60  53    26  37  31   117 129 129   195 206 210   141 150 156    94 102 104    92  97  92    36  39  28    49  54  50   118 124 122    56  62  60   128 134 132   123 128 124    27  30  23    20  20  10    21  17   5    20  20  10    20  15  11    27  20  12    27  24   9    24  25  11    23  23  11    38  33  13    83  73  38  
  21  24  22    15  14   9    15  12  11    10   9   6     8   7   3    12  13   8     3   6   1    29  34  31    34  38  38    32  38  38    30  32  31    26  32  30    27  37  35    28  44  43    62  82  83    87 109 114    77 100 109    93 116 127    83  97 101    21  37  36    16  28  23    19  28  27    24  37  40    63  86  91   129 147 154   170 175 182    52  61  56    17  28  22    78  90  88   155 169 172   144 156 163    86  95  98    96 101  95    48  52  36    30  34  29    99 105 101   104 113 111    74  83  82   141 148 146    54  57  51    19  19   9    23  21   8    22  22  12    22  17  13    28  21  15    28  25  11    24  25  11    25  25  15    35  30  11    84  73  41  
  20  27  27    20  22  18    17  18  18    10  11   9     9  11   7     9  10   5    10  12   9    26  30  29    36  40  42    31  36  39    37  38  41    17  23  24    20  30  30    28  44  43    59  78  81    93 116 123   108 130 142   106 129 144    77  87  92    25  45  41    14  33  24    20  30  26    22  29  34    58  74  81   140 156 163   183 190 198    76  84  79    17  28  22    53  66  62   136 150 153   155 168 176    84  93  99   115 120 114    84  88  70    29  31  26    75  80  76   133 142 141    57  67  66   114 123 121    66  71  65    16  17   7    23  21   8    21  21  11    22  17  13    28  21  15    29  25  13    24  25  12    26  26  16    34  28  11    86  75  43  
  22  28  25    20  23  21    20  22  21    17  17  15    10  11   6     8  10   4    12  14   9    14  19  18    26  33  36    30  37  43    36  47  51    16  25  27    26  33  30    31  40  35    49  65  62    82 103 105    84 105 115   115 135 150    75  93 100    37  55  59    17  31  29    24  32  29    19  25  25    29  40  43    90 105 111   178 193 200    98 111 109    15  30  26    41  56  53   153 166 167   189 199 205   106 114 118   115 121 115   109 116  99    42  41  32    35  44  36   128 143 142    76  92  93   121 132 133    86  91  87    21  23  13    21  24   9    19  19   7    24  22  12    28  23  13    26  23  13    24  26  14    29  28  12    49  41  16    98  84  47  
  33  39  37    20  26  24    23  25  24    20  22  19    12  13   8    12  13   7    10  12   7    10  14  13    24  29  33    32  39  47    64  80  87    24  35  37    22  28  25    33  42  34    49  64  55    74  96  93    59  83  87   112 132 143   119 139 148    49  66  73    14  25  27    27  33  31    31  37  35    19  29  30    46  61  64   143 162 168   108 122 122    19  34  31    47  59  57   150 161 163   201 209 216   128 136 141   110 119 116   142 151 140    65  63  51    18  26  18    81  97  94   123 138 141   120 131 133   133 136 133    26  28  17    19  23   8    22  23  10    24  22  10    28  24  13    31  28  19    26  28  17    26  25   7    65  56  27   127 112  73  
  30  40  42    28  34  34    24  28  27    22  24  21    15  16  11    12  13   8     9  11   6     9  13  12    23  28  30    32  39  44    73  91  98    35  46  50    18  24  24    34  44  35    48  65  55    84 107 101    69  93  92   108 129 135   148 165 175    67  82  89    14  24  26    19  24  23    30  36  34    24  34  33    31  47  47   122 141 144   140 149 150    26  38  36    45  57  55   148 159 161   203 213 222   133 143 152   104 115 117   156 169 162   100 100  92    22  27  21    37  49  44   141 155 156   120 128 131   173 175 174    62  63  55    24  26  12    26  28  17    26  24  12    24  20   9    25  22  13    24  24  14    34  33  14    84  75  44   138 123  82  
  35  50  54    26  35  37    23  28  29    20  24  23    16  18  16    12  13   8     8   8   6    10  12  10    20  24  24    32  37  39    58  76  83    48  60  66    19  25  25    30  38  32    36  51  41    76  98  88    69  91  87    79 100 100   151 165 174    99 112 119    19  29  31    16  23  21    24  30  27    24  34  30    20  33  32    98 114 113   168 176 178    50  59  58    25  35  33   111 121 123   194 204 213   149 160 170   100 113 120   123 137 137   105 107 102    31  36  30    36  44  39   131 141 141   128 136 139   166 170 172   113 114 108    30  30  16    22  25  14    23  23  11    26  24  12    27  23  15    24  24  14    34  32  13    84  74  43   116  99  58  
  41  60  69    33  43  46    21  29  28    18  23  23    17  20  19    13  14  12     9   9   8    10  11  11    16  19  18    27  31  31    48  64  70    64  74  79    23  28  28    26  32  28    35  47  38    74  92  83    73  92  86    59  76  74   141 157 165   125 139 144    24  34  36    17  26  25    22  28  24    31  38  34    29  38  34    85  94  91   180 188 191    67  76  75    22  33  29    77  87  88   179 189 197   165 177 186    94 107 114   106 120 121   109 116 114    43  49  42    30  36  29   102 110 108   131 140 144   146 153 158   154 157 151    49  49  33    21  24  13    22  22  10    27  25  13    28  26  17    27  27  16    38  35  16    93  82  50   109  92  49  
  45  68  79    35  46  51    21  30  29    18  24  24    19  23  23    15  17  16    11  11  11    12  12  10    12  14  12    21  24  21    32  47  50    64  73  76    31  32  33    19  21  16    26  35  27    61  75  66    63  79  73    50  63  61   117 136 142   128 146 150    35  48  49    16  25  24    16  21  17    36  39  34    56  58  53    85  87  83   172 180 185    86  96  95    22  35  29    46  58  57   156 167 170   188 199 206   119 131 134    79  92  90   110 121 121    71  80  73    23  29  20    63  71  67   128 138 143   147 157 161   173 179 175    78  80  63    19  22  11    20  20   8    23  21   9    23  23  13    26  26  14    44  41  21   100  90  56    96  77  34  
  35  61  74    38  51  57    24  34  33    18  27  26    22  26  27    18  19  20    14  14  14    13  13  11    10  10   8    16  18  13    21  32  34    53  59  59    38  37  37    20  20  16    15  20  14    24  36  29    29  41  37    48  58  57    96 117 122   104 123 127    35  49  50    19  29  28    22  27  23    32  33  28    61  60  55    77  74  69   158 169 173   133 144 143    28  41  34    33  45  42   147 159 159   199 208 213   170 180 182    91 102  98    90 106 106   120 131 123    31  37  25    31  41  33    93 106 109   148 161 167   169 177 173   119 122 105    31  34  23    22  23  10    21  19   7    22  22  12    23  23  11    39  37  16   111 101  66   118  99  56  
  43  79  86    42  59  69    25  37  39    14  24  25    20  26  26    20  22  19    12  13   8    12  13   8    10  11   6    11  11   9    27  27  27    33  38  42    30  39  44    18  26  28    18  20  17    22  23  17    32  37  33    34  42  41    38  52  52    94 108 109    66  80  81    18  32  33    26  38  38    24  33  32    39  45  41    70  72  67   115 130 135   177 188 194    73  85  85    19  36  30   114 134 133   190 208 220   173 186 195   136 142 142    80  95  98   116 125 120    43  46  35    29  32  21    69  78  72   147 158 158   183 192 191   171 174 171    63  66  47    26  28  20    28  29  20    28  29  13    35  31  15    36  27  13    74  60  31   134 121  70  
  44  80  94    48  66  83    30  44  46    19  29  30    20  29  28    19  24  20    11  12   7    10  11   6    10  10   5     8   8   6    17  19  21    46  54  57    43  53  57    18  26  28    26  31  27    26  27  20    30  35  28    48  57  53    44  57  57    68  82  82    78  92  93    36  51  51    35  50  50    53  65  64    36  46  44    78  85  82   141 156 159   174 185 191   121 131 132    14  28  21    65  84  82   168 185 194   166 179 187   170 177 178    98 113 113   100 109 104    63  67  57    29  33  22    45  55  47   131 141 139   179 189 188   185 189 188   112 114  99    38  39  31    26  28  17    30  31  15    39  36  22    32  25  13    41  31   7    98  87  45  
  62  96 115    45  65  86    29  43  46    17  29  31    18  27  26    19  24  21    13  15  11    12  13   8    11  12   7     7   8   4    11  18  18    48  59  61    56  70  73    24  35  36    26  32  26    30  33  24    35  41  34    42  52  46    69  81  78    79  93  92    67  83  83    56  73  74    36  53  54    91 107 109    40  54  54    76  89  88   156 170 172   168 178 184   156 165 166    32  44  36    32  50  44   128 145 150   172 185 193   163 171 173    98 110 112    87  97  95    98 104  97    27  34  25    37  46  38   116 126 122   161 170 168   186 193 192   170 170 161    57  57  49    29  29  18    34  34  21    37  34  24    35  29  20    29  22   5    54  47  18  
  80 110 127    49  72  89    33  51  54    21  35  37    17  27  28    19  24  23    14  16  13    14  15  10    16  17  12    11  12   7     9  16  14    38  48  49    65  79  81    48  59  58    41  48  41    33  36  28    40  47  40    49  60  55    50  62  60    55  67  67    66  82  82    61  79  81    32  50  53    95 114 115    35  52  54    53  69  69   133 148 146   163 171 177   179 185 188    72  82  74    18  32  23    79  95  95   159 171 177   174 182 185   136 146 147    76  86  85   121 129 125    45  51  44    30  37  29    97 104  98   163 173 169   186 197 197   182 183 182    84  85  77    35  36  23    35  35  23    36  33  24    31  28  19    24  20   7    33  30  13  
 101 127 141    57  81  94    36  54  58    24  39  42    18  30  30    22  29  27    19  23  19    19  19  14    21  22  17    12  13   8     9  10   5    35  41  40    59  69  70    45  54  53    61  67  62    48  50  44    37  46  43    49  60  60    35  47  48    21  32  34    56  71  74    86 104 107    36  54  58   108 124 127    51  66  69    26  40  41   106 118 114   166 173 179   180 183 188   120 125 118    27  39  25    73  89  84   148 158 163   176 185 190   181 187 190    97 107 108   119 129 128    52  60  55    21  28  18    71  76  69   149 160 156   175 191 191   193 196 202   120 124 117    48  51  35    36  37  23    34  31  22    29  27  15    28  26  14    27  27  17  
 114 133 151    92 114 128    41  60  66    26  44  48    19  30  32    22  32  29    20  25  21    19  21  16    23  24  19    13  13   8    17  13   4    50  50  45    75  80  78    37  43  41    41  43  40    37  39  36    42  51  50    49  63  66    52  63  68    19  32  39    42  55  61    72  87  94    24  39  44    88 102 105    86  97  99    16  26  27    70  83  76   164 169 175   186 186 191   156 159 150    39  52  34    52  68  58   126 137 139   173 182 189   195 200 200   146 156 158   125 137 139    79  90  86    29  35  25    45  51  41   104 115 109   141 159 159   175 183 194   146 153 145    76  82  62    46  47  33    39  37  25    39  37  22    33  30  17    16  16   8  
  75  92 109   119 137 156    63  84  93    35  54  59    19  31  32    21  29  27    17  21  17    17  18  15    23  24  20    18  20  15    20  15   8    26  25  20    45  47  43    20  23  20    17  20  17    28  32  30    54  62  66    47  59  66    56  68  77    38  53  63    58  73  84    81  94 104    26  37  44    66  77  79   100 111 111    20  32  31    44  55  50   148 155 158   202 204 209   181 184 177    69  78  62    21  31  21    61  72  72   146 158 163   201 206 206   163 173 174   127 140 142   119 129 127    33  37  29    23  27  16    77  87  81   127 144 144   153 164 174   171 182 176   107 115  98    52  54  39    43  41  28    53  51  34    49  46  31    38  35  28  
  48  66  71   106 122 145   100 126 144    39  59  68    17  31  31    22  27  23    22  23  20    22  23  22    19  22  20    21  27  21    18  22  22    25  29  25    29  31  26    21  23  17    18  23  19    24  33  33    52  61  67    46  56  66    91 110 122    72  92 106    63  83  99   102 117 129    58  68  72    42  51  50    97 112 109    24  43  42    32  41  38   112 122 123   206 215 217   195 199 198   124 125 117    33  35  24    22  32  25   103 119 118   201 207 206   179 189 191   124 135 139   128 136 138    67  68  63    31  32  24    68  75  68   149 163 159   134 149 152   177 189 189   137 144 138    59  62  52    51  50  37    65  63  48    73  70  55    57  53  40  
  35  58  62    71  92 114   111 137 156    85 107 117    23  38  38    18  26  23    21  25  23    16  18  18    14  20  18    25  34  28    25  31  31    30  35  33    38  42  38    28  32  26    20  25  22    29  36  35    48  57  60    43  52  58   107 126 142   102 123 139    71  94 108    99 117 124    78  89  89    28  38  35    85  98  95    34  50  52    30  41  37    84  96  95   165 176 175   202 207 204   172 173 165    53  56  45    11  21  12    58  73  67   182 190 191   189 198 202   148 159 163   149 157 159   118 122 117    45  49  42    33  42  34   125 138 130   125 139 142   168 180 180   167 176 172    67  70  62    53  53  40    72  70  55    74  73  56    68  65  47  
  39  67  71    63  89 108    84 112 133   107 133 144    40  58  60    19  29  28    21  27  27     9  14  17    19  28  27    30  41  37    32  39  41    33  41  40    38  44  42    37  42  38    19  24  20    28  34  32    59  67  69    43  51  53   102 119 138   121 142 161    94 120 132    99 123 125    84 100  94    19  30  24    74  86  85    48  62  67    26  36  35    74  86  84    99 114 109   189 198 193   203 205 198    87  90  81    18  26  15    38  52  40   152 162 164   190 200 202   153 162 167   176 186 188   154 163 160    64  74  66    22  32  23    82  94  84   147 158 160   154 164 165   196 205 203   101 105  99    43  44  35    64  65  51    73  72  52    80  78  57  
  50  81  86    59  92 107    89 121 142    84 112 124    33  52  57    17  29  29    23  31  33    20  28  31    27  37  38    36  48  47    28  39  41    48  58  59    43  52  51    37  43  41    19  23  22    16  20  19    35  40  38    36  45  42    99 114 130   130 151 165    88 115 127   100 125 130   115 136 132    38  51  47    61  72  74    68  82  89    28  39  40    69  85  82    76  93  87   164 177 171   209 215 209   146 149 142    29  37  24    38  51  33   154 164 166   195 205 206   150 160 161   155 165 167   172 184 185   111 123 119    38  49  41    54  66  53   139 149 147   128 138 136   184 193 191   158 164 163    63  66  60    47  47  35    64  63  45    76  74  53  
  68 101 108    69 105 119    89 124 146    82 112 126    36  57  63    15  29  30    27  37  40    22  31  37    24  36  38    41  55  55    32  46  49    43  55  58    40  49  51    37  43  43    24  28  27    16  21  17    14  19  14    19  25  18    57  67  74    88 105 116    66  93 104    71  98 106   107 130 132    66  83  82    29  44  46    60  76  82    46  57  63    50  66  65    55  74  69   130 145 140   213 220 219   187 189 188    61  68  56    26  39  19   128 140 139   192 202 200   176 185 183   125 137 137   169 185 188   149 166 167    55  68  64    39  48  38   105 115 108   130 139 135   142 151 150   189 196 195    82  87  84    42  44  34    50  49  35    57  55  34  
  86 119 128    92 128 142    98 134 159    75 107 122    57  81  87    14  30  33    33  44  48    35  46  52    27  42  45    39  56  56    36  51  55    36  50  53    35  45  47    47  52  55    31  35  34    24  27  23    23  27  20    14  20  11    17  24  23    38  53  58    64  90 101    73 102 113    90 116 123   102 123 126    42  61  62    51  70  72    57  68  77    33  50  51    42  63  58    83  99  97   190 198 200   203 204 207   119 125 116    28  40  20    64  78  72   168 177 171   190 198 192   128 140 140   152 170 175   169 188 194    90 105 103    33  40  33    49  59  47    86  96  88    94 104 101   176 184 185   111 117 116    38  41  35    43  43  30    47  44  26  
  84 115 126    99 130 142    99 134 155    81 112 133    65  88 101    18  36  38    27  40  42    48  60  69    30  44  52    44  60  59    46  57  59    42  49  52    46  49  51    48  49  49    33  39  36    30  38  31    27  31  25    24  26  20    14  14   9    24  31  31    56  76  81    81 109 117    87 116 126   100 126 135    79  99 107    68  84  92    61  81  87    27  40  41    44  56  49    55  72  68   136 151 153   206 210 214   165 164 157    63  67  46    30  39  28   126 132 125   193 198 192   156 164 159   146 157 161   187 199 213   124 138 145    40  57  48    42  55  44    44  46  40    73  74  68   118 128 122   131 142 137    64  65  62    41  38  30    36  36  20  
  58  85  98   104 131 144    84 121 137    99 129 153    87 112 131    30  48  54    18  33  33    50  63  69    30  44  53    48  63  65    54  63  65    42  46  49    45  45  47    43  43  43    32  37  33    30  39  34    38  43  38    29  32  28    22  21  17    20  23  23    40  55  55    73  94  98    69  94 100    66  90 100    62  82  93    75  93 104    63  83  90    38  48  48    37  43  39    41  58  52    92 110 112   191 198 204   183 183 178    94  97  77    20  25  12    82  87  81   191 196 192   187 194 187   144 153 153   185 195 206   154 169 177    70  89  83    58  71  64    48  49  43    76  75  67    61  71  62   124 137 130   119 121 118    44  40  34    35  36  22  
  81 105 117    84 106 119    92 130 142   101 133 156   107 131 157    39  59  70     4  22  22    42  59  58    38  53  60    36  50  60    48  60  64    33  39  42    33  33  35    36  36  36    35  40  36    31  40  35    49  58  55    36  41  40    25  27  25    17  23  21    24  35  31    40  55  51    35  52  54    61  81  87    77  98 111    86 109 123    76  94 102    48  59  61    24  30  28    27  42  39    54  72  76   163 174 180   187 194 194   122 128 119    40  49  30    34  41  33   150 155 154   200 206 202   123 132 127   172 182 182   179 193 195   110 125 126    60  75  69   100 106  99    72  74  66    50  60  51    91 105  98   139 146 139    68  69  58    37  38  22  
 121 140 151    75  92 104   107 143 150    97 127 146   101 124 149    39  58  74    13  31  32    34  50  46    44  59  64    51  65  79    47  63  68    27  35  38    30  29  32    31  29  30    37  42  38    33  44  41    53  65  64    42  53  54    27  37  37    25  33  32    25  31  27    18  26  21    16  27  25    54  71  75    98 119 129    78 103 118   117 133 142    67  79  83    29  38  38    19  31  31    35  50  54   120 136 142   191 201 206   150 159 161    63  73  54    27  35  26   124 130 128   187 193 191   140 147 140   150 161 152   184 195 194   149 161 168    77  92  88   109 120 113    95 103  93    81  92  83    59  72  66   125 136 128    96 101  89    44  41  26  
 167 185 194   109 124 134    98 124 129   117 141 152   112 132 150    55  73  89    17  34  39    24  40  36    31  46  49    59  72  89    58  77  84    27  37  43    31  30  35    29  26  27    27  31  28    33  44  42    60  74  76    55  71  76    40  55  60    43  56  58    44  53  51    30  38  34    29  39  37    29  43  46    83 103 111    82 105 118   130 147 158    89 104 111    45  56  57    18  27  28    29  42  43    73  92  93   182 197 202   169 176 185    79  90  78    27  37  26   102 109 103   173 179 177   182 188 184   139 149 141   167 177 176   169 179 188    91 106 107    73  90  85   134 147 140   154 165 159    65  77  74   100 115 109   120 130 118    60  58  44  
 177 194 201   128 143 150    62  78  82    99 115 115   122 139 143   106 121 133    28  43  51    25  40  41    35  50  55    45  58  74    58  80  86    36  47  53    28  27  32    30  26  27    26  28  27    31  42  42    59  77  81    66  85  92    41  60  67    48  65  71    53  67  71    38  51  52    38  51  52    15  29  32    62  78  84    94 112 121   123 141 155   105 124 132    57  70  73    20  26  27    20  32  29    38  59  55   145 163 166   184 188 200    88  99  97    38  48  37    85  93  81   157 163 161   178 183 184   162 169 166   168 177 178   185 194 203   124 140 146    78  98  98   127 145 142   168 179 178    97 109 109    83 102  99   124 137 127    73  71  58  
 129 148 154    69  86  91    39  48  51    35  46  39    97 111 104   154 167 176    64  77  88    19  34  38    31  48  53    26  42  55    47  72  79    53  65  73    29  28  33    33  29  30    36  38  37    25  37  37    42  61  67    61  83  91    48  71  78    41  64  72    54  72  79    44  61  68    42  57  61    16  30  33    41  55  58    81  96  97   104 126 139    99 123 130    62  80  84    32  38  38    19  30  24    21  42  35    76  94  94   162 164 176   130 140 146    66  76  65    74  83  66   138 144 141   174 178 184   174 179 183   148 156 158   186 193 202   148 165 175    92 115 117    77  96  95   166 176 178   136 149 152    84 104 103   141 157 147   114 111 101  
  45  66  69    23  35  29    27  34  27    32  37  30    49  55  55   117 130 139   107 127 136    17  41  43    30  48  53    30  40  55    40  53  59    45  57  60    23  33  35    22  32  33    32  42  43    30  41  43    40  53  57    59  74  79    52  72  81    48  68  77    55  74  81    61  78  85    54  69  74    18  33  36    16  30  33    62  76  77    81 107 118   101 123 131    73  88  93    42  52  53    24  33  31    35  45  42    45  55  56   130 142 145   166 174 185    93 103 104    68  79  71   124 135 127   166 176 177   192 201 206   136 145 149   158 168 169   159 173 184   116 133 140    67  87  88   124 144 147   142 161 167   114 128 131   147 156 152   114 120 110  
  48  67  75    35  46  48    16  23  16    21  29  18    22  32  28    66  81  90   104 128 138    38  64  69    28  51  56    58  73  86    26  40  46    39  53  57    29  41  44    33  43  45    42  52  54    36  48  51    31  45  49    54  69  75    71  91 100    52  70  80    55  74  81    58  75  82    49  64  69    20  35  38     8  22  23    45  58  59    68  87  94    85 104 109    76  91  93    53  66  66    16  27  28    42  57  60    56  74  80    70  91  98   157 167 177   131 142 144    64  77  71   120 133 124   160 171 169   189 199 203   179 189 191   130 140 142   161 175 185   147 164 170    86 105 106    85 104 105   140 157 161   114 128 131   133 142 140    74  80  73  
  74  92 103   101 111 119    45  53  47    32  41  30    39  50  44    40  58  66    77 104 116    38  69  76    16  42  48    59  79  93    29  46  52    37  53  59    37  52  56    36  49  51    42  55  57    53  66  71    42  57  63    49  65  72    68  87  96    59  77  87    51  70  77    45  62  69    44  59  64    30  44  47    11  25  26    35  46  48    57  78  85    80  99 104    80  96 101    50  66  69    18  34  37    37  54  61    74  94 102    42  64  74   135 146 155   171 184 186    73  86  83    72  85  79   118 130 127   173 184 185   205 215 217   132 142 144   148 159 169   177 191 195   122 139 138    67  84  83   135 149 153   132 145 148   150 159 158    94 101  93  
  63  80  91   128 141 150   136 144 144    72  82  73    60  73  65    38  57  64    63  91 106    57  89  99    12  40  47    48  70  81    39  59  65    25  44  51    35  52  58    41  56  60    37  52  57    39  53  60    37  54  61    52  70  77    50  68  78    71  90  98    53  70  78    39  56  63    51  66  71    42  57  60    14  26  28    30  40  43    63  90 101    88 112 122    82 103 111    47  66  71    32  50  54    23  38  42    74  90  93    47  62  66    96 110 118   184 199 203   130 144 144    35  49  46    65  77  73   139 151 149   208 219 221   154 163 167   141 151 160   191 203 205   171 184 182    75  90  88    96 108 110   132 143 146   140 150 149   117 126 120  
  71  89  94    82  95 101   165 174 180   106 117 110    56  69  62    50  69  76    98 124 141   112 141 155    24  50  57    38  57  64    57  80  88    28  48  55    35  54  60    37  53  60    39  55  62    23  40  47    31  50  57    60  78  88    47  65  75    75  94 102    54  71  78    41  56  61    55  70  73    49  64  65    16  27  29    31  43  43    78 107 120    88 116 128    81 105 115    53  73  80    39  55  60    22  33  35    58  69  68    57  67  66    70  87  92   148 163 170   175 190 194    79  93  92    45  60  53   133 146 139   193 204 205   178 187 194   129 138 145   184 194 195   195 206 200   116 127 121    83  93  94   130 140 142   151 161 160   141 152 146  
 118 137 136    66  81  77   119 129 141   126 138 136    58  73  66    87 106 113   134 159 179   144 169 184    39  59  66    29  44  47    67  91 101    42  65  73    50  71  77    32  51  57    40  57  64    32  51  58    55  73  83    60  80  92    47  67  74    55  74  81    48  65  72    33  48  53    39  54  57    56  71  71    17  28  30    20  32  32    69  91 101    73  95 103    97 117 124    58  77  83    47  62  67    32  46  47    36  48  49    56  66  67    54  72  76   112 129 136   150 165 172   116 132 132    39  54  47   102 115 106   160 172 172   175 184 193   116 123 131   152 161 160   203 213 205   178 188 180   123 133 132   125 135 136   152 162 163   138 149 145  
  84 101  97    76  90  80    91 105 118   132 143 145    63  79  78    90 110 121   122 144 165   144 169 185    60  82  88    23  35  38    56  84  93    37  63  70    65  89  95    37  58  64    38  58  65    35  55  62    63  82  92    53  73  83    42  61  70    41  59  67    56  73  79    36  50  54    35  48  50    73  86  87    27  37  39    13  23  24    49  60  64    61  78  83   115 133 139    69  85  90    58  74  79    43  59  66    18  35  38    45  58  59    35  50  54    84 101 108    89 108 116   113 132 132    56  72  66    39  52  44   125 137 136   170 179 187   125 134 137   115 125 123   195 203 197   204 211 205   158 164 162   125 134 136   141 151 153   141 155 154  
  27  41  38    70  81  72   120 139 144   138 147 154    74  91  99    67  94 105    95 118 136   129 158 174    63  94  99    19  34  37    57  84  95    31  58  67    65  89  97    39  61  67    39  58  65    39  58  65    52  71  81    51  71  80    55  76  87    49  69  77    62  79  82    34  45  46    28  38  37    70  78  80    39  47  50    20  28  32    28  32  32    54  68  76    99 117 128    88 102 108    55  69  75    55  75  84    21  39  45    44  52  50    32  42  46    63  80  88    66  88  98   112 136 140   109 127 125    55  69  64    60  72  70   117 130 132   149 164 160   106 117 113   166 171 167   221 221 219   199 200 199   134 140 141   112 124 126   131 148 151  
  24  44  45    51  68  66   112 131 134   157 167 173    97 114 122    60  86  97    71  96 113   115 144 160    62  92  99    12  29  32    56  81  91    44  68  78    47  68  76    49  67  75    33  51  58    36  53  61    46  63  73    63  82  92    76  94 102    53  69  75    45  57  59    27  38  37    22  32  31    52  61  63    59  68  72    20  30  36    25  29  28    39  54  58    67  84  93    98 113 119    48  65  71    51  71  80    35  52  59    34  44  44    23  34  35    57  75  80    75  98 109   106 130 140   137 156 161   101 116 117    31  44  43    64  80  78   156 172 169   131 142 140   152 157 155   213 214 211   202 204 199   137 144 139    78  89  85   122 137 132  
  38  63  70    39  63  68    93 112 116   157 168 174   123 142 148    62  90 101    51  77  94    76 105 121    60  90  98     9  27  31    45  67  78    57  77  86    35  53  61    54  70  77    31  46  53    33  47  56    33  50  60    55  72  82    45  59  65    31  42  47    33  44  45    21  30  28    22  31  28    40  50  51    61  72  76    29  42  48    20  25  23    28  38  39    70  85  90   118 135 142    67  85  92    23  42  49    50  67  74    38  52  55    15  26  23    39  57  59    79 104 111    89 112 126   140 159 172   127 141 150    61  77  77    28  47  41   118 134 133   169 181 181   165 174 171   194 198 194   181 183 178   148 153 146   105 115 105   131 143 130  
  65  92 103    62  92 100    86 107 108   139 150 154   147 166 172    81 110 121    41  67  84    69  98 114    59  90  98    13  31  35    23  43  52    58  77  84    33  50  58    51  66  72    37  50  58    41  55  64    35  52  62    48  65  75    35  45  50    24  34  36    30  39  38    25  33  30    43  52  49    41  51  50    46  56  58    36  46  50    20  26  22    22  30  27    74  85  87   115 134 141    93 113 122     7  26  33    58  74  81    42  59  66    16  25  22    22  37  36    65  88  92    81 104 116   139 156 172   133 147 158    89 107 109    32  53  46    49  67  67   157 171 171   174 184 184   192 198 196   193 198 192   174 180 170   157 165 150   172 180 163  
  88 114 125    89 117 128    80 101 102   103 114 118   153 172 178    97 125 135    45  71  88   105 134 151    56  89  98    13  30  37    20  40  47    60  78  85    40  57  63    46  62  67    35  51  57    44  60  67    38  55  63    54  73  83    40  51  55    27  37  39    28  37  36    42  48  44    69  76  71    49  57  53    35  43  42    25  35  35    20  26  22    20  25  18    46  55  54    83 103 110   103 126 137    25  42  49    56  71  76    44  63  73    20  23  25    19  30  28    48  67  65    75  96  99   130 145 156   143 156 168    90 105 110    70  89  86    43  61  62   106 122 123   164 176 177   185 192 192   210 215 211   194 197 188   136 141 127   146 152 137  
 105 129 138    92 118 128    89 110 111    80  91  95   146 165 171    95 123 134    53  78  98   122 153 171    54  87  96    14  31  38    21  41  47    54  74  79    37  56  60    38  56  60    26  44  48    42  60  66    40  60  67    76  96 105    43  55  62    28  39  42    32  41  40    37  43  38    49  55  48    45  51  44    43  48  44    41  49  46    20  26  22    21  23  16    29  36  33    65  85  93   119 143 154    48  65  72    56  71  76    67  89 101    28  27  33    16  26  23    28  46  37    50  70  66   108 123 128   161 172 183    92 105 112    68  85  84    64  84  85    88 105 107   141 153 156   169 177 180   209 213 213   214 216 210   147 149 138   102 105  91  
 135 151 159    93 112 120   116 131 130    69  81  87   119 139 147    90 120 129    52  86 103   121 154 177    74 102 118    16  33  41    19  38  44    39  56  61    27  46  52    35  56  67    22  41  49    40  53  56    50  64  70    88 110 122    64  75  82    29  39  42    29  36  34    29  32  27    30  33  26    27  31  24    47  54  47    57  65  61    22  27  28    23  25  20    20  26  20    47  60  62   113 135 142    70  95 105    39  63  73    61  86  98    27  40  41    19  29  25    26  33  29    45  56  55    72  93  97   135 158 167    98 116 125    61  73  80    45  61  64    65  84  86   109 128 130   148 161 162   193 197 198   227 227 224   170 173 164    79  85  72  
 156 168 174   117 132 138   147 159 157    73  86  92    93 111 121    93 123 131    54  92 106   132 166 191    92 117 137    10  27  35    13  31  35    24  39  44    37  56  63    66  92 105    42  62  72    37  47  49    53  64  70    86 108 121    75  86  91    28  38  39    22  28  25    26  28  23    33  36  29    25  28  21    42  48  44    60  69  66    27  32  35    18  20  17    17  20  14    25  35  34    91 110 116    89 117 126    50  77  88    53  77  87    31  50  48    25  34  31    26  28  25    39  48  47    59  79  83    90 115 120    59  79  85    90  99 104    66  81  84    59  79  79   112 133 134   127 142 143   182 187 188   214 214 212   178 181 174    73  81  68  
 148 156 163   117 129 135   168 180 176   106 117 121    80  96 104   108 134 141    55  89 101   118 150 173   102 127 147    20  40  47    15  30  35    23  38  41    29  49  56    66  92 105    48  69  79    38  48  50    54  64  69    81 100 114    68  79  81    26  36  35    24  30  26    35  37  32    52  55  48    37  39  34    33  39  37    57  66  65    31  36  39    16  18  15    15  17  12    14  25  21    49  68  72    81 105 115    88 112 122    47  69  77    33  47  47    41  47  45    34  34  32    26  32  30    65  81  81   101 121 124    47  62  65    68  77  76   118 134 134    88 106 106   123 143 142   115 129 130   164 173 172   196 198 195   198 201 194   105 111 101  
 146 154 159   117 126 130   144 156 152   137 148 151    75  89  95   116 138 143    65  96 107   103 134 157   126 153 172    24  47  54    16  30  33    31  45  48    33  53  60    59  86  98    42  64  75    40  51  53    52  62  66    54  72  82    62  74  74    35  45  44    39  45  41    48  51  44    64  67  60    46  48  45    29  35  35    57  65  67    45  50  53    17  21  18    17  20  15    18  26  23    17  34  37    43  65  73    92 112 120    63  81  88    33  42  43    42  47  45    34  36  31    21  27  22    43  54  54    99 113 113    72  84  81    32  41  35    99 113 113   128 144 144   105 121 121   121 135 136   126 137 138   181 189 186   212 217 212   167 170 163  
 149 157 160   112 122 122   127 139 134   166 175 177    99 109 114   117 134 138    75 101 112    76 106 127   139 167 185    29  55  62    13  26  27    22  35  35    34  54  61    63  91 104    43  65  76    33  44  46    47  57  59    47  65  73    63  75  76    42  52  51    39  45  41    43  45  39    56  59  52    44  46  42    25  31  30    47  56  56    55  62  64    23  27  26    18  20  15    15  21  18    15  29  31    61  79  86   117 134 141    60  73  79    28  35  36    37  43  39    39  44  37    33  40  33    25  34  33    94 105 106   112 123 119    24  34  25    48  62  62   129 142 142    82  94  96    93 107 108    98 113 113   160 173 169   213 218 215   197 198 194  
 149 158 158    85  97  92   101 113 106   162 170 173   127 136 139   106 121 122   101 125 133    61  89 110   122 151 169    36  64  71    14  25  24    15  26  26    26  46  53    58  86 100    50  73  83    27  38  40    27  36  38    40  56  63    67  78  82    45  55  55    37  43  41    46  48  43    55  58  51    45  47  41    27  33  30    38  47  44    60  68  70    32  36  35    16  18  13    17  23  19    13  25  26    68  84  90   153 166 173    78  89  91    26  32  31    27  36  29    58  67  58    62  71  63    16  25  24    67  75  78   110 120 118    35  45  39    12  25  24    84  95  95   106 115 118    59  73  74    97 115 114   115 131 128   197 203 201   220 219 217  
 144 156 153    86  99  90    58  69  63   138 146 148   133 138 141    65  76  78   122 143 152    77 105 126   105 136 154    36  66  74    15  25  24    12  24  22    29  49  56    55  84  98    47  71  83    34  45  47    34  43  43    43  58  63    67  78  84    43  53  55    34  40  38    50  52  47    54  57  50    43  46  39    32  39  32    39  48  43    58  66  68    42  46  45    19  22  15    14  20  15    20  32  32    66  80  83   139 150 155    85  93  96    28  37  34    18  28  20    89 101  91   105 116 108    29  37  39    54  61  67   104 114 115    64  76  72    15  27  25    42  52  53   133 141 144    66  77  79   111 131 130    95 113 111   161 170 169   220 218 219  
