P3
50 50
255
  44  49  42    34  39  32    32  39  32    40  47  40    42  49  41    39  46  38    30  37  30    37  42  36    40  42  37    42  43  37    29  31  20    30  30  20    21  22  14    18  19  11    16  17  11    15  16  10    11  12   7     9  11   6    12  14  11    12  14  11    19  20  14    27  28  22    32  32  24    41  41  33    31  31  23    19  19  14    33  35  30    37  42  38    16  25  24    16  34  38    31  52  57    24  41  48    56  74  86    75  98 116    81 105 117    42  59  57    68  82  87    43  67  67    38  54  53    62  74  72    63  86  80    60  79  75    20  30  32    61  79  79    61  79  79    20  25  28    13  23  22     9  28  26    31  43  49    43  58  63  
  43  48  40    32  37  31    29  36  29    42  49  42    38  48  39    43  50  43    28  35  28    33  38  32    34  36  31    41  42  36    40  41  33    25  26  15    20  20  13    18  19  11    16  17  11    12  13   7    11  12   7    15  17  12    16  18  15    11  13  10    17  20  13    29  30  24    33  33  25    38  38  30    29  29  21    17  18  12    22  24  19    21  26  22    20  28  28    31  48  53    33  53  56    27  42  46    60  76  88    71  94 111    78 102 113    39  56  55    66  78  84    56  77  78    40  55  55    53  64  63    57  78  73    46  62  60    16  25  27    39  57  57    72  92  94    37  51  53    10  23  23    13  29  30    35  52  59    43  60  67  
  41  46  39    32  37  30    34  41  33    43  50  43    36  46  37    38  47  39    31  38  31    32  37  32    34  36  31    38  40  33    35  36  28    25  27  16    20  21  14    19  20  13    17  18  12    13  14   8    13  14   9    17  19  14    19  21  16    14  16  11    17  20  13    30  31  25    32  32  24    34  34  26    29  29  21    20  21  15    22  24  19    22  27  23    21  30  31    36  54  58    36  56  58    34  48  50    61  77  86    63  86 101    71  96 104    42  61  59    63  74  78    63  83  83    42  54  56    46  56  58    50  68  67    32  46  47    22  30  33    24  40  40    49  71  76    61  85  86    35  50  52    19  32  37    38  60  66    48  66  74  
  44  50  41    35  40  33    37  44  36    43  50  42    40  50  41    37  47  39    30  36  31    31  36  31    45  49  43    42  45  38    24  25  17    18  21  10    22  23  17    19  20  14    18  19  13    17  18  12    14  15  10    14  16  11    16  18  13    18  20  15    20  23  16    27  30  23    30  32  24    33  33  25    26  26  18    17  18  12    22  24  19    29  34  30    40  50  51    47  65  67    41  60  62    29  41  42    57  70  77    81 103 116    84 109 116    45  64  61    48  59  62    68  88  88    38  51  54    32  41  45    46  64  65    33  47  49    38  46  51    33  49  49    29  52  58    43  71  72    37  52  55    29  42  48    49  74  79    47  66  73  
  57  63  53    39  44  38    33  40  32    40  47  39    35  45  36    51  61  53    36  42  38    29  35  31    48  53  49    38  40  35    25  27  19    14  16   5    23  24  18    18  19  13    18  19  13    21  22  16    16  17  11    12  15   8    17  20  13    23  26  19    25  29  22    27  30  23    34  35  27    38  38  30    28  29  21    19  19  14    23  27  22    34  39  34    61  72  74    71  89  91    67  85  86    42  54  53    57  68  72    87 107 118    92 117 122    58  78  73    48  61  62    76  98  96    33  47  50    30  40  46    58  76  80    29  44  49    31  40  45    57  75  76    40  61  68    24  44  48    34  50  50    40  54  57    51  73  78    47  64  71  
  58  64  54    45  51  41    40  47  39    47  54  46    28  38  30    56  66  58    50  56  52    26  32  28    31  36  32    24  26  21    25  29  20    20  21  13    19  21  16    16  17  12    17  18  13    19  19  14    17  18  12    18  20  13    23  26  19    27  30  23    29  32  25    26  29  22    37  38  30    39  39  32    26  27  19    24  27  20    29  34  28    33  38  34    64  75  77    71  89  91    51  69  69    32  43  39    52  63  65    81 101 110    96 121 126    78  99  94    45  62  61    67  92  89    32  50  53    47  60  66    74  95 100    30  48  53    20  31  35    67  87  88    56  75  81    22  32  36    29  40  42    47  62  65    52  67  72    40  58  62  
  49  55  45    39  45  36    47  54  46    51  58  50    30  38  32    45  54  47    46  55  49    23  30  25    22  28  23    20  22  17    22  25  18    23  24  17    16  17  12    15  15  10    15  16  11    16  17  11    18  19  13    22  24  17    26  28  22    26  28  22    31  35  29    27  30  23    36  37  29    34  35  27    23  24  16    22  25  18    25  30  24    27  33  30    52  64  65    75  93  94    48  66  65    32  44  42    54  65  67    88 108 114   105 128 131    77  97  93    43  60  59    68  91  90    45  65  69    60  77  84    66  87  92    34  50  56    19  30  34    51  68  67    57  75  80    31  39  43    30  40  41    40  56  56    60  72  77    52  67  71  
  55  61  51    32  39  31    44  51  43    56  63  55    26  32  28    27  33  29    30  40  32    30  40  32    32  39  32    21  26  20    21  23  18    18  19  14    12  13   8    13  14   9    17  18  13    20  21  15    20  21  15    19  20  14    19  20  14    19  20  14    29  32  25    28  29  21    36  37  29    32  33  25    24  25  18    19  21  16    18  24  20    37  43  41    65  82  82    74  91  91    54  71  72    44  61  64    44  61  64    82 100 103   105 124 126    73  92  93    46  56  58    67  83  86    45  69  73    67  90  96    57  73  80    35  45  50    23  32  31    47  57  51    49  68  75    35  50  53    33  44  44    22  34  34    49  64  67    52  68  73  
  60  65  57    33  39  31    37  44  36    52  59  51    29  35  31    26  32  28    25  35  27    29  39  31    31  38  31    17  22  16    20  22  17    20  19  15    10  11   6    12  13   8    16  16  11    19  20  14    19  20  14    16  17  11    16  17  11    19  20  14    22  25  18    25  26  18    35  36  27    28  30  21    17  18  12    13  17  11    24  30  28    54  62  61    73  93  93    49  69  70    46  65  70    54  72  79    43  62  68    49  70  74    78  99 101    79 100 102    41  52  54    63  82  83    47  73  75    74  98 103    61  79  84    39  50  54    29  40  39    34  48  42    43  66  72    50  69  70    36  49  49    21  34  34    43  60  62    53  71  75  
  55  60  53    33  38  31    39  46  38    44  51  44    27  32  28    34  40  36    38  45  38    33  41  34    25  32  25    10  15   9    18  19  14    19  18  14    14  15  10    14  15  10    15  16  11    17  18  12    17  18  12    14  15   9    17  18  12    24  25  19    26  29  20    22  23  15    25  26  18    22  23  15    19  22  15    20  25  21    27  33  31    52  60  60    56  76  76    42  61  65    37  57  64    50  72  80    69  91 101    63  85  93    73  94  99    75  95  98    35  48  49    63  83  84    44  70  71    61  85  88    47  65  69    35  49  50    37  51  51    23  39  36    40  65  70    61  82  83    31  47  46    24  39  39    50  70  71    46  65  69  
  48  53  46    34  39  32    42  47  40    41  46  40    25  30  25    38  44  40    48  55  48    33  40  33    23  30  23    18  20  15    18  19  14    11  10   6    15  16  11    15  16  11    16  17  12    21  22  16    23  24  18    17  18  12    17  18  12    26  27  21    27  28  20    25  26  18    27  28  20    21  22  14    19  22  16    21  26  22    30  39  38    58  68  69    64  82  83    51  70  73    33  56  64    51  75  85    80 104 116    80 103 111    93 114 119    76  95  99    36  49  51    65  85  86    39  63  63    53  74  75    49  64  67    27  38  40    34  48  48    48  67  65    53  81  85    59  80  81    20  36  35    26  42  41    57  76  78    53  72  76  
  33  38  30    30  35  28    39  44  38    44  49  43    33  38  34    42  47  43    54  60  54    29  36  29    20  25  19    23  25  20    22  23  18    23  22  18    18  19  14    15  17  12    14  15  10    19  20  14    24  25  19    19  20  14    18  19  13    29  30  24    28  29  21    30  31  22    30  31  23    18  18  10    17  20  15    25  31  27    37  46  46    66  78  78    59  74  74    35  53  57    36  56  64    71  94 106    75  98 111    74  96 105    94 115 120    69  86  87    32  42  44    64  82  82    39  60  58    42  61  60    44  57  58    18  28  30    25  38  40    56  75  73    46  71  76    67  87  89    35  51  50    12  27  26    38  55  57    60  77  81  
  31  36  29    34  39  33    47  52  46    47  52  46    45  50  46    33  38  34    45  52  45    25  32  25    23  28  22    27  29  24    16  17  12    25  24  20    16  17  12    13  14   9    12  13   8    20  21  15    27  28  22    20  21  15    16  17  11    26  27  21    32  33  25    33  34  26    29  30  22    14  15   7    17  19  14    28  34  32    37  47  48    61  72  74    45  58  57    31  48  49    39  59  66    76  98 110    77 100 112    83 103 111    86 105 108    67  82  82    24  34  36    43  58  58    29  46  46    32  47  47    29  38  40    18  27  29    30  41  43    42  59  59    28  52  58    47  66  67    41  54  54     9  22  22    16  31  34    48  62  68  
  30  33  28    37  40  34    46  51  46    42  47  43    47  52  48    34  40  36    38  44  39    25  31  25    21  26  21    26  28  23    18  20  13    18  19  13    11  12   7    10  11   6    13  14   9    20  21  16    27  28  22    22  23  17    16  17  11    27  28  22    32  35  26    38  41  32    30  31  23    18  19  11    21  24  17    25  30  26    36  43  43    62  71  73    52  70  70    41  60  60    50  68  72    61  81  85    74  91  97   102 118 122    86 101 102    75  87  89    24  38  39    31  45  46    28  40  39    30  40  38    25  33  32    21  31  31    38  51  52    37  53  53    32  48  51    38  55  56    42  56  58    13  29  31    25  40  42    40  54  57  
  20  22  17    27  29  24    31  36  32    27  32  28    35  41  37    37  43  39    50  56  52    39  44  38    21  26  20    20  23  18    17  20  13    19  21  14    10  11   6    10  11   6    14  15  10    18  19  14    23  24  18    18  19  13    14  15   9    26  27  21    33  36  27    33  36  27    29  30  22    19  20  12    24  27  20    31  36  32    39  46  46    63  71  73    51  66  69    30  46  49    49  65  67    59  74  77    75  89  92   102 116 117    77  91  92    84  95  97    38  52  53    37  51  51    24  34  33    24  33  32    19  28  27    21  31  30    35  49  49    31  46  47    28  43  43    42  56  57    38  53  55    24  43  44    46  61  64    37  51  52  
  22  24  19    33  35  30    34  39  35    29  34  30    33  39  35    32  39  34    46  52  48    37  42  35    16  21  15    17  19  14    17  20  13    19  19  14    11  12   7    11  12   7    13  14   9    16  17  11    18  19  13    15  16  10    14  15   9    26  27  21    30  33  25    20  23  14    24  25  17    17  18  10    19  21  14    34  39  35    42  48  46    57  65  67    32  42  44    24  34  36    52  63  65    60  71  73    79  90  92   106 117 119    72  86  87    73  87  88    35  49  50    39  51  51    18  30  30    22  32  31    12  22  21    16  28  28    29  42  42    27  41  42    25  37  37    28  42  43    22  38  38    26  41  44    37  52  55    41  55  56  
  25  27  22    38  40  35    39  44  38    32  37  32    30  37  33    30  36  31    44  50  46    36  41  35    17  22  16    18  20  15    17  20  13    15  17  10    14  15  10    11  12   7    13  15   8    16  17  11    18  20  13    18  19  13    17  18  12    28  29  22    35  37  31    23  24  17    24  25  17    21  22  14    17  18  12    33  37  33    51  57  55    54  63  62    27  32  34    40  44  47    53  60  63    45  53  55    73  83  84   107 117 119    78  89  91    55  68  69    32  44  44    41  53  53    28  40  40    37  49  49    23  34  34    25  37  37    25  37  37    27  39  39    26  38  36    19  31  31    17  30  32    20  35  37    20  35  36    23  37  38  
  25  28  21    35  37  32    40  45  39    30  35  29    26  32  28    33  39  35    53  59  55    45  50  44    25  30  24    20  22  17    14  17  10    14  15   9    14  15   9    11  12   6    17  18  12    20  21  15    21  22  16    20  21  14    17  18  10    23  24  16    31  33  26    24  25  19    23  24  16    29  29  21    23  24  18    39  41  36    68  74  72    60  69  67    27  32  31    43  48  48    45  50  52    38  47  47    72  82  83    97 107 108    83  95  96    68  79  80    39  50  50    37  49  49    29  41  41    36  49  50    33  46  47    38  50  50    19  31  31    15  26  26    19  29  27    13  24  24    10  23  24    14  28  29    40  54  55    34  48  49  
  23  26  19    32  34  29    46  51  45    33  38  32    30  36  32    35  41  37    44  50  46    36  41  35    24  29  23    21  23  18    12  15   8    13  14   8    12  13   7    12  13   7    19  20  14    20  21  15    17  18  11    16  17   9    17  18  10    23  24  16    18  20  14    13  14   8    19  18  12    28  28  21    25  26  20    43  45  40    68  73  69    54  60  58    30  38  35    41  50  47    45  53  51    48  57  56    82  92  92    90 100 100    81  92  93    83  94  95    46  56  55    28  39  38    24  38  38    24  38  39    35  50  50    45  58  58    20  30  30    17  27  26    20  29  26    10  20  19    15  27  27    25  37  39    54  68  69    34  46  48  
  26  29  22    32  35  28    53  58  52    40  45  39    31  37  33    33  39  35    36  42  38    25  30  25    21  26  20    23  25  20    13  16   9    17  17  12    14  15   9    14  15   9    21  22  16    17  18  12    11  12   4    13  14   6    20  22  14    33  34  26    22  23  18    12  13   7    22  21  16    29  29  21    24  25  19    39  41  36    48  53  49    28  34  32    28  39  33    40  51  45    48  59  54    45  55  52    83  93  92    94 104 105    83  93  94    91 101 102    43  52  50    23  33  32    29  43  44    17  33  33    28  44  44    38  52  53    17  27  26    27  36  33    23  29  27    19  28  25    21  31  32    18  29  31    44  58  59    28  39  41  
  18  21  14    29  34  28    49  54  48    31  36  30    34  40  36    29  35  31    34  39  34    29  34  28    23  25  20    19  22  17    16  17  11    15  16  10    14  14   9    11  12   6    16  17  11    21  22  16    12  13   5    12  13   5    27  28  20    30  31  23    25  26  21    12  13   7    23  21  16    29  28  23    21  22  16    29  32  27    35  39  38    21  27  27    27  42  37    43  58  55    63  78  75    38  51  52    78  89  92   101 111 113    76  84  86    80  88  90    50  60  61    21  31  30    28  37  35    12  21  18    21  31  31    46  57  59    44  59  64    29  46  53    23  31  34    16  24  26    29  37  39     2  12  13    11  21  22    21  31  33  
  20  23  16    28  33  27    41  46  40    25  30  24    36  42  38    29  35  31    30  35  31    24  29  23    18  20  15    17  19  14    17  18  12    17  18  12    10  11   5    10  11   5    14  15   9    19  20  14    12  13   6    15  16   8    27  28  21    27  28  20    15  17  12    16  17  11    26  25  20    28  27  22    20  21  15    28  30  25    34  39  37    26  33  33    27  41  36    55  70  67    72  86  86    42  57  57    72  86  87    98 109 111    80  88  90    63  70  72    38  46  44    20  28  26    14  22  19    13  22  21    27  38  39    52  67  70    56  73  80    39  58  66    26  34  36    11  19  21    24  32  34    14  23  25    11  21  22     9  19  19  
  23  27  21    30  35  29    35  40  34    23  28  22    39  45  41    33  39  35    36  41  37    29  34  28    20  22  17    19  21  16    18  19  13    14  15   9    10  11   5    11  12   6    15  16  10    18  19  13    16  17  11    21  22  15    30  31  23    24  25  17    11  13   8    17  18  13    23  24  18    22  22  16    18  20  14    31  35  31    44  50  48    37  46  45    33  45  41    61  76  73    66  81  81    46  62  63    80  95  97   101 112 114    91 100 100    64  69  68    29  33  29    25  30  27    12  18  16    13  22  22    29  41  44    43  59  65    40  59  67    54  75  85    33  42  43    16  25  27    21  29  31    22  30  32    26  34  35    13  22  21  
  23  28  22    30  35  29    30  35  29    22  29  22    38  44  40    35  42  38    44  49  45    37  42  36    25  27  22    23  25  20    19  20  14    10  11   5    10  12   6    13  14   9    15  16  10    17  18  12    17  18  12    23  24  18    28  30  23    20  21  15    10  12   7    18  19  14    27  28  22    24  25  19    15  17  12    32  38  34    57  66  63    51  60  59    38  50  46    67  80  78    62  78  80    61  78  82    99 114 118    99 110 112    86  95  94    54  58  57    36  38  33    42  47  43    14  22  21     8  19  21    36  50  55    50  68  75    37  57  65    60  81  91    31  41  42    19  29  30    19  27  29    16  24  26    31  40  38    19  28  27  
  23  28  22    32  37  31    32  39  32    28  34  30    33  39  35    34  40  36    46  51  47    38  43  37    23  25  20    23  25  20    21  22  16    11  12   6    11  12   7    14  15  10    12  13   8    14  15   9    15  16  10    19  20  14    23  24  18    15  16  10    14  16  11    17  18  13    23  24  18    25  26  20    17  19  14    35  41  37    60  70  69    44  56  54    56  65  62    82  93  93    72  87  90    71  88  95    98 114 121    89 100 104    86  92  92    54  57  54    38  40  37    43  49  47    13  23  24    24  38  41    57  72  79    53  70  78    40  59  66    44  63  70    19  29  30    10  20  21    18  26  28    12  21  20    21  30  29    23  29  29  
  24  29  23    29  36  29    29  35  31    26  32  28    34  40  36    36  42  38    49  54  50    39  44  38    22  24  19    22  24  19    24  25  19    16  17  11    12  13   8    13  14   9    11  12   7    12  13   8    14  15   9    16  17  11    20  21  15    15  16  10    10  12   9    19  20  15    23  24  19    22  25  18    12  17  11    25  34  29    52  62  61    43  55  55    60  69  66    75  87  87    76  91  96    84 103 110   100 117 124    84  98 101    88  94  92    49  51  46    28  32  31    26  35  35     9  20  22    36  51  56    67  84  91    39  56  64    28  45  52    37  51  58    18  28  29     8  18  19    15  24  23    15  24  23    18  24  24    22  27  27  
  28  33  27    30  36  31    31  37  32    28  34  30    36  42  38    41  47  43    57  62  58    43  48  43    25  27  23    24  26  21    27  28  23    19  20  14    13  15   9    12  13   8    10  10   5    12  13   8    15  16  10    17  17  13    18  18  14    14  15  10    15  17  14    24  25  20    18  19  14    18  20  15    16  20  15    30  38  34    51  61  59    40  53  52    62  70  66    62  75  75    71  88  94    92 112 120    94 113 118    84  97  99    81  88  85    40  45  40    30  38  39    27  35  36     9  19  22    29  46  53    70  90  96    44  62  67    26  41  45    46  60  67    28  40  39    21  32  31    14  24  23    15  24  23    17  23  23    18  23  23  
  30  35  29    29  34  28    29  34  28    30  35  29    39  45  41    61  66  62    72  77  73    46  51  47    32  34  30    25  27  22    23  25  20    18  19  14    15  16  10     9  10   4    10  11   6    13  14   9    17  18  13    20  20  18    13  13  11    10  10   8    17  17  12    27  28  23    21  22  17    19  20  17    18  22  18    36  40  38    47  53  51    39  48  46    60  66  62    57  71  72    75  98 106    95 118 127    86 105 109    92 104 104    70  79  76    34  43  40    45  59  62    40  46  46    11  19  21    44  64  71    81 108 115    48  69  70    24  39  42    47  62  71    28  42  42    28  40  40    19  29  28    16  22  22    11  15  16    14  18  17  
  27  32  26    24  29  23    23  28  22    26  31  25    38  44  40    80  85  81    66  71  67    37  42  38    39  41  36    35  37  32    20  22  17    13  14   9    12  13   7     9  10   5    12  13   8    15  16  11    18  19  14    17  18  14    11  11   9    10  10   8    17  17  10    26  27  19    21  23  16    15  17  11    24  29  23    41  47  43    38  44  41    49  56  53    55  61  57    52  66  67    77  98 105    91 114 122   101 119 123    88  98  98    60  69  66    28  38  36    56  71  74    40  46  46    26  35  36    36  56  64    60  87  94    38  59  60    29  45  46    52  66  75    19  33  33    20  32  32    25  34  33    19  25  25     9  13  14    10  13  12  
  33  38  32    27  32  25    20  27  20    25  32  25    24  30  26    60  65  61    51  56  52    35  40  34    31  33  28    34  35  30    19  21  16    11  12   7    11  12   7     9  10   5    12  13   8    14  15  10    16  17  12    14  15  10     9  10   5    14  14  10    18  18  10    23  24  16    18  21  12    14  19  12    29  36  29    43  52  45    36  42  38    54  60  56    58  64  60    67  81  82    90 109 115    92 112 119   106 121 124    86  96  95    49  58  56    24  34  33    45  61  61    32  38  36    50  58  60    60  80  87    64  92  96    29  50  49    34  49  49    49  62  70    21  34  34    21  33  33    31  40  39    24  30  30    11  15  16    11  15  14  
  37  42  36    32  39  32    25  32  25    28  35  28    28  34  30    36  41  36    44  49  43    42  47  41    26  28  23    28  30  25    16  18  13    14  15  10    12  13   8     9  10   5    10  11   6    12  13   8    13  14   9    10  11   6     8   9   4    18  19  13    23  23  16    24  25  18    21  26  19    25  35  26    39  49  41    47  57  50    35  44  39    45  51  47    48  54  50    76  88  88    88 105 112    89 106 113    96 110 111    87  96  95    44  54  53    39  50  51    53  69  69    26  32  29    48  57  56    66  85  91    70  95 100    35  55  54    42  56  57    44  57  64    24  37  37    22  34  34    28  37  36    19  25  25    11  15  16    13  17  16  
  31  38  31    27  34  27    31  38  31    42  49  42    38  45  38    27  32  26    25  30  24    27  32  26    30  32  27    31  33  27    18  21  14    15  17  10    10  12   7     8   9   4     9  10   5    12  13   8    18  19  13    16  17  11    18  19  13    33  34  28    28  27  22    20  22  16    15  22  15    21  31  24    36  47  42    50  61  55    36  46  43    44  50  49    52  57  53    81  92  92    86 103 107    92 107 111    91 102 102    83  92  90    37  47  47    53  65  66    57  73  72    13  20  16    25  34  33    46  66  71    58  83  87    33  52  51    43  55  55    42  53  59    21  33  33    25  35  36    20  30  29    14  18  19    15  18  19    18  20  19  
  31  38  31    26  33  26    39  46  39    56  63  56    50  57  50    41  46  40    28  33  27    18  23  17    25  27  21    19  22  15    20  23  16    15  16  10    11  12   7     8   9   4     8   9   4    14  15   9    21  22  16    19  20  14    20  21  14    37  38  30    28  26  23    21  21  18    29  35  31    33  44  39    53  65  61    69  80  77    35  44  43    42  47  49    58  63  59    83  93  94    87 102 106    92 106 109    91 101 102    79  88  85    35  45  46    57  71  73    71  87  86    17  26  21     9  18  16    46  65  70    62  87  91    29  48  46    39  50  50    36  47  53    18  30  30    32  42  43    22  31  30    17  21  22    28  29  31    27  29  28  
  26  35  29    30  36  31    50  53  49    57  61  57    51  58  53    47  53  49    33  38  33    23  28  22    23  25  20    21  23  17    23  25  19    18  19  13    11  12   7    13  14   9     9  10   5    11  12   6    18  20  13    18  19  13    19  20  12    28  28  21    23  23  18    21  23  17    34  40  32    30  38  31    41  52  44    65  77  72    46  56  53    42  52  51    63  76  71    72  84  84    86 101 104    93 110 110    94 105 104    65  70  71    30  39  45    63  83  90    80  95  95    20  29  29    14  26  27    49  72  74    67  89  93    28  40  44    37  42  46    32  41  44    23  32  30    33  43  42    29  40  40    16  25  26    23  31  33    30  36  38  
  29  38  33    37  43  39    50  55  51    51  53  50    46  52  48    40  47  43    28  33  29    24  29  23    26  28  23    24  26  21    25  26  20    22  23  17    12  13   8    13  14   9     8   9   4    13  14   8    19  20  14    19  20  14    24  24  17    28  29  21    16  17  11    24  27  20    48  53  43    45  52  44    39  49  40    45  56  50    37  49  44    45  57  55    69  84  81    81  92  93    92 105 109    92 110 110    91 103 101    64  67  69    27  36  41    73  96 102    70  85  82    19  27  29    22  34  36    63  85  86    60  81  82    24  33  38    33  37  41    23  33  34    29  37  34    36  46  45    36  47  47    20  31  33    20  30  32    20  28  30  
  42  51  46    49  56  52    51  56  52    48  50  48    46  52  48    39  45  41    26  31  27    25  30  25    30  32  27    25  27  22    25  25  20    24  25  19    17  18  12    13  14   8    10  11   5    16  17  11    18  19  13    18  19  13    25  26  18    27  28  20    18  19  13    27  30  23    51  54  45    52  57  50    42  49  41    29  38  33    31  42  38    62  74  72    70  86  86    79  90  94    86  99 105    94 112 112    86  98  94    47  51  49    28  36  38    62  83  86    47  57  56    15  20  23    25  35  37    69  89  88    39  59  58    19  29  31    33  38  41    22  34  32    25  35  34    40  50  50    36  46  47    21  31  32    19  29  30    16  24  26  
  40  49  44    43  49  45    48  53  49    55  57  54    47  54  49    47  53  49    35  41  37    32  37  31    35  38  33    33  35  30    31  33  26    30  31  25    20  20  14    12  13   6    11  12   5    18  20  13    17  18  11    18  19  11    29  30  22    28  29  21    17  18  12    17  20  13    30  33  24    38  43  36    43  50  42    23  32  27    27  38  34    60  70  69    65  81  84    88  99 105    93 106 114    73  92  92    76  87  83    42  44  41    28  36  35    54  75  75    40  51  52    22  26  30    36  44  46    66  84  82    38  57  55    21  31  31    32  40  40    22  37  35    28  39  40    43  53  54    30  40  41    15  24  25    17  25  23    18  23  23  
  30  40  35    33  41  36    45  50  46    54  56  53    38  47  42    47  53  49    37  43  39    32  37  31    35  40  34    35  37  32    30  33  26    25  27  21    21  22  13    14  16   6    14  16   6    21  22  14    20  21  13    24  25  17    34  35  27    32  33  25    25  26  20    22  23  17    36  39  30    59  64  57    74  81  73    39  48  43    32  43  39    53  63  62    53  71  72    88  99 105    89 102 109    88 105 105    71  82  78    32  34  31    26  32  32    56  75  75    45  61  63    22  30  34    34  44  46    45  63  61    39  58  56    29  38  38    31  39  41    25  40  40    32  45  46    32  44  45    21  31  31    14  21  20    16  21  19    15  19  18  
  36  47  41    39  48  43    42  47  43    39  44  40    39  48  43    47  55  50    38  44  40    34  40  33    39  44  38    37  39  34    26  29  22    18  21  14    23  25  14    21  23  12    19  21  10    21  23  13    21  22  14    24  25  17    32  33  25    28  29  21    23  24  18    23  24  18    33  36  27    49  54  47    62  69  61    31  40  35    35  44  41    48  58  57    43  62  61    94 107 111    88 101 105   101 117 116    72  83  79    35  36  34    23  29  31    59  77  80    64  87  92    31  45  51    41  55  57    34  54  53    35  54  52    30  40  42    30  37  40    33  48  50    49  63  66    30  41  43    20  30  29    15  22  20    12  15  12    10  12  10  
  46  57  51    40  49  44    30  36  32    30  35  30    38  47  42    40  50  45    33  39  35    34  41  34    44  49  44    37  42  36    24  27  20    16  19  12    20  22  10    22  24  11    19  21  10    19  21  10    19  21  10    24  25  17    29  30  22    25  26  18    24  23  18    36  36  31    41  44  35    35  40  33    43  50  42    27  36  31    41  50  47    40  50  48    43  62  59    90 104 105    85  99 102    99 115 114    72  83  79    35  35  33    25  29  32    47  65  69    69  98 104    37  55  62    57  74  78    47  68  66    35  55  54    33  43  45    26  33  39    40  55  60    66  81  84    36  47  49    24  34  33    14  19  15     7   9   6    13  15  12  
  50  55  49    34  39  33    30  35  29    26  31  25    40  47  40    36  43  36    28  34  28    34  41  34    46  51  45    32  37  31    17  22  15    24  27  20    24  24  17    12  13   7    10  11   5    17  18  12    16  17  11    19  22  15    26  29  22    20  22  17    27  28  20    41  42  34    44  47  40    47  49  44    25  30  26    29  34  31    47  53  51    57  63  61    58  66  68    71  84  82    72  89  83   104 119 112    51  60  57    43  47  48    27  35  37    44  56  58    67  95 103    42  62  71    51  68  75    40  63  67    26  45  49    34  45  49    22  32  34    52  71  69    63  74  78    19  29  31    14  22  24    11  15  14     7   9   6    15  17  14  
  32  37  31    20  25  19    26  31  25    29  34  28    28  35  28    25  32  25    25  32  25    32  38  32    36  41  35    27  32  25    19  22  15    18  21  14    21  22  14    12  13   7    12  13   7    16  17  11    18  19  13    26  29  22    30  33  26    21  22  17    30  31  23    35  36  27    46  49  42    39  42  36    16  21  17    25  31  27    47  54  52    53  62  59    58  66  68    77  91  89    69  86  80    99 114 110    62  71  68    56  61  62    32  41  43    39  53  54    59  82  87    41  57  64    55  69  76    44  65  67    31  50  53    28  39  43    21  31  33    59  77  77    50  64  67    23  34  36    12  20  22     7  12  11     9  10  10    17  18  16  
  27  33  28    21  27  21    30  36  29    26  32  25    25  32  25    22  29  22    24  31  24    29  34  28    30  35  28    25  29  22    21  24  17    19  22  15    22  23  15    14  15   9    15  16  10    18  19  13    23  24  18    32  35  28    32  35  28    22  24  19    28  29  21    42  43  35    49  52  45    34  39  33    31  37  33    34  41  37    54  63  60    65  75  71    55  65  66    75  89  89    70  87  85    91 106 104    64  74  74    68  74  77    35  46  48    39  54  54    43  62  64    30  42  46    43  55  59    38  59  59    34  54  54    36  47  50    26  37  39    53  71  71    40  53  58    34  45  48    19  28  29    13  19  18    12  15  14     9  12  11  
  27  33  29    27  33  28    38  44  40    34  41  34    27  34  27    19  26  19    21  27  21    37  42  35    42  47  40    27  30  23    18  21  14    26  29  22    24  25  17    11  12   6    14  15   9    20  20  15    25  25  20    29  32  25    24  27  20    20  21  16    30  31  23    55  56  47    46  48  41    45  50  44    70  76  72    59  69  64    68  78  74    71  82  78    55  65  66    67  81  81    87 106 105    92 108 108    54  65  66    68  78  80    37  50  51    53  70  70    49  65  65    28  38  40    38  51  52    54  76  74    39  60  58    28  41  43    19  29  31    50  67  67    40  54  59    33  46  50    18  28  29    21  27  27    27  31  30    15  19  18  
  35  41  37    28  34  30    37  43  39    39  45  41    23  30  23    20  25  19    18  23  16    27  32  25    37  40  33    28  31  24    19  23  16    26  29  22    29  29  22    14  14   9    17  18  12    23  24  18    28  29  23    28  31  24    20  23  16    21  23  18    34  34  27    56  59  50    43  46  39    59  66  59    78  87  82    63  74  68    82  93  89    84  96  92    69  79  81    57  73  73    95 114 115    91 109 111    49  60  66    72  83  87    38  53  55    60  80  79    58  77  81    53  66  71    57  72  76    52  78  76    32  57  56    33  47  50    26  36  38    35  51  51    48  63  68    30  44  47    21  31  32    27  35  34    38  44  42    24  28  27  
  36  42  38    38  44  40    50  56  52    52  58  54    27  32  25    25  30  23    19  24  17    13  18  11    15  18  11    21  24  17    26  29  20    26  28  20    28  29  21    16  17  11    21  22  16    24  24  19    29  29  24    32  35  28    22  25  18    24  26  21    41  42  34    49  52  42    31  36  29    49  56  49    43  52  47    35  46  40    70  83  79    89 104  99    75  85  86    44  60  60    80 100 101    85 103 107    53  66  72    79  90  96    41  56  59    64  86  84    87 110 116    67  84  93    55  75  81    40  71  71    49  78  78    36  51  54    32  42  44    41  55  56    56  72  76    27  41  44    27  37  39    26  35  34    33  39  37    22  28  26  
  34  41  38    51  58  54    58  65  62    52  59  56    41  46  40    32  37  31    24  29  22    22  27  20    16  19  12    16  19  12    26  28  20    32  34  26    23  25  17    13  15   9    21  23  16    21  23  17    25  27  20    31  34  27    23  25  19    23  26  20    39  40  32    44  48  40    37  42  35    60  66  60    57  66  62    49  62  56    68  82  78    86 100  96    84  95  96    47  63  63    80  99 101    86 104 109    54  69  75    73  87  92    36  54  56    66  86  86    89 109 118    63  81  89    49  72  77    30  58  60    53  81  81    32  49  51    29  41  43    42  55  56    61  78  82    24  38  40    23  35  36    20  29  29    31  38  36    27  33  32  
  38  47  43    51  61  58    50  60  56    46  57  54    53  58  52    46  51  45    30  35  29    28  33  26    21  25  18    22  25  17    26  29  20    31  34  25    23  25  19    12  14   7    20  22  16    24  26  20    25  27  21    27  29  22    21  23  17    26  28  22    38  41  32    42  47  40    46  51  45    65  71  67    53  62  59    54  64  63    72  84  84    85  97  97    88 101 101    46  61  61    79  97  96    80  99  99    58  77  79    83 101 103    45  61  64    75  89  95    69  83  89    39  57  61    39  60  63    41  66  66    53  77  77    31  53  52    30  47  47    36  50  51    52  67  70    31  45  46    30  43  44    30  41  42    38  47  46    30  38  37  
  34  41  37    40  47  43    43  50  46    48  55  51    54  59  53    42  47  41    39  44  38    35  40  33    23  26  19    29  32  23    25  28  19    27  29  21    23  24  18    16  17  11    17  18  12    24  25  19    29  30  24    25  26  20    23  24  18    34  35  29    38  42  35    47  52  45    60  65  59    71  77  73    49  58  55    48  58  57    67  77  77    87  98  98    81  92  92    67  79  81    90 105 106    70  87  87    56  72  75    80  95  98    51  66  69    79  92  98    69  85  93    35  53  59    29  52  55    52  78  79    57  81  81    28  49  50    39  57  57    37  51  52    30  46  47    30  44  45    30  44  45    35  46  47    36  46  46    24  33  32  
  32  37  31    32  38  32    35  41  35    43  50  43    45  52  45    43  48  42    46  51  44    40  44  37    20  23  16    26  28  19    25  26  18    30  32  24    20  21  15    18  19  13    19  20  14    28  29  23    31  32  26    29  29  24    34  35  29    39  41  34    40  45  39    55  60  53    76  81  75    66  72  68    42  51  48    49  58  57    73  83  82    87  97  98    85  94  96    83  93  95    96 107 109    60  74  77    48  63  66    74  89  92    58  72  75    75  89  93    61  81  88    44  67  73    41  66  70    37  62  66    51  75  77    31  52  53    44  62  64    35  51  51    34  48  49    29  43  44    16  30  31    30  44  45    30  41  43    17  25  26  
