P3
50 50
255
  60  64  50    53  56  46    38  41  33    33  35  29    32  34  29    32  35  28    37  40  33    36  39  30    35  38  30    35  38  31    35  38  31    34  35  29    32  33  27    32  33  27    34  37  32    34  36  30    31  35  27    31  36  29    28  33  26    27  32  25    24  34  21    24  28  22    25  27  22    44  46  38    86  94  74   103 119  85   104 123  85    94 107  81    37  45  32    29  32  26    30  31  24    31  32  25    32  33  28    29  32  24    31  34  25    29  32  23    26  29  20    29  32  23    31  34  25    29  32  23    31  34  27    33  36  29    32  35  28    38  41  34    37  40  33    37  39  32    34  37  28    46  50  36    55  59  47    51  54  43  
  49  54  40    44  47  37    36  39  31    36  38  32    37  39  34    34  37  30    36  39  32    36  39  30    32  36  28    33  36  29    37  40  33    38  39  33    35  36  30    31  33  28    34  37  32    33  35  29    30  33  26    30  35  28    28  33  26    29  34  27    27  35  24    30  33  27    30  31  26    39  41  32    78  87  65    99 116  81    95 114  75    83  96  71    40  48  35    31  33  27    32  34  27    30  31  23    31  32  26    30  33  26    30  33  26    28  31  24    27  30  23    29  32  25    30  34  27    30  33  26    32  35  28    33  36  29    31  34  27    33  36  29    32  35  28    31  34  27    32  36  26    47  50  38    60  63  52    57  60  51  
  42  45  34    39  42  32    38  41  35    39  40  35    39  41  36    36  39  32    35  38  31    37  40  33    35  37  31    35  38  31    37  40  33    38  40  34    39  40  35    34  35  30    34  36  31    33  35  30    31  34  28    32  37  30    33  38  31    34  39  32    31  36  29    35  37  30    33  34  29    37  40  28    75  84  60    96 113  76    87 108  68    85  98  74    47  54  43    30  33  27    36  37  30    32  33  25    32  33  27    32  35  28    30  33  26    29  32  25    29  32  25    30  33  26    30  33  26    31  34  27    35  38  31    35  38  31    34  37  30    33  35  29    33  36  29    29  32  25    32  36  27    40  43  32    53  56  45    52  55  46  
  38  41  30    40  43  34    42  45  39    38  40  35    37  39  34    40  43  36    39  43  36    38  42  35    41  44  37    40  43  36    37  40  33    36  38  33    40  42  37    39  43  37    39  44  38    36  41  34    33  38  32    33  38  32    33  38  31    33  38  31    35  38  31    35  36  31    36  36  30    44  47  34    85  98  73   104 125  87    95 118  78   102 113  90    52  58  48    30  32  27    39  40  34    39  40  32    37  38  32    36  38  32    31  34  27    30  33  26    32  35  28    32  35  28    31  34  27    33  36  29    35  38  31    36  39  32    37  40  33    35  38  31    36  39  32    30  33  26    34  37  29    34  37  27    39  42  33    39  42  33  
  35  41  31    36  41  35    38  43  38    34  39  35    36  41  35    42  47  40    43  48  41    39  44  37    42  47  40    44  47  40    40  42  37    38  41  36    42  44  39    39  43  38    38  43  37    37  42  36    35  40  34    35  40  34    37  42  35    36  41  34    35  37  32    34  35  30    38  37  31    50  52  40    96 106  83   119 137 102   109 128  93   101 112  90    50  56  46    32  35  31    39  40  34    41  42  34    38  40  33    37  40  33    34  37  30    33  36  29    35  38  31    35  38  31    33  36  29    35  38  31    33  36  29    35  38  31    37  40  33    34  37  30    34  37  30    28  31  24    32  35  28    33  36  27    33  36  27    29  32  23  
  41  46  39    38  43  37    35  40  35    35  40  35    38  43  37    41  46  39    42  47  40    41  46  39    40  45  38    40  45  39    43  45  40    43  45  40    42  44  39    37  41  37    34  41  34    36  41  35    35  40  34    35  40  34    37  42  36    35  40  34    34  39  33    35  37  32    37  37  32    44  46  35    81  88  70   106 120  93    99 115  85    79  89  69    44  50  41    37  39  36    37  38  32    38  40  31    35  39  31    37  41  34    37  40  33    36  39  32    37  40  33    37  40  33    35  38  31    35  38  31    34  37  30    36  38  31    36  39  32    34  37  30    32  35  28    28  31  24    31  34  27    34  37  30    35  38  31    29  32  25  
  43  48  41    42  47  42    39  44  40    40  45  41    40  45  41    37  42  36    40  45  38    43  48  41    39  44  37    37  42  36    40  42  37    41  43  38    41  43  38    40  44  40    38  44  40    39  46  39    37  42  36    34  39  33    34  39  33    29  34  28    34  41  34    36  40  34    38  38  33    37  38  31    57  61  48    74  84  64    73  86  63    62  71  51    45  49  41    41  43  40    36  37  31    35  39  30    35  39  31    36  41  34    37  42  35    36  41  34    35  40  33    36  41  34    35  40  32    32  37  30    36  39  32    38  41  34    35  38  31    35  38  30    32  35  28    33  36  29    32  35  28    33  36  29    36  39  32    31  35  28  
  38  43  37    45  50  45    45  49  47    46  51  48    43  48  44    37  42  36    43  48  41    45  50  43    42  47  41    37  42  36    33  38  32    36  38  33    40  42  37    36  41  36    33  39  35    37  43  39    38  45  38    38  43  37    40  45  39    38  40  35    30  40  32    36  41  35    39  40  35    38  37  32    47  48  38    54  60  46    57  67  48    59  67  48    50  53  45    41  42  39    36  37  31    38  40  32    38  42  34    36  41  35    37  42  36    37  42  36    34  39  33    35  40  34    35  40  34    31  36  30    34  37  30    35  38  32    31  34  27    33  36  29    31  34  27    37  40  33    35  39  32    33  36  29    37  39  33    35  38  31  
  36  47  43    37  48  44    38  47  44    39  48  45    45  52  49    44  49  47    40  46  44    41  47  43    41  47  43    41  47  43    40  46  42    37  43  39    34  40  36    33  41  36    33  42  37    37  46  41    39  49  41    33  41  34    38  45  38    39  46  39    31  39  27    37  45  36    40  45  41    40  45  40    59  62  52    76  81  59    73  77  53    75  80  61    54  56  48    39  44  39    39  45  37    37  44  34    41  48  40    38  44  37    42  47  40    38  43  36    36  41  34    39  44  37    36  41  34    39  44  37    35  40  33    38  43  36    36  41  34    36  41  34    34  39  32    29  34  27    31  36  29    33  38  31    34  39  32    32  37  30  
  41  52  48    40  50  46    44  53  50    45  53  51    38  48  45    41  47  45    46  52  49    43  49  45    38  45  41    43  49  45    43  49  45    37  43  39    37  43  39    39  47  42    40  49  44    35  44  39    38  47  42    40  48  42    40  47  40    41  48  41    42  49  39    40  47  40    42  47  44    44  49  44    63  67  54    84  90  67    86  91  65    85  89  70    62  66  57    44  49  45    41  47  40    38  46  36    41  48  41    42  48  41    44  49  42    42  47  40    40  45  39    40  45  38    38  43  36    39  44  37    36  41  34    36  41  35    39  44  37    38  43  36    38  43  36    38  43  36    35  40  34    36  41  35    35  40  34    32  37  31  
  36  47  43    40  51  47    42  52  49    41  50  47    41  50  47    42  51  48    42  51  48    42  51  48    41  50  46    38  47  44    40  49  46    41  50  47    38  47  44    39  48  45    42  51  48    37  46  41    41  50  45    42  51  46    44  51  47    47  53  49    49  57  50    47  53  49    45  51  49    45  50  46    63  69  56    86  93  70    90  96  70    83  90  72    64  69  61    46  50  48    42  49  42    42  49  41    46  52  46    43  48  43    40  45  39    41  46  40    40  45  39    38  43  37    39  44  38    36  41  35    42  47  40    39  44  38    43  48  42    40  45  39    40  45  39    41  46  40    36  41  35    37  42  36    38  43  37    35  40  34  
  43  53  52    45  55  54    43  53  52    42  52  51    46  56  54    43  53  52    40  49  47    45  54  51    47  56  53    41  50  48    42  51  48    47  56  53    44  53  50    42  52  49    43  52  49    47  56  53    47  56  53    39  48  45    45  54  51    50  56  52    41  50  47    46  52  52    46  52  51    46  53  47    67  74  60    93 101  78    95 105  79    87  96  76    69  76  68    48  54  51    42  48  43    41  48  41    42  48  43    42  47  42    43  48  42    44  49  43    45  50  44    44  49  43    43  48  42    43  48  42    39  44  39    37  42  36    40  45  39    38  43  37    35  40  34    35  40  34    33  38  32    35  40  34    39  44  38    39  44  38  
  46  56  55    42  52  51    45  55  54    48  58  57    46  56  55    45  55  54    47  57  56    48  58  57    49  59  58    52  62  61    49  59  59    47  57  56    48  58  57    46  56  56    47  57  56    52  62  61    51  60  59    40  49  48    43  52  50    45  54  51    48  57  56    51  56  56    51  57  57    47  53  48    59  67  55    83  92  72    90 100  77    85  96  78    69  79  71    49  58  56    43  52  47    42  52  45    41  49  44    38  44  41    41  47  43    39  45  41    40  46  42    42  48  44    37  43  39    40  46  42    39  44  38    40  45  39    40  45  39    41  46  40    39  44  38    36  41  35    37  42  37    35  40  36    38  43  39    38  44  40  
  47  57  58    48  58  60    51  61  62    50  61  61    48  60  60    49  61  61    50  62  62    48  58  59    50  60  61    52  62  63    50  60  61    48  58  59    47  57  58    46  56  57    49  59  59    47  57  58    50  59  60    48  57  56    45  55  54    47  56  55    46  55  54    41  50  49    44  53  51    43  52  48    52  62  51    74  85  69    84  96  77    78  91  74    62  74  67    47  56  55    45  54  51    45  55  48    44  53  49    44  51  47    49  54  50    45  51  47    47  53  49    48  54  50    41  47  43    46  52  48    45  51  47    46  52  48    44  50  46    46  52  48    42  48  44    38  44  40    42  48  44    40  45  41    39  45  41    38  44  40  
  55  65  66    61  71  72    57  68  69    51  63  63    51  63  63    50  63  63    46  59  59    48  60  60    49  61  61    46  58  58    46  58  58    47  59  59    44  56  56    45  56  57    47  57  59    42  52  53    49  58  60    53  61  63    51  59  61    49  57  59    49  57  55    45  54  53    44  53  51    44  53  48    55  65  57    69  79  68    72  85  69    79  92  76    60  72  65    44  54  54    44  55  51    45  54  50    42  51  49    44  53  51    46  55  52    45  54  51    48  57  54    48  57  54    43  52  49    46  55  52    50  56  52    48  54  50    48  54  50    47  53  49    43  49  45    40  46  42    44  50  46    47  52  48    44  50  46    41  47  43  
  47  57  59    44  54  56    46  56  58    49  60  62    49  60  62    47  61  62    51  64  65    53  65  65    46  58  58    49  61  61    52  64  64    47  59  59    46  58  58    52  63  64    48  58  60    45  55  56    50  60  61    50  59  60    53  61  63    46  54  56    43  53  50    49  58  55    47  56  53    48  57  53    70  80  72    78  88  80    68  79  67    78  92  75    58  69  65    44  54  55    48  59  55    51  60  56    51  60  58    50  59  57    46  55  52    49  58  55    54  63  60    52  61  58    52  60  58    52  61  58    54  60  56    50  56  52    55  61  57    54  60  56    51  57  53    53  59  55    52  57  54    50  54  53    47  53  51    47  53  51  
  38  48  47    39  49  48    42  52  51    42  52  51    45  55  54    42  52  50    48  58  58    47  59  59    45  57  57    45  57  55    44  56  54    45  55  54    49  59  58    50  60  60    43  53  54    40  50  51    42  52  51    46  56  55    49  59  58    45  55  53    39  49  48    51  61  61    44  54  55    41  52  49    72  84  74    88 101  82    78  92  71    83  94  82    59  69  61    43  52  48    52  58  56    49  55  53    48  55  49    47  53  49    49  55  53    47  53  51    49  55  53    49  55  52    51  57  53    52  58  54    57  64  59    52  58  53    50  56  52    53  59  55    49  55  51    57  63  59    51  57  53    56  62  60    51  59  56    51  60  57  
  30  40  39    33  43  42    34  44  43    37  47  46    34  44  43    39  49  48    42  52  52    42  54  54    43  55  55    45  57  55    44  54  54    42  52  50    41  51  50    40  50  50    41  51  52    44  54  55    43  53  54    41  51  51    42  52  51    44  54  53    47  57  54    42  52  52    37  47  48    43  53  53    69  80  73    87  99  84    82  94  78    74  86  75    54  66  58    42  52  48    48  57  56    45  53  50    47  53  50    46  54  52    50  59  58    46  55  52    47  56  53    48  57  54    48  57  54    51  60  57    47  56  53    46  55  52    47  56  53    50  59  56    48  57  54    49  58  55    51  60  57    54  62  61    49  58  57    49  58  57  
  36  48  46    38  50  48    38  50  48    40  53  50    35  48  45    41  53  51    43  54  53    38  48  49    41  51  52    43  53  52    45  55  54    44  54  53    41  51  50    40  50  51    43  53  54    43  53  54    42  52  53    43  53  54    41  51  52    43  53  54    43  52  49    43  52  51    44  52  54    46  54  56    56  65  62    70  80  71    70  81  71    60  71  64    47  58  53    43  53  52    48  58  57    45  55  53    49  58  56    50  60  58    57  67  66    50  60  59    49  59  58    50  60  59    46  56  55    49  59  59    55  65  64    55  65  65    53  63  62    50  60  60    47  57  56    42  52  50    48  58  57    50  59  58    51  60  58    53  62  62  
  39  51  47    38  49  45    41  52  48    42  53  49    41  52  48    40  51  47    47  57  54    40  49  48    39  48  47    39  48  47    41  50  49    44  54  53    43  53  52    46  55  56    48  56  58    43  51  53    42  50  52    46  54  56    45  52  55    47  54  57    48  57  54    49  58  57    48  56  59    50  58  60    57  66  65    57  66  63    53  62  58    53  65  61    48  58  57    49  59  59    55  65  64    51  61  60    55  65  64    57  68  68    61  73  73    57  69  69    56  68  68    55  67  67    54  65  65    56  68  68    57  69  69    57  69  69    53  65  65    52  64  64    53  65  65    53  65  65    57  68  68    57  67  66    54  64  63    51  61  60  
  34  44  39    33  42  37    37  46  41    38  47  42    40  49  44    39  48  43    48  56  51    45  51  47    40  46  42    35  44  41    35  44  41    38  47  44    39  49  45    41  51  48    47  55  54    44  53  52    41  50  49    42  51  50    41  49  50    46  54  56    43  52  49    45  54  53    41  50  50    41  49  51    49  57  59    50  59  59    47  56  55    47  57  56    44  55  52    47  58  54    50  60  59    45  55  54    46  56  55    50  61  60    50  62  60    51  63  61    53  65  65    51  63  63    56  68  68    54  65  67    58  70  70    54  66  66    51  63  63    52  64  64    51  63  63    59  71  71    54  66  66    59  71  71    58  70  70    54  66  66  
  34  41  33    37  44  36    36  43  35    38  45  37    33  40  32    38  45  37    41  48  40    44  49  42    38  45  37    36  43  36    36  43  36    35  43  38    38  47  42    37  46  41    38  47  42    38  47  42    38  47  43    38  47  44    35  44  42    33  42  41    30  39  36    33  42  40    32  41  40    31  40  39    31  40  39    35  45  44    40  49  48    36  45  43    36  45  42    39  49  44    42  52  47    38  49  45    37  48  45    41  51  48    39  50  46    42  52  51    44  54  53    41  51  51    47  57  58    43  53  55    45  55  56    44  54  55    46  56  57    50  60  62    51  61  62    61  71  72    48  60  60    50  64  64    54  68  68    55  69  69  
  37  40  29    41  44  33    38  41  30    37  40  29    33  36  25    37  40  29    38  41  30    41  45  34    35  41  29    34  42  31    34  42  31    32  42  33    39  49  40    39  47  39    35  42  34    35  42  34    37  44  37    36  42  37    32  38  34    25  31  28    29  39  37    25  34  32    24  33  30    29  38  35    28  37  34    25  34  31    29  37  35    33  38  37    33  39  36    37  44  37    43  50  43    41  51  44    39  48  44    38  47  42    37  46  41    37  46  43    40  49  46    37  46  45    40  49  48    38  46  48    42  50  52    43  51  53    42  50  52    43  51  53    42  50  52    45  53  55    40  50  51    44  60  59    41  56  56    39  53  53  
  38  40  27    42  44  31    42  44  31    40  42  29    44  46  33    41  43  30    44  46  33    40  44  30    31  36  22    30  36  24    27  35  22    26  35  24    34  44  33    37  45  34    36  44  33    41  49  38    36  43  35    27  34  27    28  35  28    28  34  30    21  30  29    22  31  29    19  28  24    19  28  23    18  27  22    20  28  23    26  34  31    30  34  34    30  34  30    32  37  30    37  44  36    38  45  39    34  40  37    28  34  29    29  37  29    29  35  31    32  38  35    34  40  38    37  43  42    38  44  44    32  38  38    36  42  42    34  40  40    34  40  40    39  44  44    38  43  43    41  50  50    36  52  52    30  46  46    29  43  44  
  51  54  27    53  56  27    58  60  30    56  56  27    52  52  26    48  47  27    45  44  24    43  45  25    34  35  21    31  31  21    31  32  23    30  32  18    37  41  23    40  42  27    38  40  27    36  38  27    35  36  26    33  34  26    28  29  23    23  24  18    23  24  26    23  25  24    23  25  23    22  24  21    23  25  20    26  28  23    27  30  25    28  33  27    29  31  25    34  36  24    45  48  31    35  39  27    30  37  35    27  34  31    27  33  29    27  33  29    27  33  29    29  35  31    31  37  33    33  39  35    28  34  30    31  37  33    35  41  37    35  41  37    32  38  34    33  39  35    35  42  40    34  42  44    31  40  41    31  39  41  
  56  56  30    62  63  34    59  60  29    60  61  30    57  56  28    49  47  24    49  48  27    45  47  27    38  39  24    30  30  20    29  30  22    30  31  20    33  36  21    35  37  23    35  37  26    35  37  26    35  37  26    33  34  26    28  29  22    23  24  18    22  24  23    21  23  22    21  23  21    20  22  19    21  23  18    24  26  21    26  29  23    26  30  24    27  29  24    34  34  27    42  44  30    36  40  28    31  36  33    23  29  26    25  30  26    27  32  28    26  31  27    25  30  26    26  31  27    29  34  30    24  29  25    25  30  26    27  32  28    27  32  28    25  30  26    25  30  26    27  33  30    26  35  34    25  34  33    25  34  33  
  53  53  25    61  60  31    57  56  26    57  56  26    58  57  29    52  50  25    49  48  23    43  45  22    38  39  23    27  27  17    24  25  17    27  28  19    27  29  18    27  29  18    28  30  19    30  31  23    30  32  24    29  30  23    23  24  18    19  20  14    18  20  19    18  20  18    17  19  16    16  18  15    18  20  15    20  22  17    24  26  19    24  25  17    25  25  22    34  33  29    42  43  32    37  40  28    30  33  26    18  22  18    19  24  20    23  28  24    22  27  23    19  24  20    19  24  20    22  27  23    22  27  23    20  25  21    21  26  22    20  25  21    19  24  20    19  24  20    20  25  22    19  25  23    20  25  24    21  27  25  
  45  43  18    48  46  20    48  47  19    45  44  16    51  47  20    52  48  23    42  40  15    37  39  16    35  36  18    22  22  12    19  20  13    23  24  18    20  22  15    17  18  11    19  20  12    21  22  14    22  23  17    20  21  15    16  17  11    14  15   9    13  15  12    13  15  12    12  14  11    11  13   9    13  15  10    15  17  12    19  20  14    20  19  12    24  23  20    32  31  27    41  42  31    35  37  24    28  29  19    15  19  14    14  19  16    17  22  18    16  21  17    15  20  16    15  20  15    17  22  18    19  24  20    17  22  18    17  22  18    18  23  19    17  22  18    17  22  18    16  21  17    14  20  16    15  21  17    16  22  18  
  35  34  13    37  36  15    36  34  13    34  32  11    39  37  14    40  38  15    34  33   9    35  37  15    34  36  18    21  21  11    17  18  10    20  21  17    15  16  14    11  12   7    12  13   7    13  14   8    13  14   8    12  13   7    10  11   6    10  11   6     9  11   8     9  11   8     9  11   7     8  10   5     9  11   6    11  13   8    13  14   8    16  16   8    21  22  17    29  30  24    40  42  28    34  37  20    30  32  19    17  19  14    12  14  11    12  14  11    13  15  12    15  17  14    15  18  15    16  18  15    16  18  15    14  16  13    15  17  14    17  19  16    17  19  16    15  17  14    14  17  13    14  19  13    14  19  13    15  20  14  
  22  23   9    26  27  13    22  22   8    27  25  11    34  33  16    33  32  12    34  34  14    36  37  19    34  35  20    23  23  13    18  19  11    18  18  14    12  13  11    10  12   7    10  11   6     9  10   5     9  10   5     9  10   5     9  10   5     9  10   5     8   9   4     8   9   4     8   9   4     8   9   4     8   9   4     9  10   5    11  11   5    15  15   8    22  24  16    36  40  26    47  55  31    44  50  25    41  45  28    19  21  15    10  12   9     8  10   7    10  11   8    13  15  12    14  16  13    14  16  13    12  14  11    11  13  10    13  15  12    15  17  14    14  16  13    13  15  12    13  15  12    16  18  15    14  16  13    13  15  12  
  13  14   6    16  17   9    13  14   8    20  20  13    27  27  17    26  27  13    30  31  16    31  32  18    28  29  16    20  20  10    16  17   9    13  13   9     9  10   7    10  11   9    10  10   8     8   8   6     8   9   4     9  10   5     9  10   5     7   8   3     7   8   3     8   9   4     9  10   5     9  10   5     8   9   4     8   9   4     9  10   5    13  15   7    25  31  17    57  66  41    69  80  46    65  74  43    56  62  45    20  23  17     9  11   8     8  10   7     8  10   7    10  12   9    12  14  10    12  14  11    12  14  11    10  12   9    11  13  10    13  15  12    11  13  10    11  13  10    12  14  11    13  13  11    12  12  10    12  12  10  
  14  17  12    10  13  10    11  12  10    13  13   9    17  17  12    19  21   9    19  20   7    24  24  12    20  20   8    16  16   6    12  14   6     8   9   3     6   7   3    10  10   8    10  10   8     8   8   6     8   9   6    10  11   6     8  10   5     6   7   2     8   9   4    10  11   6    11  12   7    10  11   6     9  10   5     9  10   5     9  10   5    13  15   8    32  39  23    78  91  58    90 105  64    85  95  61    69  75  57    21  22  17    10  10   8    11  11   9    10  10   8     9   9   7    10  10   8    12  12  10    11  11   9    10  10   8     9   9   7     9   9   7     8   8   6     9   9   7    10  10   9     8   8   8     9   9   9    10  10  10  
  10  11   6    13  14   9    12  13   8    12  13   8    14  16  11    14  15  10    12  13   7    16  17   9    13  15   8    11  12   6     9  10   4     9  10   5     9  10   5    10  10   5    10  11   6    10  11   6     9  10   5     9  10   5    10  11   6    12  13   8    13  14   9     9  10   5     8   9   4     9  10   5    11  12   7     9  10   5     8   9   4    18  18  14    51  57  40   103 119  79    96 122  77   101 120  83    81  85  71    24  24  22    10  10   8     9   9   7    10  11   8    12  13   8    12  13   8    10  11   6    11  12   7    10  11   6    10  11   6    10  11   6    11  12   7    12  13   8    11  12   7     8   9   4    10  10   5    10  11   6  
   9  10   5    11  12   7    11  12   7    11  12   7    15  17  12    16  17  12    14  15  10    16  17  11    13  15   8    12  13   7    10  11   5    10  11   6    11  12   7    10  11   6     9  10   5     9  10   5     9  10   5    11  12   7    11  12   7    12  13   8    12  13   8    10  10   5     9  10   5    10  10   5    10  11   6    10  11   6     9  10   5    22  23  19    64  69  53   118 135  95   109 134  92   110 129  93    81  87  72    22  22  20    11  11   9    10  10   8    10  10   7    10  11   6    10  12   7    12  13   8    12  13   8    12  13   8    11  12   7    10  11   6    10  11   6    10  11   6    10  10   5    10  11   6    11  12   7    10  11   6  
   9  10   5    11  12   7    10  11   6    10  11   6    14  15  10    15  16  11    14  15  10    16  17  11    14  15   9    12  13   7    12  13   8    11  12   7    12  13   8    10  11   6     8   9   4     8   9   4    10  11   6    12  13   8    12  13   8    11  12   7    11  12   7    10  12   7    10  11   6    10  11   6    10  11   6    10  11   6    11  11   7    18  18  17    54  58  44   110 125  88   105 130  88   103 125  89    76  86  71    21  23  20    11  11   9    11  11   9    10  10   7     9  10   5    10  11   6    13  14   9    12  13   8    12  13   8    11  12   7    10  11   6     9  10   5     9  10   5     8  10   5    11  12   7    12  13   8    11  12   7  
  12  13   8    12  13   8    10  11   6    10  10   5    13  14   9    13  14   9    12  13   8    15  16  10    13  14   9    12  13   8    12  13   8    12  13   8    12  13   8    11  11   6     9  10   5     8   9   4    11  11   6    13  14   9    11  12   7     9  10   5    11  12   7    11  12   7    12  13   8    10  11   6     9  10   5    10  11   6    13  13   9    19  19  18    51  55  41   108 123  86   105 128  87    90 112  75    72  82  66    23  25  22    11  11   9    11  11   9    10  10   7     9  10   5    10  11   6    13  14   9    10  11   6    10  11   6    11  12   7    10  11   6    10  11   6    10  11   6     9  10   5    10  11   6    10  12   7    10  11   6  
  12  13   8    12  13   8    11  12   7    10  12   7    12  13   8    12  13   8    11  12   7    13  14   9    12  13   8    12  13   8    11  12   7    11  12   7    11  12   7    12  13   8    10  11   6     9  10   5    11  11   6    13  14   9    11  12   7     8   9   4    10  11   6    12  13   8    12  13   8    10  11   6     9  10   5    11  12   7    12  13   9    17  18  17    45  47  34   103 114  76   116 137  94    96 116  78    68  76  58    24  24  21    11  11   9     9   9   7     9  10   7    11  12   7    12  13   8    11  12   7    11  12   7    11  12   7    11  12   7    10  11   6    10  11   6    10  11   6    10  10   5    10  11   6    10  11   6    10  11   6  
  10  11   6    10  11   6    11  12   7    12  13   8    13  14   9    13  14   9    12  12   8    11  11   9    11  12   7    11  12   7    11  12   7    11  12   7    11  12   7    12  13   8    11  12   7    11  12   7    11  12   7    12  13   8    11  11   6     8   9   4    10  11   6    11  12   7    12  13   8    10  11   6     9  10   5    11  12   7    12  13   8    16  17  13    37  39  24    82  92  52   103 119  76    93 107  69    63  67  48    22  22  18    11  11   9     9   9   7    11  11   8    13  14   9    12  13   8    11  12   7    13  14   9    12  13   8    11  12   7    10  11   6    10  11   6    10  11   6    10  11   6    11  12   7    11  12   7    10  11   6  
  11  12   7    10  11   6    11  12   7    13  14   9    13  14   9    12  13   8    12  12   8    11  11   9    11  11   9    11  12   7    11  12   7    10  12   6    10  11   5    11  12   7    12  13   8    11  12   7    11  12   7    11  12   7    11  12   7    10  11   6    10  11   6    10  12   7    10  11   6    10  11   6    10  11   6    11  12   7    11  13   7    20  23  17    51  53  36    90  96  56    91 102  59    84  93  53    64  63  42    23  21  17    11  11   9    11  11   9    12  12   9    12  13   8    12  13   8    12  13   8    13  14   9    12  13   8    11  12   7    10  11   6    11  12   7    11  12   7    12  13   8    11  12   7    10  11   6    10  11   6  
  12  13   8    12  13   8    13  14   9    13  14   9    12  13   8    11  12   7    10  11   7    11  11   9    12  12  10    12  13   8    12  13   8    11  12   7    11  12   6    10  12   6    11  12   7    11  12   7    11  12   7    11  12   7    11  12   7    12  13   8    11  12   7    10  11   6    10  11   6    10  10   5    10  11   6    10  11   6    10  13   6    13  17   9    51  51  32   107 113  71   114 123  78   103 108  67    69  64  42    21  18  14    12  12  10    14  14  12    13  14  11    12  13   8    12  13   8    13  14   9    11  12   7    10  12   7    10  11   6    10  11   6    12  13   8    14  15  10    13  14   9     9  10   5     9  10   5     9  10   5  
  12  13   8    12  13   8    13  14   9    14  15  10    14  15  10    13  14   9    11  12   7    10  11   6    10  11   6    11  12   7    11  12   7    10  12   7    10  11   6    12  13   8    13  14   9    13  14   9    12  13   8    12  13   8    12  13   8    12  13   8    10  11   6    10  11   6    11  12   7    12  13   8    11  12   7     9  10   5     8   9   4    18  18  10    38  44  20    88 101  56    94 109  54    84  96  56    54  60  42    14  15   9    12  14   9    14  15  10    12  13   8    11  12   7    10  12   7    14  15  10    11  12   7    14  15  10    13  14   9    12  13   8    17  18  13    20  21  16    17  18  13    13  14   9    10  11   6    10  11   6  
  12  13   8    12  13   8    12  13   8    13  14   9    14  15  10    13  14   9    13  14   9    13  14   9    12  13   8    12  13   8    12  13   8    13  14   9    13  14   9    13  14   9    13  14   9    13  14   9    13  14   9    13  14   9    12  13   8    12  13   8    13  14   9    12  13   8    12  13   8    13  14   9    13  14   9    12  13   8    13  13   9    21  22  15    51  56  34    98 108  68    82  95  45    84  93  56    62  66  51    16  18  12    12  13   8    11  12   7    11  12   7    13  14   9    12  13   8    14  15  10    12  13   8    14  15  10    13  14   9    12  13   8    15  17  12    17  18  13    15  16  11    12  13   8    10  11   6    10  11   6  
  13  14   9    12  13   8    12  13   8    13  14   9    14  15  10    14  15  10    13  14   9    13  14   9    12  13   8    11  12   7    11  12   7    11  12   7    14  15  10    12  13   8    13  14   9    13  14   9    13  14   9    13  14   9    13  14   9    13  14   9    14  15  10    13  14   9    12  13   8    13  14   9    14  15  10    14  15  10    13  13   9    16  16  11    51  55  37   107 117  81   113 124  81    97 105  73    51  55  42    13  15  10    11  12   7     9  10   5    11  12   7    15  16  11    13  15  10    12  13   8    11  12   7    13  14   9    11  12   7     9  10   5    12  13   8    12  13   8    11  12   7    12  13   8    10  11   6    11  12   7  
  14  15  10    13  14   9    12  13   8    13  14   9    14  15  10    14  15  10    14  15  10    13  14   9    13  14   9    12  13   8    11  12   7    12  13   8    13  14   9    12  13   8    12  13   8    13  14   9    14  15  10    14  15  10    13  14   9    13  14   9    12  13   8    11  12   7    12  13   8    12  13   8    12  13   8    13  14   9    13  13   9    15  15  11    28  30  17    60  66  37    73  81  42    55  61  33    32  33  24    14  15  11    12  13   8    10  11   6    12  13   8    15  16  11    13  14   9    11  12   7    12  13   8    13  14   9    11  12   7    10  11   6    11  12   7    11  12   7    10  11   6    11  12   7    11  12   7    11  12   7  
  15  16  11    13  14   9    12  13   8    13  14   9    14  15  10    15  16  11    14  15  10    14  15  10    15  17  12    16  17  12    15  16  11    14  15  10    15  16  11    13  14   9    12  13   8    13  14   9    13  14   9    14  15  10    13  14   9    13  14   9    10  11   6    11  12   7    13  14   9    12  13   8    12  13   8    11  12   7    12  12   8    13  13   9    23  25  13    50  52  28    48  51  20    37  40  17    28  29  21    15  15  11    14  15  10    13  14   9    12  13   8    14  15  10    11  12   7    12  13   8    14  15  10    15  15  10    14  15  10    13  14   9    13  14   9    13  14   9    12  13   8    11  12   7    11  12   7    11  12   7  
  15  16  11    13  14   9    12  13   8    13  14   9    14  15  10    15  16  11    14  15  10    13  14   8    15  16  10    16  17  11    15  16  10    14  15   9    14  15   9    12  13   7    12  13   7    12  13   7    12  13   7    13  14   8    13  14   8    13  14   8    11  12   7    12  13   8    15  16  11    14  15  10    13  14   9    12  13   8    11  12   7    12  13   8    22  22  12    47  47  27    49  49  21    46  47  26    31  31  22    14  14   9    14  16  11    14  15  10    13  14   9    13  14   9    11  12   7    14  14   9    13  14   9    13  14   9    13  14   9    12  13   8    12  13   8    12  13   8    12  13   8    12  13   8    12  13   8    11  12   7  
  14  15  10    13  14   9    13  14   9    14  15  10    15  16  11    15  16  11    14  15   9    12  13   7    14  15   9    14  15   9    13  14   8    12  13   7    13  14   8    13  14   8    12  13   7    12  13   7    11  12   6    12  13   7    12  13   7    12  13   7    13  14   9    14  15  10    15  16  11    13  15  10    12  13   8    12  13   8    12  13   7    16  18  10    27  27  16    45  44  25    46  44  19    39  39  18    29  29  20    14  15  10    14  15  10    13  14   9    12  13   8    13  14   9    13  14   9    16  17  12    12  13   8    12  13   8    12  13   8    11  12   7    10  11   6    10  11   6    11  11   6    13  14   9    13  14   9    11  12   7  
  14  15  10    13  14   9    13  14   9    14  15  10    15  16  11    15  16  11    14  15  10    15  16  10    15  17  10    15  16  10    13  14   8    13  14   8    15  16  10    14  15   9    12  13   7    11  12   6    10  12   5    11  12   6    12  13   7    12  13   7    14  15  10    15  16  11    14  15  10    12  13   8    11  12   7    11  12   7    11  13   6    13  16   5    25  24  13    50  47  28    47  45  20    37  35  15    32  31  22    15  16  11    13  14   9    11  12   7    12  13   8    14  15  10    14  15  10    17  18  13    15  16  11    15  16  11    15  16  11    14  15  10    13  14   9    12  13   8    12  13   8    13  14   9    13  14   9    11  12   7  
  13  14   8    14  15   9    14  15   9    14  15   9    16  17   9    17  18  10    16  16   8    18  19  11    18  19  11    17  18  10    19  20  12    17  18  10    17  18  10    16  17  11    12  14   9    12  14   9    13  15  10    13  15  10    12  14   9    14  16  11    13  14   9    12  13   8    14  15  10    14  15  10    12  13   8    13  14   9    16  17  12    18  17  12    23  24   9    48  51  25    48  51  24    41  43  24    35  35  24    17  18  10    16  17   9    17  18  10    15  15   8    15  16   8    15  17   9    16  17   9    17  17   9    14  15   7    18  19  12    13  14   8    12  13   7    17  17  12    13  14   8    14  15  10    15  16  11    13  14   9  
  13  14   8    14  15   9    13  14   8    13  14   8    15  16   8    16  17   9    15  16   7    18  19  11    18  19  11    18  19  11    19  20  12    16  17   9    15  16   8    14  15   9    13  14   9    14  15  10    17  18  13    16  17  12    13  14   9    13  14   9    14  15  10    14  15  10    15  16  11    15  16  11    13  14   9    14  15  10    16  16  12    15  15   8    23  24   8    49  51  28    49  52  25    42  43  24    34  34  22    17  18   9    17  18  10    17  18  10    15  16   8    16  17   9    18  19  10    19  20  12    16  17   9    15  16   8    18  19  12    15  16  10    16  17  11    19  20  14    17  18  12    16  17  12    17  18  13    15  16  11  
