P3
50 50
255
 158 133  49   125 101  27   124 105  27   122 105  26   126 113  20   126 113  19   117 100  24   135 117  39   145 129  35   150 131  37   134 127  37   129 121  32   125 114  26   130 119  31   143 130  45   150 138  54   148 131  53   138 121  44   163 147  60   158 142  52   125 114  19   116 107  10   133 123  30   127 116  33   112  98  26   112  97  33   105  93  42    60  47  15    39  28  12    39  33  17    33  30  13    33  31  18    37  35  20    40  39  18    39  36  19    40  37  20    41  35  19    41  35  19    42  36  20    44  39  20    42  37  18    39  34  15    38  31  12    39  32  13    40  33  14    40  33  14    40  33  15    40  33  15    40  33  15    41  34  16  
 159 134  51   121  97  24   115  95  23   114  95  29   119 103  27   119 103  28   113  94  32   131 112  43   141 123  36   145 125  38   132 116  30   134 118  35   125 107  25   120 102  23   133 112  36   143 122  45   143 120  43   140 117  40   164 143  59   154 135  52   126 110  25   115 103  21   122 110  33   111  99  30    96  82  21    89  74  17    84  73  30    50  39  13    36  27  12    36  31  14    33  31  11    33  31  15    35  32  17    38  36  15    39  33  17    39  33  17    39  33  17    38  32  16    40  34  18    42  37  18    40  34  16    37  30  12    38  30  12    38  30  12    39  32  13    38  31  12    37  30  12    37  30  12    37  30  12    38  31  13  
 167 142  60   125 101  29   110  90  19   109  88  29   110  91  30   107  89  28    99  79  26   119 100  35   134 117  32   145 125  41   131 114  31   125 107  28   120  99  25   124 102  33   127 104  35   122  97  25   127 102  26   144 120  41   159 137  45   148 127  37   130 114  25   123 111  27   116 104  29    97  86  22    86  73  19    79  65  17    59  51  17    40  31  12    33  26  14    33  30  11    33  32   8    32  31  12    32  29  12    35  33  12    37  31  15    38  32  16    38  32  16    37  31  15    37  31  15    38  32  13    37  30  12    35  28  10    35  28   9    35  28   9    36  29  10    36  29  10    35  28  10    34  27   9    35  28  10    36  29  11  
 169 145  66   129 105  32   107  90  21   102  83  33    93  74  35    87  71  28    82  67  22    92  77  31    96  80  26   111  93  33   110  95  30   105  88  26   106  87  28   109  88  32   111  88  33   102  79  24    98  76  19   115  94  35   138 117  38   121 102  28   111  94  28   108  96  33    99  87  29    85  74  24    73  59  23    61  46  19    31  31   9    28  27  12    29  24  13    32  26  11    34  26   7    35  27   9    37  27  14    35  26  14    38  23  13    42  28  17    39  28  17    35  25  16    34  25  19    35  27  18    39  31  15    46  37  14    54  42  12    56  43  10    56  41   7    57  42   8    51  35   5    44  27   3    49  32  12    58  43  26  
 167 144  66   127 104  28   103  85  19    93  75  29    71  54  23    65  50  18    64  49  16    67  51  25    60  44  18    65  48  16    59  47  18    59  45  15    64  47  16    73  54  20    88  67  31    92  72  31    87  68  25    96  78  34   111  89  38    82  60  17    64  45  11    65  50  19    64  49  18    54  40  11    50  33  12    49  31  16    51  41  15    62  49  19    70  54  18    72  54  16    76  54  18    89  66  30   105  83  45   113  92  47   108  82  41    95  72  28    80  58  15    69  51  12    73  54  21    83  65  28    86  69  22    86  68  13   103  82  19   122 102  18   132 113  10   136 116  11   132 111   4   119  99   1   107  86   1    97  74   9  
 170 147  69   132 109  33   117 103  29   110  94  40    77  62  24    67  54  21    62  51  22    59  47  26    55  40  23    48  34  14    34  30  10    40  34  11    50  40  12    63  50  14    80  68  22    91  78  24    92  80  20   100  89  25   109  93  39    77  64  17    59  46   8    67  53  20    71  58  20    63  50   8    65  51   6    77  62  19   106  88  29   110  92  23   128 106  30   147 125  42   164 140  53   178 153  64   185 162  67   186 165  64   183 158  69   169 144  55   150 128  40   137 117  36   134 113  38   136 115  38   136 115  31   129 111  17   125 105   1   151 133   3   154 136   1   146 126   1   156 136   1   172 157   1   170 154   3   146 128   1  
 174 151  71   143 120  42   127 115  30   128 115  43    91  80  24    79  68  22    68  60  16    62  55  14    64  54  19    54  44  13    38  37   9    46  42   9    56  50   7    75  65  13    98  86  24   114 100  29   116 103  26   117 104  24   107  99  24    94  85  16    87  78  16    92  83  25    96  87  25    99  87  18   110  99  19   125 112  28   112  99  23   100  84   8   115  98  18   153 134  45   178 161  59   178 162  53   159 144  37   143 127  25   158 142  35   163 150  42   161 147  43   148 134  38   134 120  31   118 105  15   118 107   9   132 122  16   153 142  12   149 140   4   135 126   1   135 122   5   144 131   8   153 143   2   162 155   1   164 156   2  
 174 151  71   149 126  47   136 119  39   139 123  51   100  87  27    84  73  23    73  65  17    71  65  14    72  65  18    58  50  12    48  43  13    53  45  10    60  49   5    84  69  16   111  94  32   127 108  39   128 109  36   121 102  28   109 100  21   107  98  22   107  98  24   102  93  23    97  86  15   104  92  15   120 108  19   131 118  21   115 101  14   114  97   7   137 120  21   158 140  35   165 148  38   164 147  35   150 135  24   141 127  17   155 140  29   164 149  39   158 142  36   149 134  34   144 127  36   119 106  13   108  98   1   126 118   8   152 141   4   145 134   1   135 125   1   140 130   2   145 133   5   144 133   1   150 139   1   157 144   1  
 174 150  70   150 128  48   144 123  48   144 126  53   104  89  29    84  71  25    76  66  22    79  72  22    74  67  22    57  48  17    48  42   9    57  48   8    69  57   7    93  79  18   114  98  28   125 108  31   131 114  35   128 111  30   111  96  19   104  93  12   110  99  15   107  97  17    97  84   7   101  86   8   114  98  14   118 101   9   116  93  15   122  99  11   149 127  26   159 137  30   159 137  29   165 144  37   156 139  29   149 132  20   155 136  20   168 150  33   165 145  32   160 139  34   161 138  40   141 123  22   128 113   5   141 129  10   162 143   7   157 140   1   150 135   1   154 140   1   158 142   3   155 139   1   164 144   5   172 150  16  
 173 150  70   149 127  44   145 123  41   144 126  45   109  92  23    83  67  19    75  62  18    79  72  20    73  64  21    57  45  19    48  42  15    57  48  14    67  59  12    93  83  22   111 102  27   120 109  27   127 117  30   122 114  25   119  99  32   100  83   8   103  88   9   112  97  19   102  86  16   100  82  17   111  92  23   113  93  19   115  95  17   115  93  12   140 119  27   154 134  31   157 139  24   165 150  30   153 141  24   143 130  18   152 137  18   167 150  32   169 149  34   164 143  34   165 145  43   160 143  37   152 141  23   159 151  24   184 163  37   189 174  23   186 175  11   186 176  15   188 178  16   189 177  12   191 175  21   191 168  39  
 173 148  68   154 132  47   154 133  52   148 129  50   113  97  30    90  76  24    81  71  20    87  81  23    79  72  18    59  50   9    50  46   2    55  48   6    67  55  10    94  79  24   113  99  28   127 111  28   134 117  35   129 112  34   115 101  26   108  92  15   108  93  12   114  97  16   110  93  13   102  86   9   102  88  15   106  93  22   108  94  21   108  90  16   120  99  10   144 121  10   161 135  15   161 132  19   157 128  16   161 133  16   165 139  20   165 142  29   154 137  32   138 125  24   133 121  20   137 126  19   146 133  19   154 140  19   177 164  25   192 178  31   194 181  25   185 172  10   185 171  11   191 177  26   194 176  40   191 171  45  
 171 148  68   152 131  45   157 136  52   157 138  59   118 100  31    94  81  28    84  74  20    88  81  23    89  81  28    64  54  14    56  51  10    66  59  17    73  62  16    91  76  18   116  99  28   134 117  35   140 124  41   134 117  36   120 106  30   111  95  18   118 102  24   129 112  33   118 102  25   106  90  17   100  87  19    93  80  16    91  79  13    86  70  13    90  71  11   105  84  12   115  92  15   119  95  19   126 103  21   137 115  22   137 114  29   124 103  22   109  92  14   105  94  16   113 101  20   120 107  17   125 112  12   134 119  12   143 129   3   149 136   4   154 141   4   158 144   1   161 148   1   161 147   5   168 151  13   176 159  24  
 173 151  71   150 132  45   166 146  60   162 144  61   117 101  28    97  83  26    89  78  22    95  85  25    96  87  33    67  55  14    59  53  11    66  57  14    78  67  16    95  79  19   112  95  22   139 122  40   154 138  53   140 123  40   123 110  31   113  97  19   122 106  28   134 117  39   121 105  31   108  93  25   101  86  25    88  76  18    76  67  12    66  54  12    60  45  12    62  46  10    61  44   7    58  42   5    66  51   5    76  64   3    79  62  10    71  55   4    68  53   1    77  67   9    89  79  11    94  81   5   101  89   2   117 102   5   128 115   3   125 111   1   125 111   1   135 121   1   142 128   4   141 126   2   143 128   1   151 136   5  
 177 158  77   156 139  51   175 155  69   161 143  57   120 104  27   101  87  23    94  83  20   102  92  26    96  87  27    69  57  12    63  55  10    69  60  10    91  80  21   113  99  30   120 104  27   142 125  43   158 142  57   139 123  37   130 116  35   121 105  24   123 108  26   128 111  32   118 102  28   105  90  22    94  81  21    86  74  19    68  61  11    56  47  10    47  38  10    47  39   8    42  34   6    38  30   8    41  34   9    46  40   4    54  44   2    58  48   4    66  57   9    77  70  13    86  78  10    87  78   1    94  84   1   107  96   1   121 111   1   120 109   1   118 106   1   121 109   1   130 117   6   134 121   5   132 120   1   132 119   1  
 184 166  84   165 149  61   174 154  67   162 145  57   132 117  36   113 101  30   102  92  21   110 101  25    99  89  20    74  62   8    74  64  14    84  74  14   104  92  21   122 109  30   133 116  34   146 129  47   156 140  55   145 129  41   133 118  33   127 112  25   127 112  25   128 113  28   122 105  28   107  94  23    94  84  18    89  79  19    78  71  16    63  56  11    54  50   6    53  51   4    47  46   3    43  40  10    45  40  12    44  39   8    57  50   3    60  54   4    64  59   4    73  68   6    87  80   8    93  86   6    95  88   1    95  88   1   113 105   1   122 114   1   122 114   4   116 108   1   120 109   1   126 115   4   127 116   1   124 113   1  
 182 165  83   167 153  64   177 157  70   170 153  63   136 121  36   116 102  27   106  95  16   117 109  23   115 106  27    84  71   7    80  71  12    91  82  12   105  95  12   123 109  20   136 120  33   151 135  50   159 143  58   150 134  46   137 124  34   130 116  27   135 120  29   137 123  34   123 111  25   110  98  19    99  91  18    90  83  12    85  78   9    70  64   6    62  59   3    61  60   2    55  53   1    53  47   5    56  48   9    55  48   1    58  52   4    60  54   3    61  54   1    64  57   1    77  68   4    85  78   9    86  78   7    82  74   3    89  80   1   100  90   1   104  94   4   101  92   1   102  92   1   104  94   1   110  98   3   113 101   5  
 184 168  84   173 158  69   178 159  71   176 158  68   135 121  33   119 105  26   110  99  16   123 115  24   124 113  30    84  70   1    84  74  10    94  84  10   112 101  14   130 117  22   139 123  33   159 142  58   165 149  66   145 129  41   133 120  30   125 111  19   133 120  27   139 126  33   124 113  23   115 105  21   111 104  25    96  90  14    89  82   9    77  69   6    71  65   8    68  65   7    60  56   3    58  52   4    61  55   7    64  57   4    61  55   6    65  57   7    64  58   5    63  55   1    65  57   1    66  59   2    66  58   2    66  58   2    71  61   1    75  65   4    78  67   3    80  69   3    79  69   1    77  65   1    79  68   1    85  74   1  
 188 171  87   182 165  79   191 173  85   177 160  69   138 122  35   123 107  26   113 102  15   134 124  30   122 110  24    88  75   3    82  73   5    95  85  14   116 104  21   132 120  22   140 125  30   168 151  69   172 155  75   151 137  48   129 118  29   124 111  22   131 118  26   137 124  32   125 114  24   114 104  18   115 108  27    93  87   8    82  74  12    77  68   9    72  65  10    67  60   7    58  52   3    54  50   1    57  54   3    59  56   6    59  55   2    59  54   2    60  54   3    61  55   2    62  57   2    63  58   3    62  56   1    60  54   1    62  56   1    63  56   1    64  57   3    65  58   4    65  58   3    65  59   1    69  62   1    74  66   2  
 197 180 102   196 177  98   202 183 103   179 162  74   145 129  39   129 115  25   126 113  19   149 139  42   123 112  25    83  72   2    73  65   1    83  74   5   108  97  17   131 119  24   146 131  37   178 162  81   176 159  79   153 139  50   129 117  30   124 113  24   128 114  25   138 124  34   126 115  26   107  96  13   113 105  25    93  86  10    76  69   8    72  66   7    67  60   6    59  53   2    52  46   1    50  46   1    52  48   1    50  47   1    54  50   1    52  49   1    52  48   1    54  50   1    60  54   1    61  56   3    58  53   1    56  50   1    62  57   1    61  56   1    61  56   1    63  57   1    63  57   1    63  57   1    66  61   1    71  65   1  
 198 180 108   199 179 107   206 188 115   184 167  82   152 137  44   138 123  29   130 118  16   147 138  38   118 109  24    77  67   4    71  62   4    74  65   3   103  91  15   130 119  28   152 136  48   189 172  94   184 167  89   160 144  57   131 121  35   123 111  25   126 112  24   145 131  43   140 128  42   106  95  14   112 103  28    97  89  16    74  67  12    63  56   1    55  49   1    56  49   3    53  49   4    51  48   3    51  48   3    51  48   3    50  47   2    49  46   1    50  46   1    52  48   1    55  51   3    57  53   5    56  53   2    54  51   1    60  55   1    60  55   1    61  56   1    64  59   1    65  60   1    66  59   1    69  63   1    72  67   3  
 201 182 114   206 186 117   210 191 123   179 163  81   162 145  54   141 127  30   126 113  12   144 136  37   105  98  19    77  68  12    69  62  11    69  60   4    95  85  14   127 116  28   150 136  49   190 172  96   189 171  95   165 149  62   130 119  37   121 109  25   118 106  20   134 119  34   137 124  43   103  92  13   109  99  27    90  81  12    63  57   6    55  49   2    54  48   2    55  50   9    52  49   9    47  43   6    44  41   3    42  40   2    45  41   4    46  42   5    48  45   5    49  46   4    49  46   4    51  47   3    52  48   4    52  48   2    53  50   1    54  51   1    59  54   1    63  59   3    65  60   5    64  59   2    65  60   3    66  61   4  
 203 184 114   208 188 118   207 190 120   178 161  79   155 138  49   143 126  36   124 108  15   129 120  28    98  90  17    68  61  10    64  57  10    65  56   6    86  75   9   123 110  28   144 129  45   181 163  89   192 174  99   169 153  68   127 117  35   121 110  28   122 110  27   127 112  29   135 122  43   107  93  20   105  94  26    84  73   9    59  52   9    57  52  11    55  50  13    48  44   9    40  35   4    37  33   2    38  35   4    36  34   2    37  33   2    38  35   4    40  37   4    41  37   4    41  37   2    42  38   2    43  40   1    45  42   2    47  43   1    48  44   1    52  48   1    56  53   3    58  53   3    58  52   2    57  51   1    57  51   1  
 204 186 113   206 186 114   209 192 118   181 164  81   157 140  53   149 131  47   123 106  21   118 107  23    90  83  15    62  56   9    58  51   8    62  54   7    79  69   6   120 107  28   141 126  44   175 157  84   196 178 104   173 157  72   127 119  38   116 105  24   120 108  26   123 108  28   134 119  42   101  87  16   100  86  22    89  77  16    56  50  12    48  42   7    42  37   5    38  33   5    32  28   2    30  26   1    30  28   3    29  27   2    30  26   1    31  26   2    31  27   1    33  29   1    35  31   1    37  33   1    38  33   1    38  34   1    41  35   1    42  36   1    45  40   1    49  45   1    51  47   2    52  46   2    52  45   1    53  45   4  
 198 180 109   199 180 108   205 186 116   179 158  80   159 140  54   148 128  46   115  96  24   101  88  27    78  70  18    60  55  12    50  46   7    55  49   7    73  64   7   116 105  26   139 124  40   165 146  71   188 168  96   165 145  68   139 125  41   112  98  16   116 102  21   114 100  22   114  99  26    89  75  11    95  80  22    84  69  17    42  39  11    33  30   1    33  31   3    35  32   5    30  27   2    26  24   2    25  22   3    25  23   6    26  22   7    26  22   2    25  22   1    25  22   1    27  23   1    30  27   4    33  30   4    32  30   1    36  30   2    35  30   1    36  33   1    39  38   2    42  40   1    43  40   1    44  40   1    46  40   1  
 192 173 104   189 171  99   201 182 114   166 147  71   153 132  48   147 126  45   105  86  17    85  70  14    72  62  14    57  51   4    49  40   9    53  43  10    71  58   8   108  94  20   137 120  38   165 147  69   183 163  90   155 136  58   129 112  27   123 106  24   130 113  34   118 102  29   110  94  31    83  66  13    76  59  15    69  51  12    49  39   5    45  35   4    44  34   7    33  26   2    25  19   1    26  21   1    24  22   1    24  24   1    21  18   2    24  22   1    26  24   1    25  23   1    25  23   2    28  25   6    28  26   1    26  25   1    34  26   3    28  23   1    28  25   1    34  33   3    39  39   4    40  37   2    40  36   1    44  41   1  
 194 175 106   190 172 100   198 180 114   173 155  83   152 133  55   139 120  42   109  91  18    93  78  12    88  75  16    85  74  17    67  52  10    66  48   6    84  67  11   123 105  30   153 135  53   181 160  88   196 176 106   183 164  89   151 133  51   156 136  58   156 137  60   135 117  44   125 107  40   102  83  23    96  79  25    99  81  30    88  72  18    86  68  18    79  64  18    66  53  15    53  42  11    41  33   5    29  24   1    30  25   2    32  24   9    29  22   2    25  18   1    24  17   2    26  18   1    27  18   4    28  20   3    30  24   4    36  24   1    35  24   1    35  27   4    39  32  12    39  34  12    38  34   8    37  33   4    38  34   4  
 206 187 118   202 184 112   205 190 123   196 179 109   183 165  90   173 154  77   154 135  58   137 119  44   128 110  38   113  98  28    98  81   7   106  86  17   126 106  31   152 131  45   175 154  69   198 175 104   207 186 120   200 181 112   190 168  93   181 159  84   182 163  86   176 158  81   171 153  76   164 146  69   171 156  77   170 154  77   135 120  45   125 111  35   121 106  32   118 104  33   108  94  32    82  67  15    60  45   5    64  48  15    74  59  11    78  62  14    81  66  17    80  65  18    71  57  10    62  47   5    64  49   8    72  58  20    78  68  14    72  61  10    61  53   5    51  42   2    42  36   1    39  34   2    38  35   2    37  33   1  
 214 195 126   202 185 113   205 189 120   205 188 119   209 191 120   204 186 110   175 157  75   144 126  40   142 124  41   137 118  36   113  95   7   126 105  23   134 113  29   148 128  34   173 152  61   197 176  95   206 187 110   195 178  97   205 185 109   204 184 108   207 187 113   203 184 111   202 185 111   208 191 117   213 198 122   205 191 114   178 169  87   172 163  79   174 163  78   176 163  77   172 157  72   151 133  53   126 106  29   119  98  24   137 118  32   133 113  28   128 110  25   124 106  21   121 105  18   124 108  24   118 101  23   101  85  13    93  85  14    92  84  13    92  84  16    89  80  16    72  64   9    51  45   1    44  39   2    47  42   8  
 211 193 124   192 175 103   200 182 110   200 182 113   200 181 113   204 185 111   193 175  90   152 135  42   142 124  31   140 120  30   134 119  27   133 115  31   124 104  18   144 125  32   177 157  65   194 173  90   203 184 104   199 183  95   201 184 106   207 188 113   211 193 120   214 196 127   213 197 128   208 193 123   203 189 120   205 192 120   197 187 109   194 184 103   190 178  94   179 165  76   177 164  68   182 167  68   172 157  55   160 144  41   137 119  28   128 110  21   127 109  20   126 110  18   127 113  17   138 126  31   127 114  29    92  77   1    72  61   9    69  58   1    75  65   4    89  79  11    90  79  16    71  61   8    50  39   1    39  29   4  
 208 191 121   191 174 102   204 184 109   198 178 109   196 175 108   198 178 105   189 172  84   154 138  42   151 132  37   141 122  28   132 119  18   134 119  28   124 106  19   155 135  46   192 171  87   204 181 110   209 188 122   201 183 110   202 184 109   208 192 117   209 192 120   208 193 119   205 191 114   202 191 110   198 188 102   198 188 101   198 181 107   194 180  99   187 174  83   166 153  55   157 148  46   171 162  60   168 158  62   153 143  52   125 112  20   106  95   6   110  99  10   118 109  16   116 110  10   124 118  20   117 110  23    86  79   1    63  54   8    72  63   6    88  78   5   105  95   9   113 103  17   105  96  21    80  69  10    56  46   1  
 211 192 123   192 175  95   197 179 109   198 180 113   196 178 106   183 165  79   161 144  54   155 135  49   148 126  40   136 117  22   126 109  19   136 118  24   129 111  13   163 142  51   201 180  97   202 182 106   207 189 115   203 187 109   213 192 129   215 195 124   212 195 118   203 186 108   207 190 115   200 186 113   198 185 103   193 182  92   191 175  87   187 171  82   181 166  75   168 153  57   157 142  47   161 144  51   158 141  50   143 126  37   125 105  16   114  99  16   106  97  14   108  98  10   125 109  14   132 113  18   114  99  13   100  92  14    93  85   3   110 102  16   123 114  22   123 115  17   126 117  18   134 122  20   130 119  11   118 109   1  
 212 193 123   193 176  98   195 178 100   200 184 109   200 183 105   173 157  68   156 139  47   142 122  36   130 110  24   143 124  31   117 101  16   122 105  17   127 109  17   156 136  48   201 180  99   198 175 100   202 182 108   201 184 106   212 191 125   216 197 128   215 197 125   202 184 109   201 183 106   195 178  98   196 180  97   194 179  92   185 168  75   175 158  65   169 152  56   162 146  45   152 135  35   145 129  28   142 124  25   133 115  18   128 107  22   109  94   8   106  95   8   123 111  17   147 132  31   155 139  34   142 131  28   133 127  29   143 138  32   133 125  27   111 102  10   104  96   5   117 110  10   123 118   8   118 112   1   117 111   1  
 217 199 127   192 175  97   201 183 110   202 183 113   191 173  99   178 163  75   161 144  54   136 118  34   122 103  18   142 124  31   114 100  23   115 100  18   126 110  23   139 120  35   195 174  96   198 176 102   203 183 107   201 181 103   207 188 117   212 193 125   214 194 127   202 182 110   200 180 100   195 176  89   196 176  91   193 172  90   185 163  80   177 156  71   172 152  64   166 145  56   157 137  47   152 131  41   146 125  35   136 116  26   124 102  27   109  91  13   123 107  23   139 124  36   138 122  30   138 123  25   141 130  28   141 133  30   140 131  35   136 128  31   121 114  16   103  98   2   104  99   1   113 109   9   110 107   7   100  96   1  
 207 189 116   195 178 101   199 179 108   186 166 101   178 158  90   168 151  71   144 127  46   119 100  27   118  99  26   124 106  27    96  83  12   102  89  10   123 108  24   129 111  28   191 169  93   195 173  98   195 175  99   189 170  89   196 178 103   204 185 116   209 188 122   194 174 101   186 165  82   175 155  66   174 152  67   167 144  65   166 145  59   162 142  56   159 139  53   157 136  50   159 138  51   160 142  53   156 137  49   145 127  38   127 109  23   124 107  16   139 123  29   140 125  32   125 110  22   125 113  23   142 132  33   153 145  38   147 138  41   137 129  28   130 125  24   122 116  19   105 100   8    98  93   2   104 101   3   108 107   1  
 197 178 102   190 172  95   191 173  92   175 155  82   186 166  93   137 121  42   109  91  17    86  67   7   102  83  26    99  80  20    80  67   1    91  78   1   119 102  20   132 114  32   189 170  93   183 164  88   183 165  88   186 169  87   193 176  98   200 182 108   202 183 110   174 155  79   150 132  50   138 120  35   146 127  43   147 128  47   137 119  36   140 122  40   143 126  47   140 122  45   130 113  35   122 106  27   121 105  26   121 107  28   119 105  16   137 122  27   143 127  29   120 104  16    98  86  10    92  83   9   102  94   8   125 117  15   151 146  30   151 144  35   146 139  34   141 136  28   135 132  17   128 127   4   125 123   1   126 126   1  
 204 184 107   193 174  99   200 179 101   194 174 102   199 179 106   146 129  49   118 102  22    97  81  10   104  87  21   102  88  15    90  76   5   101  85   7   117 101  16   134 116  32   190 171  94   184 166  90   185 170  91   189 177  93   198 179 103   201 184 103   192 175  92   150 134  51   114  97  19   102  85   7   115 100  20   121 106  23   109  96  20   110  97  23   105  91  23    94  80  17    85  71  10    80  68   8    82  70  10    85  74  12   100  88  14   126 111  28   134 118  29   102  87   9    70  60   1    66  60   2    88  82   5   117 109  13   123 119  10   150 144  34   159 154  40   149 144  22   145 142   9   155 153  13   153 150  10   138 134   1  
 201 183 106   199 180 106   206 186 116   211 191 124   201 181 108   178 160  76   158 142  52   142 125  39   133 119  32   137 125  32   116  99  21   124 107  24   130 114  27   146 129  44   193 176  97   193 176 101   190 175  98   186 174  91   192 174  98   197 180  96   188 173  82   147 132  42   111  96  14    93  79   2   100  87   7   103  91   6    98  87   5   106  96  17   102  93  18    85  76   6    79  70   3    83  75   7    87  79   9    87  79   8    95  84   4   118 103  12   132 118  20   112 101   9    83  74   1    79  75   1    99  94   5   115 109   4   122 116  11   136 131  21   151 144  32   140 135  19   124 119   1   134 128   1   149 145   5   150 148   1  
 209 192 113   204 187 108   203 187 111   203 186 107   200 182  97   192 172  82   185 166  73   180 161  68   174 157  66   180 165  75   172 155  63   174 158  63   178 161  68   184 168  81   203 186 109   203 185 112   196 178 103   190 173  93   181 167  89   189 174  85   180 167  67   153 139  36   129 114  19   104  89   2   103  91   5   104  94   7   105  93   5   111 100  16   104  96  16    92  85   6    91  84   4    98  90   4   103  94   1   106  97   1   121 107   3   145 134  12   150 141   8   140 131   4   131 120   2   131 121   1   137 130   3   137 129   4   134 126   1   130 123   5   125 116   9   119 111   4   113 108   5   113 109   4   119 117   1   126 126   1  
 217 200 119   213 196 114   210 194 114   203 187 104   199 181  94   193 174  81   190 171  76   187 168  74   181 165  70   186 170  78   189 172  78   193 177  82   195 178  83   190 173  84   204 187 106   207 190 113   203 186 107   195 179  93   187 171  93   185 169  81   165 150  50   148 134  29   136 121  20   110  95   2   108  97   6   105  95   5   106  97   1   108 101   7   107 101  10   101  95   4    97  93   1   103  99   1   117 111   1   124 118   1   143 132   8   155 149   4   162 157   2   156 151   1   145 138   1   150 144   1   169 167   1   175 174   1   169 163   8   145 137   1   123 113   1   110  99   1    98  87   3    92  82   9    98  91   9   105 102   1  
 217 201 115   217 201 114   219 203 119   211 195 108   205 186  95   192 173  78   187 167  70   187 169  71   185 169  73   191 175  80   188 172  76   191 175  77   188 173  75   182 165  73   195 178  94   200 184 102   200 183  99   193 178  88   197 177  96   194 174  85   176 158  58   147 130  24   136 122  15   120 107   5   105  95   1    96  86   1    91  83   1    90  84   1    98  92   5   103  99   7   102  99   1   110 106   1   127 123   1   138 133   5   146 139   1   147 139   1   158 153   1   173 171   3   166 162   1   156 149   1   170 165   4   187 186   1   187 183   2   172 165   2   157 147   2   137 127   1   107  95   1    89  77   2    90  83   3    95  93   1  
 211 195 107   206 190 102   214 198 111   214 197 109   212 193  99   196 176  79   185 165  66   190 172  72   196 177  82   201 185  90   189 173  77   186 170  72   183 168  67   181 165  70   198 180  94   202 184  99   200 184  96   197 182  87   197 177  90   204 185  92   190 172  72   154 137  32   137 123  17   116 104   5    94  84   1    79  71   1    72  65   1    68  61   1    75  68   1    89  83   8    96  89   4   106 101   3   123 117   4   135 128   7   141 134   1   147 140   4   155 151   1   176 176   1   193 192   3   189 186   9   187 180   9   187 182   2   194 191   1   193 189   3   178 171   1   166 158   1   153 143  10   115 103   3    86  76   1    90  83   1  
 211 195 107   209 193 106   211 195 108   212 195 107   214 195 101   201 181  84   187 167  68   189 169  72   192 173  78   196 179  85   193 174  79   187 170  73   184 168  70   186 169  75   201 183  97   199 181  97   196 178  88   194 178  83   192 173  80   196 178  84   172 154  56   144 130  25   130 118  13    97  88   1    82  74   1    71  62   1    64  56   5    57  50   1    59  53   1    70  65   2    82  76   1    93  86   1   108  99   1   123 113   1   127 119   1   143 137   1   154 151   1   174 172   3   192 192   1   198 197   1   196 192   1   191 184   4   192 192   4   196 194   2   190 186   1   183 173   1   172 161   7   146 134   5   106  95   1    81  66   1  
 216 200 112   216 200 113   213 197 111   206 189 101   207 188  95   202 182  86   192 172  75   191 171  75   193 174  80   198 181  89   198 179  86   197 178  83   196 179  82   194 177  85   205 187 101   199 181  97   194 177  87   191 175  80   183 168  69   178 162  65   153 137  39   132 119  16   127 116  16    96  89   4    72  65   1    60  53   6    58  51   2    56  51   1    58  53   1    70  64   1    85  80   2    96  89   1   111 102   1   127 117   3   134 129   1   151 148   1   169 168   1   186 185   7   195 194   5   201 199   4   202 199   4   193 187   1   182 182   2   187 187   1   194 189   1   191 180   3   182 171   1   174 164   1   141 131   1   100  85   4  
 213 195 102   217 199 108   212 196 109   209 192 104   205 187  95   198 178  83   189 171  72   189 170  70   193 174  74   197 179  80   198 178  82   201 182  85   204 185  93   204 184  96   205 185  99   199 181  95   195 178  91   194 177  87   185 167  67   175 158  57   155 138  36   147 131  26   140 127  22   121 111  10   112 101   7   103  92   6    87  80   1    84  78   1    83  76   1    94  88   2   111 105   2   117 111   1   125 116   1   138 127  10   146 140   4   173 171   3   193 191   1   197 191   3   200 194   7   206 203   4   207 205   2   199 198   4   194 187   5   192 185   1   195 187   1   194 185   1   190 180   1   185 175   1   167 157   1   147 134   2  
 196 178  81   202 184  89   211 194 104   206 188  94   199 181  83   190 171  69   174 155  52   165 144  39   170 150  45   184 164  59   194 175  73   194 175  73   195 175  81   198 179  87   201 181  93   200 183  95   198 181  93   196 179  91   188 168  71   174 154  55   160 142  39   171 154  50   161 147  40   129 115   8   124 111   5   131 118  13   113 105   6    93  83   1    83  71   1    89  78   1   107  99   1   133 124   4   137 128   2   120 109   1   132 122   1   167 161   1   193 189   1   199 192   1   202 193   1   205 200   1   203 199   1   195 192   1   200 191   1   199 189   1   199 190   1   195 185   1   184 174   1   176 164   3   169 155   8   160 144   6  
 180 164  59   184 166  64   195 175  75   198 179  77   190 171  65   171 150  42   153 133  21   154 132  20   165 143  31   172 150  39   180 159  50   172 154  46   171 152  49   180 160  63   191 172  77   194 176  83   192 173  83   188 170  80   186 165  72   174 154  59   155 137  37   162 144  42   162 148  43   138 124  19   126 112   7   127 112   9   129 118  11   110  99   5    95  81   3    85  71   1    90  77   1   121 110   7   140 127   9   128 115   1   128 115   3   153 142   1   179 172   1   192 182   1   196 184   1   201 190   1   202 192   1   197 185   1   192 181   1   194 184   1   196 186   2   191 180   4   178 165   2   165 151   2   154 138   3   143 125   1  
 176 159  48   178 160  51   183 162  56   184 162  54   172 150  38   152 130  17   147 125  10   160 139  24   172 149  35   172 149  36   175 154  42   169 148  37   169 148  40   178 159  55   190 170  71   193 174  78   191 172  78   188 169  77   187 166  76   188 167  75   171 152  55   166 147  47   172 155  51   161 144  40   143 128  23   133 117  14   135 122  10   139 127  12   129 118   7   110  97   1   102  85   1   110  91   3   128 111   6   144 128   3   134 116   6   143 128   1   162 148   1   176 161   5   181 166   4   190 174   1   196 180   1   193 176   1   192 177   3   191 178   2   188 175   2   180 168   1   174 160   1   165 152   3   155 140   1   144 130   1  
 174 156  45   173 155  43   179 157  48   175 153  42   168 146  34   158 136  23   150 127  13   153 130  16   169 147  34   186 164  53   185 163  54   182 160  51   181 159  53   186 165  60   192 172  70   197 175  79   197 176  83   197 176  85   193 172  83   198 177  86   190 170  74   183 164  63   185 167  62   174 156  52   155 138  32   145 127  21   142 123  13   152 135  20   147 134  13   134 121   4   129 114   4   130 113   3   134 116   1   145 126   1   149 131   1   148 131   1   155 138   1   163 147   5   171 154   8   182 165   4   191 174   2   192 174   1   186 170   1   190 175   3   186 172   5   179 165   5   175 160   7   169 154  11   160 146  12   154 139  11  
 166 148  40   167 149  38   171 148  41   170 147  40   168 146  36   165 143  33   163 141  32   166 145  36   174 153  46   181 159  55   189 164  64   189 165  63   187 163  62   184 161  59   185 163  63   190 167  71   193 171  78   195 172  81   197 175  85   198 177  85   189 169  72   175 156  53   177 159  51   179 160  52   165 147  38   151 133  24   146 123  17   153 132  22   152 134  19   143 128   6   141 126   1   148 132   2   153 134   4   151 131   1   157 136   1   153 134   1   148 130   1   146 129   1   149 134   2   159 143   1   170 154   2   178 161   4   180 160   1   184 166   7   179 161   7   170 152   4   167 150   9   167 151  18   163 147  23   162 145  26  
 164 145  40   158 140  31   164 142  40   176 155  50   188 167  59   191 170  63   189 167  62   187 165  63   188 166  64   188 166  66   188 162  69   191 165  69   189 164  67   183 159  61   182 158  60   186 163  69   188 165  72   187 163  73   186 165  74   186 165  72   180 160  61   164 145  42   160 142  34   169 148  39   167 147  35   161 141  29   151 127  18   157 136  22   154 135  15   148 129   9   147 129   8   148 129   8   149 129   3   149 128   1   148 122   1   148 127   6   141 120   4   132 115   1   131 114   1   133 116   1   140 121   1   148 130   7   155 132   1   159 136   1   154 132   1   149 130   1   157 138   8   163 145  17   159 144  18   157 141  17  
