P3
50 50
255
 139 103  47   151 109  47   159 109  46   153 103  41   136  96  39   111  84  34    94  75  29    94  80  36    97  80  31   102  81  24   118  90  22   134  99  15   156 115  21   181 133  28   190 137  31   194 140  34   191 137  35   176 126  31   159 116  28   152 114  32   159 126  49   155 123  47   161 130  56   163 135  64   147 122  55   143 120  53   147 125  57   151 131  62   159 139  70   163 144  74   169 150  81   174 155  87   178 159  91   178 159  98   182 162 104   183 164 105   181 163 103   177 158  95   169 150  83   168 149  80   170 152  80   172 154  83   173 153  85   171 150  84   171 150  87   178 155  95   185 162 103   189 164 106   182 158  95   175 152  85  
 153 122  60   158 120  58   169 126  65   167 124  64   146 108  53   126  99  47   115  95  46   110  93  46   117  96  47   130 104  44   148 115  40   156 117  23   171 126  18   182 131  19   178 125  13   185 129  20   182 128  24   170 121  27   161 118  36   147 109  35   137 109  41   153 126  57   150 124  57   137 112  46   131 108  41   140 117  50   142 121  55   145 125  56   155 135  67   159 141  72   166 148  80   173 154  86   178 159  91   180 162 101   182 163 105   180 161 103   181 161 103   181 161 102   174 154  92   170 151  85   165 148  78   169 150  81   173 154  86   173 154  88   173 154  88   176 156  93   181 160  98   182 161  99   180 158  92   175 151  82  
 145 119  53   148 118  55   170 137  77   177 142  84   152 121  64   134 109  52   132 108  51   138 112  55   150 122  66   157 127  65   160 128  54   154 117  28   157 116  15   171 125  22   169 120  18   172 122  23   166 118  26   148 106  26   136 101  34   121  90  34   111  89  32   117  95  37   112  90  31   112  91  29   121 100  37   128 107  42   128 108  42   138 119  51   147 128  60   152 133  64   160 140  73   167 148  81   172 154  88   177 158  95   179 159  98   177 157  98   178 158  99   181 160 100   179 157  95   177 156  91   168 149  84   165 147  81   168 150  84   173 155  89   178 159  93   178 159  93   178 159  93   179 158  94   176 156  88   170 150  79  
 142 119  49   134 110  45   147 121  62   150 124  67   136 110  51   133 109  46   145 117  52   161 125  59   158 123  60   157 123  60   166 133  65   158 125  45   147 113  23   150 109  19   143  99  10   140  97  10   131  90  11   111  76  10    97  69  18    88  63  24    90  72  21    96  78  26   103  84  29   112  93  35   114  94  33   117  98  34   124 105  39   134 115  47   139 120  52   143 124  57   152 133  67   162 143  77   166 148  82   168 150  82   174 155  89   179 158  95   178 157  94   177 156  93   173 152  87   173 152  85   172 154  89   168 150  86   168 150  85   168 150  84   168 150  84   170 152  86   174 155  89   172 152  86   169 149  80   165 145  74  
 133 107  46   128 105  43   125 103  43   121  96  43   115  87  37   126  96  35   149 117  50   158 123  56   159 124  56   159 125  54   167 133  62   166 128  60   143 103  36   111  72  21    92  56  19    86  56  27    77  56  22    70  53  14    73  59  21    73  58  27    82  69  27    88  74  30    95  81  34   103  88  37   109  94  35   112  96  36   118 101  38   123 105  39   128 110  44   133 115  47   143 126  57   150 133  63   152 134  65   158 138  70   165 144  77   169 150  82   171 152  87   172 152  89   170 150  86   170 150  89   172 156  94   175 157  94   175 157  93   174 156  92   176 158  94   178 158  99   180 160 100   181 162  97   173 154  86   167 147  75  
 126  88  40   115  75  32   110  68  27   112  70  24   134  92  33   150 107  37   153 111  39   149 109  43   155 120  50   157 127  54   153 122  49   149 115  45   148 110  43   127  93  30    86  54   6    53  27   1    56  35  10    64  49  20    68  57  23    76  66  31    74  62  21    81  69  26    85  72  26    89  76  25    95  83  26   100  85  26   105  91  29   114  99  33   124 107  40   129 112  44   138 120  50   144 126  54   149 131  58   157 138  67   162 142  73   162 141  74   162 142  75   164 145  78   165 145  80   169 149  84   170 152  88   174 156  91   178 160  94   180 162  96   184 167 104   187 168 109   187 168 109   187 167 105   186 166 100   181 161  91  
 145 106  44   122  77  30   116  64  23   121  65  17   141  87  26   145  96  27   142  93  24   140  93  28   135  98  37   128  99  41   119  94  34   124  95  29   144 109  38   155 124  45   139 111  46    90  65  29    56  35  15    56  41  20    62  52  23    60  54  18    70  62  25    78  70  29    80  70  25    82  71  22    89  78  24    94  83  27    99  86  27   108  94  31   115 101  36   122 105  36   128 110  40   133 115  40   136 117  41   141 121  49   145 125  54   148 128  59   151 131  62   154 134  65   155 135  66   159 139  70   160 140  74   167 148  80   173 154  86   175 157  90   179 161  98   181 165 105   182 164 105   181 161  99   181 162  96   182 161  94  
 188 157  77   162 123  51   151 101  36   147  92  28   136  85  17   134  87  19   135  89  24   136  90  28   109  73  27    86  61  30    87  66  32   110  86  34   135 105  34   152 121  37   154 126  51   126  98  52    81  57  30    58  40  19    58  47  21    63  56  23    63  57  22    70  63  27    73  66  25    76  68  23    80  72  24    86  76  25    92  81  27    96  84  25   100  87  26   106  92  27   120 103  33   128 109  36   129 110  34   135 117  44   141 122  50   143 123  52   145 125  53   146 126  55   145 125  55   149 129  58   153 133  65   161 141  72   167 148  79   169 151  82   173 155  91   177 161 101   180 163 104   183 163 102   179 159  96   176 157  91  
 197 161  86   178 138  56   153 107  22   143  95  15   128  81  10   129  89  20   126  89  26   112  72  27    76  46  18    54  33  21    64  48  32    90  71  37   114  90  34   130 100  28   133 103  32   127  97  43    94  68  30    60  40  12    54  38  13    58  45  19    55  50  20    59  54  21    66  60  24    72  66  25    75  66  23    79  70  24    86  77  29    90  78  25    92  79  25    97  82  23   109  94  28   117 101  32   122 105  34   127 110  40   131 114  44   131 112  44   132 113  44   136 117  48   140 120  50   146 126  55   145 125  56   153 133  63   158 139  69   161 143  74   168 150  84   176 158  96   179 162 101   184 164 101   184 164 103   179 159  98  
 194 146  71   177 129  48   137  88   7   121  72   4   111  67  15   106  69  24    88  55  16    66  39  15    45  25   8    39  26  14    45  35  22    59  45  23    82  62  31    98  72  24   106  79  26   108  82  32    82  59  19    60  41  12    60  44  22    52  40  19    54  48  22    55  50  21    63  56  25    72  64  29    73  65  26    76  67  25    83  74  30    86  76  28    89  79  29    89  78  24    93  82  23    99  87  26   107  96  31   109  96  32   113  97  35   116 101  36   119 103  38   124 107  39   126 109  40   131 113  44   135 116  47   140 122  52   145 127  55   149 130  60   156 137  69   165 146  80   171 151  87   179 158  94   182 161  98   181 161 100  
 188 139  70   153 105  41   111  69  15    90  55  14    81  51  24    61  37  17    46  26  11    36  26  11    32  25  11    35  32  17    39  33  18    42  32  14    57  43  23    70  53  28    74  58  24    74  58  22    62  46  16    48  35  14    45  36  18    45  40  18    51  45  21    52  45  19    57  49  20    64  55  23    68  58  23    70  60  24    75  64  25    76  65  24    79  70  25    77  69  22    78  71  19    84  77  23    92  86  29    98  88  30   104  92  34   109  97  37   112  98  37   112  97  35   109  93  29   109  94  29   124 107  38   128 111  41   132 115  44   137 119  47   146 126  55   154 134  65   162 139  72   170 149  82   172 151  87   174 154  92  
 147 100  49    88  45  11    61  28   8    53  31  15    45  34  16    28  21   4    31  26  10    28  29  12    30  30  17    33  31  19    33  29  17    37  30  13    41  32  11    45  37  19    46  38  18    45  35  10    45  34  16    42  34  23    38  36  20    42  43  20    52  44  23    53  45  21    54  45  19    60  50  21    67  55  24    70  57  23    71  60  23    73  64  25    74  65  24    69  62  18    70  63  17    70  66  17    73  71  18    81  73  19    88  77  22    93  82  26    97  85  26   100  87  27   101  87  25   104  89  27   106  91  24   112  96  27   119 102  31   128 108  35   140 118  45   148 125  55   151 128  59   154 134  66   162 143  76   165 145  82  
  61  36  21    45  25  10    35  22   8    29  23  11    24  22  10    27  24  15    28  25  15    32  26  12    32  27  14    35  32  19    32  29  14    28  27  11    33  31  13    34  31  15    34  31  16    35  32  17    35  33  18    36  32  17    38  32  18    42  36  22    39  34  14    49  44  23    50  46  22    52  47  21    56  50  24    57  52  23    61  54  25    63  54  25    63  54  23    63  54  21    63  54  21    64  56  20    66  58  21    71  63  20    81  73  27    86  75  28    84  73  24    87  75  24    88  76  24    90  79  25    89  78  22    93  83  21   105  93  26   113 100  28   122 106  32   135 116  45   142 122  50   152 132  58   154 132  63   168 144  82  
  57  31  22    40  20   9    29  18   7    25  20   8    23  21   8    26  24  11    28  25  10    27  23  11    29  25  13    28  24  12    28  24  12    32  30  15    33  30  15    31  28  12    32  29  12    35  32  15    38  35  18    39  35  18    38  32  16    38  32  16    40  35  16    44  39  20    44  39  18    48  42  19    54  48  24    55  49  23    54  47  21    56  49  22    53  46  18    52  45  16    54  48  16    58  52  20    62  56  22    67  60  21    70  61  20    69  60  17    76  67  21    79  68  21    75  65  16    78  67  17    83  73  20    85  76  19    91  81  18    99  86  20   107  92  24   118 101  32   128 111  41   138 119  48   145 125  59   152 128  67  
  60  34  25    41  23  14    34  23  14    31  27  15    30  28  13    32  29  10    30  28  10    29  26  14    34  30  19    35  31  19    38  32  20    38  32  20    32  26  14    32  28  12    32  29  12    32  29  12    35  31  14    37  31  15    37  31  15    38  32  16    39  33  17    39  34  15    41  36  16    43  37  17    48  42  21    49  44  21    46  41  17    48  42  20    46  40  17    47  41  17    50  44  18    53  48  20    55  50  21    59  53  21    61  55  19    63  55  19    68  60  22    69  61  21    65  56  14    67  58  14    66  58  14    72  64  15    80  70  16    91  79  20    97  86  24   103  89  26   113  98  34   121 102  39   129 108  47   127 105  47  
  59  34  17    42  23  10    35  25  14    33  30  18    34  32  19    33  27  11    34  27  11    33  29  17    34  28  15    37  29  16    39  31  18    37  29  16    39  32  20    36  32  17    31  28  11    30  27  10    33  27  11    36  30  14    37  30  15    38  32  16    36  30  14    37  31  15    42  36  19    39  34  15    41  36  17    44  39  19    42  37  18    45  40  21    42  37  17    43  38  18    46  41  19    48  43  21    48  43  20    50  46  18    58  53  24    64  57  27    61  55  23    61  54  19    62  54  17    60  52  15    60  52  14    67  58  18    71  62  17    79  69  20    81  72  17    83  72  16    93  81  25   103  87  30   107  88  31   118  99  40  
  71  44  15    50  31   6    40  28  12    35  29  19    37  31  21    36  28  15    41  31  15    43  36  16    44  35  14    48  35  16    52  39  20    46  34  20    41  32  21    36  31  16    32  29  12    35  29  13    38  32  16    40  34  18    38  32  16    37  31  15    37  31  15    38  32  16    43  37  20    40  35  16    39  34  15    42  37  17    40  35  17    44  38  21    37  32  13    35  30  11    37  32  12    43  38  18    46  41  21    46  40  17    51  45  21    56  50  24    54  47  19    54  47  17    56  48  15    55  46  13    60  53  16    65  57  21    63  55  17    66  57  15    67  59  12    73  65  16    83  74  23    85  70  21    93  76  21   130 111  52  
  96  67  28    70  49  17    51  39  19    36  29  17    37  29  19    46  32  19    60  45  24    78  66  34   100  86  53    93  76  46    69  54  26    51  38  17    44  37  19    41  35  19    39  33  17    39  33  17    41  35  19    42  36  20    42  36  20    44  37  21    41  36  17    41  36  16    43  38  19    42  37  18    42  36  20    39  36  19    37  33  16    39  34  15    36  31  12    36  31  11    38  33  13    40  35  15    41  36  16    44  38  17    42  36  13    45  38  14    50  43  17    52  44  15    52  43  12    53  44  13    55  45   9    59  49  14    58  48  12    59  49  13    60  51  10    66  57  14    74  65  20    73  61  16    90  76  23   135 119  57  
  98  65  25    77  51  20    56  40  20    34  24  10    38  26  12    58  41  21    92  73  42   121 104  59   126 105  60   111  89  48    94  74  40    69  55  28    45  36  16    42  36  19    42  36  20    41  35  19    41  35  19    42  36  20    44  37  21    49  42  25    44  39  17    45  40  20    44  39  19    43  38  19    40  37  18    39  36  17    40  36  17    40  34  12    44  38  16    48  42  19    48  42  19    44  38  16    40  34  12    43  35  13    40  31   8    41  35   8    48  40  12    50  41  11    53  43  11    55  44  12    58  46   6    56  45   7    56  46  10    56  46  11    54  44   8    54  45   6    58  51   9    66  56  14    95  83  31   129 114  50  
  83  48  11    70  41  13    56  39  19    36  24   9    43  30  11    75  57  29   110  88  49   119  98  45   123 101  48   116  92  43   100  80  38    68  54  22    44  36  12    40  34  14    41  36  17    43  38  19    44  39  20    44  38  19    44  37  19    46  39  21    45  40  18    50  45  23    47  42  21    41  38  17    36  33  14    39  36  17    47  43  23    49  43  19    52  46  22    55  49  25    52  47  22    47  41  17    43  37  13    39  32   8    40  33   7    47  37  12    45  35   8    47  37   7    55  44  12    56  45  13    67  56  12    61  49   8    61  49  13    61  50  15    63  53  18    65  55  19    60  51  13    60  50   9   103  90  38   122 109  43  
  58  42  16    53  39  14    40  28   4    43  29   3    73  53  21   113  85  46   116  86  44   114  86  45   115  89  41   100  76  34    83  65  36    59  47  31    41  36  19    44  39  21    45  38  20    44  37  19    47  40  22    45  38  20    47  40  22    48  41  23    43  41  20    43  39  22    49  42  31    45  38  28    44  36  23    49  42  24    49  42  20    48  39  16    53  43  16    54  40  11    58  44  15    56  44  18    47  36  16    37  28  14    39  31  14    47  39  15    56  47  13    65  55  10    72  61   9    77  65   7    88  73   7    93  78  15    91  76  17    80  66  12    79  67  16    82  69  22    76  63  14    84  70   9   119 105  36   135 121  50  
  43  25  15    46  29  15    53  35  16    78  59  30   113  90  50   117  90  42   109  80  30   112  89  41   105  83  40    79  60  27    58  43  20    43  34  15    38  32  11    43  36  13    45  37  14    45  37  14    50  42  19    48  40  17    48  40  18    47  39  18    49  44  19    46  42  18    49  43  21    48  42  19    50  43  14    54  49  11    58  52  10    70  61  18    82  73  23    80  70  14    72  62   4    64  54   1    57  49   1    53  46   1    56  49   2    60  53   1    72  62   6    92  82  19   109  95  31   112  99  31   120 102  30   119 100  31   115  98  28    99  83  16    85  70   3    85  71   6    89  75  10   110  94  29   143 127  54   147 131  56  
  44  27   7    51  32   7    74  51  20   102  74  37   114  85  44    98  71  28   102  77  30   102  83  32    71  55  21    40  28  10    34  27  11    38  30  11    45  35  14    45  35   6    48  37   5    49  38   8    53  42  12    52  41  11    58  47  17    60  49  19    49  42  13    50  43  13    51  43  11    55  47  10    64  56  10    78  71  16    94  87  23   113 104  27   130 120  37   137 128  38   139 131  33   131 123  25   116 111  13   104  98  11   101  94  13   100  92  11   103  91  11   113  99  18   125 108  28   132 114  34   129 106  28   120  99  20   122 101  20   125 106  24   124 106  24   124 106  24   126 108  30   148 130  58   164 146  71   165 147  73  
  53  38   4    73  51  12   106  77  28   120  89  31   112  82  20   101  76  15   101  80  25    77  59  22    44  31   9    33  27   9    47  43  15    53  46   9    59  47   7    66  53   6    73  61  11    78  66  18    77  64  17    68  55   9    67  54   9    68  55  10    66  57  14    68  56  14    66  55  11    75  63  14    85  74  19    97  87  25   113 101  33   127 111  40   139 122  47   152 135  55   166 150  65   163 149  64   148 137  52   136 126  36   126 115  25   121 110  20   126 111  23   125 108  21   126 107  21   135 115  29   144 118  33   136 110  25   138 113  29   149 124  40   160 135  53   157 135  52   156 134  56   175 154  86   178 158  90   185 164  97  
  90  74  15   114  92  27   138 109  36   140 107  29   127  98  21   116  93  19    89  69   9    57  39   5    48  35   3    54  50   7    72  72   9    88  82   7    99  87  11   102  90  12   102  91  12    99  87  10    93  80   5    85  73   1    86  74   1    87  75   3    85  74   8    82  70   5    84  70   5    97  84  17   110  95  26   113  99  26   118 103  31   127 107  40   141 120  52   155 132  65   170 146  82   177 156  94   180 160 100   175 158  88   159 143  68   153 135  60   162 143  66   166 146  68   163 140  62   164 141  63   170 144  60   171 144  64   177 150  73   179 153  79   184 157  88   189 162  95   188 161  98   190 167 108   195 173 117   200 177 123  
 163 147  69   166 146  64   167 139  56   152 119  38   133 104  25   127 101  30   103  82  14    96  80  11    94  83  10    92  85   5   100  93   5   114 103  14   121 104  21   124 110  19   122 109  15   118 105  11   120 107  16   123 109  20   128 114  26   126 112  24   127 112  25   122 107  22   116 101  17   115  98  16   116  99  17   122 104  22   133 114  34   151 129  54   164 140  69   173 148  82   182 157  96   189 167 111   195 175 123   201 181 130   198 178 125   191 170 114   190 168 109   191 168 106   189 166 100   185 162  94   184 160  88   189 165  96   200 175 111   203 177 119   201 174 121   208 180 132   211 184 136   206 181 132   213 189 144   206 182 138  
 209 184 130   202 175 117   192 163  98   171 141  70   158 130  52   159 134  53   152 129  45   145 128  37   145 128  33   144 127  35   148 128  43   151 129  54   148 126  54   153 133  56   162 143  66   171 152  75   181 161  86   182 162  88   180 160  88   171 151  80   167 148  68   163 145  63   158 140  58   150 130  50   149 128  49   161 140  61   170 147  73   176 151  88   184 158 100   192 165 112   203 175 128   210 184 141   213 190 150   215 194 152   219 198 154   219 198 153   214 192 143   208 186 134   208 185 129   209 187 129   220 199 144   220 199 145   226 205 153   228 206 158   226 203 159   224 201 159   219 196 152   217 193 146   220 196 156   208 185 144  
 200 171 127   207 178 131   205 174 124   191 162 104   194 166 102   193 164  96   189 162  91   182 159  83   178 153  70   180 152  73   181 151  81   180 151  86   186 160  89   190 164 107   202 176 125   212 185 135   217 191 143   216 189 143   218 191 146   216 189 146   205 181 119   196 172 110   196 172 107   195 171 104   197 172 105   201 174 107   200 174 107   205 181 116   207 181 121   205 178 123   208 180 131   215 189 142   223 202 155   223 204 160   222 203 160   226 208 162   230 209 161   225 204 154   221 199 149   224 203 151   225 206 163   231 212 169   235 216 173   235 217 174   241 220 177   238 217 174   222 201 156   216 193 146   219 195 155   211 188 148  
 189 160 100   209 178 122   201 169 117   196 164 113   213 183 129   218 193 138   203 179 125   198 173 116   198 173 116   201 178 121   204 181 128   209 188 138   225 202 157   233 209 169   232 208 170   237 213 174   230 207 169   224 202 163   233 211 170   232 210 169   233 206 161   224 197 152   216 191 143   217 193 145   221 197 149   221 197 149   219 196 147   221 199 149   222 200 150   220 198 149   218 196 147   220 198 149   224 204 154   224 205 159   227 207 164   231 213 167   231 213 166   232 214 166   232 214 165   230 212 162   228 210 167   233 217 175   235 222 183   235 223 185   235 221 182   235 219 178   223 206 167   228 214 173   229 211 162   222 200 152  
 183 152  93   210 176 123   199 166 114   209 177 127   215 184 133   214 187 134   218 193 139   221 196 142   218 193 139   220 197 142   226 203 152   231 208 161   234 211 168   233 211 172   233 211 172   235 213 174   233 211 172   233 211 172   233 213 173   231 212 172   239 215 171   236 212 168   233 210 165   233 211 164   235 213 166   235 213 166   233 211 164   230 208 161   228 207 160   227 207 157   225 205 155   224 204 154   223 203 153   225 207 160   229 211 165   230 212 166   231 213 165   232 214 166   232 214 165   231 213 163   235 216 173   238 221 179   241 226 186   240 226 189   244 230 192   235 220 181   233 216 177   238 224 185   237 223 179   229 211 170  
 189 152  97   203 166 114   202 164 115   223 187 141   223 190 145   211 183 134   227 202 151   231 208 159   228 205 155   228 205 155   233 211 163   237 214 170   232 209 168   232 210 172   235 213 176   232 213 173   235 216 176   238 219 179   234 215 175   234 215 175   234 213 170   236 215 171   237 217 174   235 216 173   235 216 173   237 218 175   238 219 176   237 218 175   233 215 169   231 213 167   231 213 165   228 211 163   224 208 158   228 212 162   231 215 166   233 215 167   232 214 165   231 213 165   231 213 165   234 217 169   232 214 168   233 217 173   237 222 180   237 222 183   238 223 184   234 216 178   240 222 184   240 225 190   236 225 190   238 230 201  
 155 114  61   189 148  95   215 174 125   221 182 139   235 201 160   221 193 148   225 203 154   234 211 167   232 210 164   231 209 162   232 210 163   232 209 166   232 209 168   231 211 170   230 211 171   229 210 170   234 215 175   237 218 177   233 216 173   233 216 173   230 211 169   232 213 171   234 216 173   234 217 174   235 218 175   237 220 177   240 223 180   241 224 181   236 219 175   233 216 172   233 216 170   232 217 168   229 215 166   229 213 162   231 215 164   234 216 166   230 212 162   226 207 158   228 207 160   233 212 165   228 210 163   232 214 168   236 219 174   235 218 175   228 210 170   238 220 180   242 225 186   237 222 189   234 225 198   240 238 216  
 147 101  51   161 117  62   193 150  99   204 165 123   229 197 159   226 200 156   224 202 154   232 211 168   232 210 166   234 212 165   230 208 162   226 203 160   230 205 164   230 207 166   227 205 164   231 210 168   235 215 173   233 214 171   231 212 169   229 210 167   230 211 168   231 212 169   234 215 172   235 218 175   238 221 178   239 222 179   239 222 179   240 223 180   237 221 177   234 220 175   234 220 173   233 219 171   233 219 170   230 215 163   229 213 161   230 213 161   227 209 158   224 205 155   222 202 152   223 203 153   220 203 151   226 208 157   231 211 162   224 205 159   223 204 160   235 216 174   230 213 174   237 223 190   241 234 208   239 238 216  
 176 129  77   143  97  38   154 111  56   192 153 110   218 187 151   223 200 158   227 207 158   225 207 162   225 205 158   229 209 159   226 204 154   219 197 148   219 195 148   223 200 155   225 202 158   232 210 165   235 214 168   232 211 164   229 208 161   225 204 157   226 204 157   227 206 159   232 211 165   237 216 171   239 218 173   237 216 173   232 214 170   233 216 170   236 219 173   238 221 175   237 220 174   232 218 171   231 217 170   233 218 168   230 214 163   226 208 157   223 205 154   225 205 153   220 199 146   211 190 137   207 188 130   212 193 135   213 192 136   204 183 131   215 193 146   216 198 153   217 201 158   238 226 188   241 233 203   243 236 208  
 173 124  70   148 103  40   147 105  44   186 149 104   222 192 157   227 207 163   231 216 163   229 212 165   226 209 159   227 207 154   222 201 146   216 194 140   214 191 139   217 193 144   221 197 149   221 197 149   221 197 149   221 198 149   218 196 146   216 194 144   217 191 140   218 195 144   224 201 151   228 204 156   231 207 159   231 207 161   227 206 158   224 206 156   229 211 161   232 215 166   233 216 170   230 213 168   229 212 168   230 213 166   228 212 163   220 204 153   215 197 145   217 196 142   211 190 134   200 179 122   196 178 116   197 179 116   195 174 113   192 170 112   197 176 123   204 184 136   222 206 160   237 226 183   236 224 188   241 227 191  
 179 130  73   156 112  46   148 109  45   182 147  99   225 198 162   224 206 159   231 218 163   235 219 169   233 216 163   224 207 151   216 196 139   213 192 135   214 192 135   210 186 134   214 188 139   205 179 130   201 176 126   206 183 132   203 180 128   205 182 130   204 177 124   207 180 127   211 183 132   213 187 136   217 191 141   220 194 145   220 196 147   216 199 146   220 203 151   224 206 155   227 209 161   228 210 165   227 210 166   221 204 158   222 205 157   216 200 148   205 187 134   202 182 127   199 179 120   192 170 112   187 169 103   186 166 100   181 159  95   185 162 101   174 153  98   196 176 126   231 216 167   231 222 174   235 221 180   241 221 178  
 199 167 109   146 109  45   149 111  45   169 142  80   191 173 119   231 215 160   239 221 166   235 221 172   231 216 162   227 208 151   217 194 136   215 190 132   213 188 131   207 182 127   194 169 113   185 161 101   184 160  97   186 161  97   188 163  99   190 164 103   197 166 109   199 170 109   204 176 112   198 172 106   193 168 101   197 172 106   202 178 113   203 181 121   204 183 122   206 186 125   209 189 130   212 191 137   215 193 143   211 189 140   206 185 133   206 185 128   194 175 111   181 162  95   177 158  89   181 162  93   181 160  83   167 147  73   170 150  82   156 135  73   171 150  95   201 179 129   221 199 150   227 207 157   231 211 161   234 213 163  
 211 186 129   163 129  66   151 113  45   170 138  76   192 172 116   227 211 159   241 226 174   233 219 172   228 212 161   227 210 154   220 201 143   214 193 134   210 188 130   203 181 122   195 175 112   190 166 102   183 160  92   178 155  85   176 152  82   170 145  78   170 143  74   179 152  82   183 156  85   178 153  82   180 155  89   186 161  97   184 159  97   183 162  98   181 160  95   184 163  98   190 170 107   198 176 117   201 179 123   200 178 121   194 172 115   195 174 110   191 171 103   176 156  86   167 147  76   173 153  84   165 143  68   155 134  62   157 136  67   138 119  53   166 146  85   194 174 115   200 180 122   206 187 131   210 191 135   218 197 140  
 230 212 158   193 164 101   155 117  48   156 121  55   184 158 101   217 200 148   236 222 174   236 222 176   229 215 165   230 215 163   227 210 154   218 199 143   210 190 133   200 179 118   196 175 110   191 171 102   182 162  88   179 157  82   178 156  81   173 150  75   166 141  59   162 137  57   164 140  61   169 146  70   177 152  85   183 158  94   183 157  95   182 158  90   176 153  84   173 151  78   174 151  81   179 156  87   184 161  94   185 163  95   181 158  90   177 154  84   178 156  83   173 151  77   167 145  72   172 149  79   165 142  72   157 135  65   139 119  48   138 118  47   170 152  80   186 168  96   189 171 101   191 172 106   192 174 108   194 176 109  
 240 228 175   223 200 138   176 139  71   153 114  45   181 151  88   215 195 143   225 211 165   234 220 174   231 217 169   230 217 165   229 216 163   224 209 154   218 199 146   207 187 128   200 180 118   195 176 108   188 168  98   184 163  90   181 159  86   175 153  80   175 153  70   153 131  48   148 126  43   155 133  52   165 142  66   170 146  74   172 148  78   176 152  79   175 152  76   171 148  70   166 143  63   164 141  63   164 142  66   165 143  67   164 141  63   154 131  52   154 131  51   160 137  60   165 142  67   169 146  73   160 137  69   153 130  60   134 114  39   152 133  56   163 146  66   159 142  60   158 141  62   165 147  73   172 154  80   172 154  78  
 232 219 168   232 210 151   198 164  96   160 119  47   178 141  72   207 182 123   210 193 141   228 211 161   232 218 166   226 214 162   228 216 164   230 216 164   227 211 159   218 199 146   207 188 132   201 182 122   199 178 115   193 172 106   187 165  98   180 157  92   181 159  83   165 144  67   149 128  47   138 118  33   143 121  36   149 127  44   149 126  45   155 129  53   156 133  51   156 134  49   152 130  45   148 126  41   144 122  39   145 123  40   149 127  44   140 118  33   138 116  32   143 121  40   154 131  54   159 135  61   152 129  61   142 119  49   144 124  49   150 131  53   147 129  46   144 128  41   138 121  36   145 127  49   155 138  58   156 139  57  
 219 205 153   222 203 147   204 173 107   166 124  51   166 123  49   185 153  86   194 169 111   222 202 147   234 217 164   226 213 161   227 215 165   231 218 168   231 214 166   224 206 158   210 192 142   202 182 128   199 180 122   197 176 117   197 173 113   195 171 111   185 164  96   181 158  88   171 149  71   150 130  45   137 117  30   143 122  33   149 127  41   146 124  42   140 118  33   134 112  26   133 111  25   129 109  22   126 106  20   126 105  22   129 109  24   130 110  24   133 113  28   129 108  27   136 114  37   143 121  45   137 114  46   139 116  47   156 134  61   146 127  50   147 129  48   155 137  53   157 140  56   154 135  57   153 135  53   149 131  46  
 206 186 133   216 194 140   203 174 112   176 135  63   164 118  40   162 121  46   174 143  74   205 183 121   224 206 148   222 209 156   228 216 166   231 216 169   231 214 168   231 214 166   220 204 153   208 191 137   201 182 123   196 175 115   194 173 111   193 169 107   186 165 100   180 159  90   180 160  84   169 148  66   150 129  44   145 125  38   152 131  45   151 130  46   142 122  35   130 110  23   121 101  14   117  98  12   117  99  15   114  96  13   113  95  13   115  97  13   125 107  23   125 107  26   136 117  40   136 116  43   119  95  28   139 116  47   154 132  60   155 135  60   162 143  66   164 145  68   173 153  76   171 150  75   162 143  63   158 140  54  
 179 156 102   204 182 128   196 169 108   183 143  71   167 120  38   142  98  17   151 116  42   181 156  91   206 185 125   214 201 145   227 215 165   231 215 169   234 214 171   237 219 171   234 218 166   229 212 156   219 200 139   210 189 125   201 180 115   193 169 105   187 166  99   178 158  88   175 156  81   175 155  75   168 147  66   153 131  51   142 120  38   145 125  39   148 128  41   138 121  33   122 105  17   113  95  10   115  97  16   116  99  19   112  95  15   110  93  11   123 107  25   139 122  42   160 143  66   150 132  57   127 102  35   142 118  50   144 121  51   160 139  68   169 149  76   171 151  78   176 155  83   183 162  90   178 158  81   179 160  75  
 169 151  95   193 168 109   183 150  80   163 124  40   155 113  27   152 107  29   134  91  20   157 124  49   186 165  90   207 192 126   216 197 141   231 211 159   231 216 164   231 218 171   232 219 174   233 221 172   229 216 163   222 208 151   215 199 140   207 190 129   204 188 124   202 184 122   201 183 122   198 179 114   191 173 100   175 158  76   155 137  48   144 123  31   141 120  30   139 119  33   135 117  33   131 113  34   123 106  29   129 111  28   128 110  24   128 110  26   129 111  30   138 118  44   150 130  62   135 114  51   149 128  62   146 126  55   148 129  50   165 147  65   171 152  74   176 156  85   182 162  95   190 171 103   190 171 102   189 171  97  
 160 141  75   175 149  84   169 135  63   149 110  26   142 101  12   150 110  26   127  88   9   134 102  24   162 142  64   192 177 106   198 180 118   211 190 136   221 203 153   221 206 160   225 209 164   229 213 166   226 210 160   223 207 155   223 207 155   222 205 151   219 202 150   217 200 150   222 203 153   224 204 152   220 201 143   206 187 119   185 166  89   163 142  53   139 118  31   133 113  27   140 123  39   146 128  47   140 123  43   142 124  43   149 132  50   145 128  46   147 130  51   157 139  65   146 128  60   126 106  43   158 137  69   155 136  63   157 139  59   160 142  60   168 149  72   176 156  86   182 162  94   187 168 100   186 167  98   185 167  95  
 146 123  45   155 127  52   155 121  43   137 100  12   139 103   8   150 114  21   128  94   7   113  85   8   129 112  32   172 160  78   182 164  93   191 169 111   205 185 132   210 190 140   214 194 144   219 199 149   220 200 152   221 203 155   221 202 155   217 199 153   221 203 155   222 204 159   225 206 163   224 206 161   226 206 155   218 199 141   204 185 118   184 163  80   164 145  63   155 137  55   154 136  54   158 141  61   165 148  68   168 150  74   173 155  81   170 152  76   169 151  77   176 158  87   161 142  75   155 136  72   167 147  78   166 147  72   169 150  70   160 142  60   167 148  71   175 155  83   182 162  94   188 168 103   188 170 102   183 165  94  
 144 117  30   150 118  36   154 117  34   146 107  17   149 113  12   150 118  15   133 104  10   105  78   7   103  84  10   148 137  48   165 147  66   174 152  81   181 160  98   190 168 109   200 178 118   209 188 130   214 193 139   212 192 140   207 188 138   209 191 142   213 196 143   220 203 152   224 206 156   222 205 155   222 205 153   222 204 148   216 199 137   205 185 116   188 169  99   180 161  92   177 159  87   177 160  88   180 163  91   180 161  92   180 161  93   184 165  97   181 162  93   181 162  93   172 153  87   183 163 100   174 155  85   173 156  81   174 157  77   166 149  67   167 149  71   173 154  81   181 161  92   192 172 106   197 178 111   191 173 104  
 149 115  28   153 115  32   154 112  29   157 116  23   151 113  10   148 115   9   131 102   8    98  70   8    82  64   1   123 112  22   137 121  31   147 126  43   157 137  59   171 150  76   179 157  84   181 161  90   191 172 104   197 179 115   198 179 119   203 184 125   205 187 129   215 198 142   224 207 154   229 212 160   231 214 162   228 211 159   227 208 155   225 205 149   210 191 135   200 182 124   198 179 121   200 181 122   198 179 120   198 178 116   197 177 114   184 165  99   179 160  92   175 156  89   174 154  90   187 167 105   185 168  99   181 164  93   175 159  82   174 157  78   168 150  72   170 152  77   181 161  90   194 174 106   199 180 112   199 182 113  
 139  97  19   145 100  24   146  98  17   153 107  14   152 111   7   143 107   3   130  96   4    95  64   6    80  58   4   115 103  15   119 104  13   127 107  18   140 123  34   149 132  48   154 137  54   152 133  54   153 136  58   163 145  70   175 157  84   190 172 100   197 176 118   204 183 127   211 191 138   221 201 151   228 207 160   224 204 159   221 201 155   222 204 156   222 204 156   215 198 148   206 188 138   206 189 137   208 191 139   212 193 135   210 190 128   175 157  90   172 153  87   175 156  90   174 154  91   179 159  98   197 181 119   191 174 108   178 162  89   178 161  84   168 151  73   170 153  75   180 162  86   190 170 101   193 173 105   200 183 114  
