P3
50 50
255
  89  91  77    93  96  81    86  91  76    58  66  50    48  59  43    73  84  70   103 115  99   136 149 130   142 155 137   135 148 135   136 148 138   137 149 139   129 141 129   114 125 116    99 111  98    76  89  72    67  78  66    41  45  39    28  29  22    44  42  30    77  80  61    80  85  69    79  86  72    56  64  51    54  60  48    31  36  24    35  37  24    50  51  36    43  44  29    30  28  15    30  28  15    34  32  19    33  31  19    33  31  19    32  30  18    28  27  15    37  37  25    42  42  30    26  26  14    24  24  12    26  24  11    31  29  16    37  35  23    38  37  27    32  32  22    21  21  13    23  22  15    25  22  17    29  26  20    27  24  15  
  48  50  39    44  49  35    69  76  61    75  84  68    64  72  57    78  85  73    73  81  67    48  61  40    58  71  52   103 115 100   105 117 103    99 112  97   103 116  99    84  96  80   103 115  96   122 134 114    78  88  74    30  35  28    17  18  10    34  32  19    69  72  51    58  61  44    54  59  46    46  52  41    46  49  40    36  37  29    48  49  39    43  44  28    39  40  24    35  36  20    36  34  19    30  28  13    32  30  15    32  31  14    39  38  20    40  38  24    54  52  39    45  43  30    38  35  21    29  27  12    37  33  21    30  27  15    28  26  14    28  26  14    30  29  19    27  27  17    30  29  19    30  27  18    30  28  19    34  32  20  
  36  37  29    53  57  45    85  92  77    82  91  74    57  63  49    47  50  39    40  43  33    33  41  26    52  60  47    71  79  68    56  64  52    57  65  51    59  68  52    48  55  41    45  52  36    70  79  63    63  70  59    29  32  28    27  29  22    40  41  27    45  46  30    44  46  33    61  65  52    64  67  56    51  53  42    56  56  44    46  45  33    35  37  25    35  36  24    34  34  22    27  27  15    27  27  15    30  31  17    37  36  18    51  51  32    54  52  38    47  45  32    39  37  25    48  46  34    51  49  34    48  45  31    41  37  25    33  30  17    33  31  18    29  29  17    30  30  18    32  31  19    33  31  18    32  30  17    32  30  17  
  63  66  58    93  97  86    67  74  59    41  50  33    41  46  32    27  28  18    41  43  34    74  79  71    72  77  70    43  48  42    50  55  48    55  61  51    45  51  38    29  32  24    20  23  15    19  25  16    49  54  48    35  38  35    24  25  19    35  36  21    61  58  49    46  46  38    62  63  55    68  69  59    71  72  59    67  66  48    46  46  30    30  31  25    40  41  35    46  47  39    29  29  22    29  29  21    30  30  21    37  36  20    62  60  44    80  78  65    50  47  38    38  35  26    38  35  24    51  46  35    63  57  43    53  50  35    35  32  17    37  35  22    32  32  18    33  34  20    30  30  15    32  30  15    31  29  14    30  28  13  
 111 125 110    77  87  76    32  35  29    29  26  23    31  26  22    35  33  23    57  59  43    91 100  79    52  57  42    33  35  26    41  42  36    34  35  30    26  30  24    24  24  20    22  21  16    22  24  15    51  54  43    49  54  43    24  29  22    21  27  22    41  41  31    60  60  50    98  98  91    89  88  83    56  55  48    60  60  50    53  53  42    46  47  34    39  39  29    30  30  24    28  27  22    28  28  20    36  36  26    47  45  32    54  52  38    58  58  46    44  44  37    42  42  35    33  31  22    32  29  19    37  34  22    34  32  20    40  38  26    42  40  27    45  44  29    44  42  27    33  30  16    30  28  16    25  23  11    25  23  11  
  96 108  92    31  40  27    19  22  14    23  22  17    25  22  17    18  18  10    57  59  47    68  76  59    37  42  27    34  36  27    30  31  25    28  30  23    30  34  26    33  37  29    35  38  29    31  38  26    60  68  54   100 109  97    94 104  95    69  80  72    81  93  79   111 122 109    94 103  92    52  58  48    38  42  31    62  64  51    89  92  77    77  81  65    46  49  37    28  31  22    31  34  25    38  40  31    51  53  41    43  42  28    29  30  15    24  24  14    21  22  15    34  34  27    30  30  22    34  31  22    31  28  18    29  27  15    34  32  20    35  34  22    41  39  26    49  47  34    49  47  34    44  42  30    35  33  21    28  26  14  
  82  90  75    27  34  20    27  29  20    18  19  13    18  19  13    28  29  21    61  64  54    47  53  39    39  43  31    39  40  32    41  42  34    64  68  58    72  78  65    76  83  70    88  96  83    97 106  90    97 109  93   123 136 120   139 153 139   150 163 153   144 169 150   132 154 139    72  91  77    34  47  34    39  47  32    58  65  47   110 117  97   133 144 126   104 113  97    64  72  57    59  64  52    63  67  53    56  60  45    44  45  32    26  28  17    17  20  12    16  19  12    25  28  21    23  25  17    19  19  11    18  18  10    20  20  10    23  23  13    25  25  15    26  26  16    30  30  20    36  36  24    39  39  27    33  33  21    28  28  16  
  53  59  45    59  64  51    38  41  31    19  22  13    19  22  15    41  44  37    52  56  47    33  38  27    45  47  38    42  43  36    40  41  33    52  56  44    59  66  51    64  70  55    70  76  62    73  79  65    56  62  48    48  56  42    61  72  58    96 107  93   102 123 108   116 134 120   112 129 116    91 105  89    71  84  66    70  82  59    92 104  81   117 131 111   141 154 136   138 149 132   104 113  96    65  72  56    57  62  47    52  55  43    38  41  30    34  40  30    33  39  30    34  39  32    32  36  29    20  21  15    20  20  12    23  23  15    21  21  13    20  20  13    19  19  11    15  15   7    15  15   7    19  19   9    20  20  10    22  22  12  
  30  33  22    73  77  65    69  75  63    36  42  30    22  28  18    48  54  44    40  46  36    28  32  23    29  31  24    17  18  12    20  22  13    27  32  17    30  38  20    32  34  20    38  38  26    37  37  27    34  35  24    30  32  21    40  42  31    57  58  48    46  50  41    44  50  40    57  64  53    76  84  71   108 119 102   125 137 115    91 105  82    63  76  58    71  83  66   105 116  99   118 127 110    82  89  73    49  54  39    44  48  37    40  43  34    35  41  29    49  57  44    52  59  47    36  40  31    24  27  18    29  29  21    33  33  25    27  27  19    21  20  14    22  21  16    21  20  15    20  19  13    18  18   8    19  19   9    21  21  11  
  25  30  22    47  53  43   101 109  95    95 103  88    47  54  39    30  33  22    32  35  25    30  33  24    24  26  19    15  17  10    21  22  14    38  42  29    45  53  35    36  36  23    38  34  25    38  35  28    45  43  38    43  40  34    47  44  37    50  47  38    49  44  39    42  37  32    29  28  22    29  31  23    65  71  57    98 107  90    73  83  66    49  55  42    33  40  25    45  52  36    77  83  67    88  92  77    63  67  53    43  45  35    38  41  30    29  35  21    68  76  61    77  84  69    38  42  30    28  29  21    29  30  22    36  37  29    34  35  27    23  24  16    18  19  13    21  22  16    23  24  17    25  25  15    24  24  14    24  24  14  
  27  32  28    59  67  59    88  99  85   107 117 100   102 109  93    51  55  40    30  33  20    33  36  25    37  38  29    41  42  34    35  36  28    41  46  33    56  65  49    40  44  32    28  28  20    30  29  24    37  36  32    36  35  31    35  36  30    37  38  30    33  30  23    29  27  20    28  28  23    40  41  35    49  52  43    46  49  38    36  40  29    32  32  25    29  29  18    29  31  17    36  38  24    55  57  43    57  60  48    55  58  47    59  62  49    51  55  40    85  92  74    87  93  76    47  49  36    36  38  25    33  35  24    40  42  31    47  49  38    36  37  28    20  21  13    18  19  11    19  20  11    22  22  12    21  21  11    22  22  12  
  31  37  36    54  63  57    33  45  32    29  40  23    75  82  64    90  93  76    57  59  45    43  46  34    40  41  33    32  33  25    41  42  34    62  68  56    70  79  64    39  44  31    25  28  19    33  35  31    26  29  25    20  25  20    20  25  18    18  24  14    17  23  13    18  23  14    34  38  32    56  59  54    50  51  45    25  25  18    34  32  26    34  27  24    24  20  12    27  25  14    31  32  19    47  47  36    41  42  33    38  38  28    49  51  38    52  56  38    80  85  65    85  90  71    75  77  62    77  77  64    50  52  39    50  52  39    61  63  51    52  54  43    31  32  24    24  25  17    23  23  15    22  22  12    23  23  13    24  24  14  
  44  49  36    36  42  31    22  27  18    19  21  15    23  24  16    51  51  38    79  80  66    58  59  45    33  35  21    29  31  18    45  49  35    68  73  59    65  71  57    38  40  32    28  29  23    27  28  22    28  29  23    27  28  22    25  26  20    24  25  17    18  19  11    27  28  20    40  42  33    39  42  33    40  43  34    36  43  33    29  33  25    39  40  35    26  27  22    20  21  13    29  31  20    41  45  31    52  56  41    58  62  47    64  69  54    49  50  37    46  48  35    49  51  39    54  56  45    57  59  48    56  56  46    46  46  36    70  71  62    79  80  72    38  39  33    29  29  24    25  25  17    25  22  12    26  23  17    21  20  16  
  48  51  40    25  28  18    15  17   9    17  18  12    18  18  10    25  25  15    39  39  27    47  47  35    48  48  35    51  52  39    47  49  36    49  52  41    43  47  36    25  27  19    24  24  19    25  26  20    28  29  23    32  33  27    28  29  21    21  22  14    22  23  15    33  34  26    39  41  33    38  41  32    59  65  53    85  91  79    52  57  47    37  38  31    33  36  27    28  31  20    40  44  30    71  74  60    83  87  72    75  79  66    56  59  48    31  33  23    38  39  31    33  34  26    24  25  18    21  22  16    28  28  18    32  32  22    60  61  51    93  94  85    86  87  79    58  59  51    28  29  20    23  23  14    16  15   9    14  13   8  
  30  32  21    18  19  11    17  17  10    20  18  11    28  25  18    32  29  20    24  22  11    26  26  16    27  27  17    28  30  19    24  26  15    30  32  21    29  32  21    19  21  12    24  25  17    24  24  18    21  22  14    25  26  18    22  23  15    18  19  11    25  23  18    32  31  25    49  50  42    72  74  64    74  80  66   101 107  93   101 106  92    64  68  54    63  67  53    80  84  70    85  91  77    98 105  91    85  91  77    44  47  39    23  24  18    21  22  16    40  41  35    32  33  27    23  22  18    26  24  21    24  24  16    21  21  13    27  27  17    50  51  41   102 104  91    97  99  87    41  44  32    26  30  19    25  28  17    26  29  18  
  20  17  10    19  16   9    23  20  13    20  15   9    27  23  14    32  28  19    24  20  12    26  24  17    19  19  11    18  18  10    23  23  15    33  35  24    26  28  17    16  18   9    24  25  17    23  24  16    19  20  12    19  20  12    16  17  10    19  19  12    22  21  16    30  30  24    46  47  38    55  58  47    41  45  31    54  61  45   103 109  92   109 113  95    81  85  68    56  62  46    55  62  47    48  54  40    36  42  30    38  41  32    38  39  31    38  39  31    39  40  32    27  27  19    22  22  14    18  18  10    20  19  14    20  20  12    27  27  18    29  29  18    61  63  49    88  90  75    76  81  63    55  64  44    50  57  39    43  50  33  
  26  21  15    19  14   8    22  18  10    25  22  13    22  18   9    20  16   7    21  17   9    19  16   9    22  19  12    20  20  12    31  31  21    44  44  34    34  34  24    16  18   7    17  19   7    18  20   9    21  22  15    21  22  14    15  16   8    17  19  10    23  24  16    31  33  25    54  55  46    42  44  32    29  33  18    23  27  12    46  50  34    81  86  66    69  73  56    26  30  15    24  28  14    27  33  21    23  29  18    45  48  36    63  65  52    66  68  54    46  47  35    25  25  13    23  23  10    21  22   8    25  24  19    23  22  16    24  24  15    24  24  14    29  29  17    54  56  42    98 103  85   101 111  85    83  92  68    48  55  37  
  20  15  11    19  14   7    22  18   9    28  24  14    25  20  11    21  17   9    24  20  13    21  18  10    24  21  12    22  19  10    33  31  19    47  45  33    37  35  22    28  29  16    21  23  10    17  19   8    21  23  12    21  23  13    17  18  11    18  19  11    18  24  12    42  45  33    58  61  48    31  33  19    22  22  10    22  22  10    21  22   8    38  41  24    57  60  45    40  42  28    37  39  26    45  48  38    35  38  29    34  37  25    35  37  24    36  38  25    36  36  24    37  37  24    35  36  22    26  27  13    23  20  15    24  23  18    23  23  16    29  29  21    35  35  26    31  31  21    51  54  40    70  77  54    68  73  51    53  57  40  
  10   8   2    17  15   7    19  16   6    20  18   6    21  18   9    20  17  10    21  18  10    21  18   9    24  22  11    28  26  14    43  39  26    58  54  41    56  53  38    46  46  33    33  35  22    26  28  15    21  23  12    16  17   8    17  18  10    17  18  10    24  35  18    77  86  69    69  74  59    28  30  17    17  15   4    23  19  10    34  28  19    36  35  23    36  36  24    45  45  35    83  83  73    69  69  61    26  27  19    16  17  12    12  13   7    10   9   4    10   9   4    14  13   7    14  14   6    17  17   9    22  19  14    24  21  16    27  26  21    28  27  22    28  27  22    21  20  15    18  17  11    21  21  12    31  31  20    59  60  46  
  15  12   8    12   9   3    14  13   2    19  19   7    20  20  10    20  20  12    22  21  14    25  23  11    25  23  11    25  21   9    31  27  12    49  46  30    65  62  45    74  74  59    70  72  59    69  71  58    57  59  48    44  46  36    48  49  41    47  48  40    68  81  61    88 100  81    45  51  35    19  20   7    22  18   9    23  16   9    40  32  26    38  35  26    26  23  14    29  26  17    54  50  44    38  35  28    10  10   2     6   6   5     5   5   7     5   3   6     8   6   7    12  10  10     7   6   4     9   9   7    16  13   8    15  12   7    14  12   7    17  16  12    15  14  12    10   9   7    12  10  11    17  13  16    18  15  12    21  20   9  
  10  11   6    11  12   7    13  12   7    12  12   5    15  13   4    19  16   7    21  18  10    22  19  12    20  17  10    19  16   9    18  15  10    17  15  10    21  18  13    24  23  16    29  29  21    44  44  34    54  56  45    60  62  49    66  68  54    71  73  59    88  97  78    56  62  45    27  29  15    20  17   6    16  12   1    28  24  13    36  33  22    34  31  23    19  16   9    13  13   5    14  14   9    11  10   5     8   9   3     5   5   1     5   4   1     5   4   1     6   5   1     6   5   1     7   5   2     7   6   2     9   8   4     9   8   4    10   9   5    10  10   5    12  11   7    12  11   7    11  10   7     9   8   6    10   9   7     7   8   3  
   8   9   4    10  11   6    14  13   8    15  15   8    19  17  10    22  19  10    22  19  10    19  16   9    16  13   6    15  12   5    12   9   4    10   7   2    11   8   3     8   7   2     3   2   1     4   3   1     6   7   1    10  11   4    26  27  20    44  46  36    42  48  36    24  27  17    23  24  16    21  19  12    11   8   1    24  21  14    30  27  20    19  16   9    14  11   4    12  11   6    13  12   7    10   9   4     7   8   3    10  10   5    11  10   6     8   7   3     5   5   1     5   4   1     5   4   1     6   5   1     8   7   3     8   7   3     8   7   3     9   8   4    11  10   6    11  10   6    10   9   5     8   7   4     7   6   4     5   6   1  
  13  12   8    13  12   8    16  15  10    17  16  11    17  17   9    18  15   8    17  15   7    16  16   8    15  15   7    15  14   9    13  12   7    11  10   5    12  11   6    11   9   8    13  12  10    10   9   7     2   3   1    13  14   9    31  32  27    39  39  34    25  26  21    14  15  10    23  21  17    19  16  11    11  10   5    28  27  22    21  21  15     9   6   1     7   5   1     5   4   1     5   4   1     6   5   1     8   7   3     9   8   6     9   8   6     7   6   4     6   5   3     6   5   3     7   5   4     8   7   5    11  10   6    10   9   5    10   9   5    10  10   5    12  11   7    12  11   7    12  11   7    11  10   6     7   6   4     7   7   5  
  18  17  13    17  16  12    18  17  12    19  18  13    18  17  12    16  15   9    14  14   6    14  13   8    15  14   9    17  16  11    17  16  11    15  14   9    16  15  10    14  13   9    17  16  12    18  17  13    14  15  10    24  25  19    32  33  27    22  23  17    10  11   6    12  11   6    22  19  12    21  18   9    29  28  19    31  33  22     8  10   3     5   4   1     6   5   1     3   2   1     2   1   1     6   5   1     7   6   2     5   4   1     4   3   1     5   4   2     6   6   3     8   7   5     7   6   4     6   5   3    10   9   5     9   8   4     8   7   3     9   8   4    10   9   5    10   9   5    10   9   5    13  12   8    11  10   7     9   9   7  
  17  16  12    16  15  11    17  16  12    19  18  14    21  20  15    20  21  15    19  19  13    16  15  10    17  15  10    19  18  13    19  18  13    18  17  12    19  18  13    20  20  12    15  15   5    15  15   5    18  20   9    19  21  10    18  20   9    15  17   6    16  16   8    19  18   7    29  27  13    36  34  19    42  43  27    27  32  17     6  10   1     8   9   4    12  12   7    12  11   7    12  11   7    12  11   7     9   8   4     7   6   2     8   7   3     8   7   3     9   8   4     9   8   4     6   6   1     4   3   1     6   5   1     5   4   1     4   3   1     4   3   1     4   3   1     4   3   1     4   3   1     8   7   3     9   8   4     5   5   3  
  14  13   9    13  12   8    13  12   8    14  14   9    16  17  12    18  19  14    17  18  13    12  13   8    13  14   9    17  18  12    17  18  12    17  18  12    20  21  15    27  27  17    27  27  15    28  28  16    27  29  16    25  27  14    28  30  17    33  34  22    36  38  25    39  40  24    52  51  32    58  57  37    44  44  28    23  25  11    19  21  12    17  18  13    18  19  13    18  19  13    20  19  14    20  19  14    18  17  12    17  15  10    15  14   9    13  12   7    12  11   6    13  12   7    12  11   6    11  10   5    11  10   5     9   8   3     8   7   2     8   7   2     9   8   3     8   7   2     7   6   2     6   5   3     5   3   1     3   4   1  
  14  13   9    14  13   9    12  12   8    10  11   6    10  11   6    11  11   9    10  10   7     8   9   4     8   9   4    10  11   6    11  12   6    13  14   8    17  18  12    16  17   9    21  21  13    26  27  19    20  21  13    20  21  13    26  27  19    28  29  21    27  31  17    44  46  31    62  62  45    57  55  40    35  35  22    17  16  11    20  21  15    21  22  16    20  21  15    19  20  12    19  20  12    21  21  13    23  23  13    21  21  13    19  19  11    18  18  10    18  18  11    21  21  13    20  20  12    19  19  11    20  19  14    17  16  11    16  15  10    16  15  10    16  15  10    16  15  10    14  13  10    10   9   8     7   6   3     9   9   4  
  16  15  11    17  16  12    16  16  11    12  13   8    10  10   8     9  11   8    11  13  10    14  15  10    12  13   8    12  13   8    11  12   6    11  12   6    14  15   9    13  12   8    12  11   7    16  15  11    14  15  10    11  12   7    12  12   9    14  14  12    21  27  17    49  51  39    54  54  40    31  28  16    22  19  14    16  14  15    15  14  15    18  21  12    21  23  14    22  23  15    20  22  11    19  19   9    20  20   9    23  23  12    23  23  13    23  23  13    25  25  15    26  26  16    23  23  13    19  19   9    20  19  14    18  17  12    17  16  11    16  15  10    16  15  10    15  14   9    15  13  10    15  13  13    16  15  11    16  17   9  
  20  21  15    18  19  13    17  18  12    15  16  11    14  15  10    12  12  10    12  12  10    14  16  11    14  16  11    19  21  16    21  23  18    19  21  16    22  24  19    20  22  18    15  17  12    14  16  11    13  15   9    13  16   8    19  22  13    31  34  25    39  41  28    45  47  35    33  34  25    17  18  11    13  14   9    12  12   9    11  10   7    17  16  11    18  17  12    17  16  12    15  14  10    14  13  11    16  15  13    14  13   9    16  14  11    14  13   9    16  15  11    19  18  14    15  14  10    15  14  10    18  18  10    19  19  10    18  18  10    18  18  10    21  21  13    20  20  12    17  17  10    13  14   8    10  11   5    11  12   6  
  17  18  12    18  19  13    17  18  12    15  16  11    12  13   8    13  14   9    13  13  10    12  14   9    12  14   9    18  20  15    23  25  20    25  27  22    29  31  26    27  29  26    26  28  23    21  23  18    18  20  15    24  27  20    33  36  27    38  41  32    34  36  25    34  36  26    22  23  15    12  13   6    14  15   9    20  19  15    18  17  13    13  14   8    12  13   7    11  12   6    10  11   6    10  10   5     9  10   5    10  11   5    13  14   8     9  10   4     7   8   2    10  11   5     9  10   4    12  14   7     8   9   3    11  11   6    13  14   8    16  17  11    20  22  15    21  22  16    19  20  14    19  20  14    18  19  13    18  19  13  
  15  16  10    17  18  12    18  19  13    15  16  11    13  14   9    15  16  11    18  19  15    17  19  16    17  19  15    21  23  20    25  27  24    24  26  23    25  27  24    26  28  25    29  32  27    29  32  27    27  29  23    28  31  24    30  33  26    29  32  23    29  32  25    29  31  24    24  25  19    21  22  16    23  24  18    22  23  17    22  23  17    23  24  16    23  24  16    20  21  15    18  19  13    15  15  10    14  15   9    15  15  10    17  18  12    15  16  10    13  14   8    12  13   7    10  11   5    11  12   6    13  14   8    13  14   8    13  14   8    12  13   7    14  15   9    14  15   9    13  14   8    18  19  13    18  19  13    17  18  12  
  13  14   9    14  15  10    15  16  11    13  15  10    13  14   9    15  16  11    18  19  15    18  20  19    18  20  19    22  24  23    26  28  27    24  26  25    22  24  23    17  19  16    19  22  17    26  28  23    29  31  26    23  26  20    21  24  17    27  30  23    36  38  35    30  32  27    24  26  20    26  27  21    29  30  22    29  30  22    30  31  23    29  30  22    30  32  24    28  29  21    22  23  15    18  19  10    18  19  11    19  20  12    20  21  13    20  21  13    20  21  13    20  21  13    17  18  11    15  16   8    18  19  13    16  17  11    15  16  10    14  15   9    16  17  11    19  20  14    20  21  15    21  22  16    20  21  15    18  19  13  
  13  14   9    12  13   8    11  12   7    12  13   8    13  14   9    15  16  11    14  15  11    12  14  13    12  14  13    17  19  18    24  26  25    26  28  27    26  28  27    23  25  21    23  25  20    25  27  22    24  26  21    18  20  15    17  19  14    24  26  21    29  32  29    24  26  23    21  23  19    28  29  23    31  32  26    30  31  23    30  31  24    27  28  21    28  29  21    30  31  23    29  30  22    26  27  19    25  26  18    20  21  13    15  16   8    12  13   5    13  15   6    17  18  10    17  18  10    14  15   7    14  15   9    13  14   8    14  15   9    15  15  10    16  17  11    18  19  13    19  20  14    20  21  15    18  20  13    17  18  12  
  18  19  14    15  16  11    14  15  10    15  16  11    17  18  12    18  19  13    17  19  13    15  17  14    13  15  12    15  17  14    18  20  17    22  25  21    25  27  24    27  29  25    30  32  27    27  29  24    23  25  20    21  23  18    18  20  15    12  14   9    18  20  17    17  19  15    19  21  17    25  27  22    26  27  21    21  22  16    22  23  18    27  28  23    25  26  21    29  30  24    36  37  31    38  39  33    34  35  29    28  29  23    22  23  17    21  22  16    23  24  18    23  24  18    21  22  16    15  15  10    16  17  11    17  18  12    19  20  14    17  18  12    14  15   9    11  12   6    12  13   7    15  16  10    12  13   7    12  13   7  
  22  22  19    20  22  17    20  21  16    18  19  14    19  20  14    21  22  16    22  23  17    21  23  18    19  21  16    18  20  15    18  20  15    18  20  15    18  20  15    19  20  15    22  24  19    24  26  21    24  26  21    26  28  23    22  24  19    15  17  12    20  22  17    18  20  15    15  17  12    16  18  13    17  19  14    17  18  13    20  20  16    23  23  21    20  20  17    21  22  17    25  26  21    29  30  25    29  30  24    31  32  26    33  34  28    39  40  34    42  43  37    39  40  34    34  35  29    27  28  22    26  27  21    27  28  22    29  30  24    27  28  22    23  24  18    21  22  16    22  23  17    23  24  18    21  22  16    20  21  15  
  21  21  19    22  22  19    21  22  17    17  18  13    16  17  11    19  20  14    20  21  15    17  20  13    20  23  16    22  25  18    23  26  19    22  25  18    20  23  16    20  23  17    20  22  17    22  24  19    25  27  22    22  24  20    20  22  19    22  24  21    17  19  14    19  21  16    19  21  16    20  22  18    19  21  18    17  17  15    17  17  16    17  19  18    16  17  16    11  13  10     8  10   7    10  12   7    15  17  12    18  20  15    22  24  19    30  32  27    34  36  31    33  35  30    34  36  31    33  35  30    34  36  31    31  33  28    30  32  27    28  30  25    24  26  21    24  26  21    30  31  26    37  38  32    36  36  31    32  33  27  
  20  21  13    22  23  15    22  23  15    19  19  11    17  17   9    21  21  13    19  19  10    19  20  11    19  22  14    18  23  17    20  26  22    20  25  19    24  28  21    28  28  24    24  25  20    23  24  19    23  25  20    21  23  18    19  21  16    17  19  14    20  21  13    18  19  11    19  20  14    19  20  15    16  18  15    17  19  16    19  21  17    17  19  14    17  19  14    11  13   8    15  17  12    20  22  17    21  23  18    24  29  26    29  34  32    28  34  32    20  26  24    19  25  23    29  35  32    40  46  44    35  44  39    37  46  41    39  48  43    29  38  33    30  37  33    27  33  29    30  35  30    30  35  28    29  34  27    27  32  25  
  25  30  24    18  23  17    19  23  17    22  24  19    23  25  20    24  25  20    23  24  19    24  24  19    25  27  23    27  29  28    25  27  26    25  27  23    24  24  19    23  23  18    19  20  15    20  21  16    19  21  16    18  20  15    18  20  15    16  21  15    19  22  14    15  18  12    14  16  11    15  17  13    18  19  17    20  24  23    27  31  29    33  35  32    28  31  27    25  27  24    32  34  30    37  39  36    37  39  36    37  42  40    32  38  36    30  36  34    31  37  35    27  33  31    20  26  24    18  24  22    12  21  16    20  26  22    29  35  31    28  34  30    25  31  27    19  26  22    18  24  20    26  31  27    33  38  34    35  37  34  
  39  48  47    24  33  32    22  31  30    21  28  27    21  27  27    19  25  25    26  30  30    25  26  27    27  28  30    30  34  36    25  26  27    24  24  23    28  26  23    28  28  25    24  26  23    23  25  22    22  25  22    21  26  22    26  31  27    31  36  32    29  34  30    29  34  30    30  34  32    32  37  36    38  44  44    44  50  50    44  49  48    37  42  38    32  37  33    26  31  27    25  30  26    20  25  22    16  21  17    17  22  18    13  18  14    12  17  13    18  23  19    22  27  23    19  24  20    17  22  18    13  20  13    15  22  15    17  23  16    13  18  12     8  13   7    14  19  13    16  20  15    19  21  20    24  26  25    30  32  31  
  34  46  48    38  49  51    58  68  70    56  66  68    42  52  54    32  42  44    45  55  57    43  51  54    21  31  33    19  29  32    27  35  37    31  34  34    35  36  33    29  32  30    21  25  24    21  25  24    24  28  27    26  32  30    30  36  34    34  40  38    42  48  46    39  46  46    32  41  40    27  36  35    27  35  37    27  34  37    23  30  31    23  27  26    25  29  28    25  29  28    22  26  25    16  20  19    16  20  19    13  18  15    16  21  17    18  23  19    15  20  16    17  22  18    20  25  21    18  23  19    24  29  23    22  27  21    19  24  18    18  23  17    18  20  15    28  30  25    26  28  23    24  26  23    24  26  23    23  25  22  
  23  34  36    36  47  49    62  73  75    61  72  73    49  60  62    44  56  57    60  73  75    60  75  78    44  59  62    36  51  54    43  56  57    38  49  49    35  45  43    35  44  41    29  38  35    28  37  34    30  38  35    30  36  34    26  32  31    22  28  26    17  26  25    16  24  26    12  20  22     9  19  20    12  22  23    13  23  24    13  21  21    20  26  24    20  26  23    16  22  20    14  19  18    11  17  15    15  21  19    18  24  20    22  27  23    21  26  22    20  25  21    30  35  31    39  44  40    39  44  40    37  42  36    29  34  28    21  26  20    21  26  20    21  26  20    24  29  23    19  21  16    17  22  15    17  22  15    16  21  14  
  30  40  42    34  44  46    46  56  58    39  49  50    25  36  38    22  33  35    35  48  49    54  71  72    63  81  83    55  75  76    49  67  68    39  54  54    39  52  51    44  55  53    38  48  48    36  46  45    36  46  45    38  47  46    39  48  47    38  47  46    34  42  44    36  45  46    39  47  49    40  48  50    38  48  49    33  43  44    30  39  40    31  40  39    23  32  31    18  27  26    25  35  34    34  43  42    42  51  50    41  48  46    35  40  38    33  39  37    44  50  48    56  62  60    54  60  58    46  52  50    52  58  54    51  57  53    43  49  45    30  36  32    23  29  25    23  28  24    18  24  19    19  26  18    15  23  15    19  26  18  
  32  37  40    26  31  34    22  28  31    17  26  27    21  29  31    34  42  44    39  49  50    40  51  52    44  57  58    44  58  61    45  60  63    41  54  56    44  54  56    51  63  63    47  59  59    40  52  52    35  45  46    31  41  42    34  44  45    39  48  49    41  46  49    41  48  48    45  54  53    48  57  55    44  53  52    37  45  44    33  42  41    35  44  43    29  38  37    26  35  34    35  44  43    46  55  53    51  60  59    46  55  54    43  53  52    49  59  58    63  73  72    71  81  80    61  71  70    45  55  54    49  58  57    62  71  70    65  74  73    51  60  59    48  57  56    45  51  51    40  47  46    39  49  45    39  48  45    40  49  46  
  25  29  30    21  25  26    18  22  23    15  20  21    17  23  23    24  31  31    22  29  28    20  24  24    23  30  32    41  50  55    47  56  61    36  44  49    37  45  48    33  46  47    32  44  44    36  48  48    35  46  46    32  42  43    36  46  47    42  52  53    32  38  38    27  33  33    26  32  32    27  35  34    26  35  34    25  34  31    24  33  32    27  35  37    31  39  41    31  39  41    35  43  45    40  48  50    40  48  50    39  50  51    44  57  57    42  54  54    38  51  51    44  56  56    47  59  59    40  53  53    37  47  46    41  51  50    42  52  51    38  48  47    53  62  61    51  60  59    42  51  51    38  48  50    47  57  59    61  71  73  
  16  20  21    12  17  18    19  25  25    23  29  29    30  39  38    38  47  48    26  33  33    23  29  25    21  27  23    29  38  33    26  35  30    22  32  28    18  29  25    24  28  30    20  24  27    17  25  27    17  28  29    23  34  36    41  51  53    44  52  55    40  45  48    27  32  34    22  26  28    23  27  28    27  32  32    30  34  35    30  35  36    31  40  39    24  33  32    34  43  42    39  48  47    28  37  36    30  39  38    33  38  37    30  34  33    32  36  35    37  43  41    41  48  47    45  54  53    48  57  56    53  57  56    44  49  48    38  44  42    36  44  41    39  48  45    48  59  55    46  55  54    46  52  50    48  53  52    45  54  51  
  27  33  33    37  43  43    49  56  57    45  53  55    32  40  42    27  37  38    21  29  30    25  29  28    24  28  28    24  29  30    16  22  22    16  25  24    19  28  27    18  26  28    25  35  37    25  36  38    26  40  43    20  34  37    20  32  36    24  33  38    24  32  34    27  35  37    37  45  47    38  46  48    38  43  46    43  49  49    44  51  51    37  47  46    32  42  41    32  42  41    32  42  41    25  35  35    27  37  36    26  36  35    29  38  37    25  34  33    25  34  33    25  34  33    24  33  31    37  46  43    35  41  39    32  38  36    37  45  42    32  41  39    28  38  37    30  40  39    37  46  45    35  44  43    29  38  36    27  36  33  
  33  43  44    55  65  66    48  58  60    36  46  47    40  50  52    45  57  59    41  50  52    37  40  44    30  35  39    35  40  44    33  41  44    33  41  44    34  42  46    32  46  51    39  57  61    55  74  78    54  73  77    64  81  85    60  73  79    54  65  71    35  46  48    29  40  42    34  45  47    42  52  54    44  54  55    40  50  52    35  45  46    33  43  44    30  40  41    28  38  39    28  38  39    35  45  46    52  62  63    57  70  71    59  73  74    57  69  69    52  64  63    40  51  48    23  34  30    26  35  32    35  41  39    28  35  34    31  40  39    31  41  40    41  51  50    40  50  49    44  54  55    37  47  47    33  42  41    36  44  42  
  35  46  48    49  60  62    47  58  60    50  61  62    48  59  63    47  58  62    49  59  63    37  46  51    35  44  49    54  65  71    63  74  80    54  67  73    54  67  73    58  78  84    53  76  83    61  85  89    53  73  79    56  74  80    51  66  73    34  47  55    31  45  46    35  49  50    42  56  57    43  55  56    41  52  54    37  49  49    34  45  45    35  45  46    36  46  47    39  49  50    33  43  44    32  42  43    49  59  60    60  73  76    55  70  73    55  71  71    59  72  72    57  68  65    48  59  55    41  50  46    51  60  59    30  38  37    38  47  46    49  59  58    44  54  53    36  46  47    50  60  61    51  61  62    56  65  65    65  74  71  
  31  42  44    32  43  45    37  48  50    53  64  66    44  54  58    35  46  50    44  56  61    37  52  57    44  59  64    61  78  82    63  81  85    47  66  71    45  64  70    54  77  82    50  75  79    38  59  64    40  58  64    30  46  52    29  43  48    25  38  44    29  43  44    38  52  53    38  51  52    25  37  38    24  36  36    32  44  44    35  46  46    34  44  45    32  42  43    36  46  47    33  43  44    32  42  43    42  52  53    41  54  57    33  48  51    28  42  43    31  42  42    40  51  48    47  57  52    43  52  47    42  48  46    28  37  34    35  44  41    43  52  50    33  42  41    38  47  46    56  65  64    58  68  67    47  56  55    51  57  55  
  38  50  50    44  55  55    40  52  53    46  57  59    51  61  63    51  61  63    56  67  69    57  72  75    49  64  67    37  55  57    37  55  57    37  57  59    42  61  65    50  69  73    53  71  75    35  50  55    39  52  55    38  49  53    34  45  48    36  47  49    35  45  47    43  53  54    43  53  53    35  45  44    33  42  41    30  39  38    29  38  37    42  51  50    33  43  42    28  37  36    27  36  35    31  40  39    32  41  40    33  43  43    40  50  51    33  42  41    25  34  32    30  38  34    28  34  30    26  32  28    31  37  33    34  40  36    30  36  32    28  34  30    30  36  32    40  46  45    49  56  54    57  64  62    46  53  50    39  45  41  
