P3
50 50
255
 125 113  68   100  96  37    61  59  22    35  31  21    24  21   5    58  64   1   130 140  18   157 165  37   153 152  58   128 120  56    97  76  43   129 111  68   125 109  59   109  97  37   137 131  49   126 125  21   120 123  13   103 105   4    70  73   5    34  35   2    28  26   4    49  43  29    75  67  47    73  65  44    34  35  21    21  26  22    72  68  56   141 140  98   145 144 101   116 122  76   143 157  79   165 176  92   148 142  82   187 168 117   191 174 122   160 145 116    82  70  57    72  62  38   125 111  72   100  85  51    50  36  24    44  35  38    63  53  42   125 125  66   177 186  75   191 207  71   194 210  70   163 176  44   161 171  56   155 162  62  
 110  97  56    73  62  31    52  53  21    46  47  18    74  79  20   115 128   9   146 162   6   144 151  11   143 139  38   142 132  57   137 122  74   155 140 103    95  78  54    58  43  21    80  68  33    89  83  30    98  95  27    85  84  11    99 102  14    81  82  20    49  47  14    55  48  27    78  67  41    80  72  45    32  30  14    10  15  11    27  28  20    82  80  60   147 144 107   170 173 120   179 189 119   188 196 114   146 146  70   126 116  63   156 142  92   156 143 113    88  79  65    39  27  14    89  74  47   138 124  85   101  90  62    43  32  28    46  38  30   102  99  57   140 144  50   180 190  60   201 212  75   171 180  56   158 166  52   162 171  57  
 109  94  53    70  55  34    74  71  34    59  57  24    72  73  18   112 120   9   147 162   2   149 160   3   141 141  29   134 123  56   155 147  93   159 148 115    80  66  50    56  43  28    58  46  27    67  59  35    84  76  45    77  72  32    84  78  24    75  72  25    67  62  24    72  64  35    57  44  22    50  38  20    31  28  13    18  22   9    17  22   9    35  34  25    93  90  56   168 168 111   199 202 140   181 186 109   123 129  49    70  71  18   102  93  52   162 154 119   145 137 116    52  39  34    52  36  28   138 125  87   162 154 110    86  75  54    40  36  29    69  63  47    80  73  29   117 112  32   168 166  65   185 183  84   178 180  86   175 179  86  
 136 121  76    93  78  40   127 118  49   119 109  54    76  68  21    66  64   1   105 114   1   137 152   3   141 150  28   125 125  52   162 160 105   156 148 118    58  48  32    53  43  28    58  48  31    54  46  28    76  65  43    81  73  40    73  59  48    69  60  37    84  77  39    97  86  48    79  62  37    46  30  14    33  25  11    25  25   7    26  29  17    27  27  18    43  41  15   123 120  70   191 188 127   171 174 101   127 134  56    90 100  32    70  65  27   149 144 106   185 178 145    72  59  52    26  10  17    91  79  56   172 164 116   150 140 101    65  63  48    64  57  50    64  51  45    56  39  20    92  77  34   140 129  66   173 165 101   180 175 119  
 168 152 104   102  86  28   134 116  42   157 144  67   110  99  38    64  55  15    60  58   8    75  80   1   101 109  26   141 146  81   184 179 148   121 114  94    48  40  27    54  45  29    68  60  37    64  54  32    59  46  26    61  48  28    79  68  51    96  86  60   114 106  67   107  94  45   116  99  49   102  84  43    78  65  35    43  36  15    32  26  16    29  25  14    28  25  10    69  65  29   144 139  77   174 172 101   169 173  96   147 161  68    74  72  22   111 106  68   187 178 142    88  77  57    24  13  21    50  41  34   122 117  78   176 168 122   100  98  74    85  81  57    85  76  66    50  35  37    45  27  20    65  51  19   116 103  57   152 139  93  
 189 170 128    95  75  25    85  70  19   101  90  34    90  81  27    79  70  30    74  68  33    60  54  18    77  70  35   166 159 126   179 175 153    80  74  51    62  56  33    57  48  26    72  62  32    97  85  53    82  68  40    53  37  20    64  57  29   100  93  62   137 128  92   122 110  61   125 107  46   135 115  52   124 109  50    96  87  34    67  56  21    44  38  10    45  42  22    63  60  27   105 100  46   166 159 101   205 206 137   184 195 105    93  95  19    73  64  32   173 159 133   116 105  73    27  21  13    30  25  25    69  65  39   142 134  99   135 131 102   116 112  88    83  80  64    52  48  39    47  38  28    50  35  16    85  65  33   123 101  60  
 207 188 150    90  69  30    73  60  17    81  73  31    88  81  37    93  89  36    93  87  32    80  70  26    99  87  57   193 179 158   155 151 115   100  91  53   102  92  60    66  56  36    77  68  42   116 104  65   113  99  60    48  33   6    41  32  18    74  66  45   124 115  81   144 130  83   139 120  62   141 121  54   139 122  49   151 139  63   126 115  50    87  78  28    77  73  33    85  79  36    91  82  39   130 120  77   204 199 143   198 200 124   123 126  32    75  67  28   180 166 143   166 157 124    51  45  28    26  21  20    38  32  20    71  67  40   142 136 111   133 130 114    64  64  55    32  32  20    43  37  20    62  47  27    87  67  41   102  78  48  
 217 202 162   101  83  42    79  61  23    85  75  30    84  83  34    80  76  31    69  59  23    77  61  33   138 125  95   188 180 148   105  95  65   105  86  45   142 120  80    82  71  44    70  65  36    93  82  43    96  80  46    47  31  13    64  52  34    74  62  37    94  82  45   137 125  75   144 129  71   150 132  70   151 131  70   154 133  73   126 114  45   112  99  35   114 100  37   127 112  52   131 115  69   117 103  66   162 154 100   191 188 108   161 157  64   110 106  46   183 178 142   213 206 174   100  88  68    25  10  12    28  20  22    29  31  14    93  86  70   128 128 104    70  74  56    28  24  20    36  24  18    79  62  38   101  86  53    63  48  20  
 225 208 166   121 104  59    88  70  28    80  68  26    74  67  28    72  65  27    67  55  20    89  74  39   166 153 115   164 155 116    75  63  24   117  96  52   153 131  86   103  91  54    70  63  34    68  56  29    67  51  23    68  53  25   127 112  59   120 105  56   105  87  46   102  84  46   130 112  72   151 132  86   151 133  78   152 135  74   124 107  46   133 115  49   140 123  51   155 139  66   168 152  93   127 114  70   114 103  56   158 152  92   166 153  82   108  97  50   160 150 117   226 218 180   139 128  98    28  14   9    22  16  21    11  15  11    65  57  48   133 133 109    90  92  71    23  19  16    28  17  16    73  59  39    94  82  53    50  37  18  
 231 214 170   143 127  78   106  89  36    92  78  31    76  63  26    83  70  38    81  66  33   109  95  58   172 157 116   133 118  77   116 100  50   149 129  79   150 130  77   110  96  48    87  78  46    55  44  25    59  44  20   120 105  65   151 132  60   145 124  62   153 131  84   118  95  61   114  91  59   140 121  81   143 127  76   156 141  82   159 138  78   151 130  63   150 132  55   173 157  79   179 162  98   141 125  77   103  90  48   130 121  77   151 137  88    89  75  45   114 104  78   203 192 159   172 157 125    66  51  33    15   5   2    17  14   8    50  45  41   127 127 101   117 117  92    40  35  31    27  18  19    51  41  24    62  54  32    57  47  37  
 226 208 162   155 139  88   111  94  33   107  90  34    89  71  24    70  54  14    88  74  38   152 137 100   156 138  97   114  95  53   147 128  64   156 137  78   153 134  76   117 100  48    96  83  49    60  52  33    82  71  44   124 107  61   146 122  61   140 118  60   157 135  82   161 139  91   119  98  52   109  91  42   130 114  62   135 119  65   149 128  64   152 132  62   149 129  57   176 155  89   184 165 108   165 149  98   125 112  66   112 100  58   175 167 128   140 132 109    93  83  71   144 132 110   185 166 134   179 158 126   100  83  55    44  32   6    36  31  26    91  87  62   130 124  94    76  68  54    33  26  20    37  31  18    30  24   8    38  29  24  
 225 205 162   218 202 153   188 170 115   140 119  61   114  92  32   111  92  39   129 114  70   179 164 123   151 131  87   118  96  43   157 136  62   150 132  67   147 128  70   121 100  50   106  92  54    63  57  28    96  87  52   125 108  60   125 105  54   109  90  36   135 116  58   164 146  85   151 133  72   122 103  46   106  88  36   119  99  50   140 122  61   149 131  64   157 139  72   175 155  98   164 144  93   159 143  88   151 136  86   126 113  70   185 181 139   202 196 172   113 103  93    99  82  66   138 117  84   207 184 139   174 153 108   103  86  47    49  43  28    64  56  30   120 109  73   134 123  94    68  60  44    38  34  25    29  25  16    29  21  12  
 204 183 141   233 215 168   218 196 158   147 125  70   143 120  51   152 132  67   163 147  95   186 171 126   158 139  84   146 122  53   168 144  64   156 137  67   133 114  58   115  92  47   115  99  59    67  64  24    90  84  41   121 103  58   118 104  51   108  95  37   129 116  52   135 121  53   135 117  51   122 103  44   121  98  49   104  81  37   115 100  50   139 125  65   160 144  81   155 137  81   143 123  69   166 150  89   170 154 102   118 101  65   174 164 121   206 196 166   146 135 119   105  89  67   130 108  68   189 169 113   134 116  67    70  56  19    64  57  36    76  63  36   119 102  65   190 177 135   110 102  76    39  34  28    40  35  32    37  29  16  
 181 152 111   206 177 136   208 186 140   162 139  89   171 149  88   171 151  86   189 169 112   190 170 119   152 131  69   160 141  61   161 140  53   141 126  52   110  95  34   125 105  49   139 122  71    74  67  22    82  75  33   113  98  58   105  94  39   111  98  42   121 107  46   117 100  35   122 103  37   114  94  29   131 111  49   117  97  39    89  73  34   103  89  41   125 111  56   144 128  70   162 147  87   174 159  99   157 141  89   121 102  59   146 131  82   170 158 126   177 170 143   136 127  95   130 113  77   203 183 135   149 131  81    69  55  17    70  61  37    67  53  32    95  79  47   190 176 129   152 141  97    53  46  22    51  45  33    57  53  38  
 192 163 119   148 116  75   193 170 127   217 194 152   204 180 133   197 175 117   209 187 130   199 176 122   176 153  87   167 146  63   152 133  47   120 106  42    97  84  28   138 120  56   127 111  52    70  61  15    86  79  34   108  95  51    94  83  27   101  89  31   123 107  47   119 100  34   124 104  37   126 107  38   145 125  56   144 124  55   100  84  35    88  72  21   103  87  36   129 114  62   148 132  79   155 138  84   148 131  75   156 139  83   118 101  47   151 138 104   207 198 171   149 139 107   117 101  66   218 197 150   176 156 106    75  56  24    60  48  26    60  44  28    68  50  26   170 155 111   191 178 132    76  65  35    41  34  18    54  50  39  
 161 135  85   114  90  42   185 160 128   246 219 189   218 193 153   201 178 124   197 172 114   192 167 109   193 170 100   169 148  62   146 128  46   102  86  37    93  80  27   148 131  60   104  87  32    67  59  14   101  95  43   116 105  50   110 100  38   105  94  32   131 113  49   134 113  46   140 117  47   140 116  44   148 124  52   153 128  56   136 120  53   111  95  34   110  92  42   121 101  58   130 111  68   140 122  72   167 150  92   167 152  85   102  86  28   163 146 112   232 218 190   157 142 108    93  73  36   193 171 125   189 168 123    78  57  30    74  58  34    80  61  43    59  37  16   140 122  86   217 201 158   121 108  75    48  35  19    44  34  24  
 156 133  79   188 168 117   192 167 126   206 180 142   218 193 149   205 180 122   187 163  97   193 167 102   201 176 105   179 156  74   143 126  46    94  79  32   101  89  25   145 130  47    97  78  30    67  54  26   111 101  54   122 110  47   121 109  45   116 101  38   130 110  45   147 124  57   166 138  71   160 132  62   159 130  58   162 134  62   148 128  58   142 121  58   153 132  77   130 106  60   138 116  71   150 130  80   169 150  93   148 130  68   101  83  35   163 143 107   232 214 174   163 143 101    77  54  21   155 132  94   202 179 139   119  94  66    82  64  33    82  61  35    60  39  13   112  92  57   208 190 145   152 137  95    62  46  20    49  34  21  
 209 186 134   241 220 170   182 159 103   162 139  91   210 184 134   197 172 108   186 160  90   199 172 105   211 182 116   195 167  95   144 125  47   100  84  27   130 119  42   147 130  43    93  71  25    60  42  20   115 100  56   142 124  59   133 116  50   143 122  58   146 122  59   161 134  71   180 149  88   178 146  83   176 145  79   171 140  73   163 136  76   171 144  85   197 173 116   161 137  82   129 107  53   149 126  74   155 134  81   127 106  54    90  73  35   133 113  73   210 189 136   167 144  93    81  58  27   132 110  82   203 180 142   147 124  86    88  69  29    93  73  39    79  58  28    86  66  31   180 163 115   190 175 121    87  71  34    50  32  15  
 202 176 129   224 199 151   175 152  98   154 128  85   194 167 122   193 167 108   192 165  97   200 171 106   217 185 125   209 178 114   148 126  51   115  98  33   159 143  70   159 137  59   112  86  34    71  51  13   117  98  49   173 149  84   148 125  59   162 135  72   169 140  82   177 145  89   187 153  99   196 163 108   201 168 113   195 164 107   194 164 109   204 174 119   196 168 113   178 152  96   168 144  90   134 111  58   120  99  49   113  90  41    80  65  33   112  92  54   179 155  98   155 133  76    86  65  32   102  82  54   174 154 114   154 130  90   114  95  54   103  83  49    85  65  38    77  57  30   153 138  93   201 187 131    99  84  43    52  33  18  
 102  73  31   141 110  64   127 102  60   111  82  51   152 123  90   195 167 116   207 179 115   203 173 110   216 184 127   215 184 124   170 146  74   141 121  57   178 158  96   190 162  98   182 154  90   134 114  56   132 112  52   195 168 102   182 152  88   173 143  81   186 153  99   193 157 107   188 152 104   199 165 119   206 174 127   207 175 125   207 174 121   188 156 104   162 130  81   179 149 101   185 158 109   181 158 108   165 143  91   123 102  49    78  65  31   112  92  57   186 160 109   162 139  84   110  90  51    81  65  30   107  90  46   129 107  67    89  71  37    69  50  19    64  43  24    63  44  26   106  90  54   161 148  96    85  69  32    47  27  19  
 164 129  92   155 129  75   100  78  50    46  25   5    85  67  42   171 147 107   193 161 109   223 184 135   225 191 140   201 176 119   164 144  77   186 164 105   196 172 113   183 157  97   180 150  96   142 110  66   143 111  64   206 176 115   185 155 101   180 150  90   197 166 101   192 158  94   190 155  97   211 176 123   206 175 120   190 159 103   154 122  63   138 106  55   169 138  80   190 165 103   200 177 124   185 166 110   181 166 104    93  80  27    59  52  26   135 122  87   173 154 120   142 126  77    87  75  35    62  49  30    80  67  32   160 145 104    96  80  43    33  27  15    35  27  15    43  29  13    78  71  44   156 144  96   134 115  71    39  23  23  
 229 200 159   237 218 165   203 179 114   137 115  62   110  85  49   166 135 103   131  92  57   136  96  54   190 155 109   173 144  97   177 150  91   214 186 133   216 189 136   204 179 121   167 141  88   109  83  38   143 117  71   207 183 126   189 159 104   182 152  91   187 157  91   182 150  83   173 140  78   160 129  69   135 105  42   125  98  31   140 111  48   161 130  74   181 152  85   194 167  95   200 175 115   182 161 102   164 147  87    92  75  28    90  82  53   141 127  92   145 127  91   116 100  52    72  58  20    67  54  34   116 103  68   204 191 146   134 121  73    36  28  19    35  28   9    43  30  13   108 100  61   222 206 167   190 171 124    39  23  18  
 227 204 158   242 225 174   246 227 172   231 214 155   173 153 100   187 163 122   162 133  99    98  68  35    79  51  23    90  64  44   150 122  66   192 165 108   207 184 121   211 189 125   179 156 105   116  92  53   142 119  74   198 179 115   182 155  94   168 140  74   152 124  55   139 110  43   127  97  35   107  79  19   103  75  12   123  97  28   142 117  51   157 129  67   161 135  58   177 152  69   184 158  89   173 150  88   147 127  70   105  85  45   141 131  98   121 106  69   126 105  67   129 112  66    98  84  48    76  64  42   107  95  62   183 170 125   136 122  66    44  36  25    47  39  15    62  48  24   145 138  91   235 218 183   195 174 125    49  33  16  
 229 207 160   234 212 164   237 213 163   243 217 162   198 170 118   191 160 119   230 200 159   193 165 117   127  98  52   100  71  36    79  52  23    92  67  31   114  95  44   155 138  76   170 152  94   116  95  48   119  96  46   187 165 101   179 155  86   150 126  54   116  94  24   104  81  18   101  76  23    92  68  18    95  71  18   107  84  24   112  91  27   115  92  31   140 116  39   155 129  44   166 137  67   154 128  66   147 125  72   155 132  97   167 154 119   106  88  54   132 109  68   125 105  62   108  94  61    85  73  51    83  72  43   140 127  82   145 130  73    60  53  36    54  46  22    87  74  37   165 154 112   208 189 149   187 165 115    62  46  16  
 243 225 177   238 211 168   234 211 169   235 207 159   203 171 120   186 151 110   224 192 154   195 166 121   185 156  97   193 164  94   123 100  54    88  65  34    62  42  20    82  65  36   109  93  57    83  63  27    99  76  36   165 141  95   169 150  83   139 119  55    97  78  18    79  61  10    72  54  15    70  51  14    76  57  16    72  54   6    83  69  13    94  76  24   118  97  29   134 108  32   141 113  49   149 123  65   149 128  75   187 164 130   162 146 112    95  74  45   130 107  66    99  77  40    75  59  33    67  54  35    70  58  35   133 122  77   157 141  90    53  47  24    56  46  21   142 129  89   190 177 142   173 152 106   181 157 101    90  72  35  
 246 233 179   245 224 179   234 219 171   244 220 177   231 199 158   185 153 106   188 161 110   191 167 116   208 182 129   214 182 126   194 170  80   151 127  59   105  83  41    64  47  19    46  31  16    41  24  18    63  47  31    85  69  39   109  88  43   101  83  36    72  58  14    60  46  12    58  44  18    59  46  19    70  56  21    64  49   6    63  55   8    80  65  23    99  78  24   114  88  28   113  85  33   136 110  59   155 134  84   183 165 124   120 101  68   106  82  56   119  93  56    86  63  31    78  60  38    65  52  35    46  33  16   109  97  55   130 113  69    59  51  31   111 102  71   217 202 172   196 182 147   135 114  67   179 156  88   118 100  57  
 243 232 178   235 218 172   236 214 158   243 211 159   250 211 157   192 155  94   177 142  89   210 176 132   216 179 129   216 177 111   188 157  69   151 123  39   151 129  52   134 118  55    96  82  46    53  39  26    52  40  26    85  75  51   120 101  66   121 105  66    78  65  26    46  33   6    42  29  14    45  32  10    60  47  13    59  47  10    59  50  13    63  50  16    88  71  24    97  75  24   109  83  39   122  96  51   166 146  98   157 139  95    94  76  40   127 104  77   125 100  64    94  69  37    97  77  50   100  85  60    55  40  22    63  50  18   103  90  48    97  85  62   179 165 128   234 217 194   144 131  90   115  94  48   190 167  99   116  95  55  
 243 224 179   240 216 164   234 207 156   245 212 165   234 195 146   174 136  80   169 135  82   221 189 142   215 182 129   210 175 109   183 151  67   157 126  43   152 123  46   165 140  71   183 161 104   119  99  56    64  47  16    82  65  44   129 110  75   165 149 106   133 121  70    72  58  23    50  33  22    51  35  19    57  44  15    54  38  16    47  38  11    55  43  11    73  59  20    87  69  27   107  89  46   140 118  75   177 157 113   127 108  63   115 100  57   156 138 102   123 100  69    97  72  34   125 103  55   127 109  63    73  56  26    55  39  25   134 129  88   168 148 116   194 168 136   179 160 138    90  78  34   127 110  60   196 176 120   125 104  63  
 237 214 167   237 222 156   233 205 147   230 194 144   204 162 114   169 128  75   170 134  83   213 180 134   217 183 129   205 171 100   174 143  61   157 127  48   150 122  48   184 156  92   196 172 115   135 113  63   123 102  56   126 105  63    82  66  26    90  74  46   129 116  81   115 106  61    70  59  26    59  44  22    57  41  18    67  50  24    54  47  17    51  41  12    65  51  20    69  51  13   105  87  38   157 137  85   146 125  78    88  66  25   128 113  70   160 142 106    97  76  44    82  60  23   119  98  53   111  92  48    69  52  22    80  63  46   189 182 151   231 211 185   158 134 107    82  65  49    68  57  19   139 124  79   192 175 120   127 109  66  
 229 205 158   234 220 148   223 192 128   204 165 109   211 168 118   205 162 111   161 123  76   192 158 113   220 185 131   197 163  91   176 147  69   170 142  68   160 133  65   184 158  99   194 169 112   134 109  53   161 137  76   202 177 113   114 101  43    46  30   5    55  41  28   106  97  65   110 104  57    90  80  39    65  50  21    65  47  24    77  63  30    81  67  33    94  76  39    95  77  34   132 114  64   145 129  77    85  68  22    85  70  31   152 137  94   144 128  90    89  69  36    87  67  30   101  82  40    83  66  23    67  51  18   135 119  95   227 218 187   253 233 208   138 114  88    37  20  10    55  48  19    98  83  50   141 124  77   111  96  57  
 188 166 127   238 213 150   192 162  92   209 171 109   231 188 132   215 174 117   151 116  63   183 150 105   217 184 130   188 155  85   175 147  75   176 148  80   188 162 102   204 180 124   207 183 129   149 124  67   170 142  78   210 182 114   182 168 101   100  85  43    40  27   9    41  32  15    78  71  37   110 103  61    87  75  41    76  59  32    85  63  26   100  79  36   115  93  42   144 124  68   155 137  87   115 101  56    68  54  12   107  97  56   157 144 100   124 109  68    82  65  28   100  83  47    90  72  33    79  62  24   121 105  71   191 175 144   239 230 190   249 228 193   151 128  96    45  31  22    39  32  13    59  44  26    79  60  27    94  77  47  
 127 106  74   195 164 112   196 166  95   216 179 116   225 184 121   213 174 109   156 124  63   187 157 108   217 187 135   195 164 101   180 150  87   171 143  82   198 173 118   217 196 144   215 193 144   158 135  83   184 158 105   219 189 134   199 179 117   159 145  80    71  60  16    39  31  10    37  30  13    51  44  22    73  63  38   101  89  54   102  81  40   112  91  41   144 123  64   159 138  77   135 112  57   103  82  33    92  72  27   137 118  75   136 123  79   102  89  46    82  68  29    84  69  33    76  60  24   118 102  66   194 178 142   219 202 167   200 186 141   234 210 170   173 148 110    52  38  26    38  30  14    71  55  40   114  94  61   103  84  52  
  67  41  14   148 119  72   200 171 102   190 155  91   203 165  96   211 176 102   157 129  60   187 161 107   217 190 140   206 179 120   195 164 109   198 172 117   202 180 127   216 197 146   227 207 161   169 147 103   202 175 135   228 199 160   207 184 122   179 164  89    89  80  20    52  47  13    39  35  15    34  29  18    44  35  24    80  72  44   114 102  57   134 118  71   161 142  88   147 126  64   124  96  32   115  85  24   121  89  37   158 124  79   112  99  55    92  79  35    99  86  45    84  70  33   100  85  51   179 163 129   224 206 169   174 157 116   140 122  78   206 180 139   190 165 125    69  53  40    41  32  15   109  92  76   178 158 120   116  97  55  
  99  70  40   149 117  78   188 159  93   158 125  57   163 126  55   189 154  84   157 130  64   186 161 105   224 199 145   212 184 128   203 177 116   207 182 126   211 189 138   227 205 159   236 214 172   173 151 111   214 191 153   227 203 167   217 198 135   177 162  88    96  85  12    77  69  12    57  48  14    54  44  28    47  36  22    54  47  21   106  97  63   152 141  88   149 132  73   126  98  43   127  94  31   134  97  31   145 107  47   158 119  60   108  83  31    87  68  26    98  84  51    95  83  49   148 133  93   214 195 152   179 160 121    95  78  47   105  82  42   159 139  90   174 158 116    78  61  50    53  34  23   146 127  96   205 189 139   111  96  52  
 160 140  99   101  84  42   179 151  88   180 149  83   152 115  47   135 100  34   120  91  31   181 156 100   222 197 141   211 185 128   205 181 117   208 182 130   218 193 152   241 215 179   225 202 161   182 160 119   237 215 177   235 212 180   221 198 145   175 155  92   128 111  39   114 101  33    71  59  10    66  53  21    71  60  33    87  78  49   124 115  77   114 100  67   107  87  50   124 101  49   127  97  35   147 113  48   174 139  73   139 102  34   115  86  30    92  69  27    92  78  44   140 128  89   189 174 131   166 147 106    89  70  36    85  70  39   120  96  59   101  84  40   139 127  88    94  79  61    59  40  24   166 146 105   209 193 142   114  99  65  
 220 205 160   138 125  71   173 147  88   175 143  83   189 154  90   160 126  63   107  78  23   124 101  48   198 173 119   205 179 123   185 161  99   180 153 105   226 200 166   252 226 193   222 199 158   197 176 131   250 228 188   233 210 178   214 185 136   176 148  93   156 134  70   140 120  53   116  99  37   100  87  33    82  70  29   108  97  64   120 107  63    57  39  24    46  27  12    90  72  31   129 106  54   158 130  66   155 122  53   114  78  19   127  97  37   109  85  38   132 115  71   179 166 116   161 147 102    74  57  28    65  49  23   115 103  65   161 137 102   104  87  60   133 120  86   135 121  92    66  48  27   150 133  89   197 184 132   104  88  65  
 246 221 176   181 148  93   194 168 112   174 143  84   154 118  58   186 152  95   157 130  78   120  97  48   167 144  92   181 156 100   194 169 111   197 172 119   210 186 140   240 215 172   196 173 130   197 176 129   248 227 179   219 199 151   183 154  88   166 136  76   170 140  83   161 133  75   158 135  72   139 120  58    95  78  25    85  69  27    90  75  33    78  62  34    55  38  19    62  46  20   123 105  66   156 134  83   132 102  47   113  78  29   135 105  46   156 129  80   181 160 109   160 145  85    91  77  30    62  47  23    75  61  37   125 114  68   156 137  94   101  84  65   138 126 102   158 148 118    65  48  30   124 107  72   195 181 134   121 106  81  
 237 207 150   178 147  91   160 135  77   214 184 124   162 129  69   123  91  37   132 105  56   161 139  91   202 180 129   157 133  78   179 153 100   217 192 134   192 171 109   210 187 132   151 129  81   189 169 120   234 216 157   195 178 109   183 158  76   177 149  81   172 140  86   166 134  82   150 119  63   139 114  52   137 116  56   102  83  28    80  63  16    91  76  35    90  74  44    90  75  40   101  84  45   105  81  55   111  81  53   126  98  45   171 144  87   182 154 104   166 142  87   114  96  35   100  87  36   106  94  63    89  76  46   133 122  72   143 128  79    87  74  53   149 139 119   158 150 121    54  37  24    92  74  55   171 157 119   147 136 100  
 194 165  99   175 153  86   134 112  47   205 177 112   216 184 121   160 129  74   104  77  30   171 150 105   233 212 162   196 173 120   147 121  71   161 136  79   162 140  80   169 147  91   140 118  68   200 180 128   209 191 128   158 142  67   136 116  42   157 132  66   170 139  84   187 152  99   169 134  78   151 120  58   161 135  70   141 119  54    89  75  21    73  55  14   103  85  45   129 112  60    97  76  32    64  37  23    94  68  47   153 133  75   196 174 120   174 148  98   133 107  53   119  97  39   118 105  51   119 111  67    91  80  38   122 108  59   113  99  57    83  72  48   157 152 124   174 169 134    69  55  38    55  35  31    99  82  63   112 103  62  
 139 115  54   174 148  65   130 110  41   175 148  80   211 180 115   211 180 125   146 122  74   167 146 101   228 207 160   232 210 157   210 184 135   129 103  54   103  79  30   131 107  58   141 119  69   221 202 146   195 177 115   135 118  48    97  76  21   110  85  30   147 118  62   190 155  95   188 154  90   170 140  71   152 124  52   154 131  57   100  88  36    90  72  32   112  92  43   133 112  54   100  72  33    86  60  36   138 118  80   176 160 108   148 130  80   140 117  67   146 118  67   131 108  54   119 106  51   125 116  62   100  88  37   141 126  77   101  86  56    57  47  22   145 143 106   208 206 159   107  96  69    50  29  34    55  37  32    84  74  38  
  79  65  35   120 107  56    99  89  30   161 132  66   214 180 117   220 188 129   202 168 104   171 146  90   189 167 126   221 188 149   224 204 149   216 195 142   138 116  67    99  74  34   157 133  97   228 207 164   176 160 101   120 108  36   113  97  22   148 128  68   138 116  44   128 103  29   147 120  43   162 135  58   151 123  57   128 103  23   109  89  26   104  88  35    97  86  31    96  82  36    95  73  34   131 111  42   178 158  86   141 118  86    53  46  26    85  77  41   127 115  65   125 111  56   138 121  67   140 125  69   116 104  53   141 132  88   133 129  86    70  58  22   128 109  77   220 203 160   151 140  95    51  39  24    56  43  34    97  85  43  
  46  29  19    53  43  19    85  73  21   164 138  71   207 177 112   216 183 129   210 175 120   164 137  82   148 125  78   166 135  90   214 193 141   230 206 152   229 205 152   121  96  51   122  95  60   205 181 141   197 177 122   149 134  63   101  90  22    88  71  27    99  80  28   109  86  27   124 100  30   137 111  38   133 104  52   119  92  35   120  96  41   126 109  48    97  84  36    73  57  26   110  90  47   163 144  80   142 123  63   100  82  41    77  67  36    75  63  37    78  66  35   112 101  55   155 145  92   137 126  76    99  87  40   136 126  76   134 132  81    86  75  32   116  96  61   209 189 143   171 156 106    61  48  21    55  44  28    91  82  44  
  35  19   9    31  26  22    80  63  30   162 139  82   206 178 112   214 182 125   212 176 125   162 131  78   167 141  91   133 104  59   179 153 105   231 205 150   234 207 148   151 122  73    90  60  24   153 125  88   210 188 135   177 159  89    82  76  17    57  45   8    72  58  15    79  61  15   103  82  31   107  83  29   109  82  40   124  97  45   130 103  52   138 120  55   108  93  51    71  53  32   117  99  56   136 119  62    95  79  29   105  94  42   117 104  64   109  97  63    78  69  38    69  62  31    96  90  55   111 103  62    84  72  30   118 105  62   125 125  67   120 111  58   116  93  53   190 166 121   184 167 112    74  61  21    60  49  25    82  73  42  
  60  46   6    29  23  16    53  33  20   111  91  53   186 162 102   215 184 122   209 176 118   157 126  70   199 171 122   173 148 110   137 108  63   221 192 137   220 191 133   150 119  66   116  84  44   137 108  68   174 149  96   179 159  91   104 102  40    44  35   2    62  52  14    65  51  18    75  57  24    85  65  24   100  78  36   128 107  43   139 112  62   129 109  53    90  76  35    70  56  27    98  81  43   108  93  43   116 103  52   109 102  47   126 111  64   137 126  72   104  98  48    73  68  36    50  43  23    70  62  38    94  83  52   126 111  77   137 137  77   128 120  59    96  74  32   138 114  76   159 143  92    84  73  25    73  63  30    88  78  50  
 139 125  57    49  34   4    37  18  10    54  41  23   122 103  61   204 178 116   217 188 126   151 120  65   198 168 122   231 211 176   141 113  66   170 140  90   191 161 108   155 123  72   150 120  71   151 123  72   153 128  71   143 122  56   133 130  61    37  29   1    58  48  22    57  44  24    57  44  12    93  79  33   111  92  48   127 108  48   139 116  64   110  92  45    98  87  41   110 102  57    76  62  25   117 103  57    97  88  33    90  84  33   145 130  74   137 126  65   129 121  57   143 136  83    85  77  47    47  35  25    92  79  61   140 130  94   157 152 101   147 137  76   105  88  44    75  57  31    91  80  44    89  81  35    92  82  46    85  70  37  
 191 168 109   121  95  38    51  37  17    26  17  13    54  37  20   148 125  76   194 169 112   156 126  74   203 175 127   244 231 186   207 179 132   114  85  42   142 111  66   190 160 110   162 134  75   146 121  57   173 153  87   119  97  38   111 102  49    53  40  15    50  38  15    54  41  17    72  62  26    99  86  42    91  75  40    99  84  35   125 104  57   100  86  41   114 108  55   130 123  68    93  80  35    96  82  37    87  75  26    97  89  42   134 121  69   138 126  64   140 127  57   169 158  89   128 114  66    63  49  21    78  67  42    97  90  54   130 118  79   164 154  95   116 104  62    48  38  27    57  52  34    74  72  35   106  97  58    98  80  41  
 215 187 139   181 150  87    96  81  42    32  23  17    30  17  16    69  49  22   118  97  51   152 125  74   215 189 140   241 228 179   244 220 174   120  92  55   116  89  51   216 188 141   141 117  57   148 125  52   152 132  63   111  96  39    55  40  14    57  42  23    59  48  19    72  61  31    73  63  32    67  54  21    70  54  22    99  84  39   110  92  49   101  88  39   115 107  51   122 114  57   105  91  40    99  86  38   111  99  51    96  89  38   131 118  65   143 129  67   146 131  61   168 152  84   118 102  47   106  94  42   145 135  88    90  83  43    85  72  38   122 112  61    70  63  31    37  33  27    59  58  46    52  51  22   105  95  55   133 115  70  
 217 191 140   202 177 123   135 109  50    79  62  26    52  41  34    34  21  18    67  47  20   160 135  81   220 197 140   241 221 174   248 230 186   161 135 103   114  90  52   204 184 136   137 114  59   157 131  59   108  90  22    64  57  15    44  31  12    60  49  22    77  68  38    76  66  39    47  35  12    59  45  17    87  72  31   103  87  38    96  82  36   106  90  39   123 108  50   125 110  52   106  90  37    98  85  34   110 101  45   108 101  40   139 126  56   138 124  63   143 129  65   147 133  68   110  95  38   153 139  78   183 170 102   151 137  75   104  94  50    88  82  38    51  44  32    37  32  25    68  65  42    81  72  46   107  93  55   145 127  80  
 219 193 142   210 185 131   142 116  59   145 125  66   141 123  82    60  40  23    62  37  17   155 130  81   196 172 106   233 211 147   247 226 181   185 157 120   101  77  35   168 148  97   166 145  84   181 156  85    78  59   2    39  31   4    51  39  15    63  51  25    68  59  28    63  54  24    42  31   4    62  48  21    90  74  43    89  72  34    95  82  33   109  94  38   115  99  38   117 102  41   114  99  41    91  79  22   102  93  33   114 106  43   148 133  69   142 128  64   142 127  66   121 106  45   132 117  56   163 148  86   171 155  92   176 161  94   149 139  74   112 101  53    72  63  39    39  31  18    90  84  56   125 116  79    95  79  49   101  80  47  
 219 193 142   213 187 136   149 122  69   181 153  88   202 174 115   119  90  54    78  51  22   155 131  84   152 128  67   187 162 102   235 211 164   190 161 119   122  95  55   114  94  48   191 171 112   189 164  96    99  79  26    53  44  14    59  44  23    52  39  19    54  44  18    55  46  14    54  44  10    64  50  24    71  56  27    83  67  33    99  83  31   117 102  43   115 100  34   124 109  41   132 116  55   106  92  32   124 113  51   132 123  56   147 129  69   165 148  79   143 125  63   122 104  46   156 139  70   166 149  80   171 154  88   166 150  73   141 131  47   122 109  56   111 100  63    63  52  29   126 116  81   178 167 119   106  87  62    71  45  27  
