P3
50 50
255
 147 143 109   105 101  77    76  73  61    66  65  60    63  65  57    68  73  67    77  83  83    88  95 101    87  94 100    78  83  86    69  73  72    53  55  50    37  40  33    28  31  24    22  23  17    18  19  14    17  16  12    18  17  13    18  17  13    14  13   9    15  14  10    14  13   9    13  12   8    13  12   8    14  13   9    15  14  10    15  14  10    14  13   9    17  15  11    18  17  13    19  18  14    19  18  14    17  16  12    19  18  13    24  23  19    28  27  23    23  23  15    27  27  19    43  43  33    43  45  34    32  33  25    15  18  11    14  16  11    68  70  67   120 125 115   103 111  96    94 107  87   117 131 114   123 141 127   110 128 117  
 136 133 104    91  90  68    59  60  48    61  64  59    72  76  66    69  74  68    75  80  81    87  94 100    85  92  99    79  84  88    70  74  73    49  52  47    42  46  38    29  32  25    20  22  15    20  21  16    18  17  13    15  14  10    14  13   9    14  13   9    14  13   9    13  12   8    12  11   7    13  12   8    14  13   9    16  15  11    16  15  11    16  15  11    13  12   7    19  18  13    21  20  15    21  20  15    23  22  17    26  25  20    25  24  19    21  20  15    20  19  12    25  25  17    49  51  41    65  67  56    43  44  36    21  22  16    21  23  18    53  55  52    90  93  84   107 115 100   143 154 137   136 150 134    94 110 100   100 116 109  
  94  95  73    75  77  61    78  82  73    85  91  87    82  88  79    69  74  70    74  79  82    85  92  99    81  88  96    80  85  89    76  80  80    54  59  55    42  45  38    28  31  24    20  21  15    21  22  17    19  18  14    15  14  10    14  13   9    14  13   9    14  13   9    14  13   9    14  13   9    15  14  10    16  15  11    16  15  11    15  14  10    15  14  10    18  17  12    19  18  13    23  22  17    29  28  23    31  30  25    28  27  22    23  22  17    20  19  14    19  19  14    21  22  15    51  52  44    85  87  76    53  54  46    29  30  24    34  35  30    42  44  40    61  64  55   122 128 114   166 176 159   130 143 129    80  93  88    79  92  91  
  92  94  81    85  91  80    74  82  74    83  91  87    78  83  77    65  71  67    78  85  88    92  99 107    83  90  98    81  87  92    77  82  82    56  61  57    36  39  32    27  30  23    21  22  16    19  20  15    18  17  13    16  15  11    15  14  10    11  11   6    13  12   8    13  12   8    15  14  10    17  16  12    17  16  12    15  14  10    13  12   8    14  13   9    22  20  15    22  21  16    27  26  21    35  34  29    36  35  30    29  28  23    23  22  17    22  20  15    23  24  18    17  18  12    41  42  34    88  90  79    54  55  47    35  36  28    42  43  37    34  35  30    50  51  43   126 131 117   159 168 152   102 113 101    63  74  70    61  72  73  
  70  77  69    71  78  71    54  64  56    73  83  75    73  78  72    66  72  69    83  91  94    93 100 108    80  87  97    77  84  90    72  77  80    55  59  58    34  37  30    28  31  24    24  25  19    19  20  15    16  15  11    17  16  12    17  16  12    13  12   8    12  11   6    12  11   6    14  13   8    17  16  11    17  16  11    15  14   9    16  14  10    17  17  12    19  18  13    27  25  20    33  32  27    35  34  29    36  35  30    36  35  30    30  29  24    23  22  17    18  20  15    14  15   9    35  36  28    92  94  82    65  67  56    46  47  39    43  44  38    28  28  23    40  41  35   114 117 106   143 149 135    84  92  81    41  50  45    43  52  51  
  60  69  64    70  79  74    64  71  64    69  76  68    76  81  75    72  78  76    89  97  99    89  98 107    77  86  94    78  85  91    74  79  82    60  64  63    35  38  31    28  31  24    24  25  19    21  22  17    17  16  12    16  15  11    19  18  14    22  21  17    15  14   9    12  11   6    12  11   6    15  14   9    14  14   9    14  13   8    17  16  11    23  22  17    20  20  14    26  25  19    28  27  22    27  26  21    33  32  26    41  40  35    40  39  34    32  31  26    25  27  22    22  25  18    36  37  29    90  91  83    72  74  63    57  58  50    47  46  41    39  38  33    72  73  67   126 128 117   124 130 116    67  75  62    42  49  42    45  51  49  
  66  73  70    70  78  74    61  67  61    61  67  60    70  75  68    68  74  72    83  91  94    83  92 101    73  82  91    74  82  89    68  74  76    54  59  57    35  39  32    26  29  22    23  24  18    22  23  18    18  17  12    15  14   9    21  20  16    32  31  27    20  19  14    14  13   8    12  10   5    13  12   7    13  12   7    13  12   7    18  17  12    24  23  18    23  23  16    21  21  14    19  19  12    20  20  12    28  28  20    39  39  32    43  44  37    43  44  38    39  43  38    37  42  34    38  43  34    82  86  76    74  78  66    74  76  68    78  80  74    84  86  80   123 126 117   144 149 137   112 119 104    56  65  53    53  61  52    74  82  75  
  66  70  70    72  76  75    71  76  71    57  62  55    68  74  64    70  76  72    81  89  92    79  88  95    69  78  87    70  78  83    64  72  74    53  59  57    35  40  34    27  29  24    26  27  22    24  23  19    18  17  12    13  12   7    18  19  13    36  37  31    25  24  19    12  11   6    11  10   5    16  15  10    18  17  12    19  18  13    21  20  15    21  20  15    19  18  14    17  16  11    19  18  13    18  19  11    19  20  14    27  29  24    38  40  37    51  53  52    55  65  57    60  70  61    52  62  51    78  89  75    79  88  75    84  92  81   105 112 104   108 115 108   127 140 122   140 153 136   111 123 109    72  84  72    71  82  71    96 106  92  
  69  73  70    77  82  79    72  75  70    63  67  60    62  68  58    69  75  69    80  86  87    76  83  90    73  80  88    76  83  89    68  74  77    55  61  59    42  47  41    29  31  26    25  26  21    25  24  20    19  18  14    14  13   9    17  18  12    35  36  30    28  27  22    11  10   5    13  12   7    19  18  13    20  19  14    21  20  15    16  15  10    15  14   9    14  13   9    15  13   8    20  20  13    17  18  10    13  14   6    14  17  10    28  30  25    48  50  48    64  74  66    77  87  78    67  77  66    96 107  94   104 115 101    99 108  97   115 124 115   120 129 121   130 144 129   142 156 141   105 117 104    86  97  85    90  97  87    75  82  69  
  74  79  72    82  85  78    77  80  74    72  75  68    61  64  55    73  78  72    88  92  91    83  88  92    81  86  93    84  89  94    75  80  83    65  69  70    48  53  49    34  35  30    28  29  24    27  26  22    21  20  16    13  12   8    15  16  11    32  33  28    37  36  31    18  17  12    20  19  14    21  20  15    15  14   9    16  15  10    12  11   6    16  15  10    10   9   5    17  17  12    26  26  18    22  24  14    21  23  12    22  25  16    24  27  20    31  34  29    61  69  61    80  87  79    80  90  79   107 118 104   106 118 103   107 117 106   108 120 110   123 134 126   130 146 133   117 132 118    74  84  73    78  86  75    94  97  88    60  62  51  
  75  82  70    90  93  84    94  97  88    82  85  76    70  73  61    82  85  78    97  99  96    96  97  99    92  93  98    88  92  95    76  80  83    67  71  72    52  57  53    37  39  36    32  32  30    29  28  24    21  20  16    12  11   7    13  14   9    29  29  24    40  40  32    24  24  16    20  19  14    17  17  12    14  13   8    14  13   8    12  11   7    16  15  11    13  12   7    24  23  18    42  42  34    42  44  33    35  37  26    32  34  24    30  34  24    34  36  29    56  63  56    79  86  78    90  98  87   122 133 119   106 118 104   122 134 122   121 133 123   126 139 130   131 149 137   113 126 116    84  94  83    81  87  77    82  83  75    61  62  54  
  84  90  78   101 104  92   101 103  92    88  90  79    74  77  66    77  80  71    94  94  90    99  99  98    96  94  99    89  90  94    78  82  85    71  75  77    53  58  54    40  42  39    34  34  32    31  30  28    25  24  20    18  17  13    15  16  11    25  26  21    38  38  30    32  32  24    17  17   9    14  13   8    18  17  12    17  16  12    13  12   8    12  10   7    16  15  10    23  23  15    49  49  39    55  57  44    37  39  26    30  33  21    40  43  32    51  54  45    59  64  58    81  87  80    83  91  80   124 135 121   119 131 117   112 126 113   117 130 120   140 156 146   141 158 149   123 136 127   109 119 110   100 106  96    77  80  71    65  69  60  
  92  97  83    99 103  89    90  92  79    96  98  85    76  79  68    73  74  66    91  90  86   103 100  99    94  91  93    85  84  86    80  81  85    78  82  85    55  60  56    41  43  40    34  34  32    31  30  28    30  29  26    28  27  23    20  21  16    23  24  19    39  39  31    45  45  37    21  21  13    14  13   8    20  19  14    15  14  10    16  15  11    13  12   8    19  18  13    20  20  12    45  45  35    51  53  40    34  36  22    37  41  27    53  56  44    57  60  49    45  50  44    64  69  62    93 101  90   124 135 121   116 128 114   100 114 101   114 130 119   138 155 145   133 150 143   119 132 124   105 115 106   105 111 101    89  94  84    92 100  89  
  81  87  73    88  93  78    84  86  73    91  93  79    92  94  83    82  83  73    89  90  83    98  98  93    94  93  90    78  77  77    79  80  79    76  77  78    53  57  50    40  41  34    38  39  34    41  42  37    38  37  34    31  30  26    21  20  16    18  18  14    29  31  26    57  60  51    24  26  14    19  20   9    18  18  12    20  19  16    12  11   9    18  17  13    18  18  11    25  24  19    36  37  30    43  47  33    40  44  24    59  67  41    84  93  66    66  75  51    41  46  34    52  57  46   110 120 107   140 154 140   117 132 120   103 119 108   128 144 135   123 139 131   109 118 119    94 102 100    91  99  91    93 101  90    97 107  94   112 124 112  
  80  88  73    83  89  75    77  80  67    88  90  76    93  95  84    98 101  89   103 104  96    99 100  94    88  90  85    74  74  72    84  84  82    74  74  72    58  59  51    50  51  43    51  52  46    46  47  41    36  35  31    30  29  25    20  19  15    13  12   8    20  21  18    62  65  56    34  38  23    29  31  18    22  23  17    24  23  21    14  13  11    11  10   5    22  22  12    31  29  24    29  30  24    45  49  37    52  57  35    75  84  57   103 113  86    89  99  74    58  64  50    76  84  69   122 134 120   147 162 149   122 139 127   110 127 117   130 147 139   105 121 114    92 100 100    74  83  80    76  82  78    86  93  85   103 111 102   124 134 125  
 118 125 113   109 115 103    97 101  87   102 106  92    94 101  91   104 111 101   103 106  99   100 103  96    86  88  83    70  72  67    84  86  83    75  77  74    67  68  60    56  57  49    51  52  46    42  43  37    30  31  26    26  25  21    18  17  13    11  10   6    20  22  17    59  62  53    44  48  33    30  33  19    20  21  15    16  16  14    18  17  13    12  11   6    34  37  25    41  42  36    26  27  22    45  48  39    46  53  35    54  62  40    76  85  65    82  91  75    71  84  70   107 121 106   132 149 136   133 151 138   115 133 121   116 133 123   119 134 127   108 123 116   109 123 113   102 113 105    79  88  83    69  75  72    85  91  88   130 137 130  
 112 119 107   104 110  98   101 105  94    99 102  92    87  94  86   100 107  99    94  99  92    99 104  97    87  92  86    75  77  72    89  91  86    81  83  80    73  73  65    53  54  45    45  46  40    40  41  35    32  33  28    26  27  22    18  18  13    14  14  10    15  18  12    54  57  46    60  64  49    35  38  23    21  22  14    14  15  10    15  15  10    15  15   6    32  34  21    38  40  32    18  20  15    39  42  35    38  44  31    26  32  17    38  44  33    61  68  61    76  91  77   101 117 105   125 143 129   125 143 131    98 116 104   104 120 110   108 121 112   103 116 107   118 134 116   123 137 123    90  99  94    60  66  66    69  73  74   125 130 124  
  80  86  76    80  86  77    81  88  79    90  96  89    80  87  81    94 100  95    88  94  87    98 103  97    92  96  90    81  83  78    86  88  83    76  78  72    68  68  60    54  54  46    51  51  45    45  46  40    35  36  31    28  29  24    19  20  15    14  15  10    14  19  12    61  66  53    72  76  59    29  33  18    14  15   7    16  17  12    13  14   8    16  16   8    36  40  26    33  36  27    13  17  11    33  37  31    51  57  45    33  39  26    27  33  24    49  54  50    75  89  78    93 107  97   117 134 123   113 130 119    97 114 102    88 104  93    76  89  79   109 120 111   136 152 133   125 138 124    80  89  82    46  52  50    65  69  68   124 129 123  
  78  84  76    85  92  85    80  87  79    84  91  86    87  92  88    92  97  93    87  90  86   101 104  98    92  93  88    75  75  71    70  69  64    68  66  61    66  66  58    55  55  48    55  55  50    49  49  43    35  36  31    25  26  21    16  17  12    13  14   9    22  27  21    76  82  68    71  75  58    27  31  14    17  20  10    21  22  16    15  16  10    20  22  11    43  49  35    25  30  20    11  16  10    31  36  30    81  87  75    73  79  65    53  58  49    63  68  63    56  64  56    60  70  62   112 124 115   118 132 122   111 125 114    86 100  89    60  72  62   121 133 123   135 149 131   111 122 108    69  78  67    43  48  42    69  74  68   118 124 114  
  74  79  72    92  99  92    95 101  97    82  88  84    81  85  84   104 106 103   106 108 105   104 104 102    79  78  74    69  66  62    71  69  64    81  78  73    78  78  71    58  58  50    52  51  46    52  51  46    38  39  34    23  24  19    16  17  12    18  20  15    48  53  46    96 102  88    64  68  50    32  35  19    30  33  22    27  27  22    28  28  23    44  46  35    63  69  55    31  37  27    15  20  14    23  28  21    83  90  76    74  81  65    41  47  35    39  44  37    36  41  35    31  36  30    66  76  68   101 112 104   118 131 121    84  97  87    84  96  86   137 149 139   125 137 122   105 116 102    91  99  87    76  82  71    78  84  73    81  89  78  
  78  93  86    86  98  89   103 115 104    93 103  90    79  84  77   107 110 101   102 102  94    86  84  77    79  76  69    72  69  64    76  75  70    86  87  82    81  80  75    56  58  51    52  54  47    49  50  44    36  37  32    25  25  20    27  27  22    49  51  46    74  80  70    55  58  50    40  40  35    21  22  16    18  19  11    22  25  14    31  37  23    63  72  55    74  80  66    43  49  35    27  33  21    27  30  19    69  73  64    63  64  57    24  25  18    27  26  21    31  26  25    32  31  29    41  46  40    75  87  77    99 112  99   104 116 102   110 118 105   148 154 139   133 138 106   128 133 103   126 130 106   102 105  86    88  90  77    68  69  61  
  80  90  84    85  93  85    86  92  82   102 107  95    89  95  85    89  93  84    80  81  74    80  80  75    91  89  84    85  84  80    77  76  72    80  81  76    82  81  76    62  63  57    47  48  42    47  48  41    36  36  30    33  35  27    53  55  47    59  62  53    36  38  30    20  22  15    15  16  10    15  13   8    16  14  10    12  13   6    24  28  15    66  72  57    52  58  47    22  28  18    29  35  23    50  56  46    90  96  86    70  75  65    50  55  44    31  37  26    29  29  24    30  32  27    40  48  39    65  77  64    76  88  74   111 122 108   142 150 135   144 148 134   149 152 124   131 134 109   105 109  87    98 101  82   109 112  98    88  90  81  
  70  74  67    92  95  87    94  93  84    98  97  86    81  87  76    75  81  71    72  74  68    84  85  80    96  96  93    84  83  80    74  75  70    86  87  82    75  74  70    63  64  59    44  45  39    43  44  36    37  39  29    46  48  36    63  65  53    34  38  23    21  21  16    13  13   7    13  11   7    15  11   8    17  13  10    11  10   5    23  24  15    64  67  55    40  44  38    18  23  17    24  30  21    67  75  64   112 121 110   106 116 103    94 106  92    71  84  69    58  64  55    42  50  41    43  54  41    69  81  67    79  90  75   107 117 101   137 143 127   142 145 131   135 137 115   106 109  88    76  79  60    93  96  80   115 120 106   107 114 104  
  73  71  64    95  92  83    90  86  76    82  76  66    70  76  64    78  83  73    71  75  69    87  91  87   103 105 104    83  84  83    71  71  69    80  81  76    76  75  71    67  68  63    56  57  51    52  54  45    49  51  40    66  68  55    78  80  66    44  48  33    23  22  15    17  16  11    17  13  10    17  13  10    18  14  10    14  13   8    28  29  21    61  64  53    41  43  38    24  27  21    39  44  36    80  88  79   100 110  99   111 123 109   118 132 117   113 129 113   109 119 108    86  97  85    86  98  84   100 112  98    98 109  93   112 120 104   120 126 110   133 136 122   134 137 121   104 107  91    72  78  62   109 114 100   143 150 137   132 143 130  
  87  83  75    83  79  68    67  63  52    75  71  59    80  86  72    87  95  84    75  82  75    84  90  88    98 104 104    82  86  85    69  71  68    71  73  68    70  70  65    68  69  64    76  77  71    75  76  68    64  65  57    65  67  55    69  71  60    61  65  51    44  45  35    30  30  23    22  21  16    22  19  14    18  15  10    15  14   9    35  36  28    64  67  56    42  45  38    29  31  24    61  66  59    66  73  65    58  68  57    88 100  88   124 137 124   117 131 118   105 116 105   107 119 107   123 135 123   128 139 125   125 136 121   130 138 123   115 123 108   128 135 120   151 159 146   137 144 131   113 121 108   127 137 123   136 147 133   124 135 121  
  92  90  78    86  84  71    69  67  54    69  70  56    76  82  68    81  89  78    92 102  94    92 101 100    89  97  99    79  84  84    60  62  62    62  62  60    67  66  61    66  67  61    64  65  59    55  57  51    43  44  38    33  34  28    33  34  28    40  42  36    49  54  39    42  46  32    42  44  33    39  39  31    25  25  17    23  24  16    40  43  32    50  56  42    37  40  31    50  56  46    62  69  59    38  43  36    34  41  33    62  69  61    82  92  83    89  98  90    99 111 101    98 108  99   110 120 109   122 132 121   127 137 126   132 142 131   125 137 123   144 155 141   162 175 163   143 155 143   123 135 123   139 151 139   142 152 141   113 124 110  
  74  73  61    97  98  84    88  91  77    82  85  72    82  89  76    77  86  76    99 111 103    97 108 105    82  93  91    75  82  80    58  60  58    63  62  61    63  63  60    61  63  58    49  49  45    35  36  32    30  29  25    23  23  18    19  20  16    17  18  14    27  32  17    40  44  30    48  50  38    55  58  46    39  42  30    41  45  33    44  50  36    32  40  25    47  52  38    69  74  61    40  45  34    31  36  24    47  51  43    48  51  48    31  33  28    60  63  52    80  87  77    57  65  57    75  84  77   104 116 109   118 130 121   135 148 136   149 162 149   158 170 158   156 172 161   146 161 150   126 140 130   139 151 139   149 160 148   121 131 117  
  76  79  69   105 111  96    96 102  89   101 106  98   104 114 107    96 107 100   104 119 111   113 129 120    98 113 105    74  83  79    59  61  59    64  63  63    63  68  65    64  66  64    57  57  55    41  39  36    31  27  24    26  22  19    18  17  14    15  14  11    37  37  27    51  53  42    47  49  38    60  64  50    45  49  35    61  67  53    52  58  44    29  35  21    49  53  34    66  69  57    36  39  27    38  42  26    40  41  33    30  27  28    41  37  29    94  92  65    68  69  56    43  46  38    70  79  77    86  99  97   109 126 116   137 153 140   148 162 148   154 166 155   150 166 156   131 144 135   130 143 133   152 164 152   144 155 141   121 129 115  
  89  92  84   111 114 102    88  92  82    93  96  91    95 105 101    94 104 102    92 107 103   105 120 115   109 122 118    82  92  90    58  61  61    54  54  56    61  64  60    72  73  69    63  62  59    48  44  41    40  35  31    27  22  19    18  15  10    24  24  17    49  50  40    48  50  39    56  58  47    49  51  39    26  29  16    46  51  37    50  56  42    46  52  38    66  73  54    67  72  60    33  38  30    23  26  16    22  22  14    22  18  11    83  77  58   142 138 100    78  79  64    52  54  45    78  85  82    98 108 107   114 129 121   130 144 133   129 142 132   130 141 134   131 145 137   118 132 124   146 157 149   170 180 171   165 176 162   126 134 119  
  94  97  91   105 108 100    86  87  82    82  82  81    78  88  89    77  87  88    82  94  95    84  95  96   103 114 115    96 104 106    63  67  68    49  50  52    59  60  54    69  68  63    64  60  57    58  53  50    51  46  42    34  29  23    31  28  20    46  46  34    53  55  44    33  35  24    41  44  33    37  39  28    28  31  20    41  45  31    52  56  42    61  65  51    71  78  62    63  69  58    36  41  34    21  23  19    13  13   5    31  28  12   130 124  93   145 138  93    84  85  67    59  61  50    63  68  64    97 106 105   118 130 123   112 126 116   108 120 113   103 114 110   108 120 116   126 137 131   168 179 171   178 188 179   162 170 159   133 141 126  
  87  92  87    96  99  92    90  92  87    86  87  86    89  99 101    78  88  90    83  94  98    79  90  95    94 103 108    93 101 103    73  79  79    55  59  57    62  63  57    69  68  63    64  60  57    56  52  49    46  42  39    41  38  31    50  51  41    59  61  47    32  34  23    24  26  15    32  34  23    47  49  38    59  61  50    54  56  45    47  50  37    40  44  30    32  38  24    32  38  28    34  37  33    35  35  35    21  18   9    55  50  27   157 151 115   123 114  72    63  64  46    61  63  52    47  49  48    59  65  65    93 101  96   115 125 118   108 119 113    90 101  97   111 122 118   140 151 145   169 179 171   171 181 172   135 143 132   119 127 114  
  62  68  62    82  87  80    76  82  77    77  81  80    87  97  99    83  93  95    86  95 102    76  84  92    79  87  93    78  86  87    82  91  87    63  71  64    60  64  57    71  72  68    63  63  62    47  46  47    32  31  30    37  37  32    55  59  47    53  58  43    32  33  25    35  37  27    37  39  28    51  53  42    62  65  54    58  60  49    43  45  34    22  24  13    19  21  14    19  21  12    30  31  26    45  44  42    44  42  30    91  88  58   140 135 102    85  76  49    46  46  32    38  38  31    29  29  29    34  37  39    73  79  75   120 129 121   126 136 128   130 141 134   131 141 133   141 151 143   143 153 144   138 147 138   100 107  99    84  91  83  
  54  61  53    79  88  78    63  72  64    71  79  76    79  90  90    74  84  86    86  95 101    73  80  88    73  80  86    69  78  77    82  91  85    83  93  83    58  63  58    72  75  73    67  67  69    56  56  59    39  39  40    34  38  33    51  58  46    52  59  44    56  57  49    46  47  39    37  39  29    43  45  34    43  45  34    48  50  39    42  43  32    27  28  17    21  18  16    25  23  16    30  30  23    40  39  34    65  63  49   126 125  95   109 105  76    56  47  34    34  34  23    27  26  21    21  20  24    28  28  32    54  59  55   117 124 116   148 158 148   164 175 166   156 166 156   134 144 134   100 110 101    69  76  68    62  69  62    62  69  63  
  52  59  52    82  92  83    57  68  60    63  75  68    69  81  80    58  69  70    80  90  95    77  87  92    71  81  85    62  73  71    75  87  80    99 112 101    66  74  71    74  80  78    79  83  81    61  63  62    46  48  46    33  36  33    42  48  42    57  63  55    53  55  45    38  39  29    36  37  29    35  35  26    24  24  17    29  30  23    35  36  30    32  33  27    40  43  28    52  53  43    36  40  33    31  35  27    78  80  64   113 116  91    76  77  57    43  42  31    33  33  21    31  30  26    26  23  25    33  30  32    53  55  50   110 116 105   162 172 161   169 181 171   152 164 152   126 136 125    83  90  80    55  58  50    60  62  54    67  69  62  
  54  61  54    71  81  73    56  67  59    65  76  68    64  76  76    67  78  79    81  92  96    84  95 101    74  84  89    62  74  74    86  98  94    99 112 103    71  80  77    75  84  81    69  73  71    55  57  54    37  39  36    42  44  39    50  55  49    55  60  54    43  45  35    36  38  27    30  30  23    22  22  14    21  20  15    22  23  17    23  24  19    31  33  28    51  55  38    52  55  44    39  42  35    39  42  33    96 100  85   101 106  86    66  68  54    58  60  49    48  50  37    45  45  40    43  41  42    55  54  54    64  67  60    95 101  89   148 158 147   167 180 170   151 165 152   124 136 124    87  94  83    79  82  73    82  85  76    79  82  73  
  58  68  60    64  74  66    62  73  67    73  84  78    59  71  71    70  82  84    80  90  96    83  93 102    71  82  88    67  78  81    88 100  98    75  88  81    52  62  61    55  64  63    53  57  56    46  48  45    29  31  26    50  53  46    69  75  64    63  69  59    39  42  33    34  34  27    22  23  15    14  14   6    20  19  14    23  24  18    19  20  15    28  30  24    34  38  25    50  53  44    46  49  42    49  50  42    99 101  87    79  83  68    53  57  43    67  70  61    59  65  53    56  61  54    52  54  53    68  73  69    92 101  90   112 123 109   131 143 131   133 146 136   141 155 142   126 138 126   105 116 105   107 115 104   107 114 103   101 108  98  
  65  75  67    56  65  60    63  74  68    72  83  77    58  70  70    65  76  79    86  97 103    83  93 102    71  82  90    82  93  97    79  91  91    54  66  62    55  65  66    62  71  70    56  62  60    45  50  46    29  31  25    46  50  41    87  93  81    68  76  63    48  51  42    31  32  25    24  25  17    23  23  16    25  24  19    33  34  28    33  33  28    26  29  22    38  41  33    70  72  63    54  55  46    66  68  56    92  93  81    75  77  64    72  76  65    73  80  70    77  85  72    68  77  68    51  61  55    77  88  79   120 131 117   117 130 113   103 117 102   109 122 113   122 135 122   119 132 119   114 126 114   116 128 116   113 124 112   108 119 105  
  60  70  62    54  63  58    68  79  74    66  77  72    50  61  60    60  71  72    86  96 101    88  98 106    75  85  91    83  94  97    75  86  86    56  68  64    67  77  76    75  84  82    60  66  63    45  50  45    25  29  22    59  65  55    84  90  78    54  62  48    51  54  46    33  34  27    27  28  21    27  26  21    30  29  24    40  41  35    36  37  31    25  28  21    38  39  33    55  56  44    56  55  40   104 104  88   100  99  87    88  90  79   100 107  97    77  87  74    65  76  62    69  81  71    59  71  62    86  99  88   128 142 124   103 118  99    68  81  66    83  95  86   126 136 124   130 141 129   122 134 122   122 135 121   122 135 121   113 126 111  
  42  52  44    57  66  61    70  80  76    53  64  60    47  58  53    60  70  70    79  88  91    94 103 108    77  86  92    73  83  85    75  86  83    72  83  77    79  90  84    80  89  83    78  84  79    55  60  54    35  40  33    79  85  75    56  63  52    32  40  28    35  38  31    26  27  21    19  20  14    18  17  12    25  24  19    33  34  27    29  30  22    24  27  19    28  30  23    37  37  24    82  81  61   124 122 102    90  88  73    88  90  79   104 112 100    91 104  87    80  91  77    72  83  73    56  69  59    82  96  81   124 139 120   103 116  97    69  80  66    85  93  86   127 133 123   140 149 138   131 142 130   126 138 124   128 142 127   128 141 125  
  40  50  42    66  75  70    70  79  76    63  74  70    53  64  57    57  68  65    69  79  80    88  98 100    73  82  85    63  73  72    65  76  72    76  87  79    77  88  80    80  92  82    84  91  83    69  74  67    53  58  51    66  72  64    45  52  44    29  36  27    21  24  17    16  17  11    15  16  10    13  12   7    18  16  11    27  28  20    30  32  24    30  33  24    34  35  29    57  56  41   130 128 105   120 118  95    72  70  55    81  83  72    82  90  77    87 102  83   104 115 101    97 109  99    77  90  80    76  90  75   102 117  96   104 117  97    90  98  85    97 102  96   122 126 117   125 131 121   124 134 123   126 138 124   127 141 126   141 154 137  
  53  66  59    70  82  78    82  92  88    79  88  87    58  68  60    40  50  46    65  75  77    85  94  99    70  79  84    63  68  71    64  69  65    67  70  61    78  84  79    82  91  86    74  87  80    73  89  79    72  85  76    71  81  72    44  47  40    25  24  19    13  11  12    14  10   9    15  10   7    20  16  12    22  17  12    16  16   8    27  28  20    45  51  39    52  52  42    75  73  61   142 143 112   107 108  77    53  52  40    66  67  65    86  91  86    82  87  90    89  99  91    98 108 100    81  91  82    75  85  74    88  98  87    90 101  87    88  99  84    96 107  91   108 118 108   121 131 120   124 134 123   139 149 139   135 146 132   137 148 134  
  73  89  79    76  89  81    76  87  80    72  81  77    47  57  49    46  55  52    62  72  74    74  83  88    73  82  87    72  77  80    65  70  65    60  64  56    65  72  65    71  81  73    71  82  74    78  91  82    71  84  73    63  73  63    41  47  39    19  20  12    17  17  13    16  15  11    15  12   8    18  15  10    17  15  10    14  14   7    29  32  24    55  60  50    64  61  46   111 107  89   136 133 110    79  78  58    43  43  34    48  51  47    53  59  56    86  96  90    88  98  88    99 109  99    99 109  99    91 101  90    76  86  75    79  89  78   103 114 101   111 121 109   118 128 119   138 148 139   140 150 139   137 147 136   124 135 121   132 143 128  
  73  90  78    61  74  64    69  79  71    69  77  71    54  62  54    47  56  52    52  62  63    68  77  82    75  84  89    68  76  78    61  67  63    66  71  64    60  67  59    61  71  62    83  95  85    95 109  97    69  82  69    57  67  56    51  58  47    26  30  20    19  21  13    21  23  15    24  24  18    25  25  19    26  26  21    22  23  17    29  32  25    51  54  45    65  58  38   124 119  94   100  96  79    50  47  39    56  58  50    73  79  73    58  68  64    64  77  64    82  93  80   100 110  98   114 125 112   125 135 124   104 114 104    86  96  87   108 118 109   121 131 123   130 139 133   140 150 142   135 145 136   132 142 131   127 138 124   134 145 129  
  67  84  70    46  59  49    53  65  55    70  79  70    65  73  64    50  59  54    53  62  63    71  80  85    73  82  87    59  67  69    55  61  57    63  68  61    62  71  62    83  93  84   104 117 107   102 115 104    92 104  92    79  89  78    49  59  46    26  34  21    14  17   7    17  20  11    20  22  15    19  21  16    28  29  24    30  31  25    32  33  25    48  49  39    99  90  65   118 112  83    63  56  45    36  33  33    63  66  58    86  93  86    80  91  85    73  87  70    90 101  86   111 122 108   124 135 121   143 153 142   139 149 140   115 125 116   114 123 117   117 126 121   124 134 127   122 132 124   118 128 119   126 136 125   138 149 135   141 152 136  
  71  87  76    52  65  55    56  68  58    72  82  74    72  79  71    51  57  53    51  59  61    75  84  89    71  80  85    51  60  61    56  62  59    65  72  65    80  90  82   101 111 103    99 109 101    81  93  83    89 101  91    71  82  72    40  50  38    36  46  34    16  17   9    15  16  10    12  15   9     8  10   7    18  19  14    22  22  14    23  21  10    43  39  27   123 114  86    96  88  65    56  52  42    50  49  47    69  74  67    84  91  83    84  94  85   102 115 102   108 119 105   112 123 109   122 133 121   146 156 147   152 162 153   131 141 133   114 124 116   109 118 113   122 132 123   111 121 113   118 128 117   141 151 140   157 168 154   139 150 136  
  63  76  67    57  70  62    67  78  70    62  73  66    72  78  68    51  57  53    47  55  57    69  78  83    70  79  84    54  62  65    58  67  64    69  76  69    86  95  91    83  92  87    68  77  72    60  70  62    63  73  65    59  70  62    70  81  72    53  65  55    22  21  16    15  15  11    14  14  12    11  11   9    15  14  10    12   9   2    19  13   1    55  48  32   115 107  75    60  53  36    49  45  36    56  57  49    70  75  68    68  76  65    64  72  61    83  89  85   108 118 107   102 112 102   121 131 122   147 157 148   154 164 155   135 145 136   115 125 117   119 129 121   133 143 131   137 148 136   148 158 147   155 165 153   163 174 160   140 151 138  
  58  69  63    60  71  64    70  79  73    58  67  61    60  67  60    57  64  61    51  60  61    64  73  77    70  78  83    59  67  70    62  71  69    55  62  58    65  76  72    82  91  88    78  87  85    66  75  72    53  62  57    59  69  61    92 102  93    56  68  57    24  22  17    16  14   8    14  12  13    12  11  13    14  15  10    15  13   3    33  26  10    93  82  59    84  78  52    33  28  15    38  37  25    52  53  42    45  50  43    31  38  28    46  51  41    80  84  86    93 100  92    94 102  93   115 123 115   138 148 138   143 154 144   132 143 133   118 129 120   129 140 130   151 161 149   153 163 150   160 171 158   162 173 161   161 172 161   134 145 134  
  65  71  67    47  53  48    57  62  57    55  61  56    57  66  65    52  61  60    44  53  52    61  69  70    70  78  80    56  64  66    67  75  77    48  56  58    52  61  58    67  76  73    72  82  81    64  75  72    54  65  59    64  75  66    83  92  79    62  70  55    29  30  24    21  19   9    17  12  11    10   8  15    15  18  13    25  26  11    64  55  35   117 100  69    61  56  45    32  29  18    36  37  27    56  58  50    61  66  59    42  47  42    29  32  29    55  58  56    90  92  86    92  96  89   105 111 104   139 150 140   139 151 141   125 137 127   127 139 129   139 151 141   155 162 155   157 164 156   157 167 158   160 170 161   151 163 153   134 146 136  
  55  61  58    37  43  39    45  51  46    54  60  55    60  69  68    50  59  58    40  49  48    53  62  61    64  72  74    61  69  71    72  79  82    48  56  58    50  59  56    56  65  62    66  77  74    63  75  70    44  57  50    62  74  64    71  81  70    65  73  59    38  43  36    25  27  16    21  21  13    14  13  13    27  27  22    44  44  19   105  97  63   106  89  62    43  42  32    50  51  40    51  54  43    79  84  73    91  97  87    48  52  44    25  26  19    41  43  36    80  85  78    89  95  88   103 113 104   136 148 138   123 136 126   115 128 118   137 150 140   145 156 146   157 164 157   167 176 167   158 168 159   149 159 150   146 157 147   141 153 143  
  44  50  46    57  63  59    59  68  63    58  67  64    54  63  62    52  61  60    48  57  56    54  63  62    56  65  64    64  72  74    78  86  88    60  68  70    45  54  51    51  60  57    60  71  68    69  82  75    47  60  51    53  66  56    75  87  75    69  78  67    54  64  55    47  55  44    33  37  22    38  37  33    53  50  44    86  82  48   133 125  80    89  72  52    44  47  36    72  75  64    73  79  67   106 114 101   120 127 115    70  73  62    46  47  37    58  58  48    85  95  87    93 103  95   106 119 110   138 154 144   122 137 126   107 123 112   132 145 135   150 162 152   157 167 159   170 180 171   159 169 160   149 159 150   150 162 152   145 157 147  
