P3
50 50
255
  57  44  10    56  43   9    55  41  12    49  38   5    53  39  10    69  51   8   150 134  57   189 174  80   169 156  63   164 155  60   163 147  51   150 134  37   133 118  32    94  78  18    63  48   8    63  50   7    66  54   4    65  52   4    65  52   8    65  51  12    67  54   9    76  61  10    83  66   7    88  70  10    93  74  11   105  88  17   107  89  15   109  91  15   106  86  14   109  89  19   126 107  12   129 111   9   107  88   2   101  84   1   106  92   3    93  80   1   100  88   1   104  92   1   102  87   1   113  98   3   123 104   1   132 111   1   143 120  10   155 133  27   142 121  16   136 115  10   140 122  16   149 131  22   147 129  19   140 122  10  
  52  41  10    51  38   8    50  36  12    47  36  10    50  37  10    79  62  15   175 159  80   193 178  88   164 151  60   155 147  47   165 148  49   147 133  31   132 117  29    97  80  20    68  53  12    73  60  15    78  66  13    73  61   8    71  59  12    71  60  15    73  61  12    84  70  14    91  75  11    93  79  15    97  82  15   104  89  18   103  87  10   104  87  12   102  84  11   110  91  23   122 103   8   119 104   3   106  89   6    95  79   1    99  88   1    98  88   1   104  94   5    93  81   1    94  80   1   117 100  11   119 101   1   133 111   3   145 122  12   151 128  25   134 112  10   128 106   4   129 110   6   135 117  10   136 118   9   138 120  10  
  58  49  10    56  47   9    55  46   9    52  38  20    55  41   7   102  89  16   187 172  82   186 171  78   157 144  46   154 146  38   159 146  42   153 137  36   137 120  32   106  87  20    80  62  11    76  63  13    82  70  16    85  70  14    86  71  13    89  73  13    91  75  10   100  82  15   106  88  19   111  92  17   110  92  18   109  92  22   109  95  25   110  95  22   110  92  16   114  93  12   121 102   7   125 108   7   112  96   1    96  79   1   102  85  13    97  82   1   102  89   1    96  82   1   102  88   1   111  95   1   124 106   4   131 111   5   145 124  14   145 123  15   138 118  10   131 109   7   124 102   1   135 114  11   136 118  10   133 115   3  
  69  58  13    70  59  14    66  55  11    61  46  10    72  57   4   133 120  40   191 178  87   192 177  90   177 165  76   168 158  61   168 153  60   158 142  49   139 121  37   111  91  20    94  75  15   100  85  22   106  92  25   103  88  20   106  92  21   111  94  22   112  95  20   119 101  25   123 106  28   124 106  27   118 100  22   112  94  20   111  95  22   114  97  22   119 101  21   129 108  25   122 103  10   127 109   8   112  96   2    91  74   1    90  73   1    99  86   1   111  98   2   104  90   2   104  88   1   114  96   1   131 112  10   141 120  14   151 129  19   149 128  19   150 129  24   130 108   6   121  99   1   134 113  10   140 122  15   144 126  16  
  94  82  24    88  75  20    79  66  11    79  65   3   110  94  17   160 147  55   193 179  90   200 186 105   198 186 105   194 184  96   197 180  99   184 167  82   161 141  59   131 109  32   117  98  22   124 106  26   128 113  28   126 111  28   128 112  29   130 114  29   129 111  27   132 114  28   132 114  27   133 113  29   127 106  25   119 100  21   120 101  23   122 102  22   128 106  22   139 118  29   127 108  15   125 107   8   113  96   2    98  80   1    94  77   1   114  99   5   122 108   7   118 102   7   113  96   1   118  99   1   137 115  13   150 127  21   157 133  25   148 126  20   156 134  31   136 114  12   132 110   8   145 125  21   151 132  25   153 135  25  
 126 109  37   115 101  27   104  90  17   112  95  14   142 127  37   172 157  63   201 185  99   206 191 113   207 195 116   207 197 112   215 199 121   205 188 107   185 165  84   158 135  55   145 123  40   147 125  39   145 125  37   141 124  36   143 126  38   146 129  41   147 127  40   150 130  44   150 130  43   146 125  39   136 114  29   131 109  25   136 114  30   136 114  29   143 119  32   155 131  41   136 118  25   121 103   7   113  95   1   111  93   4   108  91   3   124 108  12   121 106   3   130 111  11   127 108   7   126 104   2   137 114  10   156 131  25   164 137  31   146 122  19   152 130  28   145 123  21   145 123  20   157 137  32   160 142  35   158 140  30  
 142 126  39   137 121  36   130 114  29   143 125  38   161 141  52   187 170  80   209 193 109   204 190 110   206 193 112   201 190 104   204 188 105   200 183 100   192 171  90   177 153  71   170 147  63   170 148  65   168 147  64   168 147  64   169 148  65   169 148  65   168 147  64   170 150  67   171 149  66   162 140  53   146 124  38   144 120  34   150 126  40   153 129  42   162 137  48   173 150  57   150 129  37   128 109  15   125 106  11   125 106  13   120 101   8   131 113  15   120 103   1   133 112  11   135 113  11   128 105   3   138 115  11   162 137  31   168 141  36   151 127  24   150 128  26   151 130  25   147 126  19   159 139  31   162 145  35   161 143  33  
 164 146  60   161 143  57   156 138  52   168 147  65   180 159  78   202 184 102   205 188 107   200 185 104   199 184 102   202 187 102   194 178  94   192 175  93   191 171  91   186 164  82   186 164  81   187 164  89   188 165  93   192 170  94   190 168  92   186 164  88   183 161  85   183 161  85   181 159  83   170 150  66   155 133  47   152 128  42   156 132  46   159 134  47   164 140  53   168 147  56   152 131  40   137 116  23   140 119  26   130 109  16   125 105  10   139 119  22   128 109  10   130 109   8   130 108   7   129 106   4   142 119  15   165 141  35   165 141  35   156 133  30   153 132  27   155 134  27   150 130  18   159 141  28   162 144  31   161 143  31  
 196 177 100   192 173  97   188 167  92   192 169  94   199 177 102   206 189 112   199 184 103   199 183 101   198 180 100   205 186 109   197 182  99   193 176  99   195 174 100   194 173  93   193 175  93   194 176 102   194 173 106   196 173 103   195 172 102   194 172  99   192 170  97   191 172  96   189 170  93   179 160  79   164 143  60   159 137  52   162 137  52   163 138  53   165 143  57   163 143  56   153 132  39   140 119  28   148 127  35   131 110  17   130 110  15   144 123  30   136 116  21   131 111  13   127 107   8   132 110   9   146 124  21   160 138  33   157 134  28   152 130  25   154 133  26   149 129  17   149 129  15   159 140  24   160 143  27   163 146  29  
 209 189 122   207 185 120   207 185 120   206 183 115   204 184 111   207 190 113   207 191 112   201 185 104   206 185 109   202 180 109   199 182 104   194 175 104   197 177 106   198 178 101   198 181  99   199 183 109   199 182 116   202 179 111   199 178 108   197 177 104   195 175 102   195 176  99   191 172  95   189 171  90   175 155  74   166 144  60   166 141  57   170 145  61   177 156  70   178 158  72   169 148  55   152 131  40   160 139  48   144 121  29   148 125  32   154 130  40   143 120  30   135 115  20   129 109  13   136 117  15   145 124  21   151 129  24   147 125  17   145 123  17   150 129  21   135 115   2   140 121   4   154 136  16   158 142  23   167 150  32  
 216 199 143   215 198 141   212 196 137   210 193 134   210 195 130   211 193 127   215 198 127   210 192 119   210 191 118   209 189 116   207 188 119   199 180 111   195 176 108   200 181 113   205 187 119   206 187 121   203 183 118   202 181 116   200 179 114   201 180 113   199 179 110   199 179 109   197 177 106   195 173 100   185 162  86   178 155  76   175 153  70   174 152  69   174 152  69   179 156  76   183 162  79   168 148  62   167 146  60   152 131  43   155 131  41   164 141  48   161 138  46   153 129  37   137 113  16   135 111  12   139 114  13   137 112  11   142 117  16   148 125  16   158 136  27   134 113   7   133 116   3   143 128   6   154 139  13   161 144  19  
 220 203 147   220 204 148   220 203 146   220 204 144   220 204 142   217 199 133   217 200 130   215 197 125   218 199 127   216 196 125   206 187 119   202 183 115   201 182 114   204 185 117   208 189 122   209 190 124   208 188 122   204 183 118   202 181 115   202 181 114   201 181 112   200 180 111   198 178 107   198 176 101   189 166  88   180 157  77   176 154  71   177 155  71   176 154  71   173 150  70   185 164  81   176 155  69   174 152  66   163 142  54   162 141  51   169 146  53   164 140  47   157 132  39   135 111  15   128 104   6   130 106   7   131 106   6   141 116  15   146 122  13   153 131  22   133 112   4   133 117   1   144 130   2   159 146   9   169 154  18  
 224 204 151   225 205 150   224 205 148   222 203 145   221 202 143   217 199 134   213 195 128   213 194 126   217 198 129   214 193 126   208 189 123   204 185 119   203 184 118   206 187 121   211 192 126   211 192 126   208 188 122   204 183 118   201 180 114   202 181 114   201 181 112   200 180 109   197 177 106   191 169  93   187 164  84   183 161  77   177 155  70   174 152  67   174 152  67   173 151  68   184 164  78   181 159  74   177 155  68   173 152  62   173 152  61   176 155  62   171 148  53   162 138  39   136 112  17   125 100   8   125 100   7   130 105   8   141 116  14   141 118   8   144 123  14   134 116   6   137 122   3   145 133   1   161 149   6   168 153  10  
 224 205 149   223 204 147   221 202 144   218 199 141   220 202 143   220 202 140   215 196 130   214 195 127   218 199 132   214 195 129   215 194 131   206 185 121   202 181 116   207 186 121   212 192 127   208 187 120   204 182 115   203 180 113   201 178 110   202 179 111   201 178 108   199 177 104   196 174 101   191 168  90   188 166  83   183 161  75   176 154  67   167 146  58   165 143  57   165 143  58   179 157  71   178 157  70   174 153  64   176 155  65   175 154  61   179 159  66   176 154  58   166 142  40   142 117  23   128 102  14   124  98  11   128 103   9   135 111   9   132 111   3   132 114   4   131 115   6   136 123   5   142 130   1   152 139   2   149 134   1  
 221 202 146   220 202 143   220 201 142   215 196 138   220 201 142   224 206 144   217 198 132   213 194 128   218 199 133   217 198 132   218 197 134   207 186 122   201 180 115   203 182 116   209 187 120   205 185 116   201 180 111   200 177 107   198 175 103   200 178 105   199 177 102   197 175  99   191 169  93   189 167  84   181 159  73   171 150  61   172 151  60   170 149  59   166 145  58   162 140  54   173 152  63   174 153  64   172 151  61   173 152  61   167 146  53   169 148  55   171 149  53   161 138  36   143 118  24   126 100  13   118  92   7   122  97   5   124 100   2   123 103   1   120 103   1   120 106   1   126 113   1   133 120   1   140 125   1   133 117   1  
 213 193 134   215 195 134   217 197 134   213 193 132   217 197 138   224 204 141   212 193 127   209 190 122   214 195 128   217 198 132   215 194 129   208 187 122   202 181 114   199 179 111   201 181 110   201 181 108   199 179 105   195 173  97   193 171  95   195 174  95   193 172  92   189 168  87   181 160  78   175 152  65   173 149  61   166 143  52   170 147  54   168 145  53   170 145  57   168 144  58   167 144  55   172 151  61   172 151  60   165 144  52   153 132  39   151 130  37   155 135  38   150 126  25   140 115  20   123  98   7   113  89   1   121  97   7   121  98   5   121 103   1   114  99   1   114  98   1   117 104   1   128 116   1   138 124   5   136 120   3  
 207 187 124   207 187 123   208 189 122   206 187 124   211 191 130   221 202 136   214 195 127   211 193 125   214 197 128   218 200 133   212 192 124   207 186 119   201 181 111   195 175 103   193 174  98   193 174  97   191 171  93   186 163  83   184 161  81   185 163  80   181 159  74   174 153  67   165 143  57   160 136  48   170 146  56   169 146  53   162 139  45   153 130  36   156 132  41   154 130  42   156 132  42   169 145  55   167 146  55   149 128  35   140 119  25   136 117  23   142 121  26   142 118  20   141 117  20   124  99   6   111  88   1   121  97   8   117  93   6   115  96   2   111  95   1   114  99   4   118 106   1   132 121   2   143 130   4   145 130   3  
 207 188 122   204 185 118   202 183 114   198 178 115   202 182 119   217 198 132   216 197 128   214 196 127   214 197 128   217 199 131   213 192 125   204 184 115   197 177 105   192 173  98   190 171  94   184 166  87   181 161  81   176 154  71   174 152  67   174 152  67   170 148  62   161 140  51   149 128  39   148 125  35   164 141  48   162 139  45   152 129  35   144 121  28   147 123  32   137 113  25   145 121  31   163 139  49   161 138  47   135 114  21   130 111  17   131 113  18   138 118  23   142 118  22   146 122  24   127 103   7   110  87   1   116  92   4   104  81   1   103  84   1   105  89   1   115 100   8   122 111   1   137 127   2   144 132   1   146 133   1  
 198 178 109   198 177 108   195 172 101   190 165  95   196 171 104   214 194 129   216 199 137   213 198 135   214 199 133   216 201 132   212 194 128   205 186 115   200 178 103   182 158  79   172 147  65   172 150  65   165 144  58   162 140  53   160 139  48   157 136  43   148 129  38   138 118  34   129 109  30   134 119  25   156 131  34   147 116  41   136 116  33   127 110  20   130 109  14   126 104  26   132 110  24   146 125  36   144 125  30   123 103  16   121 102  11   128 106  22   137 116  19   150 127  23   143 120  19   115  90   4   105  83   2   110  90   1   105  86   1    96  77   4   108  93   1   126 118   1   118 111   1   134 132   1   133 130   1   137 131   7  
 180 158  84   180 157  82   178 155  78   175 150  75   171 147  77   200 179 114   216 198 135   213 197 133   209 195 125   207 191 117   204 186 112   203 183 109   196 172  96   173 147  68   158 133  51   152 130  45   146 125  39   142 120  34   139 119  31   138 118  29   130 112  27   123 104  24   114  95  21   116 100  17   142 119  24   142 112  32   130 112  24   126 109  19   130 108  16   126 105  25   121  99  14   124 102  21   132 114  24   120 102  18   114  93  10   121 100  19   133 113  15   146 124  17   134 113   9   105  82   1   100  78   1   106  87   1   102  84   1    99  82   1   112  99   1   122 112   1   110 101   3   121 116   3   124 118   1   122 114   4  
 160 137  57   160 137  55   161 136  52   151 128  48   141 119  43   188 168  99   221 202 139   214 196 129   203 186 111   194 178  98   201 180  97   197 175  94   178 154  74   154 129  49   141 118  38   137 115  32   131 111  29   126 108  27   122 105  22   121 103  21   115  98  21   108  89  19    99  80  16   101  84  16   138 114  23   145 119  30   128 112  21   125 109  20   122 102  11   115  96  13   116  93  14   105  83  13   120 102  23   112  96  18   100  82   7   106  86  12   124 103   6   134 112   8   124 104   3   105  83   1   101  80   1   103  85   1   100  82   2   105  88   1   120 107   1   111  99   3    96  85   7   112 105   3   117 109   2   116 105   1  
 144 122  39   148 123  39   145 121  34   131 111  29   120 102  25   177 157  87   215 196 127   206 187 115   193 176  94   189 173  85   194 171  79   184 160  73   153 129  48   130 107  31   127 105  29   122 104  27   117  98  23   110  92  20   104  87  15   102  85  15    97  81  17    90  74  16    81  64  12    87  69  18   136 113  24   143 118  26   118 102  12   114 100  14   114  95   9   110  91  11   112  89  16    91  69  12   101  85  18    93  79  11    81  66   5    87  69   4   111  95   1   118  97   1   116  96   1   105  84   2   101  82   4   102  84   1    99  81   1   101  85   2   108  96   1    92  80   1    87  75   3   119 114   1   126 120   5   130 122   1  
 136 115  34   138 116  33   131 109  26   119  99  24   110  91  20   163 143  72   197 177 103   193 174  94   183 166  78   184 168  74   180 157  59   167 145  55   133 111  32   109  88  18   106  87  20   102  83  14    96  79  12    90  74  12    85  70   9    84  69  12    82  66  14    76  62  16    69  54  12    70  53  11   130 110  22   140 115  23   116 102  17   114 100  19   112  95  14   109  91  14    99  79  10    80  60  10    78  65   9    66  55   2    64  50   1    73  55   1   106  89   6   107  88   3   106  89   2   100  81   3    97  78   1    98  82   1   101  84   1   102  85   7   101  86   2   100  88   3   100  89   6   132 128   4   137 133   3   139 130  10  
 114  96  22   116  98  24   109  89  16   104  85  21    98  79  16   153 132  61   185 164  83   185 164  75   174 154  61   170 151  56   170 145  46   156 134  45   119  99  26    89  70  11    81  64  10    80  65  10    80  65  11    77  64  12    73  60  10    71  58  13    69  56  14    65  52  15    59  46  11    62  48  11   132 114  25   128 105  18   107  93  18   105  92  15   103  85   9    97  80  10    93  72   9    76  57  12    62  51   6    48  38   1    50  39   1    60  45   1   100  85  11   102  85   6   105  89   7   101  83   7    98  80   4    99  83   1    99  84   1    96  81   1    92  80   1   109 102   1   106  98   1   123 118   2   123 119   1   116 105   2  
 101  87  23   105  89  27    99  83  22    92  74  24    83  64   9   143 123  51   173 153  64   167 146  49   156 135  38   147 127  32   153 127  31   138 115  32   105  85  21    74  59   9    66  53  10    68  55  13    67  54  10    65  52   9    61  48   8    59  46  11    54  42   8    50  39   7    45  34   4    62  48  12   137 118  28   102  80   2    84  70   7    86  74   4    90  72   3    87  68   8    90  70  11    72  54  11    55  44   7    40  32   7    39  30   1    51  37   2    94  79  13   103  86   4   103  88   2    98  83   5    95  79   4    96  81   1    92  75   1    91  75   1   102  90   1   116 108   3   106  98   3   121 115   4   123 116   1   115 104   4  
  83  71  13    88  76  19    86  72  20    84  66  26    71  51   3   133 113  42   157 136  43   142 120  19   138 116  16   132 111  18   129 105  10   118  95  14    93  75  15    71  56  14    64  51  17    60  47  13    56  43   7    56  43   7    53  40   6    51  40   8    47  36   6    44  35   6    41  32   3    56  44   4   130 115  24    92  70   2    86  71  16    92  80  12    94  76   9    83  66  10    84  64   7    64  48   4    47  38   7    37  30  11    32  22   1    45  32   1    89  75  11   104  90   3    97  83   1    87  71   1    85  68   1    90  73   1    85  67   3    85  69   3   112 102   1   104  97   1    88  80   1   112 106   1   114 105   7   111 101   1  
  76  65  19    77  65  20    75  64  18    72  61  19    58  39  11   122 101  31   154 132  21   119  93  16   115  96  26   108  99  13   104  85   8    97  80  14    81  67  16    62  51  13    50  43  11    47  39  11    43  36   7    41  36   6    40  35   6    38  32   6    37  31   7    34  29   7    31  26   5    44  37  13   119  98  32   109  90   3    91  79  11    94  78  18    95  82  18    93  79   5    83  66  14    57  44   1    37  28   1    33  29   4    28  21   2    42  30   3    84  71  12    95  75   6    86  67   1    83  64   1    82  64   1    83  66   4    75  59   1    87  74   1   111 102  10    82  75   1    69  64   1    94  90   1   104  96   1   116 102   4  
  64  55  14    65  55  15    63  54  13    54  46   8    50  34   7   102  81  18   142 120  15   112  87   7   102  83  12    93  82   1    94  76   5    87  69   9    70  56   9    52  42   6    43  35   7    39  33   4    37  31   2    37  32   3    36  31   4    33  27   3    31  26   4    30  25   5    27  22   2    37  29   3   116  93  25   120 102  12    89  78   7    93  77  15    88  77  12    85  73   1    79  61  14    54  41   2    33  25   1    29  23   3    24  17   3    39  28   3    78  66  11    85  70   6    76  61   1    77  63   1    79  65   4    78  66   6    75  63   3    81  68   1    90  79   1    73  64   1    73  65   1    96  90   4   106  96   4   111  97   4  
  48  42   6    50  44   8    48  42   6    43  37   4    46  33   7    81  64  13   137 118  25   118  97  15   102  83  14    93  82   2   101  83  18    83  69  13    58  47   5    43  33   3    40  32   8    38  31   7    34  27   4    33  27   3    31  26   3    29  23   1    27  22   2    26  21   3    24  18   2    34  26   1   114  92  24   127 108  21    79  68   2    82  68   7    78  69   6    77  67   1    70  53  13    49  35   4    28  19   2    22  15   1    20  11   2    34  22   3    70  58   9    75  62   7    67  55   1    69  59   1    72  62   1    69  61   1    68  60   1    77  64   4    75  65   1    73  63   1    80  71   3    99  92   1   114 104   1   120 108   3  
  39  34   5    41  36   7    40  35   6    38  34   6    36  27   1    64  48   9   125 108  27   113  95  15    95  78  13    92  79   7    92  78  21    72  59  11    47  36   2    34  26   1    35  28   8    34  27   7    31  25   2    32  25   5    30  22   3    26  21   2    26  20   4    24  18   3    23  17   3    34  25   3   112  88  28   117  97  20    70  59   1    71  58   5    67  58   4    68  57   1    60  44  10    42  30   3    23  15   4    16  10   1    17   8   3    31  19   4    62  50   5    70  57   4    67  55   1    69  58   1    72  62   1    70  61   1    69  60   1    72  59   3    67  54   1    76  65   1    91  83   1   113 108   1   132 123   1   139 128   1  
  34  30   5    37  33   8    35  31   6    33  30   7    29  22   1    61  48  12   101  88  16    88  72   4    77  61   5    75  65   1    66  54   4    59  48   6    42  33   3    32  26   4    32  25   7    30  23   5    30  22   4    30  24   5    27  22   3    26  20   4    25  19   3    23  17   3    21  17   2    30  23   6   101  78  28    96  76  12    67  54   6    65  51   6    58  47   4    54  42   1    52  37   6    36  26   3    20  13   6    12   9   1    14   7   4    30  17   3    59  45   2    73  56   3    76  60   2    79  64   1    83  68   1    85  70   1    81  68   1    72  61   1    70  58   1    81  71   1   101  92   1   122 113   1   130 120   1   130 116   1  
  33  28   6    35  30   8    34  29   7    31  26   4    32  24   3    68  58  20    82  71   9    65  52   1    65  54   4    62  55   1    54  43   1    55  47  11    42  35  10    31  25   7    27  21   5    29  23   4    33  26   7    27  22   3    25  20   3    25  19   3    25  19   3    22  17   2    19  16   1    28  22   9    86  65  22    80  60   4    63  51   7    61  47   4    55  45   4    53  39   2    48  34   5    33  24   1    18  13   5    11   8   1    14   7   4    30  20   4    59  47   2    75  58   4    80  64   6    82  67   1    86  71   2    88  73   3    83  68   2    73  62   1    78  66   6    89  78   5   105  94   1   111  97   1   117 100   1   121 101   2  
  34  29   7    35  30   9    34  29   7    31  26   4    33  25   4    68  60  16    74  65   7    57  44   6    59  50   8    54  49   4    54  45   5    52  45  11    36  31   7    27  21   4    26  20   4    27  21   2    31  25   6    27  22   3    25  20   1    26  20   4    25  20   4    20  17   1    19  16   1    24  22   7    73  54  10    78  62   7    63  54   8    65  51   6    61  49   5    61  46   7    48  34   5    31  22   1    17  13   2    11   9   1    15   9   3    34  25   7    61  51   4    71  57   6    75  63   5    76  65   1    78  68   1    77  66   1    75  64   1    68  59   1    74  63   7    90  78   4   113 102   3   115 100   1   127 109   5   138 119  17  
  37  31   9    39  33  10    37  31   9    38  32  10    36  28   7    64  56   8    77  69  11    58  48  18    55  49  12    50  47   8    54  47   8    48  42   9    34  28   6    31  27  11    34  31  14    30  25   6    29  24   4    28  23   4    26  21   2    28  23   4    27  22   5    21  18   1    20  17   1    18  18   1    60  46   1    89  74  16    72  63  15    73  61   9    68  55   6    67  50   6    47  37   5    29  23   1    15  14   1     9  10   1    14  11   2    37  28   8    62  54   7    62  54   6    65  58   3    69  62   1    74  65   3    71  62   1    72  63   5    72  63   2    71  59   8    86  74   1   130 119   8   137 124   5   147 132   6   148 133   8  
  38  32   6    38  32   5    37  31   5    39  32   9    36  29   2    56  48  11    71  64  21    59  51   8    56  46   9    58  47  14    49  42  13    39  33   6    33  27   4    32  27   6    35  30  10    30  29   7    28  25   5    30  25   6    30  25   6    29  24   5    27  22   3    25  19   3    25  19   3    20  18  12    51  40   2    96  78  12    81  68   4    80  68   1    77  60   1    67  54   4    53  39   1    35  26   1    18  12   1    13   9   1    17  10   2    40  29   6    65  54   5    64  53   8    72  62   6    75  65   1    81  69   1    86  73   4    80  64   2    77  65   6    70  55   3    88  72   2   145 131  17   143 126   9   143 127   3   150 136  11  
  40  34   8    39  33   7    39  33   7    39  32  11    35  27   2    44  38   3    62  55  15    58  51  10    55  45  10    51  40  10    44  37   8    39  32   5    34  28   5    32  27   6    33  28   8    31  29   8    30  27   7    30  25   6    29  24   5    29  24   5    28  23   4    27  20   5    26  20   4    21  16   7    56  45   1   100  80  17    86  72  12    84  72   8    84  69  11    76  65  14    58  45   2    44  35   5    26  20   8    18  14   5    18  11   3    40  29   8    73  62  10    80  69  12    86  76   7    96  85   4   102  92   6    95  82   2    87  70   1    75  63   1    71  56   1    96  81   2   143 130  17   146 130  14   148 133   9   157 143  18  
  42  36  10    40  35   9    40  34   8    40  32  11    35  27   5    38  31   2    51  44   8    54  46   9    49  40   9    44  34   7    38  33   3    37  31   4    35  29   6    32  26   6    31  26   6    33  28   8    32  29   9    30  25   6    28  23   4    28  23   4    29  24   5    28  22   6    26  20   4    27  21   5    71  59   9   100  81  19    77  65  12    71  62   5    72  61   7    67  59   7    66  55  10    51  44  10    28  22   8    17  13   2    17   8   3    43  32  11    82  72  17    86  74   7    92  80   4   107  96   7   108  95   1   110  95   6   108  91   7    87  74   3    79  64   4   106  92   8   140 126  15   144 127  13   145 130   6   149 134   9  
  43  37  11    42  35  10    41  35   9    38  30  11    41  32  12    40  33   4    44  38   6    44  37   7    40  33   4    40  32   8    35  30   1    35  30   4    34  29   7    31  26   6    31  26   6    33  28   8    34  29   8    31  26   7    28  23   5    28  23   4    30  25   6    29  23   7    26  20   4    32  26   4    88  74  20    96  77  17    59  48   3    57  48   1    60  50   1    55  49   1    59  49   3    46  39   4    23  18   4    17  13   3    20  11   4    49  37  14    91  78  22    94  79   9   102  87   7   109  96   5   105  90   1   112  96   3   112  94   5    93  77   2    77  61   1   108  94   8   133 120   9   139 123  10   144 129   7   145 130   5  
  42  36  12    40  35  10    40  34  10    38  31  10    42  36  14    40  34   8    40  35   6    38  33   4    36  30   5    39  32  10    35  31   4    34  29   4    33  28   7    32  27   8    32  27   7    32  27   7    32  27   6    31  26   7    29  24   5    29  24   5    30  25   6    28  22   6    26  20   4    32  25   1    94  80  24    90  72  15    50  40   2    56  50   7    60  52   8    56  52   7    54  44   1    44  37   5    25  21   6    22  18   6    22  14   3    46  34   7    92  81  15   115 101  19   126 113  21   132 118  19   141 125  22   134 116  15   121 103   4   103  87   4    78  60   1   113  98  11   129 116   8   130 115   4   141 126   5   146 128   2  
  41  35  11    40  34  10    39  33   9    38  32   9    41  34  11    37  31   5    39  33   7    39  34   8    36  32   8    37  32  10    37  33   6    34  30   5    32  27   6    33  28   8    33  28   8    31  26   6    30  25   4    31  26   7    29  24   5    29  24   5    29  24   5    28  22   6    26  20   4    31  25   2    90  78  23    88  72  15    52  44   5    58  53  13    58  49  10    53  45   6    54  44   9    43  35   7    25  21   8    21  18   4    23  16   1    51  40   5   102  92  16   136 127  27   145 135  28   159 148  33   174 162  42   162 150  30   146 131  14   119 102  10    88  70   1   121 105  18   127 115   8   123 108   1   135 119   1   143 126   1  
  40  34  10    39  33   9    39  33   9    38  32   8    38  32   8    36  30   4    39  35   8    38  34   8    36  31   8    33  31   8    34  32   7    32  30   6    32  28   8    32  27   8    32  27   7    31  26   6    30  25   3    29  24   5    29  24   5    29  24   5    29  24   5    28  22   5    27  21   5    31  26   7    74  64  13    84  70  12    54  48   7    52  48   7    51  39   3    46  35   3    44  33   6    32  25   3    20  16   5    19  16   1    29  23   1    73  61  17   123 114  29   143 134  27   147 138  25   157 148  27   160 150  26   162 151  26   152 139  16   119 102   5    91  73   1   117 101  12   124 112   7   129 115   7   142 126   7   148 130   4  
  40  34  10    39  33   9    39  33   9    38  32   7    37  31   5    38  33   6    39  35   8    35  31   5    32  30   5    32  30   7    33  31   6    33  30   8    33  29   9    31  26   7    31  26   6    31  26   6    30  25   4    28  23   4    28  23   4    29  24   5    28  23   4    28  22   6    28  22   6    25  21   3    55  46   1    74  63   4    53  49   7    47  43   3    49  37   4    50  36   7    38  27   3    28  21   3    21  16   7    20  18   2    31  26   1    79  68  18   125 117  29   138 129  28   143 135  28   140 130  16   141 130  12   152 142  21   150 138  18   117 102   4    92  74   1   109  93   4   120 108   4   138 123  16   148 132  14   149 131   5  
  41  35   9    40  34   8    39  33   7    37  33   7    37  33   8    37  33   6    37  33   4    36  32   4    35  31   5    35  31   6    34  30   5    34  30   5    34  29   6    32  27   5    31  26   4    31  26   6    30  25   5    29  24   4    29  24   4    26  23   4    25  22   3    24  21   2    24  21   4    27  20   2    38  30   7    54  47  19    50  44  12    40  34   3    40  33   6    35  28   6    27  22   1    23  20   6    20  19   2    21  15   4    35  29   1    92  84  18   118 107  27   148 135  31   148 138  23   144 134  19   151 140  21   158 146  18   153 138  15   121 104   8    99  81   1   110  89   9   122 102   8   146 129  14   167 150  23   175 158  28  
  40  34  10    40  34  10    39  33   9    38  33  10    38  34   9    38  34   7    38  34   7    37  33   6    35  31   5    35  30   8    34  30   5    34  30   5    34  30   6    33  28   6    32  27   5    32  27   7    30  25   5    30  25   5    29  24   4    27  24   5    26  23   4    25  22   3    25  22   5    24  18   1    28  22   1    39  33   7    37  32   4    31  25   1    31  25   3    27  20   1    26  21   2    19  16   3    20  18   3    22  16   5    40  34   4    86  78  15   107  96  15   153 140  33   155 146  30   146 137  23   153 142  25   157 145  20   153 137  17   124 106   9   110  90   4   115  95   8   135 116  16   158 140  21   166 149  19   176 159  27  
  40  34  10    40  34  10    40  34  10    39  34  11    39  35  10    39  35  10    39  35   8    38  34   8    36  32   7    35  30   8    35  31   6    35  30   8    35  30   8    35  30   8    34  29   7    33  28   6    32  27   7    31  26   6    30  25   5    30  25   6    27  24   5    25  23   4    25  22   5    25  20   3    24  19   1    28  23   1    29  25   1    26  21   1    26  21   2    24  18   2    26  21   3    18  14   2    20  18   4    22  17   3    41  34   7    80  70  16   101  89  12   153 141  32   154 144  28   134 124  10   138 126  11   144 130  10   142 123   9   121 101   3   128 109  17   130 110  14   143 125  16   162 146  20   165 149  16   176 160  23  
  41  35  11    41  35  11    41  35  11    40  35  12    39  35  10    39  35   8    39  35   8    39  35   8    36  32   7    34  29   7    35  31   6    36  32   7    36  32   7    36  31   8    35  30   8    34  29   7    34  29   7    33  28   6    32  27   6    31  26   6    29  25   5    27  24   5    26  23   4    27  24   8    23  20   4    24  21   2    26  24   3    25  22   2    25  22   5    25  21   9    24  19   1    20  16   5    22  21   5    23  20   1    36  30   4    72  61  14   108  96  20   155 143  33   157 146  30   140 129  18   140 128  16   143 129  12   128 109   5   115  94   1   146 126  28   145 126  20   144 125   7   157 140  10   169 152  16   176 159  21  
  43  37  11    43  37  10    42  36  10    41  35  10    41  35  11    40  34   8    41  36   7    41  35   8    38  32   7    36  30   6    36  32   5    36  32   5    37  33   6    37  33   6    37  33   6    36  32   5    35  31   5    34  30   5    33  29   4    32  28   3    31  26   4    29  25   3    28  26   5    26  25   6    23  22   4    24  23   3    25  24   5    23  22   4    22  20   5    25  23   9    26  21   2    23  20   7    23  22   5    26  23   1    33  26   3    59  47   7   118 106  31   161 149  39   154 143  28   150 138  28   149 137  28   148 131  19   130 110   7   119  96   2   151 128  27   155 135  19   149 131   4   157 139   5   177 159  23   179 161  25  
  46  41  12    45  40  11    44  39  10    43  37  10    42  37   8    41  36   6    42  37   7    43  38   8    40  35   6    37  31   5    37  33   4    38  34   5    39  35   6    39  35   5    39  36   5    39  36   5    38  34   4    38  33   4    36  32   3    35  31   2    34  30   3    33  29   2    32  28   3    28  26   4    26  24   3    26  23   4    26  23   4    24  21   3    23  20   3    26  23   7    27  22   2    24  22   7    24  23   5    31  29   1    34  26   3    48  35   2   119 106  33   158 144  38   138 127  13   145 133  24   144 130  23   140 124  12   134 114  10   130 106  13   144 121  20   157 136  16   165 146  14   167 149  15   184 166  34   186 168  35  
  49  44  12    47  42  10    45  40   8    45  40   9    44  39   9    43  38   6    44  40   5    45  41   7    43  38   7    39  34   4    41  36   4    41  36   4    42  37   5    43  38   4    43  39   4    43  39   4    43  38   4    42  37   5    40  37   4    39  36   3    37  34   3    36  33   2    36  32   3    32  30   3    30  28   3    28  26   3    27  25   4    27  25   5    26  23   4    27  24   5    29  24   2    26  23   5    27  26   5    32  31   1    36  28   4    47  34   2   114 101  27   145 130  28   132 120   9   140 127  21   139 125  20   136 120  10   132 112   8   136 110  22   141 115  16   160 138  17   180 160  27   177 158  27   188 169  40   195 176  47  
  50  46  11    48  44   9    46  42   7    46  42   9    45  40   8    45  41   6    46  42   5    47  43   7    45  40   7    41  36   4    43  39   4    43  39   4    44  40   5    45  40   4    45  41   4    45  41   4    45  40   4    44  40   4    43  39   4    41  38   3    40  37   4    39  35   3    38  35   2    36  32   3    34  30   3    30  26   1    28  23   1    31  26   5    30  25   5    28  23   3    29  26   1    28  26   6    31  31   6    31  30   1    37  30   6    52  39   8   114 101  27   140 125  23   133 120  11   127 114  10   128 113   8   133 117   6   131 111   6   139 112  25   142 117  19   166 145  21   186 166  33   180 160  30   188 168  42   200 180  55  
