P3
50 50
255
 100 103  24    85  87  15    79  81   8    88  89  13    94  96  13    99  99  11   104 104  10   111 109  11   119 115  15   126 122  22   128 126  17   134 132  23   138 135  28   138 134  28   137 133  25   135 132  19   134 132  16   133 130  13   125 127   1   116 119   3   115 120   4   107 115   1   113 122   3   115 123   4   125 132   2   133 143   1   138 145   1   139 141  19   149 147  36   151 150  22   155 156  19   163 167  19   155 163   2   145 155   1   142 152   3   147 155   7   154 159  16   158 160  23   162 162  32   168 167  42   168 168  47   167 168  49   162 164  39   159 163  21   143 147   1   133 135   3   141 139  20   150 147  32   152 148  40   146 137  44  
  86  89  21    68  70   7    73  74   5    87  87  14    95  96  16    98  98  10   100 100   4   108 106   5   117 114  10   125 122  17   128 123  20   133 128  25   132 127  22   126 122  15   129 126  14   136 133  15   136 135  12   133 132   7   120 122   1   115 119   1   117 122   5   112 120   1   115 125   1   115 123   1   126 134   4   135 144   2   131 134   4   128 129  14   139 140  17   149 151   8   156 160  11   160 165  10   152 161   1   147 157   1   145 157   1   148 158   1   153 159   7   156 159  16   160 160  26   163 162  38   164 163  45   162 162  49   160 162  34   147 150   7   131 135   1   129 131   1   135 133  12   144 141  26   160 156  48   168 159  63  
  78  83  21    66  69  11    71  70   7    82  82  13    91  90  12    96  95   7   104 103   4   114 112   7   121 118   8   125 121  10   130 124  18   135 131  24   132 128  19   126 123  12   133 130  14   143 141  20   143 142  16   139 139  10   130 133   3   122 127   3   121 127   4   119 128   1   121 132   1   116 125   1   123 131   6   126 134   3   128 130  17   122 122  12   132 134   2   151 155   3   165 170  16   168 175  17   159 170   7   154 164   7   151 163   3   151 161   1   153 160   3   156 160   9   161 164  21   165 167  35   166 166  44   164 165  49   167 170  37   150 153  10   135 139   1   138 140   3   142 140  18   149 146  31   162 158  50   164 157  55  
  67  71  12    63  67   7    65  63   3    79  78  12    90  88  11    95  93   4   104 102   2   114 112   4   124 121   6   131 129  11   138 133  14   142 138  21   139 134  18   131 128  12   133 130  13   135 132  14   132 130   9   133 131   8   126 129   1   124 128   1   125 132   1   121 132   1   113 124   1   100 109   1   111 118   1   114 122   1   116 119   6   123 123   7   141 143   8   167 171  21   183 187  38   183 190  32   171 182  14   157 169   7   149 159   8   146 155   2   146 153   1   151 156   2   157 162   9   162 165  21   161 164  28   158 161  31   159 163  23   147 150   7   140 144   1   141 144   3   133 131   6   127 124  10   132 128  20   130 124  15  
  68  72  13    71  76  12    67  65   5    77  76   9    86  84   7    92  91   1   102 100   1   112 110   1   123 120   3   132 130   9   144 139  10   149 146  18   144 139  15   137 132  12   135 133  14   132 129  12   130 127  10   137 136  16   134 136   1   135 140   1   135 145   1   128 139   1   111 120   3    92  98   1   108 115   8   117 125   1   128 134   4   148 151  23   170 174  37   188 191  49   188 191  49   178 185  29   163 175   7   146 157   2   133 141   5   134 143   1   140 146   1   148 154   1   154 160   1   155 160   6   153 158  11   150 155  12   151 156  11   140 143   1   135 138   1   140 143   1   130 130   1   113 110   1   116 112   4   122 116   2  
  62  62  10    66  67   8    64  62   1    73  72   5    87  85   8   102 101   9   114 112   9   117 115   4   118 116   1   120 118   1   129 124   1   141 135  10   138 134   9   133 129   6   139 137  15   144 142  20   145 144  20   152 152  27   140 143   1   143 149   1   144 153   1   134 145   6   109 116  13    85  88  10   104 110  14   112 122   1   148 156  10   167 171  33   180 185  43   189 192  50   177 180  37   158 165   7   144 154   1   129 137   1   120 130   1   131 140   1   145 154   1   156 164   3   156 163   1   150 156   1   145 151   2   143 151   6   145 151   2   138 141   1   132 135   1   138 142   1   133 133   3   117 114   1   117 112   4   125 120   3  
  65  64  13    70  69  13    66  65   3    75  73   5    89  87   7   101  98   6   108 105   4   112 110   1   121 120   1   131 130   5   137 131   5   150 144  18   150 145  22   144 141  17   148 146  24   152 151  25   149 150  20   150 152  19   150 151   8   150 156   3   143 153   1   122 133   1    85  89   1    69  70   6   108 113  18   128 138   7   149 156  10   161 168  24   174 180  35   185 189  41   174 178  30   155 162   4   144 153   1   132 138  10   129 138   3   141 151   1   155 165   6   162 171   6   155 163   1   143 149   1   137 142   3   137 145   2   142 146   3   145 148   4   143 146   2   140 143   1   130 130   1   118 114   1   117 113   1   122 118   1  
  68  69  11    66  67   8    65  64   8    74  73   5    91  88   5   103  98   3   106 101   1   113 110   1   129 128   2   139 141   5   149 145  12   160 156  26   167 163  38   167 164  41   164 163  41   161 160  35   155 156  27   153 154  23   162 160  17   157 160   9   144 152   4   116 126   1    72  75   1    74  73  18   119 124  20   133 140  10   149 153  15   160 165  23   171 177  31   174 180  31   160 165  16   145 151   2   144 152   3   145 154   5   152 160  13   155 167   1   159 171   1   159 170   4   149 159   1   135 143   2   134 140   5   142 151   1   151 154   6   150 153   2   148 151   2   142 144   1   136 137   1   134 133   2   131 127   2   122 117   1  
  83  85  23    77  79  15    68  68   7    80  80   7   100  98  12   115 111  12   117 112   6   121 118   2   132 132   2   140 142   4   150 147  14   163 160  29   165 161  35   162 158  34   165 160  37   167 163  36   170 167  35   178 175  41   176 176  31   160 165   7   145 152   7   112 120   4    73  74   6    82  81  21   124 130  17   138 145   6   156 160  15   173 176  34   180 184  45   182 186  47   178 182  43   168 173  29   165 171  26   167 174  25   167 175  28   169 180  15   163 174  10   152 161   7   139 148   1   123 130   1   123 129   1   137 146   1   152 157   1   156 160   1   158 162   8   151 154   6   140 141   1   131 132   1   122 119   2   111 106   1  
  78  80  15    66  69   2    73  74   9    82  83   5   100  99   8   117 113  13   124 119  12   127 124   7   130 129   2   130 132   1   143 142   8   157 154  23   158 154  28   156 151  25   164 156  31   169 162  32   174 166  31   184 176  40   176 179  30   151 157   1   130 138   1    99 105   6    73  74   8    95  95  24   137 143  17   154 163  13   176 181  28   186 189  46   185 187  54   182 185  57   182 185  54   179 183  45   177 182  40   176 181  36   172 177  33   167 174  17   148 154   3   135 141   1   139 144   2   137 141   6   134 138   4   143 149   1   150 153   2   150 154   1   153 156   3   149 151   8   133 133   5   116 113   3   108 103   2   105  99   1  
  83  84  18    81  82  14    78  79  13    82  83   5    95  94   2   108 104   4   115 111   4   121 118   5   128 126   4   132 133   1   138 138   8   150 150  20   157 153  28   162 157  31   172 164  37   174 167  35   171 164  26   172 165  23   162 167  13   142 149   1   116 120   3    81  84   1    73  75   1   115 118  27   156 163  24   165 172  15   174 180  22   182 186  40   187 187  57   184 184  60   172 175  44   168 172  32   173 178  33   170 175  31   162 167  23   154 160   8   140 145   1   137 141   4   143 148   5   135 139   1   132 136   1   147 153   1   145 147   2   144 146   1   146 149   1   144 145   4   130 129   3   115 113   1   109 107   3   109 106   5  
  80  82  15    80  82  14    73  73  10    80  80   7    95  93   7   105 100   5   107 102   3   112 107   1   121 118   3   127 127   2   137 136  10   143 142  17   151 148  26   159 156  31   170 165  37   177 173  39   178 173  33   174 171  26   166 172  15   135 142   1    96  98   7    78  81   4    91  96   4   127 130  18   156 163  15   163 169   7   168 174  14   173 177  31   179 181  50   181 182  52   171 174  34   164 169  21   167 173  24   162 167  23   160 164  26   154 160  10   143 148   4   139 145   3   144 150   1   142 148   3   142 147   5   149 155   5   148 150   1   152 153   1   150 153   5   142 144   1   129 132   1   122 123   1   113 112   1   103 100   1  
  79  80  15    78  79  14    71  71  10    77  76   7    92  89   7   104  99   9   109 103   9   116 110  10   125 121  12   130 129  11   138 136  15   140 138  18   150 148  28   158 156  34   164 161  35   172 171  36   174 174  32   166 167  21   164 172  10   126 132   1    76  76   5    78  80   7   111 119   9   138 145  15   157 164  11   161 166   4   167 173  13   173 177  31   173 175  40   171 174  36   164 168  18   155 160   3   159 165  11   165 170  25   162 166  29   150 156   6   140 146   1   143 150   1   154 162   1   156 163   6   153 158  11   151 157   7   156 158   2   156 157   1   151 155   2   143 145   2   131 133   2   122 122   4   110 109   3    97  94   1  
  79  79  11    77  79   7    70  70   7    80  77  10    90  88  10   101  98  10   107 103   8   121 117  15   127 125  15   133 130  16   136 131  16   140 136  18   148 144  22   154 151  28   158 155  31   163 161  30   167 167  25   166 167  18   162 168   5   118 122   4    67  68   3    82  88   1   122 128   9   149 155   8   157 161   9   157 163   1   161 167   8   174 178  31   176 178  42   175 176  40   174 176  32   162 166  13   155 160   3   160 165   9   155 159  12   151 156   2   151 156   1   155 162   5   155 161   7   146 153   4   144 151   5   150 158   9   156 158   6   152 156   1   154 157   1   149 150   1   137 137   2   123 122   4   117 116   7   102 103   1  
  86  87  17    86  88  15    72  71   7    81  78  11    86  84   7    96  94   7   105 102   5   125 122  17   134 130  20   141 138  25   145 139  25   148 143  25   152 148  25   157 154  30   161 157  34   161 158  29   160 160  18   159 160   7   152 156   1   108 110   1    66  68   3    89  95   1   126 132  10   150 155   1   156 159   6   158 165   1   164 169  12   169 173  25   173 176  36   179 180  43   182 183  38   169 172  18   156 160   1   157 161   2   152 155   4   152 156   1   152 158   1   156 161   6   156 162  14   150 157  15   153 160  18   162 170  24   159 162  15   156 160   4   156 158   1   146 146   1   135 135   1   122 122   1   121 122   5   107 109   1  
  90  92  22    72  73   4    68  67   3    79  77   7    89  87  10   106 104  17   118 115  18   131 128  23   133 129  19   133 130  17   142 135  22   142 137  19   144 140  17   149 145  22   154 150  25   159 155  24   159 158  16   158 160   6   147 150   1    99 101   3    66  67   7    91 100   1   122 127   1   144 149   1   154 158   1   159 166   1   169 175  17   172 177  25   177 181  34   178 182  35   173 178  22   162 168   8   153 159   1   149 154   1   154 157   6   156 160   5   157 163   3   160 165  11   162 167  22   160 166  29   158 164  29   162 169  31   158 161  20   159 163   6   153 158   1   141 139   1   131 130   3   117 117   1   113 114   1   100 101   1  
  94  95  25    77  78  11    67  66   1    73  73   3    79  78   1   100  99   9   115 113  13   133 128  24   141 136  26   144 138  26   139 133  19   141 136  18   144 140  17   147 143  18   150 146  21   154 151  19   159 158  13   162 163   8   143 146   1    90  89   2    66  67   9   100 110   1   127 133   1   147 151   1   157 161   2   162 167   2   171 175  18   176 179  26   180 184  35   170 175  21   157 163   4   156 162   1   155 161   4   148 153   3   154 158   7   156 161   6   157 163   5   158 163  11   163 168  26   166 169  36   163 168  35   163 169  35   160 162  26   161 166   7   151 156   1   137 135   1   132 130   7   120 121   1   116 117   1   104 104   6  
  88  89  19    77  78  11    75  74   8    80  80   8    80  79   2   100  98   8   111 107   8   124 119  15   137 131  21   141 134  23   140 134  20   146 141  23   152 148  25   154 150  25   152 148  22   150 147  14   151 151   5   153 154   1   139 142   2    79  78   1    68  69  11   113 124   4   136 144   2   154 158   1   162 164   5   162 166   5   159 163   6   159 162   9   161 165  17   160 165  15   154 159   7   156 162   7   160 166  14   157 163  16   164 168  18   163 168  13   157 163   6   154 160   8   157 162  20   160 163  29   160 163  31   161 164  30   164 166  28   159 165   7   147 152   1   133 134   1   130 128   3   118 118   1   113 115   1   101 102   3  
  85  86  16    75  76   6    78  79  11    85  85  11    84  83   1   105 100  12   110 106   7   120 113   9   132 125  15   137 129  18   135 129  15   142 137  19   148 144  20   150 146  21   149 145  19   149 146  12   151 151   4   154 156   1   139 142   3    72  71   1    67  70  12   118 131   1   136 145   1   152 156   1   160 161   4   161 163   6   155 160   1   153 156   5   158 162  19   168 170  31   170 175  32   169 175  28   169 174  27   168 175  30   163 167  20   161 166  12   154 161   5   151 157   3   153 158  14   152 156  20   151 155  19   154 158  20   153 156  12   148 154   1   149 153   1   144 146   3   138 138   8   123 123   2   115 118   4   103 105   1  
  73  74   4    80  81  11    71  72   2    80  80   6    83  82   1   108 104  13   114 109  10   123 116  12   138 130  21   147 137  26   150 144  30   150 145  27   147 143  18   145 141  15   145 141  15   152 149  14   162 162  14   168 171  12   129 133   1    62  61   1    67  71  12   123 137   3   138 146   1   150 154   1   157 158   4   158 159   5   156 161   1   165 168  17   173 176  39   181 182  51   182 185  52   177 181  41   167 174  32   163 171  26   165 171  23   159 165  13   149 156   1   144 150   1   143 148   2   143 147   8   145 148  10   149 154  11   151 157   7   148 153   1   154 158   2   153 156   6   142 143   7   120 121   1   116 119   6   103 107   1  
  86  88  15    74  77   1    67  68   1    75  74  10    78  76   3   107 104  11   122 119  13   132 125  20   143 134  30   152 141  35   150 145  35   154 150  35   150 149  23   143 141  22   146 142  34   161 160  30   161 165  10   159 161   8   105 111   3    57  53   9    83  83   1   131 136   8   141 148   1   153 161   1   157 163   6   155 162   1   156 162   9   159 164  20   169 171  35   179 180  44   177 179  33   164 169  14   154 160   6   150 159   9   151 158  21   141 149   4   141 150   1   151 160   9   150 154  15   149 151  23   163 165  42   170 171  51   175 176  56   164 168  22   162 164   6   147 147   1   126 125   1   118 119   2   101 107   1    82  89   1  
  87  89  17    68  71   1    65  66   1    73  71  11    75  72   8   103 100  12   119 116   8   128 122  12   138 129  24   146 136  30   155 148  37   153 146  32   149 145  19   148 142  21   153 147  31   159 157  20   158 160   1   154 155   1    87  91   1    53  47   8    91  93   1   141 147  13   147 154   1   150 158   1   152 157   3   152 159   1   155 162   3   160 164  20   170 172  39   175 176  40   170 173  22   160 167   8   149 155   4   135 142   2   130 137   3   131 139   1   141 151   1   158 166  15   158 162  24   157 159  32   171 172  53   179 180  60   176 178  49   170 173  30   156 159  10   134 134   1   123 122   1   120 121   6    96 101   4    75  80   1  
  81  82  13    70  72   1    69  70   1    66  63   8    66  60   5   100  98  16   119 117   8   123 118   3   133 125  17   146 137  33   154 146  34   158 151  35   160 155  29   160 154  28   165 159  36   167 165  21   165 166   2   152 152   1    76  76   4    52  43   9    97 100   1   141 149   6   149 156   1   150 156   1   151 156   3   155 160   2   153 160   1   166 170  22   178 179  43   176 178  37   167 170  17   157 162   5   146 151   3   133 139   3   140 147   7   141 149   2   146 154   3   156 162  15   158 162  27   163 165  41   176 177  58   180 181  62   165 168  35   152 154  11   139 141   1   129 129   2   123 122   6   105 107   1    80  83   1    71  75   6  
  71  73   6    69  72   1    70  72   1    67  65  12    64  58   7    94  91  13   117 114   6   128 125  10   138 132  22   145 136  33   151 144  30   158 151  36   163 157  33   163 158  31   173 168  39   173 172  21   169 170   5   145 144   1    65  60   6    53  45  10   110 114   1   145 153   2   151 158   3   148 153   1   146 150   1   151 155   1   152 157   6   168 171  20   173 175  26   168 170  19   159 162  10   145 149   1   134 139   1   133 140   1   136 141   1   143 148   2   145 151   1   149 154  10   156 158  26   168 170  45   180 180  61   178 179  59   170 170  38   155 157  12   145 147   2   133 133   5   115 113   7    95  95   2    77  80   1    74  77   7  
  74  77  10    74  77   6    74  76   5    70  69  13    63  60   7    93  90  13   116 112  11   127 123  15   136 129  23   142 133  28   152 146  34   145 139  27   145 141  17   151 147  21   168 165  34   164 164  14   161 163   3   133 132   1    55  49   2    61  54  13   129 135   1   150 160   4   148 154   4   141 145   1   141 143   1   150 154   1   166 169  25   171 174  23   166 168  10   160 162   4   155 158   7   141 145   1   130 135   1   134 142   1   141 145   6   144 149   3   140 146   1   144 149   3   157 161  25   170 171  43   173 174  47   161 162  35   162 159  26   153 156   6   148 151   1   126 128   1   100 101   1    85  87   1    75  78   1    70  74   1  
  67  69   4    66  69   1    73  75   6    64  63   6    61  59   1   100  98  18   120 117  20   122 117  17   132 124  24   148 140  33   144 141  28   136 132  22   135 134  15   141 140  14   159 160  30   155 157  11   157 160  10   128 128   1    54  48   1    68  62  11   139 147   2   149 157   1   143 148   2   139 142   2   144 147   1   156 161   1   160 161  20   160 160  12   162 163   9   163 165   6   156 160   3   149 154   2   142 148   1   137 145   1   127 131   1   135 140   1   141 147   1   153 158  12   162 164  28   163 165  32   163 165  31   159 161  26   162 161  18   160 161   8   149 152   4   127 129   3   106 109   2    90  94   1    77  81   1    77  81   4  
  70  74   7    73  78   8    80  84  14    77  79  17    79  80  13   107 108  25   122 121  28   121 118  24   128 122  23   144 138  31   136 134  25   138 136  29   143 141  27   143 142  23   154 153  33   154 156  18   156 159  18   127 127   7    52  47   3    70  67   5   135 144   1   146 152   3   141 144   5   141 144   6   146 149   3   155 160   1   156 156  13   156 156  12   165 166  17   168 170  16   156 162   3   148 155   1   141 149   4   131 139   1   139 144   7   135 141   1   133 140   1   146 151   5   157 160  22   158 160  27   160 161  28   161 163  26   163 161  17   158 159   8   142 146   3   119 123   3   108 112   1    97 102   1    84  89   1    86  90  10  
  72  82  12    73  83  11    80  88  15    77  84  16    86  93  21   105 113  27   123 128  35   122 122  31   122 119  24   140 136  31   133 130  30   137 133  33   139 135  28   139 135  28   138 134  31   141 141  23   135 137  17   110 110  11    54  51  12    76  77   1   123 130   1   138 142   6   128 129   1   131 133   1   138 141   4   146 151   2   146 149   2   149 152   3   152 156   6   151 156   5   144 149   3   133 140   1   125 134   1   124 132   1   134 141   7   134 142   1   137 145   2   150 155  10   163 167  30   172 173  44   175 175  48   175 175  47   168 166  32   149 152   3   135 137   2   124 125   7   112 117   3    98 104   1    81  86   1    76  81   3  
  68  77  10    74  84  15    79  92  17    76  87  18    83  93  20   101 110  24   121 127  36   126 126  38   126 121  32   142 136  36   136 130  42   136 130  40   126 122  20   131 128  20   135 133  30   132 134  24   120 123  22    89  90  17    50  47  14    79  80  10   121 127   4   128 131   3   122 122   2   129 130   2   131 133   3   135 138   1   145 149   1   147 150   1   148 153   1   146 152   2   137 144   1   128 134   1   122 130   1   123 130   6   130 135   1   138 144   1   148 155   4   159 164  15   166 170  31   170 172  42   170 173  44   169 171  43   168 166  38   153 156   6   138 142   1   120 121   2    98 101   1    78  81   1    64  65   1    64  66   4  
  65  71   7    71  80  13    77  93  20    71  83  16    79  91  19    96 108  22   117 123  33   132 132  48   142 136  51   153 144  51   152 146  58   143 135  50   126 121  26   132 128  28   132 131  35   120 125  24    99 104  18    51  55   3    45  41  12    76  77  11   114 119   1   117 118   1   115 114   2   123 124   3   123 123   2   125 129   1   138 140   1   136 140   1   137 141   1   140 145   1   137 144   2   131 137   1   124 131   2   121 127   3   138 143   1   144 150   1   154 161   6   164 170  19   169 174  32   170 173  40   174 177  48   179 182  53   180 178  55   164 167  16   144 148   1   115 119   1    92  94   1    74  76   1    66  66   6    70  71  11  
  67  73   9    69  75  11    81  93  25    67  78  15    83  94  23   105 115  29   116 121  31   133 131  48   148 139  56   149 140  49   152 146  47   138 131  40   125 120  29   128 124  32   119 117  30   112 117  22    96 103  23    51  54   9    54  51  19    78  79  12   108 113   1   108 111   1   110 110   1   119 118   1   121 120   2   131 134   1   140 140   7   137 139   3   139 142   1   142 147   3   139 147   3   132 141   1   128 136   1   124 134   1   140 146   1   141 148   1   150 157   1   163 170  15   170 175  30   169 172  36   173 176  45   182 184  53   181 179  56   160 164  15   137 142   1   113 117   1    97  99   1    83  87   3    69  72   3    67  70   1  
  64  71   6    63  70   4    79  86  23    65  72  13    83  89  21   102 108  23   105 110  17   118 116  30   132 124  38   135 126  32   132 129  21   126 120  25   128 123  28   126 122  26   117 116  20   114 118  18    97 101  18    57  57  16    58  57  15    82  84   7   114 121   1   118 122   1   118 118   2   124 125   1   125 127   1   134 139   1   135 136   4   135 137   1   137 141   1   139 144   1   133 141   1   125 134   1   125 134   1   128 139   2   136 145   1   138 148   1   149 159   3   164 172  18   172 176  32   173 174  39   173 174  42   177 177  44   171 170  41   154 158  11   135 139   6   111 112   7    91  94   1    79  82   1    69  73   1    69  74   1  
  64  71   4    63  70   3    69  71  13    65  66   9    83  85  18   103 106  20   110 113  18   116 112  22   123 116  25   133 125  27   130 128  20   131 126  27   136 132  28   130 127  16   131 130  18   129 130  20    90  90   8    51  46  11    57  57   4    83  88   1   120 131   1   128 134   2   126 128   5   133 136   3   133 137   3   137 143   1   138 141   1   137 141   1   140 145   1   143 148   2   137 145   2   128 137   1   124 135   1   128 138   5   128 140   1   135 147   1   144 155   1   151 160   8   159 162  19   164 164  30   169 166  34   168 165  32   154 156  16   138 142   1   119 121   1    96  94   6    78  80   1    68  70   1    60  62   1    58  62   1  
  70  74   6    72  76   5    60  60   3    59  57   7    85  84  17   108 106  16   112 109  16   114 108  17   120 115  18   134 128  29   131 126  19   135 129  18   140 131  16   138 129   7   146 142   9   140 141   9    92  93   3    48  43  10    64  61   3    92  95   2   133 142   1   137 142   1   126 127   6   134 137   1   139 143   1   144 148   2   146 147   7   144 148   2   142 148   1   141 147   1   138 146   1   132 141   1   128 137   1   130 139   1   133 142   1   138 148   1   146 153   1   152 158   6   155 158  11   157 159  19   161 162  25   158 159  24   148 152   5   133 137   3   110 113   1    88  91   2    75  79   1    68  73   3    62  65   6    57  59   7  
  68  69   4    61  63   1    56  57   1    57  55   6    84  81  12   106 103  10   109 104  12   114 107  16   120 115  15   128 122  24   131 124  18   135 128  12   138 128   8   138 127   3   146 140   2   136 136   1    87  87   1    43  38   9    69  64   6    99 100   4   138 147   1   142 148   6   133 135  12   138 141   1   140 144   1   143 145   1   143 144   4   143 147   1   143 147   1   142 148   1   139 146   5   133 141   4   130 138   1   132 140   2   137 146   1   141 149   4   143 149   1   146 150   3   149 151   5   154 157  18   162 164  29   158 162  30   150 153   9   130 133   4   107 111   1    89  94   1    79  84   1    66  73   1    61  66   1    63  64   7  
  76  78   3    67  70   1    63  64   1    64  61   8    86  83  12   106 103  10   111 106  14   117 110  19   123 117  19   124 118  20   127 123  16   136 129  12   138 128   5   136 124   2   143 136   4   127 125   1    79  75   1    41  35  13    66  62   1    94  96   1   126 133   1   134 141   2   131 134   9   132 136   1   135 139   1   136 139   1   135 136   1   139 143   1   143 147   1   143 148   2   138 145   7   129 136   4   123 130   1   123 130   1   131 139   1   137 144   4   137 142   1   137 140   1   139 140   1   147 149  12   154 157  23   148 151  21   139 142   4   123 125   1   104 107   2    89  94   3    79  84   1    66  73   1    64  67   1    64  67   1  
  82  83   1    78  80   1    68  69   1    65  63   5    83  79   6   103  99   7   108 101  12   110 102  14   117 111  16   120 114  19   124 119  16   136 130  13   143 134  11   141 129   7   143 134   8   122 119   1    75  71   1    43  35  16    70  65   5    96  97   1   116 122   1   125 131   1   124 129   4   125 128   1   133 138   1   139 144   3   143 146   1   146 151   1   148 153   1   144 150   3   136 143   5   127 134   2   123 131   1   127 134   2   130 139   1   133 141   3   135 140   1   140 143   1   142 144   1   147 148   7   152 155  16   148 151  13   136 139   1   126 128   2   106 109   4    87  92   3    75  80   1    69  73   1    64  67   2    60  61   1  
  85  84   1    83  83   1    71  71   1    66  61   2    77  71   1    97  92   2    99  91   8    97  88   6   108 101  11   114 108  19   118 113  17   132 127  12   143 135  11   142 131   8   140 130   6   121 116   1    75  72   1    42  35  10    69  64   7    95  96   4   107 111   1   117 123   1   119 124   1   113 117   1   124 129   1   133 138   4   145 147   2   147 151   1   146 150   1   139 145   1   131 138   1   122 129   1   123 130   1   128 135   4   126 137   1   129 138   1   135 140   1   144 149   1   147 150   1   148 150   2   153 156   9   152 156  11   145 148   2   127 129   4   102 104   4    83  85   3    70  73   2    64  66   2    60  61   3    59  60   5  
  93  93   1    91  91   1    77  76   2    69  65   4    75  68   1    93  87   2    95  86   8    93  84   8   104  97  14   108 101  18   111 106  18   123 116   7   135 127   3   136 126   3   137 128   2   126 121   2    85  81   1    44  39   3    64  58   5    90  90   3    96  98   1   111 116   3   117 123   1   106 110   1   114 119   1   120 126   1   133 134   1   137 139   1   139 143   1   136 140   2   127 133   3   118 124   1   116 121   1   119 126   1   123 133   1   130 138   1   138 144   3   150 154   6   150 153   3   146 149   1   149 151   4   146 149   3   142 143   4   118 118   1    90  90   1    75  76   1    68  69   3    61  63   1    59  60   3    60  60   6  
  88  86   1    88  86   1    75  73   1    69  63   5    70  63   1    85  78   1    88  80   4    91  81  10   100  93  13    96  89  11   108 101  20   115 108   1   128 120   1   133 123   1   139 130   3   137 133   8   100  96   7    54  47   4    59  53   3    85  84   1    87  87   1   106 110   2   118 123   3   105 108   3   111 115   2   115 121   1   125 124   4   128 129   1   128 129   1   123 125   1   116 120   1   108 112   1   107 111   1   111 117   1   118 128   1   127 134   4   133 140   3   140 143   2   139 141   1   140 143   1   146 148   5   143 145   2   133 132   4   114 112   3    88  86   1    71  71   1    68  68   4    67  69   4    60  62   1    53  53   1  
  90  86   1    93  89   1    84  80   9    74  69   2    69  64   1    77  72   8    80  75  11    81  76  12    88  80  15    84  77   9    87  80  11   103  96   7   130 120   8   130 117   2   140 126  17   139 132  16   111 107  10    61  53   6    58  52   2    77  72  16    80  78   1    98 101   1   112 117   1   100 104   1   100 101   1   107 108   4   110 109   1   109 112   1   112 114   2   111 115   2   103 110   1    98 104   1    98 105   1   102 109   3   109 119   1   127 135   3   128 136   1   122 129   1   130 134   1   137 139   4   134 134   3   131 130   3   123 127   7   106 109   2    87  90   3    75  79   9    67  71   9    61  65   5    60  66   1    64  70   1  
  97  93   5    92  88   3    78  74   3    69  64   1    65  60   1    73  68   4    74  69   5    75  70   6    79  72   7    74  67   2    83  75  10    95  88   5   121 110   7   127 113   6   128 115  11   128 121  10   109 104  13    57  49   1    58  52   3    76  71  17    80  77   3    96  98   1   110 114   5   100 102   1    97  97   1   100 101   1   106 105   2   105 106   3   108 109   3   110 114   5   104 110   1    98 104   1    96 103   1   100 107   2   106 112   7   111 114   6   114 119   3   121 126   1   128 131   2   127 128   1   126 125   1   130 130   3   116 121   1   104 108   1    85  88   1    70  75   1    64  70   1    66  72   1    70  76   1    74  79   1  
  94  90   5    85  79   1    78  73   2    71  65   1    67  62   1    74  68   5    75  69   8    76  70   9    80  74  11    74  68   5    76  68   8    95  88  12   108  98   6   117 104   7   120 109   9   117 110   7   103  97  13    62  55   2    57  51   3    74  68  17    78  75   7    92  93   2   105 108   7   100 101   5    97  96   4    98  97   2    99 100   1    98  99   1   103 105   1   110 113   5   109 114   4   102 109   1   101 107   1   105 111   3   104 110   3   104 107   1   108 113   1   118 121   2   122 125   1   122 123   1   122 122   1   125 124   1   112 115   2   103 106   2    87  90   2    72  76   2    67  71   2    70  75   3    75  79   1    76  81   1  
  89  84   3    84  78   1    85  78   8    79  72   4    74  67   2    75  70   8    74  68   8    73  67   9    78  72  13    73  67   8    71  62   5    93  85  15    95  85   4   103  92   5   109 100   6   106  99   5    94  88  12    67  60   6    57  50   3    70  64  15    74  70   8    82  81   1    91  92   2    88  88   1    87  85   1    90  88   1    95  94   1    92  94   1    96  99   1   105 107   4   106 109   4    98 103   1    96 102   1   100 105   1    98 102   1    98 102   1   102 105   1   106 109   2   108 110   1   111 112   3   113 111   3   108 107   1   105 107   1    96  98   1    83  85   1    72  76   2    68  71   2    69  72   3    73  76   1    77  80   2  
  83  78   1    84  78   4    86  79   7    82  75   7    78  70   7    75  69   9    69  63   5    69  62   7    74  69  13    71  66  10    75  66   8    88  81  11    90  82   8   100  91  11   100  93   2   100  94   9    92  84  18    70  63   8    59  54   4    66  60  12    68  63   5    74  73   1    81  81   1    80  79   1    82  80   1    89  88   1    88  87   3    87  88   1    90  90   2    95  95   4    96  97   3    90  94   2    89  93   3    90  94   4    90  93   1    90  93   1    94  95   1    98 100   1   102 105   1   104 106   1   105 108   1   107 109   1   107 109   1    97 100   1    84  87   1    75  79   1    71  74   1    71  74   1    77  80   2    85  87   5  
  83  78   1    84  79   4    82  74   2    80  73   5    79  71   8    79  70  11    69  62   7    67  62   7    74  69  14    72  67  12    75  67   4    84  78   5    87  78   9    96  88  13    94  88   1    96  90  12    78  72  12    65  59   1    65  59   7    64  58   9    65  60   2    72  70   1    83  82   1    85  84   4    86  83   2    93  92   2    92  93   1    93  94   1    95  96   1    95  96   1    93  95   1    93  95   1    94  95   4    95  95   6    96 101   1    98 104   1   100 103   1   102 105   1   108 112   2   106 110   1   106 109   1   114 117   2   112 113   6   105 107   7    92  95   7    77  80   2    67  71   1    68  69   1    72  72   1    74  75   1  
  83  78   1    81  75   2    79  71   1    80  72   7    81  73  12    77  69  11    67  60   7    66  60   5    71  66   9    69  63   8    77  69   4    90  83   7    90  82   8    95  87  11   101  95   7    99  94  14    71  65   7    65  58   5    73  67  13    64  58   8    61  57   1    70  69   1    79  80   1    82  82   4    85  82   2    89  88   1    99 101   1   100 101   1   100 102   1    97 100   1    95  97   1    93  95   1    94  97   1    97  98   1    97 101   2   100 104   4    96 100   2    92  94   1    94  96   1    91  92   1    89  90   1    95  96   2    89  90   1    87  89   1    81  82   3    68  70   1    62  63   1    68  68   3    72  72   4    69  70   1  
  81  77   2    78  74   2    76  69   1    75  66   9    79  70  13    70  64   7    65  57  10    72  65  12    74  68   7    73  66  12    80  71  13    92  85   6    95  88   6   100  91  10   106 101   8   102  97  11    69  63   5    59  51  10    79  73  10    67  62   8    62  59   3    72  73   4    75  77   1    74  75   1    83  81   4    87  84   3    85  85   1    88  87   3    92  91   6    90  89   5    84  85   1    82  82   1    84  86   1    89  90   2    89  91   4    89  91   3    88  90   1    88  90   1    90  92   3    87  89   2    84  85   1    85  86   3    86  91   1    81  86   1    79  83   1    74  76   1    71  73   2    76  78   3    80  82   5    73  76   1  
  80  78   1    80  77   1    75  68   1    68  59   2    73  65   5    70  64   5    63  55   8    69  62  10    75  69   9    75  68  14    81  72  15    92  85   7    96  89   9    96  87   9   101  96   4   101  96  14    66  59   5    57  49  12    82  77   5    67  63   2    63  61   2    80  80   6    82  83   1    72  73   1    78  76   1    86  83   2    82  83   1    83  83   2    83  83   4    81  81   4    77  79   1    76  78   1    79  82   2    81  85   3    81  85   1    86  90   4    87  91   5    85  89   2    86  90   3    86  89   5    83  86   2    81  82   1    83  86   3    79  80   2    72  73   1    69  70   1    71  71   4    72  73   5    69  70   2    64  66   1  
  84  81   2    86  83   4    77  70   1    74  66   4    86  78  14    81  76  12    63  55   8    65  57   8    73  67   9    73  66  12    81  73  11    92  85   4    95  89   5    91  83   3    96  91   1   102  97  13    67  60   5    59  51  12    97  95  11    76  71   4    63  59   1    76  76   2    84  87   1    79  78   1    81  78   1    85  82   1    83  86   1    75  78   1    72  75   1    75  78   1    77  82   1    75  79   1    73  80   1    75  82   1    70  78   1    71  79   1    71  76   1    69  73   1    72  77   1    79  83   1    85  89   3    91  94   8    96 100   5   100 103  14    87  89   7    69  70   1    66  67   1    67  67   5    60  60   1    55  56   1  
