P3
50 50
255
  34  58  70    25  49  60    21  46  56    19  44  50    24  48  52    49  70  75    36  57  59    32  51  53    35  52  52    38  54  54    38  48  47    44  54  53    41  51  50    35  45  45    29  39  40    26  36  37    30  40  41    28  39  37    27  36  37    26  31  34    18  22  23    17  21  19    16  21  14    19  24  19    18  23  19    17  22  18    24  26  23    16  18  14    19  20  15    23  24  19    34  37  28    35  38  30    28  33  26    24  29  22    21  28  21    27  34  27    22  29  25    15  24  21    15  23  21    17  26  24    26  35  34    33  42  41    50  58  60    52  59  59    40  46  46    34  40  40    28  35  35    32  38  38    28  34  34    27  33  33  
  30  41  43    33  45  45    40  52  52    36  50  56    61  76  83    65  80  87    46  59  66    61  73  79    64  75  81    56  68  73    47  56  51    43  52  47    38  47  45    38  47  45    41  49  51    46  54  57    57  66  67    42  52  50    49  57  56    48  53  55    23  27  28    25  29  27    31  36  31    28  34  31    25  31  29    30  34  33    29  34  29    24  26  21    37  37  32    48  47  42    50  53  48    52  57  52    37  42  38    22  30  26    23  33  32    33  44  44    28  40  39    28  38  37    27  37  37    31  41  42    48  58  59    59  69  70    77  87  89    74  82  84    59  67  69    60  68  70    45  52  55    38  46  48    34  42  44    33  41  43  
  42  51  48    50  58  55    52  58  56    48  56  59    63  72  77    43  52  57    32  41  46    34  43  48    32  41  46    36  45  50    34  43  38    28  37  32    25  34  32    35  44  44    46  54  57    48  56  59    52  60  64    43  52  50    51  59  60    44  52  54    28  36  38    31  37  39    33  39  38    38  46  45    42  50  49    54  60  60    42  45  44    36  38  35    50  51  47    64  65  60    42  46  47    44  48  50    34  40  43    31  38  43    41  50  55    47  58  64    45  55  60    49  59  60    38  48  49    29  39  41    35  45  47    37  47  49    40  50  52    48  58  60    45  55  57    51  61  63    39  49  51    36  46  48    40  50  53    46  56  58  
  35  50  50    45  58  59    49  60  62    38  45  44    46  52  50    29  38  35    20  29  26    13  24  20    21  32  30    28  38  37    22  33  29    21  31  30    24  34  34    39  49  50    53  63  65    47  56  61    38  47  50    35  43  44    43  52  54    41  52  56    57  68  72    55  65  67    40  49  51    48  56  58    50  58  60    54  63  62    44  50  50    45  50  50    50  55  55    50  54  53    49  54  58    39  44  49    31  37  43    35  42  49    37  46  53    37  46  53    34  44  49    41  51  52    31  41  43    23  33  35    28  38  39    32  42  43    30  40  41    32  41  43    27  35  38    29  37  40    24  32  35    29  37  40    39  48  50    49  57  60  
  34  50  50    41  54  56    36  47  51    33  41  41    44  50  48    37  46  43    21  30  30    25  36  35    44  56  55    43  56  56    37  49  49    33  44  46    44  55  57    58  69  71    50  61  65    40  51  55    32  43  46    36  45  47    41  53  56    45  60  65    70  85  90    70  83  89    55  66  71    55  63  66    50  58  60    40  48  50    36  44  46    40  49  52    38  48  50    28  38  40    32  40  42    22  30  32    18  26  28    22  28  31    22  27  30    23  28  31    20  26  29    16  24  26    13  21  23    12  20  22    15  23  25    22  30  32    23  31  33    21  29  31    17  25  27    19  27  29    21  30  31    26  34  36    33  41  43    41  49  51  
  33  43  39    36  44  41    31  36  35    27  32  36    25  30  36    30  37  44    32  41  49    49  61  69    59  72  80    62  76  85    53  64  68    50  62  65    52  63  67    55  66  70    46  57  61    46  57  61    42  53  56    52  63  65    49  62  67    45  62  69    46  63  71    50  65  72    48  61  68    46  56  59    44  52  54    27  37  39    22  32  35    18  29  33    15  27  32    11  22  28     8  18  15    14  23  20    15  22  20    12  18  15    10  15  11    14  19  13    12  18  14     7  15  17     8  16  18    11  19  21     7  16  15    14  23  22    19  28  27    17  24  24    20  27  27    25  30  30    30  36  36    26  32  32    23  29  29    27  34  34  
  20  29  28    29  36  39    44  52  55    40  49  49    37  47  46    29  39  40    33  43  45    53  63  65    47  58  61    47  58  62    37  49  49    36  47  50    32  43  50    35  45  54    41  49  55    38  48  47    46  56  54    42  52  53    33  43  44    22  32  34    35  45  47    29  39  41    28  38  40    29  38  42    23  32  37    11  21  23    11  21  21    11  21  20    11  22  19     9  20  16    17  19  18    17  19  18    11  13  12    14  14  14    18  18  19    14  14  16    13  13  13    17  18  12    19  20  15    23  25  22    19  21  19    17  19  18    22  25  24    19  21  22    17  21  22    16  23  21    12  20  17    11  20  15    15  22  16    20  26  19  
  36  46  47    53  63  65    49  59  62    37  46  48    41  51  52    35  45  46    33  43  45    30  40  42    25  35  37    19  29  31    23  33  34    28  38  40    29  38  42    28  37  42    30  39  42    26  36  37    21  31  31    19  28  25    23  32  29    17  26  25    19  29  28    16  27  26    19  31  31    18  26  24    11  18  15    10  15  14    15  22  22    15  24  23    22  30  31    27  35  37    25  34  31    19  28  25    19  28  25    18  27  24    16  25  22    22  30  28    27  36  35    27  36  35    26  35  34    22  31  30    25  31  31    27  33  33    28  34  34    25  28  27    17  20  20     9  15  13     9  18  15    13  22  19    15  22  20    14  20  18  
  56  67  71    53  67  71    36  49  55    28  42  45    33  45  49    23  34  37    20  30  32    22  31  34    26  32  36    24  29  33    21  26  29    25  31  33    22  31  30    16  26  26    17  28  29    19  30  34    14  27  30    17  28  24    11  22  18     6  18  16     6  20  20    12  27  27    13  29  29    14  26  23    23  34  30    26  36  35    26  36  37    31  41  45    43  52  60    40  49  58    34  49  54    31  47  51    37  55  59    44  62  66    53  72  78    58  77  83    52  72  78    58  75  84    57  73  80    42  57  62    34  48  51    35  46  48    34  45  45    29  36  35    40  48  47    37  47  46    33  45  45    29  43  43    24  36  38    22  31  36  
  32  47  52    39  55  62    31  48  55    37  53  60    43  58  63    37  50  56    32  42  47    40  49  53    31  37  41    27  32  35    39  44  48    40  46  48    36  46  44    32  44  41    29  44  46    40  54  64    35  52  62    20  38  43    22  39  46    39  58  65    44  65  73    51  74  83    51  73  84    33  53  63    54  74  83    69  89  98    68  88 100    72  91 105    81  99 114    82  99 115    90 111 128    83 105 122    78 101 119    75 100 118    79 106 123    78 105 122    69  94 112    65  88 105    56  78  92    48  68  79    38  57  64    40  57  61    40  55  57    32  48  48    69  86  88    71  90  94    58  79  85    68  90  97    70  90 101    57  75  89  
  34  51  59    50  68  76    51  70  77    51  69  76    51  68  75    44  59  66    38  50  56    48  58  63    48  56  61    56  64  67    70  79  86    70  81  85    69  83  83    59  77  76    47  66  71    59  78  92    64  86 103    41  67  84    50  75  94    78 105 124    88 115 136    85 113 134    62  90 112    52  82 107    82 114 139    94 125 148    88 119 140    76 107 126    70 101 119    86 118 133   104 127 145    92 116 134    80 106 123    78 104 123    79 106 125    87 116 134    97 125 144    79 105 123    51  75  90    54  76  89    57  77  86    61  80  85    56  74  77    50  72  76    75 100 105    76 103 111    64  92 104    62  91 106    75 104 122    82 109 130  
  34  51  59    23  42  49    28  47  54    31  50  56    34  53  59    39  56  63    50  66  73    51  65  72    48  61  67    41  54  60    50  68  76    38  57  64    44  63  70    49  73  79    54  81  92    60  87 102    65  93 112    61  91 115    68  98 122    70 101 122    52  83 104    52  80 102    38  66  88    77 109 135   107 141 168    94 126 151    78 110 130    66  98 115    57  90 103    68 101 112    63  87  91    59  83  88    53  76  82    55  78  84    59  83  89    64  87  93    66  89  99    49  71  85    57  80  91    85 105 114    73  93  99    62  81  86    62  80  84    63  85  90    84 109 115    91 120 128    63  94 106    58  90 104    92 123 142    95 124 145  
  57  74  81    34  52  58    34  53  59    39  59  65    39  60  65    43  62  68    48  67  73    36  55  61    27  46  53    21  40  48    18  45  56    29  56  69    53  80  96    46  75  92    59  90 108    76 108 125    79 111 127    69  99 116    62  91 107    50  78  92    41  66  79    51  75  86    43  65  76    53  76  88    59  83  95    42  64  74    31  53  62    38  58  66    42  61  68    38  57  63    27  46  44    31  49  48    31  47  47    33  48  49    39  52  54    36  47  49    25  38  42    15  32  39    22  39  46    43  60  67    44  61  68    44  60  67    51  66  71    59  74  79    61  80  84    71  92  97    65  91  96    72  99 108    99 126 137    94 117 131  
  40  57  64    36  53  61    40  58  64    44  64  68    43  64  67    40  61  66    29  50  55    25  47  53    36  59  66    71  94 102    56  88  99    69 101 117    91 122 144    61  94 118    66  98 120    63  99 115    43  77  89    41  69  76    40  66  71    39  63  67    40  61  63    42  62  60    25  42  41    20  34  29    21  34  27    23  34  30    25  35  32    27  36  35    30  37  36    23  29  29    15  29  30    12  25  26    16  27  29    13  22  25    13  18  24    21  24  31    25  31  36    31  45  45    33  47  48    29  43  46    22  36  39    18  32  37    22  37  43    24  36  38    20  31  31    22  36  38    25  43  46    29  48  52    33  52  57    30  49  55  
  47  81  90    33  63  64    30  53  48    23  41  38    13  32  35    33  57  68    50  80  97    75 107 127   111 142 164   100 128 149    61  91  99    40  68  79    48  75  86    37  62  73    48  70  84    48  67  82    32  54  67    40  68  81    44  76  91    48  81  98    65  96 114    64  90 103    35  54  64    37  61  69    69  96 105    66  90 100    76  97 108    73  93 100    80  98 101    87 104 104    55  76  79    50  67  68    42  53  53    34  42  43    41  50  56    64  74  87    53  68  82    43  62  73    33  48  57    27  37  44    24  30  36    24  28  33    30  33  40    38  38  44    24  25  27    14  21  17    11  21  14     9  20  15    13  22  20    20  26  28  
  42  65  71    30  52  58    31  52  57    28  49  54    74  99 105   118 146 159   111 143 159    82 111 128    52  78  94    28  50  63    12  32  31    20  40  40    36  57  60    54  74  80    53  74  85    54  76  89    77 102 114   103 131 146    92 122 141    80 113 132   128 156 176    99 123 138    43  61  73    73  94 107   106 129 145   100 123 139   114 134 150   128 147 161   119 137 148   114 132 142   118 143 165   102 124 141    72  90 102    64  83  91   101 124 130    79 108 116    66  95 106    74 100 116    75 102 119    94 121 138    90 112 128    52  69  82    30  42  51    25  35  35    20  32  30    26  42  41    40  58  61    51  69  77    55  71  83    75  88 104  
  62  76  82    98 116 127   100 120 137   100 125 140   120 148 160   102 130 145    57  86 101    48  74  86    37  58  66    16  35  39    44  54  53    98 109 110   127 141 144   137 154 161   120 141 152   114 137 151   106 132 146    83 111 129    80 110 130    99 130 150   118 145 163    93 114 130   100 116 128   113 133 144    98 120 131    97 119 132   103 125 139   119 141 155   112 134 146    75  97 108    86 108 122    76  95 106    53  71  80    50  70  76    69  94 101    61  91 101    64  96 110    78 111 132    92 128 153    91 133 158    69 108 133    74 105 122    60  83  94    58  80  89    66  88  99   100 124 138   123 149 166   119 146 162   113 141 152   121 148 157  
 140 154 167   144 161 178   123 143 161   105 128 143    90 116 129    79 106 118   101 129 140   111 136 145    60  82  86    48  67  69   121 132 141   148 161 169   123 138 148    96 115 125    86 108 121    95 118 132    97 123 137   112 139 151   111 139 151   111 139 152   115 141 153    95 116 127   111 129 137   142 161 162   122 143 144    93 114 117    72  95 101    74  99 104    60  87  91    43  71  74    54  81  89    49  73  79    31  53  59    33  53  60    48  71  79    73 100 111    64  92 106    75 105 124    76 110 130    50  86 105    34  68  87    61  92 106    76 103 112    94 122 132   101 128 144   114 142 164   106 134 157    92 122 140    85 116 126    73 104 107  
 120 145 165   136 158 175   139 161 174   110 129 139   106 126 135   100 122 133    90 114 123    65  90  96    47  71  76    84 108 112    94 116 127    73  95 105    79  99 107    90 110 118   109 130 135   118 139 142   100 122 124    90 114 117    58  83  87    44  69  74    48  71  77    38  58  63    48  67  71    62  81  82    47  67  68    26  47  50    27  50  57    28  54  61    20  49  55    34  63  69    30  72  95    46  83 104    51  84 101    40  70  83    42  69  79    60  87  96    49  75  84    50  73  84    39  59  67    32  50  55    33  51  55    39  60  64    59  84  90    89 118 120    99 129 134   106 134 148   103 130 152   101 127 148    92 120 135    83 113 124  
 123 150 170   110 135 148    86 111 115    60  79  85    48  67  73    36  55  61    44  65  72    42  65  71    59  82  88    71  94  99    66  94  94    62  88  86    91 114 111   112 133 127    94 112 102    53  69  58    36  53  45    40  60  58    64  84  83    74  94  95    56  78  81    49  73  78    47  71  75    65  86  94    65  85  95    74  96 109    76  99 116    66  91 108    91 118 133   108 136 150    86 124 139    60  94 108    39  69  81    24  48  59    20  39  47    29  44  51    26  40  47    24  40  42    34  44  42    34  40  34    34  42  35    38  52  52    36  57  62    38  64  71    53  79  88    85 108 122    95 116 133    95 118 132    99 125 134   104 131 136  
  67  85  95    27  48  56    23  48  51    42  66  70    70  93 100    86 106 113    74  95  99    46  65  69    40  58  60    38  56  58    32  52  47    33  51  47    46  62  55    50  63  55    63  75  65    91 101  90   116 127 119   146 160 161   175 190 192   165 182 186   150 171 178   128 151 162   115 140 152   133 156 169   126 148 161   122 144 161   111 134 153    92 117 137    91 118 136    76 104 121    53  78  82    35  59  63    25  45  49    28  43  48    39  49  54    42  47  51    29  35  39    16  27  27    14  24  21    18  27  24    20  30  31    21  37  41    45  65  73    90 115 131   100 126 143   100 123 138    60  82  94    37  60  68    47  74  78    45  73  75  
  36  45  47    44  60  64    97 122 126   134 163 171    90 119 128    54  78  85    39  58  63    65  81  82    98 110 110    91 103 101    83  92  90    93 102 101   116 123 123   154 160 160   195 201 201   213 217 218   208 214 215   196 207 210   188 201 206   182 195 204   159 178 192   134 156 174    97 123 143    78 104 114    75 100 107    95 119 130   105 130 142   101 128 140   119 146 157   148 175 185   147 168 189   120 138 156    87 107 120    47  66  74    37  55  58    23  39  38    16  30  25    25  37  34    51  65  65    67  86  91    73  93 103   108 129 140   128 149 161   121 147 161    91 119 132    70  97 108    53  76  86    43  66  77    48  74  86    61  88 103  
  65  77  76   143 157 159   150 164 168   108 130 136    75  98 106    94 114 123   127 145 154   164 180 186   176 190 192   177 189 189   185 184 189   198 199 203   206 208 212   209 213 216   202 209 211   186 196 197   171 183 184   175 185 190   158 172 178   144 163 168   126 146 154    89 109 118    81 101 110    97 115 123   126 144 157   137 157 174   133 156 170   140 164 174   132 155 169   128 148 172   122 134 148   106 121 134    74  91 104    47  65  75    32  49  57    38  53  57    56  69  74   112 123 136   140 155 170   132 154 172   121 146 168   105 129 154   111 133 160   119 144 164   106 133 150   101 133 146   110 144 157   111 147 163   104 137 159    94 126 150  
 130 145 150   150 165 173   115 132 140    71  91 101   111 133 144   134 153 167   143 161 172   161 177 185   157 171 175   156 167 169   156 162 169   169 177 182   175 185 187   175 185 187   146 156 157   140 150 151   133 145 145   131 141 144   129 143 147   125 144 150   118 138 145   109 129 139   121 141 152   129 150 163   119 142 159   106 131 153   105 133 150   123 153 164   103 130 146    76 102 124    81 107 120    51  75  86    43  64  73    46  65  69    70  86  87   119 134 131   140 157 154   131 155 154    90 118 124    72 103 116    62  95 112    66  99 113    90 123 133    96 131 152    95 133 156    96 137 156    99 140 158    96 135 155   110 146 169    95 129 156  
 127 147 158    97 117 129    54  76  89    73  98 111    98 121 135   110 132 146   125 143 158   135 152 164   138 153 161   119 132 138   124 144 150   119 138 144   118 134 140   130 144 148   141 152 154   143 154 156   148 158 159   157 167 169   163 176 179   158 177 183   138 159 166   111 133 145    92 114 128    81 105 122    86 113 134    72 104 124    70 103 121    77 110 124    85 118 132    92 123 142    71 108 121    47  79  87    35  59  61    47  65  60    91 107  97   116 132 122    91 108  97    49  69  61    33  55  55    46  66  77    33  55  68    28  50  56    33  54  53    37  62  70    56  82  95    56  84  95    35  63  70    29  55  62    37  58  67    32  50  61  
 105 129 139    59  84  93    70  97 106   118 149 162    98 127 143    97 124 141   108 133 148   116 139 151   122 143 151   119 140 145   127 154 163   112 138 146   115 137 144   139 158 162   155 169 172   174 185 187   167 178 179   146 159 158   136 153 153   135 154 157   105 128 135    71  93 105    72  93 109    85 109 127   103 130 149    82 111 129    74 105 121    80 111 123    90 120 131    77 106 116    69 102 111    49  76  78    31  51  47    30  44  36    28  41  31    20  35  29    26  42  36    31  44  39    22  34  32    22  32  32    12  22  24    11  22  22    11  23  20    14  25  24    26  38  38    23  37  37    18  34  33    21  37  36    15  29  30    28  39  41  
  82 109 115    42  70  74    88 117 121    98 134 144    78 115 129    84 117 132    82 113 125    85 114 124    83 112 117    87 113 117   101 130 138    92 118 124    86 109 114    83 102 106    83  97 100   105 116 118    98 108 108    83  96  95    71  88  88    67  87  90    66  89  96    67  91 102    93 115 130   109 128 143   115 134 149   121 144 157   112 136 148    88 112 123    55  79  85    31  52  55    14  31  33    14  29  27    17  29  25    18  29  25    18  33  30    19  37  39    29  48  51    35  52  53    22  37  32    21  34  24    23  35  25    21  34  30    18  33  35    23  39  46    28  46  53    36  60  68    54  82  93    47  78  90    65  97 111   103 135 150  
  80 105 109    62  91  93    77 107 109    75 110 117    74 108 118    83 114 125    80 109 120    77 105 114    74 100 104    57  81  83    49  69  74    46  67  72    50  67  70    52  67  70    66  78  80    69  79  80    56  65  67    56  70  70    42  59  61    54  75  80    86 109 115   111 135 146   147 170 183   160 179 190   139 156 164   132 151 159   124 144 154   108 126 139    92 110 116    82 100  99    48  54  50    22  31  29    27  38  38    40  54  58    66  85  92   104 124 136   119 139 153   125 139 151   102 113 113    78  86  76    64  71  64    72  83  84    85  98 111   107 129 144   117 143 160   129 161 181   136 173 195   120 159 183   105 145 170    89 129 154  
  87 111 116    74 100 105    82 110 114    90 117 125   100 127 136   108 132 143   106 127 138   106 123 132   100 116 120    89 105 105    91 102 104   104 115 116   106 117 118   109 119 120   103 112 111   121 130 129   124 134 134   125 140 142   130 148 151   134 157 161   134 159 164   125 150 158   114 138 148   123 142 154   131 149 157   126 146 154   130 150 163   125 143 161   112 129 140    64  82  83    40  49  45    80  93  94   115 135 143   136 161 174   154 180 195   159 182 196   150 171 186   138 154 169   108 119 126    94 100 103   123 128 132   149 161 173   140 158 180   132 157 180   135 163 184   119 151 172    96 129 152    92 126 147    81 112 132    70 101 120  
  61  81  90    69  93 101    94 118 128   120 140 150   135 152 162   155 171 182   163 175 186   170 180 188   173 181 185   169 177 179   176 180 181   171 176 177   164 170 170   182 188 188   190 196 196   170 179 178   149 159 160   118 132 136    94 112 116    88 112 116    88 113 118    92 117 124    92 117 124   101 122 134   112 132 142   109 132 141   113 136 153    99 120 143    83 102 119    41  60  65    87 102 100   147 169 172   123 152 164   103 136 154   118 148 166   114 136 150   113 136 150   121 152 164   119 143 152   110 130 137   121 141 151   112 140 155    86 121 141    71 107 133    78 113 141    66 101 129    73 107 133    79 109 131    70  97 114    74  98 111  
 142 160 171   168 186 195   176 194 201   188 200 208   177 186 196   177 191 199   181 195 204   146 161 169   131 145 151   125 138 142   124 136 138   121 131 133   116 127 127   117 129 127   114 130 127   108 127 125   116 134 133   130 144 145   110 125 127   104 122 124   111 130 134   116 136 139   108 129 133    99 117 125   101 119 127    97 120 129    88 115 128    83 107 124    68  90 102    37  57  62   134 151 158   140 160 171   100 125 141    75 104 125    95 126 149   104 134 158   105 135 159   109 139 162   102 133 154    88 119 140    71 104 124    94 126 146    85 118 137    43  78  99    54  89 111    69 101 122    68  99 116    58  87 102    73 101 114    71  99 110  
 152 171 185   144 166 177   137 160 169   142 162 174   139 158 172   137 156 171   108 130 144    87 108 120    99 118 126   119 138 144   164 168 177   157 161 169   153 156 162   147 150 155   148 155 159   133 142 147   138 150 156   156 169 177   152 166 173   145 159 168   136 153 161   114 132 142   104 124 133   108 126 135    90 107 114    87 106 110    81 101 109    67  87  98    53  73  81    58  76  79   126 142 147    97 117 124    91 114 125   109 135 149   123 150 167   120 146 163   121 148 166   117 145 169   100 128 151    85 115 136    71 103 118    47  80  92    42  76  86    40  73  87    64  98 110    70 104 116    43  74  85    38  68  78    53  81  92    81 110 118  
 110 136 149    86 112 126    84 111 123    96 124 141    97 126 144    95 125 143   104 134 151   125 154 168   141 166 177   154 177 185   186 194 205   193 199 209   194 198 206   186 189 196   175 179 188   168 175 185   159 166 178   158 169 181   164 177 188   168 182 194   162 178 193   152 169 184   149 167 183   150 166 180   116 131 137    65  79  79    45  56  58    52  64  69    66  80  84   118 134 133   111 130 144   102 122 137   118 140 158   123 146 164   111 134 152   109 130 147   115 137 155   101 123 143    76  99 115    83 109 121    82 111 118    49  78  82    52  83  83    61  92  93    60  91  93    46  77  79    43  72  76    52  80  85    49  76  83    50  77  84  
  31  59  73    44  73  89    89 118 134   115 145 164   132 163 183   118 149 167   115 145 162   117 145 158   110 134 143    96 117 123   142 160 164   157 173 175   166 179 180   169 180 182   165 176 180   151 164 170   157 169 177   149 161 170   149 161 172   145 159 170   154 170 183   149 167 181   141 159 174   135 152 166   125 140 146    99 111 109   100 108 106   128 135 136   134 144 144   119 130 126    92 112 110    72  92  90    61  81  79    55  76  71    65  84  80    74  93  87    72  88  83    44  58  61    27  42  45    33  51  51    23  43  42    27  48  46    69  91  88    81 104  99    53  77  70    33  55  52    37  59  58    37  58  62    54  75  81   105 125 134  
  83 111 124    98 126 140   113 142 157    97 124 137    80 106 119    45  71  84    35  60  71    35  56  63    45  63  66    60  74  75    69  88  86    74  91  87    95 109 104   112 124 120   129 141 139   139 154 154   152 166 169   140 154 159   140 155 161   144 161 168   130 149 156   118 138 148   106 126 137   100 119 132   106 121 129   104 118 118   124 133 133   130 138 140    96 105 103    65  75  67    56  64  53    40  46  35    32  37  24    37  40  27    46  48  34    45  47  33    48  50  36    47  52  39    49  56  45    59  69  59    52  63  58    39  51  50    41  55  55    48  63  60    60  75  72    90 104 104   112 127 129   138 153 159   145 160 168   166 180 190  
  92 117 124    61  85  96    45  69  81    33  53  62    41  60  67    59  78  85    77  96 102    98 114 117   107 118 118   105 114 111   104 115 111   127 135 131   159 165 160   167 172 168   151 157 155   142 151 150   127 139 140    94 112 114    70  89  93    54  73  79    38  58  65    44  67  76    79 103 113   120 140 155   132 152 164   110 129 135    88 106 112    93 106 111    71  81  80    74  82  72    90  87  52   102  98  63   117 110  73   118 108  72   101  93  57    94  85  50   105 100  71   110 113  95   126 130 115   136 141 133   132 141 138   135 146 149   151 163 170   161 175 179   176 191 193   197 210 217   187 200 208   164 178 188   147 163 173   147 164 176  
  41  62  67    32  53  58    53  72  79   101 116 122   114 127 133   126 141 146   146 160 165   151 163 167   148 159 160   164 173 172   183 189 189   182 187 187   160 164 163   133 137 136   106 114 116    76  86  88    91 104 109    94 114 119    88 108 115    89 112 119    81 106 116    94 121 132   123 149 163   137 160 178   127 150 166   129 158 170   127 155 168   136 158 169   138 150 153   126 134 122    98  99  78    96  93  73   101  95  75   113 106  88   119 113  96   116 112 100   134 135 124   165 171 164   189 197 193   206 216 216   191 204 210   180 197 206   177 195 208   170 188 202   176 194 208   165 183 198   147 167 181   136 158 171   140 163 176   122 146 158  
  70  90  91   106 123 124   156 171 174   186 198 202   148 160 166    94 109 116   116 131 137   130 143 147   121 131 134   125 133 135   118 129 131   111 121 123   107 118 118   109 120 122   121 135 138   121 139 143   114 133 140   117 138 148   104 126 138    92 115 129    92 118 134    97 124 142   100 127 146   112 134 155   112 139 158   123 157 174   112 146 166    99 125 142   102 117 121    71  78  67    32  48  38    41  53  45    82  92  84   140 149 145   177 187 188   180 191 195   179 191 198   174 184 190   159 171 178   145 162 171   135 155 167   124 147 160   107 133 147   105 130 149   128 153 173   123 148 168   109 136 152   114 144 158   108 139 151    86 118 129  
 128 147 154   151 171 181   155 176 188   129 152 166   119 142 156   106 130 144    92 118 133    91 117 133    93 120 137    89 118 134    66 107 129    82 118 136    83 110 125    82 102 116    73  92 107    68  90 107    71  97 119    61  93 117    55  82 104    46  72  89    55  82  99    83 116 135    85 123 145    78 113 134    79 114 135    69 109 134    58  99 122    61  96 113    61  87  95    41  60  60    65  75  76   144 151 153   182 186 190   191 196 202   167 178 184   131 149 153   123 144 148   122 144 149   104 127 135    97 124 132   131 159 170   123 154 166    92 124 138    87 124 140    92 129 147   102 135 152    90 121 133    75 101 113    72  93 104    73  93 102  
 112 136 148   101 126 138   100 126 139    68  95 110    51  78  95    75 105 123    79 109 127    76 107 126    72 104 124    70 103 122    65 104 121    69 104 117    75 106 118    74 103 116    60  91 109    65 100 122    72 110 131    64  99 118    60  90 107    45  74  88    45  72  90    59  91 113    73 109 135    82 118 143    90 127 153    80 117 143    69 106 128    60  93 108    43  70  76    42  63  66   112 126 126   166 178 178   167 176 180   141 149 154   116 129 134   107 126 130    97 121 124    98 123 127    83 110 114    80 109 115    92 122 131    70 103 112    54  87  98    64  97 109    62  94 105    74 104 115    84 111 122    85 109 118   108 129 136   136 155 162  
  65  93 105    52  80  92    45  73  85    45  69  83    43  66  80    38  61  75    30  55  70    30  57  72    31  58  74    30  59  75    27  54  61    27  54  59    45  71  77    51  80  89    51  86 100    58  99 118    51  94 113    51  89 103    53  88 100    65  94 108    62  91 107    73 104 126    86 119 145    82 118 144    62 100 123    64  99 118    73 103 119    62  88  99    45  68  76    27  51  56    35  55  54    75  92  94    99 113 116    89 104 108    87 106 110    84 108 110    87 113 116    86 114 115    84 113 115   103 132 136    92 121 127    83 113 121   111 141 150   115 143 151   113 140 147   120 145 152   147 171 178   172 194 200   186 205 212   174 192 199  
  19  43  53    19  44  53    32  58  65    34  50  55    32  45  51    21  34  40    26  41  47    40  56  63    41  58  66    35  53  60    33  47  49    28  42  43    27  44  45    40  60  64    45  71  80    52  84  96    57  92 107    46  83  98    53  87 100    68  98 109    64  93 105    49  78  93    40  70  89    45  79 100    53  85 103    34  59  72    21  40  46    33  50  53    29  47  50    24  43  47    43  67  69    76  97 100   101 120 124   101 120 124   103 124 127    94 118 122   106 131 134    99 123 123    97 121 123   101 125 127   105 129 133    94 117 123    92 115 123    98 118 126   111 130 137   112 131 138   133 151 159   139 156 166   126 143 153   117 134 144  
  15  30  35    28  44  48    45  64  66    45  58  59    27  37  39    30  40  43    36  47  50    43  55  59    40  54  57    40  54  58    54  69  79    50  64  73    43  57  66    28  44  53    30  48  58    50  73  81    50  74  88    49  79  98    52  80  96    51  78  90    38  62  71    26  52  59    27  54  61    36  60  72    35  55  67    31  46  50    22  31  31    20  29  27    18  29  29    19  35  35    52  77  80    97 122 126   111 133 138   114 135 140   101 122 127    89 114 117   104 125 128    99 115 116    98 113 116   104 119 124   106 121 128   107 122 130   120 134 143   150 163 174   171 183 195   162 174 186   158 172 183   138 152 164   120 134 147   125 139 152  
  31  39  41    30  40  41    30  43  42    23  37  40    21  36  41    31  46  52    36  53  60    38  56  63    37  56  63    46  65  72    59  82 100    49  72  89    54  76  91    51  71  85    34  52  66    39  59  70    47  67  80    45  66  82    43  63  77    38  58  68    21  42  47    31  51  54    47  67  67    44  60  65    39  52  58    37  47  48    28  37  35    27  36  34    25  36  37    39  53  56    77 102 109   100 125 132    98 119 126   102 122 129    98 117 123    99 117 124   127 143 148   138 147 152   171 180 186   191 202 208   169 179 188   170 181 190   171 184 193   178 189 199   187 197 207   172 185 194   164 177 186   168 181 190   166 179 188   142 155 164  
  47  52  55    37  46  48    34  47  47    31  45  47    40  53  58    34  49  54    34  50  55    36  53  60    35  54  60    45  64  70    46  66  77    33  53  64    40  60  69    42  60  70    35  54  62    40  57  65    33  49  56    39  51  57    35  48  54    29  42  48    21  36  41    17  32  35    20  35  38    21  33  37    21  35  38    30  45  48    42  57  62    57  73  79    62  80  87    89 108 115   113 135 146   113 134 144   112 131 140   112 130 138   114 129 136   117 132 139   138 150 157   137 147 154   142 153 159   157 170 177   158 173 180   153 170 178   146 164 172   144 159 163   134 148 151   115 128 131   104 115 117   103 114 116    97 108 109    73  85  85  
  37  42  48    29  39  44    35  51  53    40  50  50    26  32  32    25  34  33    30  39  39    32  43  43    25  37  37    30  41  43    39  51  45    34  46  43    30  42  40    35  47  46    29  41  41    24  36  36    25  34  33    23  29  26    22  30  29    25  35  37    22  33  38    32  43  50    44  54  63    42  53  58    43  57  62    49  68  75    66  89 100   107 131 143   113 137 149   101 125 137   114 133 147   127 146 157   137 155 166   132 147 157   130 143 152   145 155 164   133 144 152   128 141 147   122 136 143   102 119 126    72  92  98    55  78  84    44  68  74    40  58  57    35  50  48    29  43  39    27  40  35    26  39  32    20  31  23    22  33  25  
  16  27  19    20  30  20    30  37  26    30  33  28    17  22  18    20  29  24    21  32  26    22  33  25    24  34  26    26  36  28    15  35  26    21  36  29    26  38  32    24  33  31    23  32  31    25  35  34    28  40  43    29  44  53    35  53  60    49  69  76    43  65  76    69  92 109    91 115 137    83 110 127    92 120 134    81 109 121    94 120 131   116 139 153   118 139 158    97 118 139    93 124 142   108 136 154   122 148 166   127 151 166   127 147 159   116 135 141   101 118 119    84  95  90    72  82  80    56  66  64    33  43  42    28  38  36    27  38  33    30  42  36    25  38  31    26  39  32    33  45  38    41  52  46    47  58  53    45  56  52  
  26  41  44    15  30  36    17  30  38    16  31  41    27  43  52    61  78  85    64  81  84    57  69  70    68  75  74    56  60  59    39  49  41    39  46  39    30  36  30    25  31  27    23  32  29    23  35  30    28  41  38    29  45  43    32  50  46    34  54  49    34  56  54    44  68  71    50  74  80    38  57  66    43  62  69    30  51  57    26  51  55    40  66  72    69  97 105    93 121 132   113 142 150   109 135 146    93 116 126    70  90  98    48  67  71    40  58  58    46  62  59    40  55  50    35  50  46    37  51  51    36  50  50    40  55  51    39  54  49    41  54  48    70  81  75    88  99  94   111 122 118   138 148 145   142 151 148   151 160 157  
 125 147 160    86 109 131    67  92 118    73 103 129    89 121 143   152 181 198   167 191 205   174 191 200   188 197 204   174 178 183   150 150 148   135 135 133   110 111 109    98 102  98    92 101  96    72  84  80    52  67  62    46  59  56    32  47  42    21  38  32    14  34  30    12  32  31    11  32  32    17  33  35    33  48  49    34  52  52    46  67  66    56  79  78    62  87  88    66  91  94    39  63  63    27  47  48    15  34  35    13  30  31    10  25  25    13  25  21    24  36  31    29  44  40    40  54  53    51  65  66    61  76  76    79  94  93    88 103  99   108 119 116   130 139 136   138 147 144   151 159 156   171 177 175   165 171 169   150 156 154  
  93 120 138    98 130 153    90 124 153   103 140 167   114 152 176   120 157 176   112 141 157   113 136 148   119 134 144   145 155 164   177 182 185   189 194 197   201 207 210   195 203 205   187 197 198   176 186 187   161 171 174   154 164 173   120 131 138    87 100 106    72  85  91    67  82  87    56  71  77    42  61  61    44  64  62    56  75  73    85 103 101    94 109 109    76  90  92    56  68  71    49  68  66    46  62  62    47  62  62    55  66  67    71  81  80    97 106 103   121 128 125   131 141 140   144 154 155   157 167 169   159 169 171   165 175 175   172 182 181   168 175 174   164 170 170   161 167 167   152 158 158   155 159 159   166 170 169   166 170 169  
