P3
50 50
255
 120 126 117   118 126 118   127 137 128   109 125 112    90 108  96    86 103  95    88 104  99    85 101  98    85 100  97    99 114 111    99 117 119    94 113 114   106 124 125   103 121 121    87 105 105    89 107 107    98 113 111    83  93  86    62  74  69    44  59  56    39  54  53    45  60  59    47  60  58    40  56  57    36  54  56    33  51  53    29  43  46    28  42  43    25  37  38    27  38  39    27  36  35    31  42  41    31  45  45    23  40  42    31  49  53    25  43  48    38  55  61    63  79  83    86 100 101   102 114 112   119 129 128   140 148 150   145 151 157   136 145 147   158 170 170   163 177 178   145 158 162   125 138 143   115 128 132    65  79  80  
  40  53  36    41  58  43    40  57  45    32  53  43    31  54  46    39  62  56    51  71  70    51  70  69    38  56  56    48  67  66    57  77  78    62  82  83    59  79  78    56  76  75    63  83  82    69  89  88    68  85  81    59  70  60    56  67  62    70  83  84    56  70  71    42  55  53    30  41  36    21  33  31    14  25  25    16  28  28    17  28  28    16  26  24    17  23  20    21  26  20    18  28  27    21  32  31    19  34  36    23  39  45    51  70  77    85 105 116   120 140 150   142 160 167   141 156 162   120 134 135   115 125 126   105 111 111    88  92  93    90  98  95    99 108 104    97 107 106    74  84  85    65  75  77    63  73  73    29  39  38  
  23  39  29    23  41  35    21  41  36    21  42  39    20  40  38    31  49  51    40  58  60    35  51  55    25  40  43    31  47  47    45  61  60    54  70  69    38  54  52    27  43  41    30  47  44    22  39  35    18  35  31    31  50  46    64  84  84    68  89  94    65  84  91    67  85  88    58  75  74    47  59  59    37  48  50    25  39  42    15  30  32    18  30  31    24  33  31    36  42  38    47  59  59    43  54  57    70  84  88   114 131 138   128 145 157   128 147 161   140 160 173   147 164 176   144 159 172   147 158 170   149 157 163   119 125 120    93  98  84    76  80  68    39  42  35    24  29  24    21  26  22    21  26  22    19  24  18    25  30  24  
  22  35  41    23  39  46    39  56  65    42  57  61    40  54  57    54  67  73    50  63  69    46  59  65    50  63  67    40  54  55    48  62  62    41  55  54    19  34  31    20  35  32    30  45  42    47  62  59    73  91  91    85 112 119    72 100 108    45  74  82    79 108 116    82 108 115    52  74  79    57  72  78    63  79  87    71  89  99    84 105 116    88 109 119    80  98 106    99 114 119   129 144 148   128 143 148   126 139 146   154 168 176   143 160 170   124 142 154   143 162 173   155 172 183   165 178 193   178 187 202   181 190 196   149 155 148    86  93  73    46  51  36    24  27  18    14  17  10    18  20  15    22  24  19    16  20  14    16  21  14  
  32  42  51    39  49  58    53  66  74    54  65  71    55  67  72    62  75  81    52  65  73    45  59  66    38  53  57    23  39  39    27  41  44    37  51  55    44  58  61    67  82  83    85  99 100   105 119 120   111 127 130    86 108 117    60  84  89    57  81  81    68  93  90    51  70  70    19  36  36    21  34  36    30  43  51    68  87  99   116 138 152   132 156 169   116 137 149   106 125 133   124 140 148   147 161 170   143 156 165   163 176 185   166 180 188   144 161 168   166 182 190   182 196 205   179 192 201   171 183 189   137 147 148    73  81  74    29  37  22    14  21  10    11  18  11    10  16  13    13  22  20    15  24  23    16  25  23    13  22  18  
  51  61  60    60  70  69    74  84  83    77  87  90    68  79  85    55  68  74    54  70  76    52  70  73    46  65  65    66  86  85    71  85  94    75  89  99    89 103 111   106 121 128    89 104 111    79  94 101    69  81  88    66  75  80    84  95  91   115 127 116   105 115 100    81  88  76    73  77  69    66  68  65    65  69  72    88  99 105    83 100 109    81  99 109    96 114 122    90 105 110    90 108 120   127 143 153   158 169 180   165 175 185   164 175 181   145 159 164   149 163 167   127 141 145    90 103 104    59  70  66    33  44  38    24  32  27    19  25  22    15  25  22    16  28  25    23  35  35    21  33  35    13  27  29    15  29  30    16  30  30  
 109 120 117   110 117 117   134 134 137   143 149 145   121 133 129    88 108 113    89 117 127    91 120 135    78 107 123    82 110 125    73 101 119    92 117 130   106 124 132    95 108 109    62  72  71    69  78  75    98 106 103   119 125 121   142 143 133   145 143 128   133 130 113   133 135 117   108 113  98   103 109 102    95 103 102    95 106 109    83  98 104    79  95 102    84  99 106    95 108 114   104 121 128   131 146 150   133 145 148   101 111 112    81  91  90    63  75  71    43  60  53    34  52  44    23  37  28    15  26  18    13  21  17    19  25  25    18  26  28    27  37  35    24  39  36    30  49  51    33  58  65    39  67  80    50  81  96    58  89 107  
 103 114 113   109 118 119   140 144 148   123 131 133    87 100 103    92 111 119    81 104 118    68  94 109    74  97 111   104 126 139    93 113 122    81  99 105    93 105 106    98 106 101    93  98  91   114 117 109   164 165 157   177 173 167   169 163 154   142 134 123   117 112 100   130 131 122   139 144 137   128 135 128   105 114 108   114 125 124   118 133 134   135 149 152   143 157 160   150 161 165   121 136 136    81  94  94    50  61  61    31  42  39    23  33  28    17  30  23    18  32  26    13  29  26    13  26  22    18  29  25    16  26  25    18  28  30    15  26  31    20  30  36    27  40  48    37  56  68    59  87 101    70 105 123    60 100 117    57  99 115  
  61  76  77    87 100 104   120 130 136   107 117 125    94 107 116    85 101 114    76  94 108    86 103 115   109 124 133   113 124 131    96 106 104   122 130 126   139 144 136   139 142 131   144 145 133   127 128 114   125 124 108   129 119 100   146 135 115   150 142 121   139 135 115   149 151 136   135 143 130   110 117 108   142 149 142   150 159 154   142 153 150   145 157 156   112 125 123    79  90  88    33  47  40    19  32  25    16  26  21    16  25  20    14  25  19    11  23  16    15  28  24    17  33  34    24  38  39    38  53  53    35  49  53    39  55  61    44  62  71    54  78  93    59  88 106    56  87 108    68 104 126    77 113 137    86 122 146   111 147 171  
 114 128 131   103 119 124   113 130 138   121 135 143   134 148 157   101 115 124    90 103 112   114 126 130   149 158 158   133 140 136    99 106  99   128 133 126   123 127 118   115 117 106   128 130 117   130 132 118   121 122 106   129 126 105   137 132 110   136 134 111   132 132 112   116 121 104   102 111  97   102 109 100   102 109 101    61  68  61    46  56  49    41  51  45    24  35  29    19  30  24    23  34  31    23  34  30    31  41  38    37  46  44    53  62  61    59  70  69    61  74  75    84  99 105   106 121 126   123 138 143   110 127 134   108 129 138    98 124 134    83 117 137    91 130 155    98 137 164   103 141 170   105 141 168   119 151 179   134 164 190  
 167 182 185   145 163 168   130 149 155   127 143 149   118 133 138    93 108 111    85  99  99    91 102  98    95 102  95    77  83  73    84  93  88   106 115 110   118 128 121   125 135 127   128 135 127   133 141 130   135 143 134   127 133 130   116 121 117   135 140 134   142 147 142   120 125 121   125 133 129   140 148 142   127 134 126   109 116 108   103 110 102   110 118 111   115 125 119   114 125 119   105 117 117    75  86  87    94 103 106   129 136 141   153 162 167   150 161 166   140 154 160   152 167 174   148 163 170   131 148 155   110 130 139   115 141 151   107 137 150    84 116 139    91 125 153   111 146 174   122 159 186   111 149 173   114 152 172   130 167 185  
 100 114 116    84  99 102    68  87  90    51  68  69    37  53  53    35  51  50    42  56  55    55  67  64    63  74  69    94 104  96   105 117 117   113 126 126   139 153 153   151 166 164   142 154 150   125 136 130   122 133 127   110 121 119   117 128 125   151 161 158   134 143 140   110 119 116   121 130 127   130 140 137   145 155 150   142 149 142   150 157 150   170 179 171   161 172 166   174 185 181   161 175 178   123 134 138   136 146 151   160 169 176   167 177 184   156 169 175   145 160 166   130 145 152    94 110 117    69  87  94    50  70  78    48  76  86    48  79  91    60  93 110    87 120 138    84 119 138    54  88 106    42  74  89    42  71  82    38  65  74  
  27  41  41    28  42  42    28  44  43    29  45  45    52  68  68    76  92  92    74  89  93    82  97 100    97 112 116   143 158 163   159 170 172   129 143 146   130 144 147   127 141 143   122 134 133   118 126 121   126 132 124   134 140 128   129 136 125   138 146 137   141 151 143   140 150 145   143 154 149   157 169 168   162 172 173   154 163 160   128 137 132   112 121 117   106 117 115    82  94  92    67  82  85    55  70  72    58  71  72    60  74  75    64  79  79    58  77  77    52  71  72    38  56  60    27  46  50    30  49  53    41  62  67    58  84  92    66  96 108    69 102 111    58  91  98    39  69  77    13  40  48    21  43  50    33  49  53    30  44  45  
  49  64  61    73  88  85    79  94  91    77  92  93    73  88  93    88 103 108    90 105 113   114 132 143   117 136 149   110 129 143   107 118 121    85  97 101    82  96  99    89 101 102   116 126 123   142 146 140   143 143 136   159 153 144   150 148 142   156 157 154   161 166 169   151 159 165   125 134 142   112 125 130   139 150 152   124 134 133    57  66  63    50  60  56    47  59  57    47  61  61    50  68  66    56  72  71    62  77  75    86 102  99   122 141 135   123 144 137   101 122 117    77  95  97    98 116 118    89 109 110    92 113 118   110 136 144    95 124 135    84 107 110    56  76  77    65  86  89    77  98  99    96 117 114   120 139 134   134 151 144  
 128 141 150   115 130 139   103 120 130   101 118 130   122 139 149   132 149 157   134 150 157   116 130 133    65  79  79    39  53  53    51  75  79    67  85  87    86 100  97   111 118 114   128 134 130   129 135 131   152 156 154   176 177 175   178 182 182   164 171 173   130 141 146   112 126 132   111 128 136   110 127 134   118 135 142    50  67  74    36  54  58    76  95  95    81 101 100    93 113 111   134 147 145   155 169 172   137 153 160   122 139 147   134 151 158   109 124 127    92 106 107   112 127 131   141 156 170   142 158 174   144 160 173   159 175 189   154 170 192   142 162 179   127 148 157   116 132 140   133 140 156   148 149 164   148 145 147   121 117 102  
 125 143 153   132 149 159   135 153 163   155 171 179   140 155 162    96 111 116    64  78  80    37  51  52    29  41  41    50  62  60    64  88  92    82 101 104   110 126 126   128 139 138   120 130 129   109 119 120   104 114 114   101 110 107    95 105 103    81  95  95    69  84  87    54  74  78    45  67  72    62  82  85    70  88  90    41  59  61   106 124 126   113 131 133    87 105 107    93 111 113   139 154 161   135 152 159   123 143 147   121 142 147   124 143 149   133 152 159   155 170 179   170 183 191   131 145 157   119 135 149   142 160 174   149 168 185   137 158 179   123 142 154   103 119 120    78  90  83    88  92  86   107 102  96   100  89  76    99  85  60  
 110 129 136   126 145 152   114 133 140    86 101 103    58  70  70    36  48  48    31  42  42    27  37  36    28  38  37    32  42  42    45  61  61    37  50  50    44  55  52    53  64  60    45  54  53    48  58  57    50  60  58    48  59  51    38  50  43    32  47  42    52  69  66    60  80  79    52  73  72    61  82  80    47  67  65    54  72  72   144 161 162   121 136 139   104 117 122   102 115 120   107 123 137   100 118 127    90 111 114    83 104 105    74  94  97    99 116 126   124 139 151   140 153 160    96 110 114    53  67  70    50  63  70    61  74  81    70  85  89    63  72  70    80  86  73   104 105  83   137 131 102   132 118  90   121 101  71   145 121  87  
  56  70  73    54  68  71    38  51  52    30  40  35    24  33  28    22  31  26    21  30  26    21  30  27    22  31  29    17  26  25    13  20  13    22  29  22    20  27  20    22  28  23    19  25  21    19  25  23    18  27  23    20  29  23    20  30  25    15  26  22    13  28  23    15  31  28    16  32  29    18  36  36    13  32  32    41  59  59    87 102 102    73  86  86    93 103 104    90 100 101    70  84  91    74  89  94    61  77  78    41  56  56    37  49  49    38  48  49    41  48  49    63  66  60    66  69  52    64  66  48    70  68  53    84  81  64   111 107  79   131 123  96   141 132 103   136 122  88   165 150 113   166 146 109   136 113  75   143 118  80  
  10  16  14    14  20  17    19  25  21    17  22  16    17  22  15    20  25  19    20  27  21    19  25  22    16  24  23    19  28  27    19  29  26    16  26  25    18  29  28    21  33  33    19  33  34    17  31  32    26  40  42    23  38  43    22  37  42    32  50  54    48  65  72    59  77  84    49  68  74    35  53  59    55  71  77    71  86  89    47  60  60    31  43  39    34  44  37    22  32  24    26  35  30    30  39  37    31  38  40    35  38  38    52  52  45    71  68  53    92  81  59   126 107  73   146 128  86   166 151 107   167 153 114   172 158 117   184 172 122   156 137  92   121  99  61   121  99  67   134 114  82   133 114  81   123 105  70   115  97  61  
  14  19  14    12  16  12    15  17  14    19  21  16    32  34  29    31  36  32    26  32  28    25  31  30    22  30  30    21  30  29    23  41  45    34  53  59    36  58  65    33  56  64    59  82  90    59  79  86    41  62  71    53  75  89    70  92 106    68  90 105    62  84  98    71  93 106    49  71  84    28  44  54    48  61  67    52  63  67    27  39  38    22  32  26    21  31  22    20  30  19    27  34  24    23  27  22    31  31  31    39  33  29    60  47  32   117 100  71   165 139 100   185 148  98   176 144  90   157 130  79   144 123  76   174 161 116   166 157 109   125 106  59   101  77  38    87  64  33    81  62  35    75  60  30    87  75  43    93  82  52  
  14  20  18    16  22  23    18  26  28    23  27  27    38  40  39    39  43  44    27  31  32    26  33  34    31  41  42    34  44  45    27  42  45    26  44  49    30  50  56    41  61  68    68  87  93    64  82  86    37  53  58    41  58  68    45  62  70    28  45  53    19  34  41    37  52  58    38  53  58    28  40  41    33  43  42    29  39  38    31  41  39    32  41  38    32  40  38    43  52  47    49  59  58    71  78  76    89  89  86    74  66  56   100  83  62   145 120  86   149 119  79   119  91  50   112  87  50   100  79  42    94  80  39   158 147 106   142 133  96   108  95  59    73  58  27    56  43  15    97  85  52   120 111  74   129 120  85   100  91  65  
  66  76  78    75  86  91    72  84  90    43  48  52    25  26  30    18  22  25    29  35  37    52  60  62    76  86  88    90 100 102    92  97  93   113 120 118   116 125 124   100 110 109    89  96  94   118 123 117   130 134 128    95 100  96    70  75  71    81  83  78    97  99  93    98  99  92   103 104  96   104 111 103   117 127 118   122 132 124   145 154 152   159 168 168   149 158 160   161 171 173   169 182 189   178 187 189   143 146 140    77  71  55   134 115  91   158 131  98   101  76  46    51  44  26   114 105  92   122 111  94    67  56  26   109  95  60    89  74  43    53  46  18    37  31   7    65  60  30   129 124  84   154 149 102   117 110  70    76  66  40  
  82  97 100    85  96  96    65  71  70    37  39  37    55  59  58    55  59  60    65  68  71    96  97 100    94  91  91    76  69  67    87  90  80   128 131 125   130 135 131    90  97  88    96 107  93   134 146 137   147 155 150   126 128 124    88  88  83   106 106  98   153 152 147   146 146 143   147 147 148   174 177 174   185 190 186   207 211 211   197 202 203   184 189 192   174 180 181   164 170 170   161 163 156   166 163 157   105  94  83    74  59  36   141 124  96   127 111  87    60  47  34    42  36  28   118 113  88   112 108  73    64  56  20    94  83  50    61  45  26    52  34  18    53  38  15    90  81  52    91  85  52    76  70  41    66  60  39    91  83  71  
  52  66  65    74  84  80    39  45  40    34  37  32    93  95  92    99 103 102    62  65  64    60  60  59    58  55  51    41  34  28    57  57  45    78  78  71    71  72  67    49  51  42    62  66  52    96 102  93    92  96  90    66  66  61    57  54  48    53  50  43    72  70  63    61  61  56    50  52  48    97 106 111   147 157 166   152 161 170   138 144 152   118 120 125   123 122 125   108 107 105   108 105  79   118 113  75   121 111  64   108  92  49    90  70  42    55  37  18    44  30  18    40  35  25    76  71  49   119 116  74   100  93  47    70  59  25    76  62  33    68  55  28    53  42  19    95  87  66    54  47  29    50  45  26    67  62  41    97  93  68  
  72  83  75   120 129 120    63  68  61    40  42  37    71  72  67    49  51  46    36  38  32    45  45  38    49  47  39    65  61  51    52  46  34    50  44  37    49  45  38    45  43  31    38  36  22    62  60  48    59  56  49    44  41  34    44  40  32    52  48  39    86  83  74   102 103  95   111 113 107   107 124 127   124 142 152   150 164 172   158 165 171   161 159 161   166 160 155   179 170 161   153 148 101   147 138  88   138 125  75   114  97  58    85  68  41    91  74  54    92  80  61    44  39  24    50  46  20   107 104  60    97  91  44    78  70  30    85  75  40    55  47  21    38  31  13    58  52  41    38  34  25    66  63  51    87  84  64   107 103  75  
 118 126 111   135 142 128    82  87  75    40  42  34    32  33  27    31  32  24    59  60  51    95  95  84    89  88  75    78  76  63    71  61  51    52  44  37    50  43  35    45  39  25    34  29  10    46  38  26    47  39  32    40  36  27    78  71  63   106 101  92    93  90  81   100 101  91    98 102  91    84 101  95   118 138 136   144 159 156   128 135 129   125 126 116    96  91  76   127 119 101   125 117  82    93  81  54    89  74  52   142 127 105   137 125  99   144 133 111   129 122 106    48  46  26    56  52  22    74  68  34    68  60  23    71  62  25    54  44  16    30  24  10    21  17   8    34  32  24    57  57  48    81  81  67   113 112  93   139 137 114  
 115 124 106    87  93  78    58  63  50    43  45  37    27  29  21    42  43  35    78  80  68   105 107  94    61  62  50    50  52  39    52  43  37    56  50  44    50  46  37    46  45  27    62  60  39    48  40  28    51  43  35    73  71  60   114 110 101   151 147 138   166 163 154   141 142 131    90  95  81    72  83  72    69  81  71    81  91  81    51  57  48    44  45  34    28  27  13    39  38  20    51  43  32    67  58  49   115 108  93   179 173 152   156 151 129   153 151 137   123 120 110    99  98  75    71  67  37    59  52  25    68  57  35    59  51  29    39  31  17    33  30  22    63  62  57   109 111 104   133 134 126   108 109  97   117 117  99   151 149 126  
  60  69  50    39  47  31    35  42  29    42  45  37    47  50  41    46  47  39    43  45  34    42  44  34    32  36  29    22  29  21    53  52  48   124 125 120   114 118 109   122 129 111   130 133 112    57  54  42    52  49  42    89  91  79    90  91  80   131 129 121   209 210 201   152 154 143   102 108  93   103 106  95    62  63  57    50  51  46    31  32  27    20  21  16    36  37  30    46  48  37    73  68  48   126 122  99   120 118  95   105 103  88    96  96  86   141 141 128   119 121 102   115 113  92    56  50  32    40  30   8    52  41  24    42  33  25    35  29  22    54  54  42   100 103  93   120 122 117   120 122 118    94  95  85   107 106  86   134 130 102  
  31  44  26    42  52  37    40  48  37    47  54  46    66  71  64    30  33  24    41  44  35    60  64  59    62  71  67    24  34  34    80  86  86   136 146 144   114 128 120   142 157 140   151 163 143    65  70  59    87  90  83   140 147 135    96 100  91    57  58  52   122 122 116   119 121 111    57  61  46    57  56  46    41  39  33    31  28  23    26  24  18    40  40  31   122 122 111   121 122 108    88  84  47    90  86  52    63  59  35    42  38  26    63  59  50   112 111  92    79  79  54    53  50  34    31  24  12    35  24   7    46  36  18    44  37  26    59  56  41    53  55  42    61  64  53    76  79  70    89  92  80    86  86  71    94  91  71    78  72  49  
  34  48  31    52  63  50    83  92  83    56  65  56    48  56  48    31  36  29    57  62  56    85  92  88    97 107 108    63  74  78    41  52  54    91 108 107   129 150 142   110 131 114    89 106  88    38  47  37   124 131 124   171 182 169   121 128 119    52  54  49   100 101  94   139 141 132    59  63  50    33  33  20    30  28  15    30  28  16    46  44  30   120 117  99   167 164 141    97  96  68    76  67  36    59  51  27    39  32  12    38  32   9    53  48  23    64  57  38    50  45  31    38  35  23    35  28  11    61  49  37    53  41  26    44  39  14    67  68  42    45  47  38    36  39  30    57  61  43    68  72  48    74  75  50    60  54  35    46  37  24  
  29  42  32    35  44  36    53  59  51    34  40  30    35  41  40    67  76  75    45  58  51    57  76  77   124 147 159   103 132 138    40  50  49    81  94  89   148 163 154   129 146 135   105 121 110    66  79  70   141 157 145   131 151 132    46  63  49    28  42  32   113 123 115   138 145 138    97 102  95    99  97  86    65  58  43   125 117  95   118 107  80   147 136 108   138 129 100    64  54  26    45  36  19    38  29  12    39  31  14    35  27  13    33  27  14    38  32  20    33  29  18    28  22  10    38  27  12    71  56  37    80  65  45    39  29   9    38  33  17    29  30  18    30  30  22    32  32  23    37  36  23    40  42  27    31  37  27    43  51  50  
  82 103  94    59  78  69    46  62  55    29  42  40    22  33  39    35  48  54    34  47  49    46  55  68   136 144 163   169 178 188   101 107 103    45  52  51   100 110 109   137 148 147   115 126 121   159 169 161   168 179 166   139 153 135    97 110  96    86  96  87    95 102  95    93  97  91   151 154 146   177 175 166    99  93  81   164 156 137    89  78  53    79  68  41    87  75  49    56  46  19    48  37  17    37  27   9    48  39  21    39  31  17    28  20   9    35  29  17    38  32  23    31  26  16    33  25  11    48  37  21    73  62  46    46  40  25    35  33  22    27  25  17    13  10   5    12   7   4    27  22  17    25  23  16    55  56  56   112 114 125  
 134 154 152   124 144 144   111 131 132    96 111 117   111 126 133    98 113 120    80  96 103    63  72  89    74  79  94    91  93  93    93  95  85    47  49  46    82  87  89    93  98 102    63  69  67   108 113 105    98 102  87   137 141 126   181 185 173   107 110 101    36  37  31    58  59  53    79  80  73    81  79  73    37  34  25    73  65  49    61  50  29    77  64  39    85  71  47    90  78  54    66  55  33    69  58  36    76  66  48    47  38  23    32  22  12    48  39  30    55  47  39    38  32  25    38  29  20    44  35  24    40  34  23    32  30  22    31  34  28    31  36  31    25  27  28    24  25  28    33  34  36    55  58  58   108 113 120   144 149 167  
 166 177 183   158 171 180   172 186 196   183 192 203   198 210 218   199 217 221   187 208 215   176 195 204   151 165 164    92 104  85    60  60  49    40  41  34    45  48  45    48  52  51    53  55  50    56  59  50    41  42  30    58  56  44    70  70  59    38  38  30    18  18  10    30  28  23    38  37  32    57  56  53    87  85  80    81  74  62    77  67  49    80  67  47    53  41  19    58  46  26    83  73  48    88  77  56    78  68  49    47  37  24    38  28  18    60  50  43    59  52  45    40  37  32    47  42  37    51  46  40    35  34  30    69  72  70    75  82  82    64  77  80    57  72  79    54  68  77    60  76  79    90 106 106   107 124 129    96 112 125  
 176 189 197   182 196 206   171 187 201   159 176 191   168 188 197   160 183 189   147 170 181   136 156 163   130 145 137   129 141 120    87  90  79    48  52  41    34  41  29    45  55  41    25  34  22    28  34  24    30  33  25    53  50  41    48  47  38    34  34  25    45  45  37    78  77  72    93  94  89   102 102 101   146 145 141   102  97  88    59  50  36    62  52  35    46  35  18    45  34  19   101  94  75    86  79  60    57  49  34    44  37  25    38  31  23    45  38  32    37  31  28    36  35  31    33  32  28    44  45  40    52  54  51    75  81  82    64  73  75    47  61  71    68  84  99    78  94 108    71  89  94    64  83  81    39  57  56    25  40  44  
 129 148 152   111 134 142   105 129 140    96 125 140    79 109 120    51  77  89    57  75  87    74  86  86   105 111  98   126 128 115    91 102  94    92 106  95   120 137 122   124 141 127    56  72  61    42  54  50    56  66  62    81  84  76    76  79  70    66  69  60   120 123 116   110 112 108    60  62  60    40  41  42    46  46  45    43  42  34    54  49  37    66  60  46    60  53  41    43  39  28    64  62  49    74  72  59    52  50  39    36  33  25    30  27  22    41  37  34    44  42  39    49  49  47    28  29  26    32  34  31    30  34  33    25  32  30    20  29  28    39  46  54    71  77  91    46  53  68    23  32  38    17  26  22    13  20  15    20  24  25  
  76  97  98    68  89  93    73  97 104    47  76  81    36  63  64    33  47  52    51  56  57   112 115  94   156 157 126   134 135 116   124 145 138   121 144 139   119 144 141   106 131 130    84 108 108    83 104 105    87 104 103    55  66  59    31  43  33    56  66  57    90 100  92    54  63  59    71  76  78    76  80  80    23  25  23    63  64  56    86  86  76    51  51  40    36  36  28    34  35  29    37  42  36    52  57  51    42  47  42    28  31  28    30  32  31    26  28  27    21  23  22    21  23  20    15  19  15    17  22  17    21  27  23    33  40  36    45  51  47    71  76  74    65  69  71    11  16  20     3   8   9     8  12   7     8   8   3    12   8   8  
  28  39  41    30  44  48    32  48  55    32  49  44    40  52  42    65  68  60    76  72  54   117 118  71   128 135  79   104 114  78   117 144 137   119 148 149   106 136 144    98 128 141   103 133 144   108 137 142    94 119 119   111 128 121    81  97  88    57  73  63    85  98  90   103 114 111   141 151 153   119 125 125    52  54  50    54  55  47    63  65  54    30  32  22    16  21  14    25  31  27    25  34  33    36  45  44    44  53  52    28  35  35    20  26  26    12  18  18    18  23  22    18  23  19    32  37  33    52  58  54    74  80  76    67  72  66    49  54  47    35  45  31    16  26  14     1   9   3     1  12   5     3  11   2     6  10   5    15  15  17  
  48  50  45    29  34  27    28  34  27    33  40  30    63  57  40    88  69  34   135 116  60   149 141  80   114 115  66   106 111  76    66  84  69    52  72  63    56  78  81    68  93 105    88 116 128   102 132 143    89 119 127    82 107 110    86 112 111    76 101  97    73  94  87    92 106  99   118 127 118    86  96  88    39  49  41    46  52  46    46  50  45    63  64  59    71  71  67    36  35  31    19  24  20    30  35  32    36  40  41    33  37  40    46  50  52    78  82  81    99 102 101   103 106 107    95 101 101    91  97  95    46  52  49    23  28  24    15  16  14    11  12   8    14  17  13    17  21  21    19  28  31    26  39  45    42  60  67    67  87  94  
  92  97  99    83  89  92    66  75  77    67  72  71   105  97  91   133 116  97   116  98  69   102  91  59    76  73  43    83  82  54    28  39  22    19  31  19    20  34  31    17  33  38    19  37  44    39  60  65    47  69  71    48  65  64    49  68  66    58  77  73    57  76  70    51  65  61    55  66  61    39  47  41    19  26  19    23  28  22    60  65  59    97  99  94    84  85  80    27  26  22    14  19  13    25  30  27    36  40  40    70  74  75   116 120 121   126 130 128   108 113 110    80  85  86    59  67  64    59  68  65    26  35  32    25  31  28    30  34  30    28  30  27    43  48  44    62  69  67    66  76  76    70  82  85    70  84  89    62  79  83  
  96 111 122   104 123 136    88 111 124    95 110 118   120 126 125   129 128 120    69  68  61    35  39  33    38  42  30    50  54  30    72  77  55    38  43  27    17  22  13    13  18  15     7  17  16    13  25  23    15  25  23    21  28  24    25  35  29    29  43  38    29  44  39    27  41  38    31  42  40    40  44  40    23  25  20    10  12   7    23  25  20    38  40  35    38  40  35    44  46  41    54  57  50    53  55  51    55  57  55    80  82  81    93  95  94    67  69  66    42  45  42    27  34  33    21  32  28    26  37  33    33  44  40    56  64  61    67  73  70    71  77  73    61  67  65    47  56  53    37  47  46    26  37  37    18  30  30     9  23  23  
  71 100 114    70 107 124    70 110 129    73 105 126    66  93 105    69  94  99    62  89  99    42  69  86    51  76  84    61  79  72   102 105  89    87  89  76    45  46  37    29  31  25    32  34  31    33  39  35    30  36  33    32  37  35    39  47  44    55  66  62    58  69  63    56  64  59    63  69  65    58  61  56    35  36  31    31  33  28    42  44  39    51  54  49    47  52  46    43  48  42    39  42  33    34  36  30    35  37  33    43  45  42    35  37  34    24  26  21    25  30  24    23  33  29    27  39  35    36  48  44    51  63  59    66  76  73    79  86  84    61  69  66    32  41  38    22  31  28    23  32  29    19  28  25    27  36  32    37  46  43  
  85 113 126    91 125 143    97 138 157    88 125 157    75 109 135    67 100 115    64 102 121    65 101 129    71 101 126    60  83  97    50  59  50    48  54  46    21  23  16    22  23  17    45  47  43    56  60  59    54  61  61    72  81  85    77  87  89    76  87  83    56  64  59    46  50  43    50  51  43    43  44  38    37  39  34    40  42  37    44  49  43    33  39  33    32  39  32    30  37  30    28  34  24    27  32  26    30  35  30    30  35  32    33  38  34    39  44  38    41  47  41    38  48  45    40  51  47    37  49  45    31  43  39    30  40  37    30  37  35    31  41  38    49  60  56    83  94  90   104 113 109   118 125 121   136 142 138   143 149 143  
  75  89  97    79  98 109    77  99 114    76 100 120    87 109 121    87 108 109    45  72  73    29  57  66    28  51  62    47  61  70    46  58  58    42  50  49    41  45  40    62  64  59    55  57  54    41  45  44    35  43  46    41  54  61    36  50  53    23  35  36    16  25  22    36  40  33    52  51  42    39  43  35    28  35  28    23  30  23    28  35  28    24  33  25    16  26  18    22  32  24    16  23  15    23  30  24    34  40  37    40  46  44    47  53  51    53  59  54    51  58  52    57  66  62    69  80  76    76  87  84   100 112 108   129 139 135   142 150 148   152 161 158   153 164 160   144 153 151   131 139 137   140 146 143   163 168 164   172 177 174  
 125 126 122   122 127 128   117 125 129   120 131 129   127 136 131   105 110 103    46  57  47    38  52  44    36  49  42    43  49  44    39  50  52    52  61  60   102 104  99   118 115 109   110 109 104   128 128 126   107 111 111    84  94  99    53  64  66    30  43  44    20  32  30    21  31  27    22  29  25    17  26  21    14  25  19    20  31  25    28  39  33    52  63  57    41  52  46    32  41  36    62  72  64    76  85  80    96 105 103   114 123 122   127 136 135   139 148 145   151 159 155   154 162 157   152 160 157   142 153 149   143 153 149   126 134 132   119 124 124   113 120 118   112 121 118   124 133 130   148 154 151   169 175 173   181 187 185   185 189 188  
 152 154 140   153 156 146   142 148 141   151 157 152   171 172 171   165 160 166   151 151 155   143 149 149   139 146 146   139 140 144   144 153 155   150 154 153   118 117 110   101  95  86   112 105  96   116 113 108    81  81  81    54  60  63    48  59  59    35  49  49    18  34  34    26  42  42    39  54  54    41  56  51    52  67  60    78  91  84   109 122 115   135 147 141   139 150 144   150 161 155   142 153 147   155 166 161   157 167 166   153 163 163   140 150 149   130 141 137   128 138 134   114 120 116   114 122 117   110 120 116   123 131 129   147 152 153   164 167 168   180 184 183   187 193 191   191 198 196   197 203 203   195 201 201   185 191 191   183 188 191  
  49  57  47    43  53  49    58  69  69   114 123 118   159 165 163   158 163 166   138 142 147   137 141 145   144 146 145   129 131 126   111 114  97   103 104  90    89  90  77    66  68  58    57  62  55    52  59  51    39  50  42    78  89  83   136 147 149   153 164 176   131 148 163   118 135 150   119 140 153   138 150 162   147 154 164   167 174 181   166 173 176   172 177 178   168 174 170   131 136 132   109 118 113   118 127 122   127 136 131   130 139 134   130 141 135   137 148 144   155 162 159   178 176 178   180 179 183   181 182 187   189 192 197   187 192 194   166 172 172   142 145 144   121 123 122   120 124 123   119 123 123   114 118 119   108 112 113   108 112 113  
  77  87  78    86  98  90    97 108 102   108 118 109   106 116 107    67  74  66    51  59  48    55  62  48    60  67  50    76  83  63    88  91  70    96  98  78    87  88  72    70  72  58    79  82  71    88  96  85    91 100  91   131 139 133   145 155 154   144 154 162   147 159 171   142 157 167   147 165 173   164 180 184   144 159 162   125 138 139   129 139 140   121 129 127   117 122 119   137 139 136   165 170 166   177 182 178   179 184 180   181 185 183   177 181 180   177 181 180   188 194 192   184 190 189   177 182 184   168 173 177   164 172 175   150 159 160   140 150 149   144 152 150   148 154 152   139 148 145   140 149 146   151 160 157   163 172 169   177 186 183  
 118 127 121   124 136 126   127 139 125   128 139 128   127 137 126   103 114  98   105 117  94   127 140 115   129 140 115   122 132 107   125 129 104   122 124 102   126 128 108   134 135 120   139 142 128   147 153 141   153 159 150   140 144 138   136 140 139   141 146 150   132 141 146   143 153 157   162 175 176   149 164 161   137 152 147   159 170 166   163 171 168   154 158 154   177 178 176   200 199 196   194 194 192   170 170 169   169 169 169   175 176 175   183 185 184   189 192 191   182 187 185   177 189 186   173 184 184   171 182 184   170 181 183   158 170 170   163 175 173   155 167 162   158 169 163   148 159 153   143 155 148   151 162 156   164 175 169   154 165 159  
 107 117 117   128 138 128   153 164 149   172 183 172   173 185 174   155 168 150   126 140 116   142 156 132   123 137 117   122 134 120   166 169 150   178 179 162   179 179 165   188 188 177   203 203 195   196 201 194   184 187 182   175 176 171   186 187 184   200 202 201   187 192 191   158 165 162   140 149 143   151 158 151   168 170 165   165 167 162   155 157 152   174 175 170   187 188 185   206 205 203   205 207 206   190 193 192   190 194 193   185 189 190   157 162 162   135 139 140   131 137 137   133 145 142   111 124 123   114 125 126   125 135 137   130 140 140   152 161 160   123 132 128   109 118 113   117 126 121   127 136 131   124 133 128   135 144 139   147 156 151  
