P3
50 50
255
  46  39  25    43  37  22    41  35  19    39  34  15    39  34  12    50  46  21    62  48  21    65  49  23    60  43  13    75  55  22    84  64  27    83  64  22    91  74  27    90  72  23    79  61  20    91  74  29    89  75  25    80  66  20    73  57  20    72  56  25    76  61  27    76  62  27    77  58  18    94  73  28    92  72  22    95  74  27    83  64  22    80  63  23   108  93  50   116 103  57   102  90  48   105  91  47   114  97  50   123 101  51   109  84  36   104  77  30   108  81  34    99  73  24    98  76  29    91  69  28    81  65  32    56  44  20    38  31  13    31  27  14    26  24  12    26  24  12    29  26  11    35  32  17    38  34  19    36  33  16  
  42  34  18    40  33  17    41  33  18    40  32  15    42  33  15    57  48  28    67  52  22    78  62  33    74  55  24    86  66  33    95  73  34    94  73  27   106  89  37   106  90  36   109  91  38   120 104  43   128 113  50   119 104  45   104  87  39    87  71  32    76  59  23    77  61  25    83  63  24    92  73  30    94  73  26    95  74  29    83  65  23    88  70  30   116 101  57   127 115  65   105  91  48    92  76  28   113  95  42   120  98  45   105  78  31   103  74  30   113  85  38   102  74  24   100  76  30    90  69  26    85  69  34    57  46  18    39  32  12    31  27  12    27  24  12    27  24  15    30  23   9    41  35  20    45  39  23    37  31  15  
  46  36  19    42  32  17    45  34  20    45  33  19    45  32  17    58  46  29    70  55  24    84  67  36    84  65  33    88  66  32    90  68  28    92  71  24   103  86  31   109  93  33   112  92  35   114  95  31   125 108  39   114  97  34   101  84  32    99  81  41    85  67  32    78  59  27    88  68  31    87  68  25    92  71  25    96  75  31    86  67  27    90  72  32   114 100  55   131 119  68   107  91  48    92  76  24   117  97  41   114  91  36   110  83  36   104  75  32   107  79  32   104  77  25   101  77  31    88  67  24    86  69  32    56  45  16    41  33  12    34  28  13    30  26  15    29  25  16    34  28  12    39  33  17    42  36  20    39  33  17  
 107  92  37    91  73  34    79  63  28    70  57  21    64  50  22    58  43  27    74  53  24    81  60  29    82  62  29    86  65  29    89  69  29    88  69  27    91  72  28    93  75  31    96  78  30    97  80  26   107  91  34    99  84  32    89  73  32    92  73  40    83  63  34    75  56  25    85  67  30    86  68  28    93  73  32    96  75  32    92  71  28   100  83  39   111  97  51   111  99  52   109  90  42   102  83  32   117  93  43   114  89  37   112  84  36   107  80  33   110  83  35   100  75  25    94  71  27    93  71  32    78  59  27    60  46  21    46  35  18    35  27  14    33  27  17    30  24  15    35  29  15    39  33  19    40  34  20    36  30  16  
 149 132  44   148 130  56   144 125  59   134 117  50   114  98  39    92  74  30    97  75  30   103  82  37    96  78  33    86  67  25    85  66  25    87  68  28    84  64  27    82  62  25    86  66  30    79  62  19    81  64  18    84  67  23    89  71  35    86  67  35    75  55  23    75  57  21    82  67  26    84  67  25    97  78  36   100  79  36    90  71  28    94  77  34   110  95  54   107  94  52   121 101  51   109  88  39   110  86  38   118  91  44   103  75  27   107  81  32   107  80  32    95  72  22   103  79  31   103  80  37    86  66  29    68  51  22    57  45  22    44  36  17    41  34  17    35  29  14    36  30  14    38  32  16    41  35  19    40  34  19  
 155 139  47   155 138  52   148 130  50   137 118  39   121 102  25   112  89  20   106  88  21    98  80  18   103  86  32    96  78  32    81  62  21    82  62  25    81  61  24    81  61  23    79  58  31    88  68  34    92  73  31    87  68  26    87  68  30    85  66  33    80  64  29    88  73  32    95  80  37    81  68  23    87  70  26    94  75  32    93  75  31    85  67  27   106  88  50   107  91  54   117  97  47   107  85  36   102  78  30   107  80  33   111  85  36   107  81  32   105  80  30   105  82  32   102  79  27    99  77  27    98  77  34    76  58  22    73  58  29    61  49  23    50  42  19    40  34  12    46  39  21    41  34  16    37  30  12    37  30  12  
 103  89  35   106  92  38   114  97  46   116  97  45   108  86  34   114  91  38   114  97  33   105  86  29   105  87  38    93  74  32    85  65  28    88  68  31    84  64  27    91  72  32    85  64  33    88  68  30    95  73  30    93  73  30    81  61  24    71  52  20    72  56  25    82  68  34    80  66  32    86  72  35    88  73  33    81  68  24    95  79  34   111  94  48   128 110  65   108  88  44   104  83  33    98  77  28   104  80  32   109  82  35   109  82  35   105  79  31   106  82  33   104  82  32   100  77  26    96  72  24   103  80  37    75  54  18    72  54  25    61  47  22    49  41  20    42  35  17    41  34  16    41  35  16    40  33  15    38  31  13  
  47  38  21    47  38  17    53  43  17    60  46  21    60  43  16    82  62  31    89  68  25   100  79  37    95  76  36    81  61  24    91  71  34    93  74  35    80  61  20    94  75  33    92  72  31   100  80  33   110  90  37   103  81  34    77  56  18    67  47  19    70  54  30    64  52  27    67  54  30    75  63  34    86  75  40    88  76  34    99  86  39   132 116  64   144 125  73   112  91  38    90  68  20    99  76  28   103  78  30   106  79  32   101  74  27   104  77  30   101  77  29   102  80  31   105  81  35    96  73  30   103  79  40    74  51  18    64  44  17    51  36  15    42  33  17    39  33  19    37  31  14    43  36  19    43  37  20    38  32  15  
  32  25  20    34  30  20    38  32  12    48  39  17    50  37  14    69  52  26    89  66  34    94  71  37    85  66  27    86  67  24   103  84  40   100  82  38    87  68  26    95  76  36   103  82  37   112  90  40   118  96  40   111  89  37    92  69  28    79  60  29    74  59  34    53  43  18    59  49  23    73  63  35    88  80  44    94  85  42   102  90  42   139 123  72   130 108  57    95  73  20    85  62  16    89  65  19    99  72  26    96  69  22   101  74  27   102  77  29   108  85  36   104  82  33   100  78  32    93  72  28    98  75  34    80  58  23    64  45  16    50  37  14    39  31  14    33  30  16    31  27  12    36  32  17    39  35  20    37  33  18  
  34  25  21    45  38  30    40  36  12    50  43  14    54  41  15    65  48  22    80  57  25   105  83  44    98  81  35    95  78  27   110  93  40   102  84  36    88  69  27    96  76  39    92  71  28   117  94  44   121  99  42   109  86  33    94  71  27    84  66  30    71  60  28    46  40   9    62  52  22    89  81  46    96  88  49    92  83  40    98  85  40   131 114  68   109  87  39   106  80  34    95  73  26    92  67  22    94  67  22   100  73  28    99  72  25   107  83  35   107  85  36   100  78  29   104  86  36    99  79  29    97  76  29    89  67  27    69  52  19    57  46  19    43  38  17    35  37  17    33  31  18    30  28  15    27  25  12    27  25  12  
  31  26   7    40  39  19    44  44  16    54  50  22    56  47  18    65  52  20    77  59  23   100  81  41   107  87  42   104  84  34   108  88  38   102  81  36    88  69  29    86  68  32    93  79  38   100  80  30   121  92  36   125  95  42   101  80  33    77  64  29    62  55  27    48  40  17    70  65  33    77  72  39    83  73  38    93  80  38   108  91  39   117  96  39   118  93  39   113  85  37   104  81  29   102  79  29    97  73  25    87  63  15   100  76  28   113  89  41   109  83  34   113  87  36   111  90  38    98  77  24   111  88  36   106  83  33    88  67  24    71  55  20    48  38  12    47  39  20    32  33  15    26  27   9    25  26  10    28  26  11  
  41  31   9    41  37  16    36  34   8    47  42  18    55  45  22    65  52  26    69  51  16    93  75  35   102  84  39   102  82  33   107  87  37   102  80  35    87  68  28    85  67  29    89  75  34   104  83  35   117  90  36   118  91  38    91  71  26    70  56  21    72  63  33    66  58  31    66  60  28    75  68  36    88  76  44    90  77  36   104  87  35   116  95  39   110  85  31   110  82  34   103  80  31    95  72  23    96  72  24    90  66  19    98  74  25   113  90  39   114  88  37   115  90  36   111  92  41   103  83  30   108  86  33   102  79  29    97  76  31    81  64  28    49  36  10    47  36  14    31  28  10    27  24   8    29  25  12    31  25  15  
  66  51  17    63  55  22    47  42  11    50  43  19    54  43  24    55  43  21    68  51  18    90  72  35    99  80  38   100  79  32   105  85  35   101  80  35    89  70  28    88  69  32    87  72  31   101  80  34   113  86  37   116  92  43    87  69  27    74  62  27    92  82  50    83  72  40    71  64  29    81  71  40    92  79  47    88  73  34   102  84  35   115  94  40   104  80  27   107  80  31   105  81  34    92  68  22    91  67  21    90  66  20    98  74  26   113  90  38   114  89  34   114  89  32   106  88  39    99  79  29   106  84  33   104  81  31    99  76  31    86  65  28    57  41  12    52  38  13    43  34  14    42  33  14    40  33  17    40  33  19  
  98  82  29    96  86  37    71  63  19    55  47  16    51  41  17    52  40  14    66  49  18    86  67  33    96  77  37    99  78  32   104  82  34   100  79  34    92  71  30    90  70  34    88  71  30   101  80  36   106  81  37   108  86  42    83  68  30    75  65  30    95  85  50    84  70  33    77  67  31    85  72  40    83  69  38    83  66  29    99  81  34   113  92  39   109  86  34   108  82  33   105  81  35    95  71  25    92  68  22    89  65  19   101  77  29   112  89  37   110  85  29   115  90  33   109  91  42   101  79  29   108  85  33   110  85  35   101  77  31    84  62  23    63  45  15    60  44  19    63  50  23    68  55  28    70  60  33    71  65  34  
 115 100  32   110 101  35    83  76  22    60  51  15    53  41  15    57  46  18    57  41  14    76  60  27    92  73  33    99  78  33   105  83  36   101  78  34    93  71  30    92  70  31    85  66  26   105  84  42   103  80  39    92  74  35    77  64  30    74  66  30    93  81  42    93  79  34    84  72  36    83  68  37    73  56  26    77  58  25    95  75  31   109  87  37   113  90  38   107  81  32   100  76  28   101  77  31   100  76  30    92  69  22   102  78  30   111  88  36   110  85  31   122  97  41   111  89  39   106  84  32   104  80  26   107  80  30   109  82  37    89  67  28    66  47  17    67  51  26    65  50  18    78  63  30    86  73  39    90  83  40  
 108  96  24    99  90  22    82  73  18    60  49  18    51  39  17    55  43  17    52  36  10    71  54  24    89  69  32    99  78  35   104  82  34   100  77  33    92  70  29    91  69  30    84  65  25    99  77  36   102  80  41    86  70  36    71  60  29    81  73  37   106  94  52   111  95  46    89  75  38    76  60  27    73  53  26    77  57  24    91  70  27   107  85  35   108  85  33   102  79  29   103  80  29   103  80  30   105  81  33    96  72  24   101  77  29   111  88  38   112  86  35   117  92  38   119  94  39   117  92  38   110  83  27   105  77  24   108  81  36    90  68  31    62  45  17    56  41  18    63  48  17    75  60  29    81  68  35    86  77  38  
 119 108  34   109  99  28    87  76  22    60  47  18    50  36  16    49  36  12    58  41  16    72  54  25    86  68  31    94  74  32    96  75  29    95  73  30    92  71  30    90  68  31    85  66  27    87  66  29    95  75  40    86  70  38    69  59  28    88  78  42   118 105  60   111  94  43    89  71  36    73  56  22    73  54  25    73  54  22    85  65  25   104  83  37   104  81  32   103  81  33   103  81  33   101  79  31    99  76  29    95  72  24   101  78  30   109  85  37   112  86  37   109  84  34   114  89  36   114  89  35   114  87  33   108  80  28   106  80  35    90  68  32    67  50  24    55  42  20    57  43  16    61  46  22    60  46  21    60  48  23  
 134 118  35   125 111  29   110  95  31    82  66  25    76  60  26    72  58  15    79  60  24    84  65  29    89  70  32    89  70  29    88  67  27    91  69  30    92  70  32    89  67  30    89  70  32    83  65  31    92  76  46    85  71  42    81  68  36    98  84  47   114 101  57   100  86  36    89  69  34    82  64  28    72  56  22    67  51  17    77  61  25    93  75  37    96  74  34    98  76  34    93  71  32    99  77  36    93  71  27    95  73  26   105  83  34   105  81  33   109  85  37   108  84  36   104  86  38   102  82  32   106  84  34   100  77  27   102  79  35    84  64  28    65  48  20    55  40  17    49  37  18    43  31  14    42  31  16    41  30  17  
 153 135  50   141 126  37   134 119  41   112  97  35    99  84  29   104  91  28   109  90  27   115  96  38   106  86  35    90  70  25    88  66  25    91  69  30    93  71  30    93  73  31    89  71  31    87  72  33   107  92  60    93  80  49    76  63  31    87  73  37   103  88  46    97  81  36    88  68  33    83  65  29    80  62  28    75  59  25    82  66  31    91  73  36    89  69  30    92  70  31    91  70  31    93  71  30    95  75  30   101  79  32    96  74  25   108  85  36   105  81  33    98  74  26   103  85  37   105  85  35   106  83  33    95  72  22    97  74  30    87  67  30    68  51  23    54  39  16    46  37  18    40  30  13    38  30  17    36  28  17  
 168 148  61   161 144  54   150 134  49   129 113  39   118 100  34   118 104  38   119  99  32   127 107  44   120  99  42   101  79  30    89  68  23    86  64  24    88  69  27    94  75  33    85  70  29    93  79  40   108  94  59    92  79  47    81  68  36    83  69  34    94  77  38    97  80  37    88  68  31    84  64  29    84  65  32    79  64  29    82  66  32    85  67  31    83  63  26    89  67  30    90  68  29    86  64  23    93  72  27   106  84  37    99  77  28   105  83  34   107  83  34   102  78  30    98  78  30   109  87  38   108  85  35    97  74  24   101  77  32    93  72  34    68  51  21    59  45  20    47  38  21    40  33  17    38  30  17    34  27  17  
 154 132  46   160 140  54   153 134  55   124 106  32   102  84  22    88  68  17    89  66  24    95  73  30   106  84  38   106  86  37    96  75  29    91  70  27    90  71  31    89  69  32    85  71  32    85  72  35   110  97  62    94  81  47    88  73  40    93  77  41    90  72  34    95  76  34    93  71  34    86  66  31    86  67  34    81  64  32    78  62  29    83  64  31    84  64  29    88  68  33    88  69  29    94  72  31    95  75  30   102  82  34   109  87  38   101  79  30   110  88  39   106  82  34   106  85  38   103  81  32   103  80  30   105  79  30   102  78  32    96  74  35    70  54  23    54  38  13    47  39  21    40  33  17    37  31  17    31  27  16  
 166 144  60   167 146  67   160 141  63   128 111  35    98  80  19    79  60  17    65  46  18    63  44  13    71  52  17    81  63  23    85  66  25    89  69  29    91  71  34    88  68  33    75  61  27    83  70  36   115 102  68   109  96  62    83  69  34    79  63  23    95  76  35    95  73  32    93  70  33    86  66  30    85  66  33    78  62  29    73  57  25    79  60  29    81  62  29    83  63  31    88  69  29   101  82  40   102  81  36   100  79  32   108  87  38   102  80  31   110  88  39   103  81  32   107  86  41   110  88  39   108  85  35   110  84  35   105  81  35    95  73  34    67  50  17    61  45  19    45  35  16    40  30  13    38  30  17    34  28  15  
 173 153  70   164 146  67   154 138  53   142 129  42   118 103  32    96  79  30    71  59  25    68  55  22    62  47  15    61  45  14    72  54  21    84  64  29    89  68  31    92  70  31    80  67  36    90  78  47   114 102  69   112  99  65    88  74  37    81  63  23   100  81  39    99  77  34    93  71  32    89  67  30    88  69  36    79  63  30    73  56  26    78  61  31    80  61  30    79  58  27    88  69  29    96  77  35   101  80  35   105  84  37   104  84  34   107  85  36   107  85  36   108  86  37   100  79  34   109  87  38   112  87  38   115  89  40   108  84  38    99  77  37    69  50  18    61  45  18    49  37  16    43  32  13    41  32  16    35  28  15  
 171 151  66   166 147  62   155 139  51   146 130  43   136 119  38   114  97  24    82  72  29    74  64  28    57  44  16    53  41  15    63  48  19    77  60  26    91  72  34    88  68  28    86  77  38    97  88  52   117 107  72   101  88  54    78  63  29    81  65  29    90  71  33    92  73  33    97  76  34    94  72  32    97  74  38    86  65  31    77  56  25    77  59  29    74  57  28    71  55  25    83  66  30    91  73  32   104  83  37   108  85  33   115  91  37   105  81  27   112  88  37   112  87  39    99  78  28   106  84  35   110  85  39   112  87  39   109  85  36    96  74  29    76  55  19    66  47  18    50  35  16    47  35  17    44  33  16    33  26  11  
 176 155  72   178 158  72   170 153  65   158 140  54   152 134  50   135 117  33    93  83  24    92  82  34    69  56  25    51  39  15    57  43  17    73  58  27    89  73  39    95  76  42    96  88  49    95  87  50   107  97  61    96  83  49    78  62  29    80  61  28    82  63  25    89  69  32    96  75  32    94  72  31    99  75  37    91  67  33    82  59  27    80  62  32    73  56  28    68  53  24    75  59  25    78  60  22   102  81  36   111  88  35   117  92  36   113  88  32   110  84  33   106  80  31   104  84  33   107  85  36   105  81  35   106  82  34   111  88  38   101  79  32    84  62  25    74  54  24    53  38  18    47  34  15    41  30  12    34  25   8  
 175 154  71   178 158  72   169 152  64   157 140  52   153 135  49   139 121  35    91  80  12    85  71  20    71  57  27    53  40  22    54  41  22    68  57  29    82  70  35    94  83  44   108 103  65    98  90  53   101  91  56    98  83  50    85  69  35    83  63  28    86  64  25    98  75  34    98  77  34    99  76  34   103  80  39    98  74  38    91  68  34    85  64  33    74  57  27    66  51  22    74  57  29    73  53  21    90  68  27   107  85  36   113  88  34   121  97  41   116  91  38   108  85  33    97  77  26   104  82  33   108  84  38   111  87  39   114  91  41   104  82  34    85  63  26    75  54  25    63  48  25    53  38  15    44  33  12    39  30  11  
 175 154  71   174 154  67   166 146  59   156 136  49   152 132  45   143 123  36   105  85  27    70  52   9    56  37  18    46  28  19    43  30  16    60  51  23    78  70  32   102  95  50   127 121  83   103  95  59    88  77  42    83  67  34    82  63  30    87  65  28    90  66  28    98  73  33    97  75  33   101  78  36   103  80  39    98  75  35    89  67  29    78  58  25    66  49  19    60  44  16    73  56  31    78  60  30    84  62  25   102  80  35   112  88  38   115  92  38   117  94  40   111  88  36    99  79  29   105  83  36   106  82  38   106  82  35   110  87  37   102  80  33    87  65  26    78  57  27    67  51  25    58  44  18    53  40  16    46  35  14  
 168 147  64   167 147  61   161 141  54   153 133  47   148 127  42   142 121  36   130 107  43    99  77  29    73  51  25    49  30  18    51  35  22    66  53  30    79  69  38   109 100  65   120 110  71    96  85  48    80  66  31    80  64  30    86  67  34    88  66  30    87  63  26    91  66  27    98  75  33   104  81  39   104  81  38   101  78  36    92  70  30    77  57  23    69  51  21    63  46  20    68  51  26    78  59  29    86  66  31    96  73  32   112  88  42   109  87  36   105  84  33   107  86  34   101  81  31   106  84  37   106  82  38   107  83  37   114  91  41   108  86  38    92  70  31    79  58  27    65  48  22    61  45  20    58  43  20    47  36  14  
 166 146  61   166 146  60   161 141  54   152 131  47   147 124  43   144 121  41   143 120  43   132 109  46    95  73  30    56  36   6    62  45  17    79  64  35    90  76  45   118 104  74   107  93  50    94  80  40    82  65  28    79  61  28    81  61  28    80  59  26    85  61  27    90  67  30    93  70  29   100  77  35    99  75  31    99  76  33    95  73  32    81  61  26    73  54  24    65  48  22    68  51  24    75  56  26    83  63  29    91  69  30   102  79  36   107  85  39    99  78  30   106  88  39   100  80  30   109  86  41   109  85  41   106  82  36   108  86  36   103  81  32    93  71  32    86  65  34    69  52  26    62  44  20    58  42  19    49  36  16  
 163 143  56   162 142  55   156 135  49   148 126  43   145 122  44   147 124  47   149 123  45   144 121  54   115  92  41    85  64  20    93  76  31   113  97  49   123 107  59   138 121  77   134 118  74   123 106  63    97  78  41    79  59  24    80  60  27    90  70  37    93  73  39    86  66  31    92  69  28    97  74  32    94  70  26    99  75  31   100  77  35    86  66  29    76  57  27    65  48  22    71  54  24    79  60  29    75  55  23    96  74  37    93  70  28   100  78  35    97  76  31    96  78  32   100  80  30   106  83  39   105  81  37   102  78  32   106  83  33   101  79  30    88  65  25    78  58  25    77  57  33    61  43  21    54  37  17    49  36  17  
 156 135  52   149 128  47   149 128  49   156 134  58   159 137  62   164 142  69   173 151  78   178 155  87   171 147  83   163 141  82   172 149  95   181 158 106   180 158 107   182 160 109   177 155 104   165 144  85   139 118  54   115  93  31   110  87  33   113  90  42   115  91  43   118  92  42   109  91  32   115  94  39   115  92  42   107  84  34   101  80  27    98  78  27    90  71  28    82  64  28    87  64  32    85  65  32    83  65  29    80  62  24    84  66  28    87  69  31    87  67  30    95  73  36    93  74  34    98  79  37   102  83  41    91  72  29    92  73  31   101  82  42    86  66  29    77  57  22    68  51  19    62  45  19    60  43  23    56  41  20  
 169 148  66   165 144  64   163 142  62   166 144  67   170 148  71   180 159  82   187 164  94   196 173 105   198 175 109   190 168 107   193 170 113   202 180 124   204 182 126   195 174 118   192 170 103   185 165  92   166 147  70   145 126  50   132 112  44   124 103  43   118  97  37   115  95  30   106  87  28   107  85  33   111  87  39   110  86  37   103  81  29   101  80  30    95  76  33    83  64  29    85  65  29    90  70  35    85  67  31    79  64  26    81  66  27    85  67  29    88  68  31    89  67  30    90  70  29    90  70  28    94  75  32    92  72  29    95  76  33    97  77  37    87  66  29    86  66  30    83  65  31    74  57  28    67  51  27    61  46  22  
 176 155  75   173 152  71   168 147  66   165 144  64   164 143  62   173 152  71   180 157  87   183 160  92   184 161  94   180 156  93   184 160  99   193 170 108   195 172 110   186 164 100   182 159  91   171 148  78   150 130  58   133 113  44   123 104  39   117  97  38   112  92  34   108  90  30   107  86  30   103  82  30   107  83  36   110  86  39   105  82  33   102  80  31    95  75  33    82  62  28    83  64  26    84  67  30    76  60  24    82  67  31    84  69  31    82  64  27    89  69  32    90  68  30    89  67  26    97  76  34    93  72  29    97  76  32    99  78  35    94  72  31    95  73  35    88  66  29    79  60  23    77  59  28    72  55  30    66  52  25  
 176 155  76   168 147  66   164 143  62   167 146  64   168 147  64   173 152  69   175 152  82   185 162  92   187 162  96   185 160  96   190 166 102   195 170 105   190 165 100   183 159  92   167 144  77   148 127  61   130 109  45   120  99  37   116  96  37   113  94  36   110  91  34   107  88  32   108  87  34   108  84  37   105  81  36   106  82  37   108  84  35   102  80  33    91  69  29    81  61  28    81  64  29    78  62  29    71  55  21    81  67  35    84  68  35    78  61  27    89  70  33    91  70  31    92  70  29    96  75  32   100  79  35    98  77  32   100  80  35   102  80  39    93  71  32    90  68  31    87  67  28    80  61  28    68  51  23    62  46  20  
 176 155  74   165 144  63   160 139  58   160 139  56   152 131  48   146 125  42   164 140  68   176 152  82   172 147  80   164 139  75   177 149  86   181 154  91   171 143  78   162 134  69   126 105  50   108  87  36    96  73  29    94  72  28    95  73  25    95  73  23    96  75  27    96  74  30   100  78  28   104  80  36    98  74  32    98  71  30   104  80  34    98  75  31    84  62  23    77  56  25    69  54  25    70  55  28    65  50  24    69  55  29    74  59  30    79  63  29    91  73  35    87  68  26    98  77  34    96  75  32   100  79  34   101  79  34   104  83  38   101  80  37    89  67  26    90  68  29    91  69  30    80  60  27    68  48  23    60  44  18  
 174 154  71   166 145  64   160 139  58   157 136  55   149 128  47   145 124  43   153 129  56   156 132  62   158 132  65   159 131  68   158 129  69   151 122  62   144 114  55   143 113  51    88  69  26    75  52  19    71  47  20    84  58  30    93  69  34    95  70  29    94  68  30    92  66  32    95  74  25   101  77  34   101  73  34   100  72  32   103  79  34   101  78  34    88  66  27    77  55  24    60  45  25    59  45  24    57  44  25    57  45  23    63  49  23    79  63  30    89  72  34    89  70  27   101  79  37   105  84  39    95  74  29   101  80  33   106  84  39    97  76  33    97  75  34    86  64  25    83  60  24    75  54  23    71  51  26    62  45  21  
 172 151  69   168 147  64   164 143  61   159 138  56   149 128  48   145 124  45   139 117  41   151 128  55   176 149  82   188 160  97   175 145  86   135 106  51   117  89  37   130 103  54    98  81  39    84  66  25    75  56  19    80  57  21    93  67  27   101  74  29    97  69  26    94  68  30    94  71  26    98  72  32   100  73  33   100  73  32   100  75  32    99  76  33    89  67  29    76  55  22    65  50  32    57  45  27    54  44  27    53  43  26    58  47  25    70  57  29    83  66  30    89  70  29    99  79  35   103  83  37    98  77  31   100  78  32   104  82  38   103  81  38   100  78  37    89  67  28    89  67  29    78  57  25    68  48  23    61  43  20  
 177 156  75   178 157  74   178 157  74   170 149  67   154 133  53   139 118  38   138 121  39   166 147  71   190 165  98   198 170 106   200 171 111   135 109  55    77  55  13    86  66  33    72  53  30    77  62  27    88  71  32    88  65  26    98  67  29   105  73  30    95  68  25   100  78  40   101  73  34   102  74  34    99  71  31    97  73  29   102  77  36    99  76  35    92  68  30    85  61  25    62  50  24    53  45  23    44  38  21    38  35  20    43  40  23    56  48  26    71  56  26    79  61  26    98  80  34   103  82  36   103  81  35   103  80  33   104  81  37   102  79  37    93  71  30    87  68  27    92  70  29    84  64  29    70  49  22    66  46  21  
 176 155  73   170 149  66   162 141  58   150 129  48   141 120  41   139 117  40   157 139  58   182 160  85   195 170 103   195 168 102   197 171 105   146 122  58    91  71  16    87  67  19    73  57  24    53  38   9    66  52  24    88  68  34    95  70  27    98  69  24    96  69  27    99  76  35   100  72  33   100  71  31    97  69  29    97  73  29   104  79  38   103  79  39    93  69  31    85  62  25    66  52  28    53  43  22    39  33  17    35  31  19    40  36  23    51  44  25    64  50  23    73  56  25    86  67  24   103  83  40   105  83  39    97  75  30   101  78  34   104  81  39    95  73  32    86  67  27    89  69  28    82  62  27    75  54  27    64  44  19  
 162 142  56   159 139  53   161 140  57   139 118  39   123 101  25   140 118  43   159 141  59   169 146  71   181 156  89   193 166  99   197 173 101   162 140  65   128 108  38   122 103  36    93  80  29    51  38   6    53  40  18    83  68  37    97  76  33   101  74  31   100  72  33    99  73  35    94  66  27    97  69  29    97  69  29    98  71  28    99  74  33    98  73  33    92  66  29    88  64  28    71  56  33    57  47  27    43  37  23    39  34  24    39  35  24    45  38  22    59  47  25    72  56  30    81  63  24    95  75  35   105  84  41   101  78  34    97  74  30   101  78  36    99  77  38    89  68  31    82  63  21    79  59  26    82  61  34    67  47  22  
 166 146  60   165 145  59   166 145  62   138 118  37   129 107  30   156 134  59   164 143  60   179 156  80   190 165  99   201 176 109   211 187 114   177 154  76   146 124  48   138 119  43   110  93  37    71  56  23    55  42  23    69  55  28    86  67  26    96  72  27   101  74  27   105  82  32    96  66  28    98  70  30    97  69  29    95  68  25    96  71  30    95  70  30    92  66  29    90  64  29    73  57  32    58  45  26    44  36  23    37  33  24    35  32  23    41  35  21    54  44  25    68  53  30    75  59  25    92  74  39   101  79  39    93  70  26    89  66  22    98  75  33    97  75  37    87  65  28    88  69  29    80  60  27    80  59  32    67  47  22  
 163 143  58   159 139  53   145 124  40   129 108  27   138 117  37   162 140  63   167 145  59   184 161  84   198 173 106   201 175 111   204 179 111   193 170  96   183 160  85   166 141  68   132 109  39   104  87  33    70  57  20    59  46  17    76  57  27    92  67  32    98  70  29   102  75  30   102  72  34   101  72  32    96  67  27    95  67  25   100  72  32    99  74  34    93  67  31    89  63  28    81  65  38    64  52  29    46  39  22    36  32  21    35  32  22    40  36  23    49  40  22    56  44  22    67  50  21    84  66  33    92  73  34    95  74  31   103  80  36   100  77  35    92  69  32    91  68  35    86  67  27    82  62  30    78  56  32    67  47  23  
 156 135  52   152 132  46   147 127  41   141 121  36   142 121  39   147 126  44   160 139  49   180 157  79   196 171 105   196 170 110   201 175 112   204 179 111   206 181 111   184 157  88   157 127  52   136 115  46    88  75  22    55  41  10    62  41  20    82  57  26    97  70  30   105  78  35   100  70  32   101  72  32   100  71  31    98  71  28   101  73  33    99  74  34    95  69  32    92  66  31    80  63  32    67  54  28    49  42  24    36  34  21    34  32  20    40  37  22    49  42  23    56  45  23    67  51  26    78  62  30    89  69  32    96  75  32   102  79  35   100  77  35    93  69  33    88  65  33    82  63  24    85  64  33    79  57  33    73  53  29  
 162 141  58   155 134  50   153 132  48   143 122  38   140 119  36   144 123  40   152 129  49   177 154  79   191 167  96   193 168 101   196 171 106   197 172 105   196 169 102   181 154  85   143 121  50   115  94  34    84  66  20    51  36  16    55  41  24    75  61  21    95  74  31   103  75  26   103  73  31   102  73  30    97  68  26    97  70  25   102  75  33   100  73  33    92  67  28    92  66  30    76  62  26    69  55  27    52  44  24    38  33  19    35  32  20    42  37  22    49  42  23    55  46  23    66  52  32    74  59  32    80  63  31    86  66  27    94  72  31    97  75  33    92  70  31    85  62  27    82  62  28    84  63  31    79  58  29    75  54  25  
 157 136  53   152 131  48   147 126  43   133 112  29   135 114  31   144 123  40   157 134  56   182 159  83   195 171  99   198 174 104   199 174 108   200 175 109   199 174 108   191 166  99   169 146  76   140 117  49   117  97  27    65  48  12    50  35  17    69  55  24    89  65  34   103  72  27   103  74  30   104  75  31   100  71  27    97  70  25    99  72  28    99  71  31    93  68  28    89  63  26    86  68  30    76  61  31    58  48  26    43  36  22    37  33  22    39  35  23    45  40  21    51  45  23    60  49  29    65  53  29    70  55  26    77  58  24    86  65  28    91  71  34    88  68  31    85  65  29    80  61  29    80  59  28    78  57  26    75  54  23  
 148 127  44   143 122  39   134 113  30   126 105  21   135 115  30   147 127  41   157 135  51   178 155  77   192 168  94   200 176 106   205 180 114   210 184 121   217 191 130   217 191 130   207 176 111   191 161  89   170 146  59    96  74  22    59  39  14    72  52  24    82  56  30    99  67  28   100  71  29   104  76  32   107  78  34   103  74  30    98  71  26   101  74  31    99  74  34    93  67  30    96  74  33    85  66  33    66  52  26    48  40  22    39  35  23    37  33  21    40  37  20    47  43  24    52  43  26    57  47  27    61  49  23    68  53  22    81  62  29    89  71  35    87  69  36    85  67  34    83  64  32    79  60  28    77  56  24    76  57  25  
 155 134  51   145 123  41   138 118  34   134 114  28   139 119  33   150 130  44   165 143  58   180 157  77   188 164  90   197 172 105   203 179 115   207 181 123   211 186 130   213 188 131   208 178 116   192 163  96   155 131  52    90  67  19    58  41  13    69  56  21    78  59  26    89  63  23   103  71  30   101  72  28   105  76  32   105  78  30   101  73  28   102  75  32   103  75  35    95  69  29   101  73  32    91  68  30    71  54  27    53  42  23    41  35  20    35  30  19    37  34  20    43  40  25    49  44  26    54  47  28    59  49  25    65  52  25    76  61  31    83  67  35    80  64  31    77  61  28    80  64  34    75  57  27    72  53  22    76  57  25  
 154 133  50   145 124  40   147 127  41   139 119  33   131 111  25   143 123  37   163 141  57   174 151  72   181 157  84   194 169 103   205 181 120   210 185 128   213 190 133   213 189 134   210 186 120   191 166  95   137 115  36    84  63  18    59  43  20    63  52  24    74  58  29    83  64  22   104  72  31    99  68  25   100  71  27   104  76  29   104  76  30   103  76  32   101  74  32    97  69  30   103  72  31    95  69  32    77  58  28    56  44  21    42  35  18    36  31  18    36  31  18    41  37  22    47  42  24    52  45  26    55  44  23    60  47  22    71  56  28    78  63  32    76  61  28    74  59  26    74  59  31    70  54  26    71  53  23    77  58  26  
 151 131  46   143 123  37   146 126  40   142 122  36   136 116  30   149 129  43   162 138  57   172 149  73   181 157  85   195 171 105   210 186 126   215 193 135   220 198 141   219 197 140   218 194 131   206 180 109   158 134  52   110  88  34    79  60  30    71  57  21    70  51  22    83  59  21   103  71  30   102  70  29   101  71  27   102  74  27   107  79  32   106  79  34   103  76  33   100  72  32   101  70  30    97  70  34    81  62  30    60  45  22    45  37  18    40  34  18    41  34  19    43  36  21    45  40  20    49  42  23    53  42  22    59  44  21    71  55  29    80  64  34    81  65  32    79  63  30    68  53  27    68  52  25    72  55  26    77  58  26  
 158 138  52   141 121  35   134 114  28   141 121  35   148 128  42   158 138  52   176 150  72   186 163  88   193 169  98   200 177 112   210 186 126   213 191 133   216 194 137   215 193 135   225 196 141   208 178 121   168 138  67   131 102  44   113  91  35   112  95  29    91  67  22    96  64  29   106  74  33   111  79  38   107  76  32   100  72  25   103  75  28   104  75  31    98  70  28    95  68  25    96  67  27    97  71  36    84  65  33    63  49  23    49  41  20    47  39  22    48  39  24    48  39  24    53  46  27    58  50  29    63  51  29    68  53  30    79  62  36    84  68  38    82  66  32    79  63  27    60  45  20    63  47  21    69  52  24    74  55  23  
