P3
50 50
255
  28  31  22    34  36  25    35  37  26    34  36  23    33  35  22    33  35  22    41  39  22    41  38  23    46  39  21    93  87  55   101  93  56    57  45  18    60  49  29    57  47  20    60  48  24    58  46  22    55  43  21    53  41  19    52  40  18    54  39  18    53  38  17    52  37  16    53  36  18    48  32  16    42  30  14    38  30   7    50  42   5    83  74  17   114 105  26   132 121  29   163 147  60   187 171  93   206 189 121   220 203 147   228 210 160   227 207 157   221 200 147   211 190 135   200 179 112   188 165  97   175 152  82   176 152  80   181 157  87   185 157  92   184 155  95   186 155  99   181 154  87   173 146  80   173 146  79   175 150  83  
  31  34  23    37  39  28    37  39  28    34  36  23    33  35  22    35  36  23    38  36  21    42  39  25    44  36  24    74  64  38   104  95  55    68  56  26    58  45  28    58  48  24    60  48  24    59  47  23    56  45  22    53  41  19    51  39  17    54  39  18    54  39  18    52  37  16    50  33  15    46  30  14    40  29  13    37  29   5    53  45   8    83  74  17   108  99  20   129 118  26   166 150  63   183 167  89   199 184 117   219 202 146   229 211 162   225 208 158   222 202 151   216 195 140   205 183 117   194 171 103   182 159  92   187 162  95   194 169 104   195 166 105   190 161 103   192 161 107   187 159  95   180 152  88   180 155  92   184 159  96  
  36  39  28    42  44  33    39  41  28    34  36  23    33  35  22    37  39  26    39  37  24    43  39  27    46  37  29    64  53  32   112 103  62    81  70  40    56  42  28    60  48  26    58  46  22    59  47  23    59  47  25    55  43  21    53  41  19    54  39  18    54  39  18    52  37  16    50  33  15    47  31  15    40  28  12    37  29   6    58  50  13    83  74  17   102  93  14   128 117  25   162 146  59   181 165  87   196 181 114   214 197 141   225 207 159   224 206 158   222 202 152   217 196 143   205 184 119   195 172 106   186 163  97   194 169 106   205 179 119   203 174 117   196 166 111   198 166 114   196 168 105   182 157  94   183 157  97   190 166 107  
  43  45  34    40  42  31    40  42  30    35  37  24    32  34  21    36  38  25    38  38  22    44  41  24    46  37  29    57  45  30   113 104  63    99  87  48    60  45  25    58  44  25    58  48  20    58  48  21    55  43  18    52  40  17    55  43  21    57  42  22    52  36  19    51  35  17    48  29  16    47  30  13    38  26   9    40  30   8    61  53  16    71  61  12    98  89  15   125 116  11   158 142  51   172 157  75   189 175 105   212 196 140   224 206 158   224 203 156   221 198 150   217 192 141   203 180 117   194 170 105   186 163  94   193 169 104   206 180 123   205 178 127   198 171 121   200 173 122   196 167 109   188 163 104   187 161 103   188 163 106  
  40  43  31    35  37  26    35  37  26    34  36  23    32  34  21    35  37  24    35  36  20    40  37  20    46  39  29    50  41  24   105  96  56   111  99  59    64  49  26    62  47  27    53  42  23    57  44  26    57  44  26    54  42  24    54  41  24    52  36  19    48  32  16    50  35  16    45  27   8    53  39  14    45  33  12    38  27   5    54  45  11    66  54  15    98  86  25   119 111  11   141 127  35   162 147  64   185 171 100   210 194 135   218 200 150   214 194 144   213 190 140   210 184 133   201 177 115   185 162  95   180 158  88   193 170 103   201 176 119   199 173 124   197 171 122   201 175 124   199 169 114   191 165 108   191 165 108   187 163 103  
  33  36  25    34  36  25    33  35  24    32  34  21    31  33  20    32  34  21    37  39  22    39  39  21    43  36  26    46  37  20   102  92  58   129 118  83    64  50  24    54  42  20    60  47  30    56  43  24    50  37  19    51  38  18    56  44  21    60  45  21    63  50  23    70  56  28    85  69  43    87  74  43    66  56  31    41  33  10    46  38   9    55  44  16    81  69  22   105  95  10   133 118  30   157 142  59   183 168  97   203 187 128   210 190 138   205 184 133   204 182 129   200 178 121   195 171 109   177 154  85   177 154  83   191 168 101   198 173 116   198 172 123   201 175 126   202 176 125   199 173 116   190 164 107   189 163 104   183 159  97  
  31  34  23    37  40  28    34  36  25    30  33  20    31  33  20    29  31  18    35  36  20    37  35  20    43  37  25    49  40  22    80  69  41   117 106  76    70  59  31    57  45  22    57  47  14    62  51  19    73  62  31    88  77  45    94  83  52    91  80  49    86  75  43    86  75  43    81  64  43    73  60  33    53  43  22    37  30  10    42  35   7    45  36  11    61  50   8    94  87   7   139 125  38   160 145  65   178 161  91   194 175 113   200 179 123   199 178 122   199 177 119   193 172 112   185 160  96   175 151  81   173 148  77   183 158  90   196 170 113   204 176 126   204 176 128   200 172 122   199 173 116   189 163 105   181 157  96   174 151  86  
  31  34  23    38  40  29    33  35  24    30  32  19    32  34  21    32  34  21    33  34  18    39  37  24    42  36  21    49  41  21    60  49  28    96  84  58    80  69  40    75  63  38    87  75  41    87  75  43    91  79  48    91  80  53    82  70  47    69  57  35    60  47  28    56  43  24    49  31  20    45  32  13    39  29  15    34  28  11    38  33   9    40  33   9    50  41   2    93  89  11   143 128  44   158 142  64   172 154  83   184 164 100   190 167 108   189 166 106   189 168 105   185 164  99   180 155  88   171 147  76   166 142  69   178 154  85   199 173 114   205 177 127   200 172 124   201 173 123   199 172 117   190 164 105   175 151  88   168 147  79  
  29  32  21    33  35  24    32  34  23    31  33  20    32  34  21    31  33  21    31  33  17    37  34  24    40  34  18    62  54  33    89  78  61   114 102  79    92  81  50    83  71  45    78  64  40    69  54  33    63  48  27    57  45  26    53  40  23    50  36  23    48  34  23    43  30  18    42  25  17    42  29  13    40  31  18    33  27  13    30  27   6    33  28   8    41  34   1    94  90  21   141 128  46   151 135  58   160 141  70   175 152  86   182 158  95   181 157  94   181 160  93   178 158  90   178 153  86   168 144  72   167 143  68   182 158  88   200 174 115   203 175 125   201 173 125   204 176 126   197 170 115   185 160 100   172 148  84   169 149  80  
  28  31  20    30  32  21    33  35  24    34  36  23    30  32  19    27  29  16    30  33  16    39  35  28    82  77  58   116 108  85   114 103  90   114 101  82    86  75  43    63  51  25    59  44  25    56  41  22    56  41  22    53  40  21    48  36  15    49  37  16    48  37  16    42  31  10    47  30  18    40  29   9    38  31  15    35  31  17    32  29  10    34  28  13    35  28   2    93  88  29   142 129  49   142 126  49   143 123  52   160 137  70   175 150  86   178 155  88   176 156  87   170 151  83   173 149  80   167 143  69   172 149  73   184 160  90   194 168 109   202 174 124   205 177 129   201 173 123   193 166 111   178 153  93   172 149  82   174 154  83  
  28  29  21    35  35  25    38  38  28    32  32  20    27  25  13    38  36  23    68  63  41    87  82  62   106 103  85    87  81  65    59  52  34    80  68  46   131 115  89    80  63  32    61  45  20    62  46  23    56  41  18    59  44  23    49  36  17    52  39  22    46  33  17    45  32  16    42  32   7    39  30  15    39  31  18    36  29  13    31  24   8    35  26   9    44  35   2    85  78  23   137 119  47   135 117  44   139 120  44   148 129  52   164 143  67   167 145  72   179 156  87   175 150  84   175 150  83   175 150  83   175 150  83   185 160  96   194 168 109   199 172 119   205 177 129   204 175 130   196 168 118   178 152  93   173 153  82   174 157  83  
  34  35  26    35  36  26    31  31  21    30  30  18    54  52  40    77  75  62    93  87  69    78  73  56    60  54  38    50  44  28    48  39  21    71  59  36   129 113  86    93  77  44    61  45  23    61  45  23    57  42  21    58  43  22    47  35  16    51  38  20    47  34  16    46  32  15    41  30   8    38  29  14    38  30  17    36  29  13    34  26  11    41  31  14    49  40   7    87  79  25   129 110  42   128 110  38   130 112  36   141 122  44   161 140  63   164 142  67   177 154  83   180 156  88   183 158  91   181 156  89   176 151  85   185 160  96   194 168 109   198 171 116   202 174 125   200 172 125   189 161 112   178 152  94   172 151  83   171 153  82  
  31  33  22    32  34  23    40  40  28    63  63  51    85  84  72    77  75  63    53  48  34    47  41  28    40  34  20    51  43  28    55  45  26    59  46  21   104  89  59    96  80  46    64  47  27    62  45  25    59  44  23    59  44  23    50  38  17    53  40  21    51  38  19    47  34  15    42  32  11    40  31  16    37  29  16    38  31  13    37  28  12    46  34  18    54  43  11    86  76  23   118 100  34   120 103  32   124 106  31   135 117  38   160 141  62   168 146  71   177 155  82   183 159  92   182 157  91   178 153  87   174 149  83   182 157  93   192 166 106   196 169 113   200 172 121   198 170 122   190 162 114   184 159 102   176 155  89   174 155  88  
  33  35  23    46  48  36    76  77  64    81  81  69    56  56  44    40  39  28    39  35  23    40  34  22    48  40  27    57  48  31    58  46  26    57  43  17    87  72  41   109  94  61    66  50  28    59  42  22    57  42  21    57  42  21    51  39  17    50  37  18    50  36  17    44  31  12    40  32  11    40  31  16    36  29  14    38  31  12    38  30  11    47  35  19    57  44  14    81  70  19   102  86  25   110  94  28   120 103  30   131 114  35   161 142  63   172 152  75   175 153  80   176 152  85   175 150  84   173 148  82   171 146  80   182 157  93   190 164 103   192 166 110   199 172 119   200 172 123   190 162 113   184 159 102   176 155  90   177 157  93  
  75  76  63    82  84  71    64  66  53    47  47  35    30  30  18    31  31  19    37  35  22    40  34  20    54  47  31    57  46  28    61  46  25    62  47  22    73  58  29   106  91  60    78  62  37    61  44  20    57  42  19    58  43  22    54  42  19    48  35  16    49  36  19    43  30  13    37  29  10    39  29  17    35  28  12    39  32  13    39  31  12    49  36  19    61  47  18    79  67  19    86  70  18    97  81  21   113  98  29   127 111  34   155 137  59   166 148  71   168 145  74   166 143  75   169 145  81   169 145  81   169 146  79   179 155  91   185 161  99   186 162 103   193 167 112   196 171 118   189 162 107   180 156  96   173 152  87   178 158  95  
 102 106  92    63  65  52    31  33  20    30  30  18    34  34  22    34  34  23    35  33  18    40  34  20    51  42  25    58  45  27    64  49  28    65  49  26    67  51  26    94  80  53    97  82  53    68  52  26    60  46  20    60  45  22    57  44  25    48  35  18    50  37  21    45  32  16    37  29  10    40  30  18    36  29  13    41  33  12    41  30  10    50  37  20    63  48  19    78  64  17    80  63  17    86  70  16   112  97  32   129 112  40   150 132  56   157 137  64   163 140  73   168 144  82   173 148  85   169 145  81   167 144  77   176 152  88   182 158  94   181 157  97   187 162 105   190 165 109   189 164 107   181 157  95   174 155  87   177 159  93  
  54  58  45    33  35  24    32  35  23    28  30  18    28  28  17    33  33  21    40  38  21    44  38  21    45  36  19    56  44  25    67  51  31    66  51  27    65  50  27    77  63  37    96  81  52    69  54  26    61  46  21    61  45  23    56  42  23    47  33  15    49  35  19    44  31  15    39  30  13    42  32  19    38  30  14    42  34  14    43  32  12    51  38  19    62  47  18    73  58  17    78  64  20    85  69  19   111  96  36   130 114  45   145 128  53   149 130  58   160 137  71   174 149  90   177 153  89   170 146  83   167 143  79   176 152  86   182 158  93   182 158  96   186 162 104   188 164 107   187 164 104   182 159  96   177 158  90   176 158  91  
  30  31  23    28  31  23    29  32  24    27  28  19    29  29  18    36  35  23    41  38  19    47  42  23    48  40  21    58  47  27    64  52  30    66  51  28    66  54  29    61  49  23    70  56  30    62  47  23    63  47  24    64  47  27    56  39  19    52  36  15    49  37  16    46  35  14    42  33  17    42  33  18    39  30  13    40  31  14    48  37  17    56  41  18    61  45  19    66  49  21    76  62  19    84  70  25    98  85  34   118 104  42   133 119  46   142 124  50   157 133  68   174 148  90   174 150  88   169 145  82   170 146  82   178 155  88   182 158  93   182 158  96   182 160 100   185 163 105   181 161 100   179 159  97   176 157  91   176 157  89  
  30  31  23    26  29  20    25  28  19    28  30  19    30  30  19    32  30  18    41  38  19    47  42  23    51  43  24    59  48  28    63  51  29    63  48  26    63  51  26    61  49  23    62  50  25    63  48  25    61  45  23    60  43  21    58  42  21    52  38  19    48  36  16    47  39  19    43  34  17    43  34  17    39  30  13    39  30  13    46  35  16    51  38  16    56  40  15    61  44  17    71  56  18    70  55  15    80  66  20   105  90  31   127 113  41   140 122  48   155 131  62   170 145  83   172 148  86   172 148  84   174 150  86   177 153  89   180 156  92   182 158  96   181 159  99   181 160 101   182 160 100   180 159  96   177 158  92   174 155  87  
  26  27  19    27  30  21    29  32  21    31  31  19    34  32  19    35  32  18    44  41  22    47  42  23    52  44  25    59  48  28    63  51  29    64  49  26    61  49  23    60  48  22    61  49  25    65  50  27    62  47  24    59  44  21    58  43  22    52  39  20    44  36  17    43  34  17    42  33  16    42  33  16    39  30  13    37  30  12    41  33  14    46  35  15    51  36  13    56  40  15    64  47  16    63  47  14    72  57  16    96  81  26   123 108  39   140 122  48   151 129  56   163 135  70   165 140  77   171 147  83   175 151  87   176 152  88   180 156  94   184 160  98   182 160 100   181 159  99   185 163 103   181 160  97   176 155  90   171 152  84  
  29  30  22    29  32  23    27  29  18    26  27  13    37  35  19    50  47  30    56  53  34    52  47  27    53  45  26    57  46  25    61  49  27    64  49  26    61  49  23    61  49  23    66  51  25    61  47  21    61  45  19    61  45  19    55  41  15    51  39  17    46  38  19    43  34  17    40  31  14    41  32  15    37  30  12    36  29  11    40  31  14    44  33  13    47  35  13    53  38  15    57  42  13    64  49  18    73  57  21    88  75  24   114  99  34   135 117  43   147 124  52   153 126  59   160 137  70   172 148  84   177 153  89   177 153  91   182 158  96   186 162 100   183 162  99   182 161  98   182 159  99   177 155  92   169 148  82   164 144  77  
  28  29  21    28  29  21    30  33  19    40  40  25    57  54  36    71  66  46    61  58  38    53  48  28    53  45  24    54  43  21    59  47  23    64  50  24    60  49  23    65  54  26    75  57  31    67  50  21    65  47  16    67  50  19    63  47  17    56  41  15    47  35  15    42  33  14    38  30  11    40  31  14    37  30  12    35  29  13    38  30  13    40  32  14    44  33  14    49  37  16    54  39  12    64  49  20    70  55  21    79  65  19   102  86  25   128 108  38   143 119  50   150 122  56   161 138  70   174 150  84   178 154  92   179 155  93   184 160 100   187 163 103   180 159  96   179 158  94   177 155  94   172 151  88   166 145  78   161 141  72  
  31  32  24    38  40  29    44  45  32    49  47  32    53  51  31    58  53  32    50  48  27    46  41  21    51  43  22    55  44  22    59  47  23    63  49  23    59  47  21    65  54  26    77  57  29    75  55  24    73  53  19    81  61  27    84  67  34    69  52  25    50  36  14    47  35  17    39  31  12    40  32  14    37  30  12    35  29  13    37  30  14    39  30  13    43  32  14    47  35  16    53  38   9    59  44  15    66  51  18    76  62  18    99  83  24   124 103  36   142 117  50   152 122  58   160 137  69   172 149  82   176 152  90   178 154  94   185 160 102   185 161 101   177 156  93   176 155  90   172 151  88   170 149  85   165 144  77   157 137  68  
  42  42  31    47  48  36    43  43  31    36  37  22    34  33  17    34  33  17    43  38  20    44  39  20    49  43  21    56  47  24    59  49  24    58  45  19    59  47  22    63  49  25    69  50  25    70  51  26    68  49  22    79  61  32    95  75  43    85  68  30    70  54  11    71  56   9    51  36   7    40  30   9    38  35  19    31  28   9    38  30  13    43  28  18    43  28  14    48  36  13    53  37   9    60  43  14    61  44  17    76  58  22   102  84  23   127 107  35   141 114  48   156 126  60   163 138  72   170 147  82   175 153  91   179 158  97   182 160 101   181 160  98   177 156  92   177 154  88   167 146  82   168 146  79   161 139  72   156 134  67  
  41  41  29    36  36  24    31  31  19    29  29  17    32  33  19    34  35  21    39  33  17    44  39  20    48  42  20    55  47  24    58  48  23    58  46  20    63  49  26    65  50  27    59  43  18    60  44  20    56  40  17    61  43  19    72  54  24    76  60  21    83  69  22   103  87  35    81  67  23    53  44  14    40  39  19    30  28  12    37  30  12    40  27  12    42  29  13    46  34  17    51  35  12    55  38  12    58  42  19    78  59  26   103  85  21   135 113  40   151 123  60   166 135  71   174 149  85   177 153  91   179 158  97   181 161 100   181 161 100   180 160  99   179 158  94   178 154  90   173 152  87   167 144  77   160 137  70   150 125  59  
  34  34  24    28  28  16    26  26  14    29  29  17    32  33  19    36  34  21    42  36  20    48  43  24    50  44  22    55  47  24    58  48  23    58  46  20    64  49  26    63  48  25    63  49  23    66  52  26    59  45  22    53  38  15    53  37  12    53  38   6    67  53  15    91  78  35    99  91  31    68  64  16    43  42  13    30  27  11    37  30  12    39  28   6    43  33  14    43  33  24    46  33  17    44  33  11    54  39  17    77  61  24   106  89  20   145 123  50   164 134  75   180 145  88   181 155  96   183 159  99   184 162 104   183 162 105   183 162 105   182 162 103   179 157  97   177 153  91   168 144  80   160 137  70   164 139  72   154 126  57  
  26  28  17    25  26  15    28  28  15    31  32  18    36  34  21    37  35  22    44  38  22    50  45  26    51  45  23    54  46  23    58  48  23    60  48  22    66  51  27    62  47  25    58  46  20    61  48  22    57  45  21    54  42  19    54  42  19    53  40  14    56  43  15    69  56  26    85  81  21    80  78  20    59  54  10    36  29   4    41  31  13    36  28   6    39  31  12    37  27  17    42  30  21    42  31  13    48  36  14    72  57  18   112  95  26   156 133  59   168 137  81   185 150  96   183 156 100   186 161 105   186 162 108   185 164 109   185 164 109   184 163 106   180 158  98   175 151  91   165 141  77   171 145  78   175 148  78   170 141  70  
  26  28  18    26  28  17    29  29  17    32  33  19    37  35  22    40  38  25    43  37  21    49  42  24    49  42  21    54  44  22    57  46  22    61  48  22    66  51  28    64  48  25    61  48  22    61  48  23    57  44  20    55  43  21    55  43  21    51  39  18    48  36  14    52  39  18    59  55  10    85  78  22    80  70  15    52  40   2    52  39  15    43  34  14    39  31  11    40  30  13    40  29  16    44  34  11    45  33  10    64  50  12   114  99  31   163 142  70   167 137  81   184 150  97   188 161 106   190 165 111   188 165 111   184 163 108   183 162 107   183 163 105   181 159  99   176 152  91   167 143  79   180 153  85   168 139  66   161 130  55  
  28  30  22    30  32  21    31  31  19    32  33  19    36  34  21    37  36  21    46  39  23    49  42  24    48  40  19    55  44  22    57  45  21    58  45  18    62  47  24    62  46  23    60  45  21    60  45  22    58  43  20    57  43  20    57  43  22    53  39  20    47  34  15    47  34  15    50  43  12    80  67  27   101  82  33    83  65  15    71  56  18    50  40  14    36  26   6    41  29   7    44  32   9    48  38   9    50  36  11    60  46  10   108  94  30   161 142  72   164 138  79   178 147  91   188 161 106   191 166 111   190 167 113   184 163 108   181 160 103   181 161 100   177 156  94   172 148  85   163 138  74   173 144  76   163 132  57   152 119  41  
  25  28  19    26  28  17    28  28  16    32  33  19    38  36  23    40  39  24    47  40  24    48  41  23    48  40  19    56  45  23    59  48  24    60  46  20    64  49  27    66  50  27    65  49  26    62  46  23    58  42  19    58  42  19    58  43  22    56  41  20    51  37  18    49  35  16    39  31   9    62  44  21   107  81  45   110  87  33    93  78  24    62  52  17    43  31   9    48  33  14    53  40   9    55  42   9    56  42  16    61  46  13   100  85  24   155 138  68   161 139  79   170 145  82   180 154  97   187 162 106   190 168 111   187 166 109   182 162 103   179 159  98   172 151  86   166 143  77   154 129  65   161 132  64   175 142  65   166 131  51  
  28  31  22    28  31  22    29  31  20    31  31  19    39  36  21    44  38  22    42  35  19    46  37  20    50  42  21    54  44  19    56  44  18    60  46  19    63  49  23    66  49  24    58  46  22    64  50  24    64  48  23    60  44  18    59  44  19    53  38  15    46  34  12    48  37  17    49  31  17    49  31  21    74  61  28   106  97  37    93  85  13   110 103  24    83  73   5    66  52   8    57  43   1    63  49  22    61  50  18    58  50   3    87  76  20   144 130  58   162 140  65   170 139  82   179 156  89   188 164 102   192 167 109   188 163 107   183 161 104   181 159  99   174 153  88   164 144  75   152 130  57   144 121  51   151 122  54   160 123  47  
  25  28  19    26  29  20    29  31  20    33  33  21    39  35  20    42  36  20    46  39  23    47  38  21    48  40  19    53  43  18    58  46  20    63  49  23    63  49  23    63  47  22    58  46  22    58  44  18    60  45  20    61  45  19    57  40  15    53  38  16    50  38  16    46  35  15    49  35  13    44  28  15    54  40  16    79  67  32    70  59  21    85  77  14   105 101   8   105 102   4    78  66   4    73  60  20    75  62  25    71  61  11    80  70   7   133 119  42   159 138  60   161 134  75   179 156  89   186 162 100   189 165 107   186 161 105   182 160 103   181 159  98   173 152  86   162 142  73   156 131  59   136 108  39   136 104  34   152 113  34  
  24  27  18    25  28  19    28  30  19    32  32  20    38  35  20    41  35  19    44  37  21    46  37  20    49  41  20    54  43  20    57  45  19    60  46  20    61  47  21    63  47  22    59  47  23    57  43  17    60  44  19    62  46  20    58  42  17    56  41  18    54  42  20    47  36  16    50  40   9    58  48  18    58  48  12    55  43  14    45  32  18    56  48   9    90  91   2   115 122   3    97  90   3    84  72  14    83  70  22    85  72  16    88  75   7   129 116  31   156 139  55   166 144  81   183 159  96   189 165 103   190 166 106   187 163 104   183 161 102   180 159  95   170 149  82   158 138  69   151 121  53   133 101  34   142 106  33   166 122  38  
  25  28  19    24  27  18    26  27  18    29  29  17    36  32  20    41  35  20    41  33  19    43  35  17    47  40  20    53  42  20    55  43  19    57  43  17    59  45  19    64  48  23    58  46  22    61  47  21    60  44  19    60  43  17    60  44  19    57  42  19    51  39  17    49  38  18    71  65  29    89  81  39    79  72  20    61  52  14    44  30  21    48  40  18    66  67   1    93 101   2    98  93   1    87  77   9    91  77  20   100  85  21   105  88  15   139 124  36   164 148  61   172 151  87   183 162  99   187 165 102   187 165 103   183 161  99   180 156  95   175 152  88   163 141  73   152 130  62   145 114  48   128  95  28   140 102  29   170 123  36  
  25  28  21    24  27  20    23  24  16    26  26  14    35  31  19    41  35  21    42  34  21    41  32  17    42  34  15    51  40  18    57  45  21    59  45  19    59  45  19    61  45  22    56  44  20    62  48  22    59  43  18    57  41  15    60  44  19    56  41  18    48  36  14    49  38  18    72  63  33    86  76  42    85  74  28    82  70  34    49  35  25    45  37  15    67  69   4    84  92   5    91  89   4    77  68   1    97  83  16   130 112  39   128 109  33   150 129  46   171 154  69   174 153  88   183 161 101   186 165 102   186 165 102   181 160  95   178 154  90   171 148  81   160 137  69   149 126  56   140 112  49   125  95  30   133  96  22   163 115  26  
  24  27  19    22  25  18    23  24  16    27  27  15    34  30  18    40  34  20    43  35  22    41  32  17    43  35  16    52  41  19    57  45  21    59  44  19    58  43  20    61  45  22    56  44  20    60  46  20    60  44  19    59  43  17    58  42  17    55  40  17    51  39  17    50  39  19    47  35  13    56  41  20    77  62  29    78  63  29    55  40  18    50  41  10    68  68   9    73  80  12    75  74  10    71  65   5   102  90  17   142 124  42   143 119  44   158 135  59   180 157  79   181 157  93   185 163 103   189 167 107   189 168 105   183 162  97   178 155  88   169 145  77   157 134  66   147 124  54   127 103  41   119  94  30   126  93  21   153 109  20  
  21  24  16    22  24  17    25  25  17    29  28  18    34  30  17    37  32  17    43  35  22    44  35  20    47  39  21    54  43  22    55  43  20    56  41  18    58  43  20    62  46  22    60  47  22    59  44  18    61  45  20    62  46  20    57  41  16    55  40  16    55  42  19    53  40  19    47  36  17    51  36  17    75  58  28    66  50  15    61  45  16    61  52  16    56  54   5    50  52   4    57  54   4    79  73  15   111 100  24   130 114  31   142 118  43   169 144  71   188 163  90   185 160  98   187 165 105   190 168 109   188 167 106   182 161  97   175 153  85   165 142  73   153 131  61   144 120  51   116  96  33   107  85  24   108  78  12   137  99  14  
  24  24  16    25  25  17    29  26  17    33  31  19    37  34  19    40  37  20    44  37  22    46  37  22    48  39  22    51  40  22    53  41  19    56  41  18    58  44  18    60  44  19    63  47  21    61  45  20    61  45  20    62  46  21    61  45  20    57  41  16    55  39  14    56  40  17    47  36  17    53  41  17    63  48  21    64  47  23    61  43  20    60  46  15    63  54   8    72  67  10    69  59  10    75  66   4   110 101  27   129 115  40   140 123  46   161 142  64   184 163  92   186 162 103   191 169 109   193 171 114   185 164 109   179 160 101   173 155  86   164 144  71   154 131  61   141 116  50   112  97  29    96  80  22    97  75  22   129  97  28  
  27  27  19    28  28  20    33  30  21    38  36  24    42  39  24    44  41  24    42  35  19    44  35  20    47  38  21    50  39  21    52  40  18    55  40  17    56  42  16    58  42  17    58  42  16    60  44  19    62  45  20    62  46  21    61  45  20    59  43  18    56  40  15    54  38  15    49  33  14    50  36  14    55  39  19    61  45  27    54  38  18    59  43  12    86  71  25   100  87  27    82  70  19    66  55   4    87  75  18   125 111  42   140 124  46   147 130  52   178 158  88   186 162 102   195 173 113   195 173 115   185 164 109   179 159 100   173 154  86   162 142  70   150 127  58   134 110  45   110  95  30    95  80  25   105  84  33   123  93  31  
  32  32  24    32  32  24    36  33  24    39  35  24    41  38  23    41  38  21    42  35  19    45  36  19    47  38  21    51  40  22    53  41  19    56  41  18    57  42  19    59  43  18    59  43  17    62  46  21    62  46  21    58  42  17    57  41  16    60  44  19    59  43  18    56  40  17    55  37  14    51  34  14    50  37  21    52  38  24    45  30  10    58  41  11    95  74  29   107  85  28    84  73  17    68  55  12    72  57  17   105  93  32   134 120  42   140 124  47   169 148  80   187 163 101   191 169 109   191 169 112   185 162 108   179 159 100   171 152  84   157 137  66   143 122  53   125 104  39   106  95  33   101  86  31   107  89  38   115  92  35  
  30  31  23    29  29  21    32  29  20    36  32  21    38  35  20    40  34  18    42  35  17    45  36  19    47  39  20    51  40  20    52  39  20    55  40  19    57  42  19    59  43  20    61  45  19    64  48  23    62  46  21    56  40  15    55  39  14    59  43  18    59  43  18    56  40  17    52  34  10    49  33  15    48  34  21    48  34  22    55  40  20    61  45  12    72  51   9    96  74  24    94  81  26    70  55  15    63  49  14    80  67  14   111  99  28   132 115  43   159 139  72   179 155  91   182 161 100   187 164 107   183 159 106   180 157  99   169 147  81   151 131  62   135 117  49   122 102  39   103  91  31   112  96  41   108  90  38   108  88  35  
  25  26  18    25  25  17    30  26  17    36  31  21    41  35  21    42  36  20    42  35  17    44  35  18    46  38  19    49  38  18    50  38  19    54  39  18    55  40  17    58  42  19    58  42  16    61  45  20    62  46  21    60  43  18    58  42  17    59  43  18    58  42  17    54  38  15    51  36  12    47  32  13    49  33  19    49  33  17    64  48  24    80  64  31    73  57  20    66  49  10    95  78  27    86  71  25    71  58  16    72  60  11   102  91  31   120 105  37   146 127  59   172 149  81   178 158  96   182 160 103   179 155 101   177 152  95   166 142  78   145 125  56   130 111  44   117  99  35   100  87  30   117 100  43   113  93  38   108  90  40  
  22  23  15    26  26  18    33  30  21    38  34  23    42  36  22    41  35  19    45  38  20    46  38  20    47  39  20    50  39  19    51  38  19    54  39  18    56  41  19    59  43  20    58  42  16    60  44  19    61  45  20    61  45  20    60  44  19    60  44  19    58  42  17    56  40  17    46  36  11    48  35  16    49  32  17    50  32  12    58  41  12    74  61  26    74  63  30    50  41  12    84  66  17   101  87  34    91  79  27    77  66  20    88  76  25   104  90  27   147 129  58   169 146  77   177 157  94   178 156  99   173 148  94   169 144  87   158 134  70   138 118  49   122 104  38   108  91  29   101  85  29   112  92  34   109  88  31   105  87  36  
  24  24  18    28  28  22    33  32  24    37  33  23    41  33  22    43  34  23    45  37  20    47  39  20    47  39  20    48  37  18    48  36  17    51  37  18    53  40  20    55  39  19    57  42  18    59  44  20    60  44  19    60  42  18    60  43  19    60  45  21    58  43  20    53  40  19    47  35  16    45  32  15    44  30  13    45  31  12    47  33  11    53  40  13    60  51  22    60  52  21    69  54  15    97  84  30    90  78  32    78  65  24    71  56  17    86  70  20   141 125  49   165 146  71   176 153  90   176 152  90   168 143  83   162 136  74   151 127  63   131 111  46   113  95  31   103  87  27   107  89  27   104  85  26   102  84  30    94  76  28  
  21  22  15    23  24  14    29  29  18    37  33  21    42  35  22    44  34  22    43  34  17    45  36  19    46  38  19    46  35  17    46  35  15    48  35  16    49  36  17    51  36  17    58  43  20    58  43  20    58  42  17    59  41  17    61  43  19    61  45  22    56  41  20    49  36  17    48  35  18    46  33  16    45  32  16    44  31  14    41  28   9    42  30   8    51  42  16    61  51  24    66  53  19    82  72  21    74  61  21    73  59  24    72  56  19    84  67  21   132 115  40   158 140  64   170 146  84   174 149  85   169 144  80   158 133  67   146 122  58   127 106  43   112  94  32   108  92  32   118  98  35   110  90  29   112  87  32   109  82  32  
  29  31  18    29  31  17    32  33  17    38  37  19    42  38  19    44  37  19    43  34  17    45  36  19    46  38  19    48  37  19    47  36  18    49  36  17    50  37  18    52  37  18    58  43  19    57  42  19    57  41  16    58  41  15    60  42  18    60  44  21    55  40  19    50  35  14    48  33  11    50  35  14    47  34  17    43  32  14    39  28  10    39  28  10    42  33  13    47  39  17    69  58  28    73  64  22    59  49  13    60  47  16    69  54  19    90  75  25   135 117  43   160 140  67   163 139  77   168 144  80   165 140  76   154 129  63   139 114  51   119  97  34   108  88  27   110  91  32   127 105  40   131 106  42   137 104  43   140 100  40  
  24  26  16    30  29  18    36  33  21    37  34  20    39  35  19    41  36  20    45  36  19    45  36  19    45  36  19    46  35  17    46  35  17    48  35  17    49  36  17    53  38  19    54  40  17    56  41  18    58  42  17    60  43  17    60  43  17    60  42  18    56  40  17    53  38  17    48  32   7    48  33  11    45  32  12    42  30  13    42  30  13    41  29  13    41  29  11    45  32  14    73  59  28    77  67  29    65  53  21    55  43  15    65  51  15    97  80  24   137 118  46   159 137  64   161 137  75   164 140  76   161 136  70   153 128  62   137 112  48   117  93  30   107  86  26   114  95  35   123  98  34   144 112  47   156 114  50   156 107  43  
  26  24  17    34  29  20    39  33  23    39  33  21    42  35  22    45  38  25    46  37  20    44  35  18    43  34  17    44  33  16    44  33  15    46  33  16    49  36  18    54  39  20    54  42  20    58  43  20    61  45  20    64  47  21    63  45  19    59  41  16    56  39  15    55  39  16    51  35  11    52  37  15    47  35  13    42  30  12    42  29  10    43  28   9    51  33  12    64  43  23    81  61  24    85  67  31    76  62  25    62  48  20    69  55  16   101  85  22   136 116  44   160 135  62   165 142  78   166 142  78   161 136  70   151 126  60   138 113  47   119  95  31   111  89  28   119  98  38   124  98  36   139 107  43   150 108  44   156 107  43  
  38  32  20    43  34  21    45  34  20    45  35  19    44  36  17    45  37  18    46  37  21    44  35  18    44  35  18    46  34  18    45  34  16    47  34  17    49  36  19    54  38  21    53  41  19    56  41  18    59  43  18    64  47  21    67  47  22    62  43  18    55  38  14    54  36  13    52  35  16    54  37  18    49  35  15    46  32  12    48  32  10    51  31   6    70  42  15    94  63  37   101  72  27    97  70  31    82  63  21    65  47  16    78  61  18   116 101  28   146 125  52   167 141  67   154 133  68   166 142  78   164 139  73   150 125  60   137 112  46   124 100  36   117  94  32   118  96  36   129 103  43   131 100  39   135  98  39   142  99  39  
  46  39  21    49  39  19    59  48  26    70  57  34    62  52  26    47  39  12    42  33  18    42  33  18    43  34  17    47  35  19    46  35  17    45  32  15    46  33  16    51  35  19    51  39  17    51  36  13    54  38  13    64  44  19    70  50  25    67  47  22    59  41  17    54  36  12    49  32  16    50  33  15    47  32  13    51  36  13    59  42  16    66  42  12    87  54  23   113  77  44   118  83  32   110  78  37    90  67  21    64  44  11    84  67  19   133 118  40   154 132  57   158 132  57   130 109  44   158 135  68   168 143  77   156 129  63   146 118  53   140 115  51   133 108  46   124 102  42   123  97  38   123  94  38   125  92  38   124  89  34  
