P3
50 50
255
 186 180 121   148 145  68   102 109  44    98 112  36   122 146  68   128 151  83   109 115  47   139 125  48   199 180 105   206 191 131   136 123  76    70  57  20    44  36  12    71  63  46   105  94  66   142 124  77   157 128  77   139 103  60   132  96  43   112  71  30   131  88  42   130  87  46   116  79  36   148 126  82    87  78  60    38  38  27    33  36  29    30  33  26    28  29  24    27  27  24    30  31  26    34  35  29    36  37  29    35  36  28    36  35  32    32  29  22    44  41  27    83  80  63    55  52  35    37  35  20    34  35  19    40  43  24    31  38  16    41  39  15    45  38  20    49  42  32    73  71  13   164 164   9   201 202  14   163 162  22  
 201 198 135   126 125  50    60  70  23    74  89  22   108 131  54   123 146  75   127 143  68   107 112  24   154 144  59   196 177 111   211 199 136   175 165 100    78  69  16    57  47  11    67  55  28    79  61  30   112  90  59    91  62  38    84  59  26    92  67  35    90  59  26    97  62  28    92  57  21   109  81  48    87  72  50    46  43  26    35  36  27    30  31  25    26  27  22    26  27  22    30  30  25    33  34  28    35  36  28    35  37  26    33  33  26    33  33  22    31  29  16    65  62  47    63  60  43    39  37  21    36  36  21    36  37  21    39  42  28    37  36  22    44  39  29    43  36  27    75  68  21   146 146  31   154 152  22    99  91   4  
 186 188 110   121 123  45    70  84  32    67  83  19   120 142  67   128 152  74   133 159  77   126 144  62   134 130  56   176 153  91   199 188 111   160 148  79    83  72  16    79  66  24    65  51  23    53  36  19   107  91  73   110  94  71    64  52  40    68  56  34    65  48  28    89  62  33   103  69  39   101  68  46    90  72  44    57  50  30    38  39  31    33  33  27    28  29  24    27  28  23    29  30  25    31  32  26    33  34  26    33  35  24    33  35  22    35  35  23    33  31  18    46  43  28    51  48  31    43  40  23    36  34  19    39  40  25    44  42  28    37  39  20    49  50  27    57  51  26    75  67  31    86  84  27    94  90  27    97  85  35  
 104 116  49   103 115  47   121 137  58    98 119  41   139 162  85   162 178 103   155 170  95   147 164  88   137 145  69   142 137  61   158 150  70   130 115  55    80  63  19    67  51  16    57  44  17    48  35  19    99  85  67   107  89  65    56  54  47    52  49  35    51  43  28    73  54  34    76  45  24    76  44  24    93  73  46    84  76  48    43  43  32    32  31  23    29  28  23    26  26  23    26  26  23    31  33  28    30  34  25    29  34  22    34  35  25    33  33  23    33  31  18    38  35  20    41  40  22    40  38  21    37  36  19    41  40  25    43  44  22    43  43  22    41  41  19    61  55  28    74  66  32    71  63  21   103  94  48   112  98  52  
  42  56   4    60  74  23   121 140  60   125 147  72   153 169  99   187 189 124   179 180 116   160 172 100   142 159  79   149 160  78   110 107  32    92  82  23    83  64  24    60  41  11    61  47  21    55  44  22    66  54  30   102  87  61    71  66  52    44  41  24    52  44  27    58  42  26    62  35  20    56  29  11    77  56  37    85  73  50    48  48  36    33  33  23    32  31  26    33  32  30    33  33  31    33  34  29    28  31  22    29  32  21    32  32  24    33  33  23    37  34  22    40  38  23    41  40  22    40  39  21    39  38  20    40  38  23    38  38  17    40  39  21    40  37  18    57  51  27    69  63  27    94  84  41   125 113  70    91  79  38  
  41  53  18    37  52  11    90 109  46   145 163  97   175 183 120   200 195 139   191 187 126   164 174 100   146 168  85   139 163  79   133 141  64    87  83  24    70  53  15    54  32   8    66  50  24    66  57  28    53  47  22   101  94  76   105  93  71    76  67  44    68  61  40    56  45  28    53  36  22    53  31  20    66  47  35    65  47  35    52  53  39    39  39  29    33  34  28    32  34  29    34  35  30    36  35  30    35  35  25    35  35  23    33  33  23    37  37  25    43  41  28    42  40  25    40  39  21    39  38  20    38  36  21    37  34  19    38  34  20    37  34  19    44  39  21    71  65  39    80  77  40   104  99  59   111 103  68    68  59  32  
  44  54  29    36  50  11    70  81  28   157 167 105   200 203 141   196 195 137   171 173 108   163 174  95   153 172  87   133 157  75   141 158  73   127 131  64    74  63  18    58  40  10    68  56  25    62  58  27    49  48  27    51  50  37    90  74  49   100  85  62    72  63  43    59  52  34    48  39  25    49  36  22    73  56  42    64  44  29    47  46  32    41  41  29    34  35  26    31  32  26    36  36  31    43  42  36    43  40  30    39  35  23    39  39  28    42  42  30    44  42  27    41  40  22    39  38  20    38  37  19    36  34  19    33  30  15    38  32  20    34  28  16    42  36  18    78  74  46    80  79  42    79  78  41    70  66  39    48  42  25  
  73  82  50    43  53  24    64  70  22   146 148  88   193 195 129   176 181 120   155 163  97   175 185 105   134 147  65   130 149  75   132 156  67   120 129  59    70  66  11    77  69  22    70  65  25    49  49  23    39  41  24    33  36  17    61  47  17    77  62  36    64  51  31    60  50  35    62  54  40    53  44  27    80  65  45    84  63  42    54  49  33    47  43  30    36  34  25    38  38  31    44  45  39    45  45  36    44  41  30    44  38  25    43  43  30    42  43  29    42  40  25    39  38  20    39  38  20    40  39  21    39  37  22    35  33  19    42  37  24    38  33  21    41  36  21    62  60  36    59  59  27    71  71  39    71  70  46    35  33  16  
  66  73  38    44  50  28    70  82  37   144 145  86   192 190 126   181 183 128   183 185 128   176 180 108    83  93  22    71  91  33   112 134  56   100 111  48    90  94  35   115 120  55    66  72  21    33  39  15    38  42  21    50  55  14    70  66  20    65  57  18    68  52  28    65  50  35    75  66  53    69  60  44    80  66  48    78  59  38    72  60  46    56  47  35    37  33  22    39  39  31    45  46  39    40  41  31    44  42  29    50  46  31    43  44  30    41  42  26    40  39  22    40  39  21    41  40  22    41  40  22    41  39  24    41  39  26    42  43  23    40  39  24    36  33  20    40  38  19    39  39  11    66  67  36    89  89  62    40  39  17  
  47  50  25    42  46  23    47  67  27   138 142  86   206 199 143   206 198 154   220 214 169   156 151  94    63  71  13    22  47   5    44  64   5    75  85  34    87  97  37   138 152  74    90 106  44    36  46  21    36  43  11    66  73   7    73  79  14    75  71  19    79  64  32    69  52  34    61  49  37    73  63  52    76  62  49    56  37  21    78  62  49    64  52  40    41  35  24    38  38  30    44  45  37    40  42  31    43  44  30    46  44  29    43  44  30    42  43  27    44  43  24    44  44  24    43  42  22    40  39  21    41  39  24    45  43  30    44  48  26    41  42  24    31  31  19    37  37  21    41  40  19    49  50  19    88  87  58    65  64  37  
  56  60  28    44  47  25    36  41  20   133 130  77   224 207 158   221 206 163   175 180 109   105 124  46    59  72  26    42  48  18    38  47  18    41  49  26    49  54  27   106 115  59   121 132  66    55  60  29    37  42  22    46  56   8    62  77   9    82  78  30    86  66  38    77  57  39    61  54  35    56  58  37    65  59  47    59  42  39    53  35  23    55  43  32    56  51  39    42  42  30    38  41  30    42  45  34    38  39  26    42  40  28    46  43  28    43  40  25    45  42  27    46  43  28    42  39  22    44  41  24    47  44  27    45  44  24    50  43  25    50  44  28    38  35  20    43  40  24    50  47  27    56  52  24   110 106  72   112 107  68  
  62  79  41    50  63  36    45  51  26    86  81  42   193 179 120   170 160  88   103 107  36    96 115  51    65  85  36    46  62  30    51  60  28    40  45  21    48  52  25    62  69  26    70  77  35    56  59  35    33  38  19    34  43  14    53  62   9    73  71  28    75  63  28    70  54  27    68  59  35    64  56  38    63  54  40    75  61  52    60  48  37    48  39  29    40  36  25    39  39  29    41  44  33    44  46  33    45  45  30    47  45  31    51  48  32    48  45  29    48  45  28    49  46  29    46  43  25    45  42  23    45  44  24    44  43  23    47  42  28    46  43  29    44  42  25    48  46  25    54  54  24    71  69  29   137 133  86   126 121  68  
  56  81  34    61  84  48    59  74  30    57  59  20   106 100  26   136 133  25    97 103  10    98 116  43   109 133  68    79 102  53    67  78  33    54  61  31    50  54  28    54  59  29    44  47  28    48  50  35    42  47  32    34  40  30    50  52  21    63  66  29    67  67  27    64  57  22    78  65  40    82  66  50    69  55  42    71  61  46    61  55  46    46  43  33    29  28  20    34  35  26    43  45  34    43  44  31    48  46  30    48  45  27    54  52  34    49  47  28    46  45  26    48  47  28    47  46  26    45  44  24    42  41  21    40  39  19    36  36  23    38  38  24    31  33  15    44  45  21    68  67  35   104 101  60   118 113  63    99  93  38  
  56  78  22    64  85  36    61  88  28    73  87  38    94 100  23   135 142  25   117 127  12   110 125  33   128 146  70   119 139  71    90 102  40    63  70  37    56  60  35    60  63  33    32  35  16    40  43  32    36  42  29    34  41  35    45  43  28    41  46  20    56  65  27    66  67  29    78  66  40    92  74  58    76  62  47    51  45  26    48  48  40    50  52  43    34  37  28    33  35  27    44  46  35    46  47  33    49  48  30    49  46  27    50  50  31    49  49  31    48  49  30    47  46  28    43  42  23    39  38  20    37  36  18    39  38  19    35  37  23    38  40  26    41  44  26    46  48  28    59  59  33   116 112  82   110 103  69    85  77  38  
  77  92  24    77  95  28    70  94  36    81  99  38    87 100  30   109 119  29   121 132  26   135 146  54   141 151  80   129 141  73   112 126  50    84  92  46    60  65  30    87  92  52    45  51  15    29  35  10    36  42  25    46  54  39    42  43  34    34  41  22    39  49  20    51  55  25    65  59  35    76  64  46    67  58  40    55  52  34    39  41  31    54  57  48    48  51  42    40  43  34    48  49  39    49  52  37    50  51  34    51  51  33    52  55  38    52  54  37    48  49  33    46  47  31    50  51  35    55  53  38    51  49  36    48  46  33    45  47  33    53  55  41    76  78  63    73  76  59    55  56  37    75  72  52    95  88  68    90  82  62  
 111 126  45   119 134  50   102 112  45   108 120  39    93 108  27    90 104  29    92 105  27    99 113  33   139 151  79   142 154  87   122 136  59    93 104  37    62  70  18    89  95  47    60  70  14    58  69  17    50  59  27    49  58  36    43  49  35    26  34  20    28  36  22    42  49  32    48  51  30    71  69  48    93  91  74    83  82  67    44  50  37    49  52  41    54  57  48    54  57  48    55  58  47    57  61  47    57  61  46    61  65  48    54  56  42    54  56  42    44  46  32    40  41  27    50  50  38    62  60  48    57  55  44    49  47  35    38  37  26    43  43  31    55  56  43    56  59  42    53  56  36    45  44  24    46  43  24    61  56  36  
  89 103  21   120 137  47   107 107  25    96 103  13    97 110  20    93 108  33    86 100  35    83  99  26   114 128  52   137 150  80   128 140  64    92 104  30    61  70  13    83  92  40    66  79  14    67  79  18    56  66  27    63  71  48    58  69  49    48  56  39    38  45  34    41  47  38    38  46  28    50  58  39    71  75  58    61  62  45    51  55  38    44  47  29    40  41  30    43  44  34    39  41  26    39  41  24    38  42  25    39  44  25    42  47  26    47  51  31    39  42  25    26  27  14    27  27  18    35  32  24    36  33  22    34  31  19    35  33  21    32  32  18    29  30  15    34  36  17    58  61  37    86  86  59    77  76  46    76  75  42  
 100 112  36   140 151  63   120 127  36    80  85  15    74  82  19    86  97  31    83  96  33    70  83  25    80  93  31   121 133  66   123 134  58    77  85  37    42  49  22    55  66  32    57  70  25    49  60  19    39  47  17    52  58  34    69  82  42    71  80  40    61  67  39    48  55  35    31  43  20    31  42  27    60  65  49    83  86  50    94  95  60   101 103  63    62  61  35    47  44  26    57  55  24    73  71  37    73  71  43    60  58  27    49  54  23    49  54  26    39  43  19    28  30  13    28  29  18    35  33  23    38  35  21    40  36  20    35  37  17    40  39  21    41  40  23    41  40  21    46  44  20    78  76  44   106 104  64    94  93  47  
  74  85  23    94 105  34    88  97  24    85  94  30    73  81  33    64  75  27    66  79  25    55  64  25    47  54  24    66  73  33    59  61  29    43  45  23    39  43  24    41  50  21    40  52  17    40  54  16    41  56   6    73  91  24   118 132  59   116 126  63   122 125  76   107 113  64    63  73  25    34  40  15    64  63  41   119 115  68   113 114  58   112 114  49   102 103  51    66  64  30    74  71  30    92  90  45    80  77  34    66  64  14    53  51  23    48  45  20    39  38  16    32  30  13    29  28  15    32  31  18    33  32  20    32  32  18    34  35  19    40  39  23    47  45  30    47  46  28    41  39  17    57  56  27    91  90  55   101 100  60  
  50  57  21    55  62  26    51  59  19    44  53  21    33  39  22    27  36  20    30  39  15    42  47  24    60  66  30    74  83  19    66  69  22    78  85  30   105 116  47    81  98  24    61  76  19    51  66  27    42  59  13    53  73  10    90 108  20   105 117  36   111 119  53   146 155  92   114 125  67    41  48  15    66  64  43   117 113  67   117 117  63    99 100  39   111 110  56    98  95  51    80  76  28    97  93  47    94  88  37    83  81   6    78  75  15    72  67  10    62  59  10    48  43  13    34  29  17    31  28  21    31  33  19    28  34   9    38  37  22    44  42  29    48  46  33    40  38  23    47  46  28    53  51  27    51  51  22    78  77  46  
  38  44  17    42  47  22    43  49  22    37  44  25    41  49  22    42  51  16    39  47  21    62  69  36    93 101  41    96 108  23    90  98  22    82  88  26    93 100  43    91 101  41    64  75  19    55  68  22    41  57  12    43  61   6    48  70   1    69  88   9    67  82  14    73  88  34    67  84  37    33  46  17    40  45  28    80  79  52   121 120  74   105 104  59    74  70  33   110 107  64    82  77  33    60  51  21    68  59  25    87  83  17    93  89   1    98  95   1    99  95   4    79  73   9    49  42  12    34  30  19    32  34  20    28  37  11    41  39  24    37  35  20    40  39  23    33  31  16    37  37  19    43  42  22    38  38  14    51  49  27  
  39  42  22    48  52  29    56  60  23    57  61  27    69  78  27    83  95  28    87  98  40    83  92  39    80  89  28    86  92  27    88  96  21    88  94  29    92  97  37   115 119  59    75  81  28    67  74  32    67  77  34    73  86  31    54  74  17    52  70   6    55  69  13    49  66  20    45  66  22    41  60  32    33  45  28    40  46  22    85  87  44    98 100  57    85  83  47    88  84  47   107 103  60    70  63  35    47  36  18    63  54  20    95  87  11   105  98   9   113 106   9   102  95  11    75  69  11    47  44  13    32  33  17    29  32  18    33  32  13    39  38  19    36  35  17    37  36  17    37  36  17    33  32  12    36  35  15    35  34  15  
  59  61  28    62  65  29    60  59  22    51  51  21    47  49  19    60  66  19    96 106  43   104 113  54    74  81  29    68  72  18    85  90  29    92  96  39    90  93  33   110 111  48    90  92  36    73  75  31    96 101  57    95 104  48    76  90  39    60  70  18    54  64  15    59  73  21    54  74  23    36  55  26    35  47  29    57  67  32    64  66  36    91  94  49   108 110  68    57  56  21    97  96  47   114 112  62    72  65  33    60  50  28    95  81  30    89  76  19    89  75  11    96  84  16    92  83  20    65  62  14    39  39  12    30  32  20    32  31  11    38  37  17    33  32  12    39  38  17    46  45  25    40  41  20    36  36  18    33  33  15  
  58  57  21    52  51  22    57  56  15    54  54  23    44  44  17    43  49   7    64  73  14    69  78  21    57  65  15    58  65  13    85  87  29    83  84  29    80  78  34    88  89  42    87  90  38    50  53  14    70  76  36    79  92  31    83  88  27    60  67  16    52  66   8    49  67  15    48  69  20    48  67  26    40  52  25    74  85  44    82  85  47    81  84  39   105 109  61    57  57  25    73  73  23   106 104  52    94  88  39    76  63  33    91  76  40    73  60  27    53  45   4    70  60  23    82  73  27    77  71  16    50  47  15    30  29  10    30  30  18    35  34  20    32  33  14    36  36  12    46  46  22    48  48  24    40  39  18    35  32  13  
  57  64  16    53  58  21    45  49   1    56  61  18    51  55  22    44  48  19    59  65  29    48  57   9    62  73  17    61  72  12    61  63  12    69  71  21    75  76  36    93  94  50   100 104  53    67  73  32    58  66  27    84  98  39    94 101  26    71  80  23    63  81  21    55  76  20    50  72  25    54  71  34    44  53  31    68  76  41   100  99  55    91  90  48    89  88  42    81  80  39    69  67  16    75  72  22   101  98  49    77  72  35    73  60  26    53  45  17    36  33   1    43  37  12    61  53  16    79  73  20    57  52  21    33  32  16    28  28  18    31  32  18    33  34  16    38  38  14    44  44  18    51  49  24    46  44  23    39  34  14  
  44  56   7    49  65  18    47  55  14    53  62  12    61  69  21    48  55  19    48  55  23    46  54  13    55  67  20    51  63  18    41  48  11    56  60  24    60  63  26    73  76  33   107 114  60    90  98  51    45  56  14    63  76  24    89 103  30    68  82  30    70  88  34    53  77  20    46  69  17    42  57  23    35  43  19    53  60  18    97  98  54    86  84  43    74  69  31    90  83  31    74  68  13    79  78  22    75  75  32    76  81  37    82  75  38    40  37  12    23  22   3    24  20   9    44  37   9    72  66  19    49  44  15    30  25  15    28  28  16    28  29  15    37  36  16    41  41  17    43  41  16    50  48  23    52  50  27    42  40  19  
  51  60  19    53  67  16    51  63  20    50  63   9    61  73  10    65  76  17    47  56   8    47  58  15    49  61  20    47  61  19    27  37   9    40  47  18    63  68  35    71  76  34    94 100  49    90  97  46    71  82  38    70  82  42    74  90  38    50  68  21    48  67  21    41  63  16    56  76  29    59  74  30    58  69  26    61  69  22    85  96  48    78  83  42    65  61  27   114 109  49    92  83  28    84  78  22    66  62  24    64  65  21    76  71  33    37  35   9    21  21  11    19  16  12    32  26   6    68  61  23    65  58  29    29  22  12    31  28  15    35  33  17    40  38  18    42  40  19    44  42  19    48  46  23    49  47  24    46  44  22  
  62  65  24    65  75  15    58  74  18    54  67  12    60  72   9    78  89  19    71  82  19    52  62  15    49  62  17    61  78  26    34  48  16    34  44  15    57  62  30    87  89  50    86  88  43    87  92  41    80  88  42    58  67  39    61  79  34    72  95  37    59  81  31    32  53  13    38  56  19    53  69  25    62  75  27    47  55  21    59  77  29    87  99  56    67  69  33   102  99  46    98  89  39    97  86  34    85  75  35    68  59  18    87  78  38    48  45  11    25  24  12    23  22  16    27  21   6    52  45  14    75  70  34    37  31  10    33  31  15    41  39  22    42  39  20    41  39  18    45  43  21    46  44  21    45  43  20    48  46  23  
  51  53   6    69  77  19    59  76  21    53  66  13    65  75  18    78  85  21    85  92  26    69  79  22    47  57   7    53  67  19    42  60  17    40  52  18    44  48  16    78  76  44    79  76  42    82  85  35    64  70  24    39  44  25    62  80  35    78 102  39    50  73  23    38  59  19    37  55  19    34  51  12    48  63  18    42  52  25    73  85  39    99 108  66    71  76  37    80  79  43    99  93  50    96  87  39   102  91  44    82  68  28    98  84  42    73  68  23    40  39  18    25  24  12    23  17   5    42  35  10    82  77  32    56  52  13    35  32  14    41  38  19    41  38  19    40  38  18    43  41  20    44  42  19    45  43  20    48  46  23  
  52  58  13    60  69  22    65  81  19    64  77  21    57  62  20    54  54  21    42  42   3    64  72  15    64  76  13    56  69  14    44  64  11    32  44   4    37  41   8    52  48  19    56  51  22    75  75  27    71  74  29    33  35  21    64  83  42    79 102  49    39  59  21    49  70  29    49  70  27    34  52  14    48  66  17    48  65  24    72  72  28    96  97  59    79  81  41    70  69  47   101 101  61    78  75  32    85  79  25    85  73  33    78  60  17    82  72  20    64  61  31    43  40  23    31  23  12    32  24   3    78  75  22    82  81  28    38  33  14    37  32  13    40  37  18    43  40  21    40  38  17    44  42  21    49  47  24    48  46  21  
  80  93  12    66  77   9    58  79  11    62  80  27    47  65  20    15  31   5    22  36  11    19  33   1    39  51  11    85 104  13    74  86  18    41  48   4    39  43  15    42  45  13    59  63  29    72  76  37    60  64  26    35  36  20    51  67  37    89 109  51    65  84  30    57  75  24    71  92  32    64  81  25    69  86  31    45  61  10    46  48  11    87  99  34    86  97  53    59  63  36    94  90  61    94  83  52    86  78  31    86  80  28    53  55   9    54  52  15    68  63  30    68  60  23    63  52  19    47  36  12    50  39  19    71  62  35    42  39  23    33  30  13    40  37  20    45  42  23    46  44  23    49  47  25    47  45  22    50  48  25  
  75  88   3    70  82   7    73  93  13    62  82  18    44  61  13    20  36   7    24  38  11    17  28   6    21  28  13    45  55  11    80  93  11    70  82   8    37  44   4    38  44   5    48  53  15    66  70  33    77  85  27    55  60  12    42  62  13    64  85  34    57  77  31    41  58  25    58  79  22    71  95  18    78  99  34    59  81  12    50  56  13    89 101  41    85 100  49    61  69  36    88  85  54   112 105  67    87  79  33    93  89  32    43  43   8    44  39  19    50  44  27    54  45  14    79  70  30    82  73  38    60  51  22    44  38   9    38  36  15    43  41  20    38  35  15    42  40  18    50  48  24    49  47  23    53  51  25    55  53  28  
  59  71   1    70  83   4    81 101   5    69  89  11    51  66  16    28  42  10    27  39   4    25  35   7    25  30  17    30  36  12    52  61   1    69  79  10    38  44   8    41  46  16    44  49  13    56  60  24    85  93  28    85  93  15    74  95  16    69  89  16    31  45   8    28  39  20    36  51  13    63  81  23    77  96  36    77  96  35    63  72  22    79  92  39    93 111  53    78  88  48    92  93  56   119 115  70    86  81  35   100  99  38    54  53  19    27  22   9    35  26  24    37  28  15    52  45  17    79  73  39    85  80  45    69  64  25    49  48  22    47  45  20    46  45  19    51  49  23    57  55  29    60  58  32    59  58  30    57  56  28  
  45  56   1    66  79   1    93 115   1    81 100   3    58  72  13    38  51  15    35  47   2    35  47   1    33  40   6    31  37   3    46  50   6    54  60  10    42  49   6    34  38  14    44  48  19    54  58  23    74  77  32    83  90  16    93 107   4    93 108   3    46  53   1    35  38  10    32  37  10    39  46  15    72  81  34    86  97  42    76  86  34    61  74  28    88 105  45    93 105  57   100 103  61   127 123  76    95  91  46   100 100  38    59  59  21    26  23   4    33  28  21    31  25  17    32  26  12    46  40  22    65  60  31    78  75  31    68  67  37    51  50  21    51  50  21    53  52  23    56  55  25    60  59  31    54  53  25    51  50  22  
  46  58   5    71  84   5   105 124   1    85 104   1    47  59   1    35  47   5    39  51   3    40  50   1    35  43   1    39  44   4    47  47  11    43  44  11    47  56   4    30  38   2    47  54  16    69  76  24    76  77  34    79  82  11    87  91   5    99 107   1   110 120   4    91  99  12    73  80  14    61  66  13    46  51  15    74  80  31    72  80  30    56  67  25    74  91  35    98 112  53    92  93  49   127 122  80   111 106  58   103 102  44    60  59  27    31  29   6    34  33  14    31  29  10    37  36  17    38  34  22    38  32  17    52  48  20    70  67  36    65  61  32    50  46  17    50  46  17    56  52  25    54  51  24    57  53  26    59  55  30  
  51  64  11    72  81  31    85  96   8    83  96   2    45  54   2    31  39   3    35  44   1    36  44   1    33  40   1    46  51  11    46  43   9    41  41  16    47  53  10    43  50  10    47  55  13    69  77  18    80  84  23    80  82   9    76  79  14    96 108   1   116 133   1   113 129  14    86  99  12    57  67   7    35  42  11    41  50  13    73  79  33    75  83  44    80  94  46    99 111  49    89  88  41   111 103  68   116 108  59    99  93  42    75  72  38    29  27   6    33  31  17    30  32   9    36  39  12    45  45  26    44  41  26    47  42  23    59  56  25    72  68  39    69  65  36    60  56  29    54  50  23    49  45  20    54  50  25    57  52  29  
  51  63  17    70  76  48    48  52  10    63  68  16    47  53  18    34  40   7    35  43   2    38  44   3    41  46   3    51  54  15    47  46   7    38  39   9    34  39   5    48  55  18    46  53  18    57  63  18    80  86  28    78  81  24    80  88  15    89 104   6    91 111  10    64  83   7    48  66  10    33  49  12    38  53  16    37  52  13    53  57  20    57  66  28    58  68  26    84  92  36    88  87  43   101  91  60   126 118  68   110 102  51    82  81  38    33  31  10    38  38  28    35  40  19    32  37  10    42  45  20    46  45  23    51  46  24    44  40  15    58  54  29    81  77  45    77  74  41    54  51  24    51  47  26    51  47  25    51  46  26  
  54  65  25    89  98  57    56  59  32    31  32  17    34  39  12    30  38   1    35  41   4    32  36   4    39  41   5    41  40   7    34  33   6    35  35   3    39  40   6    47  51  17    50  54  21    45  51  14    73  82  35    75  85  30    81  84  30    72  82  22    65  84  28    44  67  27    39  64  29    36  60  17    34  53   9    38  52  17    45  55  23    49  60  25    40  49  11    64  69  31    67  67  32    83  78  43   122 112  70   122 111  61    91  91  44    39  39  11    38  41  22    38  46  17    28  36   3    37  41  15    43  42  20    53  49  23    50  45  28    47  41  27    64  61  27    84  83  37    65  65  30    48  46  25    47  45  24    47  44  25  
  50  66  22    84  99  50    60  68  33    32  36  22    28  34  16    38  48  13    35  42   8    26  31   1    25  26   1    31  29   4    29  29   4    46  48  13    59  60  20    39  44   5    39  44  13    47  52  22    57  65  24    79  89  37    88  89  47    76  83  36    65  80  35    47  66  29    44  66  31    28  49   8    33  51   8    34  48  12    41  54  21    51  64  31    37  47  16    33  39   9    53  56  23    71  69  30    96  90  49   120 110  71    98  97  49    61  61  27    35  38  13    29  34   5    27  33   2    29  31   8    36  36  15    47  44  20    49  45  22    48  42  26    48  43  20    67  67  24    79  81  34    53  53  22    54  52  30    58  57  27  
  36  54   5    62  80  21    75  87  42    48  55  39    30  38  24    41  51  23    33  42  13    24  29   1    28  28   1    32  29  11    30  32   9    33  35  10    39  42  11    25  31   1    42  49   9    56  63  20    49  58  12    77  87  37    98 103  63    87  94  53    57  69  29    43  59  22    47  65  31    30  48  11    29  45   9    23  37   4    34  48  13    53  67  34    46  58  32    28  35  12    40  45  13    91  94  51    99  95  56   104  96  68   115 113  64   108 106  65    66  67  33    31  34   5    33  36  11    39  41  19    43  42  22    47  44  23    51  46  23    57  52  30    50  47  28    49  49  15    80  83  29    72  74  28    50  49  19    66  66  28  
  50  67   9    79  96  25    74  84  30    46  54  30    39  45  32    35  43  19    33  38  15    30  34   8    34  37   8    38  37  19    39  41  16    48  52  21    53  59  23    44  51   9    40  48   6    43  52   8    40  48   5    56  65  23    86  94  46    78  85  42    53  61  20    61  73  32    52  66  29    38  51  21    30  43  17    25  37  13    29  43   8    42  56  19    43  56  25    29  38  17    43  50  19    98 101  58    83  82  42    63  55  32   123 119  72   128 124  79    95  93  53    41  40  10    36  35  14    48  47  26    44  43  22    50  49  28    52  49  31    58  57  26    55  54  26    43  41  16    64  66  20    89  92  35    60  63  17    54  57  17  
  59  72   6    90 101  24    73  80  19    45  47  16    47  49  27    36  41  16    28  32  12    32  36  14    29  33   3    41  44  17    43  50  14    53  62  13    59  69  11    64  74  18    44  52  10    28  34   4    29  36   6    40  47  14    54  62  11    57  64  21    55  62  18    78  86  38    59  69  25    41  52  20    33  45  19    34  48  20    34  47  12    33  48   2    48  60  17    32  40  14    37  43  15    93  96  54   104 102  60    67  60  33    98  90  48   135 129  80    97  91  48    46  41  13    46  42  23    48  46  25    45  45  20    46  47  22    49  46  29    54  53  19    58  58  23    54  53  26    45  45  10    71  76  23    76  81  27    53  55  14  
  67  75   5    83  87   8    91  92  28    64  62  24    46  46  15    49  53  22    29  32  15    26  29  11    33  39   6    54  59  22    59  68  26    52  62  12    45  56   1    66  77  19    59  69  20    45  53  15    38  45  13    37  44  13    42  52   5    65  72  33    64  70  27    67  74  21    67  75  23    53  62  24    38  50  17    42  58  18    44  55  21    49  63   9    54  68  13    48  56  23    33  36  12    65  66  26    95  92  48    98  92  60   113 103  66   125 118  70   106 100  53    64  57  29    47  41  24    47  45  22    47  47  18    47  50  22    56  54  33    51  49  22    60  60  22    62  62  26    44  45  16    50  52  13    76  80  28    61  65  17  
  74  86   1    71  81   1    82  76  33    61  61  23    46  47  11    55  53  23    46  43  21    36  39  15    56  62  27    64  65  23    53  67   9    66  80  22    58  72  16    51  64  10    56  69  16    60  73  25    52  64  22    52  63  23    48  60  17    64  76  27    79  92  36    82  94  38    68  78  29    49  60  15    43  54  14    47  58  18    55  66  16    63  74  11    72  86   5    81  92  10    61  67  12    55  56  17    88  87  50    88  86  52   132 128  80   126 123  72    82  78  37    58  54  31    41  36  18    40  40  11    46  49  14    46  49  18    48  50  24    45  45  19    54  53  20    61  59  24    58  55  21    53  52  13    65  68  20    81  84  34  
  86  95   4    55  66   1    52  49  14    42  44   6    50  52  14    55  54  21    70  70  40    59  65  31    51  60  18    72  78  28    74  86  29    75  88  26    96 110  41   107 120  52    71  83  23    34  43   3    36  44   9    47  53  28    63  78  10    54  68   7    66  80  18    89 104  36    92 104  40    67  77  27    49  57  16    48  57  14    45  55   8    64  73  15    74  88   1    98 116   1   106 119  17    57  62   4    61  62  26    67  68  27   131 129  78   127 127  75    53  51  10    43  41  16    47  46  25    42  45  14    46  52  17    41  45  18    36  40  15    45  47  22    51  51  26    52  50  24    56  55  24    54  54  17    56  59  16    80  85  37  
  85  89   7    45  51   2    58  66  23    57  62  18    69  75  28    63  72  28    64  75  34    56  64  23    52  62  11    61  76  16    96 106  39    86  98  18    73  86   1    96 108  24    77  88  21    40  48   2    51  58  22    46  52  19    66  79  13    78  90  27    57  68   8    55  66   6    90 100  38    78  88  27    43  51   1    46  52  13    42  46  19    53  63   4    64  77   1    87 102   6    98 114   5    83  94   6    62  66  14    81  81  42   130 129  81   127 127  73    87  89  40    51  53  18    42  46  16    46  51  19    49  56  25    40  45  24    40  48  14    38  45  14    40  44  18    38  41  16    44  47  18    58  62  25    64  72  24    67  75  23  
  88  89  23    66  65  23    47  59   9    72  76  24    61  68  13    55  69  13    74  91  37    77  87  35    89  99  40    89 110  41   108 123  36   100 116  22    78  96   1    65  81   2    50  64   1    48  61  12    64  79  24    59  76  11    52  58  17    49  56  11    46  54   6    47  54   6    49  58   5    52  61   5    53  62   8    52  60  12    49  58   1    49  58   6    43  55   2    61  76   1    80  97   1    72  86   1    75  81  13    85  88  33   111 109  66   105 107  52   124 128  71    68  74  29    37  42  10    39  46  14    37  46  19    34  41  22    39  50  11    40  50  14    45  55  22    39  47  15    35  43   8    48  57  15    59  69  19    63  75  20  
  76  78  21    70  67  20    55  62   8    80  82  24    80  84  22    65  75  13    87  98  40   102 109  52   109 117  56   113 128  58   120 136  60   101 120  36    76  98  11    59  79   4    43  63   3    31  52   2    40  61   6    55  79  15    55  60  16    47  53   8    47  55   4    50  58   5    41  49   3    33  40   2    40  47   6    51  60  11    48  56   3    33  41   4    42  52   7    38  52   1    52  66   1    58  71   1    78  86  14    57  58  19    68  66  25   118 118  62   137 141  81    73  77  32    36  40   8    39  46  16    36  45  16    32  41  16    32  42  11    34  45  14    37  48  16    30  43   9    31  43   7    37  49  10    44  55  14    58  68  24  
  75  79  21    81  80  25    71  68  11    78  78  15   109 108  42   106 105  41    98  99  40    93  95  38    95  97  38   108 112  46   110 122  55   100 115  39   101 120  35    87 108  25    57  78   7    36  57   1    30  49   5    34  55  16    52  59  14    52  61   8    47  56   3    36  44   1    28  36   1    32  40   1    33  41   2    24  34   1    21  25   1    18  23   6    22  30   7    30  41   6    44  58   6    54  66   4    59  64  11    51  48  22    58  54  13   108 105  50   114 115  56    56  57  14    42  42  15    43  48  20    38  46  12    32  42   7    33  42  14    32  42   9    37  49   9    32  49   2    29  44   1    31  45   2    39  47   8    49  57  20  
  75  80  16    80  80  23   102  88  31   102  97  33   108 105  37   123 112  50   114 104  48    87  86  30   106 105  48   128 120  60   118 128  44   115 126  38   121 135  39   122 140  42   102 121  33    62  79  11    31  47   2    30  45  16    37  43   6    35  41  12    31  37  12    28  34   5    28  37   1    29  38   3    25  35   1    21  31   1    26  27   9    20  27   1    21  32   1    17  31   1    49  64   3    67  82   1    62  68   3    85  85  37   108 100  61    94  90  35   128 127  70    54  52  12    45  45  21    47  49  24    42  49  13    34  44   1    32  40   1    37  49   1    43  58   1    47  66   1    59  79  10    59  76  10    50  60   6    55  63  15  
