P3
50 50
255
 120  93  48    92  67  26   103  79  43    91  71  44    62  47  27    50  38  22    43  35  20    34  28  14    38  32  18    53  44  26    69  54  33    63  50  30    39  31  18    24  24  16    26  26  16    23  23  13    21  21  13    20  21  13    17  19  12    13  14   9     9  10   5     8   9   4    10  11   5    10  11   5    11  12   6    12  13   7     8   9   3     6   5   1    11  10   5    20  19  14    13  15   4    17  17   7    32  32  22    37  37  25    35  36  22    37  35  22    37  35  20    45  43  28    68  68  58    51  51  39    58  58  46    65  65  53    48  50  39    45  48  39    41  48  41    40  50  45    29  30  25    30  32  26    26  29  22    35  37  32  
 113  86  44    91  66  28    93  68  37    68  51  26    53  39  21    50  42  27    50  42  29    40  34  20    43  37  21    51  40  21    65  50  26    73  58  36    49  42  25    20  19   9    23  23  13    25  25  15    24  24  14    18  19  11    13  14   8    10  11   6     8   9   5     8   8   6    10  12   5    10  11   5    11  12   6    11  12   6    10  11   5    11  10   5    14  13   8    16  15  10    12  13   6    15  16   8    26  26  18    26  26  16    32  32  21    41  39  26    36  34  20    48  45  31    66  66  56    51  51  39    58  58  46    59  59  47    47  49  38    46  49  40    42  49  42    43  52  47    35  38  33    38  41  37    27  30  26    29  34  29  
 110  82  44    88  62  28    86  63  33    65  47  24    50  38  22    62  54  42    61  53  40    39  33  19    49  43  27    56  45  24    65  51  25    76  61  38    46  38  22    21  18   9    22  22  10    23  23  12    21  21  11    14  15   7    13  14   8    14  15  10    12  12  10     8   8   6    10  11   5    11  12   6    12  13   7    11  12   6    13  14   8    15  14   9    13  12   7     9   8   3    11  12   7    21  22  16    23  24  18    24  24  16    37  37  27    43  41  29    41  39  27    52  49  36    56  56  46    50  50  38    63  63  51    56  56  44    43  45  34    41  44  35    35  42  35    34  43  38    49  53  51    50  55  52    32  38  35    31  36  33  
  89  63  34    76  54  27    71  53  29    71  58  36    56  48  30    62  55  43    59  54  42    38  30  19    56  43  24    65  50  23    70  53  32    65  51  31    40  36  15    21  21  11    21  22  12    24  25  16    18  19  10    10  11   4    12  13   7    14  15  10    10  11   7     8   8   5    10  10   5    12  13   7    13  14   8    12  13   7    11  12   6    11  11   6    10  10   5     7   7   4    14  15   9    27  28  22    25  25  18    27  27  19    36  36  26    41  39  27    45  43  31    47  43  31    55  56  43    52  52  40    61  62  51    51  52  43    44  47  39    38  42  35    37  42  38    39  46  43    64  72  68    61  68  66    32  40  39    27  35  35  
  72  48  22    74  54  30    69  54  32    76  65  43    62  54  37    46  40  28    41  39  26    33  24  15    63  50  31    71  54  26    59  42  22    49  38  18    39  37  16    27  27  19    24  25  17    28  29  21    20  21  13    12  14   7    16  17  11    17  17  12    12  14   9    12  12   8    11  12   6    12  13   7    12  13   8    11  12   7    10  11   6     9  10   5     9  10   5     8   9   4    16  17  11    30  31  23    24  25  17    26  26  16    37  37  27    42  40  28    45  43  31    47  44  32    57  57  45    53  53  41    52  54  43    47  50  41    45  48  41    38  43  39    48  54  50    48  54  52    52  61  56    70  79  76    53  62  61    35  44  43  
  72  49  23    73  52  31    73  58  35    78  67  45    66  57  40    43  35  24    31  31  19    30  26  15    67  56  36    70  54  28    60  43  23    49  38  20    32  27  11    23  22  17    22  23  15    21  22  14    15  16   8    13  14   8    18  19  13    17  18  13    13  14   9    13  14   9    12  13   7    11  12   6    11  12   6    11  12   6    10  11   6     9  10   5     8   9   4     8   9   4    15  16   8    29  29  21    24  24  16    25  25  15    40  40  30    43  41  29    43  41  29    51  49  37    61  61  49    59  61  50    43  45  35    49  52  45    63  68  62    44  50  46    42  48  46    39  46  44    44  53  50    76  85  84    84  93  92    46  54  53  
  66  44  20    62  42  21    75  60  37    73  61  39    62  52  35    52  43  31    30  31  18    44  41  25    73  61  41    68  51  29    72  55  35    58  46  30    29  22  11    24  23  18    18  19  10    14  15   7     9  10   2    11  12   5    17  18  12    16  17  11    13  14   8    15  16  10    17  16  11    13  13   7    12  11   5    12  11   6    12  11   6     9   8   4     8   7   3    10   8   4    18  18  10    26  26  16    27  27  17    31  31  21    42  42  32    45  44  32    45  44  32    50  49  37    62  64  53    55  57  47    47  50  42    60  65  58    72  77  72    43  50  48    37  46  43    41  51  50    48  59  59    58  68  68    79  88  87    57  63  62  
  67  45  22    64  46  25    83  67  44    79  67  44    74  63  45    52  41  28    34  29  16    55  47  27    75  61  40    65  45  24    68  51  27    54  41  25    29  22  14    27  26  20    18  19  11    13  14   6     9  10   2    13  14   6    18  19  12    18  19  12    17  18  11    18  19  12    21  21  13    16  16   8    14  14   6    16  15   9    14  13   8     9   8   3     9   8   3    13  12   7    20  20   9    22  22  11    30  30  19    35  35  24    39  39  28    44  44  32    45  45  34    44  44  33    53  55  45    38  41  32    44  48  41    62  68  62    62  69  66    36  45  43    41  50  50    54  64  65    40  56  58    64  78  78    78  87  86    41  47  45  
  77  56  34    65  47  27    69  53  30    81  67  44   100  88  69    64  52  38    49  37  24    73  59  35    79  59  36    65  41  20    71  53  24    56  43  24    33  28  19    25  26  16    19  20  12    16  17   9    13  14   6    15  15   8    17  18  10    18  19  11    19  20  12    18  19  11    22  22  14    17  17   9    16  16   8    19  19  11    16  16   9    10  10   3    12  11   6    19  18  13    20  20   8    23  23  11    32  32  20    32  32  21    36  36  24    44  44  32    42  42  32    42  42  32    43  46  37    35  40  32    30  35  28    50  56  51    66  75  72    40  50  49    40  50  50    50  60  62    43  65  67    86 104 104    84  97  96    35  43  40  
  80  59  38    74  56  36    66  49  27    68  53  30    97  84  65    67  53  40    49  32  18    87  67  41    81  57  33    65  38  17    81  60  29    60  48  26    33  29  20    29  30  18    24  25  19    21  22  14    19  20  12    18  19  11    17  18  10    20  21  13    21  22  14    19  20  12    21  21  11    17  17   9    18  18  10    21  21  13    18  18  10    12  12   4    15  14   7    24  24  17    29  27  15    35  35  23    39  39  27    34  34  22    41  41  29    50  50  38    45  45  35    48  48  38    45  50  43    46  51  44    29  35  29    50  57  52    72  82  79    50  60  59    53  64  64    50  62  64    59  85  86   101 121 122    92 106 106    45  54  51  
  70  51  34    67  52  32    54  42  30    38  32  15    44  41  24    45  41  40    44  38  24    53  41  25    65  47  25    72  47  25    71  49  26    60  44  28    39  33  21    27  28  20    27  27  19    21  21  13    19  19  11    20  20  12    19  19  11    21  21  13    23  22  17    19  17  12    16  16   8    15  14   9    15  14   9    17  16  12    17  16  11    16  16   8    22  19  10    28  25  14    41  38  26    53  49  38    54  50  39    44  42  30    45  45  34    39  39  28    50  52  39    44  46  33    39  46  39    41  48  41    39  45  41    83  89  85    68  77  74    45  54  53    81  91  92    71  82  84    55  65  63    90 100 100    74  84  85    70  80  81  
  72  51  32    64  49  29    48  35  23    39  31  13    45  41  22    47  43  39    42  36  22    51  40  23    63  44  22    67  42  20    69  47  24    63  47  31    40  33  21    22  23  15    30  30  22    23  23  15    20  20  12    20  20  12    19  19  10    20  20  12    20  19  14    15  14   9    15  15   8    12  11   6    12  11   6    14  13   9    13  12   7    12  12   4    23  21  11    35  33  21    46  42  29    50  46  33    52  49  37    40  38  26    43  43  31    35  36  26    42  44  33    41  43  33    45  52  45    41  48  41    41  46  42    77  86  81    55  64  62    68  78  77    78  88  89    70  82  82    56  67  66    96 107 107    54  67  67    49  62  62  
  72  51  28    70  54  30    57  43  30    50  41  25    48  42  23    50  44  36    42  35  21    53  40  24    66  45  24    67  42  20    67  45  22    60  44  28    37  31  19    21  22  14    25  25  17    20  20  12    16  16   8    16  16   8    18  17  11    20  19  14    18  17  12    13  12   7    13  12   7    11  10   5    11  10   6    12  11   7    11  10   5    13  13   4    26  24  12    39  37  24    46  43  27    58  56  40    47  45  31    44  43  30    49  49  38    32  33  24    34  35  28    38  40  32    41  46  40    47  53  46    41  49  44    60  70  66    50  61  59    70  81  81    77  88  88    63  73  73    57  69  69    94 107 108    58  72  73    63  77  78  
  75  55  30    73  57  32    61  47  35    57  47  34    50  43  24    49  43  31    44  36  23    52  39  23    65  43  22    67  42  20    65  41  18    52  35  19    29  23  11    19  20  11    21  21  13    19  19  10    15  15   7    13  12   7    16  15  10    18  17  12    15  14   9    10   9   4    10   8   3    12  10   5    12  11   7    12  10   5    12  12   5    18  18   8    28  26  14    34  32  18    50  49  31    65  65  47    41  41  26    48  49  35    40  42  31    31  32  24    32  34  28    39  42  35    45  48  40    49  54  48    35  44  39    39  50  48    49  63  62    62  74  74    77  89  87    46  56  55    60  72  72    72  84  85    61  75  76    57  71  72  
  91  75  46    71  57  31    47  34  26    49  40  30    46  41  22    41  37  23    52  44  31    54  41  25    62  41  20    69  42  21    69  44  22    54  37  21    29  23  11    20  20  12    19  19  11    21  21  13    18  17  11    15  14   9    18  17  12    19  18  13    15  14   9    12  11   6    10   9   4    13  12   7    14  13   9    14  13   8    17  17   9    23  23  13    31  29  16    33  31  16    54  53  37    51  52  36    45  46  32    50  52  39    29  31  18    39  42  31    35  39  30    35  38  30    46  48  39    46  51  44    45  53  50    47  59  59    48  62  62    59  73  73    69  81  79    42  53  49    59  69  68    62  74  72    67  79  79    58  70  70  
  93  79  52    62  52  27    38  27  21    46  39  33    49  47  30    41  39  24    50  42  29    52  39  23    61  40  20    65  38  17    67  42  20    55  38  22    33  25  14    22  22  14    17  16  11    22  21  16    19  18  13    16  15  10    18  17  12    19  18  13    15  14  10    14  12   9    13  12   7    12  11   6    14  13   9    18  17  12    19  19  11    21  21   9    31  29  16    41  40  22    54  55  42    48  49  35    54  55  42    48  51  38    43  45  32    56  59  48    47  50  39    34  40  28    47  49  38    40  44  37    32  41  38    45  59  59    72  88  88    87 103 102    68  80  78    49  60  56    54  63  58    48  57  53    45  55  52    49  60  56  
  76  68  44    54  46  25    39  32  24    43  39  32    43  41  26    37  36  21    47  39  25    54  41  24    66  45  23    67  40  18    67  42  20    58  41  24    45  36  24    31  29  20    20  18  13    23  22  17    21  20  15    18  17  12    18  17  12    15  15  10    11  10   6     9   8   4    13  13   8    12  11   6    14  13   8    19  18  13    20  19  11    21  20   8    33  32  16    46  44  26    48  48  36    52  52  40    47  48  35    37  39  26    49  52  39    57  60  47    49  54  41    36  41  28    37  38  29    45  48  42    39  47  43    49  62  61    94 108 108    86 100  99    54  65  64    42  53  48    45  51  47    38  47  42    52  60  57    45  53  49  
  48  45  31    43  42  30    43  41  29    43  40  27    42  38  23    43  39  23    51  42  26    54  39  20    65  44  20    68  42  16    70  45  21    62  44  24    58  46  33    33  26  17    22  21  16    17  16  11    16  15  10    20  19  14    21  20  15    16  15  10    12  11   6    10   9   4    10  11   5    12  11   6    13  12   7    16  15  10    22  19  11    29  27  14    43  42  24    50  47  28    43  44  30    49  49  37    39  41  28    47  49  36    51  53  42    53  55  44    45  48  37    36  39  29    34  37  29    43  48  42    35  41  37    41  51  48    75  85  84    71  81  80    54  64  63    29  38  37    34  40  38    39  45  43    55  61  57    38  45  38  
  32  31  20    35  35  24    41  38  28    42  38  26    44  36  23    46  38  23    62  47  30    59  39  19    74  49  24    77  50  23    74  48  21    64  46  25    56  43  28    34  27  16    26  25  20    18  17  12    13  12   7    15  14   9    18  17  12    17  16  11    14  13   8    12  10   5    14  15   9    11  10   5    11  10   5    15  14   7    22  19  10    36  34  21    52  51  33    60  57  38    50  51  37    54  54  41    43  44  32    53  55  42    55  57  45    55  58  47    54  57  46    46  49  38    41  44  35    43  48  41    29  35  31    46  57  53    53  63  62    75  85  84    66  76  75    39  48  45    33  41  39    38  46  44    61  67  63    51  58  51  
  22  23  16    26  25  20    43  39  31    42  35  25    39  30  17    54  42  28    64  41  24    63  36  15    82  53  29    84  55  27    71  45  18    67  47  23    56  45  27    38  32  16    29  28  23    22  21  16    17  15  10    17  16  11    18  17  12    16  15  10    13  12   7    11  10   5     5   6   1     8   7   3    14  13   8    13  13   5    24  22  11    48  46  33    59  57  41    56  53  36    57  58  44    57  58  44    45  45  33    56  58  44    56  58  45    54  57  46    62  65  54    70  73  62    74  77  69    44  49  43    28  37  32    52  64  59    62  72  71    70  80  79    40  50  49    33  42  39    35  46  42    48  57  54    62  68  64    54  59  53  
  28  30  25    33  35  28    45  42  35    39  33  22    36  26  14    49  37  23    67  41  22    67  40  18    77  47  23    78  49  23    67  41  16    66  48  24    55  42  24    31  24   6    24  24  17    23  23  15    21  20  15    21  20  15    19  18  13    16  15  10    13  12   8    11  10   6    10  10   8    12  11   7    17  16  11    19  19   9    32  30  18    48  46  32    48  46  31    48  45  28    67  65  52    53  54  40    61  62  48    85  87  74    70  72  59    58  62  48    58  62  51    54  60  48    56  62  52    52  58  50    57  67  59    58  69  65    69  80  79    68  80  78    49  59  56    35  46  42    49  61  57    75  86  82    73  79  75    49  54  48  
  34  35  29    37  38  32    33  33  24    34  30  19    41  33  20    43  35  20    62  37  18    72  46  25    71  43  20    72  45  21    58  35  11    57  38  17    51  38  21    33  23   7    21  21  13    20  20  13    21  21  13    21  20  15    19  18  13    17  15  12    14  13   9    12  10   7     4   4   3    11  10   6    19  19  11    23  23  13    47  45  32    66  63  48    62  60  45    68  65  50    84  82  69    46  44  31    68  69  54   100 102  89    73  75  62    59  63  49    58  64  51    61  66  55    44  50  40    53  60  53    76  86  78    65  76  72    61  73  71    73  85  82    60  71  67    43  54  50    54  69  64    69  80  76    59  65  61    37  40  35  
  34  35  26    33  34  25    28  28  18    34  31  20    41  36  23    41  34  21    55  33  15    70  46  26    60  34  12    68  42  20    58  36  14    53  34  16    54  40  24    43  31  17    23  23  15    21  21  13    18  18  10    16  15  10    17  16  11    16  15  11    13  12   8    10   9   5     7   7   7    11  10   6    19  19  11    30  30  18    59  57  43    70  68  53    62  60  45    81  77  64    59  56  42    53  51  38    84  85  71    87  88  74    62  65  51    77  81  67    75  81  67    69  76  64    49  55  44    57  65  55    57  67  59    72  83  78    54  66  62    66  78  74    54  66  62    49  60  56    55  71  66    47  59  55    46  52  48    29  30  25  
  27  30  21    31  34  24    31  33  22    36  33  21    41  33  21    43  31  18    55  34  16    74  46  22    70  41  13    76  52  26    60  38  15    54  31  10    54  36  22    40  30  25    26  24  16    23  21  12    15  12   6    17  14  10    18  15  11    15  14  10    15  14   9     7   7   1     8   7   6    14  13   9    21  21  13    48  49  36    73  74  59    63  64  50    72  72  58    80  80  68    46  45  33    72  73  62    90  92  80    59  63  51    46  51  39    85  89  78    92  96  85    65  68  59    47  51  37    71  75  64    57  60  54    55  63  61    58  73  71    64  82  79    51  65  62    46  53  50    52  65  59    43  52  48    33  39  33    25  26  21  
  27  29  23    32  35  26    32  32  22    35  31  19    42  32  20    46  33  17    54  33  14    78  48  22    84  54  26    78  54  30    64  42  21    53  31   9    48  30  16    31  23  20    30  27  19    23  20  11    16  13   8    18  14  11    16  15  11    12  11   7    13  12   7    10  10   3    12  12   8    15  16  10    36  36  28    61  63  50    60  62  48    68  70  56    78  80  66    58  60  47    37  37  27    70  73  62    84  87  76    52  58  46    55  61  50    80  84  75    78  81  72    55  56  48    59  63  48    67  69  58    46  46  41    45  51  51    78  92  92    74  93  91    45  58  55    46  52  50    47  58  52    47  56  51    38  43  37    29  31  26  
  23  26  17    27  30  21    28  28  18    35  30  18    45  33  19    51  35  20    53  32  10    71  44  17    81  51  25    58  35  17    53  34  19    50  29  10    47  32  16    31  27  18    29  26  17    20  17  10    15  12   7    12   9   5    15  14  10    16  15  10    12  11   5    10  10   3    13  14   9    35  36  30    49  50  42    44  46  33    44  46  32    76  77  63    66  67  53    45  45  33    52  52  42    82  84  73    66  69  58    42  48  36    78  84  74    80  86  76    52  55  46    55  56  48    56  63  49    49  52  44    39  41  36    45  50  48    74  86  84    64  79  76    39  51  47    53  62  57    44  55  49    34  42  37    40  45  39    36  38  33  
  21  23  17    28  29  21    33  33  22    43  36  24    50  36  22    51  34  18    58  38  13    77  49  21    78  48  24    50  27  13    45  25  13    51  30  13    43  27  11    29  25  14    28  25  16    18  16   8    14  11   6     7   6   2    13  12   8    17  16  11    10  10   2    10  10   2    23  28  20    53  56  47    54  56  47    37  40  28    53  53  42    74  74  62    62  62  48    54  52  39    81  81  71    83  84  74    53  56  45    68  74  64    90  96  86    69  75  65    44  47  38    54  56  48    57  63  52    39  45  38    49  54  48    52  58  55    57  66  65    48  57  56    32  42  39    33  44  38    36  45  40    33  39  35    45  50  43    39  40  35  
  24  25  19    28  29  21    33  31  19    41  32  20    49  35  19    50  32  15    59  36  12    79  48  20    76  44  19    60  36  18    50  30  14    58  37  18    44  28  12    27  23  12    28  26  19    16  15   9    12  11   6    12  11   7    14  13   9    12  11   6    13  14   6    31  32  21    38  44  33    54  58  48    44  47  38    40  41  32    62  62  52    50  49  38    48  45  33    60  57  45    82  83  74    70  71  63    41  45  36    75  81  71    76  83  72    55  61  51    53  56  48    66  69  61    41  46  40    31  38  31    51  58  54    55  61  57    57  61  58    40  44  41    28  37  33    30  42  36    34  42  37    43  49  45    51  56  50    36  38  33  
  23  24  18    23  24  16    26  23  12    37  27  15    49  33  17    53  33  16    64  38  16    80  46  18    76  42  12    68  42  17    57  35  13    57  34  11    45  29  11    25  19  10    18  18  11    12  11   6     8   7   2    15  14  10    19  18  14    14  14   9    27  28  18    52  54  43    59  67  52    48  54  42    42  45  36    48  49  41    44  44  36    34  31  22    50  46  35    57  51  39    59  60  52    47  49  40    44  50  40    64  71  60    56  64  53    54  60  52    68  72  65    58  61  54    38  43  38    37  46  40    46  57  51    47  53  49    61  62  59    38  39  37    30  37  33    40  53  46    46  52  47    43  50  46    45  50  44    29  31  26  
  27  27  22    30  30  22    38  33  23    48  38  24    55  38  22    54  33  16    68  39  21    79  42  15    79  44  10    74  47  18    71  47  19    58  32   7    54  35  18    27  18  12    10  10   3    14  14   9     7   6   2    12  11   7    22  22  18    24  25  19    36  38  27    48  50  39    60  68  53    52  60  47    50  56  46    52  53  45    28  28  20    38  35  26    52  48  37    44  38  26    54  55  47    44  47  37    63  69  59    58  66  55    51  58  50    41  46  39    57  62  55    57  59  53    51  55  53    69  78  73    76  89  82    63  70  63    66  65  61    35  35  31    36  42  38    47  62  55    51  57  53    49  54  50    46  48  43    25  27  22  
  22  23  17    22  22  14    35  28  18    58  44  31    59  38  19    60  35  13    65  41  13    67  43  17    74  47  20    75  44  13    76  41  11    67  40  13    47  29  15    31  24  17    16  13   8    15  14   9     8  10   1    12  15   6    22  25  14    35  38  27    49  51  38    45  45  33    35  42  30    46  52  42    57  59  54    31  31  29    23  21  19    44  39  33    52  46  35    61  55  41    68  71  64    54  57  50    76  79  70    57  60  51    40  43  34    55  59  50    53  56  47    69  72  63    60  69  61    91 100  95    81  90  87    82  91  90    66  75  74    29  38  37    45  54  51    53  63  59    47  52  50    45  50  46    39  41  36    22  25  18  
  20  20  15    24  24  16    34  27  17    50  36  23    53  32  13    62  37  15    65  39  14    68  41  17    71  44  17    79  45  16    77  42  10    68  38  11    51  34  17    28  21  11    22  19  14    17  17  11    15  16   8    21  24  15    30  33  22    44  46  35    53  54  42    53  53  41    47  53  42    41  46  37    30  32  27    14  14  12    28  27  23    47  42  36    47  43  32    63  58  44    65  68  61    41  44  37    57  60  52    64  67  58    53  56  47    61  64  55    65  68  59    59  62  53    44  51  44    68  74  70    56  62  60    60  68  67    52  61  60    46  55  53    67  76  73    41  52  46    44  48  47    38  43  39    31  33  27    21  24  16  
  19  20  14    24  24  16    36  29  19    55  41  27    56  35  16    61  36  14    65  36  12    66  38  14    68  39  14    78  46  17    75  41  10    67  37   9    58  41  21    31  23  10    21  18  11    16  14   7    22  23  15    30  32  22    38  41  30    49  51  40    52  52  41    57  57  46    63  67  59    31  34  27    11  13   8    12  13   9    30  29  25    47  44  37    50  47  37    54  50  39    41  44  37    39  42  35    47  50  43    59  62  54    46  49  40    56  59  50    78  81  72    49  52  43    32  36  30    48  53  48    56  61  58    56  62  60    41  50  48    61  72  68    78  89  83    45  57  50    41  46  43    33  38  33    29  32  25    32  35  26  
  18  19  13    22  22  14    36  29  19    58  45  29    60  39  19    63  39  16    70  40  16    68  40  18    68  39  16    78  48  21    73  42  12    64  37  10    57  40  20    27  19   5    19  15   7    17  14   5    28  28  19    34  36  25    38  41  30    47  50  38    51  51  41    58  58  48    44  45  39    10  12   6     7   8   3    26  26  22    33  32  27    46  45  38    55  52  43    38  36  24    28  31  25    40  44  37    48  51  44    50  53  46    46  49  42    62  65  56    74  77  68    45  47  38    40  42  37    57  62  56    52  57  53    43  49  47    52  61  58    69  79  74    56  67  60    48  60  50    43  48  42    27  32  26    23  26  19    34  37  28  
  17  18  13    22  21  16    30  23  13    47  34  18    56  35  14    73  49  25    73  43  17    70  42  20    68  41  20    74  48  25    71  43  18    63  38  15    50  36  20    22  15   5    21  17   8    23  20  11    32  32  22    33  35  24    35  37  26    44  46  35    50  50  40    53  51  42    20  21  16     9   9   4    14  15  10    33  32  27    34  33  28    43  43  35    54  54  44    34  34  24    32  34  27    41  44  37    51  54  47    46  49  42    68  71  64    94  97  90    71  74  65    44  47  38    47  51  45    76  82  75    47  53  49    38  44  42    50  56  52    47  55  48    30  40  31    47  57  48    45  50  44    20  25  18    20  23  14    34  38  29  
  19  20  15    22  21  16    27  20  10    43  30  13    53  32  11    73  49  25    73  43  17    66  40  17    58  36  14    59  35  13    58  34  12    55  34  15    41  29  17    22  17  13    24  20   9    34  32  20    37  37  26    37  39  28    40  42  31    48  50  39    49  49  39    37  34  25     9   8   6    13  12   8    18  17  13    32  31  26    32  31  25    39  39  31    57  57  49    44  44  36    30  32  27    48  50  45    45  48  41    47  50  43    73  76  69    86  89  82    68  72  65    50  53  45    39  49  41    70  80  72    54  60  56    48  54  50    35  41  37    34  39  33    38  43  36    59  65  55    56  61  54    20  25  18    22  25  16    34  37  26  
  20  21  15    22  21  14    30  23  12    46  33  17    55  36  15    67  44  20    72  47  21    62  40  17    49  29  10    42  23   3    44  24   6    45  28  14    29  21  10    21  17  12    28  25  13    43  41  28    47  48  34    44  46  33    50  52  40    60  61  50    45  45  35    23  22  14     8   7   4    16  15  12    23  22  18    37  36  31    29  29  21    39  38  31    50  49  42    35  35  28    31  34  28    52  55  49    36  40  33    55  58  51    63  66  58    49  52  44    57  59  52    53  56  48    53  63  55    70  80  73    60  69  64    49  56  53    38  44  41    42  47  42    41  44  36    51  54  44    60  64  55    23  27  19    26  28  19    34  37  27  
  20  20  12    26  23  14    37  29  18    45  32  17    53  35  16    61  39  19    53  36  16    51  33  14    43  24   8    43  24   8    39  23  10    40  28  14    25  18   4    24  21   6    45  43  30    50  50  36    52  53  37    45  46  30    60  61  47    58  60  48    26  27  20    17  18  13    17  16  11    16  15  10    24  23  18    42  41  36    31  30  25    47  45  40    43  41  36    36  34  29    31  38  30    46  51  44    37  42  35    49  53  46    54  57  48    58  60  51    54  55  47    46  48  38    43  50  42    58  67  62    62  71  68    51  60  59    42  51  50    39  45  41    41  44  35    47  49  36    53  53  41    27  27  17    27  29  18    30  31  23  
  20  21  15    27  24  15    39  32  22    48  36  22    50  33  16    46  27   9    41  28  12    49  31  15    55  34  14    62  37  16    55  33  12    46  30  11    33  25   9    41  39  25    61  61  47    50  51  37    44  45  30    65  66  52    79  79  67    35  37  26    20  21  15    30  31  26    42  41  36    17  16  11    26  25  20    46  45  40    33  32  27    42  41  36    34  33  28    30  29  24    31  37  30    40  45  38    44  49  42    37  42  35    55  60  52    63  66  57    42  44  35    37  40  31    30  37  30    40  49  44    53  63  60    57  66  65    53  62  59    48  54  50    53  56  47    61  64  52    39  39  28    25  25  15    27  29  18    28  29  21  
  24  24  17    31  28  19    38  32  20    47  35  23    48  35  19    46  29  13    41  31  20    48  32  17    59  34  12    74  44  17    78  51  23    61  41  17    43  35  16    59  57  44    51  52  38    39  39  27    47  47  34    77  77  65    54  54  44    19  19  11    27  26  21    51  50  46    37  36  31    15  14   9    29  28  23    40  39  34    30  29  24    43  42  37    30  29  24    24  25  19    37  42  35    41  46  39    47  52  45    44  49  42    63  68  61    55  60  53    51  56  49    46  51  44    30  36  32    44  53  48    51  60  57    55  64  63    63  72  69    54  60  56    51  55  47    66  67  59    31  33  22    29  31  20    29  31  22    30  31  23  
  27  27  18    37  32  21    41  32  19    43  31  17    45  32  16    46  30  15    38  28  18    41  25   9    57  33   9    69  40  10    75  49  19    65  49  23    56  48  29    58  56  43    43  44  30    43  43  31    67  68  58    60  60  53    17  16  11    13  12   7    25  24  20    39  38  34    18  17  12    19  19  13    32  31  26    27  26  21    25  25  19    39  40  34    35  36  30    47  48  42    46  51  44    38  43  35    51  56  49    73  78  72    85  92  85    63  71  64    77  84  77    66  73  66    34  40  38    59  68  65    68  77  74    54  63  60    47  56  51    51  58  51    48  51  44    40  41  35    30  32  21    35  36  28    31  32  24    33  34  26  
  30  27  15    44  36  22    49  36  22    48  35  18    47  33  17    44  30  14    44  29  15    50  31  13    71  50  26    71  48  19    66  46  18    68  55  30    68  62  45    53  54  40    49  50  36    54  56  43    63  64  56    31  30  26    17  16  12    27  26  22    33  32  28    26  24  20    22  19  12    36  36  28    44  44  36    32  32  24    35  36  28    38  40  32    34  36  28    51  54  45    63  66  60    49  52  45    64  69  63    82  89  82    75  83  76    55  64  57    83  93  86    79  89  83    47  53  52    60  70  67    78  87  84    66  75  71    40  49  44    41  48  41    45  47  42    28  29  23    28  30  21    36  38  30    28  30  21    34  35  27  
  42  35  20    52  42  24    51  37  19    52  36  19    53  37  20    48  32  16    50  29  12    61  40  20    76  56  32    68  50  25    66  53  27    58  49  29    52  49  33    46  46  33    62  64  50    60  62  50    30  31  24    16  15  11    24  23  21    36  35  33    43  40  37    23  19  16    25  22  15    41  41  33    41  41  33    34  34  26    50  51  43    55  57  48    44  47  38    42  45  36    63  66  59    57  59  54    64  69  63    74  81  74    54  63  57    40  50  44    72  83  77    63  75  69    44  50  50    56  65  64    61  70  67    51  60  55    41  50  45    36  43  36    32  34  29    29  30  25    30  33  24    40  43  34    26  29  20    34  35  27  
  42  35  23    48  39  23    49  36  19    50  35  18    51  38  20    48  34  18    50  34  15    54  36  15    62  44  23    64  51  27    61  55  30    50  49  28    33  33  19    45  43  36    70  71  60    42  43  33    17  17  10    18  18  11    26  26  20    37  35  31    35  32  27    22  18  14    26  24  19    42  41  35    32  31  25    33  34  27    54  56  49    54  59  51    55  61  53    66  71  64    69  74  67    56  61  54    46  53  45    54  61  53    39  47  40    43  51  45    70  78  75    39  47  45    38  49  49    56  67  67    40  50  48    32  41  38    36  43  39    31  37  31    40  42  36    34  36  28    32  35  26    43  46  37    32  34  25    34  37  28  
  37  30  20    46  37  22    54  42  26    52  39  22    49  36  19    48  35  18    39  30  10    46  30  14    58  40  25    62  48  34    41  35  20    26  27  13    37  37  25    67  64  55    62  62  52    19  19   9    13  13   5    22  22  14    20  20  13    27  24  17    31  28  23    27  24  19    31  30  25    53  53  48    36  35  30    37  38  32    52  55  48    53  58  52    61  68  61    57  64  57    54  61  54    45  52  44    45  52  44    45  52  44    43  50  42    61  68  61    63  69  67    25  31  31    39  51  51    62  73  74    35  45  44    42  51  48    50  56  52    37  42  36    36  39  32    39  42  34    39  42  33    38  41  33    35  38  29    37  40  31  
  27  20   8    36  27  12    47  35  19    48  35  18    44  31  14    50  37  21    43  38  20    45  34  20    72  56  45    61  46  38    35  28  21    27  26  18    31  31  21    37  35  23    30  30  20    13  13   3    13  13   3    21  18  11    24  21  14    30  27  20    33  30  23    32  29  22    39  39  31    57  56  51    32  33  27    35  37  32    51  56  50    64  69  63    85  92  85    72  78  72    43  50  43    48  55  48    60  67  59    42  49  41    49  56  48    71  78  71    43  49  46    21  27  25    57  67  68    82  92  91    35  44  43    32  41  37    43  49  45    39  44  38    28  31  24    33  36  29    37  40  31    29  32  23    30  33  24    33  36  27  
  35  27  16    48  40  25    47  35  19    44  31  15    41  28  12    45  33  17    43  39  26    79  70  52    90  74  53    60  44  23    46  38  22    36  33  20    39  37  27    39  36  26    20  17   8    17  14   5    23  20  11    27  24  15    24  20  11    26  22  13    30  27  18    32  27  20    40  37  28    50  50  42    34  36  29    47  50  45    66  71  68    65  71  67    72  77  71    62  67  61    47  53  49    48  56  48    54  61  53    41  48  40    67  73  66    83  89  83    38  44  40    27  33  31    79  89  88    90  99  98    40  49  46    33  39  35    40  47  42    34  39  33    31  36  29    36  40  33    43  46  39    30  33  26    26  30  21    25  28  19  
  40  32  21    55  46  31    39  27  11    38  26  10    39  27  11    42  30  14    50  42  32    98  85  62    99  81  43    86  71  30    76  68  36    44  40  21    47  45  33    52  49  40    44  41  32    31  28  19    27  23  14    30  26  17    25  21  11    29  25  15    41  37  27    40  36  26    44  41  31    46  46  37    33  36  30    48  54  51    72  80  77    65  71  68    52  57  53    46  50  44    52  58  54    54  60  55    52  59  52    46  53  45    65  72  64    62  69  62    28  34  30    32  38  35    80  89  87    70  79  76    35  42  39    35  41  37    32  39  32    18  23  17    41  46  39    56  61  54    44  47  40    30  33  26    30  33  26    28  31  22  
  40  33  22    58  49  34    41  29  13    43  31  15    38  26  10    36  26  11    46  32  18    69  51  22   101  79  35   108  87  44    73  59  28    42  36  19    35  32  22    30  29  20    45  41  32    55  51  42    51  47  38    41  37  26    30  26  15    30  26  15    44  38  28    49  44  32    47  43  31    47  47  37    36  38  33    56  64  61    76  85  83    61  69  68    49  54  50    42  44  39    55  60  58    52  58  54    44  51  44    38  45  37    47  54  46    42  49  41    25  32  26    34  40  35    62  69  66    58  65  63    35  41  37    36  42  38    24  30  23    22  27  21    53  58  51    56  61  54    33  36  30    25  28  21    27  30  23    25  28  20  
  34  26  15    49  40  25    42  30  14    48  36  20    37  25   9    34  25  10    53  35  18    76  53  23   106  78  38   101  76  40    54  37  16    41  32  24    31  28  21    17  17   5    21  17   8    34  30  21    45  41  31    49  45  34    37  32  22    34  28  17    46  39  28    45  39  27    41  38  25    42  42  32    36  41  35    70  79  78    74  84  85    44  53  51    43  48  45    37  39  34    44  50  48    43  49  45    43  50  43    35  42  34    38  45  36    41  48  40    32  39  32    35  41  37    56  62  58    61  67  63    33  39  35    35  41  37    21  26  20    41  46  40    67  72  65    55  60  53    34  36  31    23  26  19    20  23  15    19  22  15  
