P3
50 50
255
  62  52  24    53  44  18    44  38  13    37  33  11    34  32  13    44  41  24    47  44  30    39  37  22    39  38  23    34  26  13    43  28  13    54  34  16    65  45  20    63  44  20    51  37  18    42  31  16    38  28  16    37  28  15    33  25  13    35  26  18    37  28  22    32  25  22    29  21  20    30  22  22    40  30   7    42  31  14    51  37  24    53  37  22    58  43  15    77  62  14    92  80  10   105  94   8   106  87   1   101  82   3    95  77   7    95  77   7   101  84   7   109  92   8   104  90   5    95  80   1    89  69  14    81  61  14    73  56  23    55  41  19    35  29  11    34  33  15    37  40  18    37  42  17    55  43  17    70  57  24  
  36  33  23    34  32  21    38  38  25    40  39  27    38  39  26    41  41  29    43  43  32    37  38  27    35  40  27    40  41  27    35  31  16    37  30  19    40  30  25    40  31  28    29  26  17    36  35  20    36  34  15    37  35  16    39  37  18    41  40  21    38  36  20    31  31  14    33  33  17    40  40  24    50  46  21    54  51  29    58  52  37    51  44  34    43  35  25    43  35  22    47  38  18    46  37  14    47  39   8    40  31  11    40  29  18    38  28  20    33  25  10    33  25   9    32  25  13    28  20  14    31  26  11    29  26   9    28  26  11    27  27  12    25  26  10    29  30  12    37  35  17    40  37  19    53  43  21    64  52  21  
  33  38  20    31  36  19    35  38  25    40  41  30    39  39  28    42  42  29    44  45  30    39  40  23    36  38  25    36  37  25    32  33  20    43  42  28    45  45  28    40  41  23    35  38  18    37  40  19    37  37  22    38  37  22    41  42  25    43  44  26    39  40  21    37  38  17    39  40  18    40  41  19    48  44  27    57  54  34    60  56  33    54  51  26    43  41  17    42  39  19    45  41  26    37  32  21    41  37  16    42  37  22    36  32  20    33  31  17    36  35  14    31  31  10    24  25   9    26  26  17    32  30  12    30  30  12    28  29  14    29  32  17    30  33  19    29  31  16    35  33  19    39  36  22    48  40  21    56  45  15  
  33  36  23    33  36  24    36  39  25    40  42  29    36  37  25    37  39  26    41  43  29    32  34  19    36  36  23    34  34  23    35  35  23    40  41  27    41  42  26    38  40  24    38  40  24    37  39  25    37  38  23    37  38  22    38  40  25    40  42  25    37  39  22    34  36  18    36  38  20    38  40  22    48  45  22    55  52  30    56  54  31    57  54  31    48  46  24    42  40  19    45  43  24    38  37  19    37  35  18    40  37  20    36  35  17    35  34  15    37  36  17    34  33  15    29  29  12    30  30  13    27  26  11    30  30  15    28  28  14    27  28  14    30  31  18    33  34  19    35  34  18    36  35  19    42  38  17    48  40  12  
  34  36  25    34  36  25    35  37  26    39  41  28    35  37  24    36  38  25    41  43  30    34  36  23    38  38  26    37  37  25    36  36  24    37  37  25    38  39  25    39  40  26    39  40  26    39  40  26    37  38  22    37  38  22    37  38  22    38  39  23    37  38  22    35  36  20    35  36  20    37  38  22    48  46  25    52  50  29    53  51  30    55  53  32    49  46  27    41  40  20    43  42  24    39  38  19    38  37  19    39  38  20    38  37  19    37  36  18    39  38  20    36  34  19    32  30  15    31  29  14    26  27  11    28  29  13    29  30  14    28  29  13    29  30  14    33  34  18    36  34  19    36  34  19    40  37  18    45  37  14  
  34  37  26    32  35  24    33  36  25    38  41  30    35  39  25    34  38  24    39  43  29    35  39  25    31  33  20    31  33  20    32  34  21    33  35  22    35  37  24    37  39  25    37  39  25    36  38  24    37  38  24    36  37  23    37  38  24    37  38  24    37  38  24    35  36  22    36  37  23    38  39  25    49  47  26    51  49  28    52  49  30    52  49  29    45  44  24    40  39  21    43  42  24    40  39  21    37  38  20    38  39  21    36  37  19    35  36  18    36  37  21    33  34  18    30  31  15    29  30  14    27  28  12    28  29  13    29  30  14    28  29  13    30  31  15    32  33  17    36  34  19    36  34  19    40  37  20    43  37  15  
  32  35  25    31  34  23    32  35  25    38  41  30    37  40  29    33  36  25    36  40  27    34  38  25    29  31  20    30  32  21    32  35  22    35  37  25    36  39  26    35  38  25    33  36  23    31  34  20    35  38  24    35  37  23    35  37  23    35  37  23    35  37  23    35  37  23    36  38  24    37  39  25    50  47  28    49  47  28    50  49  29    48  47  27    42  41  24    38  38  21    39  38  23    38  37  21    35  37  19    36  37  20    34  35  19    33  34  18    34  35  19    32  33  17    29  30  15    29  30  15    28  29  14    29  30  14    28  29  13    28  29  13    29  30  15    32  33  17    35  34  19    37  35  21    39  35  21    41  35  17  
  28  33  23    30  35  25    31  36  26    37  42  31    37  42  31    33  37  26    33  38  26    31  35  24    31  34  23    31  34  23    32  35  24    34  37  26    36  39  27    35  39  26    34  37  25    32  36  22    35  37  24    35  37  24    35  37  23    34  36  23    35  37  23    36  38  25    36  38  25    36  38  24    48  47  28    47  46  27    49  48  30    46  46  29    41  40  25    38  39  23    36  37  22    35  36  21    35  36  20    35  36  20    33  34  18    32  33  18    34  35  20    33  34  20    30  31  17    30  31  17    29  30  16    28  29  15    27  28  14    28  29  15    29  30  16    31  32  18    35  33  20    37  35  22    38  34  22    41  35  19  
  26  31  23    30  36  26    30  36  26    33  40  30    34  40  30    31  37  26    30  36  25    27  33  21    28  31  21    28  31  21    28  31  21    30  33  22    32  35  24    34  37  26    35  38  27    35  38  26    34  36  23    35  37  24    35  37  24    34  36  23    35  37  24    36  38  25    36  38  25    33  36  22    45  44  26    41  42  24    47  48  31    45  46  30    41  42  28    40  41  27    36  37  23    34  36  22    34  35  19    35  36  21    33  34  19    32  33  19    34  35  21    32  33  19    28  30  16    28  29  16    28  29  15    26  27  13    25  26  12    27  28  14    28  29  15    29  30  16    34  32  19    38  35  23    38  35  21    42  36  20  
  26  31  24    32  37  29    30  36  26    30  36  26    31  37  27    30  36  26    30  36  26    26  32  22    29  33  24    29  33  24    30  34  24    32  34  25    33  36  25    33  36  25    31  34  23    30  33  22    34  36  23    35  37  24    35  37  24    34  36  23    35  37  24    37  39  26    35  37  24    32  34  21    39  40  24    37  38  22    46  47  31    46  47  31    43  44  30    43  44  30    36  38  24    35  37  24    33  34  20    34  35  21    32  33  19    31  32  18    32  33  19    29  30  16    26  26  14    25  25  13    28  29  15    25  26  12    24  25  11    26  27  13    28  29  15    29  30  16    34  32  19    38  36  23    38  35  20    43  39  21  
  25  30  23    24  29  22    27  32  25    31  36  29    31  36  29    31  36  29    29  34  27    24  29  22    27  32  25    27  32  25    27  33  23    28  34  24    29  35  25    30  36  26    31  37  27    32  38  28    32  35  24    32  35  24    32  35  24    35  39  25    34  39  24    34  37  24    39  41  28    35  37  24    33  35  22    36  38  25    44  45  31    43  41  26    42  40  25    43  44  30    34  36  23    31  33  20    34  34  21    35  36  23    34  35  22    32  32  19    28  29  15    26  27  13    26  27  13    26  27  13    22  22  12    26  26  16    24  24  12    20  20   8    23  23  11    29  31  17    32  34  19    32  34  19    35  31  20    42  39  24  
  26  31  24    26  31  25    31  36  28    33  38  31    32  37  30    30  35  28    28  33  25    24  29  22    24  29  22    25  30  23    25  31  22    27  33  23    28  34  24    29  35  25    30  35  25    30  36  26    31  35  23    34  37  25    33  35  25    34  38  25    30  35  20    30  33  20    37  39  25    35  38  25    35  38  25    38  40  27    45  47  33    45  43  28    45  43  28    45  47  33    38  40  27    35  37  24    33  33  21    32  32  20    30  30  18    29  29  17    28  28  16    27  27  16    26  26  14    25  25  13    22  22  12    25  25  15    23  23  10    20  20   8    23  23  11    26  28  14    27  29  15    28  30  17    36  34  22    38  36  21  
  26  31  24    28  33  26    33  38  31    35  40  33    32  37  30    29  34  27    27  32  25    24  29  22    23  28  21    24  29  22    25  30  23    27  33  24    29  35  25    29  35  25    29  35  25    29  35  25    34  37  26    32  35  24    30  33  22    32  35  24    31  35  22    32  34  21    36  38  25    33  35  22    34  36  23    37  39  26    43  44  30    44  42  27    44  42  27    44  45  31    39  41  28    36  38  25    36  36  24    33  33  21    30  30  18    30  30  18    29  29  17    28  28  16    25  25  13    24  24  12    23  23  13    24  24  14    21  21  10    21  21  10    23  23  11    22  24  11    23  25  12    28  30  17    34  33  22    33  31  19  
  23  28  21    26  31  24    32  37  30    35  40  33    30  35  28    27  32  25    26  31  24    24  29  22    23  28  21    24  29  22    25  30  24    28  33  25    30  35  27    30  35  25    30  35  25    30  35  25    32  35  24    30  32  21    26  29  18    30  34  23    33  35  25    35  37  25    36  38  25    30  32  19    33  35  22    36  38  25    40  41  26    44  42  27    44  42  27    41  42  28    38  40  27    35  37  24    35  35  23    32  32  21    30  30  18    29  29  17    27  27  15    23  23  11    22  22  11    24  24  12    25  25  15    23  23  13    19  19   9    19  19   9    22  22  12    20  22  10    23  25  13    29  31  20    30  30  20    29  28  16  
  23  28  21    25  30  23    31  36  29    33  38  31    30  35  28    27  32  25    26  31  24    24  29  22    23  28  21    24  29  22    26  31  24    28  33  26    30  35  28    31  36  29    31  37  27    31  37  27    27  30  21    29  32  21    30  33  22    34  37  26    32  35  24    32  34  23    36  38  27    33  34  23    35  37  24    39  41  28    41  42  28    47  44  29    47  45  30    43  44  30    41  43  29    37  39  26    33  33  21    31  31  19    31  31  19    30  30  18    27  27  15    22  22  10    23  23  11    27  27  14    26  26  16    24  24  14    19  19   9    19  19   9    21  21  11    20  21  13    23  24  16    29  30  22    27  28  20    29  29  19  
  25  30  23    26  31  24    31  36  29    33  38  31    30  35  28    27  32  25    26  31  24    23  28  21    23  28  22    24  29  23    26  31  24    28  33  26    30  35  28    31  36  29    31  36  29    32  37  30    28  31  22    31  34  25    32  35  24    35  38  27    32  35  24    31  33  22    36  38  27    35  37  26    35  37  24    40  42  29    41  42  28    48  46  31    49  47  32    42  43  29    41  43  29    36  38  24    36  36  24    32  32  20    31  31  19    31  31  19    29  29  17    25  25  13    24  24  13    27  27  16    25  25  15    24  24  14    21  21  11    19  19   9    21  21  13    20  21  13    21  22  14    24  24  17    21  22  14    28  28  20  
  26  32  25    28  33  26    32  37  31    33  38  31    29  34  27    27  32  25    26  31  24    23  28  21    23  28  22    24  29  23    25  30  23    27  32  25    29  34  27    30  36  28    31  36  29    32  38  30    31  35  25    31  35  26    30  33  24    34  37  26    34  37  26    33  36  24    36  38  26    34  35  24    32  34  22    38  41  27    41  42  28    47  46  31    46  45  30    39  41  26    38  40  27    35  37  24    37  37  27    32  33  22    28  28  18    29  30  19    27  28  17    23  23  12    23  23  12    25  25  14    23  23  13    24  24  14    22  22  12    21  21  12    21  21  12    21  22  14    21  22  15    21  22  16    26  27  20    31  32  25  
  24  31  24    27  34  27    32  39  32    33  38  32    28  33  26    26  31  24    27  32  25    24  29  22    25  30  24    24  29  23    25  30  24    29  34  27    30  35  28    31  37  27    32  38  28    34  40  30    29  35  25    31  37  27    29  35  23    36  39  28    38  41  30    34  38  24    35  37  24    34  36  23    32  34  23    39  41  28    44  46  32    44  47  30    44  47  30    41  44  27    39  41  27    37  39  26    33  35  24    32  34  23    28  30  19    29  31  20    26  28  15    21  21   9    26  26  14    30  30  18    24  24  14    21  21  11    22  22  12    22  22  12    21  21  11    22  24  14    25  26  18    25  26  18    28  29  24    28  27  21  
  24  31  24    27  34  27    31  38  31    31  36  30    26  31  25    25  30  24    25  30  23    22  27  20    25  30  24    25  30  24    25  30  25    29  34  27    30  35  29    31  37  27    33  39  29    34  40  30    32  38  28    32  38  28    30  35  24    35  38  27    37  40  29    35  39  25    37  39  26    36  38  25    31  33  22    35  37  24    39  41  27    41  44  27    44  47  30    44  47  30    40  42  28    35  37  24    32  34  23    32  34  23    28  30  19    30  32  19    27  29  15    22  22  10    26  26  14    28  28  16    22  22  12    20  20  10    21  21  11    21  21  11    20  20  10    21  23  12    24  25  16    24  25  17    28  29  21    28  28  19  
  25  31  27    28  35  28    32  39  32    30  35  29    25  30  24    25  30  24    26  31  25    23  28  22    24  29  23    25  30  24    27  32  26    30  35  28    31  36  29    33  39  29    34  40  30    36  42  32    35  41  31    34  40  30    30  36  24    36  39  28    37  40  29    36  40  26    39  41  28    35  37  24    33  35  24    37  39  26    42  44  29    44  47  30    44  47  30    44  47  30    42  44  30    38  39  27    35  37  27    35  37  27    32  34  21    33  34  22    29  32  19    25  25  13    27  27  15    26  26  14    24  24  12    22  22  10    22  22  12    23  23  13    22  22  12    23  25  14    26  28  17    25  27  16    29  31  20    30  30  20  
  27  33  29    30  36  32    33  39  35    31  36  30    26  31  25    26  31  25    27  32  26    24  29  23    24  29  23    26  31  25    28  33  27    30  35  28    31  36  29    34  40  30    36  42  32    38  44  34    34  40  30    32  38  28    30  36  24    36  39  28    37  40  29    38  42  28    41  43  30    34  36  23    39  41  30    39  42  29    44  46  32    46  49  32    43  46  29    43  46  29    41  43  29    36  38  25    38  40  27    38  40  27    33  35  22    33  35  22    31  33  20    27  27  15    28  29  15    26  27  13    25  25  13    23  23  11    23  23  11    23  23  13    22  22  12    23  25  14    26  28  17    25  27  16    26  28  17    27  29  18  
  28  34  30    32  38  34    35  41  37    31  36  32    26  31  25    28  33  27    29  34  28    25  30  24    26  31  25    29  34  28    31  36  30    30  35  28    30  35  29    34  40  30    37  43  33    38  44  34    34  40  30    31  36  26    28  34  22    35  38  27    37  40  29    41  45  31    46  47  35    36  38  25    38  40  29    35  37  24    39  41  27    43  45  29    43  45  29    46  49  32    46  48  34    38  40  27    37  40  26    37  39  26    31  33  20    30  33  20    30  33  19    29  30  16    31  31  17    27  28  14    26  26  13    23  23  11    23  23  11    23  23  11    22  22  11    22  24  13    25  27  16    24  26  15    28  29  22    29  30  23  
  28  34  30    32  38  34    35  41  37    31  36  32    26  31  26    28  33  27    30  35  29    26  31  25    30  35  29    32  37  31    33  38  32    30  35  28    30  35  28    33  39  29    36  42  32    38  44  34    39  45  35    34  40  30    30  36  24    35  38  27    36  39  28    42  46  32    47  49  36    37  39  26    37  39  28    35  37  24    41  43  29    44  47  30    41  44  27    45  48  31    47  49  35    42  44  31    41  43  30    40  42  29    32  34  21    31  33  20    31  33  19    31  32  18    32  33  19    29  30  16    28  28  16    25  25  13    25  25  13    25  25  13    23  23  11    24  26  15    26  28  17    25  27  16    26  27  22    28  29  23  
  27  34  28    31  38  32    33  40  34    30  36  30    25  32  26    26  31  26    28  33  27    27  32  26    27  32  25    36  41  35    31  36  30    29  34  28    37  42  35    36  41  33    35  42  30    40  46  34    41  46  33    33  38  25    31  35  23    37  40  30    38  40  29    40  43  31    44  46  32    36  37  24    40  43  30    38  40  27    41  43  30    41  44  29    38  41  25    45  47  32    48  50  36    41  42  29    41  43  32    38  40  28    33  35  22    32  34  21    33  35  22    34  35  22    31  32  19    25  26  13    28  30  16    27  28  15    26  27  15    25  26  13    23  25  12    23  25  13    24  26  14    25  26  16    25  27  21    25  28  21  
  29  36  29    32  39  32    34  41  34    31  38  31    27  34  27    27  32  26    28  33  27    28  33  27    29  34  27    39  44  37    31  36  30    29  34  28    37  42  36    37  42  35    38  44  32    43  49  35    44  49  34    37  41  27    34  37  27    40  43  34    39  42  31    40  42  31    45  47  33    39  40  27    33  37  23    34  36  23    42  44  31    44  46  32    40  42  28    46  48  34    50  52  38    44  44  31    42  44  33    34  36  25    31  33  20    35  37  24    36  38  25    31  33  20    29  31  18    28  30  17    27  29  15    26  28  15    25  27  14    24  26  13    23  25  12    24  26  13    25  27  14    26  28  17    25  28  21    25  28  21  
  31  38  31    34  41  34    35  42  35    32  39  32    29  36  29    29  34  28    29  34  28    29  34  28    35  40  33    40  45  38    32  37  31    29  34  28    35  40  34    36  41  34    40  46  34    43  49  35    43  48  34    38  41  28    33  36  25    38  41  32    38  41  30    41  44  33    49  51  37    44  47  32    44  48  34    40  42  29    42  44  32    44  46  32    43  45  31    50  52  39    54  57  43    47  48  34    41  43  30    35  38  25    32  34  21    33  35  22    34  36  23    31  33  20    30  32  18    32  34  20    29  31  17    27  29  16    25  27  14    24  26  13    23  25  12    24  26  13    26  28  15    27  29  18    24  27  18    24  27  18  
  32  39  32    34  40  34    34  41  34    32  39  32    30  37  30    30  35  29    30  35  29    29  34  28    37  42  35    39  44  37    32  37  31    31  36  30    35  40  33    37  42  35    42  48  36    43  49  35    50  56  41    43  48  34    34  38  27    36  39  30    39  42  31    41  44  33    46  50  35    40  44  29    43  47  33    38  40  27    42  43  31    43  45  31    40  42  28    47  49  35    53  55  41    48  50  36    45  47  34    42  44  31    35  37  24    28  30  17    31  33  20    34  36  22    32  34  20    28  30  16    31  33  19    29  31  18    27  29  16    25  27  14    23  25  12    24  26  13    25  27  14    26  28  17    26  28  20    25  28  19  
  32  39  32    33  40  33    33  40  33    31  38  31    31  38  31    32  37  31    31  36  30    29  34  28    36  41  34    39  44  37    32  37  31    32  37  31    37  42  36    38  43  36    41  47  35    41  47  33    47  53  39    41  47  33    31  37  25    34  38  29    41  44  33    46  49  38    49  53  38    43  47  32    39  43  29    38  40  27    45  47  34    47  49  35    41  43  29    44  46  32    53  55  41    53  54  40    52  54  41    45  47  34    33  35  22    28  30  16    33  35  21    34  36  22    30  32  18    27  29  15    30  32  18    29  31  18    27  29  16    26  28  15    25  27  14    26  28  15    27  29  16    28  30  19    29  30  21    27  29  19  
  32  39  32    32  39  32    32  39  32    31  38  31    32  39  32    33  38  32    32  37  30    29  34  28    35  40  33    41  46  39    32  37  31    31  36  30    38  43  37    37  42  35    36  42  30    38  45  31    40  46  32    38  44  30    30  35  24    31  37  27    39  42  31    43  46  35    45  49  34    40  44  29    49  53  39    40  42  29    40  42  29    41  43  30    39  41  27    45  47  33    52  54  40    49  50  36    52  55  41    45  48  35    32  34  20    28  30  16    34  36  22    33  35  21    29  30  17    30  32  18    29  31  17    28  30  17    28  30  17    27  29  15    27  29  15    28  30  17    28  30  17    29  31  20    27  29  18    27  29  18  
  33  40  33    33  40  33    32  39  32    31  38  31    32  39  32    35  40  34    33  38  32    30  35  29    36  41  34    44  49  42    32  37  31    28  33  27    38  43  37    36  41  34    32  38  26    37  43  29    35  41  27    38  44  30    33  39  27    33  39  29    36  42  30    41  44  33    44  48  33    42  46  31    46  50  36    38  40  27    40  42  29    43  45  31    41  43  29    46  48  34    52  54  40    48  49  35    46  48  35    48  50  37    35  37  24    25  27  13    31  33  19    36  38  24    32  34  20    32  34  20    30  32  18    29  31  18    29  31  18    28  30  17    28  30  17    27  29  16    27  29  16    27  29  18    24  26  15    26  28  17  
  31  38  31    34  42  34    38  45  38    38  44  38    34  41  34    32  37  31    30  35  29    30  35  29    34  39  33    37  42  36    32  37  30    36  41  34    39  45  35    35  41  31    36  42  32    39  45  35    37  42  35    35  40  33    33  39  29    30  36  26    33  36  25    42  46  32    47  51  37    46  50  36    42  46  31    42  46  31    41  45  30    46  48  34    44  46  32    42  44  30    48  50  36    51  53  39    50  52  39    46  48  35    32  34  21    34  36  22    31  33  19    34  36  22    34  36  22    32  34  20    30  32  19    35  37  24    35  37  24    29  31  18    26  28  15    27  29  16    29  31  20    28  30  19    26  27  19    25  26  18  
  31  38  31    32  39  32    34  40  34    35  42  35    34  41  34    34  39  33    31  36  30    30  35  28    35  40  34    37  42  36    34  39  32    37  42  35    40  45  35    36  41  31    36  42  32    38  44  34    38  43  36    34  40  32    35  40  30    37  43  31    39  42  31    39  43  29    40  45  30    40  44  30    47  51  36    45  49  34    41  45  30    46  48  34    46  48  34    42  44  30    45  46  32    44  46  32    46  48  35    46  48  35    37  40  26    40  42  28    34  36  22    35  37  23    34  36  22    33  35  21    29  30  17    32  34  21    33  35  22    30  32  19    27  30  16    28  30  17    29  30  19    26  28  17    25  26  18    24  25  17  
  33  40  33    33  40  33    33  40  33    34  41  34    35  42  35    36  41  35    33  38  32    31  36  30    35  40  34    37  42  36    33  38  31    36  41  34    38  44  34    38  44  34    42  48  38    43  49  39    39  44  36    34  40  30    35  41  31    39  45  33    41  44  33    40  44  30    42  46  32    42  46  31    48  52  37    46  50  35    41  45  30    48  50  36    50  52  38    46  48  34    47  49  35    47  49  35    42  44  31    45  47  34    39  41  28    43  45  31    36  38  24    35  37  23    33  35  21    32  34  20    29  31  17    31  33  19    31  33  20    29  31  18    29  31  18    30  32  19    28  30  17    25  27  14    26  28  17    26  27  18  
  31  38  31    31  38  31    32  39  32    31  38  31    31  38  31    31  36  30    30  35  29    30  35  28    38  43  37    39  44  38    36  41  34    37  42  35    37  43  33    37  43  33    41  47  37    40  46  36    40  46  36    37  43  33    38  44  34    37  43  31    39  43  30    42  46  32    45  49  34    43  47  32    45  48  33    45  50  35    42  45  30    46  48  35    49  51  37    43  45  31    44  46  32    45  47  33    43  45  32    45  47  34    39  40  28    44  45  32    39  41  27    38  40  26    35  37  23    32  34  20    31  33  19    30  33  19    29  31  17    28  30  16    29  31  18    30  32  19    29  30  18    26  28  15    25  26  16    25  27  16  
  30  37  30    31  38  31    32  39  32    32  39  32    30  37  30    29  34  28    29  34  28    30  35  29    34  39  33    37  42  36    38  43  36    41  46  39    39  46  36    39  45  35    41  47  37    35  41  31    37  43  33    38  44  34    41  47  35    39  46  34    42  46  32    47  50  37    48  52  37    43  47  32    43  47  32    46  50  35    42  46  31    46  48  34    49  51  37    42  44  30    42  44  30    45  47  33    44  46  33    45  47  34    38  40  27    43  45  31    39  41  27    40  42  28    36  38  24    33  35  21    33  35  21    32  34  20    30  32  18    29  31  17    29  31  17    30  32  19    30  32  19    29  31  18    25  27  14    26  28  17  
  32  39  32    32  39  32    32  39  32    33  40  33    33  40  33    34  39  33    32  37  31    31  36  30    32  37  31    35  40  34    36  41  34    40  45  38    39  45  35    40  46  36    44  50  40    38  44  34    34  40  30    35  41  31    39  45  33    43  49  37    46  50  36    47  52  37    47  52  37    45  49  34    43  47  32    45  49  34    39  44  29    45  47  33    52  54  40    47  49  35    46  48  34    49  51  37    41  43  30    44  46  33    39  41  28    44  46  32    38  40  26    38  40  26    35  37  23    33  35  21    33  35  21    32  34  20    32  34  20    31  33  19    31  33  19    31  33  19    30  32  19    30  32  19    27  29  16    28  30  19  
  31  38  30    31  38  31    31  38  30    33  40  32    35  41  34    35  40  34    33  38  32    31  36  29    36  41  35    37  42  36    36  41  34    36  41  34    36  42  32    38  45  35    42  48  38    39  45  35    40  46  36    35  42  32    38  44  32    44  50  38    45  50  35    45  48  33    45  49  34    44  48  33    43  47  32    44  48  33    37  41  26    44  46  32    51  53  39    49  51  37    43  45  31    47  49  35    41  43  30    44  46  33    42  44  31    45  47  33    39  41  27    37  39  25    36  38  24    35  37  23    33  35  20    32  34  19    33  35  21    35  36  22    33  35  20    31  33  19    31  32  19    31  32  19    27  30  17    27  29  16  
  32  39  31    33  40  32    33  40  32    34  41  33    34  41  33    35  40  33    35  40  33    35  40  33    36  41  35    38  43  37    37  42  35    35  40  33    38  44  34    41  47  37    42  48  38    42  48  38    40  48  37    39  47  36    39  45  33    42  48  36    47  53  39    47  51  36    44  48  33    46  50  35    46  50  35    44  48  33    40  44  29    46  48  34    49  51  37    51  53  39    42  44  30    50  52  38    45  47  33    42  44  30    43  45  31    43  45  31    39  41  27    37  38  24    38  39  25    37  38  24    34  35  19    32  33  17    34  35  21    36  37  23    34  35  21    32  33  19    33  34  20    32  33  19    27  30  19    26  29  18  
  34  41  33    33  40  32    32  39  31    32  39  31    35  40  33    35  40  34    35  40  33    35  40  33    37  42  36    39  44  38    40  45  38    40  45  38    40  47  37    41  46  36    42  48  38    45  51  41    36  44  33    41  49  38    39  45  33    39  45  33    47  53  39    46  51  36    41  45  30    47  51  36    45  49  34    45  49  34    43  47  32    48  50  36    49  51  37    51  53  39    41  43  30    49  51  37    50  52  38    43  45  31    41  43  29    42  45  31    42  44  30    42  43  29    40  41  27    37  38  24    37  38  22    33  34  18    34  35  21    37  38  24    37  38  24    36  37  23    33  34  20    29  30  16    26  29  18    26  29  18  
  32  39  31    31  38  30    29  36  28    31  36  29    33  38  31    34  39  32    32  37  30    30  35  28    35  40  34    36  41  35    37  42  35    40  45  38    43  49  39    41  47  37    41  47  37    47  53  43    37  45  34    37  45  34    39  45  33    40  46  34    40  45  32    44  48  33    45  49  34    46  50  35    42  46  31    44  48  33    45  49  34    50  52  38    49  51  37    49  51  37    39  41  27    43  45  31    54  56  42    45  47  33    41  43  29    44  45  31    46  47  33    45  46  32    39  40  26    30  31  18    37  38  22    34  35  19    35  36  22    38  39  25    39  40  26    38  39  25    34  35  21    29  30  16    27  30  19    26  29  18  
  34  41  33    31  38  30    28  33  26    28  33  26    32  37  30    36  41  34    38  43  36    39  44  37    37  42  36    36  41  35    36  41  34    40  45  38    44  50  40    42  48  38    40  46  36    43  49  39    40  48  37    42  50  39    42  48  36    39  45  33    40  46  32    45  49  34    48  52  37    48  52  37    45  49  34    44  48  33    43  47  32    46  48  34    44  46  32    48  50  36    42  44  30    47  49  35    48  50  36    47  49  35    51  52  38    51  52  38    46  47  33    40  41  27    36  37  23    33  34  20    32  30  15    32  30  15    35  33  20    37  35  22    36  34  21    36  34  21    34  32  19    30  28  15    28  30  19    23  24  14  
  36  41  34    34  39  32    31  36  29    31  36  29    32  37  30    34  39  32    36  40  33    38  41  34    39  44  38    39  44  38    38  43  36    40  45  38    44  50  40    43  50  40    41  47  37    42  48  38    38  46  35    36  44  33    41  47  35    41  47  36    38  44  30    49  53  38    56  60  45    47  51  36    44  48  33    42  46  31    42  46  31    46  48  34    45  47  33    51  53  39    45  47  33    47  49  35    47  48  34    45  46  32    49  50  36    53  54  40    51  51  37    45  46  32    40  41  27    37  35  22    33  31  16    33  31  16    35  33  20    36  34  21    35  33  20    37  35  22    36  34  21    32  30  17    26  28  17    21  22  15  
  37  42  35    36  41  34    34  39  32    32  37  30    31  36  29    32  36  29    35  38  31    35  38  31    35  40  34    39  44  38    40  45  38    39  44  37    42  48  38    44  50  40    44  50  40    45  51  41    38  46  35    40  48  37    43  49  37    42  48  36    43  49  35    52  56  41    53  57  42    45  49  34    46  50  35    42  46  31    41  45  30    44  46  32    42  44  30    49  51  37    44  46  32    44  46  32    45  46  32    44  45  31    47  48  34    51  52  38    50  51  37    47  47  33    43  41  28    38  36  23    39  37  22    36  34  19    35  33  20    35  33  20    36  34  21    40  38  25    38  36  23    32  30  17    28  30  19    25  26  18  
  35  41  31    36  41  31    35  41  31    32  38  28    29  34  27    32  36  30    34  38  32    33  37  32    38  43  37    40  45  38    43  48  41    42  48  40    40  47  38    43  50  41    44  50  42    40  48  37    40  48  37    43  51  40    44  50  40    49  55  42    47  53  39    46  50  36    49  53  38    46  50  35    42  46  31    43  47  32    44  48  33    42  45  30    40  43  29    46  48  34    44  46  32    45  47  33    44  46  32    42  44  30    47  48  34    54  55  41    49  50  35    50  48  35    42  40  27    42  40  27    40  38  25    38  36  22    33  31  18    33  31  18    35  32  20    36  34  21    36  37  23    32  32  19    28  30  20    25  26  18  
  39  45  33    37  43  31    34  40  30    31  37  27    28  33  26    32  37  31    37  42  35    37  42  36    39  44  38    39  44  37    42  47  40    40  47  39    38  45  37    41  48  40    44  51  43    42  49  39    44  52  42    42  50  39    40  46  36    47  53  41    49  55  41    48  52  38    52  57  42    46  50  35    40  44  29    41  45  30    44  48  33    42  46  31    43  47  32    49  52  37    47  49  35    45  47  33    48  49  36    43  45  31    46  47  33    50  51  38    47  48  34    49  47  34    43  41  28    46  44  31    39  37  24    39  37  24    34  32  19    35  33  20    36  34  21    35  33  20    35  36  22    31  32  18    28  30  19    23  24  16  
  44  49  38    37  44  32    35  42  32    34  40  30    31  36  29    32  37  31    34  39  33    34  39  33    37  42  35    39  44  37    42  47  40    41  48  40    39  46  38    41  48  40    45  52  44    45  53  42    38  46  35    40  48  37    42  48  38    43  49  37    42  48  34    46  50  36    51  55  40    48  52  37    45  49  34    43  47  32    44  48  33    42  46  31    45  49  34    50  52  38    44  46  32    40  42  28    48  49  36    43  45  31    47  48  34    45  46  32    49  50  36    47  45  32    44  42  29    47  45  32    38  36  23    38  36  23    35  33  20    37  35  22    38  36  23    36  34  21    35  36  22    32  33  19    30  32  21    25  27  16  
  39  45  34    32  38  28    30  36  26    31  37  27    30  35  28    30  35  28    32  37  31    33  38  32    33  38  32    38  43  36    43  48  40    44  50  43    42  49  40    40  47  39    42  49  41    44  52  40    39  47  36    44  52  41    47  53  43    45  51  39    45  51  37    51  55  41    53  57  42    50  54  39    45  49  34    43  47  32    45  49  34    43  47  32    46  50  35    50  52  38    43  46  31    41  43  29    45  47  33    42  44  30    49  50  36    44  45  31    52  53  39    47  45  32    43  41  28    45  43  30    38  36  23    38  36  23    34  32  19    38  36  23    39  37  24    35  34  20    35  37  23    34  35  21    29  30  19    25  28  16  
  35  41  31    29  35  25    28  34  24    30  35  27    29  34  27    32  37  30    36  41  34    37  42  35    37  42  36    40  45  38    43  48  41    43  50  42    42  49  41    40  47  39    41  48  40    45  53  42    40  48  37    43  51  40    46  52  42    44  50  38    47  53  39    54  58  44    50  54  39    46  50  35    42  46  31    42  46  31    46  50  35    45  49  34    45  49  34    48  50  36    45  47  33    45  47  33    46  48  34    42  44  30    49  50  36    45  46  32    49  50  36    48  46  33    46  44  31    45  43  30    43  41  28    42  40  27    36  34  21    39  37  24    38  36  23    34  32  19    34  35  21    35  36  22    31  33  20    27  29  16  
  32  38  28    32  38  28    34  39  31    34  39  32    33  38  31    34  39  32    35  40  32    32  37  30    40  45  40    43  48  40    41  46  40    41  48  40    43  50  42    42  49  40    43  50  42    48  56  45    39  47  35    44  52  41    49  55  45    46  52  40    47  53  39    52  56  42    48  52  37    51  55  40    45  49  34    43  47  32    47  50  35    44  48  33    43  47  32    45  47  33    41  43  29    43  45  31    46  48  34    41  43  29    47  48  34    49  50  36    44  45  31    49  47  34    48  45  33    43  41  28    45  43  30    43  41  28    38  35  23    40  38  25    38  35  23    32  30  17    33  34  20    34  35  21    34  36  23    30  32  19  
  32  37  30    34  39  32    36  41  34    34  39  32    31  36  29    34  39  32    37  42  34    34  39  32    36  41  35    38  43  36    37  42  35    38  45  37    42  49  41    40  47  39    39  46  38    44  52  41    43  51  40    43  51  40    46  52  42    43  49  37    49  55  41    55  59  45    49  53  38    53  57  42    46  50  35    42  46  31    44  48  33    43  47  32    44  48  33    46  48  34    42  44  30    43  45  31    44  46  32    39  41  27    48  49  35    56  57  43    43  44  30    53  51  38    47  45  32    40  38  25    42  40  27    41  39  26    37  35  22    41  39  26    39  37  24    34  32  19    35  36  22    36  37  23    33  35  22    30  32  19  
