P3
50 50
255
  65  60  40    68  63  40    86  80  56    96  90  65   121 115  86   141 134 106   178 176 164   207 204 195   213 211 199   211 205 189   164 154 132   156 148 125    91  90  72    78  81  70   123 130 120   116 123 115    50  60  52    96 107 101   138 147 142   149 159 151   182 189 181   188 194 184   168 175 162   107 115 102    44  52  41    49  58  50    63  72  67    87  98  93    76  88  83    85  97  93   117 130 123   136 149 142   147 157 149   153 160 153   143 148 141   100 107  99    61  69  58    34  44  34    27  32  25    25  28  21    21  24  17    23  26  19    28  31  24    27  32  26    28  35  28    32  42  34    53  68  63    79  94  89    72  87  80    56  69  62  
  65  63  43    73  68  46    97  91  68   101  95  70   126 119  92   148 141 114   181 179 168   208 206 197   212 209 196   206 199 180   162 150 127   144 133 111    83  83  64   101 108  96   117 122 115    91  98  91    57  66  59   115 125 120   146 157 151   153 163 155   185 192 184   183 189 179   160 163 149    81  86  74    44  49  42    64  71  65    67  76  72    91 102  98    79  92  87    89 102  95   121 133 124   141 152 143   156 165 157   161 167 159   143 148 141    84  89  83    45  53  43    32  42  30    29  34  27    25  28  20    20  24  17    25  27  21    30  33  26    28  33  27    30  37  30    36  46  38    57  72  65    76  91  84    63  79  71    62  76  67  
  66  63  44    71  66  46    99  94  72    99  93  69   123 117  92   152 145 119   186 183 174   213 213 203   210 206 194   204 196 177   161 148 124   121 111  87    73  72  54   118 124 112   112 117 110    73  80  73    78  87  82   133 142 137   151 162 156   160 170 162   187 194 186   181 189 178   146 147 135    68  70  59    42  46  39    68  74  70    77  87  83    95 107 103    71  87  79    94 110 103   125 137 127   147 157 148   161 168 160   163 168 161   130 135 128    62  67  60    41  48  40    31  41  31    29  34  27    23  26  19    20  23  16    27  30  23    33  36  29    30  35  29    32  39  32    40  50  42    57  72  65    79  94  86    59  75  65    68  84  74  
  64  63  40    66  65  43    87  87  65    96  93  72   129 123 105   161 153 137   187 181 171   210 208 198   202 201 189   186 181 164   154 144 121   109 102  79    64  66  50   100 110 101    91  98  91    83  90  83    95 105  98   140 150 143   152 163 155   163 171 164   183 189 182   181 184 177   131 137 123    64  72  59    38  47  38    67  78  72    82  96  91    89 103  98    73  87  82   103 117 110   134 145 138   152 163 154   153 162 153   150 159 149   111 118 108    63  69  60    52  57  50    28  35  28    26  31  25    19  23  16    17  20  13    31  34  27    32  36  29    29  35  28    32  41  33    40  51  41    57  70  62    74  88  78    47  61  52    64  78  69  
  67  67  45    72  74  50    85  87  65    96  95  75   137 134 117   176 170 156   194 187 177   203 201 190   194 192 180   172 167 148   145 138 115   111 104  83    69  70  54    88  96  88    82  89  82   100 107 100   101 111 103   128 138 130   145 155 147   163 170 163   179 184 178   176 178 173   132 140 127    78  88  77    49  61  51    75  88  81    78  93  88    71  86  81    80  92  88   118 131 124   134 145 139   149 160 152   144 154 145   134 144 133   104 112 101    69  76  66    54  59  52    30  35  29    25  30  23    19  24  17    16  19  12    31  34  27    29  34  27    31  38  30    34  44  35    40  52  42    61  74  66    69  82  75    48  61  52    72  85  76  
  67  66  45    79  78  57    95  94  73   103 102  84   146 143 128   186 180 168   197 191 181   202 198 187   193 190 175   168 161 142   150 139 117   127 119  98    79  77  62    74  77  67    85  91  85   109 116 109   103 113 105   120 130 123   141 151 143   163 170 162   174 179 173   173 176 169   133 144 130    80  90  79    41  54  44    68  83  76    78  93  88    66  81  76    92 104  99   126 139 132   134 145 139   139 150 142   136 146 137   125 135 124   106 114 103    73  79  69    47  52  45    35  40  34    26  31  24    22  27  20    18  21  14    30  33  26    28  33  26    32  39  31    36  46  37    39  51  41    53  66  59    57  69  62    45  58  51    77  90  81  
  72  70  49    82  81  60    97  95  76   105 104  87   147 145 132   186 183 172   195 191 183   202 195 184   195 187 171   171 162 141   147 137 117   120 114  96    72  69  55    75  74  64    93 100  93   107 114 107   108 118 110   128 138 130   147 157 148   167 174 166   171 177 169   171 174 167   128 139 128    69  81  70    36  49  40    61  76  69    83  99  93    69  84  79    90 103  96   125 138 131   138 149 143   134 145 137   140 150 141   124 134 123   103 111 100    68  74  64    40  45  38    33  38  32    25  30  23    24  29  22    20  23  16    29  32  25    27  32  25    35  42  34    37  47  38    37  49  39    54  67  60    53  65  59    44  57  50    79  92  85  
  77  73  54    86  82  63   101  98  81   106 104  90   146 145 134   192 190 182   202 200 196   203 198 188   182 173 156   154 143 124   124 117  99   112 107  93    62  58  48    74  71  60   101 108 102   104 111 104   117 127 119   131 141 132   145 155 146   175 182 173   170 176 166   162 165 155   110 123 112    58  72  62    47  62  54    63  80  73    89 106 100    70  85  80    86  99  92   138 151 144   142 153 147   138 149 141   146 156 147   113 123 112    85  93  82    57  63  53    37  42  35    26  31  25    23  28  21    22  27  20    19  22  15    29  32  25    28  33  26    38  45  37    41  51  42    38  50  40    50  63  56    48  61  54    44  57  50    85  98  91  
  73  68  49    88  82  65   112 107  92   111 109  96   143 143 133   195 196 188   208 211 211   208 205 198   169 160 144   129 119 102    92  87  74   113 112 103    60  60  51    59  54  45   102 108 104    99 105 101   124 134 126   126 136 127   140 150 141   183 192 180   166 172 161   152 155 144   103 115 105    54  70  60    50  67  59    61  78  72    95 112 106    68  85  79    78  93  86   140 153 146   143 154 148   142 153 145   142 152 143    95 105  94    68  76  65    43  49  39    30  35  28    23  28  22    24  29  22    22  27  20    17  20  13    26  30  22    27  32  25    37  44  36    41  51  42    40  52  42    45  58  51    37  50  43    41  54  47    89 102  95  
  72  67  48    92  85  69   119 113  99   106 105  92   138 138 130   202 203 197   212 219 221   207 206 201   165 156 141   124 115  98    64  62  50    95  96  90    55  55  49    65  60  53   100 106 102    93  99  95   125 135 127   125 135 126   142 152 142   190 198 187   160 166 154   150 153 142    98 114 103    54  70  60    45  62  54    55  73  67   100 117 112    69  86  80    79  94  87   143 156 148   144 155 149   141 152 144   132 142 133    86  96  85    66  74  63    32  38  28    22  27  20    27  32  25    29  34  27    24  29  22    17  20  13    25  28  21    25  30  23    34  41  33    39  49  40    40  52  42    41  53  49    26  39  32    37  50  43    92 105  98  
  70  63  45    88  91  72   117 119 105   114 110 101   144 141 136   204 209 205   210 221 217   200 201 187   165 155 130   123 117  93    54  58  43    95 104  96    52  53  48    70  61  54   108 108 104    90  97  90   122 138 128   125 140 131   148 158 149   193 196 187   165 167 154   141 145 130    96 112 101    53  69  58    50  68  57    55  75  64    99 116 106    82  97  90    91 103  98   146 158 154   153 165 155   134 146 136   101 113 103    79  92  82    62  74  64    24  34  25    22  27  20    29  32  24    30  31  25    24  25  19    24  27  19    22  27  20    21  28  20    32  42  33    42  54  44    42  54  44    34  44  39    24  37  30    61  76  69    90 105  98  
  74  66  51    85  88  70   119 120 106   119 115 106   149 146 141   207 212 206   220 227 225   192 190 178   158 148 126   119 113  92    48  50  38    92  97  94    45  45  43    75  68  63    98  98  96    84  91  87   127 142 136   135 150 144   157 167 160   192 195 189   155 158 149   138 142 130    85 100  94    55  70  65    50  67  60    55  72  66    94 111 103    76  91  84    92 105  98   148 159 152   145 157 147   130 142 132    88 100  90    77  90  80    48  60  50    24  34  25    25  30  23    23  27  19    25  26  20    21  24  17    19  23  16    20  25  19    27  34  26    37  47  38    39  51  41    36  48  38    29  40  34    30  43  36    82  97  89   100 115 108  
  75  67  54    93  95  80   128 130 116   121 117 108   154 151 146   211 216 210   222 224 225   186 183 172   158 150 131   110 103  86    47  48  38    89  91  92    41  41  41    82  78  74   102 103 100    85  94  90   131 146 140   143 156 152   162 171 167   193 195 191   150 154 147   131 138 127    76  91  88    47  63  60    41  57  54    57  73  70    93 110 104    80  95  88   103 115 108   148 158 150   148 160 150   121 133 123    76  88  78    75  88  78    39  51  41    22  32  23    22  27  20    19  22  15    24  27  20    26  29  22    18  23  16    19  25  18    32  39  31    39  49  40    37  48  39    33  45  35    27  39  32    50  63  56   104 119 112   108 125 117  
  74  65  53    95  98  82   124 126 113   117 113 105   162 159 154   213 218 212   222 222 224   180 177 168   156 151 131    94  89  71    59  59  51    83  87  85    39  43  38    81  83  71   103 108  96    90 101  89   135 152 138   145 159 148   160 168 159   186 189 180   143 149 137   119 129 114    71  87  78    47  64  56    40  56  50    62  79  74    97 112 107    82  96  88   105 116 108   149 159 150   145 157 147   109 121 111    83  95  85    72  85  75    41  53  43    25  35  26    21  26  19    20  23  16    19  23  16    26  30  24    19  24  17    21  28  20    35  42  34    36  46  37    38  48  39    36  47  38    26  39  32    74  87  80   109 124 117   106 123 115  
  84  77  59    99 102  84   124 127 110   124 120 111   178 174 169   211 216 210   218 218 218   170 170 158   147 145 125    83  85  63    72  74  60    79  85  74    59  70  51   108 120  93   124 134 106   123 138 111   156 175 148   156 172 147   162 172 149   175 182 161   144 153 129   128 143 115    80  98  75    47  66  47    41  59  43    67  85  74    93 108 101    86  99  91   107 117 109   137 144 136   122 134 124   105 117 107   105 117 107    72  85  75    48  60  50    33  43  34    29  34  27    26  29  22    22  27  20    33  38  31    30  37  29    36  43  35    44  51  43    38  48  39    40  50  41    42  52  43    40  53  46    91 106  98   106 121 114   101 118 110  
  95  90  67   102 106  83   125 128 110   121 117 106   173 170 165   202 207 202   202 202 200   158 160 146   137 142 116    94 100  72    86  94  73    92 101  81    87 102  72   118 140  98   129 146 100   143 162 117   154 175 133   148 166 127   162 174 137   164 174 138   140 153 114   147 165 124   114 137  97    81 103  67    60  80  52    72  91  71   102 119 107   101 112 104   100 110 102   121 128 120    98 110 100   102 114 104   104 116 106    64  77  67    51  63  53    39  49  40    38  43  36    36  39  32    31  38  30    38  45  37    37  44  36    48  55  47    49  59  50    40  50  41    46  56  48    51  61  52    58  73  66    92 107 100   103 119 112   101 118 110  
  99  94  68   110 113  90   126 129 112   111 108  98   148 145 140   174 175 171   169 169 166   134 137 123   120 128 101   102 111  82   106 115  92   115 128 103    99 116  82   105 131  83   128 146  93   147 167 113   147 169 115   143 161 113   160 174 129   149 162 117   131 149  99   142 164 110   127 151 101    93 117  73    80 102  69    85 105  83   100 116 103   104 116 107   106 116 107   113 121 112    99 111 101    99 112 102    88 101  91    58  70  61    48  59  50    32  42  34    30  37  29    31  35  28    30  35  28    33  39  32    33  40  32    45  53  45    49  59  50    44  53  44    51  59  50    56  65  55    64  77  69    86 101  92   103 120 112   102 120 112  
  95  94  70   112 115  95   118 120 107   117 118 110   147 143 138   156 150 147   139 138 133   118 119 106   119 124 103   110 118  96   113 124 105   113 127 106    91 108  78   109 129  91   122 145  97   144 165 113   146 166 111   147 164 113   152 170 125   133 152 105   132 154  99   133 158  95   113 137  90    89 113  73    86 110  80    94 115  97   103 120 109   107 120 111   108 120 110   109 119 108    88 101  91    79  92  82    72  84  75    51  62  54    41  52  44    29  37  30    25  33  26    26  33  26    28  30  25    29  34  28    30  37  30    40  50  41    47  57  48    44  51  43    45  51  42    48  54  44    57  67  56    93 107  95   112 129 119   100 119 112  
  95  92  72   119 121 106   125 127 116   131 134 126   161 161 155   159 157 153   139 137 132   115 117 105   128 132 116   119 126 108   109 120 106   109 121 106    90 105  85   102 120  94   103 126  90   120 142 104   129 149 107   137 154 115   153 169 133   137 152 114   103 120  75   108 128  76    78  99  63    66  86  56    77  98  77    98 118 105   107 124 116   111 125 118   112 123 115   112 122 112    84  95  87    76  88  80    77  87  79    47  58  50    33  41  34    30  35  29    24  30  24    20  26  20    23  25  20    25  30  24    26  33  26    34  44  36    39  49  40    36  43  35    40  47  39    47  52  44    39  51  40    93 106  97   111 127 119    91 111 105  
  90  87  72   125 127 116   133 136 129   148 152 146   180 183 176   172 173 167   162 162 155   127 129 118   130 133 122   114 121 110   107 117 108   112 123 114    89 102  92    97 113 101   104 127 108   103 124 104   117 136 112   137 153 128   154 168 142   142 156 129    89 100  69    89 101  65    46  64  43    50  68  51    70  89  76   100 117 111   112 128 124   112 127 122   105 118 109   110 122 112    86  96  88    76  86  78    83  91  84    49  57  50    31  36  30    33  38  32    29  32  27    25  28  22    26  28  23    28  33  27    26  33  26    30  40  32    34  44  36    32  42  34    40  47  40    47  52  45    36  49  39    97 111 104   107 126 120    88 109 104  
  92  88  78   128 129 123   132 137 131   158 163 158   187 189 182   175 178 171   163 166 155   129 132 123   125 130 123   110 117 110   117 126 121   122 133 127    87  99  98    96 108 108   104 124 116   104 124 116    99 116 107   134 150 138   153 167 150   124 136 116    78  87  69    70  77  60    39  52  42    50  66  56    72  89  83   105 121 118   114 130 129   109 125 122    92 107 100    99 112 103    88  97  92    75  84  79    82  88  84    49  57  50    30  35  29    29  34  28    27  29  24    26  28  23    24  27  22    26  31  25    25  32  25    29  39  31    34  44  36    32  42  34    36  43  36    39  44  39    46  61  55   107 124 118   111 130 126    85 107 104  
  98  96  89   129 130 128   130 134 133   164 168 165   182 185 178   176 176 168   158 162 150   130 134 127   128 133 130   111 117 115   120 130 125   125 135 130    84  96  96    98 109 113   108 123 120    95 110 110    80  96  95   115 132 125   150 164 152   114 126 113    65  73  64    58  62  59    45  56  50    56  68  64    75  90  87   108 124 123   113 129 128   110 126 123    89 104 100    93 108 101    78  89  84    69  80  75    71  80  75    44  54  49    31  38  31    26  32  26    25  30  23    25  31  23    21  26  20    26  32  26    27  35  28    33  43  35    37  48  40    34  44  37    37  43  39    37  43  39    50  65  61   108 125 123   109 129 128    81 103 102  
 104 104  99   131 134 134   130 134 136   166 168 167   175 175 169   175 174 165   164 170 156   136 141 135   136 142 142   116 122 122   122 131 126   126 137 130    86  98  98   102 113 119   110 123 121    84  98  99    80  95  97   113 129 126   143 159 148   108 121 109    74  83  79    73  77  82    61  72  66    71  82  78    76  91  88   102 118 116   106 124 122   104 120 119    80  96  93    90 105 101    70  82  78    70  82  78    67  79  72    44  55  49    34  44  36    28  36  29    26  34  26    24  31  23    24  29  22    29  36  28    28  38  30    32  43  35    35  46  38    34  43  38    42  48  44    45  51  47    51  67  65   101 120 118   104 125 123    80 101 102  
 100 102 100   129 134 136   135 144 142   154 162 156   162 163 157   174 170 165   168 170 162   148 153 147   139 145 143   121 130 129   122 133 132   117 129 126    85  97  97    99 110 112   102 116 119    88 102 105    79  96  97   124 142 138   136 152 144   105 120 109    84  96  86    86  96  88    73  86  81    67  81  76    76  91  88    86 104 101    94 113 109    86 103  99    75  91  85    85  99  91    72  85  78    73  85  78    73  87  78    47  59  51    38  49  41    26  36  28    30  36  29    29  33  26    27  32  25    30  38  30    29  39  30    29  40  32    33  44  37    34  44  38    41  50  45    52  58  54    62  77  77    96 113 113   101 121 119    80 100  99  
 113 115 114   133 141 143   134 145 141   151 158 151   161 162 156   178 174 171   167 170 163   143 148 142   135 144 141   119 129 128   115 128 128   117 129 129    93 105 105    98 110 110    90 105 108    81  96  99    82 101  99   132 150 147   130 146 138   109 125 114    91 105  92    84  96  84    75  90  85    70  85  80    70  85  83    76  95  91    90 109 105    75  93  86    74  89  82    84  97  88    70  83  76    74  87  79    79  93  84    53  66  57    46  57  49    29  39  32    28  33  27    27  30  24    30  35  29    32  39  32    28  38  30    28  39  31    35  46  40    38  49  43    44  53  48    55  61  57    62  76  77    98 114 114    99 118 116    76  96  94  
 118 122 123   136 144 147   138 147 144   163 168 162   164 165 159   168 168 163   150 155 149   122 129 125   134 145 141   121 134 134   111 125 125   119 133 134   100 114 114    91 103 103    89 103 106    80  96  96    85 104 102   123 142 138   119 136 128   102 118 108    87 100  90    81  93  82    71  86  81    67  82  77    66  82  79    73  92  88    89 106 103    77  94  88    74  89  82    89 102  93    71  82  76    75  87  81    74  87  80    48  61  52    44  55  47    30  39  32    27  32  26    30  32  27    31  36  30    32  39  32    28  38  30    28  39  31    38  49  43    44  55  49    47  56  51    54  60  56    50  66  66   102 118 118   107 125 125    76  95  93  
 116 122 122   132 142 144   141 147 146   177 178 173   163 164 158   153 154 149   129 137 131   107 116 112   134 146 144   126 141 141   116 133 133   120 137 137   104 119 118    95 110 109    93 107 107    71  86  86    88 103 102   131 150 145   119 138 130    96 113 103    83  97  87    72  85  75    75  90  85    64  79  75    75  91  88    80  98  95    88 104 100    84  99  92    71  85  76    86  98  88    67  77  72    71  82  76    64  75  69    38  49  43    35  46  38    29  36  29    25  30  24    33  35  30    30  35  29    33  40  33    28  38  31    29  40  32    37  48  42    40  51  45    43  52  47    51  57  53    55  73  73   103 121 121   107 125 125    72  90  90  
 117 127 127   134 145 147   142 147 147   181 181 176   157 157 152   141 144 138   105 117 112    98 111 108   133 148 146   129 146 146   123 142 142   116 134 134   106 123 122   108 124 123   103 116 116    79  93  92    76  92  89   122 141 135   125 144 138    77  94  86    54  69  61    64  77  68    67  82  77    65  81  78    82  98  95    94 110 107    94 111 105    91 105  98    76  88  79    82  93  83    61  68  64    64  73  68    57  67  61    37  47  41    34  43  37    30  37  30    23  28  22    29  31  26    28  33  27    32  39  32    31  41  33    33  44  36    37  48  42    35  46  40    37  46  41    48  54  50    65  85  84   109 128 127   113 131 131    78  94  94  
 114 126 126   135 148 149   145 149 150   185 182 178   148 147 142   123 130 122    85  99  94    95 111 108   133 151 150   132 151 151   128 148 148   110 130 129   105 123 122   105 123 121   106 118 117    70  85  82    66  82  79   126 145 139   126 145 139    61  78  70    45  60  53    54  68  61    63  78  73    78  94  91    92 108 105   102 118 115   102 118 112    94 107  98    69  81  71    74  84  73    55  60  56    56  63  58    49  58  53    35  43  38    29  38  33    30  37  32    26  31  25    28  30  25    29  34  28    31  38  31    33  43  35    38  49  41    40  51  45    31  42  36    32  41  36    45  51  46    84 104 105   120 140 140   116 133 133    77  93  93  
 113 127 127   138 152 153   148 149 151   183 178 175   138 137 132   112 119 111    86 102  99   105 121 120   139 157 157   134 154 154   126 147 148   108 128 127   110 128 128   104 123 121   105 117 115    53  68  65    55  72  66   126 145 139   112 131 125    44  61  54    46  61  54    45  60  53    63  78  73    87 102  99   105 121 118   103 119 116   106 121 116    99 112 103    57  67  56    71  79  66    45  49  48    45  51  47    42  51  46    34  43  38    28  37  32    34  39  36    29  34  29    29  31  28    31  36  30    30  37  30    33  43  35    42  53  44    44  55  49    33  44  38    30  39  34    43  49  45    98 119 120   133 153 154   119 137 137    74  90  90  
 128 136 138   149 156 162   145 150 153   160 163 162   130 136 132   106 117 111    97 111 111   104 120 119   139 155 155   147 163 163   123 141 141   104 124 125   115 135 135   115 135 135    99 115 114    42  58  55    44  60  57   132 148 145   125 142 136    32  47  42    37  49  45    52  65  61    71  92  93   105 125 124   107 127 126   103 122 120   107 123 120    74  88  83    50  63  56    73  84  78    37  49  45    39  51  47    34  45  39    27  38  32    28  37  32    31  38  31    31  36  30    29  34  28    31  38  31    29  36  29    30  37  29    40  50  42    41  51  42    32  43  35    24  35  31    45  55  54   102 121 125   133 151 155   112 132 133    64  82  84  
 123 131 133   151 160 165   152 157 160   155 159 158   121 127 123   104 115 111    92 106 106   107 123 122   146 162 162   150 166 166   122 140 140   108 126 127   121 141 141   120 140 140    88 104 103    40  55  53    52  68  65   137 153 150   120 136 132    33  48  43    41  56  51    52  67  62    73  94  95   109 129 128   110 128 128    95 111 110    90 105 102    64  75  72    44  57  50    65  76  70    33  45  41    39  50  47    38  49  43    32  43  37    31  41  36    33  40  33    30  35  30    27  32  26    30  36  32    33  40  33    32  40  32    37  47  38    38  48  40    35  46  40    29  40  36    43  53  52   112 131 136   137 156 160   110 130 131    59  78  79  
 128 138 140   151 160 165   152 157 160   154 158 157   115 122 119   103 113 111    99 114 114   116 132 132   148 164 164   143 159 159   117 134 134   110 128 128   124 142 142   115 134 134    76  92  89    37  53  50    63  79  76   142 157 154   113 128 125    33  49  46    50  68  63    60  78  73    82 102 103   112 132 131   108 126 126    90 106 105    84  99  96    63  75  71    45  57  51    57  68  62    28  40  36    37  49  45    40  51  45    34  45  39    33  42  37    34  41  34    30  35  29    25  30  24    30  36  32    32  41  33    33  43  35    39  49  40    37  47  39    32  43  37    29  40  36    49  59  58   114 133 137   136 155 159   108 128 129    55  75  76  
 136 146 148   146 157 161   148 155 156   155 161 159   113 122 119   101 113 111   100 116 116   123 139 139   149 165 165   135 151 151   110 126 126   107 124 123   122 139 138   115 134 132    65  81  78    38  53  50    77  92  89   152 164 162   111 126 122    35  50  48    56  77  72    66  88  83    90 110 111   110 130 129   104 122 122    85 101 100    74  89  85    55  67  63    46  57  51    61  72  66    26  38  34    37  49  45    39  50  44    32  43  37    31  40  35    33  40  33    30  35  29    25  30  24    30  39  34    33  42  36    35  45  37    43  53  45    39  50  42    33  44  38    31  42  38    55  66  65   107 126 130   132 151 155   108 128 129    55  75  76  
 134 145 149   142 153 157   149 158 157   158 164 162   111 120 117   104 116 115   104 120 120   127 144 144   147 163 163   130 146 145   113 129 128   109 125 124   116 133 131   112 129 128    68  84  81    50  65  62    93 106 104   151 163 161   103 117 116    34  53  51    63  85  82    73  98  94    95 115 117   104 123 123    96 114 114    81  97  96    68  83  80    51  63  59    45  56  50    59  70  64    28  40  36    38  50  46    39  50  44    32  43  37    31  40  35    35  42  35    32  37  31    27  32  26    31  40  35    36  45  40    35  45  37    37  48  40    37  48  40    40  51  45    37  48  46    53  65  63    97 117 118   122 142 143   104 124 125    57  78  79  
 137 148 152   138 150 152   145 154 153   155 162 159   108 118 117   107 121 121   116 132 132   133 149 149   141 157 157   124 139 139   118 134 133   109 125 124   107 122 119   103 119 116    67  83  80    63  78  75   108 120 118   152 162 161   101 113 113    40  59  57    68  93  89    72 100  95    95 115 116    97 115 115    87 104 104    75  91  90    66  81  78    53  65  61    46  57  51    52  61  56    29  41  37    38  50  46    38  49  43    30  41  35    31  40  35    36  43  36    33  38  32    26  31  25    31  40  35    38  47  42    36  46  38    35  45  38    33  44  36    36  49  43    39  51  49    61  73  71   102 122 123   121 141 142   100 121 122    57  78  81  
 141 152 156   134 147 149   138 149 148   146 157 152   106 117 116   111 125 127   116 131 132   136 151 152   140 155 155   116 132 131   112 129 128   103 119 118   102 118 116   104 120 118    74  89  86    76  91  88   113 124 122   143 154 153    95 107 106    46  65  62    78 101  97    80 106 102    93 113 114    94 112 112    82  99  99    69  84  84    56  69  66    48  60  55    45  56  50    52  61  56    31  40  36    34  46  42    34  47  41    28  41  36    30  40  35    36  42  36    32  36  30    23  28  22    38  45  42    41  50  45    39  51  42    38  50  42    34  45  37    33  45  41    43  56  54    73  86  86    98 117 118   116 135 136    96 116 117    56  76  79  
 138 147 152   137 148 152   140 152 152   140 155 152   105 119 119   113 127 129   120 134 135   136 150 151   143 159 159   116 132 132   103 121 121   102 122 121   104 124 123   100 120 119    73  85  83    84  96  94   113 123 122   143 155 153    96 108 106    54  70  67    87 106 102    91 112 107   100 118 120    96 114 115    77  95  95    65  81  80    48  63  60    44  56  52    42  53  47    48  59  53    35  38  37    31  43  39    32  50  46    30  47  44    31  42  38    35  40  36    29  33  27    24  30  23    42  46  42    44  53  48    35  51  41    35  51  41    34  45  39    39  48  47    49  61  61    70  87  87    89 107 108   112 131 131    96 115 116    56  76  77  
 144 153 158   140 151 155   135 147 147   136 151 147   105 119 117   107 122 122   124 138 139   140 154 155   142 158 158   113 129 129    97 116 116   110 130 129   107 127 126   100 120 119    59  71  68    73  85  82   122 133 130   147 159 157    88 100  98    53  69  65    91 110 106    96 117 112    99 117 117   101 119 119    79  96  95    55  70  68    48  61  59    42  54  50    42  53  47    44  55  49    31  36  35    30  44  39    35  55  50    34  54  50    32  44  40    29  37  32    25  32  25    27  36  28    40  45  41    43  53  48    34  50  40    40  54  46    30  41  35    40  50  49    50  63  63    72  92  91    94 112 116   111 130 133    96 116 119    56  77  79  
 148 157 164   135 146 150   129 143 143   129 144 139    96 112 109   106 122 122   126 140 140   152 166 166   142 158 157    84 100 100    97 116 114   113 133 131    99 119 117    92 112 110    50  62  58    78  90  86   141 152 148   147 159 155    77  89  87    61  77  74    99 118 114    92 113 108    97 116 114   104 123 121    83  98  97    50  62  60    45  56  53    38  49  45    42  53  47    37  48  42    27  36  33    29  44  39    33  54  49    33  54  49    35  49  44    34  43  38    27  36  29    27  37  28    43  49  44    44  55  49    39  54  47    39  52  45    26  37  33    38  48  47    59  75  75    80 101 102    82 103 108   100 121 126    96 120 122    55  79  81  
 145 156 163   131 142 146   131 144 144   129 144 139    89 106 102    99 116 114   147 161 161   157 171 171   142 158 157    83  99  98    98 117 115   117 137 135    97 117 114    86 106 104    34  47  40    86  99  92   153 164 160   141 153 149    72  84  82    71  88  85   111 130 126   101 122 117   107 127 125   104 122 118    75  90  87    41  52  48    36  45  42    35  45  40    46  57  51    31  44  37    25  34  31    31  46  41    35  56  51    30  51  46    34  48  43    37  46  41    29  39  31    25  35  26    43  49  47    43  54  48    50  65  58    39  52  44    31  40  37    40  50  49    70  88  88    83 109 108    73  92  98    88 109 112    88 112 114    47  72  71  
 151 162 168   134 146 150   129 143 143   124 140 135    85 103  97   100 116 115   144 158 158   160 174 174   139 155 154    80  96  95    96 115 113   129 149 147    88 108 106    71  91  89    28  41  32   101 114 107   156 167 161   130 142 138    74  86  82    80  96  94   118 137 134   110 130 129   113 134 128   100 117 113    59  71  67    37  45  43    38  44  41    42  50  45    45  56  50    22  35  28    26  32  30    36  50  45    39  59  55    28  48  44    30  41  37    32  40  35    28  35  28    28  37  28    46  55  52    45  57  51    53  68  61    35  47  40    30  39  36    46  58  56    83 104 103    85 114 112    58  72  75    81 100 101    87 109 109    55  81  80  
 151 162 168   130 144 147   134 148 148   124 141 135    81  98  92   105 121 120   143 157 157   161 175 175   141 157 156    76  92  91   105 124 122   128 148 146    71  91  89    48  68  66    33  46  37   122 135 126   157 168 162   116 128 123    80  92  88    97 113 110   126 145 143   107 127 125   115 136 129   100 117 111    46  58  54    33  39  36    39  45  41    48  54  50    42  53  47    24  37  30    29  32  31    37  48  44    38  56  52    29  46  43    29  40  36    30  35  31    28  31  26    34  40  32    47  57  54    46  58  54    50  65  58    36  47  41    30  39  36    58  70  70    90 112 110    81 112 110    50  62  63    79  95  95    81 103 101    65  91  89  
 153 162 165   133 143 145   136 147 146   119 133 130    81  97  93   109 127 123   150 165 161   162 178 174   139 155 152    71  87  84   111 128 125   123 143 139    58  80  75    37  61  56    42  58  48   141 156 146   141 154 148   115 131 125    80  95  90    99 115 112   130 149 147   108 127 125   121 139 135    88 104  98    35  48  42    31  41  34    39  48  41    38  47  40    40  51  45    29  41  36    30  37  33    32  42  37    33  46  41    29  41  36    30  41  36    29  37  32    24  29  25    33  38  34    43  55  51    43  55  51    56  68  62    38  50  44    25  38  34    62  77  75    95 115 114    75  99  99    46  57  57    77  97  95    71  95  92    69  90  89  
 141 149 151   133 141 143   133 143 142   110 125 122    87 102  99   122 141 137   146 162 159   160 176 173   133 148 145    63  78  75   100 116 113   109 130 125    59  82  76    64  89  83    76  92  82   141 156 149   126 141 134   123 140 134    76  92  89    86 102  99   130 149 147   116 135 133   115 131 128    69  84  79    33  46  39    37  48  40    37  47  39    31  42  34    39  50  44    31  43  39    25  34  29    29  38  33    34  45  39    31  42  36    32  43  37    29  38  33    23  29  25    33  38  34    39  51  47    42  53  49    53  64  58    32  45  38    27  42  37    68  84  81    98 118 117    72  93  94    41  51  52    76  96  94    82 105 103    78  96  96  
 140 148 150   117 125 127   113 123 122   112 127 124   106 123 120   123 142 139   140 159 155   149 165 162   117 133 130    58  74  71    94 110 107    96 115 111    62  85  79    84 108 102   104 119 112   142 157 150   113 129 124   110 127 121    76  92  89    84 104 100   129 148 146   113 132 130   103 119 116    51  66  61    34  47  40    40  51  43    30  40  32    28  39  33    38  49  43    34  46  42    21  30  25    26  35  30    37  48  42    34  45  39    32  43  37    30  39  34    23  29  25    34  39  35    40  52  48    46  57  53    51  62  56    30  40  36    31  43  39    67  83  80    92 112 110    67  89  87    43  50  53    69  88  86    83 103 102    77  93  93  
 137 145 147   116 123 126   106 116 116   108 122 122   112 131 130   128 148 146   138 156 155   137 154 153   109 125 124    62  78  77    83  99  98    77  97  93    68  90  86   100 123 117   115 130 125   142 157 152   117 133 128   109 125 122    72  89  86    76  95  93   132 151 149   123 142 140    98 114 111    52  67  63    42  54  48    40  51  44    28  38  30    32  43  37    41  52  48    41  53  49    21  30  25    27  36  31    41  52  46    36  47  41    32  43  37    31  40  35    23  29  25    35  40  36    42  53  49    44  55  52    53  64  60    37  48  45    30  42  40    59  75  72    90 110 107    69  91  87    50  55  58    74  90  89    86 105 103    81  96  96  
 134 142 144   113 122 123   107 118 118   115 129 129   118 137 136   127 147 145   129 148 148   127 145 145   111 127 126    75  91  90    79  95  94    70  89  87    82 102 100   109 132 126   123 138 134   128 143 140   107 123 120   108 124 122    75  94  92    64  83  81   119 138 136   114 134 132    91 107 105    58  73  70    48  60  56    39  50  44    31  40  34    35  46  40    40  51  47    41  53  50    26  35  30    30  39  34    45  56  50    37  48  42    31  42  36    34  43  38    25  31  27    34  39  35    43  54  49    37  48  44    49  59  57    44  54  54    33  45  44    56  72  69    93 112 108    73  94  88    47  53  56    76  92  91    89 108 106    84  98  98  
 130 138 140   107 117 118   107 119 119   125 139 139   120 138 138   124 144 143   126 146 147   125 143 144   108 123 125    78  94  94    81  97  96    72  91  89    90 110 108   109 131 125   114 129 128   128 144 143   110 126 124   104 120 119    85 104 102    63  82  80   105 125 123   109 129 127    90 106 105    62  77  74    50  62  58    42  53  47    35  44  39    37  48  42    42  53  49    42  54  52    29  38  33    28  37  32    45  56  50    37  48  42    32  43  37    36  45  40    25  31  27    31  36  32    45  55  50    38  49  45    46  55  54    43  53  55    35  47  47    55  70  67    89 108 103    68  89  82    48  58  59    72  90  89    90 110 108    80  94  94  
 129 139 140   106 116 117   106 117 119   123 139 139   116 134 134   127 147 146   122 142 143   131 149 151   113 128 131    80  96  96    80  96  96    68  87  85    86 106 104   104 125 120   115 131 130   128 144 143   109 125 124    97 115 113    84 103 101    65  84  82   113 133 131   121 141 139    90 106 105    57  72  69    41  53  49    39  50  44    30  40  35    31  42  36    42  53  49    42  54  52    29  38  33    26  35  30    44  55  49    37  48  42    33  44  38    39  48  43    25  31  27    28  33  29    41  52  46    44  54  50    47  56  55    39  49  50    35  47  47    53  68  65    84 103  97    66  87  78    50  62  62    73  93  91   100 122 119    78  92  92  
