P3
50 50
255
 130 125   7   139 132  30   147 140  53   115 110  34    99  98  42    50  49  21    31  32  15    23  29   7    44  43  13   133 123  79   222 203 157   226 200 156   168 141  82   107  92  24    88  81  13   110 101  26   170 155  83   123 120  54    79  89  23    54  63   7    45  62   7    78 100   1   138 162   4   211 226  72   239 248  96   211 227  33   208 227  29   155 183   6   200 211 118   249 246 230   245 240 241   247 248 215   225 236 149   199 227  93   202 234  77   173 196  56   140 150  45   169 173  67   156 158  35   129 127   2   149 153  18   129 127  23    95  87  19   112 110  11   132 141   1   166 187   1   166 183   9   134 139   8   107 109   8   127 120  45  
 132 127  10   140 134  29   150 145  49   119 114  36    86  81  36    39  33   8    31  26   4    78  71  42   176 162 129   243 221 187   206 182 134   134 114  48   109  90  25    82  75  15    71  72   5   103  99  20   163 150  73   123 119  49    87  96  33    46  57   3    64  87   1   144 173   7   186 207  34   217 231  65   189 206  31   156 176   1   161 190   1   122 156   6   186 203  99   221 224 148   218 218 143   194 201 106   173 191  48   176 204  27   168 196  23   129 146   8   125 132  32   121 121  30   110 105  13   114 106  21   124 123  16   111 103  35    79  68  23    83  76  19   103 107  11   138 152  15   105 118   7    75  81   7   140 143  51   155 145  76  
 142 136  22   139 134  23   132 128  23   111 105  28    62  54  12    44  33   3   111  99  54   209 184 146   231 204 163   164 141  83   106  88  23    78  66  14    73  68  20    68  66  22    61  65   6   104 104  24   157 147  66   125 122  47   116 125  61    67  78  18   121 144  23   169 194  34   148 169   8   137 154  16   144 163  31   166 197  33   160 200  15   117 154   8   152 172  55   194 203  87   208 214  88   163 174  31   143 158   8   135 150   1   128 141   1   124 131  19   112 114  32   115 115  34   125 125  38   100  98  25    67  67   7    64  60  16    70  67  14    84  84  22    92 100  17    97 108  14    67  81   1    72  81  15   161 159  68   141 130  50  
 128 123  12   134 131  20   132 127  28    95  85  16    66  51   8   141 124  79   228 207 151   207 179 120   140 117  49    95  76  19    71  57  12    59  53   9    59  60  18    59  56  19    59  63   2    97  98  19   147 140  59   129 128  53   124 134  70    93 102  36   149 164  53   126 139  39    66  75  11    75  91  15   116 141  36   176 213  77   129 170  11   113 143  24   170 190  84   207 222  81   199 207  65   142 148  15   116 118  11   101  98  12   111 106  22   145 143  59   120 119  45   131 133  55   120 124  45    64  63  16    44  45  15    60  60  28    63  63  20    74  77  17    67  76   2    62  73   1    79  95   1    93  99  14   181 169  73   174 157  89  
 127 123  14   130 125  25   128 119  41   129 114  59   189 168 119   225 202 147   182 159  97   121 105  38    85  70  21    78  67  21    70  65  15    78  74  26    85  81  34    77  68  21    85  85  15   117 119  40   161 155  85   136 137  73   119 128  68   135 141  70   147 149  62    76  75  33    37  39  16    79  95  23   161 188  80   196 227  96   173 211  37   188 218  73   213 231 122   185 203  46   182 187  63   144 140  46   112 106  20    95  88  17    86  82   9   112 111  19   100 100  17    92  91  29    80  80  26    44  41   6    43  47  10    57  59  19    63  66   7   113 123  15   154 173  17   162 187   1   182 212   5   132 148   2   170 164  50   206 186 119  
 130 126  19   142 135  45   187 174 115   223 203 160   214 191 139   159 129  74   104  78  30    74  69  24    68  67  18    65  65  15    78  76  24   101  92  36   112  98  37   106  93  31   112 110  30   121 123  46   148 143  83   138 140  86   134 141  86   154 159  84   102  98  36    57  55  10    64  75   2   132 157  31   157 187  39   200 228  66   203 233  57   188 216  65   167 187  67   180 190  80   203 197 142   159 153  68   125 117  25   105 101  16   142 143  48   123 127  36    84  82  19    87  88   6   123 130  23    80  79  17    34  35   1    42  44   1    85  92   1   152 167  10   152 170   1   173 195   1   165 188   9   112 134   6   168 171  62   212 197 119  
 149 133  42   220 202 155   228 208 176   209 188 135   161 141  73   101  86  28    78  73  23    61  64  11    63  64   7    83  82  18    93  87  30    95  83  36   102  91  32   107 102  30   114 105  33   147 133  63   147 139  75   152 154  96   160 164 107   118 117  60    64  67  17   103 111  15   171 190  49   153 184  37   129 169   2   179 213  38   145 171   1   119 146   2   113 127  24   169 175  92   222 218 169   199 197 120   166 170  51   162 172  11   179 193  36   130 140  22    71  78   4   106 119   7   154 173  11   145 160   7   116 132   1    77  82   1    72  75   1   112 122   1   109 122   1   129 149   5   137 169  12   109 145   7   176 182  81   213 195 127  
 166 150  50   198 180 118   207 188 152   192 171 126   148 129  62   120 107  44    68  64  10    61  64   6    66  68   9    77  76  12    89  83  27    88  77  31    91  80  26   108 101  31   122 111  37   158 145  72   160 152  88   131 131  74   128 131  76    95  96  38    43  50   6    79  92   5   154 180  30   146 184  20   166 207  45   186 214  73   147 172  31   128 155  34   121 142  29   153 163  54   209 208 127   219 216 111   211 216  45   188 206  21   126 144   6    83 100   1   113 136   1   166 197  14   169 201   8   140 168   1   141 163   2   126 141   9    85  90   5    94  98  12   100 109   2   131 153   1   133 161   1   112 134   4   179 180  79   206 189 122  
 154 142  33   145 131  51   196 179 133   213 192 150   134 118  53   130 121  54    84  82  24    62  66   5    64  65   7    76  76  12    92  86  32    81  72  26    89  79  26   110 101  30   125 112  34   147 132  58   166 158  90   132 131  72   101 105  53    94  97  41    63  76  37    72  92   4   142 172  30   178 213  61   175 215  42   182 213  52   194 219  63   201 219  87   196 211  74   211 217 111   229 229 138   231 239 102   195 211  26   138 157   8    94 112   1    84 102   1   132 156  13   190 223  34   191 226  11   175 208  10    95 117   1   100 119   1    93 103   1    91  96   1    94 104   1   113 127   7    92 109   1   107 121   9   182 182  87   221 210 147  
 143 134  17   144 131  37   191 175 111   192 177 122   103  93  32   114 109  48    97  96  41    62  66  10    58  59   7    74  73  17    88  85  29    80  71  21    92  83  26   120 108  38   131 118  37   160 147  70   147 139  72   131 128  69    92  94  45    93 101  45    70  83  35   100 119  39   181 206  91   175 203  69   142 171  20   145 168  15   164 186  11   158 173  21   160 170  38   201 206 100   193 199  88   208 222  78   145 163  10   106 118   4   132 148  10   110 123  14   146 164  30   190 218  27   202 237   3   200 233   3    96 122   1    76  91   1    64  67   7    58  57   4    67  68   1    82  90  10   125 139  39   159 174  71   178 182  89   228 221 154  
 139 133  14   146 135  33   149 137  50   127 117  44    76  69  12    69  66  15    64  65  13    59  62  13    55  53  11    66  63  14    75  73  16    81  76  19    91  86  22   109  97  28   128 117  34   142 132  56   142 134  67   142 139  79    95  97  51    90  98  44    70  78  29   164 177 104   188 204 109   124 139  31   140 149  42   156 162  67   174 189  55   142 164  23   126 144   9   173 186  44   180 191  52   166 175  32   119 125   2   146 160  28   145 159  43    85  96   3   157 179  28   186 218  18   190 228   1   162 197   1   117 153   1    74  92   4    52  55   4    56  52   2    67  62  21    76  76  23   164 173  90   199 205 142   188 187 115   221 217 150  
 134 127   8   145 134  25   141 130  29   105 100  17    63  61   7    48  47   3    61  62   8    54  57   9    49  48   9    64  62  14    70  68  11    79  76  18    94  89  25    96  87  23   123 116  36   122 119  43   157 152  87   147 143  82    74  74  30    59  69  15    79  86  23   152 166  78   121 133  46   102 108  23   140 140  54   172 169 100   204 213 108   189 216  51   147 170   1   163 180  31   176 192  35   119 129   5   117 127  12   156 173  60    85 103   8    95 117   8   183 213  59   137 174  10   124 165   1   129 172   6   106 147   4   102 133   1   114 131   1   102 108   1    76  71  16    60  55  21   117 117  59   167 163  92   190 182 102   210 201 126  
 136 131  13   141 131  12   132 120  16    95  90  14    57  58   8    49  52   2    62  66   7    56  60   5    51  52  10    70  69  22    69  68  12    73  70  15    90  86  28    84  76  18   106 104  25   145 146  74   147 147  83   124 121  61    61  62  21    45  57   3    90 104  13    96 113  26    89 103  28   117 124  43   134 133  58   160 162  91   143 158  28   142 165   5   166 191  11   211 231  75   209 222 108   150 170  25   133 154  21    99 117  12   104 125   7   187 215  52   159 191  34    89 122   1   115 160   1   104 153   1    96 141   1   139 179   2   157 181   6   122 130   2    69  64   5    63  59  13    85  85  29   108 104  41   154 143  70   179 165  90  
 136 131  10   143 135   8   125 113  10    82  77  11    47  50   1    50  58   1    63  68   5    64  69   8    64  66  20    72  71  24    65  63  10    67  63  15    78  73  24    82  75  24   106 108  32   147 152  81   123 123  60   103 100  40    61  61  20    57  69  15    95 110  24    86 107  20    73  89  27    95 103  39   130 131  63   172 178 107   127 150  31   129 157  30   178 204  62   208 230  87   196 211  83   164 184  10   147 165   5   108 121   1   159 178  14   179 199  39   128 151   9    95 121   2   140 184   3   120 166   7   101 147  10   143 185   2   151 177   2   121 128   1    76  69  15    79  76  24    70  73  18    64  69  17   110 102  41   189 173 104  
 128 125  11   133 126  10   122 116  13    74  72   2    50  58   4    54  66   1    63  78   2    58  71  11    50  59  12    42  48   6    45  47   9    54  52  21    60  58  20    77  74  23    93  94  30    82  88  29    85  95  31    71  82  27    62  72  13    67  77  14   102 128  21    89 102  36    76  79  26    96  97  30   146 145  79   173 176 108   140 149  70   198 210 142   198 221 128   201 224 113   206 217 121   163 171  58   167 188  27   176 205  10   137 160   1   154 177  27    99 121   1   124 153   2   121 155   1   121 158   1   100 134   1   117 144   1   133 148   2   132 135  16   120 115  37    51  42   1    53  43  15    86  81  30   155 154  79   222 212 148  
 131 128  10   130 122  10   114 106  10    79  77   2    63  72  10    58  70   7    55  67   4    44  55   6    35  42   4    37  41   4    38  39   5    41  40  11    47  46   8    67  66  11    85  86  28    93  98  32    86  95  31    57  65  13    45  54   2    75  88   1   109 140   8    86 102  26    81  87  32   100 104  33   137 144  64   134 144  62   127 137  51   173 179 102   163 175  74   195 206 108   245 242 204   251 242 231   235 238 162   166 188  31   143 168  10   171 195  52   117 140   4   137 168   1   107 132   6   118 144   6   116 128  21   132 137  39   123 120  34   125 117  45   116 106  52    46  37  10    55  50  17   125 127  42   189 186 100   215 207 133  
 128 127   2   129 122  12   113 105  12    88  88   6    71  80  10    52  62  10    39  46   4    33  40   4    27  32   6    36  39  11    44  44  16    36  36   8    69  70  29    94  95  35   103 103  51   122 128  55    99 106  45    68  76  23    33  40   4   103 123   1   120 154   4    87 107  27    71  81  31    84  95  20   100 115  24   112 128  39   130 144  58   121 127  42   118 122  30   198 199 120   226 229 161   237 242 174   200 208  98   149 168  32   155 178  36   163 186  48   157 186   7   163 191  11   126 147   5   100 118   1   146 138  54   141 131  58   107  93  37    84  71  27    73  65  25    54  51   8    77  81  21   137 144  47   167 164  77   166 163  82  
 128 125   3   132 124  16   116 109  13    89  90   5    60  69   2    40  46   6    28  32   7    29  33  11    26  28  13    29  31  11    40  42  18    42  43  14    96  98  56   114 116  53   106 106  51   114 120  50    82  87  33    69  75  21    46  53   5   117 139   1   117 150   8    92 111  40    71  85  37    80  98  18    91 110  14   119 137  56   113 128  58   104 115  39   137 141  69   193 196 128   184 199 107   219 241 135   209 226 121   205 221 139   172 193  72   146 173   5   155 180  11   120 137   6   120 133   9   109 119   5   116 104  28    98  85  20    82  73  21    69  64  18    81  79  26    75  80  12    93 100  16   130 137  40   137 141  52   140 143  64  
 130 128  12   133 126  15   117 110  10    83  83   2    45  52   1    33  39   6    33  35  14    30  31  15    30  30  20    32  33  15    36  38  14    40  40  11    69  72  28   107 110  49   127 128  63   101 102  44    68  70  25    73  77  21    66  73  11   101 118   1   112 141  13    82 102  29    65  84  21    76  99   3   112 134  32   150 163  90   102 114  53    97 108  32   156 159  81   193 197 111   194 209 112   185 209  82   167 192  37   179 204  71   155 186  27   157 189   2   139 163   1    97 107   4   120 127  24   102 104  18    79  75   6    73  71  20    63  63  23    65  71  18    89  97  25    81  87  13   115 119  35   161 170  61   121 133  41   105 112  38  
 130 127  18   129 123  11   119 112  10    85  83   8    48  50   5    35  38  12    39  38  17    32  33  14    31  31  19    40  42  21    45  48  19    40  44  10    63  69  22    93  98  40   113 116  50    94  94  41    82  81  39    95  97  40    72  77  14    76  88   4   108 133  19    85 106  24    85 108  19    95 120   3   120 139  32   163 173  98   131 135  74   102 104  35   178 176  98   217 214 134   233 239 133   195 215  47   168 192   7   157 191   6   163 201   5   185 224   4   133 157   5   114 126  12   133 142  29   101 101  29    95  96  37    73  79  31    50  61  15    63  78  18    79  91  18    73  76   3   105 107  24   119 129  23    88  98  20   124 130  63  
 134 131  22   132 126  15   127 120  21    93  89  20    57  59  20    40  43  16    43  42  18    42  42  16    36  37  16    41  44  17    49  53  20    60  64  28   108 115  64   120 125  69   101 103  43   103 104  48    92  90  45    99  98  47    70  72  21    51  58   6    96 116  20   101 121  38   127 152  51   130 155  37   123 138  41   163 164  94   141 139  77   108 110  45   191 196 112   216 217 129   196 203  49   197 221   1   178 205   6   136 167   5   173 211  25   183 221   9   106 126   4   110 124  16   121 128  40    89  93  15    85  84  27    61  66  14    61  74  21    71  89  28    71  83  14    69  72   3    85  85  11    71  80   4    69  71  13   170 169  96  
 143 141  30   139 132  24   132 124  31    93  90  23    63  65  24    46  49  22    48  48  22    55  56  23    57  57  32    53  56  25    47  51  16    75  80  42   117 126  73   126 130  77   107 107  57    90  90  29    62  59  10    82  80  33    69  69  31    47  50  15    86 100  24    94 112  37   126 148  52   120 140  34   134 142  63   179 174 113   140 137  68   112 127  34   163 181  82   210 220 132   174 187  34   196 223   1   184 221   3   143 182   1   184 218  65   155 188  17   118 141   4   121 138  17    90  99  13    85  89  21    87  78  21    61  61  21    52  61  26    64  78  27    76  87  20    77  77  18    62  61   8    56  64   9    80  76  21   193 188 100  
 141 135  39   143 138  38   125 120  28   101  96  26    72  67  22    57  53  27    56  56  34    61  64  36    70  76  38    48  55  14    77  81  44   112 114  72   118 119  66   105 108  60   119 121  73    79  77  38    49  47  10    71  71  28    69  70  30    68  74  24    83  94  34   108 123  57   127 146  64    91 107  22   129 136  67   163 163  98   111 110  40    98 114  30   153 178  90   223 231 176   175 191  40   152 182   3   147 178   7   126 162   3   118 155   1   118 147   5   139 169   8   129 157   2    83 103   1    92 112  11    86  87  19    54  57  28    48  71  23    52  79  21    95 103  31    88  83  17    67  69  11    55  65   5    83  93  36   190 196 109  
 148 143  43   148 143  40   134 129  32   107 101  26    75  70  20    64  61  26    63  62  32    63  64  28    65  71  23    60  68  16    88  95  44   130 133  83   126 128  72   102 106  51   113 117  57    91  91  40    84  83  34   117 119  63    93  96  44    92  98  37   104 113  53   146 157  93   147 162  87   103 117  41   112 119  54   121 124  56    93  95  20   114 126  49   183 200 121   198 202 143   149 161  34   124 146   2   138 163   1   120 149   1   108 138   1    90 112   5    80  98   3   118 139  15   102 124  10   100 121  25    84  91  17    61  70  27    43  69  25    64  96  32   124 144  38    86  91   1    76  81  19    74  75  29    94  97  31   192 192 110  
 154 145  49   150 142  43   140 132  41   115 107  36    85  79  29    79  75  38    75  72  38    73  71  31    68  69  18    93  99  39    82  88  28   115 120  65   133 135  81   102 106  48   104 109  45    99 100  42   119 120  62   142 146  82   116 120  58   106 112  45   109 114  49   110 117  57   128 138  75   124 134  70    97 106  46   107 112  41   129 137  46   161 173  89   175 182 111   120 121  49   123 129  27   130 143  29   145 159  19   100 114   6   115 136   2    99 116   3   132 144  64   184 201 109   103 124  26    85 109  11    76  90   6    57  76  18    50  86  22    76 119  29   134 162  58    74  87  20    61  69  17    68  68  16    96 102  32   204 203 149  
 160 150  63   154 144  55   143 134  51   122 113  48    93  84  40    84  78  44    85  79  48    82  78  39    69  68  17   110 114  53   108 114  53   110 113  58   117 117  69    96  99  46    92  97  39   107 110  53   132 133  75   125 126  67   113 116  55   110 116  52   127 128  63    88  90  35    79  85  34    68  76  26    55  62  10    89  99  23   110 122  28   110 121  38   102 101  34    88  83  24   114 121  13   114 124  19   147 150  32   101 104  11   113 124   4   157 174  36   186 203  96   138 159  55    81 105   9    80 106  10   123 146  46    45  77   6    53 100  15    72 122  11   100 139  21    77 101  26    66  84  26    65  74  20    83  96  26   201 204 152  
 161 153  68   161 154  66   148 140  57   129 120  55    99  90  43    86  82  44    92  88  49    86  83  37    70  70  15    86  90  25   115 122  52   121 126  64   102 103  51    83  89  35   106 111  55   120 123  66   134 135  75   109 110  49   107 111  46   122 127  63   132 133  68    83  83  35    52  55  15    47  53  14    59  67  21   100 113  36   109 126  25    77  85  16    55  46  14    84  75  28   117 125  13   127 135  13   139 140  24    86  86  12    91 102   1   165 188  38   125 147  29    86 111   2    78 105   1   145 177  50   138 171  51    56  99   9    57 110  11    62 114   2    96 146   1   117 157  23   100 128  22    93 115   7    72  92   1   187 193 125  
 158 152  68   162 156  70   149 142  61   127 119  53    94  88  36    83  79  34    90  88  41    90  91  38    83  88  29    89  96  29   120 128  55   124 129  61    93  94  35    80  86  27   123 128  72   120 125  61   116 119  51   104 106  39   118 123  50   114 120  52   107 109  46    81  83  38    54  56  24    51  55  23    52  61  19   109 126  48   169 189  88   133 146  64    67  66  11    75  76  12   147 157  28   181 183  73   142 143  39    69  75  11    80  95   2   114 141   4    81 104  14    77 102  13   108 141  13   139 178  13    82 122   2    78 131  20    79 139  17    60 109   4    67 113   1    99 140   9   121 153  11   145 173  13    90 110   1   191 195 116  
 145 140  72   149 143  71   138 130  64   116 108  55    89  81  43    77  73  38    74  74  33    63  69  23    55  61  17    66  73  25   102 110  51   104 106  49    90  89  38    85  90  37    97 103  54   110 113  55    95  96  33    99 100  38   119 122  52    97 102  38    72  79  21    61  66  24    41  45  15    43  49  18    53  63  22    92 110  33   153 175  72   172 192  82   142 160  20   135 160   1   181 194  57   212 209 105   143 146  44    54  70   4    78 104   6    82 109  12    69  95  26    73 102  12   102 137   1   111 147   1    79 118   7    74 131  29    66 126  11    59 105  11    50  91   2    66 102   1   117 148   4   127 155   8   111 135  13   183 196 106  
 167 159 109   165 158 106   161 153 105   151 142 108   137 129 107   129 124 105   116 116  91   101 106  77   100 105  82   108 112  86   108 111  74   113 112  72   105 100  65    84  87  48    69  73  38   101 103  55   107 107  54   102 101  51   105 106  49   107 109  58    93 103  45    46  53  14    35  41  11    51  57  27    64  75  34    89 107  32   138 163  55   168 194  56   176 208  13   207 244  27   178 199   9   161 165  13    97 104   2    61  84   4    85 119   6    87 121  28    86 118  36    92 124  34    98 133   5    98 132   1    68 107  15    84 139  62    51 103  34    45  87   5    94 141   3   127 172   1   155 193   8   114 152   1   117 154  20   158 185 105  
 202 205 174   195 198 167   189 191 159   181 182 150   178 179 147   180 181 149   184 184 150   181 183 143   183 184 144   182 183 143   187 185 146   186 182 144   169 166 125   153 152 118   141 142 110   144 144 109   135 136  98   107 109  67    82  88  38    81  90  35    74  77  34    43  45  11    33  35  13    55  61  21    58  65  22    90 102  28   158 182  44   197 221  74   205 228  47   212 231  28   172 188   4   143 160   9   128 148  16    94 128   2    86 125   1    72 105   3   103 132  40   102 133  35    77 112   9    57  90   1    39  79  17    59 104  45    54 101  45    38  84  19    70 109  13   153 191   5   214 242  40   183 208  13   170 193  49   166 187 123  
 129 121  82   124 117  74   121 114  70   123 116  73   114 106  68   108  99  66   108 100  67   118 110  74   121 113  75   133 126  85   151 144  98   155 147  97   161 154 101   159 154  94   168 162 102   175 166 111   173 164 113   161 154 105   144 139  91   103 101  53    48  51  23    45  49  16    37  41  12    52  59  20    57  64  29    74  87  18   133 157  17   160 180  16   170 186  11   176 184  13   162 170   1   153 164  16   157 172  29   132 157   1   157 187  24   141 171  27   108 137  21    92 121  22    75 107  10    72 107   7    65  98  25    56  98  30    47  97  28    32  77  29    59  97   3   183 222   3   206 234  11   178 205   1   166 184  17   124 129  45  
 100  97  46   121 118  65   115 112  59   108 105  56    90  86  47    77  72  44    75  70  49    70  67  46    69  68  39    80  81  39    80  83  29    88  94  27   105 113  38    95  97  29    92  90  29   106 101  45   124 118  66   128 123  74   126 125  76   110 111  61   119 123  70   126 130  84    87  91  55    70  77  28    69  78  32    48  59   5    81  95   1   107 115   1   148 147  39   205 196 100   199 195  69   167 167  44   132 139  13   139 159   1   158 186  13   144 174  19    91 119   4    61  85   2    64  87   2   168 191  85   183 191 104    74 104  32    61 113  35    43  93  21    78 122   6   120 163   1    99 135   1    82 113   6    89 106   2   165 170  94  
  98  97  33   102 101  37   130 131  69   114 116  61    85  87  47    68  68  43    72  75  48    76  82  41    78  85  40    85  95  43    67  78  19    63  78  12    78  94  24    85  93  30    78  79  22    82  82  30   106 104  56    80  81  32    63  67  14    78  86  29    93  94  43   136 138  83   144 146  97    95  99  49    63  64  31    53  57  22    67  75   4   115 118  21   159 156  67   213 202 125   193 185  86   146 142  44   116 119  15   115 135   7   103 131   7    79 108   5    60  86   8    38  56   2    48  60   1   186 197 104   154 159  85    68 102  24    49 102  34    39  84  19    67 103  11    56  99   1    62 114   1    37  78   1    46  72   1   183 202 105  
 113 105  36   105  98  31   130 125  65   117 113  65    67  64  30    71  69  49    66  65  43    68  70  31    63  68  24    73  79  29    65  74  16    61  73  10    91 103  36   116 121  58   109 109  52    81  79  30    90  87  42    59  57  12    59  60  12    70  75  21    70  67  36    79  77  38   107 105  65   121 120  77    84  81  47    52  49  17    49  51   1    75  80   9   117 118  35   147 143  51   146 141  47   119 120  30   100 107  20    92 112  14    85 110  18   101 128  47    77 106  25    58  85  10    61  85   5   135 157  61    99 140  66    82 131  50    34  79  21    32  68  12    51  81   8    66 103   5   111 158   8    47  82   2    46  71   3   118 142  27  
  96  93  40    76  74  29    92  91  58    93  95  75    65  72  63    46  55  53    47  56  57    46  55  52    41  52  42    47  61  39    46  61  29    58  75  32    88 107  57   103 117  78    82  92  65    47  55  32    41  49  28    41  51  24    67  82  47    61  79  37    79  86  40    89  96  53    82  86  43    94  97  45   111 112  59   100  97  52    59  57  20    52  54  21    84  85  23   114 113  22    94  91  14    75  76   5    67  71  11    60  66  16    64  72  29    83  97  49    85 109  44    93 126  53    60  98  31    59  98  41    85 144  68    56  95  36    31  56   8    37  73   1    65 113   6    88 129   5   128 168   2    67 101   4    36  64   2    35  64   1  
 100 110  63    84  94  61   129 141 124   169 184 181   170 191 194   158 182 186   151 176 179   154 178 179   155 179 179   154 176 174   142 164 160   141 164 157   141 164 156   131 156 151   109 133 135    95 119 123    83 105 109    81 106 102    76 106  91    55  89  64    85 107  67    82 104  55    84 102  51    86  99  52    69  76  34    81  87  41    99 103  54    85  87  36    97  96  29   133 130  39   132 125  53    92  89  27    51  50  12    34  34   2    33  34   1    52  56  20    73  89  37    70 102  33    87 131  64    94 143  94    64 102  56    33  53  22    33  45  11    32  60   2    54  98   1    87 125   3   116 148   1    73 106   1    61  90   1    83 117   1  
 135 143  84   154 162 118   188 198 173   205 219 209   204 224 217   211 237 226   211 238 225   215 237 229   217 238 231   221 241 236   227 245 242   221 237 236   221 236 235   213 236 230   208 233 229   201 224 229   189 210 221   178 201 210   157 184 187   148 178 174   121 150 140    82 108  98    95 118 102   102 119  95    90 105  67    91 102  62    87  93  54   101 101  48   108 103  45   146 139  61   202 192 121   110 104  38    56  53  10    39  43   7    30  34   1    38  38  10    45  51  17    74  95  40    85 122  55    66 113  57    29  52  18    48  67  34    45  61  32    42  62  13    48  68   7    41  51   1    58  64   1    48  54   8    76  84  13    93 106   1  
  85 103  45    90 106  53    93 106  61    98 112  76    96 111  82    95 112  86   103 123 101   115 138 121   126 147 129   127 149 128   145 164 142   160 179 157   169 188 166   172 199 182   178 207 192   190 213 205   205 226 219   214 235 228   205 229 223   200 225 221   190 206 207   165 188 176   158 187 180   144 176 160   132 165 135   112 138 108   105 130  88   103 118  66   101 102  47   124 119  56   160 160  90   122 125  54   114 115  48    79  85  34    44  51  14    44  49  22    48  64  31    81 109  67    61  92  50    32  59  25    42  52  20    53  67  33    40  55  26    52  62  25    88  89  21   126 116  20   126 110  12    91  92   8    90 113  35   106 123  50  
 102 108  42    80  89  30    78  88  31    84  87  29    81  82  25    80  88  36    65  78  35    66  83  42    69  85  44    88 105  63    77  93  54    65  79  43    81  95  61    86 107  70    65  89  54    76  96  69    76  94  70    81 102  76   109 134 104   125 152 119   128 157 127   131 161 126   137 165 141   144 172 147   145 175 147   131 164 136   125 159 119   111 136  85   109 122  70   100 106  48    76  82  20    97 102  40   129 129  70   109 113  60    80  86  39    51  64  21    63  90  45    66 104  56    33  67  23    33  59  20    42  52  27    33  46  19    35  47  27    55  59  30   105  99  31   145 126  23   159 134  25   145 131  32   134 142  46   164 169  97  
 116 108  47    73  73  20    79  81  27   128 120  57   168 156  85   155 153  87   127 135  76   123 131  73   145 153  95   131 140  83   102 112  59    70  78  31    59  67  25    86 101  51    74  90  40    58  73  31    35  50  12    43  61  21    48  73  23    44  73  15    48  80  30    45  78  27    49  81  35    47  79  33    48  82  44    54  90  62    52  89  52    58  94  47    57  85  38    74  93  48    66  83  33    66  76  26    95  95  48    97  97  46    99 104  50    81  98  43    68 102  48    41  85  34    20  59  10    35  64  16    91 113  51    66  86  32    44  58  22    53  57  25    96  87  29   116  94  10   136 108  16   140 122  31   116 115  26   152 157  72  
  91  88  41    59  59  23    45  43  12    82  71  32   130 114  64   102  96  42   108 107  54   133 132  80   143 144  88   115 118  61   114 119  63   112 120  69    78  86  40    64  74  27   107 119  69    86 101  50    52  69  21    40  62  14    32  59   3    49  79  15    55  80  19    55  85  24    50  87  27    48  89  30    53  92  40    50  83  37    46  81  34    44  82  37    46  80  37    64  93  51    63  88  48    62  79  36    78  89  47    87  88  47    83  85  37    78  88  35    65  89  39    47  82  35    41  75  25    56  83  29   114 145  51   115 148  59    77 105  33    58  77  14    84  92  15   111 107  18   132 123  34   166 164  80   128 136  55   133 153  61  
  48  61  19    34  41  14    31  31  17    39  34  23    50  42  22    46  42   7   104  99  56   131 126  80   126 124  72    95  98  40    89  97  37   111 122  63   106 119  65    54  66  22    73  89  41    73  92  36    50  73  15    42  68  13    39  67   8    52  83  15    53  75   4    41  67   4    30  60   7    27  59  14    38  71  24    39  67  18    51  75  27    49  76  30    51  78  33    57  83  38    58  80  37    56  77  34    61  82  39    52  60  27    52  53  19    75  74  34    82  90  51    82  99  62    68  91  44    61  85  28    63  90  38    68  98  36    72 106  41    68 102  34    67  96  16    91 114  26   107 126  39   122 139  56   107 125  59   131 157  78  
  56  78  33    46  59  26    29  33  16    19  17   9    28  23   8    45  40  10   105  98  58   129 117  71   125 118  63   106 107  43    97 105  37   103 115  48    89 105  41    72  89  39    69  88  33    62  84  20    57  81  18    50  74  16    52  75  10    64  88   9    92 118  21    80 106   4    83 107   9    74  96  13    68  90   8    44  66   1    42  60   5    41  55   2    44  59   4    49  62   6    57  67  14    47  63  12    48  73  25    45  60  25    38  42  13    54  49  19    74  71  41   104 111  76   125 138  95   105 119  69    83  98  68    73  96  50    72 103  48    69 103  46    69 104  39    66  97  38    62  87  35    75  94  35    82 100  32    84 108  31  
  48  60  17    49  59  24    43  45  19    72  65  40    57  42  14   108  93  60   203 189 151   214 196 146   186 174 116   144 141  74   119 122  56   100 108  45    85  97  39    91 107  52    95 115  56    87 107  49    57  74  26    40  54   8    71  84  20   130 145  56   150 173  54   152 176  37   145 167  27   171 188  64   197 214  85   126 142  22    67  76   3    79  85  21    88  95  24    97  97  24   181 177 109   141 145  85    59  78  22    63  82  34    46  57  17    46  50  17    57  62  27    70  78  38   105 112  71   110 111  75    91  99  46    86 100  35    88 107  41    89 113  48    83 108  40    70  94  33    75  95  38    79  97  34    71  84  31    78  93  37  
  57  58  20    47  52  21    62  62  31   193 177 138   154 125  83   181 158 125   250 232 201   231 206 158   196 177 123   133 122  61   121 116  59    79  81  30    79  86  42   114 127  76   113 130  75    64  80  34    37  46  18    34  37   9    73  75  19   123 127  36   108 114  31   101 114  14   146 160  67   197 208 134   184 192  93   145 147  37   126 122  47   121 124  52   107 107  27   125 115  31   243 227 150   208 200 134    93 103  45    83 105  45    63  81  30    54  69  28    65  81  40    68  83  38    74  80  41    85  76  48    85  78  55    65  63  26    57  62  18    59  68  18    70  81  17    86  98  27    87 101  30    81 101  29    82  98  34    81 102  24  
  41  39   1    45  51  18    46  55  21   118 120  62   158 144  87   130 106  68   234 212 172   208 188 140   159 139  72   126 112  44   136 136  70    77  86  33    72  82  45    84 102  63    51  62  20    60  59  15    57  53  14    59  59  19    69  75  24    83  89  26    80  88  10   128 149  69   177 206 125   178 202 109   143 155  44   152 149  41   178 170  71   187 174  82   162 140  60   181 161  91   231 208 138   200 187 102    98 102  41    64  91  44    50  77  31    41  57  20    62  80  28    62  85  26    49  73  35    47  69  31    63  76  40    83  87  45    69  70  31    60  59  30    71  61  31    75  69  23    86  92  28    85  98  31    87 100  26    83  90  22  
  95  83  27    52  51  10    46  49  21    53  53  13    58  50   6    75  64  22   179 167 112   240 218 170   214 192 133   153 142  64   121 122  58    87  98  46    80  93  47    62  73  34    48  51   5   109 104  48    91  83  32    54  52   7    70  74  22    73  78  13   133 140  78   219 234 179   215 237 173   184 204 123   128 135  51   139 137  52   152 148  56   162 155  54   183 168  70   195 179  90   224 205 126   181 168  80   102 109  33    60  85  44    43  64  36    44  57  29    52  70  22    65  91  34    41  67  29    25  50  12    41  66  18    63  79  28    78  94  30    87 100  35    89  90  21   113 111  41   102 102  37    93  93  42   102 104  45   126 124  63  
 176 156  86   164 155 100    80  78  44    52  54  19    54  56  23    55  57  18   104 106  43   183 164 106   191 173 108   128 120  43   102 105  43    80  91  40    80  92  45    70  72  26   144 139  82   171 157  93   118 104  49    83  76  29    82  82  24   102 107  28   215 222 178   228 240 199   180 195 145   145 157  91   131 136  60   128 134  47   120 125  35   120 117  38   152 142  58   149 137  51   210 192 118   187 171  98   126 130  57    59  81  36    53  73  37    82  97  59    71  91  38    62  89  35    32  61  25    34  60  31    44  78  39    54  83  20    64  96  15    53  74  21   154 159  94   186 180 102   133 131  55    76  81  10    70  74   5    95  94  36  
 160 139  80   215 203 144    97  95  43    50  57   5    42  50   8    56  67  22    80  88  20   120 114  38   139 132  52    91  87  24    94  98  41    88  93  44    72  73  29    88  80  19   183 167  98   138 114  51    87  67  15    94  84  35   105 105  38   121 126  36   197 208 134   164 179 104   135 149  86   135 142  88   130 136  66   114 127  39    90 104  14   118 120  49   170 162  99   168 158  89   183 166  96   203 187 118   159 161  94    53  72  20    65  85  34    87 104  48    73  96  31    71 102  41    47  79  33    30  58  26    46  83  33    51  86   7    87 128  17    69  95  26   186 189 133   192 187  87   102 102  11    50  69   2    40  55   1    35  46   1  
