P3
50 50
255
  49  42  13    46  39  10    44  39   7    48  43  11    49  44  12    48  43  10    49  44  12    48  43  11    47  43   8    49  45  10    48  43   8    49  43   9    50  44  10    51  45  11    52  46  12    51  45  11    48  42   8    46  40   6    49  43  11    51  45  11    54  48  12    55  50  12    55  50  10    55  50   8    58  51   7    58  51   5    63  56  12    63  56  10    63  57   9    64  58   9    68  60   9    70  64   9    74  66  12    76  67  12    74  68  10    71  64   9    69  62   7    69  62   8    66  60   8    64  58   8    63  57   9    64  58  10    62  55   9    64  57  11    63  57   9    60  53   7    55  51   6    55  50   8    53  49  11    51  47  10  
  50  45  10    49  43  10    49  44  11    50  45  12    48  43  10    46  42   7    49  45  10    49  45  10    49  45   9    51  47  12    55  48  14    52  46  12    50  44  10    50  44  10    51  45  11    52  46  12    52  46  12    51  46  11    52  46  10    54  48  12    56  51  13    57  52  13    56  50  10    57  50   8    57  50   7    58  51   8    55  48   5    56  49   6    59  52   7    62  55   8    65  57   8    68  60   7    70  60   7    71  62   7    74  68  10    72  65  10    70  64   9    69  62   9    67  59   8    63  56   7    60  54   7    61  54   7    61  54  11    63  56  11    62  55  10    58  51   6    55  51   6    56  51  10    54  50  12    51  47  10  
  52  47  10    51  45   8    51  47  12    52  48  13    50  46  11    50  46  11    53  49  13    53  49  13    52  48  11    53  49  12    55  49  13    53  47  11    51  45   9    51  45  10    53  47  13    54  48  14    53  47  13    52  46  12    52  47   8    54  49  10    56  51  11    55  50  10    55  47   8    54  47   6    55  48   7    57  49   9    55  48   7    57  50   8    59  52   8    62  54   8    64  56   8    69  59   8    70  60   7    72  62   8    69  61   5    70  63   8    69  62   8    65  58   6    62  54   5    63  55   8    61  53   7    57  49   4    58  51   9    61  54  11    61  54  10    58  51   7    55  50   7    56  51  11    54  50  12    49  45   9  
  55  51  13    50  47   7    51  46  13    51  46  13    51  46  13    51  46  13    53  47  12    53  48  13    53  48  13    53  48  12    54  49  14    53  48  11    50  45   9    50  45   8    49  45   8    50  46   9    51  46   9    51  47   8    52  47   9    52  46   9    50  44   7    50  45   6    52  46   8    53  47   9    54  48  10    54  48  10    55  49   9    55  49   8    55  48   5    56  49   4    58  51   5    63  55   5    65  57   7    67  59   6    66  58   8    67  60  10    65  58   9    61  55   6    60  53   6    60  55   8    58  53   8    54  49   4    57  52   8    57  53   8    57  51   9    56  50   8    55  50  10    55  50  12    54  48  12    51  46  10  
  55  49  15    48  44   9    47  41   9    47  41   9    48  42  10    48  42   8    49  43   9    51  45  11    52  46  10    52  46  10    47  41   9    48  42   9    48  42  10    49  43   9    50  44   9    51  45   9    53  47  11    54  48  11    49  44   6    52  47   9    54  49  11    55  50  12    53  48   8    51  46   6    51  46   6    52  47   7    52  47   7    52  47   5    54  47   3    57  50   4    59  53   5    63  55   6    64  57   5    64  57   5    61  54   3    62  55   4    61  55   5    60  54   6    60  54   6    58  54   7    56  52   7    53  49   4    53  49   4    53  49   4    53  48   6    53  48   8    53  48   8    52  47   9    51  45   9    49  43   7  
  55  45  14    49  39  10    48  41   7    48  42   8    48  42   8    48  42   8    49  43   9    49  43   7    50  44   8    50  44   8    46  40   8    48  43  10    51  45  13    52  46  14    52  46  12    51  45  11    52  46  12    52  46  10    49  44   3    52  47   7    57  52  12    57  52  12    54  49   7    50  45   3    49  44   2    50  45   3    47  42   1    49  45   1    51  47   2    57  51   3    60  54   4    63  56   4    62  55   1    61  54   1    63  55   1    61  54   1    60  55   1    61  55   3    61  55   7    56  52   5    53  49   4    52  48   3    50  46   1    50  45   3    50  45   3    51  46   6    51  46   6    51  46   8    49  44   6    47  41   5  
  63  51  13    58  45  10    54  48  12    54  48  12    54  48  11    53  47  11    53  47  11    52  46  10    51  45   9    51  45   8    52  46   9    54  48  11    57  51  13    57  52  12    57  52  12    55  51  10    56  51   9    57  52  10    56  51   9    56  51   9    55  50   8    55  51   8    54  50   5    53  50   5    53  49   4    52  48   3    49  45   1    50  46   1    53  50   2    59  53   5    62  56   6    64  58   6    65  58   4    64  57   2    69  63   3    66  60   1    63  58   2    64  58   5    62  55   5    55  51   4    52  48   3    52  47   5    51  46   5    51  46   5    50  45   5    50  45   5    50  45   8    51  46   8    51  46   7    51  46   7  
  70  59  11    63  52   6    58  52  13    58  51  14    57  50  13    57  50  13    56  49  12    55  48  12    55  48  11    55  48  12    53  49   5    55  50   7    56  52   8    57  53   7    59  55   9    59  55   8    60  56   9    61  57   9    57  52  10    56  51   9    56  51   9    56  51   8    54  50   6    53  49   5    54  50   5    54  50   5    50  46   5    51  47   3    53  49   3    56  52   5    61  55   6    63  57   6    65  58   5    65  58   3    69  63   5    66  59   3    62  57   2    61  55   3    60  54   5    55  51   4    53  49   4    53  49   5    53  48   8    52  47   7    50  45   5    49  44   5    50  45   7    51  46   8    52  47   9    52  47   9  
  66  58  10    60  51   2    57  50  11    57  49  11    56  48  10    56  47   9    55  46  10    55  47  10    55  47  10    56  48  11    53  48   7    52  48   6    53  48   7    54  49   7    56  51   8    57  52   9    56  51   7    55  51   5    50  45   5    50  45   5    52  47   6    52  47   6    51  46   5    50  45   3    50  45   2    50  45   2    47  43   4    47  43   2    48  43   1    50  46   1    55  49   2    57  51   3    58  52   1    58  52   1    63  56   3    61  54   1    59  53   2    57  51   2    56  50   2    54  50   3    52  48   3    51  47   2    51  46   7    50  45   6    48  43   5    48  43   5    49  44   6    49  44   6    49  44   6    49  44   6  
  64  55  12    59  52   5    58  51   9    57  49  10    55  47   8    54  46   7    53  45   8    53  45   8    53  45   8    54  46   9    52  43  10    51  42   9    51  42   9    54  46  10    57  49  12    57  49  12    54  46   9    51  43   6    53  48  10    50  45   7    46  41   3    48  43   3    52  47   7    54  49   8    52  47   6    49  44   4    46  42   4    46  42   4    48  43   3    50  45   3    52  48   3    55  48   2    55  49   1    55  49   1    58  50   3    59  51   4    58  52   4    55  49   1    54  47   1    53  49   2    51  47   2    47  43   1    48  43   5    48  43   5    48  43   5    49  44   6    50  45   7    49  44   6    47  42   4    46  41   3  
  62  48  12    62  49  14    57  46  16    55  46  15    54  45  13    52  46  13    50  44   9    46  40   8    48  39   7    52  41  12    50  46   9    49  45   8    48  44   7    48  43   6    49  44   7    50  46   8    50  46   5    49  45   5    47  42   4    49  44   6    50  45   5    53  46   4    53  46   2    53  47   1    54  48   1    55  49   1    51  46   6    51  46   4    53  46   3    53  46   1    55  48   1    57  49   1    57  49   1    57  49   1    57  50   1    57  49   1    56  50   1    55  48   2    53  46   2    49  45   2    48  43   3    47  42   2    46  41   1    48  43   3    48  43   3    47  42   2    47  42   4    48  43   5    48  43   5    46  41   3  
  61  50   7    59  50   7    57  49   3    54  47   3    51  46   6    50  45  10    48  44   9    47  41   6    48  41   4    51  41   6    54  45   6    54  45   7    54  46   7    56  48   8    57  49   9    56  48   8    56  49   7    57  49   8    53  48   5    54  49   6    56  50   5    57  50   5    57  51   4    60  53   4    62  56   5    64  58   8    57  53   3    56  53   3    60  54   2    61  56   2    64  60   3    68  61   5    69  62   5    70  63   6    66  58   4    64  57   5    62  56   5    60  54   5    59  52   5    54  50   5    52  47   4    50  45   4    49  44   4    50  45   5    51  46   5    50  45   5    49  44   4    50  45   5    50  45   7    48  43   5  
  65  57  11    57  50   4    60  51   8    56  47   7    50  45   7    49  44  10    50  45  13    50  45  12    51  45  10    53  45   9    58  48  13    58  48  10    59  49  10    61  53  10    60  52   8    58  49   3    58  50   2    61  53   5    61  54   6    61  54   6    60  54   4    59  53   3    58  52   2    59  54   2    61  56   3    63  57   4    60  58   1    60  58   1    62  57   1    63  59   1    65  61   1    68  62   1    68  63   1    68  63   1    66  59   3    64  57   2    60  55   2    59  53   2    58  52   3    55  51   3    52  48   2    49  45   1    50  45   3    51  46   4    52  47   5    51  46   5    50  45   4    51  46   5    51  46   6    49  44   4  
  68  58  12    57  46   4    55  42   9    57  45  10    55  48  10    50  46   5    46  42   3    46  41   4    51  43   5    55  47  10    54  48  10    53  47   7    54  49   6    56  51   6    55  50   4    53  48   4    55  49   6    58  52  11    59  52   1    60  53   1    59  52   1    58  52   1    57  51   1    56  51   1    57  51   1    58  52   1    57  55   1    57  55   1    60  55   1    61  57   1    64  60   2    67  61   2    67  61   1    67  61   1    65  59   1    63  55   1    59  54   1    58  52   1    58  52   2    55  50   3    52  48   1    49  45   1    49  45   1    50  46   2    51  47   2    49  45   1    49  44   2    50  45   3    50  45   3    48  43   1  
  68  50  15    68  49  18    59  42  14    58  43  14    54  41  11    49  39   8    48  39   7    49  41  11    53  42  13    53  43  14    51  44  15    52  46  13    53  48   9    53  49   2    54  51   1    54  51   1    56  53   1    57  54   4    60  52   3    60  52   3    61  53   4    60  52   3    57  51   1    55  49   1    52  48   1    52  48   1    51  48   1    51  48   1    54  48   1    56  50   1    59  53   1    62  55   1    63  56   2    63  56   1    67  60   4    65  58   3    61  56   1    59  53   1    58  52   2    54  50   2    52  48   1    50  46   1    50  46   1    52  48   3    52  48   3    51  47   2    51  47   2    52  48   3    52  48   3    50  45   3  
 109  89  20   117  96  30   107  92  24    88  74  14    64  50   5    49  35   3    47  32   8    51  37   9    48  35   2    42  29   3    52  38   2    56  41   2    58  44   2    58  46   1    61  49   1    65  52   3    64  51   5    61  47   3    62  51   5    62  51   5    59  51   5    57  48   3    54  47   1    52  45   1    49  45   1    49  45   1    54  50   3    54  50   2    56  50   2    58  52   2    59  53   1    61  54   1    61  54   1    61  54   1    64  57   2    63  56   2    59  53   1    57  51   1    55  49   1    52  48   1    51  47   2    50  45   3    50  46   1    52  48   1    53  49   2    52  48   1    52  48   3    53  49   4    53  49   4    52  48   3  
 150 136  14   152 137  15   150 141  24   151 142  34   143 132  42   117 105  33    94  81  18    90  77  13   108  95  21   123 112  28   143 131  22   145 132  24   142 129  23   131 117  15   115  99   7   108  90   9    93  74   4    82  61   1    71  56   2    67  53   1    60  48   4    55  43   5    51  42   5    50  42   2    49  43   4    49  43   7    52  46   1    52  48   1    55  50   2    57  52   1    58  54   1    59  53   1    60  53   1    60  52   2    60  53   1    58  51   1    57  51   1    56  50   2    55  47   1    53  48   4    52  48   5    51  47   4    50  45   1    51  47   1    52  48   1    52  48   2    53  49   2    53  50   5    53  48   4    52  47   3  
 154 143  23   156 145  23   163 154  35   171 163  39   182 172  48   170 158  40   155 141  31   154 137  30   156 138  24   155 139  18   168 152  17   170 153  17   176 158  23   181 162  29   165 145  15   163 141  18   154 130  15   136 110   3   125  99   4   119  96   3   108  87   5    99  78  10    92  76   7    82  70   2    70  59   1    61  50   5    58  49   1    53  45   2    54  49   3    59  54   4    56  53   1    58  53   1    61  54   3    61  51   7    58  52   2    54  48   1    54  48   1    55  49   2    55  48   2    55  48   4    53  49   4    49  44   1    49  44   4    49  44   2    50  45   2    52  48   3    53  49   4    53  49   5    53  46   4    51  43   4  
 158 149  40   153 142  33   150 143  23   150 143  21   166 156  34   164 153  36   158 144  35   160 143  37   149 131  22   145 127  13   154 138   6   154 137   5   158 140   9   180 161  29   183 163  28   181 161  23   194 173  33   176 154  14   164 134   1   162 136   1   159 134   1   155 132   1   150 132   1   140 124   1   122 108   1   109  92   5    81  72   6    63  54   1    58  49   1    59  51   2    57  50   1    63  56   1    68  59   7    61  50   1    57  51   2    54  48   1    54  47   1    54  47   1    51  45   1    49  44   1    49  44   1    46  41   1    47  43   4    46  43   1    47  42   1    48  45   1    50  46   1    50  45   3    50  44   3    47  42   3  
 191 182  86   184 174  78   180 174  61   176 169  54   180 170  56   188 176  64   174 161  49   164 148  38   161 143  31   159 142  28   167 149  25   182 163  41   193 173  51   202 181  58   203 182  53   183 161  24   191 169  24   186 165  14   169 144   1   163 140   1   151 131   1   140 118   1   129 112   1   125 112   1   120 109   1   111 101   1   101  92   6    81  71   1    67  56   1    62  52   3    58  50   1    65  55   4    66  56   3    59  47   1    56  49   3    55  48   2    55  48   4    54  47   3    48  43   1    47  42   2    48  43   3    47  42   2    48  44   6    46  42   4    46  43   2    47  42   1    49  44   2    49  44   4    48  43   5    46  41   3  
 217 210 118   206 198 107   199 194  94   195 187  87   186 177  75   182 171  63   169 157  45   182 167  50   180 163  47   166 149  33   180 163  33   186 168  39   190 170  44   206 186  59   210 187  56   181 159  21   187 165  19   183 162  11   159 136   2   158 139   1   156 136   4   141 123   8   124 109   4   120 109   1   116 109   3   110 102   4   100  90   1    91  80   1    74  63   3    62  52   3    59  51   5    59  51   2    59  49   1    60  50   1    53  46   2    52  44   1    53  47   5    51  46   4    47  42   2    46  41   3    48  43   5    47  42   4    45  41   4    44  40   3    43  39   1    44  41   1    46  41   1    47  42   4    45  39   3    44  38   2  
 202 195 100   188 181  86   186 180  83   204 198 101   207 199 101   173 163  59   141 130  16   171 158  41   168 152  37   152 134  23   170 154  19   163 147  12   162 144   6   195 176  37   193 172  29   171 150   4   194 170  22   186 162  13   159 130   1   164 138   1   164 140   1   147 124   4   127 106   1   122 105   1   120 106   1   111  99   1    99  89   1    95  84   5    78  68   7    63  54   5    58  51   5    55  49   2    53  46   1    56  48   4    49  43   1    48  42   1    49  44   4    49  44   5    46  41   3    45  39   3    46  41   5    45  40   4    44  39   5    43  39   2    42  38   1    43  39   1    45  41   3    45  41   3    45  39   3    43  37   3  
 189 182  80   169 162  60   166 163  59   192 187  87   202 194  95   179 170  66   140 128  17   156 143  30   155 138  31   141 121  23   150 133  11   157 139  13   165 147  14   190 170  32   180 159  16   175 152   7   187 162  17   181 155  11   157 127   3   162 134   1   161 137   1   144 122   2   124 103   1   120 103   1   120 104   4   108  94   1    98  87   1    87  77   2    71  62   3    57  49   2    50  45   1    51  47   2    52  47   5    51  44   6    48  43   3    47  42   3    49  44   6    50  45   8    48  42   6    47  41   6    46  42   7    43  39   4    42  37   5    41  37   2    41  37   1    42  38   1    44  40   2    44  40   3    43  37   3    41  35   3  
 165 152  54   149 136  43   147 139  38   168 158  56   180 169  66   175 161  61   130 114  20   126 110  23   117 101  25   104  87  18   119 101  11   132 113  15   147 126  16   167 145  22   162 139   6   158 133   3   167 141   4   164 138   3   147 121   2   151 126   1   146 123   1   130 108   1   115  96   1   113  95   2   108  92   4    98  82   1    87  78   6    74  65   3    60  50   1    49  40   2    45  38   4    47  42   4    47  43   3    46  43   2    47  41   4    47  41   5    48  42   6    48  42   6    45  41   5    44  40   5    44  40   5    43  38   5    40  35   4    40  35   3    40  35   2    39  35   1    39  34   2    39  34   2    39  33   2    38  33   2  
 134 121  29   124 110  21   121 107  20   147 136  32   155 144  28   142 130  23   100  82   4    91  74  18    79  63  12    71  58   3    80  64   1    93  74   3   105  83   2   123 100   4   126 103   1   129 105   1   143 119   8   137 113   3   124  99   4   121  97   4   110  88   1    99  77   1    95  77   1    98  81   9    93  78   7    84  71   2    68  59   1    61  51   1    51  41   1    45  37   1    44  35   2    44  38   2    44  41   1    45  42   1    45  39   3    45  39   3    45  39   3    44  40   5    42  38   3    41  37   2    41  36   4    41  36   4    40  35   3    40  35   3    39  34   2    39  34   4    38  33   3    38  33   3    37  32   2    37  32   2  
 103  91  11    96  84   4   104  89   6   136 124  26   135 125  18   110  99  11    74  59   5    64  48  16    52  39   6    53  45   1    65  55   2    75  64   5    83  69   1    94  77   1    97  80   1   103  83   2   107  87   7    90  73   1    77  56  12    71  51   6    61  43   1    55  39   1    54  42   1    57  47   4    55  47   2    49  42   1    47  38   1    46  37   1    44  37   1    45  37   1    44  38   2    45  39   3    45  41   4    46  42   4    47  41   5    46  40   4    44  40   5    44  40   5    43  39   4    42  37   5    41  36   4    39  35   3    38  33   3    38  33   3    38  33   3    38  33   3    37  32   2    37  32   2    36  31   2    36  31   2  
  79  68  12    85  74  14    96  83   6   104  91  22    87  74  17    63  49   9    43  32   4    42  32   9    38  31   5    43  37   7    47  41   2    54  47   6    60  51   5    67  55   5    67  56   5    68  54   6    64  52   6    49  38   1    43  32   6    41  31   4    40  30   6    39  31   6    35  30   5    33  29   2    33  30   1    34  31   2    40  32   5    40  32   2    39  34   1    42  36   1    44  40   2    45  41   4    44  40   5    43  38   4    46  42   7    44  40   5    42  38   4    42  37   5    41  36   5    40  36   4    38  34   4    36  33   2    36  32   2    36  32   2    36  32   2    36  32   3    36  32   3    35  30   2    34  30   1    34  29   1  
  55  44   9    58  48  10    63  48   7    55  42   8    43  30   7    35  25   6    30  23   5    31  27   7    30  25   6    30  25   6    35  31   6    37  32   6    40  33   6    43  34   5    43  34   5    41  32   5    40  33   7    36  30   6    35  32   1    34  30   1    33  31   3    35  32   7    32  30   6    28  28   3    29  29   3    32  32   6    37  31   9    36  31   5    35  31   2    39  34   2    43  38   4    45  40   6    43  39   4    41  36   4    42  38   4    41  36   4    40  35   3    39  34   3    38  34   3    37  33   3    35  32   2    34  31   1    35  31   2    35  31   2    35  31   3    35  31   3    35  31   3    34  30   3    33  29   2    33  29   2  
  38  30   3    35  28   1    36  23   8    33  23   4    30  23   4    26  22   2    24  21   3    24  22   4    28  25   8    32  27   9    30  27   1    33  28   1    37  32   1    40  33   1    39  34   1    37  33   1    35  34   3    37  36   7    40  37   2    36  33   1    34  31   1    33  30   3    32  30   5    30  29   3    29  29   1    30  29   2    33  31   5    33  30   5    34  30   4    36  32   4    40  35   5    42  37   6    41  37   2    40  36   1    40  35   3    40  35   4    39  34   3    38  33   3    36  32   3    35  31   2    35  31   2    35  30   2    34  30   2    34  30   2    34  30   3    33  29   2    33  29   2    33  29   3    33  29   3    33  29   3  
  39  33   7    43  38  13    36  29   4    35  30   9    28  25   6    19  20   2    24  25   7    26  25   5    25  23   1    26  22   1    32  27   4    35  29   4    37  30   4    35  28   1    35  30   1    35  31   2    31  30   1    32  33   2    34  29   1    34  28   2    34  28   4    33  29   4    32  28   3    32  28   3    32  28   1    32  28   1    28  27   1    29  28   1    31  29   4    33  29   4    33  29   4    35  30   1    35  31   1    36  32   1    36  31   1    37  32   2    37  32   2    34  31   1    33  29   1    32  28   1    33  29   2    34  30   3    35  31   4    34  30   3    33  29   2    33  29   2    33  29   4    33  29   4    33  29   4    33  29   4  
  46  35   7    46  35   8    44  35   6    42  32   5    37  30   4    35  29   2    34  28   4    33  29   4    29  27   2    27  25   1    31  26   4    32  28   3    33  29   4    34  30   3    34  30   1    33  30   1    32  29   1    32  28   1    33  29   1    32  28   1    31  28   2    31  27   2    32  28   3    32  28   3    34  28   5    34  28   5    28  26   2    30  26   1    31  28   1    33  30   2    34  30   2    34  30   2    34  30   4    35  30   6    35  31   9    34  30   8    31  30   5    31  31   6    32  30   4    32  28   3    33  27   4    34  28   6    29  27   6    31  29   6    31  30   2    29  28   1    30  29   1    32  31   3    31  29   4    29  27   4  
  54  44   6    54  44   6    47  39   5    46  38   5    43  37   4    41  36   4    38  32   4    34  30   4    31  28   2    30  29   1    32  31   2    32  31   2    33  30   1    35  31   1    36  32   1    36  32   1    36  33   1    37  34   1    37  34   1    36  33   1    35  33   1    34  31   1    33  31   1    33  31   1    33  30   1    33  30   1    37  33   1    37  33   1    38  36   1    39  36   1    41  37   1    43  38   1    44  39   1    44  39   2    41  38   1    38  35   1    35  35   1    32  34   1    31  32   1    30  30   1    32  28   1    34  30   4    34  29   7    33  28   6    33  29   4    33  29   2    35  31   3    35  31   4    34  29   4    34  29   6  
  65  57  12    65  57  11    60  53  14    54  49   9    48  43   4    45  40   3    40  36   2    35  31   1    35  31   2    36  34   4    36  34   2    36  34   2    35  33   1    36  33   1    36  33   2    36  32   2    37  33   3    38  34   2    37  32   4    36  32   2    36  32   2    36  32   2    36  32   2    36  32   1    37  33   2    38  34   2    40  35   4    41  35   2    42  38   1    44  39   1    47  42   1    50  44   1    51  45   2    50  44   3    45  38   3    41  36   3    37  34   2    33  33   1    31  32   2    30  30   2    31  30   3    33  31   5    37  32   1    36  31   1    36  32   1    38  34   1    40  35   2    39  35   1    38  33   1    38  33   2  
  62  53   7    62  53   7    61  54  12    55  48   6    51  45   2    51  44   1    48  43   1    43  38   1    40  35   1    40  35   3    39  35   1    40  36   1    41  37   1    40  37   1    40  35   1    40  35   1    41  35   1    42  36   2    45  38   1    45  38   1    44  38   1    44  39   1    45  41   1    47  42   2    48  44   4    49  45   5    49  43   1    51  46   1    54  49   1    57  51   1    61  55   1    63  57   1    63  58   1    61  55   1    56  48   2    51  45   1    43  40   1    39  38   1    36  34   1    35  33   1    37  34   2    40  37   4    40  37   1    38  35   1    38  35   1    40  37   2    41  38   4    40  37   3    38  34   1    36  32   1  
  53  42   1    53  42   1    55  45   1    55  44   1    54  45   1    57  47   1    57  50   1    57  49   1    55  48   3    53  44   4    52  46   1    53  48   1    56  51   2    56  51   2    57  51   1    58  51   1    60  53   1    62  55   3    63  54   1    63  54   1    62  53   1    61  53   1    60  53   1    61  54   1    61  55   4    61  55   4    63  57   1    66  60   1    71  63   2    72  64   1    75  68   1    78  71   4    77  70   3    72  64   1    62  57   1    59  54   1    56  50   1    52  48   4    48  43   5    43  38   2    42  33   1    42  33   1    41  35   1    41  35   1    40  34   2    40  33   4    43  36   7    44  38   8    43  37   7    39  33   4  
  58  48   1    60  50   1    60  48   1    65  53   1    68  57   1    67  57   1    67  57   1    69  59   1    70  59   3    68  56   3    72  64   1    73  65   1    75  68   1    75  68   1    76  69   1    78  71   1    83  75   1    87  80   1    91  80   4    88  79   2    84  74   1    80  70   1    75  67   1    72  64   1    70  62   1    70  62   1    72  63   3    74  66   3    74  66   2    74  65   1    76  67   1    80  71   4    78  69   3    73  63   1    67  61   3    63  56   2    58  52   2    56  50   2    57  49   1    60  51   1    65  54   1    69  57   2    68  55   6    67  54   7    63  49   4    57  43   2    59  44   4    65  50  10    64  50   8    59  45   1  
  73  63   5    81  71   9    96  87   1   105  98   7   112 106   6   113 108   1   111 106   1   108 102   2   101  94   1   101  94   1    95  88   4    93  85   3    94  86   2    94  87   1    93  86   1    99  91   2   103  96   1   103  96   3   103  94   1   102  93   1   101  93   1   102  93   1   101  94   3    98  90   1    96  88   2    97  90   5    90  82   3    89  81   2    86  78   1    82  74   1    82  74   1    84  75   1    83  74   1    80  71   2    67  61   6    61  53   1    57  49   1    64  56   1    82  73   1   104  95   1   127 117  11   140 129  20   154 141  36   155 142  37   151 137  35   141 126  27   134 118  21   130 115  20   126 111  18   123 108  15  
  92  83   4   103  96   7   104  96   3   104  96   5   106  99   1   121 116   1   128 123   1   122 115   4   101  92   1   104  94   4   106  99   2    97  88   4    97  88   1    99  92   1    99  91   1   105  96   9   106  98   4    98  90   1    93  82   2    94  83   1    96  87   1   103  94   4   105  95   5    96  86   2    90  79   1    92  81   3    96  88   1    94  85   1    94  82   2    90  78   2    84  74   2    79  70   1    77  69   2    75  69   4    63  60   1    61  53   1    66  54   2    86  71   3   112  98   2   133 122   1   144 136   7   148 139  11   155 144  27   165 154  35   182 169  48   181 167  47   166 150  35   143 129  21   128 114  15   130 116  22  
  95  88   1    94  89   1    94  89   1    89  83   1    87  79   1    99  92   1   111 106   1   119 115   2    97  90   1    83  72   1    97  89   4    91  82   5    80  71   1    85  77   1    89  81   1    84  76   3    86  78   5    87  80   1    85  74   2    87  76   2    87  78   1    90  81   1    91  82   1    83  74   1    76  66   1    76  65   1    83  77   1    87  79   1    88  80   2    87  78   2    81  73   1    76  70   1    72  67   1    69  67   1    63  58   1    63  56   1    71  60   6    87  75   7   105  93   4   116 105   1   118 107   1   117 105   1   119 108   3   131 119   9   153 141  25   165 151  35   161 147  33   146 132  25   127 113  12   122 109  12  
  84  76   3    82  74   1    88  83   1    94  89   1    92  84   2    88  79   1    95  88   1   123 120   7   110 104   4    81  72   1    86  77   1    88  79   1    72  62   1    79  69   1    86  79   1    73  64   1    75  65   5    78  70   1    80  72   1    82  74   1    82  75   1    85  78   1    90  82   3    87  79   4    81  73   2    78  69   3    76  73   1    83  77   1    86  80   5    86  78   4    81  73   1    76  69   1    72  67   1    70  66   2    65  61   1    65  59   1    68  60   1    78  69   1    93  83   1   103  93   1   108  98   1   113  99   4   114 103   1   121 111   1   144 133  17   161 149  29   163 151  32   153 140  26   133 121  12   121 110   5  
  85  76   1    87  79   1    95  86   1   107  99   1   109 100   4   103  92   6   106  98   1   135 130   2   124 116   1    96  84   1   100  90   1   102  92   4    82  71   1    80  71   1    85  77   1    77  69   1    81  71   8    85  78   1    87  80   1    85  78   1    83  76   1    86  80   1    93  86   2    91  84   4    83  75   1    78  70   1    83  77   1    87  80   2    90  82   4    85  76   1    79  70   1    75  66   1    72  63   4    68  61   5    66  60   2    66  57   1    68  60   1    77  69   1    88  81   1   100  90   1   109  97   1   114 102   1   126 116   1   131 120   2   153 142  17   170 157  29   172 159  31   166 152  28   144 132  14   129 118   3  
 110 101   2   116 107   1   122 111   1   134 123   5   135 121  11   126 112   6   132 121   1   159 152   3   146 136   1   117 101   1   120 108   3   115 101   4   101  90   1   101  89   2    97  87   2    88  79   1    91  81   4    92  84   1    94  86   3    93  84   1    92  84   1    95  87   1   100  92   4    95  86   3    87  78   1    85  75   2    91  83   1    96  87   1   100  89   1    98  86   1    94  80   1    90  77   1    84  73   1    79  69   1    78  67   6    75  64   4    75  65   2    82  73   3    95  85   4   108  97   2   118 106   1   125 113   1   129 119   1   136 125   1   160 146  16   173 158  28   171 155  26   163 147  23   146 129  12   132 115   4  
 109  95   2   118 106   1   133 115   2   140 124   4   144 127   5   149 132   3   159 144   7   178 164  14   161 146   5   142 124   3   130 116   1   114  99   2   114 100   2   119 106   4   108  96   4    98  85   3    96  85   1    98  87   2    94  83   3    95  84   2    96  86   1   100  90   2   100  90   4    91  80   2    86  74   1    89  77   4    98  86   1   108  95   1   117 103   3   121 106   3   122 107   2   121 107   2   115 102   1   107  96   1    96  85   2    89  78   1    84  73   1    87  77   1    98  87   4   112 100   4   124 112   1   133 119   1   138 125   1   145 132   4   167 151  21   174 156  27   165 144  21   155 133  18   141 119  12   129 107   7  
  98  82   1   104  89   1   126 110   1   137 122   1   153 136   8   163 144   8   169 151  12   168 149   8   154 137   1   153 135   1   159 139   7   148 128   3   135 117   1   135 117   1   130 112   1   121 102   1   118  99   3   112  92   1   104  88   1   103  86   1   108  92   1   111  95   2   103  87   1    97  81   1   102  85   1   110  93   5   128 109   2   136 117   8   141 121  12   132 112   1   129 110   1   133 117   3   130 114   1   129 114   1   113  99   6    98  83   1    89  73   1    92  75   1    94  77   2    97  80   1   104  87   1   112  95   4   136 115   1   143 123   9   154 132  19   155 132  21   147 124  17   141 118  15   136 112  14   133 109  13  
 105  89   2   114  99   7   132 115   2   144 127   9   159 139  15   158 138   6   154 134   1   150 130   1   154 135   2   170 152  18   190 169  26   194 174  28   190 173  25   194 177  28   189 174  26   174 159  15   171 155  16   166 150  15   155 139  14   147 131   6   151 135  10   161 146  22   161 146  24   157 141  21   155 139  20   153 137  18   169 149  30   174 153  34   173 152  34   163 144  26   159 140  23   161 142  25   155 138  21   156 139  22   151 136  21   133 117   7   123 106   4   127 109  12   129 111  15   121 105   7   120 105   4   127 112   9   142 118   8   149 125  17   151 127  19   141 118  12   135 112   8   139 116  13   147 124  22   150 127  26  
 109  96   1   119 104   7   129 111   4   136 116   4   144 123   4   146 125   1   153 130   2   157 134   4   158 138   7   172 151  22   183 159  33   185 162  34   184 164  31   191 171  36   194 176  41   192 175  44   195 177  50   201 183  60   190 170  50   165 145  25   146 127   7   147 128  10   152 131  17   153 133  20   155 135  24   158 138  26   163 143  20   175 155  33   179 159  39   178 159  38   173 154  33   165 146  25   166 147  27   168 149  28   173 157  29   169 153  27   157 141  20   156 139  21   171 154  38   181 163  47   173 156  38   163 148  27   153 132  14   162 141  23   172 151  31   173 152  32   167 146  26   162 142  21   162 141  20   164 144  22  
 112  99   2   113  99   2   118 100   1   127 107   1   139 119   2   147 126   1   156 133   4   155 132   1   151 129   1   159 139   7   183 160  31   180 158  27   173 154  20   174 154  19   187 169  34   193 176  46   183 165  40   177 158  37   192 172  49   171 151  28   153 133  12   151 130  13   154 133  18   151 130  16   153 131  20   161 138  30   172 152  34   180 160  42   172 152  35   169 149  31   167 147  30   169 149  32   183 164  48   190 170  53   190 169  51   196 174  58   183 161  46   169 150  33   181 160  47   194 174  60   187 169  55   177 159  45   177 159  35   173 155  29   177 159  31   186 167  37   185 167  35   176 158  23   173 155  18   177 159  21  
 105  91   1   104  92   1   114  99   1   120 104   1   132 113   1   143 123   1   154 133   4   155 134   1   148 129   1   156 137   3   176 154  17   178 157  18   173 154  14   162 143   3   172 155  15   184 167  32   167 150  21   158 140  15   181 161  37   172 152  28   160 140  17   161 140  19   166 145  26   160 139  21   157 136  20   166 145  30   169 149  36   176 156  42   169 149  37   168 146  35   174 152  40   181 159  48   190 168  58   189 167  57   192 168  58   195 171  60   183 160  46   171 150  34   181 161  45   193 174  59   194 175  64   192 173  62   192 173  61   186 167  53   181 163  46   183 164  44   186 168  44   187 168  40   184 165  35   181 162  30  
  98  84   1   102  87   3   106  94   2   113 100   2   125 110   4   135 118   2   144 124   1   143 124   1   140 122   1   152 134   4   165 145   3   173 152   6   174 156   9   157 139   1   166 149   8   180 164  30   164 146  21   162 143  23   174 156  30   170 151  25   156 137  12   153 134   9   160 141  16   156 137  13   152 133   9   161 142  18   161 141  26   171 151  36   178 158  44   180 159  45   184 162  49   188 165  54   190 167  56   193 170  59   194 170  59   191 168  54   179 158  39   172 151  28   184 166  42   200 184  61   200 184  65   190 174  59   198 180  76   202 184  79   200 182  74   195 176  65   197 178  63   202 183  64   201 180  60   192 172  50  
  93  78   1    92  76   1   102  91   8   100  89   1   107  93   1   119 101   1   134 116   2   139 120   2   135 116   1   142 125   4   158 134   6   158 136   4   159 139   2   145 126   1   161 143   5   180 164  27   164 147  15   164 146  18   168 153  28   169 154  28   157 141  16   152 137   9   162 146  19   161 146  19   160 145  16   170 154  26   172 153  33   173 154  34   181 162  42   183 162  43   186 165  46   190 168  49   187 164  49   196 173  57   199 175  65   192 171  55   188 168  47   189 171  45   191 176  49   197 182  57   199 185  63   198 183  66   195 179  67   204 188  76   207 190  75   201 184  66   198 179  59   201 183  58   204 185  58   202 183  56  
