P3
50 50
255
 127 113  10   109  88   1   130 109   4   151 131   2   152 130  10   152 131  14   147 127   3   143 121   8   144 124   4   154 141   5   122 112   2    76  68   3    66  63   3    65  64   9    58  56   8    47  43   6    37  34   6    29  28   7    25  23   9    18  19   5    17  19   8    17  18   7    22  22  10    25  25  12    24  22   7    28  26  11    40  37  18    48  40  13    55  45  16    58  45  13    53  41   7    60  50  15    61  54  19    31  28   9    22  20   8    23  21   9    20  18   6    23  21   9    25  23  10    23  21   9    23  20  13    26  23  14    28  25  13    32  28  13    39  36  17    47  42  22    49  45  23    43  41  20    32  30  13    26  24  12  
 121 108   7   108  89   2   128 107   3   147 126   2   145 123   4   143 122   4   142 122   2   147 126   9   148 130   8   156 143  15   123 113  12    71  63   1    66  63   3    63  62   7    55  54   5    48  44   7    40  38   9    33  31  11    26  25  10    18  18   5    19  21  10    19  20   8    22  23  10    25  25  12    24  22   7    28  26  11    39  36  17    49  41  11    52  43   9    56  47   8    56  47   7    62  52  16    55  48  14    29  26   8    22  20   8    22  20   8    21  19   7    23  21   9    24  22  10    24  22  10    24  21  12    25  22  12    25  22  10    25  22   7    29  25   9    33  30  11    34  31  12    33  30  12    27  25  11    26  24  12  
 110  96   1   106  88   4   122 102   2   140 120   1   143 122   3   144 123   5   148 128   3   153 134  12   151 135  11   151 137  22   118 107  21    69  61   1    66  64   4    62  61   6    55  53   4    48  44   7    42  39  11    35  33  13    28  27  12    20  20   6    20  22   9    22  24  11    23  24  11    24  25  10    25  23  10    28  25  10    37  34  15    50  44  13    58  50  13    66  59  16    67  60  17    64  57  21    47  41  12    27  24   8    22  20   8    22  20   8    23  21   9    24  22  10    24  22  10    25  23  11    26  24  12    27  25  12    26  24  11    24  21   7    26  23   8    27  24   9    27  25  10    26  24  10    26  24  11    28  26  14  
 106  91   1   105  87   5   113  94   1   133 114   1   144 123   4   151 130  10   158 138  12   161 142  17   157 141  15   139 124  23   103  90  20    71  63   2    68  66   5    62  61   7    55  53   5    48  44   7    41  38  10    34  33  12    30  28  14    23  24  10    22  24  11    26  27  15    25  25  12    24  25  10    26  24  11    27  25  12    32  29  14    43  38  12    55  49  15    62  56  17    57  52  13    50  44  15    35  29  11    25  22   9    22  20   8    22  20   8    25  23  11    25  23  11    24  22  10    26  24  12    27  25  10    28  26  12    28  26  13    27  25  12    28  26  13    31  27  16    30  27  16    30  28  16    30  28  16    28  28  16  
 106  93   1   105  89   5   106  91   1   126 110   1   143 124   6   150 130   8   160 139  14   166 147  22   163 147  23   128 112  18    83  68   4    72  64   5    69  66   7    62  61   8    56  55   6    50  46   9    43  40  11    35  33  13    31  29  14    24  24  10    23  25  12    27  29  15    25  26  12    24  25  10    26  24  11    26  24  11    29  27  13    36  33  15    43  39  14    45  40  10    39  34   6    36  31  13    31  27  18    25  23  13    20  20   8    20  20   8    23  23  11    25  25  13    23  23  11    25  25  13    25  23   8    27  25  11    27  25  12    26  24  12    28  26  14    29  26  17    29  27  17    30  30  20    30  30  18    30  30  18  
 104  91   1   102  88   1   103  89   1   123 108   1   140 123   5   147 127   3   157 137  13   165 147  23   164 147  24   124 107  14    73  59   1    70  62   1    68  66   4    61  59   6    56  54   6    52  49  11    45  43  14    37  36  15    30  29  14    23  23   9    24  26  12    27  28  14    25  26  12    24  25  11    26  24  11    26  24  11    29  27  14    34  32  18    35  33  16    37  32  13    38  33  15    36  33  21    34  31  24    26  25  15    22  22  10    21  21   9    25  25  12    26  26  14    25  25  13    24  24  12    28  26  13    29  27  14    27  25  12    24  22  10    24  21  12    23  23  13    23  23  13    25  25  15    27  27  16    29  30  16  
 106  94   1   101  91   1   103  91   1   121 108   4   138 122   5   149 129   6   160 137  16   161 142  21   153 136  16   124 108  10    82  68   1    69  63   1    66  66   2    61  60   5    56  54   6    53  49  12    46  43  15    37  36  15    32  30  15    25  25  11    24  26  12    25  27  13    25  26  12    25  25  12    26  24  11    26  24  12    28  27  14    27  28  12    29  28  13    32  28  16    36  32  20    35  34  21    31  32  18    25  26  13    23  23  11    23  23  11    24  24  12    27  27  15    26  26  14    24  24  12    31  27  16    31  28  16    28  26  14    24  22  10    22  22  10    23  23  13    22  23  13    22  24  12    25  27  13    28  29  15  
 114 103   1   107  97   2   107  96   3   121 109   4   136 120   3   151 131   8   161 139  19   155 136  18   139 121   4   123 107   9    97  84  12    72  66   4    66  66   3    62  61   6    57  55   7    52  48  11    44  42  13    36  35  14    33  31  17    28  29  15    24  26  12    24  25  11    24  25  11    25  26  12    26  24  12    25  23  11    29  29  14    29  32  10    30  29  12    31  27  15    33  29  17    33  32  16    32  35  13    25  26  11    24  24  12    24  24  12    23  23  11    27  27  15    27  27  16    23  23  11    29  25  16    29  26  15    27  25  13    23  21  10    23  23  11    24  24  12    24  25  13    25  27  15    25  28  14    28  29  13  
 101  89   4   110  97   3   114 102   1   122 109   1   137 121   7   152 132  14   147 128  10   137 125  12   130 117   4   138 126   8   107  93   8    78  68   5    70  66   6    66  65  10    60  58   8    52  50  10    42  41  10    35  33  11    29  30  12    25  26  12    23  23  11    23  23  11    24  24  12    24  24  12    24  24  12    26  24  12    27  25  12    31  28  15    30  28  15    30  28  15    32  30  17    31  29  16    30  29  16    27  28  15    26  26  14    25  25  13    25  25  13    26  26  14    27  27  15    29  29  17    27  27  15    26  26  14    27  27  15    26  26  13    25  25  13    27  27  15    28  27  15    32  30  18    30  29  17    29  29  17  
 100  87   3   106  93   2   112 100   1   124 109   1   138 121   5   149 129  11   142 126   6   132 119   6   135 120   7   144 132  14   115 101  15    80  70   5    71  67   7    65  63   8    60  58   8    52  50  10    43  43  12    36  34  12    29  30  13    24  25  11    22  22  10    23  23  11    24  24  12    24  24  12    24  24  12    26  24  12    27  25  12    30  28  15    31  29  16    31  29  16    33  31  18    31  29  16    30  29  16    26  26  14    25  25  13    24  24  12    24  24  12    25  25  13    25  25  14    27  27  15    30  30  18    29  29  17    30  30  18    28  28  16    28  28  16    30  30  18    31  30  18    32  30  18    30  30  18    30  30  18  
  99  87   4   103  91   1   113 100   1   130 115   3   141 125   5   149 130  10   145 128  10   140 127  13   147 132  19   160 145  28   124 110  19    90  79  11    75  71  11    66  65  10    61  60  10    55  53  13    45  45  14    38  36  14    31  31  14    25  26  12    23  23  11    24  24  12    25  25  13    25  25  13    25  25  13    27  25  13    27  25  13    30  28  15    31  29  16    31  29  16    33  31  18    31  30  16    29  30  16    26  26  14    25  25  13    25  25  13    25  25  13    26  26  14    26  26  14    26  26  14    29  29  17    28  28  16    29  29  17    27  27  16    28  28  16    31  31  19    31  30  19    31  30  18    31  31  19    32  32  20  
  96  85   3   100  87   1   114  99   2   138 121   9   149 133  12   154 138  17   155 139  20   158 144  28   160 144  31   169 154  39   131 117  21   100  89  19    78  72  13    72  70  15    65  63  13    57  55  15    47  46  15    38  37  14    31  32  15    25  26  12    25  25  13    25  25  13    26  26  14    27  27  15    27  27  15    29  27  15    28  26  14    29  27  14    30  28  15    31  29  16    33  31  18    29  30  16    29  30  16    28  28  16    28  28  16    28  28  16    29  29  17    29  29  17    28  28  16    28  28  16    28  28  16    27  27  15    28  28  16    26  26  15    27  27  15    30  30  18    30  30  18    31  31  19    33  33  21    34  34  22  
  89  78   1    94  81   1   112  96   2   143 127  11   161 143  17   165 149  28   168 153  36   169 155  38   168 151  38   166 151  36   140 127  25   104  94  19    74  68   8    73  71  15    65  64  14    56  54  14    45  45  14    37  36  13    30  31  14    25  26  12    25  25  13    25  25  13    26  26  14    27  27  15    27  27  15    28  26  14    28  25  13    28  26  13    29  27  14    28  29  15    30  31  17    29  30  15    29  30  16    30  30  17    30  30  18    31  31  19    31  31  19    31  31  19    30  30  18    30  30  18    30  30  18    29  29  17    30  30  18    28  28  16    29  29  17    32  32  20    32  32  20    33  34  20    35  35  23    37  37  25  
  81  72   1    89  75   1   109  92   2   146 126  11   166 148  19   172 157  33   177 162  45   173 158  40   173 155  43   164 147  33   158 145  35   106  94  16    74  66   7    71  69  14    64  62  12    56  54  14    45  45  14    37  36  13    30  31  14    25  26  12    24  24  12    25  25  13    26  26  14    26  26  14    26  26  14    27  25  13    27  25  13    28  26  14    27  27  15    27  27  15    30  30  18    30  30  18    30  30  18    30  32  19    31  33  20    31  33  20    32  34  21    32  34  21    31  33  20    31  33  20    30  32  19    30  31  18    31  33  20    29  31  18    29  31  18    31  33  20    31  32  19    33  34  20    35  36  22    37  37  25  
  84  75   1    91  77   1   110  92   1   145 126   9   166 148  17   173 158  34   177 162  46   175 159  42   174 157  45   169 151  38   168 156  41   106  95  14    76  68   9    70  67  12    63  61  12    57  55  15    49  48  17    41  40  17    34  35  18    28  29  15    26  26  14    26  26  14    27  27  15    27  27  15    26  26  14    28  26  14    27  26  13    29  28  16    28  28  16    28  28  16    31  31  19    32  32  20    33  33  21    33  35  22    33  35  22    34  36  23    35  37  24    35  37  24    35  37  24    35  37  24    33  35  22    32  34  21    34  36  23    32  34  21    31  33  20    32  34  21    31  33  20    33  34  20    34  35  21    36  38  24  
  91  84   6    98  85   9   113  95   4   144 126   7   164 148  13   170 155  30   173 160  44   176 160  42   173 153  41   174 157  44   167 155  38   104  93  10    77  69   9    69  67  11    64  62  13    60  59  18    54  53  22    47  46  23    39  39  22    32  33  19    29  29  17    29  29  17    29  29  17    29  29  17    28  28  16    30  28  16    29  27  15    30  29  17    29  29  17    29  29  17    32  32  20    33  33  21    35  36  24    36  38  25    36  38  25    37  39  26    37  39  26    38  40  27    38  40  27    38  40  27    37  39  26    37  39  26    39  41  28    37  39  26    35  37  24    36  38  25    34  36  23    32  33  19    32  33  19    34  36  22  
  92  84   8   104  91  10   121 103   8   152 132  17   165 148  19   173 158  29   171 158  32   172 160  35   174 157  42   176 158  49   162 144  43   104  91   8    76  67   4    67  61   8    62  58  10    58  53  14    52  47  17    45  42  20    38  35  19    33  31  18    27  27  17    27  27  16    27  27  15    27  27  15    26  26  14    25  25  13    26  26  13    28  28  16    30  30  18    32  32  20    32  32  20    33  33  21    35  35  23    35  36  24    36  38  25    36  38  25    37  39  26    38  40  27    38  40  27    39  41  28    39  41  28    41  43  30    42  44  31    40  41  28    39  41  28    40  42  29    40  42  29    38  40  27    38  40  27    39  41  28  
  87  78   1   103  91   6   124 107   9   150 130  15   156 138  10   163 148  22   164 151  27   164 151  27   167 151  35   173 155  43   155 141  38   104  92   8    76  68   5    66  60   7    61  57   9    56  51  12    49  44  15    42  39  17    35  33  17    31  29  16    28  28  16    28  28  15    27  27  15    26  26  14    25  25  13    24  24  12    25  25  12    27  27  15    29  29  17    32  32  20    33  33  21    35  35  22    37  37  25    37  38  25    37  39  26    37  39  26    38  40  27    39  41  28    40  42  29    40  42  29    38  40  27    39  41  28    40  42  29    40  43  30    41  43  30    40  42  29    40  41  28    41  43  30    41  43  30    42  44  31  
  86  78   1    99  86   1   120 104   7   145 127  12   151 133   7   157 142  18   159 144  24   159 145  22   159 143  24   165 150  33   153 140  32   102  92   7    74  66   5    66  60   7    61  57   9    55  50  11    47  43  13    41  37  15    33  31  15    28  29  15    28  28  16    28  28  15    27  27  15    25  25  13    24  24  12    23  23  11    24  24  12    27  27  15    29  29  17    32  32  20    33  33  21    35  35  22    37  37  25    37  38  25    37  39  26    37  39  26    37  39  26    38  40  27    39  40  28    40  42  29    40  42  29    39  41  28    40  42  29    43  45  32    45  47  34    43  45  32    41  43  30    42  44  31    42  44  30    43  45  32  
  92  83   4    94  81   1   111  94   2   137 120   7   147 132   4   155 140  12   158 143  20   160 144  24   156 140  18   160 145  26   150 138  32    98  89   5    72  64   2    64  60   6    60  56   8    54  51  11    47  44  13    40  38  16    34  32  16    28  29  15    27  28  14    27  27  14    26  26  14    25  25  13    24  24  12    23  23  11    24  24  12    28  28  16    29  29  17    31  31  19    32  32  20    33  33  21    35  35  23    35  37  24    35  37  24    35  37  24    34  36  23    36  38  25    37  39  25    38  40  27    39  41  28    38  40  27    39  41  28    41  43  30    44  46  33    44  46  33    42  44  31    39  41  28    39  41  28    41  43  30  
  94  81  11    89  75   2   103  87   1   129 114   3   144 129   1   153 139   6   157 142  15   162 146  26   158 143  21   159 147  29   136 125  22    92  82   2    73  65   1    62  58   3    58  54   6    53  50  10    47  44  13    40  38  16    32  32  15    27  28  14    26  27  13    25  27  13    25  26  12    24  25  12    24  24  12    24  24  12    25  25  12    27  27  15    28  28  16    30  30  18    31  31  19    32  32  21    35  35  23    36  37  25    35  37  24    34  36  23    34  36  23    35  37  24    35  38  25    37  39  26    35  37  24    35  37  24    36  38  25    36  38  25    37  39  26    40  42  29    41  43  30    40  42  29    39  41  28    39  41  28  
  82  68   4    82  66   1    99  83   1   121 107   1   138 124   1   150 135   5   157 141  15   161 143  24   159 145  23   155 143  30   112 102   9    84  76   1    75  69   3    63  59   3    56  52   4    51  48   8    45  42  11    38  36  14    30  30  13    25  26  12    26  27  11    25  26  11    25  26  12    24  25  12    24  24  12    24  24  12    24  24  12    25  26  12    27  28  14    30  31  17    32  33  19    35  36  22    38  39  25    38  40  26    37  39  25    37  39  25    36  38  24    37  39  25    38  40  25    38  40  26    36  36  24    37  37  25    37  37  25    35  35  23    36  36  24    39  39  27    42  42  30    42  44  31    41  43  30    42  44  31  
  83  69   1    83  70   1    97  84   1   113  99   1   128 114   1   142 124   6   150 131  12   156 136  16   153 137  19   136 122  17    98  86   3    86  77   7    76  69   2    65  61   4    58  54   6    50  47   7    43  40  10    36  34  12    29  30  13    26  27  13    27  28  12    26  27  11    26  27  12    24  25  11    24  24  12    24  24  12    25  24  13    28  26  13    30  28  15    33  31  18    36  34  21    39  37  24    42  40  27    41  42  28    39  41  27    39  41  27    39  41  27    39  41  27    39  41  27    39  41  27    40  40  28    40  40  28    40  40  28    39  39  27    39  39  27    39  39  27    40  41  28    42  44  31    43  45  32    45  47  34  
  97  84   6    92  78   2    99  86   2   108  94   1   121 104   1   129 111   1   138 117   6   152 132  11   144 128  11   112 100   1    94  83   6    91  83  15    74  67   1    68  63   7    60  58   9    52  49   9    43  40   9    35  34  11    29  30  13    27  28  14    28  29  13    27  28  12    26  27  12    24  25  11    23  23  11    23  23  11    25  24  13    31  29  16    32  30  17    35  33  20    37  35  22    40  38  25    43  41  28    41  42  28    40  42  28    40  42  28    40  42  28    40  42  28    39  41  27    39  41  27    40  40  28    39  39  27    39  39  27    40  40  28    40  40  28    38  38  26    36  36  24    38  40  27    42  44  31    46  48  34  
 102  87   2    99  87   2   102  92   1   115 102   1   125 108   1   121 105   1   124 111   1   129 113   6   117 102   4   102  91   1    89  80   2    85  79   8    74  70   2    70  67   7    63  60   9    54  51   9    42  40   8    33  31   9    28  29  12    27  28  14    28  29  13    28  29  13    28  29  14    26  26  12    24  24  12    24  24  12    25  25  14    27  28  14    29  30  16    34  34  22    38  36  24    38  36  23    43  41  28    45  43  28    48  46  31    51  49  34    50  48  33    47  45  30    47  45  30    48  46  31    47  44  25    49  46  29    49  47  31    46  44  30    41  41  29    39  39  27    37  39  26    38  38  26    42  42  30    47  47  35  
  97  81   1    98  88   1   103  93   1   116 101   1   127 109   2   123 107   1   117 104   1   114  99   1   107  93   1    99  88   1    89  81   1    84  79   4    75  70   1    70  67   6    63  60   7    55  52   8    45  42   9    34  33   9    28  28  10    24  25   9    23  24   8    24  25   9    24  25  10    23  24  10    22  22  10    23  23  11    24  24  11    27  28  12    29  30  14    35  34  17    38  37  19    40  38  20    43  42  22    44  43  24    47  46  28    50  49  31    49  48  30    47  46  28    46  45  27    48  47  29    49  46  27    49  46  29    48  45  29    45  42  29    42  43  29    42  42  30    41  41  29    39  39  27    41  41  29    45  46  33  
 102  88   1   105  95   3   112 103   3   123 109   3   129 112   2   123 106   3   112  97   5   109  96   3   105  94   1   103  94   3    92  84   1    85  78   1    74  67   1    69  65   4    63  60   5    57  55   8    47  46  10    37  37  10    32  31  10    25  26   8    27  25  10    28  26  11    29  27  13    27  25  12    27  25  12    27  25  13    28  26  13    30  29  12    33  32  14    37  36  16    41  40  19    46  44  23    47  45  22    47  45  26    49  48  30    52  51  33    50  49  31    48  47  29    48  47  29    49  48  30    52  49  30    52  49  32    51  49  33    49  47  32    47  48  34    48  49  35    49  49  37    49  49  37    48  49  36    50  51  37  
 104  86   1   103  93   3   114 105   3   127 113   3   132 115   1   124 108   1   103  88   3    97  86   3    95  86   1    97  90   1    93  85   1    88  81   1    77  68   1    70  64   3    63  60   3    57  54   6    50  47  11    41  39  11    35  34  12    28  30   9    32  30  15    33  31  16    33  31  16    31  28  15    28  26  13    29  27  14    31  28  16    34  31  19    36  33  17    38  35  16    44  42  20    51  48  27    51  49  28    55  52  33    59  56  37    60  57  38    58  55  36    56  53  34    55  53  34    57  54  35    54  51  32    54  53  35    56  55  37    56  54  38    53  54  38    52  53  39    50  52  38    50  51  37    49  50  36    50  51  37  
 102  84   1   103  90   5   109  99   1   123 108   1   142 124   1   138 123   4   102  89   5    91  83   3    87  80   1    93  85   1    90  83   2    89  83   1    79  70   2    69  63   1    62  59   2    55  51   4    48  45   7    40  38  10    35  33  11    30  29   9    30  28  13    31  29  14    31  29  14    28  26  11    25  23  10    26  24  11    29  25  14    33  28  19    34  30  18    35  32  15    40  38  19    47  45  27    48  45  29    50  47  30    53  50  31    55  52  33    54  51  32    53  50  31    54  50  32    55  52  33    58  57  37    58  57  38    61  60  42    61  60  42    61  59  44    59  57  42    57  55  40    56  54  41    58  56  43    62  59  45  
 104  88   1   107  93   6   104  93   1   112  97   1   146 128   3   146 133   9   100  85   2    93  84   4    89  82   1    91  83   5    85  78   2    88  82   1    79  72   2    69  64   2    63  58   1    53  49   2    44  41   5    37  34   7    31  30   9    25  24   6    24  22   7    26  24   9    27  25  10    26  23   8    24  22   7    25  23   8    28  25  11    33  26  15    34  28  13    37  32  13    39  34  15    41  36  21    40  36  23    40  36  21    41  38  21    43  40  23    44  41  24    46  43  26    47  44  27    50  47  30    51  50  30    50  49  30    50  49  31    50  50  32    53  52  34    53  52  34    53  52  35    56  54  39    61  59  44    64  62  47  
 111  97   1   111  99   3   107  96   1   111  95   1   140 122   1   142 127   4    92  76   1    90  79   1    90  82   1    88  78   8    76  70   1    83  79   1    79  75   2    68  63   3    61  56   1    52  48   2    44  40   6    36  33   7    29  28   7    23  22   4    22  20   5    26  23   8    27  25  10    26  24   9    26  24   9    28  26  11    33  30  14    41  34  15    44  37  15    47  42  16    46  42  15    42  37  16    40  34  18    40  36  20    41  38  21    42  39  22    44  41  24    46  43  26    48  45  28    50  47  30    54  53  33    53  52  32    54  53  33    56  55  36    59  58  40    60  59  41    60  59  41    62  60  45    65  63  48    66  64  49  
 124 112   1   119 109   4   121 111   9   125 108  15   144 125   8   144 128  12    98  80   9   100  88   5   103  92   5    95  84  17    74  67   3    78  76   1    76  74   1    67  62   2    60  55   2    53  49   5    46  42   8    38  35  11    31  30  11    25  23   7    23  21   6    26  24   9    28  26  11    27  25  10    27  25  10    29  27  12    38  34  16    52  46  18    55  50  19    60  56  22    56  53  20    46  42  15    43  38  17    41  37  21    40  37  22    41  38  23    42  39  24    43  40  25    45  42  27    46  43  28    46  48  27    48  50  29    54  53  33    57  56  36    60  59  39    60  59  39    57  56  37    58  56  41    61  59  44    60  58  43  
 133 116   2   136 120   1   138 124   1   140 127   1   151 137  12   139 122  18   106  88   4   105  95   1   107  98   4   102  94  12    86  80   1    86  82   1    74  69   1    69  64   6    63  57   4    52  49   1    47  44   5    40  38   9    31  30   8    25  23   8    24  21  12    27  25  12    26  24  12    27  24  14    30  24  12    36  30   5    56  47  15    68  54  17    68  59  16    71  62  22    67  55  19    64  55  22    40  38  18    32  31  13    37  34  22    40  37  17    40  34  21    42  38  21    43  41  28    44  43  23    46  45  25    51  50  31    55  53  37    54  52  38    56  54  39    52  53  35    57  58  39    57  55  40    54  52  37    59  57  42  
 143 125   7   149 134  12   150 136  17   144 129  12   152 138  16   146 129  23   112  94   5   110  98   5   109 100   4   102  95   4   108 103  12    98  93   8    76  69   5    68  63   7    61  55   3    52  49   1    46  43   5    40  37   8    31  30   8    26  24   9    25  23  11    25  23  10    27  25  11    28  24  13    32  25   9    45  38  11    67  58  20    81  69  24    84  77  26    86  78  30    81  68  23    74  65  22    45  41  13    33  30  11    31  27  14    41  36  15    44  37  20    41  35  17    40  36  22    39  36  21    44  42  21    47  46  26    50  49  32    52  50  37    56  54  39    53  52  34    55  53  36    56  54  39    55  53  38    58  56  41  
 138 123   1   146 132  11   155 139  27   146 129  21   151 136  22   154 138  28   127 109  16   119 106  13   118 107  11   125 116  24   119 113  19   103  98   8    78  71   1    66  60   2    60  55   1    52  49   1    47  44   6    39  36   7    30  28   7    26  24   9    26  24  10    23  22   6    27  25   9    26  23  10    33  26   8    58  49  15    77  67  22    83  74  19    88  84  23    93  84  27    94  82  24    93  82  26    55  47  10    40  34  12    44  37  19    52  46  14    54  45  17    46  37  11    40  33  12    42  34  23    42  40  19    43  41  20    44  41  23    45  43  27    51  49  34    49  47  32    48  46  31    51  49  34    51  49  34    52  50  35  
 129 114   1   136 121   4   151 136  21   147 130  22   151 135  22   157 139  32   132 114  16   128 114  14   124 111  13   106  94   7   104  94   4   114 109  14    89  82   4    67  61   2    61  56   1    54  50   3    48  45   6    38  36   7    30  27   7    26  25   7    26  23   6    23  22   5    26  24   8    25  22   7    37  30   8    70  58  17    80  69  15    83  74  13    86  80  15    88  78  16   102  87  20   116 100  36    66  54  13    47  37  11    66  57  28    78  68  25    82  71  29    75  64  27    54  45  10    46  34  17    49  44  22    47  43  21    43  40  20    40  37  20    46  43  28    47  44  29    45  42  26    47  44  27    49  47  29    48  47  29  
 127 110   5   133 118   1   145 130  10   145 130  14   162 145  31   166 147  43   133 115  17   135 121  16   139 126  23   111  98   5   100  90   1   119 112  13   100  92   8    70  63   1    62  57   2    57  52   5    50  46   8    40  37   8    30  27   6    26  25   7    27  24   7    26  25   7    26  25   8    25  22   5    44  34   8    79  65  19    87  73  11    94  82  15    95  86  17    91  79  10   108  90  16   131 112  43    79  63  22    60  49  15    80  68  27    88  77  21    94  81  27    98  85  36    86  76  22    57  47  16    54  50  23    54  50  24    52  47  24    44  39  18    44  40  21    44  41  24    44  40  25    45  42  25    49  46  29    48  47  29  
 118 103   1   128 116   1   135 121   1   141 126   8   179 162  48   188 169  62   148 129  29   148 132  24   156 142  30   138 126  18   125 114   6   127 119  14   105  94   9    72  64   1    62  57   2    58  52   5    51  46   8    41  37   7    31  28   5    27  24   7    30  24   8    29  27  10    26  26  12    28  23   8    47  38  10    87  70  20    97  80  11   106  93  16   108  99  22   103  90  15   116  98  14   139 119  43    91  73  29    71  57  21    74  62  15    77  65   7    80  68  10    93  80  27   111 102  33    72  60  19    51  46  16    55  50  20    58  54  24    49  45  19    44  39  19    43  38  19    42  37  20    42  39  20    44  41  22    45  44  26  
 118 104   1   129 118   1   133 120   1   144 128  15   188 171  57   198 181  67   162 141  32   161 143  28   161 146  27   131 118   3   135 124  10   144 134  25   112 100  12    72  64   1    61  54   1    57  51   3    51  46   6    42  38   7    31  29   6    27  24   7    28  22   8    28  26  12    25  25  14    28  24  11    44  34   5    90  73  19   111  91  16   119 103  14   121 109  22   123 107  20   131 112  18   142 124  38    93  76  26    65  52  15    64  51   7    74  61   8    75  61  11    84  70  21   116 108  34    74  62  16    48  44   9    52  48  13    60  56  22    55  50  19    47  43  18    45  40  20    45  40  22    44  40  21    44  40  22    46  44  26  
 133 120   4   138 127   1   142 128   8   153 135  29   184 166  55   191 173  54   163 145  23   166 151  24   175 160  38   150 136  26   126 114   6   137 126  16   119 108  12    73  65   1    59  52   1    55  49   1    50  45   6    42  38   7    32  30   7    26  23   6    25  19   5    25  23  11    23  23  13    28  23  13    40  29   1    90  72  17   121 102  22   132 116  16   131 118  22   138 122  28   144 125  22   144 126  32    90  74  17    63  49  15    70  57  16    80  67  22    75  60  18    75  61  19   114 107  32    84  73  26    50  46   9    51  47   9    63  59  21    60  55  22    54  49  20    53  48  26    56  51  31    56  51  31    53  50  30    56  53  35  
 146 126   1   162 143  14   166 148  21   162 142  26   179 159  47   186 167  48   168 151  26   170 156  30   180 164  41   165 148  30   147 133  10   143 132  14   113 101  11    75  66   4    63  58   1    54  48   1    46  42   2    40  36   6    32  29   8    26  23   6    24  22   2    26  25  10    25  25  11    26  20   7    44  30   9    98  77  23   124 104  17   131 113  15   141 123  23   147 128  29   150 131  30   144 123  37   103  77  27    77  52  18    92  72  15   110  92  19   109  90  15   102  87  11   121 112  26    79  67  20    53  48  10    59  54  11    66  62  17    60  56  14    59  51  19    56  46  19    59  50  25    58  52  26    57  51  26    59  53  29  
 149 131   4   163 146  16   162 144  17   164 144  27   177 157  43   174 155  34   166 149  24   172 158  35   175 159  40   161 144  30   162 147  30   143 132  19   106  93   7    73  65   3    63  57   1    54  48   1    46  41   2    40  36   7    32  29   8    26  23   6    26  24   3    25  23   9    23  22   9    27  20   7    46  32  12    97  77  23   123 103  15   128 109  13   137 119  21   138 118  21   140 121  19   150 129  40   107  80  28    92  70  16   117  97  22   132 114  31   141 123  37   145 130  40   140 129  38    77  60  12    57  48  20    64  56   5    72  63   2    66  54   4    58  45  10    54  44  17    61  53  29    63  56  28    61  53  27    58  52  26  
 145 127   1   154 137   7   161 144  16   171 152  30   171 152  32   165 146  24   167 150  25   171 155  34   168 151  34   157 139  28   159 144  29   142 131  22    97  85   7    69  61   2    61  56   1    54  48   1    46  41   4    41  36   7    32  30   7    25  23   5    28  26   5    24  23   8    23  22   8    28  22   8    49  34  12    95  75  19   120  99  12   126 106  14   131 112  15   128 108  11   128 109   8   154 133  43   116  88  28   108  84   8   130 112  13   137 117  20   149 129  29   159 141  36   143 129  27    91  71   9    65  51  11    88  75   1   104  90   3   103  87   8    88  74  10    67  56  12    61  52  23    66  57  26    68  61  31    71  64  35  
 134 116   1   151 133   5   157 139  11   156 138  11   166 148  24   169 151  25   159 142  15   160 145  20   158 142  22   153 135  23   161 146  31   133 122  13    92  80   1    70  61   3    60  55   1    54  48   1    47  42   4    41  37   7    32  30   7    25  23   5    28  26   5    26  25  10    26  26  11    32  26  10    49  34  12    95  74  18   119  97  11   130 109  18   131 111  13   132 114  15   128 108   6   157 134  40   126  98  30   123  98  13   148 127  19   158 138  26   165 145  35   160 140  27   141 123  13   117  95   8    97  82   1   126 111   2   139 119   4   139 118   6   127 114   2   100  92  11    76  68  22    73  64  29    74  66  30    75  66  33  
 138 123   1   145 130   3   144 127   5   140 122   1   158 140  13   168 150  22   157 139  12   152 135   5   156 138  12   162 144  28   155 143  23   124 115   5    90  81   1    70  62   2    60  54   2    53  47   1    46  41   4    41  36   7    32  30   7    26  23   6    28  26   5    28  26  11    29  27  13    31  25  10    48  33   9    99  78  19   129 107  18   143 119  27   145 125  24   151 133  33   143 124  22   162 138  40   134 104  27   125  97  12   146 124  16   163 143  22   167 147  30   156 135  18   150 128  11   148 126   7   127 110   1   151 133   1   157 134   1   153 129   1   143 126   1   123 112   1    96  85  16    84  72  32    85  75  35    85  76  37  
 146 132   7   137 121   1   135 120   1   147 131   5   161 144  12   163 144  17   160 141  15   160 141  11   163 145  20   155 138  21   132 120   2   121 112   2    89  80   1    67  60   2    59  53   1    52  45   1    46  41   3    41  36   7    32  30   7    26  23   6    31  26   6    28  25  11    27  24   9    28  23   5    47  32   8   105  84  24   140 118  27   151 128  31   160 140  34   168 151  47   162 143  40   169 145  44   140 109  24   131 103  13   146 123  14   157 138  11   162 142  21   167 146  22   181 158  31   187 164  21   156 136   4   171 152   2   178 158   7   173 152  10   155 136   1   146 128   2   115  99   8    81  69  24    87  76  31    93  82  39  
 141 127   5   133 117   2   137 120   4   150 134   8   168 151  19   160 142  15   147 127   4   159 139  14   158 137  18   129 110   2   117 104   1   116 106   6    81  73   1    66  58   2    59  53   3    52  45   1    45  40   2    40  36   6    33  30   8    27  24   5    30  26   6    27  24  10    26  24   9    29  22   5    48  33   8   105  84  24   141 119  26   152 128  25   158 140  26   165 148  40   169 150  44   172 147  44   149 116  25   142 115  12   152 132  12   158 140   7   168 150  23   183 164  29   198 175  42   202 179  25   176 151   5   175 156   1   181 165   2   179 164   1   165 147   1   165 142   4   128 107   6    80  68  20    83  71  23    87  74  29  
 142 127   9   125 110   2   137 121   4   144 130   2   156 140   6   150 132   6   132 110   1   140 119   1   134 112   1   120 101   1   115 100   1   111 102   8    76  67   1    64  56   3    58  52   2    51  44   1    45  40   3    40  36   6    33  30   8    28  25   6    30  26   6    27  25  10    28  25  10    31  24   7    48  33   8   103  83  21   136 114  20   147 124  17   147 129  12   153 137  23   166 148  40   171 146  42   157 124  30   152 126  10   160 141  12   162 145   9   178 161  28   195 178  33   209 187  49   222 199  44   188 164   1   185 165   1   190 178   2   196 187   1   190 175   1   188 162  10   139 112   7    87  73  24    91  79  29    97  85  37  
 145 132   2   119 106   1   130 118   6   133 122   3   144 134   3   130 114   2   121 104   1   111  99   2   112  99   1   115 101   4   111  98   3   102  94   8    72  65   1    61  57   1    55  52   1    51  47   2    45  41   4    39  34   1    36  29   7    28  22   9    31  25   1    27  25   6    28  27   9    31  26   9    51  36  13   101  80  23   127 106  18   137 121  20   138 123  20   139 120  27   147 126  32   166 144  40   158 131  33   154 128  11   174 152  16   188 165  38   203 182  60   211 189  62   224 199  71   231 207  61   215 187   1   203 179   3   200 180  11   196 179   9   207 194   1   205 191   1   130 108   5    84  69  20    90  77  28    98  88  37  
 147 136   6   126 114   1   126 115   4   120 108   2   128 117   1   112  96   2   106  88   1   116 103   1   122 110   3   115 102   1   105  94   1   100  92   2    72  64   1    62  56   1    59  53   1    52  47   6    47  43   5    42  38   4    38  32   8    31  25  11    32  26   5    30  28  10    30  29  10    33  27   9    53  39  14    97  77  21   119  99  11   128 110  14   129 111  10   128 109  13   140 120  22   165 142  36   161 135  34   160 134  16   182 160  24   199 176  49   216 194  72   223 201  74   234 209  81   239 215  69   229 207  12   224 206   7   214 199   2   211 198   4   214 204   1   204 191   1   130 106   3    83  68  17    92  79  28    96  85  33  
