P3
50 50
255
 195 178 109   195 176 107   184 166  92   175 157  80   182 164  86   183 164  86   156 136  47   148 128  41   147 130  42   161 143  59   178 158  82   198 177 109   217 195 136   220 197 142   236 213 158   239 221 175   243 233 200   237 237 212   240 238 217   245 237 214   239 222 193   238 215 179   222 204 156   212 191 146   196 174 126   190 167 113   185 164 101   165 145  76   148 129  61   147 129  65   129 112  40   129 112  42   138 120  54   148 128  67   149 127  69   150 128  70   157 133  75   160 135  78   166 146  85   177 157  96   179 159  97   173 153  89   178 157  92   180 160  92   171 151  78   163 144  68   162 139  67   162 140  67   165 143  70   169 145  73  
 193 173 104   199 179 105   187 167  88   176 157  74   176 155  71   159 137  53   132 110  21   135 113  24   142 119  33   160 137  54   177 153  76   188 163  93   191 164 101   179 152  94   165 138  77   189 166 113   229 215 172   241 234 200   238 233 206   244 237 209   241 226 199   235 218 187   235 217 169   232 212 166   216 193 148   199 176 125   186 165 102   163 143  74   145 125  57   144 124  59   130 113  41   130 113  43   137 120  52   148 129  66   152 133  71   154 133  74   159 138  79   167 145  86   164 146  81   173 155  91   176 156  93   169 149  85   175 154  88   175 155  86   163 142  69   158 138  62   157 135  63   154 131  58   155 132  59   159 135  63  
 198 177 105   191 168  91   170 149  65   169 146  60   169 146  58   132 109  21   127 102  15   137 112  25   140 115  29   143 115  34   139 111  34   137 107  36   145 115  48   146 116  52   145 114  57   183 156 103   233 213 166   242 229 188   237 230 193   243 236 201   238 229 196   238 228 194   237 219 177   234 214 176   229 207 166   220 196 147   202 180 117   175 154  81   144 124  50   125 106  33   132 115  46   138 121  53   141 123  58   145 127  65   154 135  75   161 142  82   163 144  83   165 146  84   159 141  74   163 145  79   170 151  86   166 147  81   169 148  81   170 150  81   160 138  66   155 133  59   154 131  61   150 126  55   148 124  52   150 123  52  
 198 175 102   176 153  64   153 130  41   136 111  25   152 126  36   120  92  16   107  84  13   114  90  20   107  81  14   104  76   8   111  82  12   126  98  27   153 124  58   195 168 105   209 187 133   227 204 153   240 219 170   237 220 175   237 222 182   240 228 192   236 226 194   237 227 198   240 228 195   235 220 185   233 214 173   226 203 154   205 179 121   178 154  84   152 131  54   129 109  28   110  91  28   120 100  37   135 115  51   148 125  62   153 131  70   161 140  81   169 149  92   174 154  98   167 151  89   159 142  81   160 144  78   156 139  71   158 138  69   166 146  77   160 138  70   144 123  54   148 125  57   145 123  54   136 117  45   133 113  41  
 177 154  77   168 146  45   140 116  28   105  75  10   124  97  21   113  84  18    79  55   5    79  52   3    78  50   1    95  66   5   122  93  21   152 126  49   169 143  69   194 169 103   216 196 143   226 206 153   232 212 161   234 213 167   235 218 175   236 222 185   237 224 192   237 228 199   241 232 201   239 227 192   236 218 177   222 200 151   200 175 118   181 157  90   158 136  59   128 110  28   109  90  25   112  93  27   125 104  38   141 117  53   149 125  63   155 133  74   164 143  87   169 148  93   165 149  89   164 147  86   170 153  87   165 148  78   153 134  65   151 131  62   146 124  57   139 118  51   139 116  49   145 125  56   137 118  47   128 110  38  
 124  97  27   150 128  29   146 122  37   104  74  22    97  71  14    88  61   9    77  53   9    77  50   5    87  60   7   110  82  19   130 102  29   164 138  63   186 159  93   200 174 115   204 184 131   213 193 140   223 202 151   231 209 162   236 217 174   237 221 184   238 225 191   240 229 199   239 233 201   242 232 197   236 221 182   217 196 149   196 174 116   182 162  93   154 136  60   121 104  26   112  93  24   119 100  30   130 110  41   141 118  50   148 124  59   156 134  74   165 145  86   167 146  89   155 137  72   155 137  71   162 143  75   161 142  73   154 134  65   145 125  56   138 117  48   140 119  52   132 111  44   145 125  57   135 115  46   125 104  34  
  90  62   2   108  84  13   126 102  32    99  72  17    86  60   7    74  46   6    67  42   1    79  52   6    95  68  16   111  83  18   111  84  10   132 107  31   167 139  74   196 170 114   196 175 119   206 185 130   218 196 143   228 205 156   236 215 169   238 220 179   238 224 188   242 229 196   238 231 196   239 228 195   235 220 184   218 197 152   197 177 117   179 161  90   144 129  53   109  97  19   113  95  20   128 110  36   143 123  52   150 127  59   154 131  64   159 138  75   163 143  81   163 143  83   158 138  70   155 136  67   153 134  66   149 130  61   147 127  59   138 119  50   125 104  37   125 105  38   132 113  45   139 119  52   128 108  39   124 101  33  
 106  81  17    90  63  11    99  72  20    91  66  11    95  72   7    87  62   8    83  59  10    96  70  20   105  78  23   121  94  28   123  96  20   134 108  31   160 133  62   191 166 102   191 167 111   203 179 124   215 191 137   223 200 149   231 210 162   235 216 174   238 221 184   240 226 190   237 228 189   236 222 188   236 218 185   222 200 156   200 181 117   173 156  80   129 116  38   103  91  16   117  99  24   132 114  41   145 125  55   152 129  61   158 135  68   161 140  74   158 139  72   153 133  68   145 126  56   144 125  56   138 119  51   126 108  42   126 108  43   126 108  44   118 101  37   120 103  37   125 107  40   129 110  42   128 107  39   132 108  41  
 116  95  27    96  70  16   105  80  24   118  93  34   130 107  32   128 105  32   128 108  31   127 104  32   116  92  24   129 102  34   139 110  39   150 124  51   168 140  73   184 159  97   185 160 103   199 174 117   210 185 130   216 192 138   225 203 153   234 213 169   237 219 180   236 222 183   237 225 181   232 217 181   237 216 182   224 200 155   199 179 112   166 149  68   123 109  28   104  90  15   121 102  32   134 115  46   144 123  57   151 128  63   160 137  72   162 141  74   153 134  66   144 126  55   136 118  46   129 111  42   117  99  32   100  84  21    99  82  21   104  88  29   104  89  28   104  92  29   113  95  28   123 104  36   129 106  39   137 112  45  
 111  90  32   119  95  35   141 119  42   155 132  57   151 126  46   150 124  47   144 127  39   138 117  38   120  96  26   125  98  29   128 100  28   143 117  42   163 136  62   169 145  74   177 151  94   193 167 110   203 177 122   208 183 129   218 195 145   229 208 163   233 216 173   232 217 178   237 223 176   234 216 178   239 215 181   221 197 149   197 174 106   164 146  62   122 107  24   109  94  19   125 107  40   140 121  55   150 129  66   156 132  70   161 137  73   155 134  67   142 124  52   133 115  41   121 104  32   117 100  31   111  96  31    99  84  23    92  77  18    91  78  20    90  80  19    94  83  22   109  91  25   121 102  36   124 101  34   132 107  43  
 110  91  23   140 122  49   161 142  66   157 138  61   146 127  50   138 120  43   147 132  40   125 110  29   104  87  16   103  86  18   110  91  22   127 105  30   155 127  54   162 132  60   177 149  85   190 161 101   198 172 115   207 182 128   218 194 144   226 204 157   233 210 168   240 218 177   237 219 179   236 217 174   231 213 167   220 199 154   202 183 124   167 150  72   127 110  28   113  95  21   133 108  43   150 126  62   158 135  68   157 136  69   157 136  71   151 132  64   137 119  47   117 101  25   108  93  28   103  89  28    97  84  30    82  72  22    80  68  23    86  75  30    83  70  25    82  69  24   103  91  36   107  91  29   122 102  33   139 114  47  
 161 141  78   176 157  89   185 165  93   167 147  73   145 126  51   145 126  50   148 131  55   120 103  35    93  75  14    95  76  15   109  88  21   125 101  28   146 119  43   156 126  51   172 144  81   187 158  98   198 172 115   204 179 125   213 190 140   228 205 160   237 216 173   238 217 176   233 216 178   233 217 173   232 214 171   226 205 163   210 189 133   171 152  77   134 114  36   129 108  38   143 115  49   154 128  64   156 131  70   159 138  73   159 140  72   145 129  58   123 107  38    97  83  18    93  79  20    94  79  24    90  78  28    74  63  19    65  53  13    69  58  18    73  62  19    78  65  22    89  76  23   101  85  23   122 103  34   143 118  50  
 207 186 128   188 168 105   188 168 102   176 156  87   153 133  63   148 128  56   146 130  53   113  95  27    88  69   8    93  72  14   108  85  22   125 100  31   147 118  50   159 129  62   172 144  81   184 155  95   196 170 113   202 177 123   209 187 137   228 206 161   238 218 176   234 215 174   234 219 184   235 221 179   237 220 178   230 208 168   213 191 138   182 161  89   150 125  50   140 112  47   146 116  46   152 123  61   153 127  71   156 134  73   151 133  62   128 115  41   104  92  27    86  74  22    88  74  23    86  73  25    80  68  26    65  54  18    56  46  13    59  49  15    67  54  18    73  61  22    80  67  17    97  82  23   121 102  34   143 119  49  
 205 184 129   187 167 108   189 168 105   182 160  94   160 140  71   150 130  59   133 118  37   103  86  14    94  75  10   105  82  21   112  88  23   131 105  37   155 127  61   166 136  72   176 148  85   183 154  94   193 167 110   201 177 123   210 188 139   226 207 161   236 218 175   233 215 175   234 221 186   235 222 180   243 225 185   233 211 172   209 186 134   183 160  90   152 126  52   130 100  36   145 115  44   153 123  61   157 130  75   158 136  76   141 124  54   105  95  23    81  71  14    71  59  19    79  67  23    74  61  22    62  51  18    51  41  14    48  38  11    52  42  13    61  49  16    66  54  18    73  60  15    96  81  25   121 102  36   147 123  53  
 200 179 122   188 168 109   185 164 101   179 158  91   161 141  70   144 125  49   103  88  19    87  69   8    98  76  18   114  89  31   124  96  31   145 118  45   165 139  66   171 143  73   171 143  79   182 154  91   196 169 113   205 182 128   214 194 144   227 208 164   236 218 178   236 220 181   239 225 189   233 218 177   239 221 181   228 206 166   197 174 122   170 146  74   145 120  45   129 100  35   151 122  54   157 128  65   156 132  70   153 133  68   129 114  45    91  80  17    70  58  12    65  52  19    63  54  15    58  49  15    48  38  12    42  33  12    40  32  11    45  35  10    58  47  17    65  54  19    74  62  19    98  82  29   121 102  36   147 123  53  
 199 179 118   189 169 106   184 163  98   176 156  84   151 132  56   124 105  26    84  67  11    74  54   4    79  55   7    92  64  15   116  86  29   140 110  47   142 113  50   138 110  49   149 121  56   177 149  86   199 174 117   209 186 132   218 198 148   228 211 167   236 221 180   240 226 187   241 226 187   237 220 177   232 213 170   218 196 154   199 176 122   178 156  83   151 128  52   141 114  45   149 124  60   152 127  61   147 125  56   138 119  50   112  97  32    80  64  12    66  52  14    69  54  26    58  50  14    55  46  15    43  35  12    41  34  16    40  33  15    44  36  13    59  50  19    68  58  22    74  62  23    98  84  33   120 100  37   144 120  50  
 186 166 101   179 161  91   175 156  83   157 138  62   126 109  32   104  87  10    87  70  13    94  73  21    97  71  21    92  62  12    94  61  11    96  63  15    93  61  14   106  75  26   142 117  53   174 148  84   199 175 116   208 186 130   219 198 147   230 212 168   238 222 182   242 226 190   236 215 177   236 216 175   228 210 167   222 201 159   216 193 141   194 171 100   159 136  58   138 115  45   143 119  55   145 125  55   139 120  48   123 106  37    96  79  23    69  53   8    62  47  11    65  51  19    59  52  19    52  46  18    43  36  14    43  36  18    45  37  17    49  40  16    62  53  21    69  58  22    71  58  19    95  81  31   120 101  38   143 120  50  
 171 151  76   166 147  65   160 142  56   134 117  38    98  81  15    73  57   2    72  51   9    87  63  15   107  79  24   119  88  27   118  82  30   110  74  30   105  73  22   145 116  51   182 159  98   182 159  98   196 175 116   209 189 134   219 201 150   236 217 171   243 223 183   237 217 180   227 199 159   231 209 172   235 219 176   238 220 179   221 198 157   186 162  97   150 131  49   129 110  39   136 118  43   138 121  46   123 106  39    92  75  21    72  55  15    69  53  21    70  56  22    66  54  15    55  49  19    48  40  14    46  37  13    48  38  15    51  39  14    59  46  17    70  57  23    75  61  24    74  61  19    93  79  26   117  99  35   136 116  47  
 147 123  40   145 124  38   134 112  30   111  92  21    89  69  16    68  49  10    66  44   4    67  44   1    72  43   5    92  60  11   113  80  23   127  95  33   135 105  42   167 139  79   196 166 110   191 164 110   198 177 126   205 188 139   216 202 154   235 218 169   231 209 160   212 187 135   219 191 151   235 211 175   241 223 182   240 222 179   222 199 152   182 162  88   144 128  39   120 105  30   130 112  34   120 101  30    97  78  19    72  53   8    63  48  10    69  54  22    70  56  29    65  50  25    55  47  12    47  36   5    44  34   6    51  38  12    58  42  16    67  49  20    76  58  25    80  61  25    77  64  22    93  77  25   114  96  32   132 112  43  
 123 101  27   116  93  22   105  85  15    94  74  12    78  61   9    70  53  10    79  57  16   109  86  33   115  88  32    93  61  11    95  61  13   129  97  39   149 119  57   183 154  98   209 179 125   206 179 125   211 187 132   218 194 139   228 203 147   219 189 133   195 162 102   192 154  96   208 180 140   229 205 171   237 219 179   238 219 176   218 197 143   176 158  77   141 128  32   119 107  29   111  98  27    85  70  10    65  50   4    66  52  10    71  60  15    64  56  11    55  48   7    50  43   9    48  40  12    45  35   9    46  35  12    52  40  17    58  44  18    64  48  19    73  56  22    80  65  26    78  63  22    92  76  25   115  97  34   135 113  46  
  90  72  13    88  68  15    90  70  19    86  69  17    73  57   8    70  55  10    73  48  16    95  72  17   133 105  40   130  98  41   102  66  17   120  85  31   149 117  53   177 148  80   208 186 125   212 187 122   216 184 116   200 163  92   182 139  69   165 120  54   159 113  54   183 138  82   206 184 139   238 218 184   244 229 190   236 217 172   211 190 133   174 156  70   143 129  34   111  98  23    80  74  15    68  60  13    58  48  12    56  47  14    60  51  16    56  50  12    53  47  10    51  43  13    41  34  17    42  33  18    43  34  19    47  35  19    52  41  19    57  46  16    64  54  18    72  63  20    76  61  20    92  74  26   114  94  35   135 111  47  
  89  71  15    94  73  21   100  78  27    93  71  21    74  53   8    76  54  14    95  70  22   113  87  27   128  97  31   130  94  31   115  76  19   110  72  17   133  97  37   185 153  86   207 180 107   196 166  90   173 137  58   145 103  26   150 105  33   162 119  55   165 126  72   196 158 110   238 223 175   247 232 198   238 224 188   233 215 172   213 191 133   178 157  70   142 126  32    97  83  14    73  63  18    67  56  15    58  45  13    53  38  12    55  37  14    55  37  14    54  35  13    53  32  10    47  32  12    50  35  15    48  33  16    46  32  14    52  40  19    59  48  20    64  55  20    68  59  23    80  62  24    96  78  31   112  91  33   136 110  49  
 101  77  24   110  85  23   140 113  45   136 107  41    98  67  10    97  65  17    89  60  10   101  70  18   128  92  33   134  96  30   123  83  18   135  94  34   152 114  49   185 150  73   183 144  60   161 123  40   157 122  42   167 133  61   196 167 103   219 193 138   219 195 148   238 216 174   243 233 182   244 233 197   234 223 187   236 219 175   218 194 137   182 159  74   141 122  34    85  67   7    69  52  14    69  51  11    68  47   7    67  43   8    71  42  13    76  45  16    83  52  14    88  56  12    72  47  10    79  54  21    73  50  22    59  38  13    56  37  13    58  42  17    60  47  19    64  50  21    80  62  24    97  79  31   110  88  31   138 112  52  
  72  50  11    89  66  16   128 104  36   137 112  30   124  96  17   122  88  22   113  82  27   106  73  20   106  73  19   115  79  20   135  97  32   158 115  48   156 112  41   153 109  33   146 101  29   152 111  41   160 124  58   179 150  87   188 164 106   205 180 129   218 193 147   235 208 167   240 222 183   243 229 186   237 224 179   234 219 173   216 198 137   178 160  76   126 111  32    66  51   1    93  62  15   108  80  28    86  55  20    87  50  14    92  47   3   122  72   8   152 104  18   157 107  29    95  65  13    96  66  22    90  62  26    69  46  14    71  51  18    69  51  19    65  48  20    72  54  31    74  56  20    97  76  32   111  87  32   136 107  44  
  85  67  20    80  62  16    86  64  13   121 102  16   145 124  28   111  82  23    95  63  23   109  77  35   118  86  37   114  82  25   116  82  18   128  88  20   143 100  29   157 113  42   166 136  71   166 136  73   152 125  66   154 129  72   157 131  79   169 142  95   187 159 116   198 166 127   208 184 150   215 191 150   227 200 161   226 199 158   212 188 130   147 126  50    95  71   6    94  64  24   134  99  29   150 118  43    94  59   5   110  69  17   127  77  15   147  93  18   175 123  38   148  96  31    78  45  12    73  42  15    75  44  22    67  41  16    85  62  28   100  78  38    93  72  32    72  49  12    70  56  19    92  73  31   110  87  37   128  99  40  
 127 117  19   120 111  12   139 129  32   142 132  21   127 114  14    96  75  14    93  67  22    95  69  26    89  62  22    79  50  11    77  44   4    93  59   6   138 100  37   177 139  70   203 183 122   208 185 127   211 189 132   214 191 141   225 201 155   232 209 165   240 219 177   234 216 173   240 218 178   225 198 160   206 174 138   143 110  71   171 144  89   125 100  34    94  61   6   109  68  27   145 109  37   141 109  35    92  57   1   122  81  23   138  89  28   124  75  16   121  78  22    98  56  24    77  47  25    74  46  24    70  43  20    67  41  12    84  59  18   102  75  28   115  85  33   100  70  18    76  60  20    83  64  21   100  76  28   123  92  38  
 134 125  17   132 125  19   153 146  45   127 117  36   105  90  27   106  92  24   111  89  45    90  68  27    81  58  22    89  64  30   115  88  48   140 110  60   147 116  53   154 122  52   172 142  83   182 152  96   202 171 119   211 182 133   229 203 157   235 215 168   244 230 181   242 231 181   240 219 169   243 222 177   224 204 159   124 100  50   106  77  20   129  98  35   116  84  25   110  79  23   101  70  19    82  52  10    72  41   8    88  54  21   102  65  25    94  60  19    60  35   2    59  40  20    76  56  19    97  77  40    88  69  31    75  53  14    90  64  23    97  66  22   112  79  32   120  85  35    96  72  26    96  70  23   100  71  22   121  89  37  
 132 123   6   138 131  18   145 138  39   125 114  39   105  91  29   108  94  27   121 102  41   116  98  37   118 100  39   114  94  33   133 112  48   171 146  79   184 156  87   187 157  86   198 169 108   172 144  86   160 131  76   167 137  87   193 163 116   196 169 120   199 172 121   206 180 129   190 156 105   192 169 116   226 212 156   147 123  68   102  62   6   159 112  50   146 107  39   118  91  20    88  68  17    58  39   8    45  27   7    47  28  11    62  42  20    67  49  23    38  26   8    33  29  11    52  38  13    72  59  32    66  52  23    52  35   6    67  46  18    76  51  22    91  61  29    98  68  30   100  69  24   102  71  23    99  68  15   118  88  29  
 152 141  27   167 160  45   157 150  37   141 133  26   124 116   9   136 126  18   159 150  14   164 155  25   155 145  26   139 126  20   144 125  35   176 151  70   202 175 102   204 174 107   216 191 133   224 201 145   222 200 148   211 188 140   202 177 132   181 150 104   152 115  68   152 110  64   177 135  93   187 157 103   222 203 144   134 104  55    89  44   3   173 123  58   172 132  56   124  95  20    86  71  14    50  37  10    25  21   1    28  23   8    37  30  11    37  28   9    32  23  16    32  28  13    34  24  19    33  25  14    37  29  15    34  26  11    41  29  17    45  30  15    58  40  18    67  49  18    80  54  17   101  75  32   111  87  31   122  99  31  
 146 130  45   164 154  45   158 157  10   147 141   4   121 113   1   149 143   1   184 180   1   186 184   6   172 168   2   180 171  18   181 167  38   184 163  60   205 176  97   196 162  98   211 178 129   233 206 158   233 215 168   234 218 175   240 224 181   236 213 170   195 164 120   189 150 105   235 201 165   231 207 153   204 185 127    82  57  15    86  50   9   155 118  50   178 149  66   123 100  24    69  51   9    35  21  11    28  24  13    22  22  10    28  24   5    38  29  12    35  22  22    40  28  19    34  28  23    28  23  12    34  32  15    28  25  10    31  29  17    34  29  18    41  33  15    47  40  13    58  41  15    69  52  18   101  84  30   132 114  40  
 113  92  28   124 105  30   123 110  13   104  92   1    96  86   1   122 114   1   162 156   1   175 171   6   172 170   5   181 177  23   189 182  38   191 176  47   200 174  68   196 162  77   202 169  97   232 203 146   234 211 169   233 214 181   241 226 187   243 225 179   226 204 155   189 163 115   220 204 143   254 236 190   189 160 108    68  44   1   120  84  37   170 145  88   175 150  68   122 103  26    51  46   9    42  35  11    29  22  13    26  18  14    29  22  13    33  27  10    37  30  12    34  27   9    28  26  21    30  25  13    39  32  13    40  33  15    31  28  11    34  31  15    44  36  19    47  32  11    48  39  10    48  41  15    69  55  20   105  79  22  
 145 127  73   120 102  33    91  73   5    89  69   3    90  70   3   108  88  17   123 102   1   133 116   1   149 139   5   173 166  18   182 173  29   191 176  51   205 184  71   192 168  54   193 166  84   221 197 130   232 210 164   234 219 178   239 226 180   246 231 179   236 217 167   198 174 129   212 194 148   249 230 187   185 155 106    74  48  13   148 110  72   180 156  97   172 148  64   102  81  12    60  47  16    64  50  22    57  45  20    46  37  13    39  30   8    38  29   8    43  32  15    51  38  23    51  41  20    58  44  22    52  37  14    39  27   8    35  28  15    35  31  19    38  32  17    42  32  13    41  33   9    50  42  19    65  52  14    99  74  11  
 142 130  66   112  99  21    85  67   4    93  71  14   101  77  13   119  93  26   130  98  12   142 118   8   147 131   1   153 142   3   165 155  26   189 174  64   207 189  93   202 182  89   199 178  92   215 195 120   226 208 149   233 220 170   237 224 175   240 227 178   239 222 176   218 197 155   214 188 139   247 220 174   181 144  92    84  50  17   160 114  76   215 183 120   205 175  82   120  93  14    60  35   6    73  52  16    79  63  21    73  60  19    66  53  21    59  45  22    57  40  20    64  46  26    76  57  17    94  73  35    87  62  31    58  37  16    41  29  17    33  28  17    32  28  15    42  36  17    45  35  16    50  43  19    69  55  15   113  90  21  
  85  76  24    83  71  13    92  75  19    99  77  27   106  81  23   123 100  23   147 114  31   162 136  23   159 141   6   149 136   3   156 144  28   186 171  72   208 193 108   208 191 117   206 188 112   212 195 122   216 201 134   229 214 157   241 225 180   243 226 187   239 221 183   230 212 171   208 180 126   237 207 164   181 142  87    98  63  15   167 121  67   216 182 114   190 156  64   125  96  12    79  49   8    80  54   9    77  57  11    63  47  10    58  43  17    58  43  23    58  41  17    70  51  21    79  56   8   100  73  27    99  68  31    71  45  19    47  30  16    37  28  17    36  30  15    42  36  16    45  33  12    49  40  16    81  67  23   130 106  35  
  67  57  28    83  72  38    96  82  36    86  68  25    93  75  26   124 107  32   143 117  33   157 133  38   152 135  19   148 134   8   170 157  45   198 184  95   209 193 117   204 190 113   215 200 130   223 206 136   220 203 134   222 205 143   240 220 171   249 230 189   243 225 186   234 219 177   227 202 163   237 213 178   182 149  92   115  90  25   199 161  91   190 166  96   131 102  22   104  79  11   104  75  20    83  59  10    66  48  11    44  29   7    34  21   8    39  26  12    46  34  10    63  49  17    73  54  11    92  66  25   101  71  32    84  55  23    56  36  13    45  31  12    46  35  16    50  39  17    65  49  23    53  42  12    86  69  23   143 116  45  
  77  69  46   104  98  62   110 104  58    86  77  35    78  68  24   101  92  40   139 119  48   159 140  65   152 135  47   139 124  23   169 156  56   209 195 109   215 199 123   203 187 112   217 204 128   229 212 143   233 212 150   226 205 142   227 208 139   240 222 155   244 228 174   244 228 184   237 207 163   234 205 163   183 146  83   128  94  37   184 139  77   164 132  62   128  92  10   115  83  17    99  73  16    68  45   2    51  35  10    34  25  13    25  18   8    27  21   9    29  22   4    39  28   9    56  43  15    76  57  24    95  70  31    95  68  30    76  53  21    60  43  16    60  42  17    68  48  22    80  62  25    64  50  14    83  62  15   138 108  39  
  57  47  27    71  64  30    89  84  48   107 103  67    92  86  53    67  60  28    70  55   6   111  96  36   132 118  46   110  95  20   109  94  11   144 131  38   184 170  79   195 179  97   192 176  87   200 182 104   213 191 126   210 187 116   204 185  98   212 193 100   221 203 123   229 205 155   227 187 126   192 152  96   126  79  28    82  36   3   117  65  20   142 100  37   156 113  32   159 117  39   102  80  21    57  39   1    40  27  11    31  24  13    25  22   9    31  28  13    30  23  10    34  24  11    37  28   6    55  40  11    77  54  18    87  62  24    88  63  28    83  61  29    78  58  25    80  59  24    78  59  18    87  70  27   100  78  24   124  97  28  
  59  43  13    61  47  18    52  46  13    80  76  39   111 106  73   119 110  58    90  80  29   101  91  32   116 106  41   112 100  32   117 103  29   113  99  10   138 124  26   181 166  66   184 165  65   167 150  50   168 149  67   170 150  68   178 155  61   194 170  47   191 164  35   172 135  56   150 109  46   120  78  32    81  37  17    83  40  18   125  88  41   126  89  37   109  71  17   141 105  30   101  85  27    52  37   7    34  22  13    29  23  10    35  33  11    51  45  22    49  37  15    52  36  12    56  42  17    62  44  14    77  55  19    80  54  17    79  52  17    91  66  29    94  74  30    88  73  21    83  64  19   101  78  25   131 105  39   142 116  43  
  85  74  10    92  83  16    91  89  19    83  83  15    86  80  28   120 111  47   108  95  36   108  96  33   137 123  55   134 121  45   135 120  38   132 119  30   117 103  10   163 148  53   192 185  79   174 164  63   182 166  82   173 154  74   141 117  28   158 135  10   185 161   7   163 131   5   117  85  11   114  76  33   123  80  45   166 124  74   196 157 100   177 145  78   115  88  21    90  65  11    79  63  23    47  31  12    35  23  17    35  29  14    52  49  22    71  67  34    66  57  23    68  55  17    77  55  22    73  47  10    81  53  12    87  58  15    86  56  17    85  58  18    86  64  17    93  75  20   105  85  31   126  99  37   156 120  50   162 125  52  
 100  94   1   106 100   8   121 118  24   114 112  28    88  79  20    94  84  24   161 144  82   170 152  88   157 140  68   144 129  45   160 146  51   161 148  53   118 105  13   155 141  53   197 192  87   190 177  83   201 181  93   191 169  84   132 109  28   133 111   7   171 152   9   170 148   1   145 122   6   135 103  27   142 108  46   222 186 128   231 199 150   209 183 121   165 147  71    93  76  16    58  44   7    38  26   3    48  38  22    56  52  24    60  58  18    71  68  26    72  64  20    71  61   9    93  67  14    92  66  11    90  61   4    91  61  10    96  65  22    83  55  15    78  55   8   105  83  33   132 104  40   141 109  37   157 120  46   116  81  19  
  75  65   5    75  65  17    70  61   7    80  72  11    85  73  25    93  83  24   173 159  90   182 167 100   125 109  40   120 104  29   150 137  46   169 157  54   153 142  38   163 152  52   202 193  89   193 174  79   180 153  60   197 168  90   195 171  97   175 160  60   138 122  13   108  85   1   148 119   3   152 124  21   155 130  53   235 209 159   242 219 178   216 197 141   193 175  99   138 122  34    74  67  15    56  48   8    62  56  19    70  69  20    70  70  16    71  69  18    69  63  13    69  63   6    98  79  11   115  93  26   113  91  25    98  74  19    94  71  28    87  63  26    77  56  17    86  68  26   107  85  37    98  73  27    92  69  28    65  50  16  
  55  45   3    49  40  13    65  54  16    78  66  15    76  65  23    81  75  23   106  94  30   111  99  31    97  84  23    99  84  26   122 110  30   165 156  41   152 144  22   144 133  22   188 179  70   189 165  72   166 132  30   192 158  61   206 181  96   154 139  51    97  80   2   123  99  29   172 138  59   154 125  39   184 160  90   247 223 178   240 220 174   221 204 146   179 160  91   105  87   6    79  75  20    71  67  20    71  69  19    72  72  12    72  73  12    68  67  14    68  65  15    83  78  22    86  77  23    85  77  22    89  79  28    81  69  29    72  59  30    75  61  36    79  66  37    84  72  38    62  55  27    49  37  15    51  36  17    60  52  23  
  48  42   1    44  37  16    65  55  27    68  55  18    55  40  20    50  41  16    72  62  23   104  96  38   129 120  57   110  99  38   117 108  18   158 154  22   138 131   1   120 107   4   176 174  54   201 181  84   174 140  31   175 140  30   195 169  68   165 148  47   127 105  23   188 157  86   225 198 146   164 137  76   196 168 115   247 216 176   229 201 159   185 161 110   125 104  54    78  58  14    66  62  17    70  66  23    78  76  27    77  77  16    69  69   8    65  63  13    71  67  19    82  78  23    56  54  32    46  44  19    51  50  25    54  51  33    50  44  33    50  44  31    53  47  26    57  51  23    57  51  17    83  71  27   135 116  62   155 136  77  
  49  39  16    48  42  26    41  37  12    44  37  19    43  35  29    47  40  28    70  60  27   103  95  47   135 127  70   112 106  41    98  88  17   119 114   3   136 133   1   122 111   1   158 154  32   205 195  72   148 125  33   112  85   4   165 143  30   203 185  67   184 162  71   162 135  58   179 139  91   147 108  61   144 103  68   151 112  84   137 106  71    92  69  38    61  46  22    62  53  19    73  67  22    69  65  15    71  69  21    71  69  27    65  64  13    68  68   4    81  79  22    66  59  22    32  31  17    26  26  12    29  29  17    34  32  26    41  36  36    43  34  30    47  38  18    68  60  27   119 107  41   152 137  60   190 171  98   212 190 124  
  57  46  15    46  38  30    46  43  27    45  43  28    42  38  26    47  45  23    54  43  23    56  45  22    68  56  36    61  50  24    57  42  15    82  72   6   132 128   3   139 134   5   131 130  13   180 175  56   146 137  30    79  57   1   107  86  16   180 168  41   190 178  62   116  97  23    80  43   6   124  84  47   108  63  39    88  46  21   113  81  33   110  88  32    97  78  28   109  91  37   105  89  36    82  70  11    79  69  17    71  65  24    67  64  19    74  72  19    74  70  30    46  39  22    29  26  11    34  31  14    39  38  19    40  37  21    42  39  24    50  44  24    63  57  22    84  77  32   126 111  49   174 160  87   202 185 115   218 199 133  
  65  55   7    48  39  28    68  65  44    62  61  43    51  49  37    58  56  33    63  52  34    54  47  22    53  46  24    54  46  22    51  40  22    58  45  11   108 103   2   155 156   3   114 115   1   140 140  31   173 170  58   101  90  12    57  38   4   110 100  14   162 160  23   121 112  22    54  30   1   109  78  31   143 103  51   149 106  59   168 132  78   126  96  37   104  70  19   113  74  29   101  67  23    86  57  11    92  69  21    89  74  26    76  67  24    63  59  22    59  55  29    43  40  23    36  27  20    40  31  21    45  39  25    56  49  34    61  56  37    66  60  36    82  75  41    93  86  44   102  87  42   126 111  55   165 149  88   189 172 104  
  78  69   1    68  59  33   108 106  71    95  93  73    56  50  47    57  53  34    68  57  35    77  70  30    77  72  25    66  62  12    61  52  14    54  42  13    80  72   1   141 142   1   134 133   1   109 102   7   167 160  57   166 162  48    88  73  13    67  49   6   124 114  22   146 140  22    88  70  24   113  85  28   200 160  97   207 163 101   173 133  78    91  54   9    81  38   6    87  39  15    91  47   8    93  52  15    95  62  19   105  81  31    95  79  36    55  43  18    45  39  22    43  40  21    54  43  12    61  51  24    52  43  24    52  43  30    55  48  31    56  48  23    69  59  24    78  71  26    90  76  31    94  78  30   118 100  48   129 110  52  
 119 114   2    83  72  28    78  69  44    74  66  49    55  45  34    70  62  33    86  72  44    81  69  35    82  71  33    82  71  31    85  75  26    88  76  28    89  76  14   123 115   5   151 143   8   126 113  11   166 153  59   202 192  88   169 157  63    99  81  25    82  62   9   151 138  34   155 139  54   127  99  35   184 146  90   200 158  96   164 123  64   112  74  21    90  56   8    85  52   9   103  64  23    94  55  21    86  52  16   101  73  27   114  94  49    78  61  33    56  43  21    63  56  26    91  83  19    93  86  36    65  55  26    42  32  16    51  40  24    66  54  26    88  77  35   111 101  48   141 130  57   172 157  93   197 179 119   203 183 127  
 162 160   3   114 106  29    59  45  17    70  56  34    90  75  45   100  84  45   116  97  52   111  93  54    99  83  43    91  73  40    96  81  29   137 123  49   151 134  64   144 126  44   148 134  25   140 129  14   122 106  26   143 129  52   166 156  61   125 110  38   105  85  26   133 116  41   179 165  60   167 148  67   174 149  81   159 125  60   119  74  19   124  82  27   108  77  20    78  58   6    84  57  24    70  42  19    66  37  16    84  57  23   117  94  45   107  87  35    95  78  25   106  93  35   106 101  33    91  83  34    58  46  21    41  27  15    54  39  24    64  49  21    70  54  13    88  72  24   112  97  29   138 119  62   171 151  91   215 194 133  
 171 169   1   140 136  16    82  67   6    79  61  22    90  71  34    96  74  41   132 110  61   146 125  72   129 112  49   118  96  58   110  89  45   150 130  60   194 170 111   196 169 116   152 137  47   136 123  28   119 108  26    99  88  21   116 108  34   132 122  53   137 122  63   107  96  15   148 135  38   196 186 110   199 187 123   171 142  81   135  91  29   143  96  28   113  81  24    68  47  27    53  40   2    49  33   8    47  26   9    74  48  20   109  86  36   113  90  24   119 100  29   119  99  30    98  93  27    80  73  22    59  48  17    47  36  10    65  52  20    85  71  28    88  71  20    97  77  25   127 110  39   151 131  69   143 123  53   170 148  74  
